<svg width="71" height="71" viewBox="0 0 71 71" fill="none" xmlns="http://www.w3.org/2000/svg">
<path d="M26.688 37.5164L24.1675 43.5656C23.8693 44.2898 24.2101 45.1205 24.9343 45.4258C25.1118 45.4968 25.2964 45.5323 25.481 45.5323C26.0348 45.5323 26.5673 45.2057 26.7945 44.659L28.9387 39.5186L36.4789 39.6393L38.5166 44.5951C38.8148 45.3193 39.6455 45.6672 40.3697 45.369C41.0939 45.0708 41.4418 44.2401 41.1436 43.5159L34.0294 26.2132C33.9228 25.9539 33.7419 25.7319 33.5095 25.5752C33.277 25.4185 33.0033 25.3342 32.723 25.3328C32.1479 25.3328 31.6296 25.6807 31.4095 26.2061L26.7022 37.5022L26.688 37.5164ZM32.7017 30.4732L35.3003 36.7851L30.1102 36.6999L32.7017 30.4732ZM44.1043 26.767V44.2401C44.1043 45.0211 44.7433 45.6601 45.5243 45.6601C46.3053 45.6601 46.9443 45.0211 46.9443 44.2401V26.767C46.9443 25.986 46.3053 25.347 45.5243 25.347C44.7433 25.347 44.1043 25.986 44.1043 26.767ZM26.6241 10.4015H18.9419C14.2417 10.4015 10.4219 14.2213 10.4219 18.9215V26.625C10.4219 27.406 11.0609 28.045 11.8419 28.045C12.6229 28.045 13.2619 27.406 13.2619 26.625V18.9215C13.2619 15.7904 15.8108 13.2415 18.9419 13.2415H26.6241C27.4051 13.2415 28.0441 12.6025 28.0441 11.8215C28.0441 11.0405 27.4051 10.4015 26.6241 10.4015ZM10.4219 52.0714C10.4219 56.7716 14.2417 60.5985 18.9419 60.5985H26.6241C27.4051 60.5985 28.0441 59.9595 28.0441 59.1785C28.0441 58.3975 27.4051 57.7585 26.6241 57.7585H18.9419C15.8108 57.7585 13.2619 55.2096 13.2619 52.0714V44.375C13.2619 43.594 12.6229 42.955 11.8419 42.955C11.0609 42.955 10.4219 43.594 10.4219 44.375V52.0714ZM59.1563 28.045C59.9373 28.045 60.5763 27.406 60.5763 26.625V18.9215C60.5763 14.2213 56.7565 10.4015 52.0563 10.4015H44.3741C43.5931 10.4015 42.9541 11.0405 42.9541 11.8215C42.9541 12.6025 43.5931 13.2415 44.3741 13.2415H52.0563C55.1874 13.2415 57.7363 15.7904 57.7363 18.9215V26.625C57.7363 27.406 58.3753 28.045 59.1563 28.045ZM44.3741 60.5985H52.0563C56.7565 60.5985 60.5763 56.7716 60.5763 52.0714V44.375C60.5763 43.594 59.9373 42.955 59.1563 42.955C58.3753 42.955 57.7363 43.594 57.7363 44.375V52.0714C57.7363 55.2096 55.1874 57.7585 52.0563 57.7585H44.3741C43.5931 57.7585 42.9541 58.3975 42.9541 59.1785C42.9541 59.9595 43.5931 60.5985 44.3741 60.5985Z" fill="#1DD673"/>
</svg>
