<svg width="98" height="98" viewBox="0 0 98 98" fill="none" xmlns="http://www.w3.org/2000/svg">
<path d="M20.1836 38.8372V19.3639C20.1836 18.7804 20.6375 18.3136 21.2049 18.3136C21.7723 18.3136 22.2262 18.7804 22.2262 19.3639V38.8372C22.2262 39.4207 21.7723 39.8875 21.2049 39.8875C20.6375 39.8875 20.1836 39.4207 20.1836 38.8372Z" fill="#FF733D"/>
<path d="M25.3063 19.3639C25.3063 18.7804 25.7602 18.3136 26.3276 18.3136C26.895 18.3136 27.3489 18.7804 27.3327 19.3639V38.9205C27.3165 39.4874 26.8464 39.9376 26.279 39.9209C25.7278 39.9042 25.2901 39.4207 25.3063 38.8372V19.3639Z" fill="#FF733D"/>
<path d="M30.4291 19.3639C30.4291 18.7804 30.883 18.3136 31.4504 18.3136C32.0178 18.3136 32.4717 18.7804 32.4717 19.3639V38.8372C32.4717 39.4207 32.0178 39.8875 31.4504 39.8875C30.883 39.8875 30.4291 39.4207 30.4291 38.8372V19.3639Z" fill="#FF733D"/>
<path d="M35.5518 19.3639C35.5518 18.7804 36.0057 18.3136 36.5731 18.3136C37.1405 18.3136 37.5944 18.7804 37.5944 19.3639V38.8372C37.5944 39.4207 37.1405 39.8875 36.5731 39.8875C36.0057 39.8875 35.5518 39.4207 35.5518 38.8372V19.3639Z" fill="#FF733D"/>
<path d="M16.9391 18.2276C16.9391 18.8112 16.4852 19.278 15.9178 19.278C15.3504 19.278 14.8965 18.7945 14.8965 18.2276V10.4583C14.8965 9.87481 15.3504 9.40799 15.9178 9.40799H24.1693C24.7367 9.40799 25.1906 9.87481 25.1906 10.4583C25.1906 11.0419 24.7367 11.5087 24.1693 11.5087H16.9391V18.2276Z" fill="#FF733D"/>
<path d="M16.9391 37.7435C16.9391 37.16 16.4852 36.6932 15.9178 36.6932C15.3504 36.6932 14.8965 37.1767 14.8965 37.7435V45.5128C14.8965 46.0964 15.3504 46.5632 15.9178 46.5632H24.1693C24.7367 46.5632 25.1906 46.0964 25.1906 45.5128C25.1906 44.9293 24.7367 44.4625 24.1693 44.4625H16.9391V37.7435Z" fill="#FF733D"/>
<path d="M51.0863 18.2276C51.0863 18.8112 51.5402 19.278 52.1076 19.278C52.675 19.278 53.1289 18.7945 53.1289 18.2276V10.4583C53.1289 9.87481 52.675 9.40799 52.1076 9.40799H43.8561C43.2887 9.40799 42.8348 9.87481 42.8348 10.4583C42.8348 11.0419 43.2887 11.5087 43.8561 11.5087H51.0863V18.2276Z" fill="#FF733D"/>
<path d="M48.875 41.8064V31.8697C48.875 31.3028 49.3289 30.8193 49.8963 30.8193C50.4637 30.8193 50.9176 31.2861 50.9176 31.8697V41.8064C50.9176 42.3899 50.4637 42.8567 49.8963 42.8567C49.3289 42.8567 48.875 42.3899 48.875 41.8064Z" fill="#FF733D"/>
<path d="M53.9977 31.8697C53.9977 31.2861 54.4517 30.8193 55.019 30.8193C55.5864 30.8193 56.0403 31.3028 56.0241 31.8697V41.8897C56.0079 42.4566 55.5378 42.9067 54.9704 42.8901C54.4192 42.8734 53.9815 42.3899 53.9977 41.8064V31.8697Z" fill="#FF733D"/>
<path d="M59.1205 31.8697C59.1205 31.2861 59.5744 30.8193 60.1418 30.8193C60.7092 30.8193 61.1631 31.3028 61.1631 31.8697V41.8064C61.1631 42.3899 60.7092 42.8567 60.1418 42.8567C59.5744 42.8567 59.1205 42.3899 59.1205 41.8064V31.8697Z" fill="#FF733D"/>
<path d="M64.2594 31.8697C64.2594 31.2861 64.7133 30.8193 65.2807 30.8193C65.8319 30.8193 66.302 31.3028 66.302 31.8697V41.8064C66.302 42.3899 65.8481 42.8567 65.2807 42.8567C64.7133 42.8567 64.2594 42.3899 64.2594 41.8064V31.8697Z" fill="#FF733D"/>
<path d="M70.1974 17.7451C72.9408 17.7451 75.1681 20.0449 75.1681 22.878V47.209C75.6843 47.4756 76.1203 47.8918 76.4269 48.4082L82.8009 59.041C83.8336 60.7741 84.3824 62.7737 84.3663 64.8233V68.5733C84.3663 72.0562 83.1722 75.4391 81.0099 78.1055L77.8947 81.9385V87.7549C77.8784 88.3214 77.4105 88.7716 76.8458 88.7549C76.2973 88.7381 75.8619 88.2541 75.8781 87.6709V81.5557C75.8781 81.3057 75.975 81.072 76.1203 80.8887L79.4767 76.7559C81.3487 74.4561 82.3654 71.5563 82.3654 68.5733V64.8233C82.3653 63.1736 81.9134 61.557 81.0744 60.1573L74.7003 49.5254C74.5874 49.3422 74.4095 49.1752 74.216 49.0752H74.1515C73.9902 49.0752 73.8123 49.0257 73.6671 48.9424C73.3766 48.9424 73.0859 49.0754 72.8761 49.2754L72.7638 49.3916C71.5213 50.5914 70.8916 52.308 71.0851 54.0576L71.2306 55.4248C71.4727 57.5078 72.2951 59.4911 73.6183 61.0909L74.9259 62.6739C75.2809 63.1071 75.2322 63.7574 74.8126 64.1407L71.8595 66.7901C69.4389 68.9565 68.0509 72.1066 68.0509 75.4229V81.3223C68.0507 81.9054 67.599 82.3721 67.0343 82.3721H55.8995V87.6875C55.8995 88.2708 55.4477 88.7383 54.8829 88.7383C54.3181 88.7383 53.8663 88.2708 53.8663 87.6875V82.3887H50.3966C49.3477 83.4884 47.7824 83.8718 46.3624 83.3887L41.005 81.5557C38.9394 80.8391 37.8253 78.5384 38.5031 76.4053C38.729 75.6555 39.1815 74.9725 39.7785 74.4727C38.5037 73.4229 37.9869 71.6399 38.5031 70.0235C38.7451 69.2569 39.197 68.5898 39.7941 68.0899C38.5033 67.0234 37.9868 65.2404 38.5031 63.6241C38.7451 62.8575 39.197 62.1904 39.7941 61.6905C38.5033 60.6239 37.9868 58.841 38.5031 57.2246C38.8258 56.1914 39.5358 55.3242 40.4718 54.8242V22.878C40.4718 20.3837 42.1985 18.3038 44.4835 17.8418H60.2033V17.7451H70.1974ZM42.2794 75.6563C41.4564 75.6563 40.73 76.1893 40.4718 77.0059C40.4559 77.0224 40.4562 77.0225 40.4562 77.0391C40.1173 78.0723 40.6656 79.2057 41.6661 79.5557L47.0236 81.3887C47.5077 81.5554 48.0248 81.5048 48.4767 81.2715C48.7347 81.1382 48.977 80.9383 49.1544 80.7051L49.1867 80.6553C49.2996 80.4887 49.3799 80.322 49.4445 80.1387C49.6058 79.6221 49.5737 79.0556 49.3478 78.5723C49.1219 78.1058 48.7185 77.7556 48.2345 77.5889L46.8468 77.1221C46.6854 77.0888 46.5394 77.0393 46.3781 76.9893L42.5372 75.6729C42.4566 75.6563 42.36 75.6563 42.2794 75.6563ZM51.5744 73.2227C51.5582 73.6059 51.4939 73.9724 51.381 74.3389C51.1551 75.0887 50.7036 75.7726 50.1066 76.2725C51.2522 77.2391 51.7847 78.7728 51.4943 80.2725H66.0177V75.4063C66.0177 74.673 66.0825 73.9393 66.1954 73.2227H51.5744ZM42.2472 69.2735C41.4242 69.2735 40.6978 69.8232 40.4396 70.6231C40.2621 71.1396 40.2943 71.7063 40.5363 72.1895C40.7622 72.6561 41.1664 73.0062 41.6505 73.1729L42.9894 73.6563C43.1508 73.6896 43.3124 73.7391 43.4738 73.7891L47.3146 75.0889C48.2666 75.2388 49.1862 74.6559 49.4767 73.7061C49.7994 72.6563 49.2188 71.5395 48.2023 71.2061L46.8146 70.7393C46.6532 70.706 46.5072 70.6565 46.3458 70.6065L42.505 69.2901C42.4244 69.2735 42.3278 69.2735 42.2472 69.2735ZM45.4581 19.8614C43.8446 19.8616 42.5217 21.2116 42.5216 22.8946V54.3916C42.8604 54.4083 43.199 54.4752 43.5216 54.5918L48.88 56.4248C50.9454 57.1249 52.0587 59.4247 51.381 61.5576C51.1551 62.3073 50.7034 62.9904 50.1066 63.4903C51.3813 64.5568 51.8974 66.3406 51.381 67.9571C51.1551 68.7067 50.7034 69.3898 50.1066 69.8897C50.5099 70.2396 50.8646 70.6565 51.1066 71.1397H66.712C67.4544 68.8399 68.7778 66.7902 70.5529 65.2071L72.7306 63.2403L72.0695 62.4405C70.4881 60.5241 69.4874 58.1579 69.213 55.6416L69.0675 54.2744C68.8094 51.8748 69.6647 49.4916 71.3751 47.8418L71.4884 47.7256C71.9402 47.2924 72.5212 46.9926 73.1505 46.9092V22.8946C73.1505 21.2282 71.8437 19.8616 70.214 19.8614H45.4581ZM42.2628 62.8575C41.44 62.8577 40.7144 63.4073 40.4562 64.2071C40.4401 64.2237 40.4396 64.2237 40.4396 64.2403C40.1007 65.2735 40.65 66.4069 41.6505 66.7569L43.0216 67.2237C43.183 67.257 43.3446 67.3065 43.506 67.3565L47.3468 68.6729C48.2666 68.8061 49.1384 68.2397 49.4288 67.3399V67.3067C49.7676 66.2735 49.2184 65.14 48.2179 64.7901L46.8302 64.3233C46.6689 64.29 46.5237 64.2404 46.3624 64.1905L42.5216 62.8741C42.4409 62.8574 42.3435 62.8575 42.2628 62.8575ZM42.2628 56.4746C41.4401 56.4748 40.7144 57.0246 40.4562 57.8242C40.4562 57.8409 40.4557 57.8408 40.4396 57.8575C40.0846 58.8907 40.6334 60.0241 41.6339 60.3741L43.006 60.8409C43.1671 60.8741 43.3283 60.9238 43.4894 60.9737L47.3302 62.291C48.2823 62.441 49.2028 61.8572 49.4933 60.9073C49.7998 59.8574 49.2345 58.7405 48.2179 58.4073L42.8605 56.5742C42.6668 56.5076 42.4726 56.4746 42.2628 56.4746Z" fill="#1B1A1F"/>
</svg>
