<svg width="40" height="40" viewBox="0 0 40 40" fill="none" xmlns="http://www.w3.org/2000/svg">
<rect width="40" height="40" fill="white"/>
<path d="M34.8796 34.1264H30.317V30.2961L29.3832 30.4023L28.8559 34.1264H17.3615L18.0646 25.3197C14.8495 22.4488 12.4327 18.9628 10.9716 14.8835C10.5835 13.7996 9.55086 10.8372 9.77057 9.85586C10.0452 8.62183 11.8175 7.87848 12.9344 8.36184C13.7327 8.70605 14.2453 10.8665 14.6737 11.727C16.3216 15.0373 18.753 18.6149 22.1585 20.2957C25.044 21.7201 28.4385 21.4968 31.4009 22.7308C36.4505 24.829 34.8137 29.7322 34.8686 34.13L34.8796 34.1264Z" fill="#FF733D"/>
<path d="M26.2418 19.589C28.9598 19.589 31.1633 17.3855 31.1633 14.6675C31.1633 11.9494 28.9598 9.746 26.2418 9.746C23.5237 9.746 21.3203 11.9494 21.3203 14.6675C21.3203 17.3855 23.5237 19.589 26.2418 19.589Z" fill="#FF733D"/>
<path d="M8.18521 10.1048C9.16658 10.991 9.9026 13.9534 8.30972 14.7663C5.71349 16.0919 4.12426 11.4304 5.51575 10.1488C6.16756 9.54823 7.52609 9.50795 8.18521 10.1048Z" fill="#FF733D"/>
<path d="M16.0359 6.0732C17.9071 5.6411 18.6285 7.19737 18.9251 8.76097C19.4268 11.4085 16.3032 12.1957 15.3182 10.1781C15.1351 9.80092 14.6151 7.99565 14.6627 7.63313C14.7396 7.02161 15.4207 6.21601 16.0359 6.0732Z" fill="#FF733D"/>
</svg>
