<svg width="40" height="40" viewBox="0 0 40 40" fill="none" xmlns="http://www.w3.org/2000/svg">
<rect width="40" height="40" fill="white"/>
<path d="M5.08539 33.9895C4.9824 33.9605 4.99957 33.7611 5.00353 33.6766C5.01937 33.3135 5.125 32.891 5.16725 32.5213C5.40491 30.488 5.63993 28.4508 5.89211 26.4188C6.18918 24.0277 6.15221 22.4631 7.95445 20.6318C11.0757 17.4617 16.9287 17.6532 18.6266 22.1634C19.2828 23.9049 19.807 25.7732 20.4051 27.5424C20.6361 28.2263 20.8712 28.9155 21.1313 29.5876L22.0066 29.7024H22.3684L24.4136 29.9335L25.1384 29.9665C26.8377 30.3454 29.5391 29.7064 29.8691 32.0645C30.0751 33.5314 29.2829 34.6021 27.8068 34.7447L18.6055 34.75C17.2376 34.6325 16.5431 33.6225 15.9714 32.5015C14.9997 30.5963 14.1639 28.6132 13.1856 26.7106C13.1724 26.6855 13.1143 26.5785 13.1077 26.5746C12.9466 26.4808 11.8811 26.9007 11.6289 26.9126L11.6051 27.104L14.8875 33.7505C14.9297 33.7981 14.9508 33.9895 14.8795 33.9895H5.08143H5.08539Z" fill="#17B661"/>
<path d="M15.0524 17.7561C18.2988 17.7561 20.9305 15.1244 20.9305 11.8781C20.9305 8.6317 18.2988 6 15.0524 6C11.806 6 9.17432 8.6317 9.17432 11.8781C9.17432 15.1244 11.806 17.7561 15.0524 17.7561Z" fill="#17B661"/>
<path d="M27.7036 19.6667L27.7947 19.6693C27.9677 19.2877 28.1921 18.8916 28.4588 18.5681C28.7255 18.2447 29.354 17.599 29.8082 17.9753C30.2624 18.3516 29.5468 18.8084 29.3144 19.0712C29.0332 19.3894 28.6146 20.0086 28.4324 20.3902C28.4007 20.4575 28.2793 20.7401 28.4351 20.7242C28.9117 20.4549 29.6498 20.4892 30.1647 20.6529C32.9822 21.5468 31.4626 26.3501 29.42 27.3166C28.6239 27.6929 26.6975 27.6414 25.9278 27.2004C24.5428 26.4069 23.5512 23.5761 23.9882 22.0828C24.3381 20.884 25.566 20.3453 26.7503 20.5724C26.9259 20.6067 27.2692 20.8642 27.2283 20.5235C27.219 20.4496 26.9906 19.7472 26.9642 19.7142C26.8718 19.6033 26.6183 19.796 26.518 19.829C26.0875 19.9664 25.6083 20.0443 25.1765 19.8687C24.6233 19.6442 24.3579 18.8494 23.773 18.6989C23.6317 18.6632 23.1485 18.7437 23.1445 18.5695C23.1538 18.5127 23.1841 18.4572 23.2264 18.4189C23.975 17.735 25.3983 17.2069 26.349 17.739C27.0606 18.1364 27.3973 18.9563 27.7023 19.668L27.7036 19.6667ZM29.7567 22.298C29.8993 22.4142 30.0023 22.5106 30.0802 22.6849C30.1858 22.9199 30.1713 23.3675 30.4855 23.4005C30.9278 23.4481 30.9318 23.0625 30.8486 22.739C30.7285 22.2677 30.405 21.8359 29.9917 21.5838C29.7197 21.4187 28.9658 21.0715 28.9038 21.6128C28.8589 22.0049 29.2603 22.0115 29.5138 22.1277C29.622 22.1779 29.6748 22.2307 29.7567 22.2967V22.298Z" fill="#17B661"/>
<path d="M33.5809 25.204C36.5054 27.5199 34.6213 30.2807 31.7642 31.3422C31.6176 31.3964 31.2228 31.5997 31.1357 31.4254C31.0749 31.3026 31.038 31.0359 30.9706 30.8986C30.9297 30.7705 30.6894 30.4933 30.7713 30.3652C30.7884 30.3388 31.2902 30.1988 31.3773 30.1632C32.629 29.6601 34.5051 28.4217 33.4845 26.8663C33.1677 26.3831 32.629 25.9896 32.1206 25.7229L32.0652 25.6437C32.0243 25.5183 32.1404 25.4179 32.1748 25.3189C32.2606 25.072 32.3279 24.8119 32.4164 24.5703C32.489 24.4977 32.5907 24.5399 32.6699 24.5795C32.9987 24.7433 33.2997 24.9796 33.5809 25.2027V25.204Z" fill="#17B661"/>
<path d="M21.9708 26.2828C21.9193 26.3276 21.823 26.3897 21.8018 26.4108C21.7543 26.4584 21.7543 26.6036 21.6104 26.601C21.5813 26.6036 21.5642 26.5891 21.5457 26.5693C21.4229 26.4386 21.3265 25.6807 21.1734 25.4879C21.1549 25.4206 21.1707 25.3612 21.2037 25.3018C21.2262 25.2635 21.7107 24.9149 21.7886 24.8647C21.9774 24.7419 22.2164 24.6073 22.4184 24.5056C22.5109 24.4594 22.8409 24.2838 22.9069 24.2679C23.2225 24.1927 23.138 24.367 23.1869 24.532C23.2463 24.734 23.4007 25.0575 23.4377 25.241C23.4509 25.3097 23.4443 25.3678 23.4087 25.4285C22.8977 25.6503 22.3973 25.921 21.9722 26.2841L21.9708 26.2828Z" fill="#17B661"/>
</svg>
