<svg width="46" height="42" viewBox="0 0 46 42" fill="none" xmlns="http://www.w3.org/2000/svg">
<rect width="46" height="42" fill="white"/>
<path d="M23.0771 34.5314V32.4144C23.7946 32.3876 24.3265 32.2281 24.2455 31.3793C24.191 30.8104 23.5747 30.6119 23.0771 30.6866V27.4833L23.1604 27.3996H31.3164C31.5862 27.8357 31.7961 28.2651 32.2992 28.4737C33.2854 28.8842 34.1683 28.3376 34.5348 27.3996H39.5833L39.6666 27.4833V34.4477L39.5833 34.5314H23.0783H23.0771ZM25.8502 28.2361L25.1372 28.2439C25.0628 28.2908 25.0417 28.9388 25.0984 29.0203L25.8513 29.0727V28.2373L25.8502 28.2361ZM37.3711 28.2428C37.2112 28.2953 37.2823 28.8619 37.3045 29.0191L38.0052 29.047L38.033 28.2874L37.3711 28.2428ZM29.8515 30.3264C29.8515 29.6036 29.2674 29.0169 28.5477 29.0169C27.8281 29.0169 27.244 29.6036 27.244 30.3264C27.244 31.0491 27.8281 31.6358 28.5477 31.6358C29.2674 31.6358 29.8515 31.0491 29.8515 30.3264ZM32.8412 29.6839L32.1271 29.6917C32.0238 30.3487 32.0182 30.7056 32.8167 30.468L32.8412 29.6839ZM37.35 31.7541C37.35 30.8986 36.6604 30.2059 35.8086 30.2059C34.9568 30.2059 34.2671 30.8986 34.2671 31.7541C34.2671 32.6096 34.9568 33.3022 35.8086 33.3022C36.6604 33.3022 37.35 32.6096 37.35 31.7541ZM26.9052 32.5259L26.19 32.5326C26.1478 32.662 26.1134 33.2453 26.2045 33.31C26.3155 33.3881 26.8175 33.4015 26.8808 33.31L26.9052 32.5259Z" fill="#5993F0"/>
<path d="M32.0094 16.2568V21.5772C31.563 21.7791 31.101 22.0223 30.6223 22.107V21.1322C30.6223 21.1132 30.549 21.0474 30.5668 20.9928H23.4381L23.3548 21.0764V24.9769L21.6168 25.6696L21.5369 25.8235C21.5535 28.5852 21.4691 31.3547 21.5202 34.1175C21.5235 34.277 21.6257 34.4398 21.4958 34.5324H20.0254V16.258H32.0094V16.2568Z" fill="#5993F0"/>
<path d="M16.753 31.996C16.7185 32.267 16.5264 32.47 16.2932 32.5927L9.90084 32.6362C9.62876 32.6251 9.39776 32.4276 9.30003 32.1811L9.2334 23.4689C9.25117 23.2603 9.49327 23.2436 9.66096 23.2012C11.9676 22.6156 13.609 23.7243 15.7202 23.3808C15.9811 23.3384 16.4453 23.1276 16.6253 23.1175C16.673 23.1142 16.753 23.1588 16.753 23.1934V31.996Z" fill="#5993F0"/>
<path d="M9.62276 15.0309C9.63498 15.0331 9.75714 15.0877 9.76158 15.1201C9.59056 16.3927 8.49444 17.217 8.4278 18.5109L8.43002 32.7208C8.49888 33.2362 8.7954 33.438 9.28737 33.4748C11.7206 33.6567 14.3782 33.3343 16.8347 33.4726C17.159 33.4592 17.3833 33.1926 17.5022 32.9172L17.5277 18.3469C17.4711 17.3486 16.7214 16.6917 16.4171 15.7849C16.3816 15.6778 16.155 15.0309 16.3361 15.0309H17.2789C17.2878 15.0309 17.3967 15.0877 17.4055 15.1C17.5099 15.825 18.0663 16.328 18.3328 16.9817C18.5316 17.4713 18.6183 17.9922 18.6938 18.5131L18.696 32.6662C18.6094 33.8318 17.7876 34.617 16.6193 34.6371C14.3437 34.6761 11.9127 34.617 9.62054 34.5835C9.48838 34.5813 9.37511 34.6315 9.25073 34.627C8.27344 34.5925 7.43275 33.8786 7.31836 32.8893L7.32169 18.2342C7.41387 17.1378 7.9225 16.6872 8.35006 15.8127C8.41115 15.6878 8.61327 15.0297 8.6799 15.0297C8.97309 15.061 9.34179 14.9862 9.62276 15.0297V15.0309Z" fill="#5993F0"/>
<path d="M38.2785 21.9954C38.1985 22.0032 38.1341 21.9999 38.0586 21.9653C37.5866 21.75 36.9558 21.1778 36.4649 20.8923C36.1084 20.6848 35.7175 20.5298 35.3532 20.3346L32.9145 21.2637L32.7856 21.1879V15.4492L34.4504 12.7188V8.48478L34.5337 8.40112H36.4749L36.5582 8.48478V12.6072L38.2785 15.505V21.9954Z" fill="#5993F0"/>
<path d="M33.5899 12.4121L33.6688 12.5449L32.0007 15.3289L31.803 15.4649C28.1682 15.4058 24.5167 15.5832 20.8829 15.4794C20.6897 15.4739 20.2599 15.4727 20.1055 15.4214C20.0467 15.4025 20.0067 15.4605 20.0267 15.3378L21.6981 12.5582C21.7281 12.5147 21.8491 12.411 21.8847 12.411H33.591L33.5899 12.4121Z" fill="#5993F0"/>
<path d="M31.3989 26.6198H23.5762C23.7261 26.4435 24.0393 26.3632 24.2603 26.2751C27.8985 24.8229 31.57 23.4565 35.2048 21.9943C37.1238 22.891 38.7875 24.486 39.5337 26.5038L39.4727 26.6198H34.5351C33.9843 25.0359 31.8876 24.9645 31.4 26.6198H31.3989ZM35.7745 25.0515C35.8511 25.0036 35.8789 24.4158 35.7878 24.302C35.6835 24.1693 35.2792 24.2172 35.1137 24.2485L35.0615 25.0605L35.7756 25.0526L35.7745 25.0515ZM30.1029 25.0671C29.943 25.1196 30.0141 25.6862 30.0363 25.8435L30.737 25.8713L30.7648 25.1118L30.1029 25.0671Z" fill="#5993F0"/>
<path d="M17.33 13.5495C17.1124 13.7637 16.9325 13.8786 16.6137 13.9165L9.29295 13.9131C8.79987 13.8049 8.319 13.3476 8.26347 12.8301C8.14575 11.7393 8.3401 10.8469 9.56837 10.741C11.7917 10.5503 14.2905 10.8693 16.5427 10.7555C17.4911 10.8759 17.7987 11.6166 17.7554 12.4944C17.731 12.9851 17.6677 13.216 17.33 13.5484V13.5495Z" fill="#5993F0"/>
<path d="M33.7296 8.40002H29.5684V11.6871H33.7296V8.40002Z" fill="#5993F0"/>
<path d="M26.4055 8.40002H22.2998V11.6904H26.4055V8.40002Z" fill="#5993F0"/>
<path d="M28.8175 8.40002H27.1816V11.6871H28.8175V8.40002Z" fill="#5993F0"/>
<path d="M32.9411 27.8389C33.3981 27.8389 33.7685 27.4668 33.7685 27.0079C33.7685 26.549 33.3981 26.1769 32.9411 26.1769C32.4842 26.1769 32.1138 26.549 32.1138 27.0079C32.1138 27.4668 32.4842 27.8389 32.9411 27.8389Z" fill="#5993F0"/>
<path d="M37.35 31.7539C37.35 32.6094 36.6603 33.3021 35.8085 33.3021C34.9567 33.3021 34.2671 32.6094 34.2671 31.7539C34.2671 30.8984 34.9567 30.2057 35.8085 30.2057C36.6603 30.2057 37.35 30.8984 37.35 31.7539ZM36.5815 31.7506C36.5815 31.32 36.2339 30.972 35.8063 30.972C35.3788 30.972 35.0311 31.3211 35.0311 31.7506C35.0311 32.18 35.3788 32.5291 35.8063 32.5291C36.2339 32.5291 36.5815 32.18 36.5815 31.7506Z" fill="white"/>
<path d="M29.8517 30.3263C29.8517 31.0491 29.2676 31.6358 28.5479 31.6358C27.8283 31.6358 27.2441 31.0491 27.2441 30.3263C27.2441 29.6035 27.8283 29.0168 28.5479 29.0168C29.2676 29.0168 29.8517 29.6035 29.8517 30.3263ZM29.0799 30.3252C29.0799 30.0296 28.8411 29.7909 28.5479 29.7909C28.2547 29.7909 28.016 30.0307 28.016 30.3252C28.016 30.6197 28.2547 30.8595 28.5479 30.8595C28.8411 30.8595 29.0799 30.6197 29.0799 30.3252Z" fill="white"/>
<path d="M25.8506 28.236V29.0715L25.0977 29.019C25.041 28.9387 25.0621 28.2907 25.1365 28.2427L25.8495 28.2349L25.8506 28.236Z" fill="white"/>
<path d="M37.3712 28.2427L38.0331 28.2874L38.0053 29.0469L37.3045 29.019C37.2823 28.8629 37.2112 28.2963 37.3712 28.2427Z" fill="white"/>
<path d="M26.9051 32.5257L26.8807 33.3098C26.8174 33.4002 26.3165 33.3868 26.2043 33.3098C26.1133 33.2451 26.1466 32.6629 26.1899 32.5324L26.9051 32.5257Z" fill="white"/>
<path d="M32.8411 29.6839L32.8167 30.468C32.0182 30.7056 32.0237 30.3476 32.127 29.6917L32.8411 29.6839Z" fill="white"/>
<path d="M30.1021 25.0671L30.764 25.1117L30.7362 25.8713L30.0355 25.8434C30.0133 25.6872 29.9422 25.1206 30.1021 25.0671Z" fill="white"/>
<path d="M35.7741 25.0516L35.0601 25.0594L35.1123 24.2474C35.2777 24.2173 35.6831 24.1682 35.7864 24.3009C35.8774 24.4147 35.8497 25.0025 35.773 25.0505L35.7741 25.0516Z" fill="white"/>
<path d="M35.8064 32.5291C36.2345 32.5291 36.5816 32.1806 36.5816 31.7506C36.5816 31.3206 36.2345 30.972 35.8064 30.972C35.3783 30.972 35.0312 31.3206 35.0312 31.7506C35.0312 32.1806 35.3783 32.5291 35.8064 32.5291Z" fill="#5993F0"/>
<path d="M28.5481 30.8594C28.8419 30.8594 29.08 30.6202 29.08 30.3252C29.08 30.0301 28.8419 29.7909 28.5481 29.7909C28.2543 29.7909 28.0161 30.0301 28.0161 30.3252C28.0161 30.6202 28.2543 30.8594 28.5481 30.8594Z" fill="#5993F0"/>
</svg>
