<svg width="35" height="35" viewBox="0 0 35 35" fill="none" xmlns="http://www.w3.org/2000/svg">
<rect width="35" height="35" fill="white"/>
<path d="M4.60352 5.75476L8.04618 10.0661C8.23415 10.3015 8.5422 10.4055 8.83442 10.3323L11.5672 9.64787C11.8889 9.56731 12.2259 9.70184 12.4037 9.98172L14.873 13.8693C15.1373 14.2853 15.719 14.3491 16.0672 14.0003L18.9655 11.0966C19.3018 10.7596 19.8547 10.8099 20.0842 11.227C20.7545 12.4457 21.5175 14.2778 22.4218 16.0898C23.2323 17.7138 24.9022 17.7295 26.0652 17.0847C26.6068 16.7844 27.4914 16.8414 27.7984 17.3793C28.5187 18.6415 29.3677 19.8479 29.9243 19.8479" stroke="#FF733D" stroke-width="1.15094"/>
<path d="M8.35474 10.4525L4.60352 5.75476V28.7736H29.9243V19.8479C29.174 19.8479 27.8924 17.6557 27.1109 16.0898C26.3293 17.4991 23.5472 18.3447 22.4218 16.0898C21.2965 13.8349 20.3899 11.5486 19.6084 10.4525L15.3883 14.6804L12.106 9.51294L8.35474 10.4525Z" fill="url(#paint0_linear_5375_37544)"/>
<defs>
<linearGradient id="paint0_linear_5375_37544" x1="17.2639" y1="10.298" x2="17.2639" y2="28.7736" gradientUnits="userSpaceOnUse">
<stop stop-color="#FF733D" stop-opacity="0.4"/>
<stop offset="1" stop-color="#FF733D" stop-opacity="0"/>
</linearGradient>
</defs>
</svg>
