<svg width="256" height="155" viewBox="0 0 256 155" fill="none" xmlns="http://www.w3.org/2000/svg">
<g filter="url(#filter0_dddddd_5427_41563)">
<rect x="52" y="20" width="151.281" height="54" rx="18.1482" fill="#F1F1F1" fill-opacity="0.1" shape-rendering="crispEdges"/>
<rect x="53.1343" y="21.1343" width="149.013" height="51.7315" rx="17.0139" stroke="url(#paint0_linear_5427_41563)" stroke-opacity="0.1" stroke-width="2.26852" shape-rendering="crispEdges"/>
</g>
<path d="M115.416 52V40.8H119.032C120.157 40.8 121.152 41.0373 122.016 41.512C122.88 41.9867 123.555 42.6453 124.04 43.488C124.525 44.3307 124.768 45.304 124.768 46.408C124.768 47.2293 124.629 47.984 124.352 48.672C124.075 49.3547 123.68 49.944 123.168 50.44C122.661 50.936 122.056 51.32 121.352 51.592C120.653 51.864 119.88 52 119.032 52H115.416ZM117.496 50.064H118.84C119.4 50.064 119.909 49.9813 120.368 49.816C120.827 49.6507 121.221 49.4107 121.552 49.096C121.888 48.7813 122.144 48.3973 122.32 47.944C122.501 47.4907 122.592 46.9787 122.592 46.408C122.592 45.6347 122.435 44.976 122.12 44.432C121.811 43.8827 121.373 43.464 120.808 43.176C120.248 42.8827 119.592 42.736 118.84 42.736H117.496V50.064ZM126.348 52V44H128.396V52H126.348ZM127.372 42.656C127.02 42.656 126.716 42.544 126.46 42.32C126.204 42.096 126.076 41.8 126.076 41.432C126.076 41.064 126.204 40.768 126.46 40.544C126.716 40.32 127.02 40.208 127.372 40.208C127.724 40.208 128.028 40.32 128.284 40.544C128.54 40.768 128.668 41.064 128.668 41.432C128.668 41.8 128.54 42.096 128.284 42.32C128.028 42.544 127.724 42.656 127.372 42.656ZM134.131 52.24C133.261 52.24 132.499 52.064 131.843 51.712C131.187 51.3547 130.675 50.8587 130.307 50.224C129.944 49.5893 129.763 48.8507 129.763 48.008C129.763 47.3893 129.867 46.8213 130.075 46.304C130.288 45.7867 130.587 45.3387 130.971 44.96C131.36 44.576 131.813 44.28 132.331 44.072C132.853 43.864 133.424 43.76 134.043 43.76C134.715 43.76 135.315 43.88 135.843 44.12C136.371 44.3547 136.808 44.688 137.155 45.12C137.507 45.5467 137.752 46.048 137.891 46.624C138.035 47.1947 138.053 47.8187 137.947 48.496H131.691C131.685 48.9173 131.784 49.2853 131.987 49.6C132.195 49.9147 132.488 50.1627 132.867 50.344C133.251 50.52 133.701 50.608 134.219 50.608C134.677 50.608 135.117 50.5413 135.539 50.408C135.96 50.2747 136.352 50.0773 136.715 49.816L137.435 51.248C137.184 51.4507 136.872 51.6267 136.499 51.776C136.125 51.9253 135.731 52.04 135.315 52.12C134.904 52.2 134.509 52.24 134.131 52.24ZM131.811 47.04H135.963C135.947 46.5013 135.768 46.08 135.427 45.776C135.085 45.4667 134.608 45.312 133.995 45.312C133.387 45.312 132.885 45.4667 132.491 45.776C132.096 46.08 131.869 46.5013 131.811 47.04ZM142.718 52.24C141.897 52.24 141.246 52.0053 140.766 51.536C140.286 51.0667 140.046 50.3573 140.046 49.408V41.68H142.094V44H144.198V45.664H142.094V49C142.094 49.512 142.195 49.8747 142.398 50.088C142.601 50.296 142.881 50.4 143.238 50.4C143.419 50.4 143.59 50.3787 143.75 50.336C143.915 50.2933 144.067 50.2373 144.206 50.168L144.526 51.8C144.291 51.9227 144.017 52.0267 143.702 52.112C143.387 52.1973 143.059 52.24 142.718 52.24ZM138.358 45.664V44H140.278V45.664H138.358ZM145.951 52V44H147.999V52H145.951ZM146.975 42.656C146.623 42.656 146.319 42.544 146.063 42.32C145.807 42.096 145.679 41.8 145.679 41.432C145.679 41.064 145.807 40.768 146.063 40.544C146.319 40.32 146.623 40.208 146.975 40.208C147.327 40.208 147.631 40.32 147.887 40.544C148.143 40.768 148.271 41.064 148.271 41.432C148.271 41.8 148.143 42.096 147.887 42.32C147.631 42.544 147.327 42.656 146.975 42.656ZM153.453 52.24C152.632 52.24 151.981 52.0053 151.501 51.536C151.021 51.0667 150.781 50.3573 150.781 49.408V41.68H152.829V44H154.933V45.664H152.829V49C152.829 49.512 152.93 49.8747 153.133 50.088C153.336 50.296 153.616 50.4 153.973 50.4C154.154 50.4 154.325 50.3787 154.485 50.336C154.65 50.2933 154.802 50.2373 154.941 50.168L155.261 51.8C155.026 51.9227 154.752 52.0267 154.437 52.112C154.122 52.1973 153.794 52.24 153.453 52.24ZM149.093 45.664V44H151.013V45.664H149.093ZM156.686 52V44H158.734V52H156.686ZM157.71 42.656C157.358 42.656 157.054 42.544 156.798 42.32C156.542 42.096 156.414 41.8 156.414 41.432C156.414 41.064 156.542 40.768 156.798 40.544C157.054 40.32 157.358 40.208 157.71 40.208C158.062 40.208 158.366 40.32 158.622 40.544C158.878 40.768 159.006 41.064 159.006 41.432C159.006 41.8 158.878 42.096 158.622 42.32C158.366 42.544 158.062 42.656 157.71 42.656ZM162.996 52.24C162.452 52.24 161.969 52.136 161.548 51.928C161.127 51.72 160.796 51.4267 160.556 51.048C160.316 50.664 160.196 50.2107 160.196 49.688C160.196 49.24 160.308 48.84 160.532 48.488C160.756 48.136 161.1 47.8453 161.564 47.616C162.028 47.3813 162.62 47.224 163.34 47.144C164.065 47.064 164.924 47.0747 165.916 47.176L165.948 48.528C165.297 48.4267 164.729 48.3813 164.244 48.392C163.759 48.4027 163.356 48.4587 163.036 48.56C162.721 48.6613 162.484 48.8 162.324 48.976C162.169 49.152 162.092 49.3573 162.092 49.592C162.092 49.944 162.22 50.216 162.476 50.408C162.732 50.5947 163.081 50.688 163.524 50.688C163.903 50.688 164.241 50.6187 164.54 50.48C164.844 50.3413 165.084 50.1467 165.26 49.896C165.436 49.64 165.524 49.3387 165.524 48.992V46.968C165.524 46.632 165.452 46.3413 165.308 46.096C165.169 45.8453 164.956 45.6533 164.668 45.52C164.38 45.3813 164.009 45.312 163.556 45.312C163.14 45.312 162.727 45.376 162.316 45.504C161.911 45.6267 161.529 45.8187 161.172 46.08L160.62 44.616C161.127 44.28 161.66 44.04 162.22 43.896C162.78 43.752 163.321 43.68 163.844 43.68C164.591 43.68 165.236 43.7973 165.78 44.032C166.329 44.2667 166.751 44.6267 167.044 45.112C167.343 45.592 167.492 46.2027 167.492 46.944V52H165.684V51.088C165.417 51.456 165.049 51.7413 164.58 51.944C164.111 52.1413 163.583 52.24 162.996 52.24ZM169.436 52V44H171.484V44.96C171.804 44.5387 172.178 44.2347 172.604 44.048C173.036 43.856 173.487 43.76 173.956 43.76C174.692 43.76 175.3 43.9067 175.78 44.2C176.266 44.4933 176.626 44.8693 176.86 45.328C177.095 45.7867 177.212 46.2667 177.212 46.768V52H175.164V47.408C175.164 46.864 175.007 46.432 174.692 46.112C174.378 45.792 173.938 45.632 173.372 45.632C173.004 45.632 172.676 45.7147 172.388 45.88C172.106 46.04 171.884 46.2667 171.724 46.56C171.564 46.8533 171.484 47.192 171.484 47.576V52H169.436ZM181.979 52.232C181.291 52.232 180.651 52.1387 180.059 51.952C179.472 51.7653 178.974 51.5093 178.563 51.184L179.275 49.728C179.67 50.0107 180.104 50.2347 180.579 50.4C181.054 50.5653 181.518 50.648 181.971 50.648C182.451 50.648 182.824 50.568 183.091 50.408C183.358 50.248 183.491 50.024 183.491 49.736C183.491 49.464 183.374 49.264 183.139 49.136C182.904 49.008 182.462 48.8747 181.811 48.736C180.776 48.5333 180.024 48.2347 179.555 47.84C179.086 47.44 178.851 46.8907 178.851 46.192C178.851 45.696 178.987 45.2587 179.259 44.88C179.536 44.5013 179.915 44.208 180.395 44C180.88 43.7867 181.438 43.68 182.067 43.68C182.68 43.68 183.259 43.7653 183.803 43.936C184.352 44.1067 184.824 44.3467 185.219 44.656L184.539 46.12C184.331 45.944 184.094 45.792 183.827 45.664C183.56 45.536 183.278 45.4373 182.979 45.368C182.686 45.2987 182.395 45.264 182.107 45.264C181.686 45.264 181.344 45.3387 181.083 45.488C180.827 45.6373 180.699 45.848 180.699 46.12C180.699 46.392 180.819 46.5947 181.059 46.728C181.299 46.856 181.734 46.992 182.363 47.136C183.43 47.3653 184.192 47.6693 184.651 48.048C185.11 48.4267 185.339 48.9573 185.339 49.64C185.339 50.1627 185.198 50.6187 184.915 51.008C184.632 51.392 184.238 51.6933 183.731 51.912C183.23 52.1253 182.646 52.232 181.979 52.232Z" fill="white"/>
<g clip-path="url(#clip0_5427_41563)">
<rect x="57.9487" y="26" width="42" height="42" rx="12" fill="#FDCB26" fill-opacity="0.05"/>
<path d="M75.4978 36.8498C74.771 37.4694 73.3924 38.3578 72.4033 38.8505C71.2645 39.4179 71.0022 39.7687 71.2944 40.3436L71.4368 40.6198L71.2645 40.687C69.736 41.2618 68.3798 41.9636 66.8139 42.9863C65.3603 43.927 65.0756 44.2256 65.2479 44.5989C65.4352 45.0244 66.634 45.2633 67.1735 44.9871C67.2859 44.9273 67.8179 44.5317 68.3498 44.1136C69.9083 42.8818 70.9123 42.2697 72.2984 41.7023C72.8604 41.4709 72.9653 41.4485 73.1751 41.5157C73.3174 41.5679 73.6996 41.5903 74.1341 41.5679C75.1681 41.5157 75.7076 41.2469 77.2885 40.03C77.9928 39.4851 79.2741 38.3951 79.304 38.313C79.3115 38.2831 79.2216 38.1935 79.0942 38.1264L78.8695 37.992L78.2551 38.5071C77.341 39.2686 76.3295 40.0151 75.9623 40.1868C75.6776 40.3287 75.6327 40.3361 75.5278 40.2241C75.4229 40.1196 75.4678 40.0748 76.0373 39.6866C76.7341 39.2163 78.36 37.9248 78.3974 37.8128C78.4124 37.768 78.315 37.671 78.1951 37.5963C77.9629 37.4694 77.9629 37.4694 77.7456 37.6411C76.1796 38.9177 75.5502 39.3805 74.9958 39.6717C74.7935 39.7687 74.7261 39.7762 74.5987 39.7016C74.5163 39.6493 74.4488 39.5896 74.4563 39.5672C74.4563 39.5448 74.7635 39.3358 75.1307 39.0969C75.82 38.6489 77.4459 37.3574 77.4459 37.2529C77.4459 37.1783 77.1012 36.9543 76.9888 36.9543C76.9439 36.9543 76.6816 37.1559 76.4119 37.4097C75.4903 38.2458 74.1042 39.1939 73.7895 39.1939C73.7071 39.1939 73.6022 39.1491 73.5572 39.0969C73.4973 39.0147 73.6022 38.9177 74.0592 38.634C74.9059 38.104 76.4718 36.8348 76.4718 36.6781C76.4718 36.6034 76.2171 36.4392 76.0972 36.4392C76.0373 36.4392 75.7675 36.6258 75.4978 36.8498Z" fill="white"/>
<path d="M75.5934 42.1421C71.1059 42.7468 67.9668 44.9939 67.7945 47.7262C67.6971 49.3238 68.4988 50.7423 70.1769 51.9293C73.1286 54.0046 78.5301 54.5869 82.5981 53.2581C84.3062 52.7057 85.5123 51.9815 86.5087 50.9364C87.1455 50.2645 87.5351 49.5851 87.7074 48.8311C87.8422 48.2712 87.7673 47.1813 87.565 46.6512C86.7484 44.5236 84.2163 42.9036 80.6652 42.2466C79.6164 42.0525 76.7096 41.9928 75.5934 42.1421ZM79.7812 43.1126C84.8231 43.777 87.8422 46.5616 86.4862 49.3014C86.1566 49.9584 85.7146 50.4735 85.0254 50.9812C82.0362 53.1909 76.38 53.6538 72.4244 52.0114C70.6788 51.2947 69.5925 50.3914 69.0232 49.1969C68.8134 48.7565 68.7909 48.6445 68.7909 48.0025C68.7909 47.3455 68.8059 47.2559 69.0606 46.7333C69.9222 44.9342 72.4544 43.5605 75.7132 43.1126C76.7096 42.9782 78.7548 42.9782 79.7812 43.1126Z" fill="white"/>
<path d="M81.7159 44.3377C81.5586 44.4871 81.4911 44.6289 81.4911 44.7931C81.4911 44.9872 81.4162 45.0992 81.1165 45.368C80.8018 45.6591 80.7344 45.7636 80.6669 46.1294C80.5321 46.8461 80.5171 46.8909 80.4422 46.8461C80.4122 46.8237 80.3597 46.7043 80.3298 46.5848C80.1949 45.9727 79.588 45.6218 78.6739 45.6143H78.067L78.0146 46.0697C77.9921 46.3235 77.9696 46.6819 77.9696 46.861C77.9696 47.0925 77.9321 47.197 77.8497 47.2343C77.6849 47.294 77.6474 47.2119 77.4826 46.4355C77.4002 46.0473 77.3028 45.7636 77.2503 45.7636C76.9057 45.7636 75.0625 46.1892 73.8712 46.555L73.2493 46.7416V47.0178C73.2493 48.1227 73.0095 48.4064 72.7997 47.5628C72.7323 47.294 72.6424 47.0701 72.5974 47.0552C72.4625 47.0104 71.6458 47.4508 71.3461 47.727C70.6643 48.3691 71.2862 48.9812 73.0994 49.4515C73.8936 49.6606 75.055 49.8771 75.1299 49.8248C75.1599 49.8099 75.2048 49.5337 75.2348 49.2127C75.2873 48.5706 75.3547 48.4064 75.512 48.4736C75.587 48.496 75.6544 48.7349 75.7218 49.1903C75.7743 49.5635 75.8567 49.8995 75.9016 49.9368C76.0065 50.0189 77.61 50.1682 78.3742 50.1682C79.7004 50.1682 80.3373 49.7651 80.4871 48.8245C80.5546 48.4213 80.637 48.5184 80.7793 49.1828C80.9217 49.8771 80.9891 49.9891 81.3263 50.1533C81.5436 50.2503 81.626 50.3549 81.7384 50.6535C81.9182 51.1387 81.9856 51.2134 82.2704 51.2134C82.9447 51.2134 83.1845 50.3922 82.7574 49.5561C82.5476 49.1455 82.0081 48.5856 81.5436 48.2869L81.154 48.0406L81.4836 48.0182C81.6635 48.0033 82.0306 48.063 82.3153 48.1451C83.2894 48.4437 83.7389 48.3019 83.7389 47.6897C83.7389 47.0477 83.3193 46.8163 82.4427 46.9581C82.1505 47.0104 81.7609 47.0925 81.5885 47.1447C81.4162 47.197 81.2589 47.2194 81.2364 47.2045C81.2139 47.1821 81.3713 47.0178 81.5885 46.8387C82.0681 46.4505 82.4352 46.01 82.5925 45.6367C82.7574 45.2336 82.6899 44.614 82.4577 44.3825C82.158 44.0914 81.9707 44.0839 81.7159 44.3377Z" fill="white"/>
<path d="M91.4969 49.5033C91.0323 49.7497 87.9379 51.5115 87.0013 52.0714C86.7166 52.2431 86.1397 52.5791 85.7276 52.818C83.5847 54.0647 79.9358 56.2595 79.7934 56.3864C79.666 56.4984 79.6211 56.6253 79.6211 56.8567C79.6211 57.118 79.6586 57.2076 79.8459 57.3644C80.2505 57.7003 81.0297 57.8123 81.5167 57.6033C81.7115 57.5212 85.8999 54.632 86.3944 54.2438C86.5443 54.1244 86.5742 54.1319 87.2036 54.4379C87.4434 54.5499 87.6981 54.647 87.773 54.647C87.9679 54.647 89.2266 54.005 89.856 53.5869C91.2946 52.6313 92.6208 50.9441 92.7182 49.9438C92.7481 49.6302 92.7257 49.578 92.5458 49.4361C92.2611 49.2122 92.0288 49.2271 91.4969 49.5033Z" fill="white"/>
<g filter="url(#filter2_f_5427_41563)">
<circle cx="93.5" cy="61.5" r="7.5" fill="#FDCB26"/>
</g>
</g>
<rect x="58.6987" y="26.75" width="40.5" height="40.5" rx="11.25" stroke="#FDCB26" stroke-width="1.5"/>
<path d="M184.505 27.0562V27.0562C191.187 27.0562 196.604 32.473 196.604 39.1549V39.1549" stroke="#FDCB26" stroke-width="2.26852" stroke-linecap="round"/>
<defs>
<filter id="filter0_dddddd_5427_41563" x="0" y="0" width="255.281" height="158" filterUnits="userSpaceOnUse" color-interpolation-filters="sRGB">
<feFlood flood-opacity="0" result="BackgroundImageFix"/>
<feColorMatrix in="SourceAlpha" type="matrix" values="0 0 0 0 0 0 0 0 0 0 0 0 0 0 0 0 0 0 127 0" result="hardAlpha"/>
<feMorphology radius="4" operator="erode" in="SourceAlpha" result="effect1_dropShadow_5427_41563"/>
<feOffset dy="5"/>
<feGaussianBlur stdDeviation="0.75"/>
<feComposite in2="hardAlpha" operator="out"/>
<feColorMatrix type="matrix" values="0 0 0 0 0.0313726 0 0 0 0 0.0313726 0 0 0 0 0.0313726 0 0 0 0.05 0"/>
<feBlend mode="normal" in2="BackgroundImageFix" result="effect1_dropShadow_5427_41563"/>
<feColorMatrix in="SourceAlpha" type="matrix" values="0 0 0 0 0 0 0 0 0 0 0 0 0 0 0 0 0 0 127 0" result="hardAlpha"/>
<feMorphology radius="4" operator="erode" in="SourceAlpha" result="effect2_dropShadow_5427_41563"/>
<feOffset dy="6"/>
<feGaussianBlur stdDeviation="2"/>
<feComposite in2="hardAlpha" operator="out"/>
<feColorMatrix type="matrix" values="0 0 0 0 0.0313726 0 0 0 0 0.0313726 0 0 0 0 0.0313726 0 0 0 0.05 0"/>
<feBlend mode="normal" in2="effect1_dropShadow_5427_41563" result="effect2_dropShadow_5427_41563"/>
<feColorMatrix in="SourceAlpha" type="matrix" values="0 0 0 0 0 0 0 0 0 0 0 0 0 0 0 0 0 0 127 0" result="hardAlpha"/>
<feOffset dy="6"/>
<feGaussianBlur stdDeviation="6.5"/>
<feComposite in2="hardAlpha" operator="out"/>
<feColorMatrix type="matrix" values="0 0 0 0 0.0313726 0 0 0 0 0.0313726 0 0 0 0 0.0313726 0 0 0 0.03 0"/>
<feBlend mode="normal" in2="effect2_dropShadow_5427_41563" result="effect3_dropShadow_5427_41563"/>
<feColorMatrix in="SourceAlpha" type="matrix" values="0 0 0 0 0 0 0 0 0 0 0 0 0 0 0 0 0 0 127 0" result="hardAlpha"/>
<feMorphology radius="16" operator="erode" in="SourceAlpha" result="effect4_dropShadow_5427_41563"/>
<feOffset dy="24"/>
<feGaussianBlur stdDeviation="12"/>
<feComposite in2="hardAlpha" operator="out"/>
<feColorMatrix type="matrix" values="0 0 0 0 0.0313726 0 0 0 0 0.0313726 0 0 0 0 0.0313726 0 0 0 0.04 0"/>
<feBlend mode="normal" in2="effect3_dropShadow_5427_41563" result="effect4_dropShadow_5427_41563"/>
<feColorMatrix in="SourceAlpha" type="matrix" values="0 0 0 0 0 0 0 0 0 0 0 0 0 0 0 0 0 0 127 0" result="hardAlpha"/>
<feMorphology radius="2" operator="erode" in="SourceAlpha" result="effect5_dropShadow_5427_41563"/>
<feOffset dy="2.15"/>
<feGaussianBlur stdDeviation="0.25"/>
<feComposite in2="hardAlpha" operator="out"/>
<feColorMatrix type="matrix" values="0 0 0 0 0 0 0 0 0 0 0 0 0 0 0 0 0 0 0.25 0"/>
<feBlend mode="normal" in2="effect4_dropShadow_5427_41563" result="effect5_dropShadow_5427_41563"/>
<feColorMatrix in="SourceAlpha" type="matrix" values="0 0 0 0 0 0 0 0 0 0 0 0 0 0 0 0 0 0 127 0" result="hardAlpha"/>
<feMorphology radius="12" operator="erode" in="SourceAlpha" result="effect6_dropShadow_5427_41563"/>
<feOffset dy="32"/>
<feGaussianBlur stdDeviation="32"/>
<feComposite in2="hardAlpha" operator="out"/>
<feColorMatrix type="matrix" values="0 0 0 0 0 0 0 0 0 0 0 0 0 0 0 0 0 0 0.075 0"/>
<feBlend mode="multiply" in2="effect5_dropShadow_5427_41563" result="effect6_dropShadow_5427_41563"/>
<feBlend mode="normal" in="SourceGraphic" in2="effect6_dropShadow_5427_41563" result="shape"/>
</filter>
<filter id="filter2_f_5427_41563" x="56" y="24" width="75" height="75" filterUnits="userSpaceOnUse" color-interpolation-filters="sRGB">
<feFlood flood-opacity="0" result="BackgroundImageFix"/>
<feBlend mode="normal" in="SourceGraphic" in2="BackgroundImageFix" result="shape"/>
<feGaussianBlur stdDeviation="15" result="effect1_foregroundBlur_5427_41563"/>
</filter>
<linearGradient id="paint0_linear_5427_41563" x1="127.641" y1="20" x2="127.641" y2="74" gradientUnits="userSpaceOnUse">
<stop stop-color="#F6F6F6"/>
<stop offset="1" stop-color="#E6E6E6"/>
</linearGradient>
<clipPath id="clip0_5427_41563">
<rect x="57.9487" y="26" width="42" height="42" rx="12" fill="white"/>
</clipPath>
</defs>
</svg>
