<svg width="153" height="54" viewBox="0 0 153 54" fill="none" xmlns="http://www.w3.org/2000/svg">
<rect x="0.765137" width="151.281" height="54" rx="18.1482" fill="#F1F1F1" fill-opacity="0.1"/>
<rect x="1.8994" y="1.13426" width="149.013" height="51.7315" rx="17.0139" stroke="url(#paint0_linear_6163_200)" stroke-opacity="0.1" stroke-width="2.26852"/>
<path d="M64.1811 32V20.8H67.7971C68.9225 20.8 69.9171 21.0373 70.7811 21.512C71.6451 21.9867 72.3198 22.6453 72.8051 23.488C73.2905 24.3307 73.5331 25.304 73.5331 26.408C73.5331 27.2293 73.3945 27.984 73.1171 28.672C72.8398 29.3547 72.4451 29.944 71.9331 30.44C71.4265 30.936 70.8211 31.32 70.1171 31.592C69.4185 31.864 68.6451 32 67.7971 32H64.1811ZM66.2611 30.064H67.6051C68.1651 30.064 68.6745 29.9813 69.1331 29.816C69.5918 29.6507 69.9865 29.4107 70.3171 29.096C70.6531 28.7813 70.9091 28.3973 71.0851 27.944C71.2665 27.4907 71.3571 26.9787 71.3571 26.408C71.3571 25.6347 71.1998 24.976 70.8851 24.432C70.5758 23.8827 70.1385 23.464 69.5731 23.176C69.0131 22.8827 68.3571 22.736 67.6051 22.736H66.2611V30.064ZM75.1135 32V24H77.1615V32H75.1135ZM76.1375 22.656C75.7855 22.656 75.4815 22.544 75.2255 22.32C74.9695 22.096 74.8415 21.8 74.8415 21.432C74.8415 21.064 74.9695 20.768 75.2255 20.544C75.4815 20.32 75.7855 20.208 76.1375 20.208C76.4895 20.208 76.7935 20.32 77.0495 20.544C77.3055 20.768 77.4335 21.064 77.4335 21.432C77.4335 21.8 77.3055 22.096 77.0495 22.32C76.7935 22.544 76.4895 22.656 76.1375 22.656ZM82.8958 32.24C82.0264 32.24 81.2638 32.064 80.6078 31.712C79.9518 31.3547 79.4398 30.8587 79.0718 30.224C78.7091 29.5893 78.5278 28.8507 78.5278 28.008C78.5278 27.3893 78.6318 26.8213 78.8398 26.304C79.0531 25.7867 79.3518 25.3387 79.7358 24.96C80.1251 24.576 80.5784 24.28 81.0958 24.072C81.6184 23.864 82.1891 23.76 82.8078 23.76C83.4798 23.76 84.0798 23.88 84.6078 24.12C85.1358 24.3547 85.5731 24.688 85.9198 25.12C86.2718 25.5467 86.5171 26.048 86.6558 26.624C86.7998 27.1947 86.8184 27.8187 86.7118 28.496H80.4558C80.4504 28.9173 80.5491 29.2853 80.7518 29.6C80.9598 29.9147 81.2531 30.1627 81.6318 30.344C82.0158 30.52 82.4664 30.608 82.9838 30.608C83.4424 30.608 83.8824 30.5413 84.3038 30.408C84.7251 30.2747 85.1171 30.0773 85.4798 29.816L86.1998 31.248C85.9491 31.4507 85.6371 31.6267 85.2638 31.776C84.8904 31.9253 84.4958 32.04 84.0798 32.12C83.6691 32.2 83.2744 32.24 82.8958 32.24ZM80.5758 27.04H84.7278C84.7118 26.5013 84.5331 26.08 84.1918 25.776C83.8504 25.4667 83.3731 25.312 82.7598 25.312C82.1518 25.312 81.6504 25.4667 81.2558 25.776C80.8611 26.08 80.6344 26.5013 80.5758 27.04ZM91.4833 32.24C90.6619 32.24 90.0113 32.0053 89.5313 31.536C89.0513 31.0667 88.8113 30.3573 88.8113 29.408V21.68H90.8593V24H92.9633V25.664H90.8593V29C90.8593 29.512 90.9606 29.8747 91.1633 30.088C91.3659 30.296 91.6459 30.4 92.0033 30.4C92.1846 30.4 92.3553 30.3787 92.5153 30.336C92.6806 30.2933 92.8326 30.2373 92.9713 30.168L93.2913 31.8C93.0566 31.9227 92.7819 32.0267 92.4673 32.112C92.1526 32.1973 91.8246 32.24 91.4833 32.24ZM87.1233 25.664V24H89.0433V25.664H87.1233ZM94.716 32V24H96.764V32H94.716ZM95.74 22.656C95.388 22.656 95.084 22.544 94.828 22.32C94.572 22.096 94.444 21.8 94.444 21.432C94.444 21.064 94.572 20.768 94.828 20.544C95.084 20.32 95.388 20.208 95.74 20.208C96.092 20.208 96.396 20.32 96.652 20.544C96.908 20.768 97.036 21.064 97.036 21.432C97.036 21.8 96.908 22.096 96.652 22.32C96.396 22.544 96.092 22.656 95.74 22.656ZM102.218 32.24C101.397 32.24 100.746 32.0053 100.266 31.536C99.7863 31.0667 99.5463 30.3573 99.5463 29.408V21.68H101.594V24H103.698V25.664H101.594V29C101.594 29.512 101.696 29.8747 101.898 30.088C102.101 30.296 102.381 30.4 102.738 30.4C102.92 30.4 103.09 30.3787 103.25 30.336C103.416 30.2933 103.568 30.2373 103.706 30.168L104.026 31.8C103.792 31.9227 103.517 32.0267 103.202 32.112C102.888 32.1973 102.56 32.24 102.218 32.24ZM97.8583 25.664V24H99.7783V25.664H97.8583ZM105.451 32V24H107.499V32H105.451ZM106.475 22.656C106.123 22.656 105.819 22.544 105.563 22.32C105.307 22.096 105.179 21.8 105.179 21.432C105.179 21.064 105.307 20.768 105.563 20.544C105.819 20.32 106.123 20.208 106.475 20.208C106.827 20.208 107.131 20.32 107.387 20.544C107.643 20.768 107.771 21.064 107.771 21.432C107.771 21.8 107.643 22.096 107.387 22.32C107.131 22.544 106.827 22.656 106.475 22.656ZM111.761 32.24C111.217 32.24 110.735 32.136 110.313 31.928C109.892 31.72 109.561 31.4267 109.321 31.048C109.081 30.664 108.961 30.2107 108.961 29.688C108.961 29.24 109.073 28.84 109.297 28.488C109.521 28.136 109.865 27.8453 110.329 27.616C110.793 27.3813 111.385 27.224 112.105 27.144C112.831 27.064 113.689 27.0747 114.681 27.176L114.713 28.528C114.063 28.4267 113.495 28.3813 113.009 28.392C112.524 28.4027 112.121 28.4587 111.801 28.56C111.487 28.6613 111.249 28.8 111.089 28.976C110.935 29.152 110.857 29.3573 110.857 29.592C110.857 29.944 110.985 30.216 111.241 30.408C111.497 30.5947 111.847 30.688 112.289 30.688C112.668 30.688 113.007 30.6187 113.305 30.48C113.609 30.3413 113.849 30.1467 114.025 29.896C114.201 29.64 114.289 29.3387 114.289 28.992V26.968C114.289 26.632 114.217 26.3413 114.073 26.096C113.935 25.8453 113.721 25.6533 113.433 25.52C113.145 25.3813 112.775 25.312 112.321 25.312C111.905 25.312 111.492 25.376 111.081 25.504C110.676 25.6267 110.295 25.8187 109.937 26.08L109.385 24.616C109.892 24.28 110.425 24.04 110.985 23.896C111.545 23.752 112.087 23.68 112.609 23.68C113.356 23.68 114.001 23.7973 114.545 24.032C115.095 24.2667 115.516 24.6267 115.809 25.112C116.108 25.592 116.257 26.2027 116.257 26.944V32H114.449V31.088C114.183 31.456 113.815 31.7413 113.345 31.944C112.876 32.1413 112.348 32.24 111.761 32.24ZM118.202 32V24H120.25V24.96C120.57 24.5387 120.943 24.2347 121.37 24.048C121.802 23.856 122.252 23.76 122.722 23.76C123.458 23.76 124.066 23.9067 124.546 24.2C125.031 24.4933 125.391 24.8693 125.626 25.328C125.86 25.7867 125.978 26.2667 125.978 26.768V32H123.93V27.408C123.93 26.864 123.772 26.432 123.458 26.112C123.143 25.792 122.703 25.632 122.138 25.632C121.77 25.632 121.442 25.7147 121.154 25.88C120.871 26.04 120.65 26.2667 120.49 26.56C120.33 26.8533 120.25 27.192 120.25 27.576V32H118.202ZM130.744 32.232C130.056 32.232 129.416 32.1387 128.824 31.952C128.237 31.7653 127.739 31.5093 127.328 31.184L128.04 29.728C128.435 30.0107 128.869 30.2347 129.344 30.4C129.819 30.5653 130.283 30.648 130.736 30.648C131.216 30.648 131.589 30.568 131.856 30.408C132.123 30.248 132.256 30.024 132.256 29.736C132.256 29.464 132.139 29.264 131.904 29.136C131.669 29.008 131.227 28.8747 130.576 28.736C129.541 28.5333 128.789 28.2347 128.32 27.84C127.851 27.44 127.616 26.8907 127.616 26.192C127.616 25.696 127.752 25.2587 128.024 24.88C128.301 24.5013 128.68 24.208 129.16 24C129.645 23.7867 130.203 23.68 130.832 23.68C131.445 23.68 132.024 23.7653 132.568 23.936C133.117 24.1067 133.589 24.3467 133.984 24.656L133.304 26.12C133.096 25.944 132.859 25.792 132.592 25.664C132.325 25.536 132.043 25.4373 131.744 25.368C131.451 25.2987 131.16 25.264 130.872 25.264C130.451 25.264 130.109 25.3387 129.848 25.488C129.592 25.6373 129.464 25.848 129.464 26.12C129.464 26.392 129.584 26.5947 129.824 26.728C130.064 26.856 130.499 26.992 131.128 27.136C132.195 27.3653 132.957 27.6693 133.416 28.048C133.875 28.4267 134.104 28.9573 134.104 29.64C134.104 30.1627 133.963 30.6187 133.68 31.008C133.397 31.392 133.003 31.6933 132.496 31.912C131.995 32.1253 131.411 32.232 130.744 32.232Z" fill="white"/>
<g clip-path="url(#clip0_6163_200)">
<rect x="6.71387" y="6" width="42" height="42" rx="12" fill="#FDCB26" fill-opacity="0.05"/>
<g filter="url(#filter1_f_6163_200)">
<circle cx="42.2651" cy="41.5" r="7.5" fill="#FDCB26"/>
</g>
<path d="M24.2629 16.8498C23.5361 17.4694 22.1575 18.3578 21.1685 18.8505C20.0296 19.4179 19.7674 19.7687 20.0596 20.3436L20.2019 20.6198L20.0296 20.687C18.5011 21.2618 17.145 21.9636 15.579 22.9863C14.1254 23.927 13.8407 24.2256 14.013 24.5989C14.2004 25.0244 15.3992 25.2633 15.9386 24.9871C16.051 24.9273 16.583 24.5317 17.115 24.1136C18.6734 22.8818 19.6775 22.2697 21.0636 21.7023C21.6255 21.4709 21.7304 21.4485 21.9402 21.5157C22.0826 21.5679 22.4647 21.5903 22.8993 21.5679C23.9333 21.5157 24.4727 21.2469 26.0537 20.03C26.758 19.4851 28.0392 18.3951 28.0692 18.313C28.0767 18.2831 27.9868 18.1935 27.8594 18.1264L27.6346 17.992L27.0202 18.5071C26.1061 19.2686 25.0946 20.0151 24.7275 20.1868C24.4427 20.3287 24.3978 20.3361 24.2929 20.2241C24.188 20.1196 24.233 20.0748 24.8024 19.6866C25.4992 19.2163 27.1251 17.9248 27.1626 17.8128C27.1776 17.768 27.0801 17.671 26.9603 17.5963C26.728 17.4694 26.728 17.4694 26.5107 17.6411C24.9448 18.9177 24.3154 19.3805 23.7609 19.6717C23.5586 19.7687 23.4912 19.7762 23.3638 19.7016C23.2814 19.6493 23.214 19.5896 23.2215 19.5672C23.2215 19.5448 23.5287 19.3358 23.8958 19.0969C24.5851 18.6489 26.211 17.3574 26.211 17.2529C26.211 17.1783 25.8663 16.9543 25.754 16.9543C25.709 16.9543 25.4468 17.1559 25.177 17.4097C24.2554 18.2458 22.8693 19.1939 22.5546 19.1939C22.4722 19.1939 22.3673 19.1491 22.3223 19.0969C22.2624 19.0147 22.3673 18.9177 22.8243 18.634C23.671 18.104 25.237 16.8348 25.237 16.6781C25.237 16.6034 24.9822 16.4392 24.8623 16.4392C24.8024 16.4392 24.5327 16.6258 24.2629 16.8498Z" fill="white"/>
<path d="M24.3585 22.1421C19.871 22.7468 16.732 24.9939 16.5597 27.7262C16.4623 29.3238 17.2639 30.7423 18.942 31.9293C21.8937 34.0046 27.2952 34.5869 31.3632 33.2581C33.0713 32.7057 34.2775 31.9815 35.2739 30.9364C35.9106 30.2645 36.3002 29.5851 36.4725 28.8311C36.6074 28.2712 36.5324 27.1813 36.3302 26.6512C35.5136 24.5236 32.9814 22.9036 29.4304 22.2466C28.3815 22.0525 25.4748 21.9928 24.3585 22.1421ZM28.5463 23.1126C33.5882 23.777 36.6074 26.5616 35.2514 29.3014C34.9217 29.9584 34.4797 30.4735 33.7905 30.9812C30.8013 33.1909 25.1451 33.6538 21.1895 32.0114C19.444 31.2947 18.3577 30.3914 17.7883 29.1969C17.5785 28.7565 17.5561 28.6445 17.5561 28.0025C17.5561 27.3455 17.571 27.2559 17.8258 26.7333C18.6873 24.9342 21.2195 23.5605 24.4784 23.1126C25.4748 22.9782 27.52 22.9782 28.5463 23.1126Z" fill="white"/>
<path d="M30.481 24.3377C30.3237 24.4871 30.2563 24.6289 30.2563 24.7931C30.2563 24.9872 30.1813 25.0992 29.8816 25.368C29.5669 25.6591 29.4995 25.7636 29.4321 26.1294C29.2972 26.8461 29.2822 26.8909 29.2073 26.8461C29.1773 26.8237 29.1249 26.7043 29.0949 26.5848C28.96 25.9727 28.3531 25.6218 27.4391 25.6143H26.8321L26.7797 26.0697C26.7572 26.3235 26.7347 26.6819 26.7347 26.861C26.7347 27.0925 26.6973 27.197 26.6149 27.2343C26.45 27.294 26.4126 27.2119 26.2477 26.4355C26.1653 26.0473 26.0679 25.7636 26.0155 25.7636C25.6708 25.7636 23.8276 26.1892 22.6363 26.555L22.0144 26.7416V27.0178C22.0144 28.1227 21.7746 28.4064 21.5648 27.5628C21.4974 27.294 21.4075 27.0701 21.3625 27.0552C21.2277 27.0104 20.411 27.4508 20.1113 27.727C19.4295 28.3691 20.0513 28.9812 21.8646 29.4515C22.6588 29.6606 23.8201 29.8771 23.895 29.8248C23.925 29.8099 23.97 29.5337 23.9999 29.2127C24.0524 28.5706 24.1198 28.4064 24.2772 28.4736C24.3521 28.496 24.4195 28.7349 24.487 29.1903C24.5394 29.5635 24.6218 29.8995 24.6668 29.9368C24.7717 30.0189 26.3751 30.1682 27.1393 30.1682C28.4655 30.1682 29.1024 29.7651 29.2523 28.8245C29.3197 28.4213 29.4021 28.5184 29.5445 29.1828C29.6868 29.8771 29.7543 29.9891 30.0914 30.1533C30.3087 30.2503 30.3911 30.3549 30.5035 30.6535C30.6833 31.1387 30.7508 31.2134 31.0355 31.2134C31.7098 31.2134 31.9496 30.3922 31.5225 29.5561C31.3127 29.1455 30.7733 28.5856 30.3087 28.2869L29.9191 28.0406L30.2488 28.0182C30.4286 28.0033 30.7957 28.063 31.0805 28.1451C32.0545 28.4437 32.5041 28.3019 32.5041 27.6897C32.5041 27.0477 32.0845 26.8163 31.2078 26.9581C30.9156 27.0104 30.526 27.0925 30.3537 27.1447C30.1813 27.197 30.024 27.2194 30.0015 27.2045C29.979 27.1821 30.1364 27.0178 30.3537 26.8387C30.8332 26.4505 31.2003 26.01 31.3577 25.6367C31.5225 25.2336 31.4551 24.614 31.2228 24.3825C30.9231 24.0914 30.7358 24.0839 30.481 24.3377Z" fill="white"/>
<path d="M40.262 29.5033C39.7975 29.7497 36.703 31.5115 35.7664 32.0714C35.4817 32.2431 34.9048 32.5791 34.4927 32.818C32.3498 34.0647 28.7009 36.2595 28.5586 36.3864C28.4312 36.4984 28.3862 36.6253 28.3862 36.8567C28.3862 37.118 28.4237 37.2076 28.611 37.3644C29.0156 37.7003 29.7948 37.8123 30.2819 37.6033C30.4767 37.5212 34.665 34.632 35.1595 34.2438C35.3094 34.1244 35.3394 34.1319 35.9687 34.4379C36.2085 34.5499 36.4633 34.647 36.5382 34.647C36.733 34.647 37.9918 34.005 38.6211 33.5869C40.0597 32.6313 41.3859 30.9441 41.4833 29.9438C41.5133 29.6302 41.4908 29.578 41.311 29.4361C41.0263 29.2122 40.794 29.2271 40.262 29.5033Z" fill="white"/>
</g>
<rect x="7.46387" y="6.75" width="40.5" height="40.5" rx="11.25" stroke="#FDCB26" stroke-width="1.5"/>
<path d="M133.271 7.05615V7.05615C139.952 7.05615 145.369 12.473 145.369 19.1549V19.1549" stroke="#FDCB26" stroke-width="2.26852" stroke-linecap="round"/>
<defs>
<filter id="filter1_f_6163_200" x="4.76514" y="4" width="75" height="75" filterUnits="userSpaceOnUse" color-interpolation-filters="sRGB">
<feFlood flood-opacity="0" result="BackgroundImageFix"/>
<feBlend mode="normal" in="SourceGraphic" in2="BackgroundImageFix" result="shape"/>
<feGaussianBlur stdDeviation="15" result="effect1_foregroundBlur_6163_200"/>
</filter>
<linearGradient id="paint0_linear_6163_200" x1="76.4059" y1="0" x2="76.4059" y2="54" gradientUnits="userSpaceOnUse">
<stop stop-color="#F6F6F6"/>
<stop offset="1" stop-color="#E6E6E6"/>
</linearGradient>
<clipPath id="clip0_6163_200">
<rect x="6.71387" y="6" width="42" height="42" rx="12" fill="white"/>
</clipPath>
</defs>
</svg>
