<svg width="201" height="54" viewBox="0 0 201 54" fill="none" xmlns="http://www.w3.org/2000/svg">
<rect x="0.240234" width="200" height="54" rx="18.1482" fill="#F1F1F1" fill-opacity="0.1"/>
<rect x="1.37449" y="1.13426" width="197.731" height="51.7315" rx="17.0139" stroke="url(#paint0_linear_6163_228)" stroke-opacity="0.1" stroke-width="2.26852"/>
<path d="M65.1758 32.6855V21.4855H72.2478V23.3895H67.2558V26.3095H71.7598V28.1495H67.2558V32.6855H65.1758ZM73.9988 32.6855V24.6855H76.0468V32.6855H73.9988ZM75.0228 23.3415C74.6708 23.3415 74.3668 23.2295 74.1108 23.0055C73.8548 22.7815 73.7268 22.4855 73.7268 22.1175C73.7268 21.7495 73.8548 21.4535 74.1108 21.2295C74.3668 21.0055 74.6708 20.8935 75.0228 20.8935C75.3748 20.8935 75.6788 21.0055 75.9348 21.2295C76.1908 21.4535 76.3188 21.7495 76.3188 22.1175C76.3188 22.4855 76.1908 22.7815 75.9348 23.0055C75.6788 23.2295 75.3748 23.3415 75.0228 23.3415ZM81.501 32.9255C80.6797 32.9255 80.029 32.6909 79.549 32.2215C79.069 31.7522 78.829 31.0429 78.829 30.0935V22.3655H80.877V24.6855H82.981V26.3495H80.877V29.6855C80.877 30.1975 80.9783 30.5602 81.181 30.7735C81.3837 30.9815 81.6637 31.0855 82.021 31.0855C82.2023 31.0855 82.373 31.0642 82.533 31.0215C82.6983 30.9789 82.8503 30.9229 82.989 30.8535L83.309 32.4855C83.0743 32.6082 82.7997 32.7122 82.485 32.7975C82.1703 32.8829 81.8423 32.9255 81.501 32.9255ZM77.141 26.3495V24.6855H79.061V26.3495H77.141ZM84.7338 32.6855V24.6855H86.7818V25.6455C87.1018 25.2242 87.4751 24.9202 87.9018 24.7335C88.3338 24.5415 88.7844 24.4455 89.2538 24.4455C89.9898 24.4455 90.5978 24.5922 91.0778 24.8855C91.5631 25.1789 91.9231 25.5549 92.1578 26.0135C92.3924 26.4722 92.5098 26.9522 92.5098 27.4535V32.6855H90.4618V28.0935C90.4618 27.5495 90.3044 27.1175 89.9898 26.7975C89.6751 26.4775 89.2351 26.3175 88.6698 26.3175C88.3018 26.3175 87.9738 26.4002 87.6858 26.5655C87.4031 26.7255 87.1818 26.9522 87.0218 27.2455C86.8618 27.5389 86.7818 27.8775 86.7818 28.2615V32.6855H84.7338ZM98.1723 32.9255C97.3029 32.9255 96.5403 32.7495 95.8843 32.3975C95.2283 32.0402 94.7163 31.5442 94.3483 30.9095C93.9856 30.2749 93.8043 29.5362 93.8043 28.6935C93.8043 28.0749 93.9083 27.5069 94.1163 26.9895C94.3296 26.4722 94.6283 26.0242 95.0123 25.6455C95.4016 25.2615 95.8549 24.9655 96.3723 24.7575C96.8949 24.5495 97.4656 24.4455 98.0843 24.4455C98.7563 24.4455 99.3563 24.5655 99.8843 24.8055C100.412 25.0402 100.85 25.3735 101.196 25.8055C101.548 26.2322 101.794 26.7335 101.932 27.3095C102.076 27.8802 102.095 28.5042 101.988 29.1815H95.7323C95.7269 29.6029 95.8256 29.9709 96.0283 30.2855C96.2363 30.6002 96.5296 30.8482 96.9083 31.0295C97.2923 31.2055 97.7429 31.2935 98.2603 31.2935C98.7189 31.2935 99.1589 31.2269 99.5803 31.0935C100.002 30.9602 100.394 30.7629 100.756 30.5015L101.476 31.9335C101.226 32.1362 100.914 32.3122 100.54 32.4615C100.167 32.6109 99.7723 32.7255 99.3563 32.8055C98.9456 32.8855 98.5509 32.9255 98.1723 32.9255ZM95.8523 27.7255H100.004C99.9883 27.1869 99.8096 26.7655 99.4683 26.4615C99.1269 26.1522 98.6496 25.9975 98.0363 25.9975C97.4283 25.9975 96.9269 26.1522 96.5323 26.4615C96.1376 26.7655 95.9109 27.1869 95.8523 27.7255ZM106.222 32.9175C105.534 32.9175 104.894 32.8242 104.302 32.6375C103.715 32.4509 103.217 32.1949 102.806 31.8695L103.518 30.4135C103.913 30.6962 104.347 30.9202 104.822 31.0855C105.297 31.2509 105.761 31.3335 106.214 31.3335C106.694 31.3335 107.067 31.2535 107.334 31.0935C107.601 30.9335 107.734 30.7095 107.734 30.4215C107.734 30.1495 107.617 29.9495 107.382 29.8215C107.147 29.6935 106.705 29.5602 106.054 29.4215C105.019 29.2189 104.267 28.9202 103.798 28.5255C103.329 28.1255 103.094 27.5762 103.094 26.8775C103.094 26.3815 103.23 25.9442 103.502 25.5655C103.779 25.1869 104.158 24.8935 104.638 24.6855C105.123 24.4722 105.681 24.3655 106.31 24.3655C106.923 24.3655 107.502 24.4509 108.046 24.6215C108.595 24.7922 109.067 25.0322 109.462 25.3415L108.782 26.8055C108.574 26.6295 108.337 26.4775 108.07 26.3495C107.803 26.2215 107.521 26.1229 107.222 26.0535C106.929 25.9842 106.638 25.9495 106.35 25.9495C105.929 25.9495 105.587 26.0242 105.326 26.1735C105.07 26.3229 104.942 26.5335 104.942 26.8055C104.942 27.0775 105.062 27.2802 105.302 27.4135C105.542 27.5415 105.977 27.6775 106.606 27.8215C107.673 28.0509 108.435 28.3549 108.894 28.7335C109.353 29.1122 109.582 29.6429 109.582 30.3255C109.582 30.8482 109.441 31.3042 109.158 31.6935C108.875 32.0775 108.481 32.3789 107.974 32.5975C107.473 32.8109 106.889 32.9175 106.222 32.9175ZM113.808 32.9175C113.12 32.9175 112.48 32.8242 111.888 32.6375C111.301 32.4509 110.803 32.1949 110.392 31.8695L111.104 30.4135C111.499 30.6962 111.933 30.9202 112.408 31.0855C112.883 31.2509 113.347 31.3335 113.8 31.3335C114.28 31.3335 114.653 31.2535 114.92 31.0935C115.187 30.9335 115.32 30.7095 115.32 30.4215C115.32 30.1495 115.203 29.9495 114.968 29.8215C114.733 29.6935 114.291 29.5602 113.64 29.4215C112.605 29.2189 111.853 28.9202 111.384 28.5255C110.915 28.1255 110.68 27.5762 110.68 26.8775C110.68 26.3815 110.816 25.9442 111.088 25.5655C111.365 25.1869 111.744 24.8935 112.224 24.6855C112.709 24.4722 113.267 24.3655 113.896 24.3655C114.509 24.3655 115.088 24.4509 115.632 24.6215C116.181 24.7922 116.653 25.0322 117.048 25.3415L116.368 26.8055C116.16 26.6295 115.923 26.4775 115.656 26.3495C115.389 26.2215 115.107 26.1229 114.808 26.0535C114.515 25.9842 114.224 25.9495 113.936 25.9495C113.515 25.9495 113.173 26.0242 112.912 26.1735C112.656 26.3229 112.528 26.5335 112.528 26.8055C112.528 27.0775 112.648 27.2802 112.888 27.4135C113.128 27.5415 113.563 27.6775 114.192 27.8215C115.259 28.0509 116.021 28.3549 116.48 28.7335C116.939 29.1122 117.168 29.6429 117.168 30.3255C117.168 30.8482 117.027 31.3042 116.744 31.6935C116.461 32.0775 116.067 32.3789 115.56 32.5975C115.059 32.8109 114.475 32.9175 113.808 32.9175ZM127.634 32.9255C126.472 32.9255 125.453 32.6855 124.578 32.2055C123.704 31.7255 123.024 31.0509 122.538 30.1815C122.053 29.3069 121.81 28.2802 121.81 27.1015C121.81 26.2429 121.952 25.4589 122.234 24.7495C122.522 24.0349 122.928 23.4162 123.45 22.8935C123.978 22.3655 124.597 21.9602 125.306 21.6775C126.021 21.3895 126.805 21.2455 127.658 21.2455C128.538 21.2455 129.29 21.3575 129.914 21.5815C130.538 21.8002 131.093 22.1122 131.578 22.5175L130.514 24.2215C130.173 23.8962 129.773 23.6562 129.314 23.5015C128.861 23.3415 128.357 23.2615 127.802 23.2615C127.21 23.2615 126.68 23.3495 126.21 23.5255C125.741 23.7015 125.341 23.9575 125.01 24.2935C124.68 24.6242 124.426 25.0242 124.25 25.4935C124.074 25.9629 123.986 26.4909 123.986 27.0775C123.986 27.8829 124.144 28.5709 124.458 29.1415C124.773 29.7069 125.221 30.1415 125.802 30.4455C126.384 30.7495 127.074 30.9015 127.874 30.9015C128.413 30.9015 128.938 30.8189 129.45 30.6535C129.968 30.4882 130.456 30.2242 130.914 29.8615L131.874 31.6135C131.341 32.0295 130.722 32.3522 130.018 32.5815C129.32 32.8109 128.525 32.9255 127.634 32.9255ZM136.822 32.9255C135.953 32.9255 135.19 32.7495 134.534 32.3975C133.878 32.0402 133.366 31.5442 132.998 30.9095C132.636 30.2749 132.454 29.5362 132.454 28.6935C132.454 28.0749 132.558 27.5069 132.766 26.9895C132.98 26.4722 133.278 26.0242 133.662 25.6455C134.052 25.2615 134.505 24.9655 135.022 24.7575C135.545 24.5495 136.116 24.4455 136.734 24.4455C137.406 24.4455 138.006 24.5655 138.534 24.8055C139.062 25.0402 139.5 25.3735 139.846 25.8055C140.198 26.2322 140.444 26.7335 140.582 27.3095C140.726 27.8802 140.745 28.5042 140.638 29.1815H134.382C134.377 29.6029 134.476 29.9709 134.678 30.2855C134.886 30.6002 135.18 30.8482 135.558 31.0295C135.942 31.2055 136.393 31.2935 136.91 31.2935C137.369 31.2935 137.809 31.2269 138.23 31.0935C138.652 30.9602 139.044 30.7629 139.406 30.5015L140.126 31.9335C139.876 32.1362 139.564 32.3122 139.19 32.4615C138.817 32.6109 138.422 32.7255 138.006 32.8055C137.596 32.8855 137.201 32.9255 136.822 32.9255ZM134.502 27.7255H138.654C138.638 27.1869 138.46 26.7655 138.118 26.4615C137.777 26.1522 137.3 25.9975 136.686 25.9975C136.078 25.9975 135.577 26.1522 135.182 26.4615C134.788 26.7655 134.561 27.1869 134.502 27.7255ZM142.072 32.6855V24.6855H144.12V25.6455C144.44 25.2242 144.813 24.9202 145.24 24.7335C145.672 24.5415 146.123 24.4455 146.592 24.4455C147.328 24.4455 147.936 24.5922 148.416 24.8855C148.901 25.1789 149.261 25.5549 149.496 26.0135C149.731 26.4722 149.848 26.9522 149.848 27.4535V32.6855H147.8V28.0935C147.8 27.5495 147.643 27.1175 147.328 26.7975C147.013 26.4775 146.573 26.3175 146.008 26.3175C145.64 26.3175 145.312 26.4002 145.024 26.5655C144.741 26.7255 144.52 26.9522 144.36 27.2455C144.2 27.5389 144.12 27.8775 144.12 28.2615V32.6855H142.072ZM155.074 32.9255C154.253 32.9255 153.602 32.6909 153.122 32.2215C152.642 31.7522 152.402 31.0429 152.402 30.0935V22.3655H154.45V24.6855H156.554V26.3495H154.45V29.6855C154.45 30.1975 154.551 30.5602 154.754 30.7735C154.957 30.9815 155.237 31.0855 155.594 31.0855C155.775 31.0855 155.946 31.0642 156.106 31.0215C156.271 30.9789 156.423 30.9229 156.562 30.8535L156.882 32.4855C156.647 32.6082 156.373 32.7122 156.058 32.7975C155.743 32.8829 155.415 32.9255 155.074 32.9255ZM150.714 26.3495V24.6855H152.634V26.3495H150.714ZM161.972 32.9255C161.102 32.9255 160.34 32.7495 159.684 32.3975C159.028 32.0402 158.516 31.5442 158.148 30.9095C157.785 30.2749 157.604 29.5362 157.604 28.6935C157.604 28.0749 157.708 27.5069 157.916 26.9895C158.129 26.4722 158.428 26.0242 158.812 25.6455C159.201 25.2615 159.654 24.9655 160.172 24.7575C160.694 24.5495 161.265 24.4455 161.884 24.4455C162.556 24.4455 163.156 24.5655 163.684 24.8055C164.212 25.0402 164.649 25.3735 164.996 25.8055C165.348 26.2322 165.593 26.7335 165.732 27.3095C165.876 27.8802 165.894 28.5042 165.788 29.1815H159.532C159.526 29.6029 159.625 29.9709 159.828 30.2855C160.036 30.6002 160.329 30.8482 160.708 31.0295C161.092 31.2055 161.542 31.2935 162.06 31.2935C162.518 31.2935 162.958 31.2269 163.38 31.0935C163.801 30.9602 164.193 30.7629 164.556 30.5015L165.276 31.9335C165.025 32.1362 164.713 32.3122 164.34 32.4615C163.966 32.6109 163.572 32.7255 163.156 32.8055C162.745 32.8855 162.35 32.9255 161.972 32.9255ZM159.652 27.7255H163.804C163.788 27.1869 163.609 26.7655 163.268 26.4615C162.926 26.1522 162.449 25.9975 161.836 25.9975C161.228 25.9975 160.726 26.1522 160.332 26.4615C159.937 26.7655 159.71 27.1869 159.652 27.7255ZM167.221 32.6855V24.6855H169.269V25.7335C169.547 25.2642 169.893 24.9309 170.309 24.7335C170.731 24.5362 171.184 24.4375 171.669 24.4375C171.84 24.4375 171.997 24.4455 172.141 24.4615C172.285 24.4775 172.424 24.5015 172.557 24.5335L172.301 26.6455C172.136 26.5869 171.963 26.5442 171.781 26.5175C171.605 26.4855 171.429 26.4695 171.253 26.4695C170.677 26.4695 170.203 26.6429 169.829 26.9895C169.456 27.3309 169.269 27.8109 169.269 28.4295V32.6855H167.221ZM176.451 32.9175C175.763 32.9175 175.123 32.8242 174.531 32.6375C173.945 32.4509 173.446 32.1949 173.035 31.8695L173.747 30.4135C174.142 30.6962 174.577 30.9202 175.051 31.0855C175.526 31.2509 175.99 31.3335 176.443 31.3335C176.923 31.3335 177.297 31.2535 177.563 31.0935C177.83 30.9335 177.963 30.7095 177.963 30.4215C177.963 30.1495 177.846 29.9495 177.611 29.8215C177.377 29.6935 176.934 29.5602 176.283 29.4215C175.249 29.2189 174.497 28.9202 174.027 28.5255C173.558 28.1255 173.323 27.5762 173.323 26.8775C173.323 26.3815 173.459 25.9442 173.731 25.5655C174.009 25.1869 174.387 24.8935 174.867 24.6855C175.353 24.4722 175.91 24.3655 176.539 24.3655C177.153 24.3655 177.731 24.4509 178.275 24.6215C178.825 24.7922 179.297 25.0322 179.691 25.3415L179.011 26.8055C178.803 26.6295 178.566 26.4775 178.299 26.3495C178.033 26.2215 177.75 26.1229 177.451 26.0535C177.158 25.9842 176.867 25.9495 176.579 25.9495C176.158 25.9495 175.817 26.0242 175.555 26.1735C175.299 26.3229 175.171 26.5335 175.171 26.8055C175.171 27.0775 175.291 27.2802 175.531 27.4135C175.771 27.5415 176.206 27.6775 176.835 27.8215C177.902 28.0509 178.665 28.3549 179.123 28.7335C179.582 29.1122 179.811 29.6429 179.811 30.3255C179.811 30.8482 179.67 31.3042 179.387 31.6935C179.105 32.0775 178.71 32.3789 178.203 32.5975C177.702 32.8109 177.118 32.9175 176.451 32.9175Z" fill="white"/>
<g clip-path="url(#clip0_6163_228)">
<rect x="6.24023" y="6" width="42.3457" height="42.3457" rx="12.0988" fill="#8059F0" fill-opacity="0.05"/>
<path d="M21.5767 17.813C21.627 17.8284 21.9644 18.6328 22.0278 18.7559C22.6655 19.991 23.448 20.9528 24.6601 21.6804C26.529 22.8019 28.0378 22.7049 29.8673 21.5786C31.2564 20.7233 32.1562 19.3036 32.7413 17.8142H34.3709C34.4427 17.8804 34.4211 18.0271 34.4116 18.1206C34.3147 19.125 33.2199 21.0072 32.6049 21.8318C31.808 22.9001 30.566 23.7223 30.2382 25.0485C30.0719 25.7216 29.9941 26.7532 30.1556 27.4205C30.5457 29.0365 31.5292 30.6324 32.2256 32.1432C32.8585 33.5167 33.5118 35.0546 33.9461 36.5003C34.0562 36.8659 34.25 37.4858 34.2907 37.8466C34.2943 37.8798 34.3075 37.9129 34.2847 37.9436L32.6384 37.9945C32.5008 37.9271 32.076 38.0359 32.0114 37.9117C31.9587 37.8088 31.9193 37.5284 31.875 37.3971C31.1846 35.3871 29.8469 32.297 28.0306 31.0903C27.8906 30.998 27.3678 30.6999 27.229 30.6987C27.0998 30.6975 26.8652 30.7862 26.7432 30.8418C25.2607 31.5268 23.9841 33.7781 23.3344 35.2155C22.9359 36.0969 22.6296 37.0149 22.3102 37.9271C22.2623 37.9685 22.2061 37.9685 22.1475 37.9732C21.5803 38.0241 20.8169 37.9874 20.2283 37.9898C20.1756 37.9898 20.1242 37.9697 20.0703 37.9697C20.0655 37.8987 20.062 37.8265 20.0751 37.7567C20.4233 36.0105 21.286 33.9994 22.0206 32.3798C22.6763 30.9377 23.5031 29.5251 24.0152 28.0262C24.4627 26.7166 24.3466 24.9917 23.5306 23.8335C23.2159 23.3863 22.7373 23.0278 22.37 22.6079C21.4798 21.5904 20.2043 19.6124 19.9555 18.2649C19.9315 18.1324 19.8825 17.9088 19.9938 17.8142H21.5779L21.5767 17.813Z" fill="white"/>
<path d="M39.6313 23.606C39.6947 23.6509 39.6792 23.7254 39.6732 23.7941C39.6026 24.5607 38.71 26.0146 38.2111 26.6274C37.7121 27.2403 37.0959 27.6389 36.8566 28.3996C36.2524 30.3174 37.4776 31.9204 38.2326 33.5897C38.716 34.6579 39.3238 36.0575 39.5476 37.1956C39.5667 37.2914 39.6229 37.4546 39.4806 37.4688L38.046 37.4097C37.9024 36.9921 37.7672 36.5721 37.6033 36.1628C37.1247 34.9726 36.1387 33.0076 34.8896 32.4906C34.6539 32.3936 34.4636 32.5107 34.2555 32.6255C34.0293 32.7509 33.8451 32.9402 33.6249 33.0608L33.5926 33.0336C33.3916 32.6196 33.1942 32.2019 33.0027 31.7831C32.9393 31.6459 32.8843 31.4779 32.822 31.3419C32.7526 31.1904 32.5684 30.9408 32.5373 30.7953C32.4834 30.5398 32.6761 30.2014 32.7072 29.9411C32.7754 29.3709 32.6258 28.499 32.3566 27.9891C32.1149 27.5325 31.683 27.2154 31.3492 26.8274C31.2666 26.7316 30.9866 26.405 30.9747 26.3116C30.922 25.9259 31.1158 25.1605 31.2618 24.789C31.2774 24.7488 31.2917 24.6589 31.3504 24.6683C31.4592 24.6837 31.5119 24.8801 31.5669 24.9594C32.8412 26.786 34.8932 27.3917 36.804 26.0134C37.5853 25.4503 38.1189 24.5548 38.4827 23.6829C38.4958 23.6616 38.5676 23.606 38.5844 23.606H39.6301H39.6313Z" fill="white"/>
<path d="M15.8059 23.6057C15.9782 23.8979 16.0894 24.2256 16.257 24.519C17.323 26.3835 19.302 27.4494 21.3481 26.2782C22.0205 25.8925 22.5673 25.34 22.9514 24.6704C23.0555 24.6444 23.2266 25.1969 23.2493 25.2903C23.3283 25.6038 23.3378 25.9304 23.3833 26.2486C23.0447 26.9466 22.2873 27.3808 21.9367 28.0717C21.701 28.5354 21.5467 29.6061 21.6639 30.1089C21.7034 30.2769 21.8578 30.5762 21.8278 30.7418C21.8111 30.8341 21.6675 31.034 21.6232 31.131C21.5515 31.2872 21.4737 31.4433 21.4043 31.5948C21.1853 32.0715 20.9855 32.5578 20.7678 33.0345L20.7091 33.0641L20.2712 32.7281C19.7041 32.3424 19.4145 32.4193 18.8928 32.8275C17.6724 33.7822 16.9449 35.6502 16.4029 37.0841C16.3299 37.2781 16.3802 37.4485 16.0978 37.4567C15.7365 37.4674 15.3608 37.4283 14.9958 37.4366C14.9252 37.4378 14.863 37.4792 14.8008 37.4556C14.7027 37.3846 14.8774 36.9362 14.9085 36.8191C15.2722 35.4456 15.8621 34.1206 16.4639 32.8299C17.1483 31.3629 18.0433 30.1408 17.5013 28.4289C17.2345 27.5854 16.4125 27.0223 15.8944 26.3219C15.4948 25.7837 15.0497 24.991 14.8319 24.3581C14.7506 24.1203 14.6632 23.8541 14.6824 23.6045H15.8035L15.8059 23.6057Z" fill="white"/>
<path d="M27.1751 20.647C28.4729 20.647 29.525 19.6067 29.525 18.3235C29.525 17.0403 28.4729 16 27.1751 16C25.8773 16 24.8252 17.0403 24.8252 18.3235C24.8252 19.6067 25.8773 20.647 27.1751 20.647Z" fill="white"/>
<path d="M19.6535 25.3478C20.5429 25.3478 21.2639 24.6349 21.2639 23.7555C21.2639 22.876 20.5429 22.1631 19.6535 22.1631C18.764 22.1631 18.043 22.876 18.043 23.7555C18.043 24.6349 18.764 25.3478 19.6535 25.3478Z" fill="white"/>
<path d="M34.6954 25.3464C35.5849 25.3464 36.3059 24.6334 36.3059 23.754C36.3059 22.8746 35.5849 22.1616 34.6954 22.1616C33.806 22.1616 33.085 22.8746 33.085 23.754C33.085 24.6334 33.806 25.3464 34.6954 25.3464Z" fill="white"/>
<g filter="url(#filter1_f_6163_228)">
<circle cx="42.6986" cy="41.4585" r="7.55354" transform="rotate(-7.35473 42.6986 41.4585)" fill="#8059F0"/>
</g>
</g>
<rect x="6.99023" y="6.75" width="40.8457" height="40.8457" rx="11.3488" stroke="#8059F0" stroke-width="1.5"/>
<path d="M182.241 6V6C188.923 6 194.34 11.4168 194.34 18.0988V18.0988" stroke="#8059F0" stroke-width="2.26852" stroke-linecap="round"/>
<defs>
<filter id="filter1_f_6163_228" x="5.14453" y="3.9043" width="75.1084" height="75.1084" filterUnits="userSpaceOnUse" color-interpolation-filters="sRGB">
<feFlood flood-opacity="0" result="BackgroundImageFix"/>
<feBlend mode="normal" in="SourceGraphic" in2="BackgroundImageFix" result="shape"/>
<feGaussianBlur stdDeviation="15" result="effect1_foregroundBlur_6163_228"/>
</filter>
<linearGradient id="paint0_linear_6163_228" x1="100.24" y1="0" x2="100.24" y2="54" gradientUnits="userSpaceOnUse">
<stop stop-color="#F6F6F6"/>
<stop offset="1" stop-color="#E6E6E6"/>
</linearGradient>
<clipPath id="clip0_6163_228">
<rect x="6.24023" y="6" width="42.3457" height="42.3457" rx="12.0988" fill="white"/>
</clipPath>
</defs>
</svg>
