<svg width="304" height="86" viewBox="0 0 304 86" fill="none" xmlns="http://www.w3.org/2000/svg">
<g filter="url(#filter0_dddddd_5427_41510)">
<rect x="52" y="20" width="200" height="54" rx="18.1482" fill="#F1F1F1" fill-opacity="0.1" shape-rendering="crispEdges"/>
<rect x="53.1343" y="21.1343" width="197.731" height="51.7315" rx="17.0139" stroke="url(#paint0_linear_5427_41510)" stroke-opacity="0.1" stroke-width="2.26852" shape-rendering="crispEdges"/>
</g>
<path d="M116.936 52.6855V41.4855H124.008V43.3895H119.016V46.3095H123.52V48.1495H119.016V52.6855H116.936ZM125.759 52.6855V44.6855H127.807V52.6855H125.759ZM126.783 43.3415C126.431 43.3415 126.127 43.2295 125.871 43.0055C125.615 42.7815 125.487 42.4855 125.487 42.1175C125.487 41.7495 125.615 41.4535 125.871 41.2295C126.127 41.0055 126.431 40.8935 126.783 40.8935C127.135 40.8935 127.439 41.0055 127.695 41.2295C127.951 41.4535 128.079 41.7495 128.079 42.1175C128.079 42.4855 127.951 42.7815 127.695 43.0055C127.439 43.2295 127.135 43.3415 126.783 43.3415ZM133.261 52.9255C132.44 52.9255 131.789 52.6909 131.309 52.2215C130.829 51.7522 130.589 51.0429 130.589 50.0935V42.3655H132.637V44.6855H134.741V46.3495H132.637V49.6855C132.637 50.1975 132.739 50.5602 132.941 50.7735C133.144 50.9815 133.424 51.0855 133.781 51.0855C133.963 51.0855 134.133 51.0642 134.293 51.0215C134.459 50.9789 134.611 50.9229 134.749 50.8535L135.069 52.4855C134.835 52.6082 134.56 52.7122 134.245 52.7975C133.931 52.8829 133.603 52.9255 133.261 52.9255ZM128.901 46.3495V44.6855H130.821V46.3495H128.901ZM136.494 52.6855V44.6855H138.542V45.6455C138.862 45.2242 139.235 44.9202 139.662 44.7335C140.094 44.5415 140.545 44.4455 141.014 44.4455C141.75 44.4455 142.358 44.5922 142.838 44.8855C143.323 45.1789 143.683 45.5549 143.918 46.0135C144.153 46.4722 144.27 46.9522 144.27 47.4535V52.6855H142.222V48.0935C142.222 47.5495 142.065 47.1175 141.75 46.7975C141.435 46.4775 140.995 46.3175 140.43 46.3175C140.062 46.3175 139.734 46.4002 139.446 46.5655C139.163 46.7255 138.942 46.9522 138.782 47.2455C138.622 47.5389 138.542 47.8775 138.542 48.2615V52.6855H136.494ZM149.933 52.9255C149.063 52.9255 148.301 52.7495 147.645 52.3975C146.989 52.0402 146.477 51.5442 146.109 50.9095C145.746 50.2749 145.565 49.5362 145.565 48.6935C145.565 48.0749 145.669 47.5069 145.877 46.9895C146.09 46.4722 146.389 46.0242 146.773 45.6455C147.162 45.2615 147.615 44.9655 148.133 44.7575C148.655 44.5495 149.226 44.4455 149.845 44.4455C150.517 44.4455 151.117 44.5655 151.645 44.8055C152.173 45.0402 152.61 45.3735 152.957 45.8055C153.309 46.2322 153.554 46.7335 153.693 47.3095C153.837 47.8802 153.855 48.5042 153.749 49.1815H147.493C147.487 49.6029 147.586 49.9709 147.789 50.2855C147.997 50.6002 148.29 50.8482 148.669 51.0295C149.053 51.2055 149.503 51.2935 150.021 51.2935C150.479 51.2935 150.919 51.2269 151.341 51.0935C151.762 50.9602 152.154 50.7629 152.517 50.5015L153.237 51.9335C152.986 52.1362 152.674 52.3122 152.301 52.4615C151.927 52.6109 151.533 52.7255 151.117 52.8055C150.706 52.8855 150.311 52.9255 149.933 52.9255ZM147.613 47.7255H151.765C151.749 47.1869 151.57 46.7655 151.229 46.4615C150.887 46.1522 150.41 45.9975 149.797 45.9975C149.189 45.9975 148.687 46.1522 148.293 46.4615C147.898 46.7655 147.671 47.1869 147.613 47.7255ZM157.982 52.9175C157.294 52.9175 156.654 52.8242 156.062 52.6375C155.475 52.4509 154.977 52.1949 154.566 51.8695L155.278 50.4135C155.673 50.6962 156.107 50.9202 156.582 51.0855C157.057 51.2509 157.521 51.3335 157.974 51.3335C158.454 51.3335 158.827 51.2535 159.094 51.0935C159.361 50.9335 159.494 50.7095 159.494 50.4215C159.494 50.1495 159.377 49.9495 159.142 49.8215C158.907 49.6935 158.465 49.5602 157.814 49.4215C156.779 49.2189 156.027 48.9202 155.558 48.5255C155.089 48.1255 154.854 47.5762 154.854 46.8775C154.854 46.3815 154.99 45.9442 155.262 45.5655C155.539 45.1869 155.918 44.8935 156.398 44.6855C156.883 44.4722 157.441 44.3655 158.07 44.3655C158.683 44.3655 159.262 44.4509 159.806 44.6215C160.355 44.7922 160.827 45.0322 161.222 45.3415L160.542 46.8055C160.334 46.6295 160.097 46.4775 159.83 46.3495C159.563 46.2215 159.281 46.1229 158.982 46.0535C158.689 45.9842 158.398 45.9495 158.11 45.9495C157.689 45.9495 157.347 46.0242 157.086 46.1735C156.83 46.3229 156.702 46.5335 156.702 46.8055C156.702 47.0775 156.822 47.2802 157.062 47.4135C157.302 47.5415 157.737 47.6775 158.366 47.8215C159.433 48.0509 160.195 48.3549 160.654 48.7335C161.113 49.1122 161.342 49.6429 161.342 50.3255C161.342 50.8482 161.201 51.3042 160.918 51.6935C160.635 52.0775 160.241 52.3789 159.734 52.5975C159.233 52.8109 158.649 52.9175 157.982 52.9175ZM165.568 52.9175C164.88 52.9175 164.24 52.8242 163.648 52.6375C163.062 52.4509 162.563 52.1949 162.152 51.8695L162.864 50.4135C163.259 50.6962 163.694 50.9202 164.168 51.0855C164.643 51.2509 165.107 51.3335 165.56 51.3335C166.04 51.3335 166.414 51.2535 166.68 51.0935C166.947 50.9335 167.08 50.7095 167.08 50.4215C167.08 50.1495 166.963 49.9495 166.728 49.8215C166.494 49.6935 166.051 49.5602 165.4 49.4215C164.366 49.2189 163.614 48.9202 163.144 48.5255C162.675 48.1255 162.44 47.5762 162.44 46.8775C162.44 46.3815 162.576 45.9442 162.848 45.5655C163.126 45.1869 163.504 44.8935 163.984 44.6855C164.47 44.4722 165.027 44.3655 165.656 44.3655C166.27 44.3655 166.848 44.4509 167.392 44.6215C167.942 44.7922 168.414 45.0322 168.808 45.3415L168.128 46.8055C167.92 46.6295 167.683 46.4775 167.416 46.3495C167.15 46.2215 166.867 46.1229 166.568 46.0535C166.275 45.9842 165.984 45.9495 165.696 45.9495C165.275 45.9495 164.934 46.0242 164.672 46.1735C164.416 46.3229 164.288 46.5335 164.288 46.8055C164.288 47.0775 164.408 47.2802 164.648 47.4135C164.888 47.5415 165.323 47.6775 165.952 47.8215C167.019 48.0509 167.782 48.3549 168.24 48.7335C168.699 49.1122 168.928 49.6429 168.928 50.3255C168.928 50.8482 168.787 51.3042 168.504 51.6935C168.222 52.0775 167.827 52.3789 167.32 52.5975C166.819 52.8109 166.235 52.9175 165.568 52.9175ZM179.395 52.9255C178.232 52.9255 177.213 52.6855 176.339 52.2055C175.464 51.7255 174.784 51.0509 174.299 50.1815C173.813 49.3069 173.571 48.2802 173.571 47.1015C173.571 46.2429 173.712 45.4589 173.995 44.7495C174.283 44.0349 174.688 43.4162 175.211 42.8935C175.739 42.3655 176.357 41.9602 177.067 41.6775C177.781 41.3895 178.565 41.2455 179.419 41.2455C180.299 41.2455 181.051 41.3575 181.675 41.5815C182.299 41.8002 182.853 42.1122 183.339 42.5175L182.275 44.2215C181.933 43.8962 181.533 43.6562 181.075 43.5015C180.621 43.3415 180.117 43.2615 179.563 43.2615C178.971 43.2615 178.44 43.3495 177.971 43.5255C177.501 43.7015 177.101 43.9575 176.771 44.2935C176.44 44.6242 176.187 45.0242 176.011 45.4935C175.835 45.9629 175.747 46.4909 175.747 47.0775C175.747 47.8829 175.904 48.5709 176.219 49.1415C176.533 49.7069 176.981 50.1415 177.563 50.4455C178.144 50.7495 178.835 50.9015 179.635 50.9015C180.173 50.9015 180.699 50.8189 181.211 50.6535C181.728 50.4882 182.216 50.2242 182.675 49.8615L183.635 51.6135C183.101 52.0295 182.483 52.3522 181.779 52.5815C181.08 52.8109 180.285 52.9255 179.395 52.9255ZM188.583 52.9255C187.713 52.9255 186.951 52.7495 186.295 52.3975C185.639 52.0402 185.127 51.5442 184.759 50.9095C184.396 50.2749 184.215 49.5362 184.215 48.6935C184.215 48.0749 184.319 47.5069 184.527 46.9895C184.74 46.4722 185.039 46.0242 185.423 45.6455C185.812 45.2615 186.265 44.9655 186.783 44.7575C187.305 44.5495 187.876 44.4455 188.495 44.4455C189.167 44.4455 189.767 44.5655 190.295 44.8055C190.823 45.0402 191.26 45.3735 191.607 45.8055C191.959 46.2322 192.204 46.7335 192.343 47.3095C192.487 47.8802 192.505 48.5042 192.399 49.1815H186.143C186.137 49.6029 186.236 49.9709 186.439 50.2855C186.647 50.6002 186.94 50.8482 187.319 51.0295C187.703 51.2055 188.153 51.2935 188.671 51.2935C189.129 51.2935 189.569 51.2269 189.991 51.0935C190.412 50.9602 190.804 50.7629 191.167 50.5015L191.887 51.9335C191.636 52.1362 191.324 52.3122 190.951 52.4615C190.577 52.6109 190.183 52.7255 189.767 52.8055C189.356 52.8855 188.961 52.9255 188.583 52.9255ZM186.263 47.7255H190.415C190.399 47.1869 190.22 46.7655 189.879 46.4615C189.537 46.1522 189.06 45.9975 188.447 45.9975C187.839 45.9975 187.337 46.1522 186.943 46.4615C186.548 46.7655 186.321 47.1869 186.263 47.7255ZM193.832 52.6855V44.6855H195.88V45.6455C196.2 45.2242 196.573 44.9202 197 44.7335C197.432 44.5415 197.883 44.4455 198.352 44.4455C199.088 44.4455 199.696 44.5922 200.176 44.8855C200.661 45.1789 201.021 45.5549 201.256 46.0135C201.491 46.4722 201.608 46.9522 201.608 47.4535V52.6855H199.56V48.0935C199.56 47.5495 199.403 47.1175 199.088 46.7975C198.773 46.4775 198.333 46.3175 197.768 46.3175C197.4 46.3175 197.072 46.4002 196.784 46.5655C196.501 46.7255 196.28 46.9522 196.12 47.2455C195.96 47.5389 195.88 47.8775 195.88 48.2615V52.6855H193.832ZM206.834 52.9255C206.013 52.9255 205.362 52.6909 204.882 52.2215C204.402 51.7522 204.162 51.0429 204.162 50.0935V42.3655H206.21V44.6855H208.314V46.3495H206.21V49.6855C206.21 50.1975 206.312 50.5602 206.514 50.7735C206.717 50.9815 206.997 51.0855 207.354 51.0855C207.536 51.0855 207.706 51.0642 207.866 51.0215C208.032 50.9789 208.184 50.9229 208.322 50.8535L208.642 52.4855C208.408 52.6082 208.133 52.7122 207.818 52.7975C207.504 52.8829 207.176 52.9255 206.834 52.9255ZM202.474 46.3495V44.6855H204.394V46.3495H202.474ZM213.732 52.9255C212.863 52.9255 212.1 52.7495 211.444 52.3975C210.788 52.0402 210.276 51.5442 209.908 50.9095C209.545 50.2749 209.364 49.5362 209.364 48.6935C209.364 48.0749 209.468 47.5069 209.676 46.9895C209.889 46.4722 210.188 46.0242 210.572 45.6455C210.961 45.2615 211.415 44.9655 211.932 44.7575C212.455 44.5495 213.025 44.4455 213.644 44.4455C214.316 44.4455 214.916 44.5655 215.444 44.8055C215.972 45.0402 216.409 45.3735 216.756 45.8055C217.108 46.2322 217.353 46.7335 217.492 47.3095C217.636 47.8802 217.655 48.5042 217.548 49.1815H211.292C211.287 49.6029 211.385 49.9709 211.588 50.2855C211.796 50.6002 212.089 50.8482 212.468 51.0295C212.852 51.2055 213.303 51.2935 213.82 51.2935C214.279 51.2935 214.719 51.2269 215.14 51.0935C215.561 50.9602 215.953 50.7629 216.316 50.5015L217.036 51.9335C216.785 52.1362 216.473 52.3122 216.1 52.4615C215.727 52.6109 215.332 52.7255 214.916 52.8055C214.505 52.8855 214.111 52.9255 213.732 52.9255ZM211.412 47.7255H215.564C215.548 47.1869 215.369 46.7655 215.028 46.4615C214.687 46.1522 214.209 45.9975 213.596 45.9975C212.988 45.9975 212.487 46.1522 212.092 46.4615C211.697 46.7655 211.471 47.1869 211.412 47.7255ZM218.982 52.6855V44.6855H221.03V45.7335C221.307 45.2642 221.654 44.9309 222.07 44.7335C222.491 44.5362 222.944 44.4375 223.43 44.4375C223.6 44.4375 223.758 44.4455 223.902 44.4615C224.046 44.4775 224.184 44.5015 224.318 44.5335L224.062 46.6455C223.896 46.5869 223.723 46.5442 223.542 46.5175C223.366 46.4855 223.19 46.4695 223.014 46.4695C222.438 46.4695 221.963 46.6429 221.59 46.9895C221.216 47.3309 221.03 47.8109 221.03 48.4295V52.6855H218.982ZM228.212 52.9175C227.524 52.9175 226.884 52.8242 226.292 52.6375C225.705 52.4509 225.206 52.1949 224.796 51.8695L225.508 50.4135C225.902 50.6962 226.337 50.9202 226.812 51.0855C227.286 51.2509 227.75 51.3335 228.204 51.3335C228.684 51.3335 229.057 51.2535 229.324 51.0935C229.59 50.9335 229.724 50.7095 229.724 50.4215C229.724 50.1495 229.606 49.9495 229.372 49.8215C229.137 49.6935 228.694 49.5602 228.044 49.4215C227.009 49.2189 226.257 48.9202 225.788 48.5255C225.318 48.1255 225.084 47.5762 225.084 46.8775C225.084 46.3815 225.22 45.9442 225.492 45.5655C225.769 45.1869 226.148 44.8935 226.628 44.6855C227.113 44.4722 227.67 44.3655 228.3 44.3655C228.913 44.3655 229.492 44.4509 230.036 44.6215C230.585 44.7922 231.057 45.0322 231.452 45.3415L230.772 46.8055C230.564 46.6295 230.326 46.4775 230.06 46.3495C229.793 46.2215 229.51 46.1229 229.212 46.0535C228.918 45.9842 228.628 45.9495 228.34 45.9495C227.918 45.9495 227.577 46.0242 227.316 46.1735C227.06 46.3229 226.932 46.5335 226.932 46.8055C226.932 47.0775 227.052 47.2802 227.292 47.4135C227.532 47.5415 227.966 47.6775 228.596 47.8215C229.662 48.0509 230.425 48.3549 230.884 48.7335C231.342 49.1122 231.572 49.6429 231.572 50.3255C231.572 50.8482 231.43 51.3042 231.148 51.6935C230.865 52.0775 230.47 52.3789 229.964 52.5975C229.462 52.8109 228.878 52.9175 228.212 52.9175Z" fill="white"/>
<g clip-path="url(#clip0_5427_41510)">
<rect x="58" y="26" width="42.3457" height="42.3457" rx="12.0988" fill="#8059F0" fill-opacity="0.05"/>
<path d="M73.337 37.813C73.3872 37.8284 73.7246 38.6328 73.7881 38.7559C74.4258 39.991 75.2083 40.9528 76.4204 41.6804C78.2893 42.8019 79.7981 42.7049 81.6275 41.5786C83.0167 40.7233 83.9164 39.3036 84.5015 37.8142H86.1311C86.2029 37.8804 86.1814 38.0271 86.1718 38.1206C86.0749 39.125 84.9801 41.0072 84.3651 41.8318C83.5682 42.9001 82.3263 43.7223 81.9984 45.0485C81.8321 45.7216 81.7543 46.7532 81.9159 47.4205C82.3059 49.0365 83.2895 50.6324 83.9858 52.1432C84.6188 53.5167 85.2721 55.0546 85.7064 56.5003C85.8165 56.8659 86.0103 57.4858 86.051 57.8466C86.0546 57.8798 86.0677 57.9129 86.045 57.9436L84.3986 57.9945C84.261 57.9271 83.8363 58.0359 83.7716 57.9117C83.719 57.8088 83.6795 57.5284 83.6352 57.3971C82.9449 55.3871 81.6072 52.297 79.7909 51.0903C79.6509 50.998 79.128 50.6999 78.9892 50.6987C78.86 50.6975 78.6255 50.7862 78.5035 50.8418C77.021 51.5268 75.7443 53.7781 75.0946 55.2155C74.6962 56.0969 74.3899 57.0149 74.0704 57.9271C74.0226 57.9685 73.9663 57.9685 73.9077 57.9732C73.3406 58.0241 72.5772 57.9874 71.9885 57.9898C71.9359 57.9898 71.8844 57.9697 71.8306 57.9697C71.8258 57.8987 71.8222 57.8265 71.8354 57.7567C72.1835 56.0105 73.0462 53.9994 73.7809 52.3798C74.4366 50.9377 75.2633 49.5251 75.7754 48.0262C76.2229 46.7166 76.1069 44.9917 75.2909 43.8335C74.9762 43.3863 74.4976 43.0278 74.1303 42.6079C73.2401 41.5904 71.9646 39.6124 71.7157 38.2649C71.6918 38.1324 71.6427 37.9088 71.754 37.8142H73.3382L73.337 37.813Z" fill="white"/>
<path d="M91.3916 43.606C91.455 43.6509 91.4394 43.7254 91.4335 43.7941C91.3629 44.5607 90.4703 46.0146 89.9713 46.6274C89.4724 47.2403 88.8562 47.6389 88.6169 48.3996C88.0127 50.3174 89.2379 51.9204 89.9929 53.5897C90.4763 54.6579 91.0841 56.0575 91.3078 57.1956C91.327 57.2914 91.3832 57.4546 91.2408 57.4688L89.8062 57.4097C89.6626 56.9921 89.5274 56.5721 89.3635 56.1628C88.8849 54.9726 87.899 53.0076 86.6499 52.4906C86.4141 52.3936 86.2239 52.5107 86.0157 52.6255C85.7896 52.7509 85.6053 52.9402 85.3852 53.0608L85.3528 53.0336C85.1518 52.6196 84.9544 52.2019 84.763 51.7831C84.6996 51.6459 84.6445 51.4779 84.5823 51.3419C84.5129 51.1904 84.3286 50.9408 84.2975 50.7953C84.2437 50.5398 84.4363 50.2014 84.4674 49.9411C84.5356 49.3709 84.3861 48.499 84.1169 47.9891C83.8752 47.5325 83.4432 47.2154 83.1094 46.8274C83.0269 46.7316 82.7469 46.405 82.7349 46.3116C82.6823 45.9259 82.8761 45.1605 83.0221 44.789C83.0376 44.7488 83.052 44.6589 83.1106 44.6683C83.2195 44.6837 83.2721 44.8801 83.3272 44.9594C84.6014 46.786 86.6534 47.3917 88.5642 46.0134C89.3456 45.4503 89.8792 44.5548 90.2429 43.6829C90.2561 43.6616 90.3279 43.606 90.3446 43.606H91.3904H91.3916Z" fill="white"/>
<path d="M67.5661 43.6057C67.7384 43.8979 67.8497 44.2256 68.0172 44.519C69.0833 46.3835 71.0623 47.4494 73.1083 46.2782C73.7807 45.8925 74.3275 45.34 74.7116 44.6704C74.8157 44.6444 74.9868 45.1969 75.0095 45.2903C75.0885 45.6038 75.0981 45.9304 75.1436 46.2486C74.8049 46.9466 74.0476 47.3808 73.697 48.0717C73.4613 48.5354 73.3069 49.6061 73.4242 50.1089C73.4637 50.2769 73.618 50.5762 73.5881 50.7418C73.5714 50.8341 73.4278 51.034 73.3835 51.131C73.3117 51.2872 73.2339 51.4433 73.1645 51.5948C72.9456 52.0715 72.7458 52.5578 72.528 53.0345L72.4694 53.0641L72.0315 52.7281C71.4643 52.3424 71.1748 52.4193 70.6531 52.8275C69.4327 53.7822 68.7052 55.6502 68.1632 57.0841C68.0902 57.2781 68.1404 57.4485 67.8581 57.4567C67.4967 57.4674 67.121 57.4283 66.7561 57.4366C66.6855 57.4378 66.6233 57.4792 66.5611 57.4556C66.463 57.3846 66.6376 56.9362 66.6687 56.8191C67.0325 55.4456 67.6224 54.1206 68.2242 52.8299C68.9086 51.3629 69.8036 50.1408 69.2616 48.4289C68.9947 47.5854 68.1727 47.0223 67.6547 46.3219C67.255 45.7837 66.8099 44.991 66.5922 44.3581C66.5108 44.1203 66.4235 43.8541 66.4426 43.6045H67.5637L67.5661 43.6057Z" fill="white"/>
<path d="M78.9354 40.647C80.2332 40.647 81.2853 39.6067 81.2853 38.3235C81.2853 37.0403 80.2332 36 78.9354 36C77.6375 36 76.5854 37.0403 76.5854 38.3235C76.5854 39.6067 77.6375 40.647 78.9354 40.647Z" fill="white"/>
<path d="M71.4137 45.3478C72.3032 45.3478 73.0242 44.6349 73.0242 43.7555C73.0242 42.876 72.3032 42.1631 71.4137 42.1631C70.5243 42.1631 69.8032 42.876 69.8032 43.7555C69.8032 44.6349 70.5243 45.3478 71.4137 45.3478Z" fill="white"/>
<path d="M86.4557 45.3464C87.3451 45.3464 88.0662 44.6334 88.0662 43.754C88.0662 42.8746 87.3451 42.1616 86.4557 42.1616C85.5663 42.1616 84.8452 42.8746 84.8452 43.754C84.8452 44.6334 85.5663 45.3464 86.4557 45.3464Z" fill="white"/>
<g filter="url(#filter2_f_5427_41510)">
<circle cx="94.4583" cy="61.4585" r="7.55354" transform="rotate(-7.35473 94.4583 61.4585)" fill="#8059F0"/>
</g>
</g>
<rect x="58.75" y="26.75" width="40.8457" height="40.8457" rx="11.3488" stroke="#8059F0" stroke-width="1.5"/>
<path d="M234 26V26C240.682 26 246.099 31.4168 246.099 38.0988V38.0988" stroke="#8059F0" stroke-width="2.26852" stroke-linecap="round"/>
<defs>
<filter id="filter0_dddddd_5427_41510" x="0" y="0" width="304" height="158" filterUnits="userSpaceOnUse" color-interpolation-filters="sRGB">
<feFlood flood-opacity="0" result="BackgroundImageFix"/>
<feColorMatrix in="SourceAlpha" type="matrix" values="0 0 0 0 0 0 0 0 0 0 0 0 0 0 0 0 0 0 127 0" result="hardAlpha"/>
<feMorphology radius="4" operator="erode" in="SourceAlpha" result="effect1_dropShadow_5427_41510"/>
<feOffset dy="5"/>
<feGaussianBlur stdDeviation="0.75"/>
<feComposite in2="hardAlpha" operator="out"/>
<feColorMatrix type="matrix" values="0 0 0 0 0.0313726 0 0 0 0 0.0313726 0 0 0 0 0.0313726 0 0 0 0.05 0"/>
<feBlend mode="normal" in2="BackgroundImageFix" result="effect1_dropShadow_5427_41510"/>
<feColorMatrix in="SourceAlpha" type="matrix" values="0 0 0 0 0 0 0 0 0 0 0 0 0 0 0 0 0 0 127 0" result="hardAlpha"/>
<feMorphology radius="4" operator="erode" in="SourceAlpha" result="effect2_dropShadow_5427_41510"/>
<feOffset dy="6"/>
<feGaussianBlur stdDeviation="2"/>
<feComposite in2="hardAlpha" operator="out"/>
<feColorMatrix type="matrix" values="0 0 0 0 0.0313726 0 0 0 0 0.0313726 0 0 0 0 0.0313726 0 0 0 0.05 0"/>
<feBlend mode="normal" in2="effect1_dropShadow_5427_41510" result="effect2_dropShadow_5427_41510"/>
<feColorMatrix in="SourceAlpha" type="matrix" values="0 0 0 0 0 0 0 0 0 0 0 0 0 0 0 0 0 0 127 0" result="hardAlpha"/>
<feOffset dy="6"/>
<feGaussianBlur stdDeviation="6.5"/>
<feComposite in2="hardAlpha" operator="out"/>
<feColorMatrix type="matrix" values="0 0 0 0 0.0313726 0 0 0 0 0.0313726 0 0 0 0 0.0313726 0 0 0 0.03 0"/>
<feBlend mode="normal" in2="effect2_dropShadow_5427_41510" result="effect3_dropShadow_5427_41510"/>
<feColorMatrix in="SourceAlpha" type="matrix" values="0 0 0 0 0 0 0 0 0 0 0 0 0 0 0 0 0 0 127 0" result="hardAlpha"/>
<feMorphology radius="16" operator="erode" in="SourceAlpha" result="effect4_dropShadow_5427_41510"/>
<feOffset dy="24"/>
<feGaussianBlur stdDeviation="12"/>
<feComposite in2="hardAlpha" operator="out"/>
<feColorMatrix type="matrix" values="0 0 0 0 0.0313726 0 0 0 0 0.0313726 0 0 0 0 0.0313726 0 0 0 0.04 0"/>
<feBlend mode="normal" in2="effect3_dropShadow_5427_41510" result="effect4_dropShadow_5427_41510"/>
<feColorMatrix in="SourceAlpha" type="matrix" values="0 0 0 0 0 0 0 0 0 0 0 0 0 0 0 0 0 0 127 0" result="hardAlpha"/>
<feMorphology radius="2" operator="erode" in="SourceAlpha" result="effect5_dropShadow_5427_41510"/>
<feOffset dy="2.15"/>
<feGaussianBlur stdDeviation="0.25"/>
<feComposite in2="hardAlpha" operator="out"/>
<feColorMatrix type="matrix" values="0 0 0 0 0 0 0 0 0 0 0 0 0 0 0 0 0 0 0.25 0"/>
<feBlend mode="normal" in2="effect4_dropShadow_5427_41510" result="effect5_dropShadow_5427_41510"/>
<feColorMatrix in="SourceAlpha" type="matrix" values="0 0 0 0 0 0 0 0 0 0 0 0 0 0 0 0 0 0 127 0" result="hardAlpha"/>
<feMorphology radius="12" operator="erode" in="SourceAlpha" result="effect6_dropShadow_5427_41510"/>
<feOffset dy="32"/>
<feGaussianBlur stdDeviation="32"/>
<feComposite in2="hardAlpha" operator="out"/>
<feColorMatrix type="matrix" values="0 0 0 0 0 0 0 0 0 0 0 0 0 0 0 0 0 0 0.075 0"/>
<feBlend mode="multiply" in2="effect5_dropShadow_5427_41510" result="effect6_dropShadow_5427_41510"/>
<feBlend mode="normal" in="SourceGraphic" in2="effect6_dropShadow_5427_41510" result="shape"/>
</filter>
<filter id="filter2_f_5427_41510" x="56.9038" y="23.9043" width="75.1089" height="75.1084" filterUnits="userSpaceOnUse" color-interpolation-filters="sRGB">
<feFlood flood-opacity="0" result="BackgroundImageFix"/>
<feBlend mode="normal" in="SourceGraphic" in2="BackgroundImageFix" result="shape"/>
<feGaussianBlur stdDeviation="15" result="effect1_foregroundBlur_5427_41510"/>
</filter>
<linearGradient id="paint0_linear_5427_41510" x1="152" y1="20" x2="152" y2="74" gradientUnits="userSpaceOnUse">
<stop stop-color="#F6F6F6"/>
<stop offset="1" stop-color="#E6E6E6"/>
</linearGradient>
<clipPath id="clip0_5427_41510">
<rect x="58" y="26" width="42.3457" height="42.3457" rx="12.0988" fill="white"/>
</clipPath>
</defs>
</svg>
