<svg width="26" height="26" viewBox="0 0 26 26" fill="none" xmlns="http://www.w3.org/2000/svg">
<path d="M4.33892 23.5614C4.03841 23.56 3.7425 23.4875 3.47532 23.3499C3.20814 23.2124 2.97727 23.0136 2.80152 22.7698C2.62577 22.5261 2.51013 22.2442 2.46404 21.9473C2.41794 21.6503 2.44268 21.3466 2.53625 21.0611L3.44734 18.3527C3.55452 18.0502 3.54408 17.7184 3.41809 17.4232C2.37433 15.1677 2.15759 12.6168 2.80585 10.2175C3.4541 7.81822 4.92601 5.72357 6.96365 4.30059C9.00129 2.87762 11.4747 2.21708 13.9505 2.43472C16.4263 2.65236 18.7465 3.7343 20.5046 5.49095C22.2628 7.24761 23.3466 9.56693 23.5664 12.0425C23.7861 14.5181 23.1276 16.9921 21.7063 19.0309C20.2851 21.0698 18.1917 22.5434 15.7929 23.1937C13.3942 23.844 10.8431 23.6294 8.58667 22.5875C8.28578 22.4579 7.94681 22.4478 7.63875 22.5593L4.94234 23.465C4.74764 23.5292 4.54392 23.5617 4.33892 23.5614ZM13.0056 4.06141C11.5062 4.05838 10.0303 4.43324 8.71407 5.15139C7.39787 5.86953 6.28388 6.90778 5.47499 8.17024C4.6661 9.4327 4.1884 10.8786 4.08603 12.3745C3.98365 13.8704 4.2599 15.3679 4.88925 16.7288C5.19125 17.3992 5.22765 18.1592 4.99109 18.8554L4.07784 21.5767C4.06126 21.6245 4.059 21.6761 4.07131 21.7252C4.08363 21.7743 4.10999 21.8187 4.14717 21.853C4.18198 21.8901 4.22676 21.9164 4.27615 21.9287C4.32554 21.941 4.37743 21.9388 4.42559 21.9223L7.13392 21.0134C7.83637 20.7718 8.60465 20.8083 9.28109 21.1152C10.4947 21.672 11.8177 21.9496 13.1527 21.9276C14.4878 21.9057 15.8009 21.5847 16.9956 20.9884C18.1902 20.392 19.236 19.5355 20.056 18.4817C20.876 17.4279 21.4493 16.2037 21.7338 14.8992C22.0184 13.5946 22.0068 12.2429 21.7001 10.9434C21.3933 9.64385 20.7992 8.42963 19.9613 7.39001C19.1234 6.35039 18.0632 5.51182 16.8585 4.93597C15.6538 4.36012 14.3354 4.06164 13.0002 4.06249L13.0056 4.06141ZM18.146 10.8333C18.146 10.6178 18.0604 10.4112 17.908 10.2588C17.7557 10.1064 17.549 10.0208 17.3335 10.0208H8.66684C8.45135 10.0208 8.24469 10.1064 8.09231 10.2588C7.93994 10.4112 7.85434 10.6178 7.85434 10.8333C7.85434 11.0488 7.93994 11.2555 8.09231 11.4078C8.24469 11.5602 8.45135 11.6458 8.66684 11.6458H17.3335C17.549 11.6458 17.7557 11.5602 17.908 11.4078C18.0604 11.2555 18.146 11.0488 18.146 10.8333ZM14.896 15.1667C14.896 14.9512 14.8104 14.7445 14.658 14.5921C14.5057 14.4398 14.299 14.3542 14.0835 14.3542H8.66684C8.45135 14.3542 8.24469 14.4398 8.09231 14.5921C7.93994 14.7445 7.85434 14.9512 7.85434 15.1667C7.85434 15.3821 7.93994 15.5888 8.09231 15.7412C8.24469 15.8936 8.45135 15.9792 8.66684 15.9792H14.0835C14.299 15.9792 14.5057 15.8936 14.658 15.7412C14.8104 15.5888 14.896 15.3821 14.896 15.1667Z" fill="#1B1A1F" stroke="#C7FFE1" stroke-width="0.2"/>
</svg>
