<svg width="323" height="152" viewBox="0 0 323 152" fill="none" xmlns="http://www.w3.org/2000/svg">
<g filter="url(#filter0_dddddd_5427_41489)">
<rect x="47" y="100.424" width="225.442" height="54" rx="18.1482" transform="rotate(-22.2689 47 100.424)" fill="#F1F1F1" fill-opacity="0.1" shape-rendering="crispEdges"/>
<rect x="48.4795" y="101.044" width="223.173" height="51.7315" rx="17.0139" transform="rotate(-22.2689 48.4795 101.044)" stroke="url(#paint0_linear_5427_41489)" stroke-opacity="0.1" stroke-width="2.26852" shape-rendering="crispEdges"/>
</g>
<path d="M122.73 105.172C121.916 105.506 121.104 105.691 120.295 105.729C119.491 105.764 118.729 105.655 118.009 105.403C117.289 105.15 116.645 104.754 116.078 104.214C115.509 103.668 115.056 102.984 114.719 102.16C114.381 101.335 114.217 100.533 114.225 99.751C114.239 98.9675 114.405 98.2337 114.724 97.5497C115.043 96.8657 115.495 96.2574 116.078 95.7247C116.658 95.1872 117.351 94.7536 118.156 94.4242C118.526 94.2726 118.918 94.1466 119.332 94.0462C119.746 93.9457 120.174 93.8858 120.616 93.8663C121.062 93.8449 121.513 93.8823 121.967 93.9786L121.761 95.818C121.294 95.7327 120.825 95.7202 120.354 95.7805C119.881 95.8358 119.415 95.9575 118.956 96.1454C118.378 96.3819 117.892 96.679 117.497 97.0368C117.101 97.3946 116.807 97.8006 116.612 98.2548C116.416 98.7041 116.324 99.1911 116.337 99.7159C116.349 100.236 116.47 100.78 116.703 101.347C117.028 102.142 117.472 102.747 118.034 103.162C118.601 103.575 119.237 103.805 119.941 103.851C120.649 103.89 121.382 103.753 122.142 103.442C122.493 103.299 122.8 103.135 123.065 102.952C123.328 102.763 123.539 102.588 123.697 102.425L122.763 100.145L120.49 101.076L119.848 99.5061L123.831 97.875L125.874 102.865C125.66 103.16 125.374 103.459 125.014 103.762C124.659 104.063 124.276 104.338 123.865 104.587C123.459 104.834 123.08 105.029 122.73 105.172ZM128.102 102.713L123.736 92.0525L125.632 91.2764L129.997 101.937L128.102 102.713ZM134.847 100.211C134.181 100.483 133.573 100.577 133.025 100.49C132.481 100.401 132.013 100.178 131.618 99.821C131.222 99.4587 130.911 99.0012 130.685 98.4484L128.778 93.7918L130.673 93.0157L132.447 97.3466C132.641 97.8204 132.932 98.1449 133.321 98.32C133.707 98.4901 134.147 98.4742 134.641 98.2721C134.957 98.1427 135.211 97.9549 135.404 97.7087C135.595 97.4576 135.71 97.1744 135.748 96.8591C135.786 96.5439 135.735 96.216 135.596 95.8754L133.886 91.6999L135.781 90.9238L138.813 98.3272L137.14 99.0123L136.794 98.1683C136.654 98.6003 136.43 98.9948 136.12 99.3519C135.814 99.702 135.39 99.9883 134.847 100.211ZM143.949 96.4833C143.189 96.7945 142.498 96.8239 141.876 96.5715C141.254 96.3191 140.763 95.7536 140.403 94.8751L137.475 87.7235L139.37 86.9474L140.249 89.0943L142.196 88.297L142.827 89.8369L140.88 90.6342L142.144 93.7214C142.338 94.1952 142.569 94.4924 142.837 94.6131C143.104 94.7287 143.402 94.7189 143.733 94.5835C143.901 94.5147 144.051 94.4303 144.183 94.3302C144.319 94.2281 144.439 94.1187 144.541 94.0019L145.455 95.391C145.285 95.5934 145.07 95.7937 144.811 95.9919C144.552 96.1902 144.265 96.3539 143.949 96.4833ZM137.422 92.05L136.792 90.5101L138.568 89.7825L139.199 91.3224L137.422 92.05ZM150.332 93.8694C149.528 94.1989 148.755 94.325 148.015 94.2479C147.272 94.1658 146.61 93.9008 146.029 93.4529C145.453 93.003 145.005 92.3882 144.686 91.6084C144.452 91.0358 144.333 90.4708 144.329 89.9132C144.331 89.3536 144.437 88.8259 144.649 88.3299C144.864 87.827 145.171 87.3813 145.571 86.9928C145.976 86.6022 146.465 86.2897 147.037 86.0553C147.659 85.8006 148.26 85.6843 148.839 85.7063C149.417 85.7234 149.948 85.8661 150.432 86.1345C150.92 86.396 151.337 86.767 151.683 87.2474C152.033 87.721 152.287 88.2914 152.445 88.9586L146.655 91.3293C146.81 91.7213 147.041 92.0244 147.348 92.2388C147.659 92.4512 148.025 92.5695 148.444 92.5939C148.866 92.6112 149.316 92.5219 149.795 92.3258C150.22 92.152 150.601 91.9236 150.941 91.6405C151.28 91.3575 151.568 91.0263 151.805 90.647L153.014 91.6994C152.859 91.9819 152.637 92.263 152.348 92.5427C152.059 92.8224 151.737 93.078 151.382 93.3097C151.033 93.5394 150.683 93.726 150.332 93.8694ZM146.215 89.9365L150.057 88.363C149.838 87.8706 149.513 87.5484 149.082 87.3964C148.649 87.2395 148.148 87.2773 147.581 87.5097C147.018 87.7401 146.613 88.0732 146.365 88.509C146.115 88.9399 146.065 89.4157 146.215 89.9365ZM155.099 91.658L152.068 84.2547L153.963 83.4786L154.327 84.367C154.463 83.8558 154.693 83.433 155.017 83.0985C155.345 82.7572 155.725 82.4975 156.16 82.3197C156.841 82.0408 157.459 81.9461 158.014 82.0357C158.575 82.1232 159.05 82.3347 159.441 82.6702C159.832 83.0058 160.123 83.4055 160.313 83.8695L162.295 88.7112L160.4 89.4873L158.66 85.2378C158.454 84.7344 158.144 84.3942 157.732 84.2173C157.319 84.0405 156.852 84.0591 156.328 84.2734C155.988 84.4128 155.716 84.6136 155.512 84.8758C155.311 85.1309 155.192 85.4246 155.155 85.7567C155.118 86.0888 155.172 86.4325 155.318 86.7878L156.994 90.8819L155.099 91.658ZM168.065 86.3487L164.611 77.9163C164.302 77.1612 164.277 76.4741 164.537 75.8549C164.801 75.2338 165.331 74.7605 166.125 74.4351C166.402 74.3219 166.67 74.2464 166.931 74.2086C167.196 74.1639 167.459 74.1538 167.723 74.1784L168.008 75.782C167.833 75.7617 167.672 75.764 167.527 75.7889C167.381 75.8139 167.247 75.8516 167.124 75.9022C166.832 76.0214 166.627 76.189 166.508 76.4049C166.389 76.6208 166.398 76.8965 166.536 77.2321L166.921 78.1723L168.816 77.3962L169.447 78.9361L167.551 79.7122L169.952 85.5757L168.065 86.3487ZM164.242 81.0674L163.611 79.5275L165.248 78.8575L165.878 80.3974L164.242 81.0674ZM172.979 84.3361L169.948 76.9328L171.843 76.1567L172.24 77.1265C172.319 76.5871 172.513 76.1473 172.824 75.807C173.139 75.4647 173.521 75.2016 173.97 75.0177C174.128 74.953 174.277 74.9008 174.416 74.861C174.555 74.8213 174.693 74.7909 174.828 74.77L175.392 76.8215C175.216 76.8299 175.04 76.8561 174.862 76.9001C174.687 76.9372 174.518 76.9891 174.355 77.0558C173.822 77.2741 173.448 77.6143 173.234 78.0766C173.018 78.534 173.027 79.0489 173.262 79.6214L174.875 83.56L172.979 84.3361ZM182.297 80.7801C181.492 81.1096 180.72 81.2357 179.979 81.1586C179.237 81.0765 178.575 80.8115 177.994 80.3636C177.418 79.9137 176.97 79.2989 176.651 78.519C176.416 77.9465 176.297 77.3815 176.294 76.8239C176.295 76.2643 176.402 75.7365 176.613 75.2406C176.828 74.7377 177.136 74.292 177.535 73.9034C177.94 73.5129 178.429 73.2004 179.002 72.9659C179.623 72.7113 180.224 72.595 180.804 72.617C181.381 72.6341 181.912 72.7768 182.397 73.0452C182.884 73.3067 183.301 73.6776 183.648 74.1581C183.997 74.6317 184.251 75.202 184.409 75.8693L178.62 78.24C178.774 78.6319 179.005 78.9351 179.312 79.1495C179.624 79.3619 179.989 79.4802 180.408 79.5045C180.83 79.5219 181.281 79.4325 181.759 79.2365C182.184 79.0627 182.566 78.8342 182.905 78.5512C183.245 78.2681 183.533 77.937 183.769 77.5577L184.978 78.61C184.823 78.8926 184.601 79.1737 184.312 79.4534C184.023 79.733 183.701 79.9887 183.347 80.2204C182.997 80.45 182.647 80.6366 182.297 80.7801ZM178.179 76.8471L182.021 75.2737C181.802 74.7813 181.477 74.4591 181.046 74.3071C180.613 74.1502 180.113 74.188 179.545 74.4204C178.983 74.6508 178.577 74.9839 178.329 75.4197C178.079 75.8506 178.029 76.3264 178.179 76.8471ZM190.647 77.3605C189.843 77.69 189.07 77.8161 188.33 77.739C187.587 77.6569 186.926 77.3919 186.344 76.944C185.768 76.4941 185.321 75.8793 185.001 75.0994C184.767 74.5269 184.648 73.9619 184.644 73.4043C184.646 72.8447 184.752 72.3169 184.964 71.821C185.179 71.3181 185.486 70.8724 185.886 70.4839C186.291 70.0933 186.78 69.7808 187.352 69.5464C187.974 69.2917 188.575 69.1754 189.154 69.1974C189.732 69.2145 190.263 69.3572 190.748 69.6256C191.235 69.8871 191.652 70.258 191.999 70.7385C192.348 71.2121 192.602 71.7825 192.76 72.4497L186.97 74.8204C187.125 75.2124 187.356 75.5155 187.663 75.7299C187.974 75.9423 188.34 76.0606 188.759 76.0849C189.181 76.1023 189.631 76.013 190.11 75.8169C190.535 75.6431 190.917 75.4147 191.256 75.1316C191.595 74.8485 191.883 74.5174 192.12 74.1381L193.329 75.1905C193.174 75.473 192.952 75.7541 192.663 76.0338C192.374 76.3134 192.052 76.5691 191.697 76.8008C191.348 77.0305 190.998 77.217 190.647 77.3605ZM186.53 73.4275L190.372 71.8541C190.153 71.3617 189.828 71.0395 189.397 70.8875C188.964 70.7306 188.464 70.7684 187.896 71.0008C187.333 71.2312 186.928 71.5643 186.68 72.0001C186.43 72.431 186.38 72.9068 186.53 73.4275ZM203.171 72.232C202.688 72.4301 202.221 72.5374 201.773 72.5539C201.324 72.5704 200.905 72.5115 200.516 72.377C200.127 72.2425 199.783 72.0432 199.485 71.7793L199.578 71.2481L200.348 73.1286L198.675 73.8137L194.31 63.1529L196.198 62.3799L198.226 67.3327L197.643 67.07C197.783 66.4707 198.04 65.9422 198.411 65.4846C198.786 65.02 199.291 64.6573 199.928 64.3966C200.659 64.0975 201.377 64.0079 202.083 64.128C202.787 64.243 203.419 64.5345 203.98 65.0024C204.538 65.4653 204.967 66.062 205.266 66.7924C205.499 67.36 205.622 67.923 205.638 68.4815C205.651 69.035 205.564 69.5547 205.377 70.0405C205.19 70.5264 204.909 70.9585 204.534 71.3369C204.163 71.7133 203.709 72.0117 203.171 72.232ZM202.144 70.7161C202.559 70.5464 202.892 70.3035 203.143 69.9875C203.396 69.6645 203.548 69.2968 203.599 68.8844C203.647 68.467 203.576 68.0264 203.386 67.5625C203.196 67.0985 202.937 66.7347 202.61 66.4709C202.283 66.2072 201.919 66.0507 201.519 66.0015C201.118 65.9522 200.708 66.0135 200.289 66.1853C199.869 66.3571 199.532 66.602 199.276 66.92C199.025 67.236 198.875 67.6027 198.827 68.0201C198.784 68.4354 198.857 68.8751 199.047 69.339C199.237 69.8029 199.496 70.1668 199.823 70.4305C200.148 70.6893 200.512 70.8458 200.914 70.9C201.315 70.9492 201.725 70.8879 202.144 70.7161ZM208.053 69.9737L205.021 62.5704L206.916 61.7943L207.313 62.7641C207.392 62.2247 207.587 61.7849 207.897 61.4446C208.212 61.1023 208.594 60.8392 209.043 60.6553C209.201 60.5906 209.35 60.5384 209.489 60.4987C209.628 60.4589 209.766 60.4286 209.901 60.4076L210.465 62.4591C210.29 62.4675 210.113 62.4937 209.935 62.5377C209.76 62.5748 209.591 62.6267 209.428 62.6934C208.895 62.9117 208.522 63.252 208.308 63.7143C208.091 64.1716 208.101 64.6865 208.335 65.2591L209.948 69.1976L208.053 69.9737ZM216.152 66.9164C215.649 67.1225 215.163 67.2092 214.694 67.1764C214.225 67.1435 213.808 66.9974 213.442 66.7379C213.075 66.4735 212.792 66.0995 212.594 65.6158C212.424 65.2012 212.376 64.7886 212.45 64.3779C212.524 63.9673 212.732 63.568 213.075 63.1799C213.415 62.7869 213.903 62.417 214.539 62.0701C215.18 61.7212 215.979 61.4057 216.935 61.1235L217.477 62.3625C216.837 62.5153 216.294 62.6886 215.849 62.8824C215.404 63.0762 215.052 63.2806 214.795 63.4957C214.542 63.7087 214.375 63.927 214.293 64.1505C214.217 64.3719 214.223 64.5913 214.312 64.8084C214.445 65.1342 214.667 65.3374 214.977 65.4181C215.284 65.4938 215.643 65.4478 216.053 65.28C216.403 65.1365 216.69 64.944 216.914 64.7025C217.143 64.459 217.291 64.1879 217.359 63.8892C217.425 63.5856 217.392 63.2734 217.261 62.9526L216.494 61.0796C216.366 60.7686 216.19 60.5269 215.963 60.3545C215.74 60.175 215.47 60.0782 215.153 60.064C214.834 60.0448 214.464 60.1211 214.045 60.2929C213.66 60.4505 213.302 60.6664 212.97 60.9405C212.642 61.2076 212.361 61.5298 212.13 61.907L211.064 60.7614C211.406 60.2584 211.808 59.8342 212.272 59.4888C212.736 59.1433 213.209 58.8715 213.693 58.6735C214.384 58.3905 215.026 58.2545 215.618 58.2655C216.215 58.2745 216.742 58.448 217.197 58.786C217.655 59.117 218.025 59.6255 218.306 60.3116L220.222 64.9905L218.549 65.6756L218.203 64.8317C218.096 65.2733 217.863 65.6768 217.506 66.0422C217.146 66.4026 216.695 66.694 216.152 66.9164ZM222.021 64.2537L218.99 56.8503L220.885 56.0742L221.249 56.9626C221.385 56.4515 221.615 56.0287 221.939 55.6942C222.266 55.3528 222.647 55.0932 223.081 54.9154C223.763 54.6364 224.381 54.5418 224.936 54.6313C225.496 54.7189 225.972 54.9304 226.363 55.2659C226.754 55.6015 227.045 56.0012 227.235 56.4651L229.217 61.3069L227.322 62.083L225.582 57.8335C225.376 57.3301 225.066 56.9899 224.654 56.813C224.241 56.6361 223.774 56.6548 223.25 56.869C222.91 57.0085 222.638 57.2093 222.434 57.4714C222.233 57.7266 222.114 58.0203 222.077 58.3523C222.04 58.6844 222.094 59.0282 222.24 59.3835L223.916 63.4776L222.021 64.2537ZM234.208 59.5226C233.487 59.8177 232.779 59.9116 232.084 59.8044C231.389 59.6972 230.762 59.4121 230.204 58.9492C229.645 58.4863 229.211 57.8748 228.899 57.1147C228.675 56.5668 228.555 56.0196 228.538 55.4731C228.525 54.9195 228.611 54.3974 228.796 53.9066C228.984 53.4089 229.265 52.9683 229.638 52.585C230.009 52.1967 230.471 51.8893 231.024 51.663C231.661 51.4023 232.271 51.3022 232.855 51.3628C233.436 51.4185 233.99 51.6096 234.516 51.9361L234.277 52.5352L232.261 47.612L234.156 46.8359L238.522 57.4967L236.849 58.1819L236.1 56.3532L236.542 56.6735C236.483 57.2454 236.266 57.7865 235.893 58.2966C235.52 58.8068 234.958 59.2154 234.208 59.5226ZM233.877 57.7218C234.291 57.552 234.624 57.3091 234.875 56.9931C235.129 56.6702 235.281 56.3025 235.331 55.8901C235.379 55.4727 235.308 55.0321 235.118 54.5681C234.928 54.1042 234.67 53.7403 234.343 53.4766C234.016 53.2128 233.652 53.0563 233.251 53.0071C232.851 52.9579 232.441 53.0192 232.021 53.191C231.602 53.3628 231.264 53.6077 231.008 53.9257C230.757 54.2417 230.608 54.6084 230.56 55.0257C230.516 55.4411 230.59 55.8807 230.78 56.3446C230.97 56.8086 231.228 57.1724 231.555 57.4362C231.88 57.695 232.244 57.8515 232.647 57.9056C233.047 57.9549 233.457 57.8936 233.877 57.7218ZM243.093 55.8753C242.457 56.136 241.829 56.2922 241.211 56.3438C240.597 56.3934 240.038 56.3454 239.535 56.2L239.642 54.5828C240.115 54.6948 240.602 54.7374 241.104 54.7105C241.606 54.6836 242.066 54.5843 242.486 54.4125C242.93 54.2306 243.245 54.0151 243.431 53.766C243.617 53.5168 243.656 53.259 243.547 52.9925C243.444 52.7408 243.259 52.6002 242.994 52.5706C242.728 52.5411 242.268 52.5855 241.613 52.7037C240.579 52.9083 239.77 52.9169 239.186 52.7295C238.6 52.5372 238.175 52.1177 237.91 51.4712C237.722 51.0122 237.682 50.5559 237.79 50.1024C237.903 49.6469 238.143 49.2319 238.508 48.8576C238.876 48.4762 239.352 48.1663 239.934 47.9278C240.502 47.6954 241.07 47.5551 241.638 47.5069C242.211 47.4566 242.738 47.4999 243.221 47.6366L243.146 49.2491C242.887 49.165 242.61 49.1143 242.315 49.0969C242.019 49.0795 241.72 49.0953 241.418 49.1443C241.12 49.1913 240.838 49.2694 240.571 49.3785C240.181 49.5382 239.894 49.7366 239.709 49.9739C239.528 50.2091 239.49 50.4525 239.593 50.7042C239.696 50.956 239.884 51.098 240.156 51.1305C240.427 51.158 240.881 51.1191 241.518 51.0139C242.592 50.8219 243.413 50.8142 243.981 50.9908C244.549 51.1674 244.962 51.5716 245.221 52.2034C245.419 52.687 245.461 53.1626 245.347 53.63C245.231 54.0925 244.98 54.5209 244.594 54.9153C244.21 55.3027 243.71 55.6227 243.093 55.8753Z" fill="white"/>
<g clip-path="url(#clip0_5427_41489)">
<rect x="54.8926" y="103.682" width="42" height="42" rx="12.0988" transform="rotate(-22.2689 54.8926 103.682)" fill="#1DD673" fill-opacity="0.05"/>
<path d="M70.7055 119.085C73.3217 125.473 80.6216 128.532 87.0102 125.915C93.3988 123.299 96.4569 115.999 93.8407 109.611C91.2244 103.222 83.9245 100.164 77.5359 102.78C71.1473 105.396 68.0892 112.696 70.7055 119.085ZM73.5229 109.752C75.6492 105.727 80.2378 103.652 84.6693 104.751C89.9373 106.058 93.2247 111.474 91.8491 116.763C91.8225 116.865 91.6742 117.402 91.6167 117.425L87.5802 115.785C87.2393 115.678 86.9115 116.457 86.8715 116.697C86.8316 116.937 86.9525 117.113 87.1605 117.216L91.0137 118.863C91.0323 118.901 91.0181 118.933 91.0077 118.97C90.9801 119.074 90.5815 119.7 90.4916 119.835C88.1279 123.408 83.6198 125.046 79.5155 123.849C74.5613 122.404 71.5539 117.419 72.6009 112.34C72.6334 112.184 72.8367 111.28 72.9302 111.26L77.3267 113.073C77.7499 113.215 78.052 112.553 78.1081 112.233C78.1382 112.063 78.0695 111.831 77.9292 111.721L73.6344 109.93L73.5232 109.753L73.5229 109.752Z" fill="white"/>
<path d="M81.2972 112.757C81.2717 112.832 80.5337 112.487 80.4302 112.46C79.8145 112.303 78.9993 112.373 78.456 112.695L78.4563 112.775C79.0017 114.229 80.5554 114.991 82.0454 114.584L82.473 115.628C82.2211 115.639 81.974 115.445 81.7324 115.374C81.4232 115.282 80.5658 115.19 80.2828 115.306L79.6087 115.582C79.9951 116.759 81.2268 117.639 82.4681 117.576C82.6147 117.569 83.2094 117.427 83.2483 117.522L83.6492 118.5C83.4817 118.561 83.334 118.381 83.1981 118.33C82.4528 118.05 81.4784 118.015 80.7938 118.459C81.3047 119.962 82.8805 120.728 84.3941 120.337L84.6141 120.802L85.129 120.617L84.9947 120.055C86.0291 119.505 86.6367 118.304 86.4855 117.148C86.4643 116.982 86.3237 116.206 86.1379 116.219C85.5097 116.458 85.0106 116.871 84.6308 117.416L84.2156 118.27L83.788 117.225C85.1688 116.463 85.7021 114.79 85.0488 113.356L84.3748 113.632C84.1945 113.706 83.6864 114.228 83.5561 114.407L83.0406 115.398L82.6219 114.376L82.6703 114.288C84.005 113.594 84.5316 111.82 83.8536 110.49C83.7611 110.43 83.28 110.716 83.1714 110.786C82.7195 111.075 82.3267 111.551 82.0921 112.029C82.022 112.171 82.0084 112.44 81.8648 112.527L81.5174 111.678C81.511 111.663 81.5982 111.441 81.6095 111.357C81.8245 109.866 81.1609 108.513 79.6927 108.03C79.0267 109.16 79.3919 110.72 80.3797 111.555C80.4789 111.638 80.9386 111.879 80.9514 111.91L81.2988 112.759L81.2972 112.757Z" fill="white"/>
<g filter="url(#filter2_f_5427_41489)">
<circle cx="98.5" cy="121.5" r="7.5" fill="#1DD573"/>
</g>
</g>
<rect x="55.8709" y="104.092" width="40.5" height="40.5" rx="11.3488" transform="rotate(-22.2689 55.8709 104.092)" stroke="#1DD673" stroke-width="1.5"/>
<path d="M241 28.585V28.585C247.184 26.0528 254.249 29.0129 256.781 35.1965V35.1965" stroke="#1DD673" stroke-width="2.26852" stroke-linecap="round"/>
<defs>
<filter id="filter0_dddddd_5427_41489" x="-5" y="-5.0083" width="333.091" height="239.405" filterUnits="userSpaceOnUse" color-interpolation-filters="sRGB">
<feFlood flood-opacity="0" result="BackgroundImageFix"/>
<feColorMatrix in="SourceAlpha" type="matrix" values="0 0 0 0 0 0 0 0 0 0 0 0 0 0 0 0 0 0 127 0" result="hardAlpha"/>
<feMorphology radius="4" operator="erode" in="SourceAlpha" result="effect1_dropShadow_5427_41489"/>
<feOffset dy="5"/>
<feGaussianBlur stdDeviation="0.75"/>
<feComposite in2="hardAlpha" operator="out"/>
<feColorMatrix type="matrix" values="0 0 0 0 0.0313726 0 0 0 0 0.0313726 0 0 0 0 0.0313726 0 0 0 0.05 0"/>
<feBlend mode="normal" in2="BackgroundImageFix" result="effect1_dropShadow_5427_41489"/>
<feColorMatrix in="SourceAlpha" type="matrix" values="0 0 0 0 0 0 0 0 0 0 0 0 0 0 0 0 0 0 127 0" result="hardAlpha"/>
<feMorphology radius="4" operator="erode" in="SourceAlpha" result="effect2_dropShadow_5427_41489"/>
<feOffset dy="6"/>
<feGaussianBlur stdDeviation="2"/>
<feComposite in2="hardAlpha" operator="out"/>
<feColorMatrix type="matrix" values="0 0 0 0 0.0313726 0 0 0 0 0.0313726 0 0 0 0 0.0313726 0 0 0 0.05 0"/>
<feBlend mode="normal" in2="effect1_dropShadow_5427_41489" result="effect2_dropShadow_5427_41489"/>
<feColorMatrix in="SourceAlpha" type="matrix" values="0 0 0 0 0 0 0 0 0 0 0 0 0 0 0 0 0 0 127 0" result="hardAlpha"/>
<feOffset dy="6"/>
<feGaussianBlur stdDeviation="6.5"/>
<feComposite in2="hardAlpha" operator="out"/>
<feColorMatrix type="matrix" values="0 0 0 0 0.0313726 0 0 0 0 0.0313726 0 0 0 0 0.0313726 0 0 0 0.03 0"/>
<feBlend mode="normal" in2="effect2_dropShadow_5427_41489" result="effect3_dropShadow_5427_41489"/>
<feColorMatrix in="SourceAlpha" type="matrix" values="0 0 0 0 0 0 0 0 0 0 0 0 0 0 0 0 0 0 127 0" result="hardAlpha"/>
<feMorphology radius="16" operator="erode" in="SourceAlpha" result="effect4_dropShadow_5427_41489"/>
<feOffset dy="24"/>
<feGaussianBlur stdDeviation="12"/>
<feComposite in2="hardAlpha" operator="out"/>
<feColorMatrix type="matrix" values="0 0 0 0 0.0313726 0 0 0 0 0.0313726 0 0 0 0 0.0313726 0 0 0 0.04 0"/>
<feBlend mode="normal" in2="effect3_dropShadow_5427_41489" result="effect4_dropShadow_5427_41489"/>
<feColorMatrix in="SourceAlpha" type="matrix" values="0 0 0 0 0 0 0 0 0 0 0 0 0 0 0 0 0 0 127 0" result="hardAlpha"/>
<feMorphology radius="2" operator="erode" in="SourceAlpha" result="effect5_dropShadow_5427_41489"/>
<feOffset dy="2.15"/>
<feGaussianBlur stdDeviation="0.25"/>
<feComposite in2="hardAlpha" operator="out"/>
<feColorMatrix type="matrix" values="0 0 0 0 0 0 0 0 0 0 0 0 0 0 0 0 0 0 0.25 0"/>
<feBlend mode="normal" in2="effect4_dropShadow_5427_41489" result="effect5_dropShadow_5427_41489"/>
<feColorMatrix in="SourceAlpha" type="matrix" values="0 0 0 0 0 0 0 0 0 0 0 0 0 0 0 0 0 0 127 0" result="hardAlpha"/>
<feMorphology radius="12" operator="erode" in="SourceAlpha" result="effect6_dropShadow_5427_41489"/>
<feOffset dy="32"/>
<feGaussianBlur stdDeviation="32"/>
<feComposite in2="hardAlpha" operator="out"/>
<feColorMatrix type="matrix" values="0 0 0 0 0 0 0 0 0 0 0 0 0 0 0 0 0 0 0.075 0"/>
<feBlend mode="multiply" in2="effect5_dropShadow_5427_41489" result="effect6_dropShadow_5427_41489"/>
<feBlend mode="normal" in="SourceGraphic" in2="effect6_dropShadow_5427_41489" result="shape"/>
</filter>
<filter id="filter2_f_5427_41489" x="61" y="84" width="75" height="75" filterUnits="userSpaceOnUse" color-interpolation-filters="sRGB">
<feFlood flood-opacity="0" result="BackgroundImageFix"/>
<feBlend mode="normal" in="SourceGraphic" in2="BackgroundImageFix" result="shape"/>
<feGaussianBlur stdDeviation="15" result="effect1_foregroundBlur_5427_41489"/>
</filter>
<linearGradient id="paint0_linear_5427_41489" x1="159.721" y1="100.424" x2="159.721" y2="154.424" gradientUnits="userSpaceOnUse">
<stop stop-color="#F6F6F6"/>
<stop offset="1" stop-color="#E6E6E6"/>
</linearGradient>
<clipPath id="clip0_5427_41489">
<rect x="54.8926" y="103.682" width="42" height="42" rx="12.0988" transform="rotate(-22.2689 54.8926 103.682)" fill="white"/>
</clipPath>
</defs>
</svg>
