<svg width="226" height="54" viewBox="0 0 226 54" fill="none" xmlns="http://www.w3.org/2000/svg">
<rect x="0.346191" width="225.442" height="54" rx="18.1482" fill="#F1F1F1" fill-opacity="0.1"/>
<rect x="1.48045" y="1.13426" width="223.173" height="51.7315" rx="17.0139" stroke="url(#paint0_linear_6163_189)" stroke-opacity="0.1" stroke-width="2.26852"/>
<path d="M68.6282 33.0925C67.7482 33.0925 66.9269 32.9565 66.1642 32.6845C65.4069 32.4125 64.7429 32.0232 64.1722 31.5165C63.6016 31.0099 63.1562 30.3992 62.8362 29.6845C62.5162 28.9645 62.3562 28.1592 62.3562 27.2685C62.3562 26.3779 62.5082 25.5725 62.8122 24.8525C63.1216 24.1325 63.5536 23.5165 64.1082 23.0045C64.6629 22.4925 65.3109 22.1005 66.0522 21.8285C66.7936 21.5512 67.5989 21.4125 68.4682 21.4125C68.8682 21.4125 69.2789 21.4445 69.7002 21.5085C70.1216 21.5725 70.5402 21.6792 70.9562 21.8285C71.3776 21.9779 71.7802 22.1832 72.1642 22.4445L71.2762 24.0685C70.8762 23.8125 70.4469 23.6232 69.9882 23.5005C69.5296 23.3725 69.0522 23.3085 68.5562 23.3085C67.9322 23.3085 67.3696 23.3992 66.8682 23.5805C66.3669 23.7619 65.9402 24.0259 65.5882 24.3725C65.2362 24.7139 64.9669 25.1299 64.7802 25.6205C64.5936 26.1059 64.5002 26.6552 64.5002 27.2685C64.5002 28.1272 64.6816 28.8552 65.0442 29.4525C65.4122 30.0499 65.9136 30.5032 66.5482 30.8125C67.1882 31.1165 67.9189 31.2685 68.7402 31.2685C69.1189 31.2685 69.4656 31.2339 69.7802 31.1645C70.0949 31.0899 70.3562 31.0072 70.5642 30.9165V28.4525H68.1082V26.7565H72.4122V32.1485C72.1029 32.3405 71.7242 32.5085 71.2762 32.6525C70.8336 32.7965 70.3749 32.9059 69.9002 32.9805C69.4309 33.0552 69.0069 33.0925 68.6282 33.0925ZM74.5315 32.8525V21.3325H76.5795V32.8525H74.5315ZM81.7217 33.0925C81.0017 33.0925 80.4044 32.9485 79.9297 32.6605C79.4604 32.3725 79.1111 31.9885 78.8817 31.5085C78.6524 31.0232 78.5377 30.4819 78.5377 29.8845V24.8525H80.5857V29.5325C80.5857 30.0445 80.7324 30.4552 81.0257 30.7645C81.3191 31.0685 81.7324 31.2205 82.2657 31.2205C82.6071 31.2205 82.9137 31.1432 83.1857 30.9885C83.4577 30.8285 83.6711 30.6099 83.8257 30.3325C83.9804 30.0552 84.0577 29.7325 84.0577 29.3645V24.8525H86.1057V32.8525H84.2977V31.9405C84.0044 32.2872 83.6471 32.5672 83.2257 32.7805C82.8097 32.9885 82.3084 33.0925 81.7217 33.0925ZM91.5575 33.0925C90.7361 33.0925 90.0855 32.8579 89.6055 32.3885C89.1255 31.9192 88.8855 31.2099 88.8855 30.2605V22.5325H90.9335V24.8525H93.0375V26.5165H90.9335V29.8525C90.9335 30.3645 91.0348 30.7272 91.2375 30.9405C91.4401 31.1485 91.7201 31.2525 92.0775 31.2525C92.2588 31.2525 92.4295 31.2312 92.5895 31.1885C92.7548 31.1459 92.9068 31.0899 93.0455 31.0205L93.3655 32.6525C93.1308 32.7752 92.8561 32.8792 92.5415 32.9645C92.2268 33.0499 91.8988 33.0925 91.5575 33.0925ZM87.1975 26.5165V24.8525H89.1175V26.5165H87.1975ZM98.455 33.0925C97.5856 33.0925 96.823 32.9165 96.167 32.5645C95.511 32.2072 94.999 31.7112 94.631 31.0765C94.2683 30.4419 94.087 29.7032 94.087 28.8605C94.087 28.2419 94.191 27.6739 94.399 27.1565C94.6123 26.6392 94.911 26.1912 95.295 25.8125C95.6843 25.4285 96.1376 25.1325 96.655 24.9245C97.1776 24.7165 97.7483 24.6125 98.367 24.6125C99.039 24.6125 99.639 24.7325 100.167 24.9725C100.695 25.2072 101.132 25.5405 101.479 25.9725C101.831 26.3992 102.076 26.9005 102.215 27.4765C102.359 28.0472 102.378 28.6712 102.271 29.3485L96.015 29.3485C96.0096 29.7699 96.1083 30.1379 96.311 30.4525C96.519 30.7672 96.8123 31.0152 97.191 31.1965C97.575 31.3725 98.0256 31.4605 98.543 31.4605C99.0016 31.4605 99.4416 31.3939 99.863 31.2605C100.284 31.1272 100.676 30.9299 101.039 30.6685L101.759 32.1005C101.508 32.3032 101.196 32.4792 100.823 32.6285C100.45 32.7779 100.055 32.8925 99.639 32.9725C99.2283 33.0525 98.8336 33.0925 98.455 33.0925ZM96.135 27.8925H100.287C100.271 27.3539 100.092 26.9325 99.751 26.6285C99.4096 26.3192 98.9323 26.1645 98.319 26.1645C97.711 26.1645 97.2096 26.3192 96.815 26.6285C96.4203 26.9325 96.1936 27.3539 96.135 27.8925ZM103.705 32.8525V24.8525H105.753V25.8125C106.073 25.3912 106.446 25.0872 106.873 24.9005C107.305 24.7085 107.755 24.6125 108.225 24.6125C108.961 24.6125 109.569 24.7592 110.049 25.0525C110.534 25.3459 110.894 25.7219 111.129 26.1805C111.363 26.6392 111.481 27.1192 111.481 27.6205V32.8525H109.433V28.2605C109.433 27.7165 109.275 27.2845 108.961 26.9645C108.646 26.6445 108.206 26.4845 107.641 26.4845C107.273 26.4845 106.945 26.5672 106.657 26.7325C106.374 26.8925 106.153 27.1192 105.993 27.4125C105.833 27.7059 105.753 28.0445 105.753 28.4285V32.8525H103.705ZM117.715 32.8525V23.7405C117.715 22.9245 117.952 22.2792 118.427 21.8045C118.907 21.3299 119.576 21.0925 120.435 21.0925C120.734 21.0925 121.011 21.1245 121.267 21.1885C121.528 21.2472 121.776 21.3379 122.011 21.4605L121.667 23.0525C121.512 22.9672 121.363 22.9085 121.219 22.8765C121.075 22.8445 120.936 22.8285 120.803 22.8285C120.488 22.8285 120.235 22.9059 120.043 23.0605C119.851 23.2152 119.755 23.4739 119.755 23.8365V24.8525H121.803V26.5165H119.755V32.8525H117.715ZM116.179 26.5165V24.8525H117.947V26.5165H116.179ZM123.026 32.8525V24.8525H125.074V25.9005C125.351 25.4312 125.698 25.0979 126.114 24.9005C126.535 24.7032 126.989 24.6045 127.474 24.6045C127.645 24.6045 127.802 24.6125 127.946 24.6285C128.09 24.6445 128.229 24.6685 128.362 24.7005L128.106 26.8125C127.941 26.7539 127.767 26.7112 127.586 26.6845C127.41 26.6525 127.234 26.6365 127.058 26.6365C126.482 26.6365 126.007 26.8099 125.634 27.1565C125.261 27.4979 125.074 27.9779 125.074 28.5965V32.8525H123.026ZM132.996 33.0925C132.126 33.0925 131.364 32.9165 130.708 32.5645C130.052 32.2072 129.54 31.7112 129.172 31.0765C128.809 30.4419 128.628 29.7032 128.628 28.8605C128.628 28.2419 128.732 27.6739 128.94 27.1565C129.153 26.6392 129.452 26.1912 129.836 25.8125C130.225 25.4285 130.678 25.1325 131.196 24.9245C131.718 24.7165 132.289 24.6125 132.908 24.6125C133.58 24.6125 134.18 24.7325 134.708 24.9725C135.236 25.2072 135.673 25.5405 136.02 25.9725C136.372 26.3992 136.617 26.9005 136.756 27.4765C136.9 28.0472 136.918 28.6712 136.812 29.3485H130.556C130.55 29.7699 130.649 30.1379 130.852 30.4525C131.06 30.7672 131.353 31.0152 131.732 31.1965C132.116 31.3725 132.566 31.4605 133.084 31.4605C133.542 31.4605 133.982 31.3939 134.404 31.2605C134.825 31.1272 135.217 30.9299 135.58 30.6685L136.3 32.1005C136.049 32.3032 135.737 32.4792 135.364 32.6285C134.99 32.7779 134.596 32.8925 134.18 32.9725C133.769 33.0525 133.374 33.0925 132.996 33.0925ZM130.676 27.8925H134.828C134.812 27.3539 134.633 26.9325 134.292 26.6285C133.95 26.3192 133.473 26.1645 132.86 26.1645C132.252 26.1645 131.75 26.3192 131.356 26.6285C130.961 26.9325 130.734 27.3539 130.676 27.8925ZM142.019 33.0925C141.15 33.0925 140.387 32.9165 139.731 32.5645C139.075 32.2072 138.563 31.7112 138.195 31.0765C137.833 30.4419 137.651 29.7032 137.651 28.8605C137.651 28.2419 137.755 27.6739 137.963 27.1565C138.177 26.6392 138.475 26.1912 138.859 25.8125C139.249 25.4285 139.702 25.1325 140.219 24.9245C140.742 24.7165 141.313 24.6125 141.931 24.6125C142.603 24.6125 143.203 24.7325 143.731 24.9725C144.259 25.2072 144.697 25.5405 145.043 25.9725C145.395 26.3992 145.641 26.9005 145.779 27.4765C145.923 28.0472 145.942 28.6712 145.835 29.3485H139.579C139.574 29.7699 139.673 30.1379 139.875 30.4525C140.083 30.7672 140.377 31.0152 140.755 31.1965C141.139 31.3725 141.59 31.4605 142.107 31.4605C142.566 31.4605 143.006 31.3939 143.427 31.2605C143.849 31.1272 144.241 30.9299 144.603 30.6685L145.323 32.1005C145.073 32.3032 144.761 32.4792 144.387 32.6285C144.014 32.7779 143.619 32.8925 143.203 32.9725C142.793 33.0525 142.398 33.0925 142.019 33.0925ZM139.699 27.8925H143.851C143.835 27.3539 143.657 26.9325 143.315 26.6285C142.974 26.3192 142.497 26.1645 141.883 26.1645C141.275 26.1645 140.774 26.3192 140.379 26.6285C139.985 26.9325 139.758 27.3539 139.699 27.8925ZM155.553 33.0925C155.03 33.0925 154.558 33.0152 154.137 32.8605C153.715 32.7059 153.35 32.4925 153.041 32.2205C152.731 31.9485 152.489 31.6339 152.313 31.2765L152.601 30.8205V32.8525H150.793V21.3325H152.833V26.6845L152.393 26.2205C152.75 25.7192 153.187 25.3272 153.705 25.0445C154.227 24.7565 154.833 24.6125 155.521 24.6125C156.31 24.6125 157.009 24.8019 157.617 25.1805C158.225 25.5539 158.699 26.0632 159.041 26.7085C159.382 27.3485 159.553 28.0632 159.553 28.8525C159.553 29.4659 159.454 30.0339 159.257 30.5565C159.059 31.0739 158.782 31.5219 158.425 31.9005C158.067 32.2792 157.643 32.5725 157.153 32.7805C156.667 32.9885 156.134 33.0925 155.553 33.0925ZM155.177 31.3005C155.625 31.3005 156.025 31.2019 156.377 31.0045C156.734 30.8019 157.014 30.5192 157.217 30.1565C157.419 29.7885 157.521 29.3539 157.521 28.8525C157.521 28.3512 157.419 27.9165 157.217 27.5485C157.014 27.1805 156.737 26.8979 156.385 26.7005C156.033 26.5032 155.63 26.4045 155.177 26.4045C154.723 26.4045 154.318 26.5032 153.961 26.7005C153.609 26.8979 153.331 27.1805 153.129 27.5485C152.931 27.9165 152.833 28.3512 152.833 28.8525C152.833 29.3539 152.934 29.7885 153.137 30.1565C153.339 30.5192 153.617 30.8019 153.969 31.0045C154.321 31.2019 154.723 31.3005 155.177 31.3005ZM160.926 32.8525V24.8525H162.974V25.9005C163.251 25.4312 163.598 25.0979 164.014 24.9005C164.435 24.7032 164.889 24.6045 165.374 24.6045C165.545 24.6045 165.702 24.6125 165.846 24.6285C165.99 24.6445 166.129 24.6685 166.262 24.7005L166.006 26.8125C165.841 26.7539 165.667 26.7112 165.486 26.6845C165.31 26.6525 165.134 26.6365 164.958 26.6365C164.382 26.6365 163.907 26.8099 163.534 27.1565C163.161 27.4979 162.974 27.9779 162.974 28.5965V32.8525H160.926ZM169.58 33.0925C169.036 33.0925 168.553 32.9885 168.132 32.7805C167.711 32.5725 167.38 32.2792 167.14 31.9005C166.9 31.5165 166.78 31.0632 166.78 30.5405C166.78 30.0925 166.892 29.6925 167.116 29.3405C167.34 28.9885 167.684 28.6979 168.148 28.4685C168.612 28.2339 169.204 28.0765 169.924 27.9965C170.649 27.9165 171.508 27.9272 172.5 28.0285L172.532 29.3805C171.881 29.2792 171.313 29.2339 170.828 29.2445C170.343 29.2552 169.94 29.3112 169.62 29.4125C169.305 29.5139 169.068 29.6525 168.908 29.8285C168.753 30.0045 168.676 30.2099 168.676 30.4445C168.676 30.7965 168.804 31.0685 169.06 31.2605C169.316 31.4472 169.665 31.5405 170.108 31.5405C170.487 31.5405 170.825 31.4712 171.124 31.3325C171.428 31.1939 171.668 30.9992 171.844 30.7485C172.02 30.4925 172.108 30.1912 172.108 29.8445V27.8205C172.108 27.4845 172.036 27.1939 171.892 26.9485C171.753 26.6979 171.54 26.5059 171.252 26.3725C170.964 26.2339 170.593 26.1645 170.14 26.1645C169.724 26.1645 169.311 26.2285 168.9 26.3565C168.495 26.4792 168.113 26.6712 167.756 26.9325L167.204 25.4685C167.711 25.1325 168.244 24.8925 168.804 24.7485C169.364 24.6045 169.905 24.5325 170.428 24.5325C171.175 24.5325 171.82 24.6499 172.364 24.8845C172.913 25.1192 173.335 25.4792 173.628 25.9645C173.927 26.4445 174.076 27.0552 174.076 27.7965V32.8525H172.268V31.9405C172.001 32.3085 171.633 32.5939 171.164 32.7965C170.695 32.9939 170.167 33.0925 169.58 33.0925ZM176.02 32.8525V24.8525H178.068V25.8125C178.388 25.3912 178.762 25.0872 179.188 24.9005C179.62 24.7085 180.071 24.6125 180.54 24.6125C181.276 24.6125 181.884 24.7592 182.364 25.0525C182.85 25.3459 183.21 25.7219 183.444 26.1805C183.679 26.6392 183.796 27.1192 183.796 27.6205V32.8525H181.748V28.2605C181.748 27.7165 181.591 27.2845 181.276 26.9645C180.962 26.6445 180.522 26.4845 179.956 26.4845C179.588 26.4845 179.26 26.5672 178.972 26.7325C178.69 26.8925 178.468 27.1192 178.308 27.4125C178.148 27.7059 178.068 28.0445 178.068 28.4285V32.8525H176.02ZM189.091 33.0925C188.312 33.0925 187.621 32.9112 187.019 32.5485C186.416 32.1859 185.944 31.6845 185.603 31.0445C185.261 30.4045 185.091 29.6739 185.091 28.8525C185.091 28.2605 185.187 27.7085 185.379 27.1965C185.576 26.6792 185.853 26.2285 186.211 25.8445C186.573 25.4552 187 25.1539 187.491 24.9405C187.981 24.7219 188.525 24.6125 189.123 24.6125C189.811 24.6125 190.413 24.7512 190.931 25.0285C191.448 25.3005 191.888 25.6872 192.251 26.1885L191.803 26.6525V21.3325H193.851V32.8525H192.043V30.8765L192.331 31.3405C192.059 31.8472 191.653 32.2659 191.115 32.5965C190.576 32.9272 189.901 33.0925 189.091 33.0925ZM189.467 31.3005C189.915 31.3005 190.315 31.2019 190.667 31.0045C191.024 30.8019 191.304 30.5192 191.507 30.1565C191.709 29.7885 191.811 29.3539 191.811 28.8525C191.811 28.3512 191.709 27.9165 191.507 27.5485C191.304 27.1805 191.027 26.8979 190.675 26.7005C190.323 26.5032 189.92 26.4045 189.467 26.4045C189.013 26.4045 188.608 26.5032 188.251 26.7005C187.899 26.8979 187.621 27.1805 187.419 27.5485C187.221 27.9165 187.123 28.3512 187.123 28.8525C187.123 29.3539 187.224 29.7885 187.427 30.1565C187.629 30.5192 187.907 30.8019 188.259 31.0045C188.611 31.2019 189.013 31.3005 189.467 31.3005ZM198.696 33.0845C198.008 33.0845 197.368 32.9912 196.776 32.8045C196.189 32.6179 195.691 32.3619 195.28 32.0365L195.992 30.5805C196.387 30.8632 196.821 31.0872 197.296 31.2525C197.771 31.4179 198.235 31.5005 198.688 31.5005C199.168 31.5005 199.541 31.4205 199.808 31.2605C200.075 31.1005 200.208 30.8765 200.208 30.5885C200.208 30.3165 200.091 30.1165 199.856 29.9885C199.621 29.8605 199.179 29.7272 198.528 29.5885C197.493 29.3859 196.741 29.0872 196.272 28.6925C195.803 28.2925 195.568 27.7432 195.568 27.0445C195.568 26.5485 195.704 26.1112 195.976 25.7325C196.253 25.3539 196.632 25.0605 197.112 24.8525C197.597 24.6392 198.155 24.5325 198.784 24.5325C199.397 24.5325 199.976 24.6179 200.52 24.7885C201.069 24.9592 201.541 25.1992 201.936 25.5085L201.256 26.9725C201.048 26.7965 200.811 26.6445 200.544 26.5165C200.277 26.3885 199.995 26.2899 199.696 26.2205C199.403 26.1512 199.112 26.1165 198.824 26.1165C198.403 26.1165 198.061 26.1912 197.8 26.3405C197.544 26.4899 197.416 26.7005 197.416 26.9725C197.416 27.2445 197.536 27.4472 197.776 27.5805C198.016 27.7085 198.451 27.8445 199.08 27.9885C200.147 28.2179 200.909 28.5219 201.368 28.9005C201.827 29.2792 202.056 29.8099 202.056 30.4925C202.056 31.0152 201.915 31.4712 201.632 31.8605C201.349 32.2445 200.955 32.5459 200.448 32.7645C199.947 32.9779 199.363 33.0845 198.696 33.0845Z" fill="white"/>
<g clip-path="url(#clip0_6163_189)">
<rect x="6.41553" y="6.00635" width="42" height="42" rx="12.0988" fill="#1DD673" fill-opacity="0.05"/>
<g filter="url(#filter1_f_6163_189)">
<circle cx="40.0184" cy="39.0206" r="7.5" transform="rotate(22.2689 40.0184 39.0206)" fill="#1DD573"/>
</g>
<path d="M15.2122 26.2529C15.2123 33.1565 20.8088 38.7528 27.7124 38.7527C34.6159 38.7525 40.2123 33.156 40.2121 26.2524C40.212 19.3489 34.6155 13.7525 27.7119 13.7527C20.8084 13.7528 15.212 19.3493 15.2122 26.2529ZM21.3561 18.6839C24.8493 15.7647 29.882 15.583 33.5663 18.28C37.946 21.4861 38.9361 27.7431 35.6585 32.1172C35.5955 32.2009 35.2548 32.6413 35.1927 32.6413L32.0787 29.5943C31.8039 29.3656 31.2054 29.9622 31.0774 30.1693C30.9494 30.3763 30.9946 30.5852 31.148 30.7593L34.0898 33.7433C34.0926 33.7857 34.0672 33.8101 34.0437 33.8403C33.9788 33.9259 33.3727 34.3541 33.2382 34.4454C29.697 36.8555 24.9042 36.6636 21.5597 34.0005C17.5225 30.7859 16.6284 25.0333 19.5221 20.7298C19.6115 20.5971 20.1422 19.8377 20.2363 19.8546L23.6176 23.199C23.9554 23.4908 24.4862 22.992 24.6593 22.7172C24.7515 22.5713 24.776 22.3304 24.6875 22.1761L21.3919 18.8909L21.3561 18.6848L21.3561 18.6839Z" fill="white"/>
<path d="M27.4117 24.4112C27.36 24.4704 26.8076 23.8719 26.7219 23.808C26.2119 23.4287 25.4308 23.185 24.8059 23.2772L24.7758 23.3516C24.7297 24.9034 25.8788 26.1973 27.4118 26.3855L27.4118 27.5138C27.1746 27.4282 27.0194 27.1553 26.8227 26.9981C26.5714 26.7958 25.8129 26.3855 25.5071 26.3855L24.7787 26.3855C24.6903 27.6211 25.4968 28.9019 26.6693 29.3141C26.8077 29.363 27.4118 29.4571 27.4118 29.5597L27.4118 30.6174C27.234 30.6099 27.1653 30.3878 27.0589 30.289C26.4755 29.7469 25.5871 29.3451 24.7853 29.4967C24.6885 31.0814 25.8563 32.3875 27.4053 32.5993L27.4326 33.1131L27.9793 33.1366L28.0678 32.5663C29.2338 32.4486 30.251 31.5678 30.5493 30.4404C30.5926 30.2786 30.7563 29.5078 30.5794 29.4495C29.9075 29.4326 29.2892 29.6255 28.7312 29.9859L28.0235 30.6183L28.0235 29.49C29.5904 29.3074 30.7177 27.9617 30.6565 26.3873L29.9281 26.3873C29.7333 26.3873 29.0652 26.6781 28.877 26.7939L28.0244 27.5157L28.0244 26.4109L28.1025 26.3478C29.6007 26.2113 30.76 24.7696 30.6367 23.2818C30.5736 23.1915 30.0203 23.2734 29.8933 23.2969C29.3653 23.3938 28.8214 23.6856 28.4234 24.0385C28.3048 24.1429 28.19 24.3876 28.0244 24.413L28.0243 23.4964C28.0243 23.4795 28.189 23.3073 28.2314 23.2339C28.9955 21.9352 28.8938 20.4324 27.7184 19.4283C26.6739 20.2216 26.4208 21.8035 27.0183 22.9506C27.0786 23.0655 27.4127 23.4626 27.4127 23.4965L27.4127 24.413L27.4117 24.4112Z" fill="white"/>
</g>
<rect x="7.16553" y="6.75635" width="40.5" height="40.5" rx="11.3488" stroke="#1DD673" stroke-width="1.5"/>
<path d="M207.101 7.03662V7.03662C213.783 7.03662 219.199 12.4534 219.199 19.1354V19.1354" stroke="#1DD673" stroke-width="2.26852" stroke-linecap="round"/>
<defs>
<filter id="filter1_f_6163_189" x="2.5166" y="1.51855" width="75.0039" height="75.0039" filterUnits="userSpaceOnUse" color-interpolation-filters="sRGB">
<feFlood flood-opacity="0" result="BackgroundImageFix"/>
<feBlend mode="normal" in="SourceGraphic" in2="BackgroundImageFix" result="shape"/>
<feGaussianBlur stdDeviation="15" result="effect1_foregroundBlur_6163_189"/>
</filter>
<linearGradient id="paint0_linear_6163_189" x1="113.067" y1="0" x2="113.067" y2="54" gradientUnits="userSpaceOnUse">
<stop stop-color="#F6F6F6"/>
<stop offset="1" stop-color="#E6E6E6"/>
</linearGradient>
<clipPath id="clip0_6163_189">
<rect x="6.41553" y="6.00635" width="42" height="42" rx="12.0988" fill="white"/>
</clipPath>
</defs>
</svg>
