<svg width="31" height="31" viewBox="0 0 31 31" fill="none" xmlns="http://www.w3.org/2000/svg">
<rect x="0.401992" y="0.401992" width="29.8343" height="29.8343" rx="4.59801" fill="#1DD673" stroke="#FFEAEA" stroke-width="0.803984"/>
<path d="M4.93262 18.7979C5.21106 18.7981 5.43945 19.0267 5.43945 19.3047V22.7022C5.43945 24.1543 6.61926 25.3338 8.06934 25.334H11.4648C11.7434 25.3341 11.9717 25.5628 11.9717 25.8409C11.9716 26.1188 11.7433 26.3466 11.4648 26.3467H8.06934C6.0591 26.3465 4.4248 24.7108 4.4248 22.7022V19.3047C4.4248 19.0266 4.65399 18.7979 4.93262 18.7979ZM25.8408 18.7979C26.1194 18.7979 26.3477 19.0266 26.3477 19.3047V22.7022C26.3477 24.7109 24.7136 26.3467 22.7031 26.3467H19.3086C19.03 26.3467 18.8019 26.1189 18.8018 25.8409C18.8018 25.5627 19.03 25.334 19.3086 25.334H22.7031C24.1534 25.334 25.334 24.1544 25.334 22.7022V19.3047C25.334 19.0267 25.5623 18.798 25.8408 18.7979ZM8.06934 4.42386H11.4648C11.7434 4.42396 11.9717 4.65263 11.9717 4.93069C11.9717 5.20877 11.7434 5.43743 11.4648 5.43753H8.06934C6.61942 5.43777 5.43955 6.61649 5.43945 8.06546V11.4668C5.43945 11.7448 5.21106 11.9734 4.93262 11.9737C4.65399 11.9737 4.4248 11.745 4.4248 11.4668V8.06546C4.4249 6.11957 5.95894 4.52621 7.88281 4.42874L8.06934 4.42386ZM19.3086 4.42386H22.7031C24.7136 4.42386 26.3476 6.05693 26.3477 8.06546V11.4668C26.3477 11.745 26.1194 11.9737 25.8408 11.9737C25.5623 11.9735 25.334 11.7449 25.334 11.4668V8.06546C25.3339 6.61634 24.1532 5.43753 22.7031 5.43753H19.3086C19.03 5.43752 18.8018 5.20883 18.8018 4.93069C18.8018 4.68726 18.9766 4.48201 19.207 4.4346L19.3086 4.42386Z" fill="white" stroke="#1DD673" stroke-width="0.241195"/>
<rect x="4.95703" y="4.9556" width="20.8601" height="20.8601" rx="3.21593" fill="url(#paint0_linear_5585_31174)" fill-opacity="0.2"/>
<path d="M11.6666 11.7853C11.593 12.0009 11.5377 12.2673 11.5377 12.6395C11.5377 12.6591 11.5379 12.6784 11.5382 12.6974H10.7139V13.4583H11.6548C11.7067 13.6189 11.7692 13.7511 11.8283 13.8761C11.9497 14.1328 12.0457 14.3357 12.0457 14.7874C12.0457 15.2389 11.9497 15.4418 11.8283 15.6988C11.8083 15.7409 11.7879 15.784 11.7679 15.8286H12.6065C12.7129 15.5808 12.8077 15.2749 12.8077 14.7874C12.8077 14.165 12.6533 13.8388 12.5171 13.5509C12.3957 13.294 12.2997 13.0913 12.2997 12.6396C12.2997 12.1881 12.3957 11.9852 12.5171 11.7282C12.5429 11.6738 12.5691 11.6185 12.5948 11.5599L13.5244 11.3341C13.5138 11.3568 13.503 11.3798 13.4919 11.4031C13.3558 11.6909 13.2014 12.0174 13.2014 12.6396C13.2014 13.2617 13.3558 13.5882 13.4919 13.8761C13.6133 14.1328 13.7094 14.3357 13.7094 14.7874C13.7094 15.2389 13.6133 15.4418 13.4919 15.6988C13.4719 15.7409 13.4516 15.784 13.4315 15.8286H14.2702C14.3766 15.5808 14.4713 15.2749 14.4713 14.7874C14.4713 14.165 14.3169 13.8388 14.1808 13.5509C14.0593 13.294 13.9633 13.0913 13.9633 12.6396C13.9633 12.1881 14.0593 11.9852 14.1808 11.7282C14.2607 11.5593 14.3487 11.3734 14.4065 11.1198L15.3397 10.8931C15.3014 11.0947 15.2338 11.2377 15.1556 11.4031C15.0194 11.6909 14.865 12.0174 14.865 12.6396C14.865 13.2617 15.0194 13.5882 15.1556 13.8761C15.277 14.1328 15.373 14.3357 15.373 14.7874C15.373 15.2389 15.277 15.4418 15.1556 15.6988C15.1349 15.7418 15.1148 15.7851 15.0951 15.8286H15.9338C16.0402 15.5808 16.1349 15.2749 16.1349 14.7874C16.1349 14.165 15.9805 13.8388 15.8444 13.5509C15.8298 13.5202 15.8153 13.4893 15.801 13.4584H20.286V12.6975H15.6275C15.6272 12.6782 15.627 12.6589 15.627 12.6396C15.627 12.1881 15.723 11.9852 15.8444 11.7282C15.9644 11.4746 16.0985 11.1911 16.1287 10.7015L20.0893 9.7394L19.9092 9L10.67 11.2443L10.8501 11.9837L11.6666 11.7853ZM9 16.5894V17.3504H9.78053C9.84762 18.0247 10.0931 18.6622 10.5006 19.2125C10.9741 19.8522 11.6232 20.319 12.3776 20.5625C12.8454 20.7135 13.1596 21.1383 13.1596 21.6195V22H17.8404V21.6195C17.8404 21.1383 18.1546 20.7135 18.6224 20.5625C19.3768 20.319 20.0258 19.8522 20.4994 19.2125C20.9069 18.6622 21.1524 18.0247 21.2195 17.3504H22V16.5894H9Z" fill="white"/>
<path d="M19.9269 15.8285C19.7853 15.1297 19.1655 14.6019 18.4246 14.6019C18.2811 14.6019 18.1412 14.6212 18.0062 14.6595C17.6845 14.3732 17.278 14.2 16.8486 14.1665C16.8788 14.3466 16.8974 14.5516 16.8974 14.7873C16.8974 15.2297 16.832 15.5635 16.7476 15.8285L19.9269 15.8285Z" fill="white"/>
<defs>
<linearGradient id="paint0_linear_5585_31174" x1="15.3871" y1="4.9556" x2="15.3869" y2="26.6969" gradientUnits="userSpaceOnUse">
<stop stop-color="white"/>
<stop offset="1" stop-color="white" stop-opacity="0"/>
</linearGradient>
</defs>
</svg>
