<svg width="144" height="144" viewBox="0 0 144 144" fill="none" xmlns="http://www.w3.org/2000/svg">
<g filter="url(#filter0_dddddd_6137_719)">
<rect x="52" y="20" width="40" height="40" rx="9.41015" fill="#F1F1F1"/>
<rect x="52.5881" y="20.5881" width="38.8237" height="38.8237" rx="8.82202" stroke="url(#paint0_linear_6137_719)" stroke-width="1.17627"/>
</g>
<g filter="url(#filter1_f_6137_719)">
<circle cx="75.3928" cy="46.25" r="3.85714" fill="#EB6531" fill-opacity="0.3"/>
</g>
<rect x="58" y="26" width="28" height="28" rx="8" fill="#EB6531" fill-opacity="0.05"/>
<rect x="58.4782" y="26.4782" width="27.0436" height="27.0436" rx="7.52179" stroke="#EB6531" stroke-opacity="0.3" stroke-width="0.956414"/>
<path d="M75.0104 31.3621C74.8237 31.4335 74.6535 31.6256 74.0606 32.4271C73.7203 32.8937 73.2152 33.5799 72.9352 33.9532C72.6553 34.3265 72.4302 34.6504 72.4302 34.6669C72.4302 34.6833 72.5564 34.7053 72.7047 34.7108C73.4074 34.7437 73.9783 35.3586 73.9783 36.0997C73.9838 36.4949 73.8905 36.6925 73.4787 37.2195C73.2866 37.4556 73.1548 37.6642 73.1823 37.6861C73.2042 37.7081 73.5007 37.8234 73.8301 37.9387C74.8402 38.29 74.917 38.3284 74.8786 38.4876C74.8567 38.5645 74.681 38.9488 74.4833 39.3495L74.1265 40.0741L74.4175 40.3212C74.7853 40.6396 74.928 40.7823 75.2025 41.1117L75.4221 41.3752L75.9381 40.5133L76.4487 39.6569L76.5475 39.8106C76.5969 39.8985 77.0141 40.6725 77.4753 41.5344C77.9419 42.4127 78.3756 43.1648 78.4689 43.2471C78.705 43.4612 78.9575 43.4942 79.2704 43.3459C79.4516 43.2581 79.5449 43.1648 79.5998 43.0385C79.759 42.6652 79.7316 42.5719 78.7873 40.162C78.2164 38.7072 77.7223 37.7465 77.2557 37.1811C76.9098 36.7639 75.7295 35.913 74.928 35.5068C74.2144 35.1445 74.2308 35.2652 74.7688 34.2881C75.0268 33.8215 75.3617 33.2011 75.5154 32.9157C75.6691 32.6302 75.8174 32.3722 75.8393 32.3393C75.9381 32.235 75.8942 31.7848 75.768 31.6256C75.5868 31.3951 75.2409 31.2743 75.0104 31.3621Z" fill="#EB6531"/>
<path d="M69.3179 33.9532C69.0434 34.0245 68.6701 34.2661 68.4615 34.5076C67.9455 35.1115 67.9949 36.1161 68.5658 36.6705C68.8238 36.9176 69.1038 37.0713 69.3948 37.1207L69.6034 37.1536L70.4543 36.2972C70.9209 35.8251 71.3162 35.4134 71.3217 35.386C71.3711 35.2487 71.135 34.7053 70.9374 34.4802C70.5586 34.052 69.8449 33.8159 69.3179 33.9532Z" fill="#EB6531"/>
<path d="M72.4526 35.331C72.211 35.3859 72.0298 35.5286 71.5303 36.0556C71.2942 36.3026 70.5037 37.1151 69.7736 37.8562C68.0113 39.6403 68.0388 39.5854 67.6325 42.0558C67.5282 42.6871 67.3855 43.6038 67.3196 44.0869L67.1934 44.9707L67.3141 45.2233C67.5831 45.7722 68.3791 45.7997 68.6756 45.2672C68.7195 45.1903 68.9336 44.3943 69.1587 43.494C69.3838 42.5937 69.5814 41.8417 69.5979 41.8197C69.6747 41.7429 71.9201 42.5718 71.8981 42.6651C71.8926 42.7145 71.6236 43.2745 70.7068 45.1793C70.4488 45.7173 70.2347 46.1675 70.2347 46.1785C70.2347 46.1894 70.092 46.4914 69.9163 46.8482C69.532 47.6222 69.4991 47.732 69.5814 48.023C69.7406 48.6213 70.4762 48.8684 70.9374 48.4786C71.0197 48.4072 71.6565 47.3972 72.3483 46.2334C73.0455 45.0696 73.6219 44.1199 73.6383 44.1144C73.6548 44.1144 74.1434 44.9982 74.7253 46.0796C75.3072 47.1556 75.8123 48.0779 75.8507 48.1273C75.988 48.3029 76.2131 48.4017 76.482 48.4072C76.9761 48.4072 77.2726 48.1328 77.3055 47.6277C77.322 47.3532 77.2726 47.194 76.8005 45.9424C75.966 43.7246 75.4225 42.5059 74.9779 41.8307C74.4014 40.9633 73.5066 40.2607 71.9914 39.4866C71.5852 39.278 71.2558 39.0859 71.2668 39.0529C71.2723 39.0255 71.7224 38.4546 72.2604 37.7848C72.7984 37.1096 73.265 36.5113 73.298 36.4454C73.3364 36.3795 73.3639 36.2038 73.3639 36.0556C73.3639 35.578 72.9302 35.2322 72.4526 35.331Z" fill="#EB6531"/>
<path d="M65.1512 37.472C64.3113 37.8014 63.8337 38.7456 64.0533 39.6185C64.2838 40.5188 65.0414 41.0842 65.9417 41.0293C66.6444 40.9909 67.2044 40.6121 67.5228 39.9643C67.6545 39.6898 67.682 39.5745 67.682 39.2012C67.682 38.8115 67.66 38.7182 67.5008 38.3943C67.3087 38.0045 67.0232 37.7136 66.6389 37.5104C66.315 37.3403 65.5355 37.3238 65.1512 37.472Z" fill="#EB6531"/>
<defs>
<filter id="filter0_dddddd_6137_719" x="0" y="0" width="144" height="144" filterUnits="userSpaceOnUse" color-interpolation-filters="sRGB">
<feFlood flood-opacity="0" result="BackgroundImageFix"/>
<feColorMatrix in="SourceAlpha" type="matrix" values="0 0 0 0 0 0 0 0 0 0 0 0 0 0 0 0 0 0 127 0" result="hardAlpha"/>
<feMorphology radius="4" operator="erode" in="SourceAlpha" result="effect1_dropShadow_6137_719"/>
<feOffset dy="5"/>
<feGaussianBlur stdDeviation="0.75"/>
<feComposite in2="hardAlpha" operator="out"/>
<feColorMatrix type="matrix" values="0 0 0 0 0.0313726 0 0 0 0 0.0313726 0 0 0 0 0.0313726 0 0 0 0.05 0"/>
<feBlend mode="normal" in2="BackgroundImageFix" result="effect1_dropShadow_6137_719"/>
<feColorMatrix in="SourceAlpha" type="matrix" values="0 0 0 0 0 0 0 0 0 0 0 0 0 0 0 0 0 0 127 0" result="hardAlpha"/>
<feMorphology radius="4" operator="erode" in="SourceAlpha" result="effect2_dropShadow_6137_719"/>
<feOffset dy="6"/>
<feGaussianBlur stdDeviation="2"/>
<feComposite in2="hardAlpha" operator="out"/>
<feColorMatrix type="matrix" values="0 0 0 0 0.0313726 0 0 0 0 0.0313726 0 0 0 0 0.0313726 0 0 0 0.05 0"/>
<feBlend mode="normal" in2="effect1_dropShadow_6137_719" result="effect2_dropShadow_6137_719"/>
<feColorMatrix in="SourceAlpha" type="matrix" values="0 0 0 0 0 0 0 0 0 0 0 0 0 0 0 0 0 0 127 0" result="hardAlpha"/>
<feOffset dy="6"/>
<feGaussianBlur stdDeviation="6.5"/>
<feComposite in2="hardAlpha" operator="out"/>
<feColorMatrix type="matrix" values="0 0 0 0 0.0313726 0 0 0 0 0.0313726 0 0 0 0 0.0313726 0 0 0 0.03 0"/>
<feBlend mode="normal" in2="effect2_dropShadow_6137_719" result="effect3_dropShadow_6137_719"/>
<feColorMatrix in="SourceAlpha" type="matrix" values="0 0 0 0 0 0 0 0 0 0 0 0 0 0 0 0 0 0 127 0" result="hardAlpha"/>
<feMorphology radius="16" operator="erode" in="SourceAlpha" result="effect4_dropShadow_6137_719"/>
<feOffset dy="24"/>
<feGaussianBlur stdDeviation="12"/>
<feComposite in2="hardAlpha" operator="out"/>
<feColorMatrix type="matrix" values="0 0 0 0 0.0313726 0 0 0 0 0.0313726 0 0 0 0 0.0313726 0 0 0 0.04 0"/>
<feBlend mode="normal" in2="effect3_dropShadow_6137_719" result="effect4_dropShadow_6137_719"/>
<feColorMatrix in="SourceAlpha" type="matrix" values="0 0 0 0 0 0 0 0 0 0 0 0 0 0 0 0 0 0 127 0" result="hardAlpha"/>
<feMorphology radius="2" operator="erode" in="SourceAlpha" result="effect5_dropShadow_6137_719"/>
<feOffset dy="2.15"/>
<feGaussianBlur stdDeviation="0.25"/>
<feComposite in2="hardAlpha" operator="out"/>
<feColorMatrix type="matrix" values="0 0 0 0 0 0 0 0 0 0 0 0 0 0 0 0 0 0 0.25 0"/>
<feBlend mode="normal" in2="effect4_dropShadow_6137_719" result="effect5_dropShadow_6137_719"/>
<feColorMatrix in="SourceAlpha" type="matrix" values="0 0 0 0 0 0 0 0 0 0 0 0 0 0 0 0 0 0 127 0" result="hardAlpha"/>
<feMorphology radius="12" operator="erode" in="SourceAlpha" result="effect6_dropShadow_6137_719"/>
<feOffset dy="32"/>
<feGaussianBlur stdDeviation="32"/>
<feComposite in2="hardAlpha" operator="out"/>
<feColorMatrix type="matrix" values="0 0 0 0 0 0 0 0 0 0 0 0 0 0 0 0 0 0 0.075 0"/>
<feBlend mode="multiply" in2="effect5_dropShadow_6137_719" result="effect6_dropShadow_6137_719"/>
<feBlend mode="normal" in="SourceGraphic" in2="effect6_dropShadow_6137_719" result="shape"/>
</filter>
<filter id="filter1_f_6137_719" x="69.6071" y="40.4643" width="11.5715" height="11.5714" filterUnits="userSpaceOnUse" color-interpolation-filters="sRGB">
<feFlood flood-opacity="0" result="BackgroundImageFix"/>
<feBlend mode="normal" in="SourceGraphic" in2="BackgroundImageFix" result="shape"/>
<feGaussianBlur stdDeviation="0.964286" result="effect1_foregroundBlur_6137_719"/>
</filter>
<linearGradient id="paint0_linear_6137_719" x1="72" y1="20" x2="72" y2="60" gradientUnits="userSpaceOnUse">
<stop stop-color="#F6F6F6"/>
<stop offset="1" stop-color="#E6E6E6"/>
</linearGradient>
</defs>
</svg>
