<svg width="43" height="43" viewBox="0 0 43 43" fill="none" xmlns="http://www.w3.org/2000/svg">
<rect width="42.3457" height="42.3457" rx="12.0988" fill="#FF733D" fill-opacity="0.05"/>
<rect x="0.75" y="0.75" width="40.8457" height="40.8457" rx="11.3488" stroke="#FF733D" stroke-opacity="0.2" stroke-width="1.5"/>
<path d="M25.5153 8.04311C25.2353 8.15016 24.9801 8.43837 24.0907 9.64059C23.5802 10.3405 22.8226 11.3698 22.4026 11.9298C21.9826 12.4897 21.645 12.9755 21.645 13.0002C21.645 13.0249 21.8344 13.0579 22.0568 13.0661C23.1108 13.1155 23.9672 14.0378 23.9672 15.1494C23.9754 15.7423 23.8354 16.0387 23.2178 16.8292C22.9296 17.1833 22.732 17.4962 22.7732 17.5292C22.8061 17.5621 23.2508 17.735 23.7449 17.9079C25.26 18.4349 25.3753 18.4926 25.3177 18.7314C25.2847 18.8467 25.0212 19.4231 24.7248 20.0242L24.1895 21.1111L24.626 21.4817C25.1777 21.9593 25.3918 22.1734 25.8035 22.6674L26.1329 23.0627L26.907 21.7699L27.6728 20.4853L27.821 20.7159C27.8951 20.8476 28.521 22.0087 29.2127 23.3015C29.9126 24.619 30.5631 25.7471 30.7031 25.8706C31.0572 26.1918 31.436 26.2412 31.9054 26.0188C32.1771 25.8871 32.3171 25.7471 32.3995 25.5577C32.6383 24.9978 32.5971 24.8578 31.1807 21.2429C30.3243 19.0608 29.5832 17.6197 28.8833 16.7716C28.3645 16.1458 26.594 14.8694 25.3918 14.2601C24.3213 13.7166 24.346 13.8978 25.153 12.4321C25.54 11.7321 26.0423 10.8016 26.2729 10.3735C26.5035 9.94526 26.7258 9.55825 26.7587 9.50884C26.907 9.35238 26.8411 8.67716 26.6517 8.43837C26.3799 8.09252 25.8612 7.91136 25.5153 8.04311Z" fill="#EB6531"/>
<path d="M16.9766 11.9298C16.5649 12.0369 16.0049 12.3992 15.692 12.7615C14.918 13.6673 14.9921 15.1742 15.8485 16.0058C16.2355 16.3764 16.6555 16.607 17.0919 16.6811L17.4048 16.7305L18.6812 15.4459C19.3811 14.7377 19.974 14.1202 19.9823 14.079C20.0564 13.8731 19.7023 13.0579 19.4058 12.7203C18.8376 12.078 17.7671 11.7239 16.9766 11.9298Z" fill="#EB6531"/>
<path d="M21.6788 13.9964C21.3165 14.0788 21.0448 14.2929 20.2954 15.0834C19.9413 15.4539 18.7555 16.6726 17.6603 17.7843C15.017 20.4605 15.0582 20.3781 14.4488 24.0836C14.2924 25.0306 14.0783 26.4057 13.9794 27.1303L13.79 28.4561L13.9712 28.8349C14.3747 29.6583 15.5687 29.6995 16.0134 28.9007C16.0793 28.7855 16.4004 27.5915 16.738 26.241C17.0757 24.8906 17.3721 23.7625 17.3968 23.7295C17.5121 23.6142 20.8801 24.8576 20.8471 24.9976C20.8389 25.0717 20.4354 25.9116 19.0602 28.769C18.6732 29.576 18.352 30.2512 18.352 30.2677C18.352 30.2841 18.1379 30.737 17.8744 31.2723C17.298 32.4333 17.2486 32.598 17.3721 33.0344C17.6109 33.932 18.7144 34.3025 19.4061 33.7179C19.5296 33.6108 20.4848 32.0957 21.5224 30.35C22.5682 28.6043 23.4328 27.1797 23.4575 27.1715C23.4822 27.1715 24.2151 28.4973 25.088 30.1194C25.9609 31.7334 26.7184 33.1168 26.7761 33.1909C26.982 33.4544 27.3196 33.6026 27.7231 33.6108C28.4642 33.6108 28.9089 33.1991 28.9583 32.4415C28.983 32.0298 28.9089 31.791 28.2007 29.9136C26.949 26.5869 26.1338 24.7588 25.4668 23.746C24.6021 22.445 23.2599 21.391 20.9871 20.2299C20.3778 19.917 19.8837 19.6288 19.9002 19.5794C19.9084 19.5382 20.5836 18.6818 21.3906 17.6772C22.1976 16.6644 22.8976 15.7668 22.947 15.668C23.0046 15.5692 23.0458 15.3057 23.0458 15.0834C23.0458 14.367 22.3953 13.8482 21.6788 13.9964Z" fill="#EB6531"/>
<path d="M10.7268 17.2079C9.46692 17.702 8.7505 19.1183 9.07989 20.4276C9.42575 21.778 10.5621 22.6262 11.9126 22.5438C12.9666 22.4862 13.8066 21.918 14.2842 20.9463C14.4818 20.5346 14.523 20.3617 14.523 19.8018C14.523 19.2171 14.4901 19.0771 14.2513 18.5913C13.963 18.0066 13.5348 17.5702 12.9584 17.2656C12.4726 17.0103 11.3032 16.9856 10.7268 17.2079Z" fill="#EB6531"/>
</svg>
