<svg width="286" height="158" viewBox="0 0 286 158" fill="none" xmlns="http://www.w3.org/2000/svg">
<g filter="url(#filter0_dddddd_6146_142)">
<rect x="52" y="20" width="182" height="54" rx="18.1482" fill="#F1F1F1"/>
<rect x="53.1343" y="21.1343" width="179.731" height="51.7315" rx="17.0139" stroke="url(#paint0_linear_6146_142)" stroke-width="2.26852"/>
</g>
<path d="M122.512 52.9252C121.632 52.9252 120.81 52.7892 120.048 52.5172C119.29 52.2452 118.626 51.8558 118.056 51.3492C117.485 50.8425 117.04 50.2318 116.72 49.5172C116.4 48.7972 116.24 47.9918 116.24 47.1012C116.24 46.2105 116.392 45.4052 116.696 44.6852C117.005 43.9652 117.437 43.3492 117.992 42.8372C118.546 42.3252 119.194 41.9332 119.936 41.6612C120.677 41.3838 121.482 41.2452 122.352 41.2452C122.752 41.2452 123.162 41.2772 123.584 41.3412C124.005 41.4052 124.424 41.5118 124.84 41.6612C125.261 41.8105 125.664 42.0158 126.048 42.2772L125.16 43.9012C124.76 43.6452 124.33 43.4558 123.872 43.3332C123.413 43.2052 122.936 43.1412 122.44 43.1412C121.816 43.1412 121.253 43.2318 120.752 43.4132C120.25 43.5945 119.824 43.8585 119.472 44.2052C119.12 44.5465 118.85 44.9625 118.664 45.4532C118.477 45.9385 118.384 46.4878 118.384 47.1012C118.384 47.9598 118.565 48.6878 118.928 49.2852C119.296 49.8825 119.797 50.3358 120.432 50.6452C121.072 50.9492 121.802 51.1012 122.624 51.1012C123.002 51.1012 123.349 51.0665 123.664 50.9972C123.978 50.9225 124.24 50.8398 124.448 50.7492V48.2852H121.992V46.5892H126.296V51.9812C125.986 52.1732 125.608 52.3412 125.16 52.4852C124.717 52.6292 124.258 52.7385 123.784 52.8132C123.314 52.8878 122.89 52.9252 122.512 52.9252ZM129.271 56.2692C128.956 56.2692 128.647 56.2345 128.343 56.1652C128.039 56.0958 127.745 55.9838 127.463 55.8292L127.919 54.0932C128.084 54.1945 128.268 54.2718 128.471 54.3252C128.673 54.3785 128.857 54.4052 129.023 54.4052C129.364 54.4052 129.641 54.3252 129.855 54.1652C130.068 54.0105 130.231 53.7625 130.343 53.4212L130.559 52.7812L127.423 44.6852H129.655L131.719 50.6452L133.727 44.6852H135.895L132.487 53.7172C132.231 54.3678 131.94 54.8772 131.615 55.2452C131.289 55.6185 130.929 55.8825 130.535 56.0372C130.145 56.1918 129.724 56.2692 129.271 56.2692ZM136.876 52.6852V44.6852H138.924V45.7492C139.132 45.4505 139.372 45.2052 139.644 45.0132C139.916 44.8212 140.207 44.6798 140.516 44.5892C140.825 44.4932 141.137 44.4452 141.452 44.4452C142.081 44.4452 142.612 44.5838 143.044 44.8612C143.476 45.1385 143.777 45.5012 143.948 45.9492C144.316 45.3945 144.764 45.0052 145.292 44.7812C145.82 44.5572 146.361 44.4452 146.916 44.4452C147.668 44.4452 148.265 44.5918 148.708 44.8852C149.151 45.1785 149.468 45.5545 149.66 46.0132C149.852 46.4718 149.948 46.9518 149.948 47.4532V52.6852H147.9V48.0452C147.9 47.5278 147.759 47.1118 147.476 46.7972C147.199 46.4772 146.791 46.3172 146.252 46.3172C145.905 46.3172 145.593 46.3918 145.316 46.5412C145.044 46.6905 144.828 46.8985 144.668 47.1652C144.513 47.4265 144.436 47.7252 144.436 48.0612V52.6852H142.388V48.0452C142.388 47.5278 142.247 47.1118 141.964 46.7972C141.687 46.4772 141.279 46.3172 140.74 46.3172C140.393 46.3172 140.081 46.3918 139.804 46.5412C139.532 46.6905 139.316 46.8985 139.156 47.1652C139.001 47.4265 138.924 47.7252 138.924 48.0612V52.6852H136.876ZM160.895 52.9252C160.047 52.9252 159.26 52.7785 158.535 52.4852C157.815 52.1865 157.188 51.7732 156.655 51.2452C156.122 50.7172 155.708 50.0985 155.415 49.3892C155.122 48.6798 154.975 47.9118 154.975 47.0852C154.975 46.2532 155.122 45.4825 155.415 44.7732C155.708 44.0638 156.122 43.4452 156.655 42.9172C157.188 42.3892 157.815 41.9785 158.535 41.6852C159.26 41.3918 160.047 41.2452 160.895 41.2452C161.738 41.2452 162.519 41.3945 163.239 41.6932C163.959 41.9918 164.586 42.4078 165.119 42.9412C165.652 43.4745 166.068 44.0958 166.367 44.8052C166.666 45.5092 166.815 46.2692 166.815 47.0852C166.815 47.9118 166.666 48.6798 166.367 49.3892C166.068 50.0985 165.652 50.7172 165.119 51.2452C164.586 51.7732 163.959 52.1865 163.239 52.4852C162.519 52.7785 161.738 52.9252 160.895 52.9252ZM160.895 50.9652C161.423 50.9652 161.914 50.8745 162.367 50.6932C162.826 50.5065 163.223 50.2452 163.559 49.9092C163.9 49.5678 164.164 49.1598 164.351 48.6852C164.543 48.2052 164.639 47.6718 164.639 47.0852C164.639 46.3012 164.474 45.6185 164.143 45.0372C163.812 44.4558 163.364 44.0052 162.799 43.6852C162.234 43.3652 161.599 43.2052 160.895 43.2052C160.362 43.2052 159.868 43.2958 159.415 43.4772C158.962 43.6585 158.564 43.9198 158.223 44.2612C157.887 44.6025 157.623 45.0105 157.431 45.4852C157.244 45.9598 157.151 46.4932 157.151 47.0852C157.151 47.8692 157.314 48.5518 157.639 49.1332C157.97 49.7145 158.418 50.1652 158.983 50.4852C159.548 50.8052 160.186 50.9652 160.895 50.9652ZM169.873 52.6852L167.401 44.6852H169.417L170.985 50.3252L172.729 44.6852H174.681L176.329 50.3252L177.913 44.6852H179.841L177.369 52.6852H175.289L173.657 47.2452L171.953 52.6852H169.873ZM180.893 52.6852V44.6852H182.941V45.6452C183.261 45.2238 183.634 44.9198 184.061 44.7332C184.493 44.5412 184.944 44.4452 185.413 44.4452C186.149 44.4452 186.757 44.5918 187.237 44.8852C187.722 45.1785 188.082 45.5545 188.317 46.0132C188.552 46.4718 188.669 46.9518 188.669 47.4532V52.6852H186.621V48.0932C186.621 47.5492 186.464 47.1172 186.149 46.7972C185.834 46.4772 185.394 46.3172 184.829 46.3172C184.461 46.3172 184.133 46.3998 183.845 46.5652C183.562 46.7252 183.341 46.9518 183.181 47.2452C183.021 47.5385 182.941 47.8772 182.941 48.2612V52.6852H180.893ZM194.331 52.9252C193.462 52.9252 192.699 52.7492 192.043 52.3972C191.387 52.0398 190.875 51.5438 190.507 50.9092C190.145 50.2745 189.963 49.5358 189.963 48.6932C189.963 48.0745 190.067 47.5065 190.275 46.9892C190.489 46.4718 190.787 46.0238 191.171 45.6452C191.561 45.2612 192.014 44.9652 192.531 44.7572C193.054 44.5492 193.625 44.4452 194.243 44.4452C194.915 44.4452 195.515 44.5652 196.043 44.8052C196.571 45.0398 197.009 45.3732 197.355 45.8052C197.707 46.2318 197.953 46.7332 198.091 47.3092C198.235 47.8798 198.254 48.5038 198.147 49.1812H191.891C191.886 49.6025 191.985 49.9705 192.187 50.2852C192.395 50.5998 192.689 50.8478 193.067 51.0292C193.451 51.2052 193.902 51.2932 194.419 51.2932C194.878 51.2932 195.318 51.2265 195.739 51.0932C196.161 50.9598 196.553 50.7625 196.915 50.5012L197.635 51.9332C197.385 52.1358 197.073 52.3118 196.699 52.4612C196.326 52.6105 195.931 52.7252 195.515 52.8052C195.105 52.8852 194.71 52.9252 194.331 52.9252ZM192.011 47.7252H196.163C196.147 47.1865 195.969 46.7652 195.627 46.4612C195.286 46.1518 194.809 45.9972 194.195 45.9972C193.587 45.9972 193.086 46.1518 192.691 46.4612C192.297 46.7652 192.07 47.1865 192.011 47.7252ZM199.581 52.6852V44.6852H201.629V45.7332C201.906 45.2638 202.253 44.9305 202.669 44.7332C203.09 44.5358 203.544 44.4372 204.029 44.4372C204.2 44.4372 204.357 44.4452 204.501 44.4612C204.645 44.4772 204.784 44.5012 204.917 44.5332L204.661 46.6452C204.496 46.5865 204.322 46.5438 204.141 46.5172C203.965 46.4852 203.789 46.4692 203.613 46.4692C203.037 46.4692 202.562 46.6425 202.189 46.9892C201.816 47.3305 201.629 47.8105 201.629 48.4292V52.6852H199.581ZM208.811 52.9172C208.123 52.9172 207.483 52.8238 206.891 52.6372C206.304 52.4505 205.806 52.1945 205.395 51.8692L206.107 50.4132C206.502 50.6958 206.936 50.9198 207.411 51.0852C207.886 51.2505 208.35 51.3332 208.803 51.3332C209.283 51.3332 209.656 51.2532 209.923 51.0932C210.19 50.9332 210.323 50.7092 210.323 50.4212C210.323 50.1492 210.206 49.9492 209.971 49.8212C209.736 49.6932 209.294 49.5598 208.643 49.4212C207.608 49.2185 206.856 48.9198 206.387 48.5252C205.918 48.1252 205.683 47.5758 205.683 46.8772C205.683 46.3812 205.819 45.9438 206.091 45.5652C206.368 45.1865 206.747 44.8932 207.227 44.6852C207.712 44.4718 208.27 44.3652 208.899 44.3652C209.512 44.3652 210.091 44.4505 210.635 44.6212C211.184 44.7918 211.656 45.0318 212.051 45.3412L211.371 46.8052C211.163 46.6292 210.926 46.4772 210.659 46.3492C210.392 46.2212 210.11 46.1225 209.811 46.0532C209.518 45.9838 209.227 45.9492 208.939 45.9492C208.518 45.9492 208.176 46.0238 207.915 46.1732C207.659 46.3225 207.531 46.5332 207.531 46.8052C207.531 47.0772 207.651 47.2798 207.891 47.4132C208.131 47.5412 208.566 47.6772 209.195 47.8212C210.262 48.0505 211.024 48.3545 211.483 48.7332C211.942 49.1118 212.171 49.6425 212.171 50.3252C212.171 50.8478 212.03 51.3038 211.747 51.6932C211.464 52.0772 211.07 52.3785 210.563 52.5972C210.062 52.8105 209.478 52.9172 208.811 52.9172Z" fill="#1B1A1F"/>
<g filter="url(#filter1_f_6146_142)">
<circle cx="83.7095" cy="57.7592" r="6.04938" fill="#FF733D" fill-opacity="0.3"/>
</g>
<rect x="58" y="26" width="42.3457" height="42.3457" rx="12.0988" fill="#FF733D" fill-opacity="0.05"/>
<rect x="58.75" y="26.75" width="40.8457" height="40.8457" rx="11.3488" stroke="#FF733D" stroke-opacity="0.2" stroke-width="1.5"/>
<path d="M83.5158 34.0431C83.2358 34.1502 82.9805 34.4384 82.0912 35.6406C81.5807 36.3405 80.8231 37.3698 80.4031 37.9298C79.9831 38.4897 79.6455 38.9755 79.6455 39.0002C79.6455 39.0249 79.8349 39.0579 80.0572 39.0661C81.1113 39.1155 81.9677 40.0378 81.9677 41.1494C81.9759 41.7423 81.8359 42.0387 81.2183 42.8292C80.9301 43.1833 80.7325 43.4962 80.7737 43.5292C80.8066 43.5621 81.2513 43.735 81.7453 43.9079C83.2605 44.4349 83.3758 44.4926 83.3182 44.7314C83.2852 44.8467 83.0217 45.4231 82.7253 46.0242L82.19 47.1111L82.6265 47.4817C83.1782 47.9593 83.3923 48.1734 83.804 48.6674L84.1334 49.0627L84.9075 47.7699L85.6733 46.4853L85.8215 46.7159C85.8956 46.8476 86.5214 48.0087 87.2132 49.3015C87.9131 50.619 88.5636 51.7471 88.7036 51.8706C89.0577 52.1918 89.4365 52.2412 89.9059 52.0188C90.1776 51.8871 90.3176 51.7471 90.4 51.5577C90.6388 50.9978 90.5976 50.8578 89.1812 47.2429C88.3248 45.0608 87.5837 43.6197 86.8838 42.7716C86.365 42.1458 84.5945 40.8694 83.3923 40.2601C82.3218 39.7166 82.3465 39.8978 83.1535 38.4321C83.5405 37.7321 84.0428 36.8016 84.2734 36.3735C84.504 35.9453 84.7263 35.5582 84.7592 35.5088C84.9075 35.3524 84.8416 34.6772 84.6522 34.4384C84.3804 34.0925 83.8617 33.9114 83.5158 34.0431Z" fill="#EB6531"/>
<path d="M74.9761 37.9298C74.5644 38.0369 74.0044 38.3992 73.6915 38.7615C72.9175 39.6673 72.9916 41.1742 73.848 42.0058C74.235 42.3764 74.655 42.607 75.0914 42.6811L75.4043 42.7305L76.6807 41.4459C77.3806 40.7377 77.9735 40.1202 77.9818 40.079C78.0559 39.8731 77.7018 39.0579 77.4053 38.7203C76.8372 38.078 75.7667 37.7239 74.9761 37.9298Z" fill="#EB6531"/>
<path d="M79.6788 39.9964C79.3165 40.0788 79.0448 40.2929 78.2954 41.0834C77.9413 41.4539 76.7555 42.6726 75.6603 43.7843C73.017 46.4605 73.0582 46.3781 72.4488 50.0836C72.2924 51.0306 72.0783 52.4057 71.9794 53.1303L71.79 54.4561L71.9712 54.8349C72.3747 55.6583 73.5687 55.6995 74.0134 54.9007C74.0793 54.7855 74.4004 53.5915 74.738 52.241C75.0757 50.8906 75.3721 49.7625 75.3968 49.7295C75.5121 49.6142 78.8801 50.8576 78.8471 50.9976C78.8389 51.0717 78.4354 51.9116 77.0602 54.769C76.6732 55.576 76.352 56.2512 76.352 56.2677C76.352 56.2841 76.1379 56.737 75.8744 57.2723C75.298 58.4333 75.2486 58.598 75.3721 59.0344C75.6109 59.932 76.7144 60.3025 77.4061 59.7179C77.5296 59.6108 78.4848 58.0957 79.5224 56.35C80.5682 54.6043 81.4328 53.1797 81.4575 53.1715C81.4822 53.1715 82.2151 54.4973 83.088 56.1194C83.9609 57.7334 84.7184 59.1168 84.7761 59.1909C84.982 59.4544 85.3196 59.6026 85.7231 59.6108C86.4642 59.6108 86.9089 59.1991 86.9583 58.4415C86.983 58.0298 86.9089 57.791 86.2007 55.9136C84.949 52.5869 84.1338 50.7588 83.4668 49.746C82.6021 48.445 81.2599 47.391 78.9871 46.2299C78.3778 45.917 77.8837 45.6288 77.9002 45.5794C77.9084 45.5382 78.5836 44.6818 79.3906 43.6772C80.1976 42.6644 80.8976 41.7668 80.947 41.668C81.0046 41.5692 81.0458 41.3057 81.0458 41.0834C81.0458 40.367 80.3953 39.8482 79.6788 39.9964Z" fill="#EB6531"/>
<path d="M68.7268 43.2079C67.4669 43.702 66.7505 45.1183 67.0799 46.4276C67.4257 47.778 68.5621 48.6262 69.9126 48.5438C70.9666 48.4862 71.8066 47.918 72.2842 46.9463C72.4818 46.5346 72.523 46.3617 72.523 45.8018C72.523 45.2171 72.4901 45.0771 72.2513 44.5913C71.963 44.0066 71.5348 43.5702 70.9584 43.2656C70.4726 43.0103 69.3032 42.9856 68.7268 43.2079Z" fill="#EB6531"/>
<path d="M216 26V26C222.682 26 228.099 31.4168 228.099 38.0988V38.0988" stroke="#FF733D" stroke-width="2.26852" stroke-linecap="round"/>
<defs>
<filter id="filter0_dddddd_6146_142" x="0" y="0" width="286" height="158" filterUnits="userSpaceOnUse" color-interpolation-filters="sRGB">
<feFlood flood-opacity="0" result="BackgroundImageFix"/>
<feColorMatrix in="SourceAlpha" type="matrix" values="0 0 0 0 0 0 0 0 0 0 0 0 0 0 0 0 0 0 127 0" result="hardAlpha"/>
<feMorphology radius="4" operator="erode" in="SourceAlpha" result="effect1_dropShadow_6146_142"/>
<feOffset dy="5"/>
<feGaussianBlur stdDeviation="0.75"/>
<feComposite in2="hardAlpha" operator="out"/>
<feColorMatrix type="matrix" values="0 0 0 0 0.0313726 0 0 0 0 0.0313726 0 0 0 0 0.0313726 0 0 0 0.05 0"/>
<feBlend mode="normal" in2="BackgroundImageFix" result="effect1_dropShadow_6146_142"/>
<feColorMatrix in="SourceAlpha" type="matrix" values="0 0 0 0 0 0 0 0 0 0 0 0 0 0 0 0 0 0 127 0" result="hardAlpha"/>
<feMorphology radius="4" operator="erode" in="SourceAlpha" result="effect2_dropShadow_6146_142"/>
<feOffset dy="6"/>
<feGaussianBlur stdDeviation="2"/>
<feComposite in2="hardAlpha" operator="out"/>
<feColorMatrix type="matrix" values="0 0 0 0 0.0313726 0 0 0 0 0.0313726 0 0 0 0 0.0313726 0 0 0 0.05 0"/>
<feBlend mode="normal" in2="effect1_dropShadow_6146_142" result="effect2_dropShadow_6146_142"/>
<feColorMatrix in="SourceAlpha" type="matrix" values="0 0 0 0 0 0 0 0 0 0 0 0 0 0 0 0 0 0 127 0" result="hardAlpha"/>
<feOffset dy="6"/>
<feGaussianBlur stdDeviation="6.5"/>
<feComposite in2="hardAlpha" operator="out"/>
<feColorMatrix type="matrix" values="0 0 0 0 0.0313726 0 0 0 0 0.0313726 0 0 0 0 0.0313726 0 0 0 0.03 0"/>
<feBlend mode="normal" in2="effect2_dropShadow_6146_142" result="effect3_dropShadow_6146_142"/>
<feColorMatrix in="SourceAlpha" type="matrix" values="0 0 0 0 0 0 0 0 0 0 0 0 0 0 0 0 0 0 127 0" result="hardAlpha"/>
<feMorphology radius="16" operator="erode" in="SourceAlpha" result="effect4_dropShadow_6146_142"/>
<feOffset dy="24"/>
<feGaussianBlur stdDeviation="12"/>
<feComposite in2="hardAlpha" operator="out"/>
<feColorMatrix type="matrix" values="0 0 0 0 0.0313726 0 0 0 0 0.0313726 0 0 0 0 0.0313726 0 0 0 0.04 0"/>
<feBlend mode="normal" in2="effect3_dropShadow_6146_142" result="effect4_dropShadow_6146_142"/>
<feColorMatrix in="SourceAlpha" type="matrix" values="0 0 0 0 0 0 0 0 0 0 0 0 0 0 0 0 0 0 127 0" result="hardAlpha"/>
<feMorphology radius="2" operator="erode" in="SourceAlpha" result="effect5_dropShadow_6146_142"/>
<feOffset dy="2.15"/>
<feGaussianBlur stdDeviation="0.25"/>
<feComposite in2="hardAlpha" operator="out"/>
<feColorMatrix type="matrix" values="0 0 0 0 0 0 0 0 0 0 0 0 0 0 0 0 0 0 0.25 0"/>
<feBlend mode="normal" in2="effect4_dropShadow_6146_142" result="effect5_dropShadow_6146_142"/>
<feColorMatrix in="SourceAlpha" type="matrix" values="0 0 0 0 0 0 0 0 0 0 0 0 0 0 0 0 0 0 127 0" result="hardAlpha"/>
<feMorphology radius="12" operator="erode" in="SourceAlpha" result="effect6_dropShadow_6146_142"/>
<feOffset dy="32"/>
<feGaussianBlur stdDeviation="32"/>
<feComposite in2="hardAlpha" operator="out"/>
<feColorMatrix type="matrix" values="0 0 0 0 0 0 0 0 0 0 0 0 0 0 0 0 0 0 0.075 0"/>
<feBlend mode="multiply" in2="effect5_dropShadow_6146_142" result="effect6_dropShadow_6146_142"/>
<feBlend mode="normal" in="SourceGraphic" in2="effect6_dropShadow_6146_142" result="shape"/>
</filter>
<filter id="filter1_f_6146_142" x="74.6355" y="48.6851" width="18.148" height="18.1481" filterUnits="userSpaceOnUse" color-interpolation-filters="sRGB">
<feFlood flood-opacity="0" result="BackgroundImageFix"/>
<feBlend mode="normal" in="SourceGraphic" in2="BackgroundImageFix" result="shape"/>
<feGaussianBlur stdDeviation="1.51235" result="effect1_foregroundBlur_6146_142"/>
</filter>
<linearGradient id="paint0_linear_6146_142" x1="143" y1="20" x2="143" y2="74" gradientUnits="userSpaceOnUse">
<stop stop-color="#F6F6F6"/>
<stop offset="1" stop-color="#E6E6E6"/>
</linearGradient>
</defs>
</svg>
