<svg width="140" height="54" viewBox="0 0 140 54" fill="none" xmlns="http://www.w3.org/2000/svg">
<rect x="0.364746" width="139" height="54" rx="18.1482" fill="#F1F1F1" fill-opacity="0.1"/>
<rect x="1.49901" y="1.13426" width="136.731" height="51.7315" rx="17.0139" stroke="url(#paint0_linear_6163_213)" stroke-opacity="0.06" stroke-width="2.26852"/>
<path d="M70.8763 32.9251C69.9963 32.9251 69.1749 32.7891 68.4123 32.5171C67.6549 32.2451 66.9909 31.8557 66.4203 31.3491C65.8496 30.8424 65.4043 30.2317 65.0843 29.5171C64.7643 28.7971 64.6043 27.9917 64.6043 27.1011C64.6043 26.2104 64.7563 25.4051 65.0603 24.6851C65.3696 23.9651 65.8016 23.3491 66.3563 22.8371C66.9109 22.3251 67.5589 21.9331 68.3003 21.6611C69.0416 21.3837 69.8469 21.2451 70.7163 21.2451C71.1163 21.2451 71.5269 21.2771 71.9483 21.3411C72.3696 21.4051 72.7883 21.5117 73.2043 21.6611C73.6256 21.8104 74.0283 22.0157 74.4123 22.2771L73.5243 23.9011C73.1243 23.6451 72.6949 23.4557 72.2363 23.3331C71.7776 23.2051 71.3003 23.1411 70.8043 23.1411C70.1803 23.1411 69.6176 23.2317 69.1163 23.4131C68.6149 23.5944 68.1883 23.8584 67.8363 24.2051C67.4843 24.5464 67.2149 24.9624 67.0283 25.4531C66.8416 25.9384 66.7483 26.4877 66.7483 27.1011C66.7483 27.9597 66.9296 28.6877 67.2923 29.2851C67.6603 29.8824 68.1616 30.3357 68.7963 30.6451C69.4363 30.9491 70.1669 31.1011 70.9883 31.1011C71.3669 31.1011 71.7136 31.0664 72.0283 30.9971C72.3429 30.9224 72.6043 30.8397 72.8123 30.7491V28.2851H70.3563V26.5891H74.6603V31.9811C74.3509 32.1731 73.9723 32.3411 73.5243 32.4851C73.0816 32.6291 72.6229 32.7384 72.1483 32.8131C71.6789 32.8877 71.2549 32.9251 70.8763 32.9251ZM77.6355 36.2691C77.3209 36.2691 77.0115 36.2344 76.7075 36.1651C76.4035 36.0957 76.1102 35.9837 75.8275 35.8291L76.2835 34.0931C76.4489 34.1944 76.6329 34.2717 76.8355 34.3251C77.0382 34.3784 77.2222 34.4051 77.3875 34.4051C77.7289 34.4051 78.0062 34.3251 78.2195 34.1651C78.4329 34.0104 78.5955 33.7624 78.7075 33.4211L78.9235 32.7811L75.7875 24.6851H78.0195L80.0835 30.6451L82.0915 24.6851H84.2595L80.8515 33.7171C80.5955 34.3677 80.3049 34.8771 79.9795 35.2451C79.6542 35.6184 79.2942 35.8824 78.8995 36.0371C78.5102 36.1917 78.0889 36.2691 77.6355 36.2691ZM85.2408 32.6851V24.6851H87.2888V25.7491C87.4968 25.4504 87.7368 25.2051 88.0088 25.0131C88.2808 24.8211 88.5714 24.6797 88.8808 24.5891C89.1901 24.4931 89.5021 24.4451 89.8168 24.4451C90.4461 24.4451 90.9768 24.5837 91.4088 24.8611C91.8408 25.1384 92.1421 25.5011 92.3128 25.9491C92.6808 25.3944 93.1288 25.0051 93.6568 24.7811C94.1848 24.5571 94.7261 24.4451 95.2808 24.4451C96.0328 24.4451 96.6301 24.5917 97.0728 24.8851C97.5154 25.1784 97.8328 25.5544 98.0248 26.0131C98.2168 26.4717 98.3128 26.9517 98.3128 27.4531V32.6851H96.2648V28.0451C96.2648 27.5277 96.1234 27.1117 95.8408 26.7971C95.5634 26.4771 95.1554 26.3171 94.6168 26.3171C94.2701 26.3171 93.9581 26.3917 93.6808 26.5411C93.4088 26.6904 93.1928 26.8984 93.0328 27.1651C92.8781 27.4264 92.8008 27.7251 92.8008 28.0611V32.6851H90.7528V28.0451C90.7528 27.5277 90.6114 27.1117 90.3288 26.7971C90.0514 26.4771 89.6434 26.3171 89.1048 26.3171C88.7581 26.3171 88.4461 26.3917 88.1688 26.5411C87.8968 26.6904 87.6808 26.8984 87.5208 27.1651C87.3661 27.4264 87.2888 27.7251 87.2888 28.0611V32.6851H85.2408ZM103.08 32.9171C102.392 32.9171 101.752 32.8237 101.16 32.6371C100.573 32.4504 100.075 32.1944 99.6642 31.8691L100.376 30.4131C100.771 30.6957 101.205 30.9197 101.68 31.0851C102.155 31.2504 102.619 31.3331 103.072 31.3331C103.552 31.3331 103.925 31.2531 104.192 31.0931C104.459 30.9331 104.592 30.7091 104.592 30.4211C104.592 30.1491 104.475 29.9491 104.24 29.8211C104.005 29.6931 103.563 29.5597 102.912 29.4211C101.877 29.2184 101.125 28.9197 100.656 28.5251C100.187 28.1251 99.9522 27.5757 99.9522 26.8771C99.9522 26.3811 100.088 25.9437 100.36 25.5651C100.637 25.1864 101.016 24.8931 101.496 24.6851C101.981 24.4717 102.539 24.3651 103.168 24.3651C103.781 24.3651 104.36 24.4504 104.904 24.6211C105.453 24.7917 105.925 25.0317 106.32 25.3411L105.64 26.8051C105.432 26.6291 105.195 26.4771 104.928 26.3491C104.661 26.2211 104.379 26.1224 104.08 26.0531C103.787 25.9837 103.496 25.9491 103.208 25.9491C102.787 25.9491 102.445 26.0237 102.184 26.1731C101.928 26.3224 101.8 26.5331 101.8 26.8051C101.8 27.0771 101.92 27.2797 102.16 27.4131C102.4 27.5411 102.835 27.6771 103.464 27.8211C104.531 28.0504 105.293 28.3544 105.752 28.7331C106.211 29.1117 106.44 29.6424 106.44 30.3251C106.44 30.8477 106.299 31.3037 106.016 31.6931C105.733 32.0771 105.339 32.3784 104.832 32.5971C104.331 32.8104 103.747 32.9171 103.08 32.9171Z" fill="white"/>
<g clip-path="url(#clip0_6163_213)">
<rect x="6.41553" y="6.04932" width="42.3457" height="42.3457" rx="12.0988" fill="#8059F0" fill-opacity="0.05"/>
<g filter="url(#filter1_f_6163_213)">
<circle cx="37.5318" cy="38.156" r="7.55354" transform="rotate(9.11336 37.5318 38.156)" fill="#8059F0"/>
</g>
<path d="M30.5339 21.2993C31.2278 22.0446 31.2061 23.0981 31.0038 24.0455L30.2094 27.6893C30.1847 27.7223 30.1827 27.7183 30.1482 27.7023C30.0732 27.6683 29.9705 27.5452 29.8886 27.4902C29.324 27.108 28.6351 27.01 28.0054 27.3042C27.9265 27.3412 27.664 27.5723 27.6067 27.4733L27.4734 26.6669C27.7231 26.2907 28.0143 25.9465 28.2857 25.5883C28.4693 25.3472 28.6834 25.0951 28.866 24.846C28.8838 24.822 28.9874 24.6639 28.9894 24.6509C29.017 24.4918 28.9124 24.5218 28.8315 24.4608C28.8048 24.4408 28.7969 24.4068 28.7732 24.3898C28.6538 24.3037 28.5057 24.2377 28.3952 24.1277L28.2314 24.1727C27.8159 24.81 27.2987 25.3753 26.8437 25.9846C26.8032 26.0386 26.5536 26.3788 26.5486 26.4038C26.5378 26.4628 26.5506 26.5389 26.5506 26.5999L27.1883 30.2276C27.2436 31.4231 26.0652 32.1775 25.0012 31.6453C24.5136 31.4012 24.3744 31.008 24.2461 30.5108C23.8898 29.1221 23.6637 27.6935 23.3202 26.3008C23.2975 26.0487 23.3725 25.6976 23.48 25.4695L25.9306 21.2854C27.0379 20.0268 29.3998 20.0827 30.5339 21.3003L30.5339 21.2993Z" fill="white"/>
<path d="M35.4095 31.2543C35.9277 31.9967 35.6188 32.769 35.4807 33.5814C35.2616 34.866 35.086 36.1616 34.8521 37.4432C34.7386 38.0645 34.6044 38.8919 34.4228 39.4822C34.18 40.2696 33.2424 40.6108 32.4972 40.4187C31.7047 40.2146 31.3868 39.5854 31.3562 38.798C31.5161 37.4714 31.749 36.1497 31.896 34.8221C31.9206 34.603 31.972 34.2829 31.9749 34.0758C31.9759 33.9707 31.9601 33.9257 31.8565 33.8947C31.5821 33.8127 31.2623 33.7747 30.981 33.7066C29.7048 33.3995 28.3704 33.0974 27.1149 32.7263C27.0301 32.7013 26.7122 32.6133 26.6728 32.5752C26.6511 32.5542 26.6392 32.5502 26.6471 32.5142L26.9985 32.3381C27.1771 32.1951 27.3607 32.054 27.5097 31.8759C27.6351 31.7258 27.7051 31.5677 27.8216 31.4177C28.3921 31.7488 29.0386 31.9349 29.6801 31.6757C30.6434 31.2875 31.0312 30.3711 30.8279 29.3636C30.8111 29.2826 30.6887 28.9904 30.7795 28.9644C30.8042 28.9574 31.1911 29.1325 31.2513 29.1595C32.1475 29.5647 33.0437 29.9838 33.9468 30.376C34.5183 30.6241 35.0285 30.7071 35.4105 31.2543L35.4095 31.2543Z" fill="white"/>
<path d="M29.0209 37.5707C28.482 38.3411 27.1368 38.3971 26.2702 38.5943C24.8055 38.9275 23.332 39.3457 21.8426 39.5809C21.437 39.6449 21.0757 39.723 20.6859 39.5429C19.7423 39.1067 19.3198 37.7711 20.1222 36.9877C20.6246 36.4975 21.6481 36.3424 22.3182 36.1653C23.324 35.9001 24.3346 35.657 25.3315 35.3578L25.3601 35.2547L24.9474 32.7446C24.9346 32.7156 24.9563 32.6705 24.981 32.6635C25.0521 32.6435 25.3146 32.8996 25.3886 32.9497C26.117 33.4349 27.1988 33.6829 28.0446 33.907C28.2164 33.952 29.2468 34.1631 29.2971 34.2381L29.3081 36.7013C29.2933 36.9184 29.1966 37.3416 29.0841 37.5247C29.0683 37.5507 29.0308 37.5567 29.0209 37.5717L29.0209 37.5707Z" fill="white"/>
<path d="M29.2536 19.7425C30.9619 19.7424 32.3468 18.3386 32.3467 16.6069C32.3466 14.8753 30.9617 13.4715 29.2534 13.4716C27.545 13.4716 26.1602 14.8755 26.1603 16.6071C26.1603 18.3388 27.5452 19.7426 29.2536 19.7425Z" fill="white"/>
<path d="M22.1732 32.3986C22.0854 32.3345 21.966 32.2315 21.9127 32.1424C21.8051 31.9624 21.5622 31.0459 21.5435 30.8228C21.4586 29.8324 22.786 29.3101 23.3763 30.1645C23.5204 30.3736 23.7208 31.1159 23.7534 31.382C23.8708 32.3215 22.9401 32.9628 22.1722 32.3976L22.1732 32.3986Z" fill="white"/>
<path d="M29.5163 28.3537C29.7887 28.6429 30.0424 29.6293 30 30.0255C29.8944 31.008 28.5126 31.2321 28.0991 30.3267C27.9757 30.0566 27.7802 29.2122 27.8049 28.9261C27.8799 28.0757 28.9231 27.7245 29.5153 28.3537L29.5163 28.3537Z" fill="white"/>
</g>
<rect x="7.16553" y="6.79932" width="40.8457" height="40.8457" rx="11.3488" stroke="#8059F0" stroke-width="1.5"/>
<path d="M121.365 6V6C128.047 6 133.464 11.4168 133.464 18.0988V18.0988" stroke="#8059F0" stroke-width="2.26852" stroke-linecap="round"/>
<defs>
<filter id="filter1_f_6163_213" x="-0.0229492" y="0.601562" width="75.1094" height="75.1094" filterUnits="userSpaceOnUse" color-interpolation-filters="sRGB">
<feFlood flood-opacity="0" result="BackgroundImageFix"/>
<feBlend mode="normal" in="SourceGraphic" in2="BackgroundImageFix" result="shape"/>
<feGaussianBlur stdDeviation="15" result="effect1_foregroundBlur_6163_213"/>
</filter>
<linearGradient id="paint0_linear_6163_213" x1="69.8647" y1="0" x2="69.8647" y2="54" gradientUnits="userSpaceOnUse">
<stop stop-color="#F6F6F6"/>
<stop offset="1" stop-color="#E6E6E6"/>
</linearGradient>
<clipPath id="clip0_6163_213">
<rect x="6.41553" y="6.04932" width="42.3457" height="42.3457" rx="12.0988" fill="white"/>
</clipPath>
</defs>
</svg>
