<svg width="245" height="112" viewBox="0 0 245 112" fill="none" xmlns="http://www.w3.org/2000/svg">
<g filter="url(#filter0_dddddd_5427_41496)">
<rect x="48" y="55.4038" width="139" height="54" rx="18.1482" transform="rotate(-16.4681 48 55.4038)" fill="#F1F1F1" fill-opacity="0.1" shape-rendering="crispEdges"/>
<rect x="49.4093" y="56.17" width="136.731" height="51.7315" rx="17.0139" transform="rotate(-16.4681 49.4093 56.17)" stroke="url(#paint0_linear_5427_41496)" stroke-opacity="0.06" stroke-width="2.26852" shape-rendering="crispEdges"/>
</g>
<path d="M124.953 66.9897C124.109 67.2391 123.282 67.3416 122.474 67.2969C121.671 67.2508 120.923 67.0656 120.233 66.7415C119.542 66.4174 118.942 65.958 118.432 65.3634C117.921 64.7637 117.539 64.0367 117.287 63.1826C117.034 62.3285 116.952 61.5131 117.039 60.7364C117.132 59.9583 117.371 59.2451 117.758 58.5968C118.145 57.9486 118.655 57.389 119.289 56.918C119.921 56.4419 120.654 56.0806 121.488 55.8342C121.872 55.7208 122.275 55.6351 122.697 55.577C123.119 55.5189 123.551 55.5025 123.992 55.5278C124.438 55.5516 124.883 55.6343 125.325 55.7761L124.934 57.5852C124.478 57.4531 124.012 57.3932 123.538 57.4056C123.061 57.4129 122.586 57.4868 122.11 57.6275C121.512 57.8043 120.998 58.0508 120.568 58.3668C120.139 58.6828 119.805 59.0569 119.565 59.4892C119.324 59.9163 119.184 60.3916 119.144 60.915C119.103 61.4334 119.169 61.9866 119.343 62.5748C119.586 63.3982 119.967 64.045 120.484 64.515C121.006 64.9835 121.615 65.2761 122.312 65.3929C123.011 65.503 123.755 65.4416 124.543 65.2088C124.906 65.1014 125.229 64.9699 125.511 64.8142C125.791 64.6534 126.018 64.5 126.192 64.3541L125.494 61.9912L123.139 62.6874L122.658 61.061L126.785 59.8409L128.314 65.0117C128.071 65.2835 127.756 65.552 127.367 65.8171C126.983 66.0807 126.575 66.3155 126.141 66.5217C125.712 66.7263 125.316 66.8823 124.953 66.9897ZM132.382 68.2804C132.081 68.3696 131.774 68.424 131.463 68.4437C131.152 68.4634 130.839 68.4392 130.524 68.371L130.469 66.5769C130.656 66.6272 130.855 66.6492 131.064 66.6429C131.274 66.6366 131.458 66.61 131.616 66.5631C131.944 66.4664 132.187 66.3111 132.346 66.0971C132.507 65.8883 132.592 65.6044 132.603 65.2453L132.629 64.5703L127.326 57.6955L129.467 57.0627L133.136 62.1931L133.372 55.9084L135.451 55.2938L134.743 64.9214C134.682 65.6179 134.548 66.1888 134.34 66.6339C134.134 67.0842 133.863 67.4394 133.529 67.6996C133.199 67.9583 132.817 68.1519 132.382 68.2804ZM138.66 62.6875L136.392 55.0156L138.356 54.4351L138.657 55.4554C138.772 55.11 138.933 54.8067 139.139 54.5455C139.346 54.2843 139.584 54.0663 139.855 53.8917C140.125 53.7119 140.41 53.5775 140.712 53.4883C141.316 53.3099 141.864 53.2924 142.357 53.4359C142.85 53.5794 143.241 53.8418 143.532 54.223C143.728 53.5868 144.047 53.0864 144.49 52.7219C144.933 52.3574 145.42 52.0966 145.952 51.9393C146.673 51.7262 147.288 51.6975 147.795 51.8533C148.303 52.0091 148.714 52.2797 149.028 52.6651C149.342 53.0506 149.57 53.4837 149.712 53.9644L151.195 58.9818L149.232 59.5624L147.916 55.1127C147.77 54.6166 147.516 54.2577 147.156 54.0361C146.799 53.8078 146.362 53.7701 145.846 53.9228C145.513 54.021 145.235 54.1811 145.012 54.4029C144.793 54.6232 144.645 54.8839 144.567 55.185C144.493 55.4795 144.504 55.7878 144.599 56.11L145.91 60.5443L143.946 61.1249L142.63 56.6753C142.484 56.1791 142.23 55.8203 141.87 55.5986C141.513 55.3704 141.077 55.3326 140.56 55.4853C140.228 55.5836 139.95 55.7436 139.726 55.9655C139.507 56.1858 139.359 56.4465 139.281 56.7476C139.207 57.042 139.218 57.3504 139.313 57.6726L140.624 62.1069L138.66 62.6875ZM155.833 57.8528C155.173 58.0478 154.533 58.1398 153.912 58.1286C153.297 58.1159 152.746 58.0117 152.26 57.8162L152.53 56.2181C152.989 56.3773 153.469 56.4688 153.971 56.4928C154.473 56.5168 154.942 56.4646 155.376 56.3361C155.837 56.2 156.172 56.0174 156.382 55.7884C156.593 55.5594 156.657 55.3068 156.575 55.0306C156.498 54.7697 156.329 54.6112 156.068 54.555C155.807 54.4988 155.344 54.4964 154.681 54.5479C153.631 54.6468 152.825 54.5736 152.263 54.3281C151.7 54.0776 151.319 53.6173 151.121 52.9473C150.981 52.4717 150.987 52.0137 151.14 51.5735C151.299 51.1317 151.579 50.7431 151.98 50.4075C152.385 50.0654 152.89 49.8051 153.493 49.6267C154.081 49.4528 154.66 49.3706 155.23 49.3801C155.806 49.388 156.326 49.4844 156.793 49.6691L156.555 51.2658C156.306 51.156 156.035 51.0775 155.743 51.0304C155.451 50.9832 155.152 50.9687 154.846 50.9869C154.545 51.0036 154.257 51.0527 153.981 51.1344C153.576 51.2538 153.27 51.4222 153.062 51.6395C152.859 51.8552 152.796 52.0936 152.873 52.3544C152.95 52.6152 153.123 52.7756 153.391 52.8354C153.657 52.8901 154.112 52.8973 154.757 52.857C155.845 52.7746 156.662 52.8499 157.209 53.083C157.757 53.3161 158.127 53.76 158.32 54.4146C158.469 54.9159 158.462 55.3932 158.302 55.8467C158.139 56.2951 157.846 56.696 157.422 57.0493C157.002 57.396 156.472 57.6638 155.833 57.8528Z" fill="white"/>
<g clip-path="url(#clip0_5427_41496)">
<rect x="55.5171" y="59.4897" width="42.3457" height="42.3457" rx="12.0988" transform="rotate(-16.4681 55.5171 59.4897)" fill="#8059F0" fill-opacity="0.05"/>
<g filter="url(#filter2_f_5427_41496)">
<circle cx="94.4583" cy="81.4585" r="7.55354" transform="rotate(-7.35473 94.4583 81.4585)" fill="#8059F0"/>
</g>
<path d="M82.9687 67.2773C83.8454 67.7953 84.1232 68.8117 84.1978 69.7777L84.4689 73.4971C84.4546 73.5358 84.4516 73.5325 84.4139 73.5269C84.3324 73.5156 84.199 73.4267 84.1049 73.3971C83.4551 73.1907 82.7667 73.292 82.2462 73.7526C82.181 73.8105 81.9947 74.1065 81.9118 74.0278L81.5554 73.2923C81.6882 72.8607 81.8698 72.4481 82.0286 72.0277C82.1363 71.7444 82.2702 71.4419 82.3746 71.1513C82.3849 71.1232 82.4394 70.9423 82.4376 70.9292C82.419 70.7688 82.3272 70.8273 82.2323 70.7917C82.2011 70.7801 82.1839 70.7497 82.1563 70.7401C82.0174 70.6914 81.8567 70.6701 81.7195 70.5959L81.5752 70.6855C81.3574 71.4145 81.0217 72.1032 80.7581 72.8165C80.7346 72.8797 80.5916 73.2767 80.5939 73.3021C80.6002 73.3618 80.6341 73.4311 80.6514 73.4896L82.2913 76.7877C82.6833 77.9185 81.7671 78.976 80.5958 78.7673C80.0591 78.6714 79.8141 78.3338 79.5501 77.8934C78.8147 76.6627 78.193 75.3567 77.4687 74.1186C77.3755 73.8833 77.3479 73.5252 77.3864 73.276L78.5503 68.5689C79.2554 67.048 81.5363 66.4321 82.969 67.2782L82.9687 67.2773Z" fill="white"/>
<path d="M90.4667 75.4418C91.1741 76.0068 91.0968 76.835 91.1946 77.6533C91.3487 78.9473 91.5475 80.2395 91.6866 81.5348C91.7539 82.1628 91.8597 82.9943 91.8529 83.6119C91.8433 84.4358 91.0409 85.0288 90.2718 85.0558C89.4539 85.0848 88.9707 84.5714 88.7182 83.825C88.4954 82.5075 88.3441 81.1741 88.1087 79.8592C88.0702 79.6421 88.0287 79.3206 87.9728 79.1211C87.944 79.0201 87.9161 78.9814 87.8079 78.9811C87.5215 78.9802 87.2041 79.0344 86.915 79.0489C85.6041 79.1162 84.2388 79.2047 82.9297 79.2047C82.8412 79.2048 82.5114 79.2105 82.4628 79.1852C82.436 79.1712 82.4235 79.1708 82.4209 79.134L82.7079 78.8655C82.8387 78.6777 82.9747 78.4903 83.0672 78.2773C83.1448 78.0979 83.1672 77.9264 83.2363 77.7495C83.8773 77.9053 84.55 77.9005 85.0918 77.4701C85.9055 76.8247 86.0176 75.8359 85.537 74.9274C85.498 74.8545 85.2978 74.609 85.3775 74.5583C85.3991 74.5446 85.8198 74.6028 85.8852 74.6117C86.8595 74.7462 87.8377 74.8941 88.815 75.0141C89.4333 75.09 89.9462 75.025 90.4677 75.4415L90.4667 75.4418Z" fill="white"/>
<path d="M86.1309 83.3107C85.8325 84.2022 84.5584 84.6373 83.7832 85.072C82.4731 85.8068 81.1785 86.6256 79.8169 87.2733C79.4461 87.4497 79.1218 87.627 78.6969 87.5648C77.6684 87.414 76.8846 86.2529 77.432 85.2742C77.7748 84.6617 78.7123 84.2228 79.3048 83.863C80.1941 83.3236 81.0944 82.8039 81.9655 82.2344L81.9637 82.1275L80.8564 79.8373C80.8359 79.8131 80.844 79.7638 80.8656 79.7501C80.9281 79.7107 81.2525 79.8819 81.3377 79.9089C82.1737 80.1677 83.2814 80.0989 84.1561 80.074C84.3336 80.0685 85.3816 79.9788 85.4511 80.0365L86.1598 82.3955C86.2072 82.6079 86.2344 83.0412 86.1784 83.2486C86.1707 83.2781 86.1364 83.2944 86.1312 83.3116L86.1309 83.3107Z" fill="white"/>
<path d="M81.2999 66.1474C82.9381 65.6631 83.8682 63.9242 83.3772 62.2636C82.8863 60.603 81.1602 59.6494 79.522 60.1338C77.8837 60.6181 76.9537 62.3569 77.4446 64.0176C77.9356 65.6782 79.6616 66.6317 81.2999 66.1474Z" fill="white"/>
<path d="M78.0978 80.2913C77.9954 80.2548 77.8517 80.1898 77.7753 80.1195C77.6211 79.9773 77.1284 79.1673 77.0472 78.9587C76.685 78.033 77.8099 77.1558 78.6182 77.8078C78.8156 77.9674 79.2182 78.6225 79.3249 78.8685C79.7039 79.7361 78.9932 80.615 78.0966 80.2906L78.0978 80.2913Z" fill="white"/>
<path d="M83.9931 74.3314C84.3363 74.5314 84.8592 75.4055 84.9308 75.7974C85.1081 76.7695 83.8465 77.3762 83.1933 76.6252C82.9984 76.4011 82.5716 75.6468 82.5141 75.3654C82.3449 74.5286 83.2458 73.8961 83.9921 74.3316L83.9931 74.3314Z" fill="white"/>
</g>
<rect x="56.4489" y="59.9964" width="40.8457" height="40.8457" rx="11.3488" transform="rotate(-16.4681 56.4489 59.9964)" stroke="#8059F0" stroke-width="1.5"/>
<path d="M165.737 26.8564V26.8564C172.145 24.9622 178.875 28.6213 180.77 35.0291V35.0291" stroke="#8059F0" stroke-width="2.26852" stroke-linecap="round"/>
<defs>
<filter id="filter0_dddddd_5427_41496" x="-4" y="-4" width="252.606" height="195.188" filterUnits="userSpaceOnUse" color-interpolation-filters="sRGB">
<feFlood flood-opacity="0" result="BackgroundImageFix"/>
<feColorMatrix in="SourceAlpha" type="matrix" values="0 0 0 0 0 0 0 0 0 0 0 0 0 0 0 0 0 0 127 0" result="hardAlpha"/>
<feMorphology radius="4" operator="erode" in="SourceAlpha" result="effect1_dropShadow_5427_41496"/>
<feOffset dy="5"/>
<feGaussianBlur stdDeviation="0.75"/>
<feComposite in2="hardAlpha" operator="out"/>
<feColorMatrix type="matrix" values="0 0 0 0 0.0313726 0 0 0 0 0.0313726 0 0 0 0 0.0313726 0 0 0 0.05 0"/>
<feBlend mode="normal" in2="BackgroundImageFix" result="effect1_dropShadow_5427_41496"/>
<feColorMatrix in="SourceAlpha" type="matrix" values="0 0 0 0 0 0 0 0 0 0 0 0 0 0 0 0 0 0 127 0" result="hardAlpha"/>
<feMorphology radius="4" operator="erode" in="SourceAlpha" result="effect2_dropShadow_5427_41496"/>
<feOffset dy="6"/>
<feGaussianBlur stdDeviation="2"/>
<feComposite in2="hardAlpha" operator="out"/>
<feColorMatrix type="matrix" values="0 0 0 0 0.0313726 0 0 0 0 0.0313726 0 0 0 0 0.0313726 0 0 0 0.05 0"/>
<feBlend mode="normal" in2="effect1_dropShadow_5427_41496" result="effect2_dropShadow_5427_41496"/>
<feColorMatrix in="SourceAlpha" type="matrix" values="0 0 0 0 0 0 0 0 0 0 0 0 0 0 0 0 0 0 127 0" result="hardAlpha"/>
<feOffset dy="6"/>
<feGaussianBlur stdDeviation="6.5"/>
<feComposite in2="hardAlpha" operator="out"/>
<feColorMatrix type="matrix" values="0 0 0 0 0.0313726 0 0 0 0 0.0313726 0 0 0 0 0.0313726 0 0 0 0.03 0"/>
<feBlend mode="normal" in2="effect2_dropShadow_5427_41496" result="effect3_dropShadow_5427_41496"/>
<feColorMatrix in="SourceAlpha" type="matrix" values="0 0 0 0 0 0 0 0 0 0 0 0 0 0 0 0 0 0 127 0" result="hardAlpha"/>
<feMorphology radius="16" operator="erode" in="SourceAlpha" result="effect4_dropShadow_5427_41496"/>
<feOffset dy="24"/>
<feGaussianBlur stdDeviation="12"/>
<feComposite in2="hardAlpha" operator="out"/>
<feColorMatrix type="matrix" values="0 0 0 0 0.0313726 0 0 0 0 0.0313726 0 0 0 0 0.0313726 0 0 0 0.04 0"/>
<feBlend mode="normal" in2="effect3_dropShadow_5427_41496" result="effect4_dropShadow_5427_41496"/>
<feColorMatrix in="SourceAlpha" type="matrix" values="0 0 0 0 0 0 0 0 0 0 0 0 0 0 0 0 0 0 127 0" result="hardAlpha"/>
<feMorphology radius="2" operator="erode" in="SourceAlpha" result="effect5_dropShadow_5427_41496"/>
<feOffset dy="2.15"/>
<feGaussianBlur stdDeviation="0.25"/>
<feComposite in2="hardAlpha" operator="out"/>
<feColorMatrix type="matrix" values="0 0 0 0 0 0 0 0 0 0 0 0 0 0 0 0 0 0 0.25 0"/>
<feBlend mode="normal" in2="effect4_dropShadow_5427_41496" result="effect5_dropShadow_5427_41496"/>
<feColorMatrix in="SourceAlpha" type="matrix" values="0 0 0 0 0 0 0 0 0 0 0 0 0 0 0 0 0 0 127 0" result="hardAlpha"/>
<feMorphology radius="12" operator="erode" in="SourceAlpha" result="effect6_dropShadow_5427_41496"/>
<feOffset dy="32"/>
<feGaussianBlur stdDeviation="32"/>
<feComposite in2="hardAlpha" operator="out"/>
<feColorMatrix type="matrix" values="0 0 0 0 0 0 0 0 0 0 0 0 0 0 0 0 0 0 0.075 0"/>
<feBlend mode="multiply" in2="effect5_dropShadow_5427_41496" result="effect6_dropShadow_5427_41496"/>
<feBlend mode="normal" in="SourceGraphic" in2="effect6_dropShadow_5427_41496" result="shape"/>
</filter>
<filter id="filter2_f_5427_41496" x="56.9038" y="43.9043" width="75.1089" height="75.1084" filterUnits="userSpaceOnUse" color-interpolation-filters="sRGB">
<feFlood flood-opacity="0" result="BackgroundImageFix"/>
<feBlend mode="normal" in="SourceGraphic" in2="BackgroundImageFix" result="shape"/>
<feGaussianBlur stdDeviation="15" result="effect1_foregroundBlur_5427_41496"/>
</filter>
<linearGradient id="paint0_linear_5427_41496" x1="117.5" y1="55.4038" x2="117.5" y2="109.404" gradientUnits="userSpaceOnUse">
<stop stop-color="#F6F6F6"/>
<stop offset="1" stop-color="#E6E6E6"/>
</linearGradient>
<clipPath id="clip0_5427_41496">
<rect x="55.5171" y="59.4897" width="42.3457" height="42.3457" rx="12.0988" transform="rotate(-16.4681 55.5171 59.4897)" fill="white"/>
</clipPath>
</defs>
</svg>
