<svg width="304" height="158" viewBox="0 0 304 158" fill="none" xmlns="http://www.w3.org/2000/svg">
<g filter="url(#filter0_dddddd_6146_192)">
<rect x="52" y="20" width="200" height="54" rx="18.1482" fill="#F1F1F1"/>
<rect x="53.1343" y="21.1343" width="197.731" height="51.7315" rx="17.0139" stroke="url(#paint0_linear_6146_192)" stroke-width="2.26852"/>
</g>
<path d="M116.936 52.6852V41.4852H119.016V45.8372H124.104V41.4852H126.184V52.6852H124.104V47.7412H119.016V52.6852H116.936ZM132.158 52.9252C131.288 52.9252 130.526 52.7492 129.87 52.3972C129.214 52.0398 128.702 51.5438 128.334 50.9092C127.971 50.2745 127.79 49.5358 127.79 48.6932C127.79 48.0745 127.894 47.5065 128.102 46.9892C128.315 46.4718 128.614 46.0238 128.998 45.6452C129.387 45.2612 129.84 44.9652 130.358 44.7572C130.88 44.5492 131.451 44.4452 132.07 44.4452C132.742 44.4452 133.342 44.5652 133.87 44.8052C134.398 45.0398 134.835 45.3732 135.182 45.8052C135.534 46.2318 135.779 46.7332 135.918 47.3092C136.062 47.8798 136.08 48.5038 135.974 49.1812H129.718C129.712 49.6025 129.811 49.9705 130.014 50.2852C130.222 50.5998 130.515 50.8478 130.894 51.0292C131.278 51.2052 131.728 51.2932 132.246 51.2932C132.704 51.2932 133.144 51.2265 133.566 51.0932C133.987 50.9598 134.379 50.7625 134.742 50.5012L135.462 51.9332C135.211 52.1358 134.899 52.3118 134.526 52.4612C134.152 52.6105 133.758 52.7252 133.342 52.8052C132.931 52.8852 132.536 52.9252 132.158 52.9252ZM129.838 47.7252H133.99C133.974 47.1865 133.795 46.7652 133.454 46.4612C133.112 46.1518 132.635 45.9972 132.022 45.9972C131.414 45.9972 130.912 46.1518 130.518 46.4612C130.123 46.7652 129.896 47.1865 129.838 47.7252ZM139.631 52.9252C139.087 52.9252 138.605 52.8212 138.183 52.6132C137.762 52.4052 137.431 52.1118 137.191 51.7332C136.951 51.3492 136.831 50.8958 136.831 50.3732C136.831 49.9252 136.943 49.5252 137.167 49.1732C137.391 48.8212 137.735 48.5305 138.199 48.3012C138.663 48.0665 139.255 47.9092 139.975 47.8292C140.701 47.7492 141.559 47.7598 142.551 47.8612L142.583 49.2132C141.933 49.1118 141.365 49.0665 140.879 49.0772C140.394 49.0878 139.991 49.1438 139.671 49.2452C139.357 49.3465 139.119 49.4852 138.959 49.6612C138.805 49.8372 138.727 50.0425 138.727 50.2772C138.727 50.6292 138.855 50.9012 139.111 51.0932C139.367 51.2798 139.717 51.3732 140.159 51.3732C140.538 51.3732 140.877 51.3038 141.175 51.1652C141.479 51.0265 141.719 50.8318 141.895 50.5812C142.071 50.3252 142.159 50.0238 142.159 49.6772V47.6532C142.159 47.3172 142.087 47.0265 141.943 46.7812C141.805 46.5305 141.591 46.3385 141.303 46.2052C141.015 46.0665 140.645 45.9972 140.191 45.9972C139.775 45.9972 139.362 46.0612 138.951 46.1892C138.546 46.3118 138.165 46.5038 137.807 46.7652L137.255 45.3012C137.762 44.9652 138.295 44.7252 138.855 44.5812C139.415 44.4372 139.957 44.3652 140.479 44.3652C141.226 44.3652 141.871 44.4825 142.415 44.7172C142.965 44.9518 143.386 45.3118 143.679 45.7972C143.978 46.2772 144.127 46.8878 144.127 47.6292V52.6852H142.319V51.7732C142.053 52.1412 141.685 52.4265 141.215 52.6292C140.746 52.8265 140.218 52.9252 139.631 52.9252ZM146.072 52.6852V41.1652H148.12V52.6852H146.072ZM153.574 52.9252C152.753 52.9252 152.102 52.6905 151.622 52.2212C151.142 51.7518 150.902 51.0425 150.902 50.0932V42.3652H152.95V44.6852H155.054V46.3492H152.95V49.6852C152.95 50.1972 153.051 50.5598 153.254 50.7732C153.457 50.9812 153.737 51.0852 154.094 51.0852C154.275 51.0852 154.446 51.0638 154.606 51.0212C154.771 50.9785 154.923 50.9225 155.062 50.8532L155.382 52.4852C155.147 52.6078 154.873 52.7118 154.558 52.7972C154.243 52.8825 153.915 52.9252 153.574 52.9252ZM149.214 46.3492V44.6852H151.134V46.3492H149.214ZM156.807 52.6852V41.1652H158.855V46.3732L158.431 45.8932C158.783 45.4185 159.204 45.0585 159.695 44.8132C160.185 44.5678 160.713 44.4452 161.279 44.4452C162.015 44.4452 162.625 44.5918 163.111 44.8852C163.601 45.1785 163.969 45.5598 164.215 46.0292C164.46 46.4985 164.583 46.9945 164.583 47.5172V52.6852H162.535V48.1012C162.535 47.5732 162.372 47.1438 162.047 46.8132C161.727 46.4825 161.287 46.3172 160.727 46.3172C160.353 46.3118 160.025 46.3892 159.743 46.5492C159.46 46.7092 159.241 46.9385 159.087 47.2372C158.932 47.5305 158.855 47.8745 158.855 48.2692V52.6852H156.807ZM166.269 49.0692V47.2852H170.717V49.0692H166.269ZM177.839 52.9252C176.676 52.9252 175.658 52.6852 174.783 52.2052C173.908 51.7252 173.228 51.0505 172.743 50.1812C172.258 49.3065 172.015 48.2798 172.015 47.1012C172.015 46.2425 172.156 45.4585 172.439 44.7492C172.727 44.0345 173.132 43.4158 173.655 42.8932C174.183 42.3652 174.802 41.9598 175.511 41.6772C176.226 41.3892 177.01 41.2452 177.863 41.2452C178.743 41.2452 179.495 41.3572 180.119 41.5812C180.743 41.7998 181.298 42.1118 181.783 42.5172L180.719 44.2212C180.378 43.8958 179.978 43.6558 179.519 43.5012C179.066 43.3412 178.562 43.2612 178.007 43.2612C177.415 43.2612 176.884 43.3492 176.415 43.5252C175.946 43.7012 175.546 43.9572 175.215 44.2932C174.884 44.6238 174.631 45.0238 174.455 45.4932C174.279 45.9625 174.191 46.4905 174.191 47.0772C174.191 47.8825 174.348 48.5705 174.663 49.1412C174.978 49.7065 175.426 50.1412 176.007 50.4452C176.588 50.7492 177.279 50.9012 178.079 50.9012C178.618 50.9012 179.143 50.8185 179.655 50.6532C180.172 50.4878 180.66 50.2238 181.119 49.8612L182.079 51.6132C181.546 52.0292 180.927 52.3518 180.223 52.5812C179.524 52.8105 178.73 52.9252 177.839 52.9252ZM185.555 52.9252C185.011 52.9252 184.528 52.8212 184.107 52.6132C183.686 52.4052 183.355 52.1118 183.115 51.7332C182.875 51.3492 182.755 50.8958 182.755 50.3732C182.755 49.9252 182.867 49.5252 183.091 49.1732C183.315 48.8212 183.659 48.5305 184.123 48.3012C184.587 48.0665 185.179 47.9092 185.899 47.8292C186.624 47.7492 187.483 47.7598 188.475 47.8612L188.507 49.2132C187.856 49.1118 187.288 49.0665 186.803 49.0772C186.318 49.0878 185.915 49.1438 185.595 49.2452C185.28 49.3465 185.043 49.4852 184.883 49.6612C184.728 49.8372 184.651 50.0425 184.651 50.2772C184.651 50.6292 184.779 50.9012 185.035 51.0932C185.291 51.2798 185.64 51.3732 186.083 51.3732C186.462 51.3732 186.8 51.3038 187.099 51.1652C187.403 51.0265 187.643 50.8318 187.819 50.5812C187.995 50.3252 188.083 50.0238 188.083 49.6772V47.6532C188.083 47.3172 188.011 47.0265 187.867 46.7812C187.728 46.5305 187.515 46.3385 187.227 46.2052C186.939 46.0665 186.568 45.9972 186.115 45.9972C185.699 45.9972 185.286 46.0612 184.875 46.1892C184.47 46.3118 184.088 46.5038 183.731 46.7652L183.179 45.3012C183.686 44.9652 184.219 44.7252 184.779 44.5812C185.339 44.4372 185.88 44.3652 186.403 44.3652C187.15 44.3652 187.795 44.4825 188.339 44.7172C188.888 44.9518 189.31 45.3118 189.603 45.7972C189.902 46.2772 190.051 46.8878 190.051 47.6292V52.6852H188.243V51.7732C187.976 52.1412 187.608 52.4265 187.139 52.6292C186.67 52.8265 186.142 52.9252 185.555 52.9252ZM191.995 52.6852V44.6852H194.043V45.7332C194.321 45.2638 194.667 44.9305 195.083 44.7332C195.505 44.5358 195.958 44.4372 196.443 44.4372C196.614 44.4372 196.771 44.4452 196.915 44.4612C197.059 44.4772 197.198 44.5012 197.331 44.5332L197.075 46.6452C196.91 46.5865 196.737 46.5438 196.555 46.5172C196.379 46.4852 196.203 46.4692 196.027 46.4692C195.451 46.4692 194.977 46.6425 194.603 46.9892C194.23 47.3305 194.043 47.8105 194.043 48.4292V52.6852H191.995ZM201.965 52.9252C201.096 52.9252 200.333 52.7492 199.677 52.3972C199.021 52.0398 198.509 51.5438 198.141 50.9092C197.778 50.2745 197.597 49.5358 197.597 48.6932C197.597 48.0745 197.701 47.5065 197.909 46.9892C198.122 46.4718 198.421 46.0238 198.805 45.6452C199.194 45.2612 199.648 44.9652 200.165 44.7572C200.688 44.5492 201.258 44.4452 201.877 44.4452C202.549 44.4452 203.149 44.5652 203.677 44.8052C204.205 45.0398 204.642 45.3732 204.989 45.8052C205.341 46.2318 205.586 46.7332 205.725 47.3092C205.869 47.8798 205.888 48.5038 205.781 49.1812H199.525C199.52 49.6025 199.618 49.9705 199.821 50.2852C200.029 50.5998 200.322 50.8478 200.701 51.0292C201.085 51.2052 201.536 51.2932 202.053 51.2932C202.512 51.2932 202.952 51.2265 203.373 51.0932C203.794 50.9598 204.186 50.7625 204.549 50.5012L205.269 51.9332C205.018 52.1358 204.706 52.3118 204.333 52.4612C203.96 52.6105 203.565 52.7252 203.149 52.8052C202.738 52.8852 202.344 52.9252 201.965 52.9252ZM199.645 47.7252H203.797C203.781 47.1865 203.602 46.7652 203.261 46.4612C202.92 46.1518 202.442 45.9972 201.829 45.9972C201.221 45.9972 200.72 46.1518 200.325 46.4612C199.93 46.7652 199.704 47.1865 199.645 47.7252Z" fill="#1B1A1F"/>
<g filter="url(#filter1_f_6146_192)">
<circle cx="83.7603" cy="57.8087" r="6.04938" fill="#EE1B1B" fill-opacity="0.3"/>
</g>
<rect x="58.0508" y="26.0494" width="42.3457" height="42.3457" rx="12.0988" fill="#EE1B1B" fill-opacity="0.05"/>
<rect x="58.8008" y="26.7994" width="40.8457" height="40.8457" rx="11.3488" stroke="#EE1B1B" stroke-opacity="0.3" stroke-width="1.5"/>
<path d="M71.9521 37.7401C71.5041 37.8104 70.7898 37.9938 70.6203 38.0824C70.5961 38.0946 70.4871 38.1435 70.3782 38.1863C70.2692 38.2321 70.1542 38.2841 70.1209 38.3024C70.0876 38.3208 69.9726 38.3819 69.8636 38.4399C69.7547 38.498 69.6457 38.5622 69.6215 38.5805C69.5973 38.6019 69.5125 38.6569 69.4338 38.7028C69.3521 38.7486 69.2886 38.7975 69.2886 38.8158C69.2886 38.8311 69.2583 38.8556 69.222 38.8708C69.1342 38.9045 68.6408 39.3659 68.4411 39.6012C68.2262 39.8488 68.2262 39.8488 68.096 40.0505C68.0294 40.1513 67.9507 40.2705 67.9205 40.3163C67.6995 40.6494 67.3817 41.4073 67.2637 41.884C67.0185 42.8864 66.9822 44.0905 67.1698 45.0623C67.2727 45.6001 67.4544 46.2847 67.5058 46.3427C67.5209 46.3611 67.533 46.3916 67.533 46.413C67.533 46.5414 67.8902 47.3543 68.1777 47.8891C68.4441 48.3811 68.5137 48.5003 68.7316 48.8334C68.8134 48.9556 68.8951 49.084 68.9132 49.1176C68.9314 49.1481 68.9738 49.2062 69.0071 49.2429C69.0404 49.2795 69.0858 49.3437 69.113 49.3865C69.1402 49.4293 69.1887 49.4996 69.225 49.5393C69.2583 49.5821 69.3975 49.7593 69.5337 49.9366C69.6699 50.1138 69.788 50.2636 69.8001 50.2727C69.8152 50.285 69.9575 50.4439 70.3933 50.942C70.5598 51.1284 71.2983 51.8619 71.3225 51.8619C71.3346 51.8619 71.3467 51.8832 71.3467 51.9077C71.3467 51.9321 71.3588 51.9535 71.374 51.9535C71.3861 51.9535 71.4315 51.9841 71.4739 52.0238C71.6403 52.1736 72.0883 52.5831 72.164 52.6564C72.2094 52.6992 72.2941 52.7695 72.3486 52.8153C72.6028 53.0201 72.8994 53.2584 73.193 53.4876C73.3686 53.6282 73.526 53.7535 73.5441 53.7719C73.5623 53.7871 73.6107 53.8238 73.6471 53.8483C73.6864 53.8727 73.7621 53.9308 73.8135 53.9766C73.868 54.0255 73.9285 54.0622 73.9467 54.0622C73.9649 54.0622 73.9891 54.0836 73.9982 54.108C74.0103 54.1325 74.0405 54.1539 74.0738 54.1539C74.1041 54.1539 74.1404 54.1722 74.1525 54.1966C74.1646 54.218 74.3402 54.3494 74.5399 54.487C74.7397 54.6245 74.9607 54.7773 75.0333 54.8262C75.1059 54.8781 75.1695 54.9178 75.1786 54.9178C75.1846 54.9178 75.2573 54.9637 75.336 55.0187C75.5055 55.1379 75.9443 55.416 76.0079 55.4465C76.0321 55.4588 76.0896 55.4924 76.135 55.5229C76.3076 55.6329 76.695 55.8621 76.8554 55.9447C76.9462 55.9936 77.0279 56.0425 77.037 56.0547C77.0461 56.0669 77.1006 56.0975 77.1581 56.125C77.2156 56.1525 77.3639 56.2258 77.488 56.293C77.6121 56.3603 77.7453 56.4153 77.7876 56.4153C77.8451 56.4153 78.1962 56.2533 78.2477 56.2014C78.2689 56.18 78.4868 56.0608 78.626 55.9905C78.6926 55.9599 78.8621 55.8621 79.0013 55.7766C79.1406 55.691 79.2586 55.6207 79.2647 55.6207C79.2677 55.6207 79.3373 55.5749 79.4221 55.5199C79.5038 55.4679 79.643 55.3793 79.7278 55.3304C79.8125 55.2785 80.1091 55.0859 80.3846 54.9026C80.663 54.7162 80.9203 54.5481 80.9596 54.5267C80.999 54.5053 81.0323 54.4747 81.0323 54.4564C81.0323 54.4411 81.0474 54.4289 81.0626 54.4289C81.0807 54.4289 81.1745 54.3708 81.2714 54.2975C81.3713 54.2272 81.4802 54.1477 81.5166 54.1233C81.6588 54.0255 81.8646 53.8635 81.8737 53.8391C81.8798 53.8269 81.8979 53.8177 81.9131 53.8177C81.9403 53.8177 82.2823 53.5671 82.3671 53.4846C82.3943 53.4571 82.4458 53.4143 82.4851 53.3899C82.5699 53.3318 82.9028 53.0598 82.9997 52.9681C83.042 52.9284 83.151 52.8398 83.2418 52.7695C83.3962 52.6534 83.5082 52.5495 83.8653 52.2133C83.9349 52.1461 84.1559 51.9383 84.3496 51.7549C84.7854 51.3454 84.8914 51.2354 85.1638 50.9298C85.2818 50.7984 85.4029 50.6609 85.4392 50.6272C85.4725 50.5906 85.5905 50.453 85.7025 50.3186C85.8176 50.1841 85.9265 50.0527 85.9477 50.0283C85.9719 50.0038 86.0597 49.8846 86.1475 49.7685C86.2322 49.6493 86.3321 49.5393 86.3684 49.5179C86.4199 49.4904 86.9344 49.4812 88.4811 49.4782C90.7057 49.4782 90.7088 49.4782 90.8873 49.307C90.9993 49.2001 91.0508 49.0626 91.0508 48.8609C91.0508 48.6531 90.9479 48.5003 90.7451 48.3964L90.5847 48.3169H86.0597C82.8756 48.3169 81.4954 48.3077 81.4106 48.2833C81.2078 48.2283 81.0414 48.0785 80.9294 47.8585C80.8749 47.7485 80.7599 47.5224 80.6721 47.3543C80.5874 47.1862 80.5177 47.0364 80.5177 47.0181C80.5177 47.0028 80.4905 46.9539 80.4572 46.9112C80.3997 46.8348 80.3997 46.8348 80.3543 46.8959C80.3271 46.9295 80.2938 47.012 80.2756 47.0792C80.2574 47.1465 80.2241 47.2412 80.1999 47.2932C80.1757 47.342 80.1333 47.4521 80.1091 47.5376C80.0577 47.6935 79.9245 48.0694 79.8791 48.1794C79.8034 48.3627 79.6945 48.6683 79.6218 48.8823C79.5795 49.0167 79.531 49.139 79.5189 49.1573C79.5038 49.1726 79.4463 49.3254 79.3888 49.4935C79.3282 49.6615 79.2465 49.8877 79.2072 49.9977C79.1648 50.1077 79.0528 50.4194 78.9529 50.6914C78.7562 51.2354 78.6684 51.3668 78.4323 51.4921C78.2235 51.6052 77.9238 51.596 77.712 51.4768C77.4517 51.3271 77.4063 51.2476 77.1127 50.343C76.9644 49.8938 76.8282 49.4812 76.807 49.4323C76.7858 49.3804 76.7192 49.1756 76.6556 48.9739C76.5951 48.7723 76.5255 48.5644 76.5073 48.5155C76.4861 48.4636 76.4589 48.375 76.4468 48.3169C76.4347 48.2588 76.4135 48.1947 76.4014 48.1794C76.3862 48.1611 76.359 48.0785 76.3378 47.996C76.3197 47.9105 76.2894 47.828 76.2773 47.8127C76.2652 47.7943 76.241 47.724 76.2228 47.6599C76.2077 47.5926 76.1804 47.4948 76.1623 47.446C76.1441 47.394 76.0261 47.0364 75.8989 46.6514C75.7718 46.2633 75.6538 45.9241 75.6386 45.8905C75.5993 45.8141 75.5509 45.8691 75.4782 46.0708C75.451 46.1533 75.4086 46.2633 75.3874 46.3152C75.3662 46.3641 75.2936 46.5567 75.221 46.7431C75.1483 46.9264 75.0605 47.1465 75.0242 47.232C74.9849 47.3145 74.9243 47.4673 74.888 47.5682C74.7458 47.9532 74.6761 48.0541 74.4643 48.2038L74.3281 48.3016L72.6724 48.3108L71.0168 48.3169L70.8382 48.2375C70.7081 48.1794 70.6264 48.1183 70.5477 48.0113C70.3963 47.8127 70.3661 47.7088 70.3903 47.4704C70.4145 47.2198 70.4932 47.067 70.6566 46.9356C70.9048 46.737 70.8503 46.7431 72.2396 46.7278L73.5078 46.7125L73.5835 46.5597C73.6228 46.4741 73.6803 46.358 73.7136 46.2969C73.7439 46.2358 73.7681 46.1685 73.7681 46.1502C73.7681 46.1197 73.9679 45.6124 74.0738 45.3679C74.0859 45.3343 74.1404 45.1967 74.1919 45.0623C74.2433 44.9278 74.3099 44.7628 74.3402 44.6956C74.3704 44.6283 74.4249 44.4847 74.4643 44.3747C74.5036 44.2647 74.543 44.1608 74.5551 44.1455C74.5672 44.1271 74.6156 44.011 74.661 43.8857C74.7064 43.7604 74.776 43.5832 74.8154 43.4946C74.8547 43.4059 74.888 43.3204 74.888 43.302C74.888 43.244 75.0091 43.03 75.1059 42.92C75.3239 42.6694 75.7022 42.593 76.014 42.7367C76.3015 42.8711 76.3984 43.0453 76.6617 43.901C76.81 44.3838 76.9765 44.8973 77.1914 45.5207C77.2065 45.5696 77.264 45.7438 77.3124 45.9027C77.3639 46.0616 77.4244 46.2419 77.4456 46.3C77.4668 46.358 77.5667 46.6758 77.6726 47.0028C77.7755 47.3298 77.8845 47.6599 77.9178 47.7363C77.948 47.8127 77.9934 47.9563 78.0177 48.0541C78.0903 48.3475 78.1508 48.3566 78.2326 48.0938C78.2628 48.0083 78.3022 47.8921 78.3234 47.8432C78.3445 47.7913 78.3778 47.7027 78.399 47.6446C78.4202 47.5865 78.4898 47.3848 78.5564 47.2015C78.623 47.0151 78.7047 46.7889 78.738 46.6972C78.7713 46.6056 78.8107 46.5169 78.8258 46.4986C78.8409 46.4833 78.853 46.4528 78.853 46.4283C78.853 46.4039 78.9136 46.2297 78.9862 46.0433C79.0589 45.8568 79.1497 45.6062 79.186 45.4901C79.2253 45.3709 79.2677 45.2609 79.2828 45.2395C79.298 45.2212 79.3373 45.1234 79.3676 45.0256C79.4584 44.7414 79.5219 44.5764 79.5522 44.5458C79.5673 44.5275 79.5795 44.4969 79.5795 44.4755C79.5795 44.3747 79.752 44.1883 79.9275 44.1027C80.1878 43.9743 80.2907 43.9621 80.5026 44.0324C80.7236 44.1088 80.887 44.2494 80.9869 44.4511C81.0293 44.5336 81.0747 44.6253 81.0898 44.6497C81.1049 44.6742 81.1503 44.7628 81.1927 44.8484C81.3077 45.0928 81.8798 46.2511 81.91 46.3C81.9252 46.3244 81.9797 46.4314 82.0311 46.5353L82.1219 46.7278H84.9065C86.438 46.7278 87.7426 46.7186 87.8061 46.7095C87.8969 46.6942 87.9272 46.6728 87.9514 46.6086C88.0059 46.4436 88.2389 45.701 88.2813 45.5512C88.3055 45.4657 88.3449 45.267 88.3691 45.1081C88.5446 44.0019 88.5416 43.1278 88.357 42.1958C88.3055 41.9482 88.2541 41.7221 88.2389 41.6915C88.2238 41.664 88.1754 41.5296 88.133 41.392C87.8697 40.5577 87.3067 39.7143 86.5894 39.0664C86.4622 38.9564 86.0627 38.66 86.0355 38.66C86.0173 38.66 85.981 38.6325 85.9507 38.5989C85.8932 38.5347 85.1214 38.1405 85.0518 38.1405C85.0306 38.1405 84.9791 38.1221 84.9337 38.1007C84.6977 37.9754 83.8744 37.7646 83.4234 37.7126C83.0602 37.6698 82.1522 37.6851 81.8435 37.7371C81.6407 37.7737 81.2744 37.8776 80.9839 37.9815C80.6993 38.0824 79.9427 38.5102 79.9427 38.5714C79.9427 38.5836 79.8973 38.6172 79.8428 38.6447C79.7157 38.7028 79.1587 39.2559 78.8712 39.6073C78.8288 39.6593 78.5504 40.0718 78.505 40.1513C78.4898 40.1788 78.4232 40.2858 78.3627 40.3866C78.3022 40.4905 78.1811 40.7289 78.0964 40.9214C77.827 41.5296 77.7967 41.5937 77.7574 41.5937C77.7362 41.5937 77.6938 41.5173 77.6635 41.4226C77.5243 40.9795 76.9462 39.9038 76.7464 39.7143C76.7283 39.696 76.695 39.6501 76.6677 39.6073C76.6133 39.5187 76.2531 39.1184 76.1048 38.9839C76.0473 38.932 75.9595 38.8433 75.908 38.7883C75.8566 38.7364 75.7991 38.6905 75.7779 38.6905C75.7597 38.6905 75.7234 38.6691 75.7022 38.6416C75.569 38.4797 74.8214 38.0671 74.4279 37.9418C74.2887 37.896 74.1555 37.8471 74.1283 37.8349C74.0768 37.8074 73.9104 37.7737 73.523 37.7126C73.2142 37.6637 72.3516 37.679 71.9521 37.7401Z" fill="#E01717"/>
<path d="M233 27V27C239.627 27 245 32.3726 245 39V39" stroke="#EE1B1B" stroke-width="2.26852" stroke-linecap="round"/>
<defs>
<filter id="filter0_dddddd_6146_192" x="0" y="0" width="304" height="158" filterUnits="userSpaceOnUse" color-interpolation-filters="sRGB">
<feFlood flood-opacity="0" result="BackgroundImageFix"/>
<feColorMatrix in="SourceAlpha" type="matrix" values="0 0 0 0 0 0 0 0 0 0 0 0 0 0 0 0 0 0 127 0" result="hardAlpha"/>
<feMorphology radius="4" operator="erode" in="SourceAlpha" result="effect1_dropShadow_6146_192"/>
<feOffset dy="5"/>
<feGaussianBlur stdDeviation="0.75"/>
<feComposite in2="hardAlpha" operator="out"/>
<feColorMatrix type="matrix" values="0 0 0 0 0.0313726 0 0 0 0 0.0313726 0 0 0 0 0.0313726 0 0 0 0.05 0"/>
<feBlend mode="normal" in2="BackgroundImageFix" result="effect1_dropShadow_6146_192"/>
<feColorMatrix in="SourceAlpha" type="matrix" values="0 0 0 0 0 0 0 0 0 0 0 0 0 0 0 0 0 0 127 0" result="hardAlpha"/>
<feMorphology radius="4" operator="erode" in="SourceAlpha" result="effect2_dropShadow_6146_192"/>
<feOffset dy="6"/>
<feGaussianBlur stdDeviation="2"/>
<feComposite in2="hardAlpha" operator="out"/>
<feColorMatrix type="matrix" values="0 0 0 0 0.0313726 0 0 0 0 0.0313726 0 0 0 0 0.0313726 0 0 0 0.05 0"/>
<feBlend mode="normal" in2="effect1_dropShadow_6146_192" result="effect2_dropShadow_6146_192"/>
<feColorMatrix in="SourceAlpha" type="matrix" values="0 0 0 0 0 0 0 0 0 0 0 0 0 0 0 0 0 0 127 0" result="hardAlpha"/>
<feOffset dy="6"/>
<feGaussianBlur stdDeviation="6.5"/>
<feComposite in2="hardAlpha" operator="out"/>
<feColorMatrix type="matrix" values="0 0 0 0 0.0313726 0 0 0 0 0.0313726 0 0 0 0 0.0313726 0 0 0 0.03 0"/>
<feBlend mode="normal" in2="effect2_dropShadow_6146_192" result="effect3_dropShadow_6146_192"/>
<feColorMatrix in="SourceAlpha" type="matrix" values="0 0 0 0 0 0 0 0 0 0 0 0 0 0 0 0 0 0 127 0" result="hardAlpha"/>
<feMorphology radius="16" operator="erode" in="SourceAlpha" result="effect4_dropShadow_6146_192"/>
<feOffset dy="24"/>
<feGaussianBlur stdDeviation="12"/>
<feComposite in2="hardAlpha" operator="out"/>
<feColorMatrix type="matrix" values="0 0 0 0 0.0313726 0 0 0 0 0.0313726 0 0 0 0 0.0313726 0 0 0 0.04 0"/>
<feBlend mode="normal" in2="effect3_dropShadow_6146_192" result="effect4_dropShadow_6146_192"/>
<feColorMatrix in="SourceAlpha" type="matrix" values="0 0 0 0 0 0 0 0 0 0 0 0 0 0 0 0 0 0 127 0" result="hardAlpha"/>
<feMorphology radius="2" operator="erode" in="SourceAlpha" result="effect5_dropShadow_6146_192"/>
<feOffset dy="2.15"/>
<feGaussianBlur stdDeviation="0.25"/>
<feComposite in2="hardAlpha" operator="out"/>
<feColorMatrix type="matrix" values="0 0 0 0 0 0 0 0 0 0 0 0 0 0 0 0 0 0 0.25 0"/>
<feBlend mode="normal" in2="effect4_dropShadow_6146_192" result="effect5_dropShadow_6146_192"/>
<feColorMatrix in="SourceAlpha" type="matrix" values="0 0 0 0 0 0 0 0 0 0 0 0 0 0 0 0 0 0 127 0" result="hardAlpha"/>
<feMorphology radius="12" operator="erode" in="SourceAlpha" result="effect6_dropShadow_6146_192"/>
<feOffset dy="32"/>
<feGaussianBlur stdDeviation="32"/>
<feComposite in2="hardAlpha" operator="out"/>
<feColorMatrix type="matrix" values="0 0 0 0 0 0 0 0 0 0 0 0 0 0 0 0 0 0 0.075 0"/>
<feBlend mode="multiply" in2="effect5_dropShadow_6146_192" result="effect6_dropShadow_6146_192"/>
<feBlend mode="normal" in="SourceGraphic" in2="effect6_dropShadow_6146_192" result="shape"/>
</filter>
<filter id="filter1_f_6146_192" x="74.6862" y="48.7346" width="18.148" height="18.1481" filterUnits="userSpaceOnUse" color-interpolation-filters="sRGB">
<feFlood flood-opacity="0" result="BackgroundImageFix"/>
<feBlend mode="normal" in="SourceGraphic" in2="BackgroundImageFix" result="shape"/>
<feGaussianBlur stdDeviation="1.51235" result="effect1_foregroundBlur_6146_192"/>
</filter>
<linearGradient id="paint0_linear_6146_192" x1="152" y1="20" x2="152" y2="74" gradientUnits="userSpaceOnUse">
<stop stop-color="#F6F6F6"/>
<stop offset="1" stop-color="#E6E6E6"/>
</linearGradient>
</defs>
</svg>
