<svg width="144" height="144" viewBox="0 0 144 144" fill="none" xmlns="http://www.w3.org/2000/svg">
<g filter="url(#filter0_dddddd_6137_688)">
<rect x="52" y="20" width="40" height="40" rx="9.41015" fill="#F1F1F1"/>
<rect x="52.5881" y="20.5881" width="38.8237" height="38.8237" rx="8.82202" stroke="url(#paint0_linear_6137_688)" stroke-width="1.17627"/>
</g>
<g filter="url(#filter1_f_6137_688)">
<circle cx="75.3928" cy="46.25" r="3.85714" fill="#EE1B1B" fill-opacity="0.3"/>
</g>
<rect x="58" y="26" width="28" height="28" rx="8" fill="#EE1B1B" fill-opacity="0.05"/>
<rect x="58.4782" y="26.4782" width="27.0436" height="27.0436" rx="7.52179" stroke="#EE1B1B" stroke-opacity="0.3" stroke-width="0.956414"/>
<path d="M67.9508 34.5412C67.6652 34.586 67.2097 34.7029 67.1017 34.7595C67.0862 34.7672 67.0167 34.7984 66.9473 34.8257C66.8778 34.8549 66.8045 34.8881 66.7832 34.8997C66.762 34.9114 66.6887 34.9504 66.6192 34.9874C66.5497 35.0245 66.4802 35.0654 66.4648 35.0771C66.4494 35.0907 66.3953 35.1258 66.3451 35.155C66.293 35.1842 66.2525 35.2154 66.2525 35.2271C66.2525 35.2368 66.2332 35.2524 66.2101 35.2622C66.1541 35.2836 65.8395 35.5778 65.7121 35.7279C65.5751 35.8857 65.5751 35.8857 65.4921 36.0143C65.4497 36.0786 65.3995 36.1546 65.3802 36.1838C65.2393 36.3962 65.0367 36.8795 64.9614 37.1834C64.8051 37.8225 64.7819 38.5903 64.9016 39.2099C64.9672 39.5528 65.083 39.9893 65.1158 40.0263C65.1255 40.038 65.1332 40.0575 65.1332 40.0711C65.1332 40.153 65.3609 40.6713 65.5442 41.0123C65.7141 41.326 65.7585 41.402 65.8974 41.6144C65.9495 41.6923 66.0016 41.7742 66.0132 41.7956C66.0248 41.8151 66.0518 41.8521 66.073 41.8755C66.0943 41.8989 66.1232 41.9398 66.1406 41.9671C66.1579 41.9943 66.1888 42.0392 66.212 42.0645C66.2332 42.0918 66.322 42.2048 66.4088 42.3178C66.4957 42.4308 66.5709 42.5263 66.5787 42.5321C66.5883 42.5399 66.679 42.6412 66.9569 42.9589C67.0631 43.0777 67.5339 43.5454 67.5494 43.5454C67.5571 43.5454 67.5648 43.559 67.5648 43.5746C67.5648 43.5902 67.5725 43.6038 67.5822 43.6038C67.5899 43.6038 67.6189 43.6233 67.6459 43.6486C67.752 43.7441 68.0376 44.0052 68.0859 44.052C68.1148 44.0793 68.1689 44.1241 68.2036 44.1533C68.3657 44.2839 68.5548 44.4358 68.742 44.582C68.854 44.6716 68.9543 44.7515 68.9659 44.7632C68.9775 44.7729 69.0084 44.7963 69.0315 44.8119C69.0566 44.8275 69.1049 44.8645 69.1377 44.8937C69.1724 44.9249 69.211 44.9483 69.2226 44.9483C69.2342 44.9483 69.2496 44.9619 69.2554 44.9775C69.2631 44.9931 69.2824 45.0068 69.3036 45.0068C69.3229 45.0068 69.3461 45.0185 69.3538 45.034C69.3615 45.0477 69.4735 45.1315 69.6008 45.2191C69.7282 45.3068 69.8691 45.4043 69.9154 45.4354C69.9617 45.4686 70.0023 45.4939 70.008 45.4939C70.0119 45.4939 70.0582 45.5231 70.1084 45.5582C70.2165 45.6342 70.4963 45.8115 70.5368 45.831C70.5523 45.8388 70.5889 45.8602 70.6179 45.8797C70.7279 45.9498 70.9749 46.096 71.0772 46.1486C71.1351 46.1798 71.1872 46.2109 71.193 46.2187C71.1988 46.2265 71.2335 46.246 71.2702 46.2636C71.3068 46.2811 71.4014 46.3279 71.4805 46.3707C71.5597 46.4136 71.6446 46.4487 71.6716 46.4487C71.7083 46.4487 71.9321 46.3454 71.9649 46.3123C71.9784 46.2986 72.1174 46.2226 72.2062 46.1778C72.2486 46.1583 72.3567 46.096 72.4455 46.0414C72.5342 45.9869 72.6095 45.9421 72.6134 45.9421C72.6153 45.9421 72.6597 45.9128 72.7137 45.8778C72.7658 45.8446 72.8546 45.7881 72.9086 45.7569C72.9627 45.7238 73.1518 45.6011 73.3274 45.4841C73.505 45.3653 73.669 45.2581 73.6941 45.2445C73.7192 45.2308 73.7404 45.2114 73.7404 45.1997C73.7404 45.1899 73.7501 45.1821 73.7597 45.1821C73.7713 45.1821 73.8311 45.1451 73.8929 45.0983C73.9566 45.0535 74.026 45.0029 74.0492 44.9873C74.1399 44.9249 74.2711 44.8216 74.2769 44.8061C74.2808 44.7983 74.2924 44.7924 74.302 44.7924C74.3194 44.7924 74.5375 44.6326 74.5915 44.58C74.6089 44.5625 74.6417 44.5352 74.6668 44.5196C74.7208 44.4826 74.9331 44.3092 74.9948 44.2507C75.0219 44.2254 75.0913 44.1689 75.1492 44.1241C75.2477 44.05 75.3191 43.9838 75.5468 43.7694C75.5912 43.7266 75.7321 43.5941 75.8556 43.4772C76.1335 43.2161 76.201 43.1459 76.3747 42.9511C76.45 42.8673 76.5272 42.7796 76.5503 42.7582C76.5715 42.7348 76.6468 42.6471 76.7182 42.5614C76.7916 42.4756 76.861 42.3918 76.8745 42.3762C76.89 42.3607 76.9459 42.2847 77.0019 42.2106C77.0559 42.1346 77.1196 42.0645 77.1428 42.0508C77.1756 42.0333 77.5037 42.0275 78.4898 42.0255C79.9083 42.0255 79.9102 42.0255 80.0241 41.9164C80.0955 41.8482 80.1283 41.7605 80.1283 41.6319C80.1283 41.4994 80.0627 41.402 79.9334 41.3357L79.8311 41.2851H76.9459C74.9157 41.2851 74.0357 41.2792 73.9817 41.2636C73.8524 41.2286 73.7462 41.1331 73.6748 40.9928C73.6401 40.9226 73.5667 40.7785 73.5108 40.6713C73.4567 40.5641 73.4123 40.4686 73.4123 40.4569C73.4123 40.4472 73.395 40.416 73.3737 40.3887C73.3371 40.34 73.3371 40.34 73.3081 40.379C73.2908 40.4004 73.2695 40.4531 73.258 40.4959C73.2464 40.5388 73.2251 40.5992 73.2097 40.6323C73.1943 40.6635 73.1672 40.7336 73.1518 40.7882C73.119 40.8876 73.0341 41.1272 73.0051 41.1974C72.9569 41.3143 72.8874 41.5092 72.8411 41.6455C72.8141 41.7313 72.7832 41.8092 72.7755 41.8209C72.7658 41.8307 72.7292 41.9281 72.6925 42.0353C72.6539 42.1424 72.6018 42.2866 72.5767 42.3568C72.5497 42.4269 72.4783 42.6257 72.4146 42.7991C72.2892 43.1459 72.2332 43.2297 72.0827 43.3096C71.9495 43.3817 71.7584 43.3758 71.6233 43.2998C71.4574 43.2044 71.4284 43.1537 71.2412 42.5769C71.1467 42.2905 71.0598 42.0275 71.0463 41.9963C71.0328 41.9632 70.9903 41.8326 70.9498 41.704C70.9112 41.5754 70.8668 41.4429 70.8553 41.4117C70.8417 41.3786 70.8244 41.3221 70.8167 41.2851C70.8089 41.248 70.7954 41.2071 70.7877 41.1974C70.7781 41.1857 70.7607 41.1331 70.7472 41.0805C70.7356 41.0259 70.7163 40.9733 70.7086 40.9636C70.7009 40.9519 70.6854 40.9071 70.6739 40.8661C70.6642 40.8233 70.6468 40.7609 70.6353 40.7297C70.6237 40.6966 70.5484 40.4686 70.4674 40.2231C70.3863 39.9757 70.311 39.7594 70.3014 39.7379C70.2763 39.6892 70.2454 39.7243 70.1991 39.8529C70.1817 39.9055 70.1547 39.9757 70.1412 40.0088C70.1277 40.04 70.0814 40.1627 70.0351 40.2816C69.9887 40.3985 69.9328 40.5388 69.9096 40.5933C69.8845 40.646 69.8459 40.7434 69.8228 40.8077C69.7321 41.0532 69.6877 41.1175 69.5526 41.213L69.4657 41.2753L68.4101 41.2812L67.3545 41.2851L67.2406 41.2344C67.1576 41.1974 67.1055 41.1584 67.0553 41.0902C66.9588 40.9636 66.9395 40.8973 66.955 40.7453C66.9704 40.5856 67.0206 40.4881 67.1248 40.4043C67.2831 40.2777 67.2483 40.2816 68.1341 40.2718L68.9428 40.2621L68.991 40.1647C69.0161 40.1101 69.0528 40.0361 69.074 39.9971C69.0933 39.9581 69.1087 39.9153 69.1087 39.9036C69.1087 39.8841 69.2361 39.5606 69.3036 39.4047C69.3114 39.3833 69.3461 39.2956 69.3789 39.2099C69.4117 39.1242 69.4542 39.0189 69.4735 38.9761C69.4928 38.9332 69.5275 38.8416 69.5526 38.7715C69.5777 38.7013 69.6028 38.6351 69.6105 38.6253C69.6182 38.6136 69.6491 38.5396 69.678 38.4597C69.707 38.3798 69.7514 38.2668 69.7765 38.2103C69.8015 38.1538 69.8228 38.0992 69.8228 38.0875C69.8228 38.0505 69.9 37.9141 69.9617 37.844C70.1007 37.6842 70.3419 37.6355 70.5407 37.7271C70.724 37.8128 70.7858 37.9239 70.9537 38.4694C71.0482 38.7773 71.1544 39.1047 71.2914 39.5022C71.3011 39.5333 71.3377 39.6444 71.3686 39.7457C71.4014 39.8471 71.44 39.962 71.4535 39.999C71.467 40.0361 71.5307 40.2387 71.5983 40.4472C71.6639 40.6557 71.7334 40.8661 71.7546 40.9149C71.7739 40.9636 71.8028 41.0551 71.8183 41.1175C71.8646 41.3046 71.9032 41.3104 71.9553 41.1428C71.9746 41.0883 71.9997 41.0142 72.0132 40.983C72.0267 40.9499 72.0479 40.8934 72.0614 40.8564C72.0749 40.8194 72.1193 40.6908 72.1618 40.5739C72.2042 40.455 72.2563 40.3108 72.2776 40.2524C72.2988 40.1939 72.3239 40.1374 72.3335 40.1257C72.3432 40.116 72.3509 40.0965 72.3509 40.0809C72.3509 40.0653 72.3895 39.9542 72.4358 39.8354C72.4821 39.7165 72.54 39.5567 72.5632 39.4827C72.5883 39.4067 72.6153 39.3365 72.625 39.3229C72.6346 39.3112 72.6597 39.2489 72.679 39.1865C72.7369 39.0053 72.7774 38.9001 72.7967 38.8806C72.8064 38.8689 72.8141 38.8494 72.8141 38.8358C72.8141 38.7715 72.9241 38.6526 73.036 38.5981C73.202 38.5162 73.2676 38.5084 73.4027 38.5532C73.5436 38.6019 73.6478 38.6916 73.7115 38.8202C73.7385 38.8728 73.7674 38.9313 73.7771 38.9468C73.7867 38.9624 73.8157 39.0189 73.8427 39.0735C73.916 39.2294 74.2808 39.9679 74.3001 39.999C74.3097 40.0146 74.3445 40.0828 74.3773 40.1491L74.4352 40.2718H76.2107C77.1872 40.2718 78.019 40.266 78.0595 40.2601C78.1174 40.2504 78.1367 40.2368 78.1521 40.1958C78.1869 40.0906 78.3355 39.6171 78.3625 39.5217C78.3779 39.4671 78.403 39.3404 78.4184 39.2391C78.5304 38.5338 78.5284 37.9765 78.4107 37.3822C78.3779 37.2243 78.3451 37.0801 78.3355 37.0607C78.3258 37.0431 78.2949 36.9574 78.2679 36.8697C78.1 36.3378 77.7411 35.8 77.2837 35.3869C77.2026 35.3167 76.9479 35.1277 76.9305 35.1277C76.9189 35.1277 76.8958 35.1102 76.8765 35.0888C76.8398 35.0478 76.3477 34.7965 76.3033 34.7965C76.2898 34.7965 76.257 34.7848 76.228 34.7711C76.0775 34.6913 75.5526 34.5568 75.265 34.5237C75.0334 34.4964 74.4545 34.5061 74.2576 34.5393C74.1283 34.5627 73.8948 34.6289 73.7095 34.6952C73.5281 34.7595 73.0457 35.0322 73.0457 35.0712C73.0457 35.079 73.0167 35.1004 72.982 35.118C72.9009 35.155 72.5458 35.5077 72.3625 35.7318C72.3355 35.7649 72.1579 36.0279 72.129 36.0786C72.1193 36.0961 72.0769 36.1643 72.0383 36.2286C71.9997 36.2949 71.9225 36.4469 71.8684 36.5696C71.6967 36.9574 71.6774 36.9983 71.6523 36.9983C71.6388 36.9983 71.6118 36.9496 71.5925 36.8892C71.5037 36.6067 71.1351 35.9208 71.0077 35.8C70.9961 35.7883 70.9749 35.759 70.9575 35.7318C70.9228 35.6753 70.6931 35.42 70.5986 35.3343C70.5619 35.3011 70.506 35.2446 70.4731 35.2096C70.4403 35.1764 70.4037 35.1472 70.3902 35.1472C70.3786 35.1472 70.3554 35.1336 70.3419 35.116C70.257 35.0128 69.7803 34.7497 69.5294 34.6698C69.4407 34.6406 69.3557 34.6094 69.3384 34.6016C69.3056 34.5841 69.1994 34.5627 68.9524 34.5237C68.7556 34.4925 68.2055 34.5022 67.9508 34.5412Z" fill="#E01717"/>
<defs>
<filter id="filter0_dddddd_6137_688" x="0" y="0" width="144" height="144" filterUnits="userSpaceOnUse" color-interpolation-filters="sRGB">
<feFlood flood-opacity="0" result="BackgroundImageFix"/>
<feColorMatrix in="SourceAlpha" type="matrix" values="0 0 0 0 0 0 0 0 0 0 0 0 0 0 0 0 0 0 127 0" result="hardAlpha"/>
<feMorphology radius="4" operator="erode" in="SourceAlpha" result="effect1_dropShadow_6137_688"/>
<feOffset dy="5"/>
<feGaussianBlur stdDeviation="0.75"/>
<feComposite in2="hardAlpha" operator="out"/>
<feColorMatrix type="matrix" values="0 0 0 0 0.0313726 0 0 0 0 0.0313726 0 0 0 0 0.0313726 0 0 0 0.05 0"/>
<feBlend mode="normal" in2="BackgroundImageFix" result="effect1_dropShadow_6137_688"/>
<feColorMatrix in="SourceAlpha" type="matrix" values="0 0 0 0 0 0 0 0 0 0 0 0 0 0 0 0 0 0 127 0" result="hardAlpha"/>
<feMorphology radius="4" operator="erode" in="SourceAlpha" result="effect2_dropShadow_6137_688"/>
<feOffset dy="6"/>
<feGaussianBlur stdDeviation="2"/>
<feComposite in2="hardAlpha" operator="out"/>
<feColorMatrix type="matrix" values="0 0 0 0 0.0313726 0 0 0 0 0.0313726 0 0 0 0 0.0313726 0 0 0 0.05 0"/>
<feBlend mode="normal" in2="effect1_dropShadow_6137_688" result="effect2_dropShadow_6137_688"/>
<feColorMatrix in="SourceAlpha" type="matrix" values="0 0 0 0 0 0 0 0 0 0 0 0 0 0 0 0 0 0 127 0" result="hardAlpha"/>
<feOffset dy="6"/>
<feGaussianBlur stdDeviation="6.5"/>
<feComposite in2="hardAlpha" operator="out"/>
<feColorMatrix type="matrix" values="0 0 0 0 0.0313726 0 0 0 0 0.0313726 0 0 0 0 0.0313726 0 0 0 0.03 0"/>
<feBlend mode="normal" in2="effect2_dropShadow_6137_688" result="effect3_dropShadow_6137_688"/>
<feColorMatrix in="SourceAlpha" type="matrix" values="0 0 0 0 0 0 0 0 0 0 0 0 0 0 0 0 0 0 127 0" result="hardAlpha"/>
<feMorphology radius="16" operator="erode" in="SourceAlpha" result="effect4_dropShadow_6137_688"/>
<feOffset dy="24"/>
<feGaussianBlur stdDeviation="12"/>
<feComposite in2="hardAlpha" operator="out"/>
<feColorMatrix type="matrix" values="0 0 0 0 0.0313726 0 0 0 0 0.0313726 0 0 0 0 0.0313726 0 0 0 0.04 0"/>
<feBlend mode="normal" in2="effect3_dropShadow_6137_688" result="effect4_dropShadow_6137_688"/>
<feColorMatrix in="SourceAlpha" type="matrix" values="0 0 0 0 0 0 0 0 0 0 0 0 0 0 0 0 0 0 127 0" result="hardAlpha"/>
<feMorphology radius="2" operator="erode" in="SourceAlpha" result="effect5_dropShadow_6137_688"/>
<feOffset dy="2.15"/>
<feGaussianBlur stdDeviation="0.25"/>
<feComposite in2="hardAlpha" operator="out"/>
<feColorMatrix type="matrix" values="0 0 0 0 0 0 0 0 0 0 0 0 0 0 0 0 0 0 0.25 0"/>
<feBlend mode="normal" in2="effect4_dropShadow_6137_688" result="effect5_dropShadow_6137_688"/>
<feColorMatrix in="SourceAlpha" type="matrix" values="0 0 0 0 0 0 0 0 0 0 0 0 0 0 0 0 0 0 127 0" result="hardAlpha"/>
<feMorphology radius="12" operator="erode" in="SourceAlpha" result="effect6_dropShadow_6137_688"/>
<feOffset dy="32"/>
<feGaussianBlur stdDeviation="32"/>
<feComposite in2="hardAlpha" operator="out"/>
<feColorMatrix type="matrix" values="0 0 0 0 0 0 0 0 0 0 0 0 0 0 0 0 0 0 0.075 0"/>
<feBlend mode="multiply" in2="effect5_dropShadow_6137_688" result="effect6_dropShadow_6137_688"/>
<feBlend mode="normal" in="SourceGraphic" in2="effect6_dropShadow_6137_688" result="shape"/>
</filter>
<filter id="filter1_f_6137_688" x="69.6071" y="40.4643" width="11.5715" height="11.5714" filterUnits="userSpaceOnUse" color-interpolation-filters="sRGB">
<feFlood flood-opacity="0" result="BackgroundImageFix"/>
<feBlend mode="normal" in="SourceGraphic" in2="BackgroundImageFix" result="shape"/>
<feGaussianBlur stdDeviation="0.964286" result="effect1_foregroundBlur_6137_688"/>
</filter>
<linearGradient id="paint0_linear_6137_688" x1="72" y1="20" x2="72" y2="60" gradientUnits="userSpaceOnUse">
<stop stop-color="#F6F6F6"/>
<stop offset="1" stop-color="#E6E6E6"/>
</linearGradient>
</defs>
</svg>
