<svg width="43" height="43" viewBox="0 0 43 43" fill="none" xmlns="http://www.w3.org/2000/svg">
<g filter="url(#filter0_f_5418_37938)">
<circle cx="25.7603" cy="31.8087" r="6.04938" fill="#EE1B1B" fill-opacity="0.3"/>
</g>
<rect x="0.0507812" y="0.0494385" width="42.3457" height="42.3457" rx="12.0988" fill="#EE1B1B" fill-opacity="0.05"/>
<rect x="0.800781" y="0.799438" width="40.8457" height="40.8457" rx="11.3488" stroke="#EE1B1B" stroke-opacity="0.3" stroke-width="1.5"/>
<path d="M13.9521 11.7401C13.5041 11.8104 12.7898 11.9938 12.6203 12.0824C12.5961 12.0946 12.4871 12.1435 12.3782 12.1863C12.2692 12.2321 12.1542 12.2841 12.1209 12.3024C12.0876 12.3208 11.9726 12.3819 11.8636 12.4399C11.7547 12.498 11.6457 12.5622 11.6215 12.5805C11.5973 12.6019 11.5125 12.6569 11.4338 12.7028C11.3521 12.7486 11.2886 12.7975 11.2886 12.8158C11.2886 12.8311 11.2583 12.8556 11.222 12.8708C11.1342 12.9045 10.6408 13.3659 10.4411 13.6012C10.2262 13.8488 10.2262 13.8488 10.096 14.0505C10.0294 14.1513 9.95074 14.2705 9.92047 14.3163C9.69952 14.6494 9.38171 15.4073 9.26367 15.884C9.0185 16.8864 8.98218 18.0905 9.16984 19.0623C9.27275 19.6001 9.45435 20.2847 9.50581 20.3427C9.52094 20.3611 9.53305 20.3916 9.53305 20.413C9.53305 20.5414 9.8902 21.3543 10.1777 21.8891C10.4441 22.3811 10.5137 22.5003 10.7316 22.8334C10.8134 22.9556 10.8951 23.084 10.9132 23.1176C10.9314 23.1481 10.9738 23.2062 11.0071 23.2429C11.0404 23.2795 11.0858 23.3437 11.113 23.3865C11.1402 23.4293 11.1887 23.4996 11.225 23.5393C11.2583 23.5821 11.3975 23.7593 11.5337 23.9366C11.6699 24.1138 11.788 24.2636 11.8001 24.2727C11.8152 24.285 11.9575 24.4439 12.3933 24.942C12.5598 25.1284 13.2983 25.8619 13.3225 25.8619C13.3346 25.8619 13.3467 25.8832 13.3467 25.9077C13.3467 25.9321 13.3588 25.9535 13.374 25.9535C13.3861 25.9535 13.4315 25.9841 13.4739 26.0238C13.6403 26.1736 14.0883 26.5831 14.164 26.6564C14.2094 26.6992 14.2941 26.7695 14.3486 26.8153C14.6028 27.0201 14.8994 27.2584 15.193 27.4876C15.3686 27.6282 15.526 27.7535 15.5441 27.7719C15.5623 27.7871 15.6107 27.8238 15.6471 27.8483C15.6864 27.8727 15.7621 27.9308 15.8135 27.9766C15.868 28.0255 15.9285 28.0622 15.9467 28.0622C15.9649 28.0622 15.9891 28.0836 15.9982 28.108C16.0103 28.1325 16.0405 28.1539 16.0738 28.1539C16.1041 28.1539 16.1404 28.1722 16.1525 28.1966C16.1646 28.218 16.3402 28.3494 16.5399 28.487C16.7397 28.6245 16.9607 28.7773 17.0333 28.8262C17.1059 28.8781 17.1695 28.9178 17.1786 28.9178C17.1846 28.9178 17.2573 28.9637 17.336 29.0187C17.5055 29.1379 17.9443 29.416 18.0079 29.4465C18.0321 29.4588 18.0896 29.4924 18.135 29.5229C18.3076 29.6329 18.695 29.8621 18.8554 29.9447C18.9462 29.9936 19.0279 30.0425 19.037 30.0547C19.0461 30.0669 19.1006 30.0975 19.1581 30.125C19.2156 30.1525 19.3639 30.2258 19.488 30.293C19.6121 30.3603 19.7453 30.4153 19.7876 30.4153C19.8451 30.4153 20.1962 30.2533 20.2477 30.2014C20.2689 30.18 20.4868 30.0608 20.626 29.9905C20.6926 29.9599 20.8621 29.8621 21.0013 29.7766C21.1406 29.691 21.2586 29.6207 21.2647 29.6207C21.2677 29.6207 21.3373 29.5749 21.4221 29.5199C21.5038 29.4679 21.643 29.3793 21.7278 29.3304C21.8125 29.2785 22.1091 29.0859 22.3846 28.9026C22.663 28.7162 22.9203 28.5481 22.9596 28.5267C22.999 28.5053 23.0323 28.4747 23.0323 28.4564C23.0323 28.4411 23.0474 28.4289 23.0626 28.4289C23.0807 28.4289 23.1745 28.3708 23.2714 28.2975C23.3713 28.2272 23.4802 28.1477 23.5166 28.1233C23.6588 28.0255 23.8646 27.8635 23.8737 27.8391C23.8798 27.8269 23.8979 27.8177 23.9131 27.8177C23.9403 27.8177 24.2823 27.5671 24.3671 27.4846C24.3943 27.4571 24.4458 27.4143 24.4851 27.3899C24.5699 27.3318 24.9028 27.0598 24.9997 26.9681C25.042 26.9284 25.151 26.8398 25.2418 26.7695C25.3962 26.6534 25.5082 26.5495 25.8653 26.2133C25.9349 26.1461 26.1559 25.9383 26.3496 25.7549C26.7854 25.3454 26.8914 25.2354 27.1638 24.9298C27.2818 24.7984 27.4029 24.6609 27.4392 24.6272C27.4725 24.5906 27.5905 24.453 27.7025 24.3186C27.8176 24.1841 27.9265 24.0527 27.9477 24.0283C27.9719 24.0038 28.0597 23.8846 28.1475 23.7685C28.2322 23.6493 28.3321 23.5393 28.3684 23.5179C28.4199 23.4904 28.9344 23.4812 30.4811 23.4782C32.7057 23.4782 32.7088 23.4782 32.8873 23.307C32.9993 23.2001 33.0508 23.0626 33.0508 22.8609C33.0508 22.6531 32.9479 22.5003 32.7451 22.3964L32.5847 22.3169H28.0597C24.8756 22.3169 23.4954 22.3077 23.4106 22.2833C23.2078 22.2283 23.0414 22.0785 22.9294 21.8585C22.8749 21.7485 22.7599 21.5224 22.6721 21.3543C22.5874 21.1862 22.5177 21.0364 22.5177 21.0181C22.5177 21.0028 22.4905 20.9539 22.4572 20.9112C22.3997 20.8348 22.3997 20.8348 22.3543 20.8959C22.3271 20.9295 22.2938 21.012 22.2756 21.0792C22.2574 21.1465 22.2241 21.2412 22.1999 21.2932C22.1757 21.342 22.1333 21.4521 22.1091 21.5376C22.0577 21.6935 21.9245 22.0694 21.8791 22.1794C21.8034 22.3627 21.6945 22.6683 21.6218 22.8823C21.5795 23.0167 21.531 23.139 21.5189 23.1573C21.5038 23.1726 21.4463 23.3254 21.3888 23.4935C21.3282 23.6615 21.2465 23.8877 21.2072 23.9977C21.1648 24.1077 21.0528 24.4194 20.9529 24.6914C20.7562 25.2354 20.6684 25.3668 20.4323 25.4921C20.2235 25.6052 19.9238 25.596 19.712 25.4768C19.4517 25.3271 19.4063 25.2476 19.1127 24.343C18.9644 23.8938 18.8282 23.4812 18.807 23.4323C18.7858 23.3804 18.7192 23.1756 18.6556 22.9739C18.5951 22.7723 18.5255 22.5644 18.5073 22.5155C18.4861 22.4636 18.4589 22.375 18.4468 22.3169C18.4347 22.2588 18.4135 22.1947 18.4014 22.1794C18.3862 22.1611 18.359 22.0785 18.3378 21.996C18.3197 21.9105 18.2894 21.828 18.2773 21.8127C18.2652 21.7943 18.241 21.724 18.2228 21.6599C18.2077 21.5926 18.1804 21.4948 18.1623 21.446C18.1441 21.394 18.0261 21.0364 17.8989 20.6514C17.7718 20.2633 17.6538 19.9241 17.6386 19.8905C17.5993 19.8141 17.5509 19.8691 17.4782 20.0708C17.451 20.1533 17.4086 20.2633 17.3874 20.3152C17.3662 20.3641 17.2936 20.5567 17.221 20.7431C17.1483 20.9264 17.0605 21.1465 17.0242 21.232C16.9849 21.3145 16.9243 21.4673 16.888 21.5682C16.7458 21.9532 16.6761 22.0541 16.4643 22.2038L16.3281 22.3016L14.6724 22.3108L13.0168 22.3169L12.8382 22.2375C12.7081 22.1794 12.6264 22.1183 12.5477 22.0113C12.3963 21.8127 12.3661 21.7088 12.3903 21.4704C12.4145 21.2198 12.4932 21.067 12.6566 20.9356C12.9048 20.737 12.8503 20.7431 14.2396 20.7278L15.5078 20.7125L15.5835 20.5597C15.6228 20.4741 15.6803 20.358 15.7136 20.2969C15.7439 20.2358 15.7681 20.1685 15.7681 20.1502C15.7681 20.1197 15.9679 19.6124 16.0738 19.3679C16.0859 19.3343 16.1404 19.1967 16.1919 19.0623C16.2433 18.9278 16.3099 18.7628 16.3402 18.6956C16.3704 18.6283 16.4249 18.4847 16.4643 18.3747C16.5036 18.2647 16.543 18.1608 16.5551 18.1455C16.5672 18.1271 16.6156 18.011 16.661 17.8857C16.7064 17.7604 16.776 17.5832 16.8154 17.4946C16.8547 17.4059 16.888 17.3204 16.888 17.302C16.888 17.244 17.0091 17.03 17.1059 16.92C17.3239 16.6694 17.7022 16.593 18.014 16.7367C18.3015 16.8711 18.3984 17.0453 18.6617 17.901C18.81 18.3838 18.9765 18.8973 19.1914 19.5207C19.2065 19.5696 19.264 19.7438 19.3124 19.9027C19.3639 20.0616 19.4244 20.2419 19.4456 20.3C19.4668 20.358 19.5667 20.6758 19.6726 21.0028C19.7755 21.3298 19.8845 21.6599 19.9178 21.7363C19.948 21.8127 19.9934 21.9563 20.0177 22.0541C20.0903 22.3475 20.1508 22.3566 20.2326 22.0938C20.2628 22.0083 20.3022 21.8921 20.3234 21.8432C20.3445 21.7913 20.3778 21.7027 20.399 21.6446C20.4202 21.5865 20.4898 21.3848 20.5564 21.2015C20.623 21.0151 20.7047 20.7889 20.738 20.6972C20.7713 20.6056 20.8107 20.5169 20.8258 20.4986C20.8409 20.4833 20.853 20.4528 20.853 20.4283C20.853 20.4039 20.9136 20.2297 20.9862 20.0433C21.0589 19.8568 21.1497 19.6062 21.186 19.4901C21.2253 19.3709 21.2677 19.2609 21.2828 19.2395C21.298 19.2212 21.3373 19.1234 21.3676 19.0256C21.4584 18.7414 21.5219 18.5764 21.5522 18.5458C21.5673 18.5275 21.5795 18.4969 21.5795 18.4755C21.5795 18.3747 21.752 18.1883 21.9275 18.1027C22.1878 17.9743 22.2907 17.9621 22.5026 18.0324C22.7236 18.1088 22.887 18.2494 22.9869 18.4511C23.0293 18.5336 23.0747 18.6253 23.0898 18.6497C23.1049 18.6742 23.1503 18.7628 23.1927 18.8484C23.3077 19.0928 23.8798 20.2511 23.91 20.3C23.9252 20.3244 23.9797 20.4314 24.0311 20.5353L24.1219 20.7278H26.9065C28.438 20.7278 29.7426 20.7186 29.8061 20.7095C29.8969 20.6942 29.9272 20.6728 29.9514 20.6086C30.0059 20.4436 30.2389 19.701 30.2813 19.5512C30.3055 19.4657 30.3449 19.267 30.3691 19.1081C30.5446 18.0019 30.5416 17.1278 30.357 16.1958C30.3055 15.9482 30.2541 15.7221 30.2389 15.6915C30.2238 15.664 30.1754 15.5296 30.133 15.392C29.8697 14.5577 29.3067 13.7143 28.5894 13.0664C28.4622 12.9564 28.0627 12.66 28.0355 12.66C28.0173 12.66 27.981 12.6325 27.9507 12.5989C27.8932 12.5347 27.1214 12.1405 27.0518 12.1405C27.0306 12.1405 26.9791 12.1221 26.9337 12.1007C26.6977 11.9754 25.8744 11.7646 25.4234 11.7126C25.0602 11.6698 24.1522 11.6851 23.8435 11.7371C23.6407 11.7737 23.2744 11.8776 22.9839 11.9815C22.6993 12.0824 21.9427 12.5102 21.9427 12.5714C21.9427 12.5836 21.8973 12.6172 21.8428 12.6447C21.7157 12.7028 21.1587 13.2559 20.8712 13.6073C20.8288 13.6593 20.5504 14.0718 20.505 14.1513C20.4898 14.1788 20.4232 14.2858 20.3627 14.3866C20.3022 14.4905 20.1811 14.7289 20.0964 14.9214C19.827 15.5296 19.7967 15.5937 19.7574 15.5937C19.7362 15.5937 19.6938 15.5173 19.6635 15.4226C19.5243 14.9795 18.9462 13.9038 18.7464 13.7143C18.7283 13.696 18.695 13.6501 18.6677 13.6073C18.6133 13.5187 18.2531 13.1184 18.1048 12.9839C18.0473 12.932 17.9595 12.8433 17.908 12.7883C17.8566 12.7364 17.7991 12.6905 17.7779 12.6905C17.7597 12.6905 17.7234 12.6691 17.7022 12.6416C17.569 12.4797 16.8214 12.0671 16.4279 11.9418C16.2887 11.896 16.1555 11.8471 16.1283 11.8349C16.0768 11.8074 15.9104 11.7737 15.523 11.7126C15.2142 11.6637 14.3516 11.679 13.9521 11.7401Z" fill="#E01717"/>
<defs>
<filter id="filter0_f_5418_37938" x="16.6862" y="22.7346" width="18.148" height="18.1481" filterUnits="userSpaceOnUse" color-interpolation-filters="sRGB">
<feFlood flood-opacity="0" result="BackgroundImageFix"/>
<feBlend mode="normal" in="SourceGraphic" in2="BackgroundImageFix" result="shape"/>
<feGaussianBlur stdDeviation="1.51235" result="effect1_foregroundBlur_5418_37938"/>
</filter>
</defs>
</svg>
