<svg width="306" height="165" viewBox="0 0 306 165" fill="none" xmlns="http://www.w3.org/2000/svg">
<g filter="url(#filter0_dddddd_5631_31394)">
<rect x="52" y="27.2031" width="200" height="54" rx="18.1482" transform="rotate(-2.06395 52 27.2031)" fill="#F1F1F1" fill-opacity="0.1" shape-rendering="crispEdges"/>
<rect x="53.1744" y="28.2958" width="197.731" height="51.7315" rx="17.0139" transform="rotate(-2.06395 53.1744 28.2958)" stroke="url(#paint0_linear_5631_31394)" stroke-opacity="0.1" stroke-width="2.26852" shape-rendering="crispEdges"/>
</g>
<path d="M118.071 57.5283L117.667 46.3356L119.746 46.2606L119.903 50.6098L124.987 50.4266L124.831 46.0774L126.909 46.0025L127.313 57.1952L125.234 57.2701L125.056 52.3293L119.971 52.5126L120.149 57.4534L118.071 57.5283ZM133.291 57.2199C132.423 57.2512 131.654 57.1028 130.986 56.7747C130.317 56.4412 129.788 55.9639 129.397 55.3429C129.012 54.7217 128.804 53.9901 128.774 53.148C128.752 52.5297 128.835 51.9583 129.024 51.4338C129.219 50.9092 129.501 50.4507 129.871 50.0584C130.247 49.6607 130.689 49.3485 131.198 49.122C131.713 48.8953 132.28 48.7709 132.898 48.7486C133.57 48.7244 134.174 48.8227 134.71 49.0435C135.246 49.259 135.695 49.5764 136.057 49.9956C136.424 50.4093 136.687 50.9015 136.847 51.4721C137.011 52.0373 137.052 52.6602 136.97 53.3409L130.718 53.5662C130.728 53.9875 130.84 54.3517 131.054 54.6588C131.273 54.9658 131.575 55.2031 131.96 55.3707C132.35 55.5327 132.804 55.6044 133.321 55.5858C133.779 55.5693 134.216 55.4868 134.633 55.3384C135.049 55.19 135.433 54.9786 135.786 54.7044L136.558 56.1096C136.314 56.3211 136.009 56.5082 135.641 56.6709C135.273 56.8336 134.883 56.9624 134.47 57.0573C134.063 57.1521 133.67 57.2063 133.291 57.2199ZM130.786 52.1068L134.935 51.9573C134.9 51.4196 134.706 51.0049 134.354 50.7134C134.002 50.4166 133.519 50.2792 132.906 50.3013C132.298 50.3232 131.803 50.4958 131.42 50.8192C131.036 51.1372 130.825 51.5664 130.786 52.1068ZM140.76 56.9508C140.217 56.9703 139.73 56.8838 139.302 56.6911C138.873 56.4984 138.532 56.2172 138.279 55.8474C138.025 55.4723 137.889 55.0236 137.87 54.5012C137.854 54.0535 137.951 53.6498 138.163 53.2899C138.374 52.9301 138.707 52.6272 139.163 52.3813C139.618 52.1301 140.204 51.9515 140.92 51.8457C141.642 51.7396 142.501 51.7193 143.496 51.7849L143.577 53.1348C142.923 53.057 142.353 53.0322 141.869 53.0603C141.384 53.0884 140.984 53.1589 140.668 53.2717C140.357 53.3843 140.125 53.5314 139.971 53.7131C139.823 53.8945 139.753 54.1025 139.761 54.337C139.774 54.6888 139.912 54.956 140.175 55.1387C140.437 55.316 140.79 55.3967 141.232 55.3807C141.61 55.3671 141.946 55.2856 142.24 55.1363C142.539 54.9868 142.771 54.7836 142.938 54.5267C143.105 54.2646 143.182 53.9603 143.17 53.6138L143.097 51.5911C143.085 51.2553 143.002 50.9675 142.849 50.7275C142.702 50.482 142.482 50.2978 142.189 50.1749C141.896 50.0467 141.523 49.9907 141.07 50.0071C140.655 50.0221 140.244 50.1009 139.838 50.2436C139.437 50.3808 139.063 50.5864 138.716 50.8604L138.111 49.4173C138.605 49.0632 139.13 48.8042 139.684 48.6401C140.239 48.476 140.777 48.3846 141.299 48.3658C142.046 48.3389 142.695 48.4329 143.247 48.6478C143.804 48.8625 144.238 49.2071 144.549 49.6816C144.865 50.1505 145.036 50.7554 145.063 51.4963L145.245 56.549L143.438 56.6141L143.405 55.7027C143.152 56.0801 142.794 56.3785 142.333 56.5979C141.871 56.812 141.346 56.9296 140.76 56.9508ZM147.188 56.479L146.773 44.9664L148.82 44.8927L149.234 56.4052L147.188 56.479ZM154.694 56.4486C153.873 56.4782 153.214 56.2671 152.718 55.8154C152.221 55.3636 151.956 54.6634 151.922 53.7147L151.643 45.9917L153.69 45.9179L153.773 48.2364L155.876 48.1607L155.936 49.8236L153.833 49.8993L153.953 53.2332C153.972 53.7449 154.086 54.1036 154.296 54.3095C154.507 54.5101 154.79 54.6039 155.147 54.5911C155.328 54.5845 155.498 54.5571 155.657 54.5087C155.82 54.4601 155.97 54.3986 156.106 54.3244L156.485 55.9438C156.255 56.0748 155.984 56.1886 155.673 56.2853C155.361 56.3819 155.035 56.4363 154.694 56.4486ZM150.1 50.0339L150.04 48.371L151.959 48.3018L152.019 49.9648L150.1 50.0339ZM157.916 56.0923L157.501 44.5798L159.548 44.5061L159.735 49.7107L159.294 49.2463C159.629 48.7592 160.037 48.3843 160.518 48.1214C161 47.8586 161.523 47.717 162.088 47.6966C162.824 47.6701 163.439 47.7947 163.935 48.0704C164.436 48.3458 164.817 48.7137 165.079 49.1739C165.341 49.634 165.482 50.1253 165.501 50.6476L165.687 55.8123L163.64 55.886L163.475 51.305C163.456 50.7774 163.278 50.3542 162.941 50.0354C162.609 49.7165 162.164 49.5671 161.604 49.5873C161.231 49.5954 160.906 49.6845 160.629 49.8546C160.352 50.0247 160.142 50.2617 159.998 50.5658C159.854 50.8645 159.789 51.211 159.803 51.6054L159.962 56.0186L157.916 56.0923ZM176.539 55.6614C175.377 55.7032 174.35 55.5001 173.459 55.0519C172.567 54.6037 171.863 53.954 171.347 53.1027C170.831 52.246 170.551 51.2288 170.509 50.0509C170.478 49.1928 170.591 48.4042 170.848 47.6851C171.11 46.9606 171.492 46.3277 171.996 45.7866C172.505 45.2399 173.108 44.8125 173.807 44.5045C174.511 44.1909 175.289 44.0188 176.142 43.9881C177.021 43.9564 177.777 44.0412 178.409 44.2426C179.04 44.4387 179.606 44.7305 180.105 45.1181L179.103 46.8593C178.75 46.5465 178.342 46.321 177.878 46.183C177.419 46.0394 176.913 45.9776 176.358 45.9976C175.767 46.0189 175.24 46.126 174.777 46.3187C174.314 46.5115 173.924 46.7818 173.605 47.1295C173.287 47.4718 173.048 47.8807 172.889 48.3561C172.73 48.8314 172.661 49.3622 172.682 49.9485C172.711 50.7533 172.893 51.4352 173.228 51.9942C173.563 52.5478 174.027 52.9661 174.618 53.2489C175.21 53.5318 175.906 53.6588 176.706 53.63C177.244 53.6106 177.766 53.5091 178.272 53.3254C178.783 53.1416 179.261 52.8602 179.706 52.4812L180.729 54.1975C180.211 54.6324 179.604 54.9772 178.909 55.2317C178.219 55.4861 177.429 55.6293 176.539 55.6614ZM185.729 55.3302C184.876 55.3609 184.112 55.1963 183.437 54.8364C182.768 54.4709 182.235 53.9751 181.839 53.349C181.442 52.7175 181.23 52.018 181.203 51.2505C181.182 50.6856 181.269 50.1434 181.464 49.624C181.659 49.1047 181.944 48.6435 182.319 48.2404C182.699 47.8317 183.152 47.5059 183.677 47.2628C184.201 47.0144 184.784 46.8787 185.423 46.8557C186.271 46.8251 187.029 46.9899 187.698 47.35C188.373 47.71 188.909 48.2057 189.305 48.8371C189.707 49.4684 189.921 50.1678 189.949 50.9353C189.969 51.5003 189.879 52.0425 189.679 52.5621C189.484 53.0761 189.2 53.5373 188.825 53.9458C188.45 54.3542 188 54.6826 187.475 54.931C186.95 55.1741 186.368 55.3071 185.729 55.3302ZM185.656 53.5396C186.109 53.5233 186.508 53.4102 186.853 53.2003C187.202 52.9849 187.472 52.6923 187.661 52.3226C187.851 51.9475 187.936 51.5095 187.918 51.0085C187.9 50.5075 187.783 50.0768 187.568 49.7163C187.352 49.3558 187.064 49.0833 186.706 48.8988C186.347 48.7143 185.941 48.6302 185.488 48.6465C185.035 48.6628 184.633 48.776 184.283 48.9861C183.938 49.196 183.671 49.4885 183.482 49.8635C183.298 50.2384 183.215 50.6763 183.233 51.1773C183.251 51.6783 183.368 52.1091 183.584 52.4695C183.8 52.8247 184.087 53.0972 184.446 53.287C184.805 53.4716 185.208 53.5558 185.656 53.5396ZM193.689 55.0433C193.145 55.0629 192.659 54.9763 192.231 54.7836C191.802 54.5909 191.461 54.3097 191.208 53.9399C190.954 53.5648 190.818 53.1161 190.799 52.5938C190.783 52.1461 190.88 51.7423 191.091 51.3825C191.303 51.0226 191.636 50.7198 192.091 50.4739C192.547 50.2226 193.133 50.0441 193.849 49.9382C194.571 49.8321 195.43 49.8119 196.425 49.8774L196.505 51.2274C195.851 51.1495 195.282 51.1247 194.798 51.1528C194.313 51.181 193.913 51.2514 193.596 51.3642C193.286 51.4768 193.053 51.624 192.9 51.8056C192.752 51.9871 192.682 52.195 192.69 52.4296C192.703 52.7813 192.841 53.0485 193.103 53.2312C193.366 53.4085 193.718 53.4892 194.161 53.4733C194.539 53.4596 194.875 53.3782 195.169 53.2288C195.467 53.0793 195.7 52.8761 195.867 52.6193C196.034 52.3571 196.111 52.0528 196.098 51.7063L196.025 49.6837C196.013 49.3479 195.931 49.06 195.778 48.82C195.631 48.5745 195.41 48.3903 195.118 48.2674C194.825 48.1392 194.452 48.0833 193.999 48.0996C193.583 48.1146 193.173 48.1934 192.767 48.3361C192.366 48.4733 191.992 48.6789 191.644 48.953L191.04 47.5098C191.534 47.1558 192.059 46.8967 192.613 46.7326C193.167 46.5686 193.706 46.4771 194.228 46.4583C194.974 46.4314 195.623 46.5254 196.176 46.7403C196.733 46.9551 197.167 47.2997 197.478 47.7741C197.793 48.2431 197.965 48.8479 197.991 49.5888L198.173 54.6415L196.367 54.7066L196.334 53.7952C196.08 54.1726 195.723 54.471 195.261 54.6904C194.799 54.9045 194.275 55.0222 193.689 55.0433ZM203.835 54.6777C202.987 54.7082 202.226 54.5515 201.552 54.2075C200.883 53.8581 200.348 53.373 199.947 52.7524C199.545 52.1265 199.33 51.4084 199.301 50.5983C199.279 49.9854 199.37 49.419 199.576 48.8993C199.781 48.3742 200.079 47.9152 200.471 47.5222C200.862 47.1238 201.326 46.8109 201.862 46.5834C202.403 46.3505 202.996 46.2224 203.641 46.1991C204.201 46.1789 204.723 46.2348 205.208 46.3668C205.693 46.4987 206.141 46.7121 206.552 47.0068L205.656 48.5841C205.398 48.3693 205.107 48.2143 204.783 48.1192C204.465 48.0186 204.132 47.9746 203.786 47.9871C203.263 48.0059 202.817 48.1181 202.445 48.3236C202.079 48.5289 201.801 48.8164 201.612 49.1862C201.422 49.5559 201.337 49.9993 201.355 50.5162C201.383 51.2838 201.628 51.878 202.092 52.2989C202.561 52.7143 203.184 52.9079 203.962 52.8799C204.351 52.8659 204.716 52.7807 205.058 52.6243C205.399 52.4679 205.693 52.2598 205.94 52.0001L206.907 53.5183C206.482 53.8591 206.003 54.1325 205.472 54.3385C204.94 54.5444 204.394 54.6575 203.835 54.6777ZM208.151 54.282L207.736 42.7694L209.782 42.6957L209.97 47.9003L209.529 47.4359C209.864 46.9488 210.272 46.5739 210.753 46.3111C211.235 46.0482 211.758 45.9066 212.323 45.8862C213.059 45.8597 213.674 45.9843 214.17 46.26C214.671 46.5354 215.052 46.9033 215.314 47.3635C215.576 47.8237 215.717 48.3149 215.736 48.8373L215.922 54.0019L213.875 54.0757L213.71 49.4946C213.691 48.967 213.513 48.5438 213.176 48.225C212.844 47.9061 212.398 47.7567 211.839 47.7769C211.466 47.785 211.141 47.8741 210.864 48.0442C210.587 48.2143 210.377 48.4513 210.233 48.7554C210.089 49.0541 210.024 49.4007 210.038 49.7951L210.197 54.2082L208.151 54.282ZM221.589 54.0378C220.72 54.0691 219.952 53.9207 219.284 53.5926C218.615 53.2591 218.086 52.7818 217.695 52.1608C217.31 51.5396 217.102 50.808 217.072 49.9659C217.049 49.3476 217.133 48.7762 217.322 48.2517C217.517 47.7271 217.799 47.2686 218.169 46.8763C218.544 46.4786 218.987 46.1664 219.496 45.9399C220.011 45.7132 220.577 45.5888 221.196 45.5665C221.867 45.5423 222.471 45.6406 223.008 45.8614C223.544 46.0769 223.993 46.3943 224.355 46.8135C224.722 47.2272 224.985 47.7194 225.144 48.29C225.309 48.8552 225.35 49.4781 225.268 50.1588L219.016 50.3841C219.026 50.8054 219.138 51.1696 219.351 51.4767C219.571 51.7837 219.873 52.021 220.258 52.1886C220.648 52.3506 221.101 52.4223 221.618 52.4037C222.077 52.3872 222.514 52.3047 222.93 52.1563C223.346 52.0079 223.731 51.7965 224.084 51.5223L224.855 52.9275C224.612 53.139 224.307 53.3261 223.939 53.4888C223.571 53.6515 223.181 53.7803 222.768 53.8752C222.36 53.97 221.968 54.0242 221.589 54.0378ZM219.083 48.9247L223.233 48.7752C223.197 48.2375 223.004 47.8228 222.651 47.5313C222.299 47.2345 221.817 47.0971 221.204 47.1192C220.596 47.1411 220.101 47.3137 219.717 47.6371C219.334 47.9551 219.123 48.3843 219.083 48.9247ZM229.633 53.7399C228.946 53.7647 228.303 53.6945 227.704 53.5292C227.111 53.3638 226.604 53.126 226.182 52.8156L226.841 51.3349C227.245 51.6032 227.688 51.8114 228.168 51.9595C228.648 52.1077 229.115 52.1736 229.568 52.1572C230.048 52.1399 230.418 52.0465 230.679 51.877C230.94 51.7075 231.065 51.4789 231.054 51.1911C231.045 50.9193 230.92 50.7236 230.681 50.6041C230.442 50.4847 229.995 50.3674 229.339 50.2522C228.298 50.087 227.536 49.8156 227.053 49.4381C226.569 49.0552 226.315 48.5147 226.29 47.8165C226.272 47.3208 226.392 46.8789 226.65 46.4906C226.914 46.1022 227.282 45.7955 227.754 45.5703C228.231 45.3396 228.784 45.213 229.413 45.1903C230.026 45.1682 230.607 45.2326 231.157 45.3836C231.712 45.5344 232.193 45.7572 232.598 46.0521L231.971 47.5397C231.757 47.3713 231.515 47.2279 231.243 47.1096C230.972 46.9913 230.686 46.9029 230.385 46.8443C230.09 46.7856 229.798 46.7614 229.51 46.7718C229.089 46.787 228.751 46.8739 228.495 47.0326C228.244 47.191 228.124 47.4062 228.134 47.678C228.144 47.9498 228.271 48.148 228.516 48.2726C228.76 48.3919 229.199 48.5121 229.833 48.6334C230.908 48.8242 231.681 49.1005 232.153 49.4624C232.625 49.8243 232.873 50.3464 232.898 51.0286C232.917 51.5509 232.792 52.0117 232.523 52.411C232.255 52.8049 231.871 53.1202 231.373 53.357C230.879 53.5883 230.299 53.7159 229.633 53.7399Z" fill="white"/>
<g clip-path="url(#clip0_5631_31394)">
<rect x="58" y="33.5249" width="42.3457" height="42.3457" rx="12.0988" transform="rotate(-2.06395 58 33.5249)" fill="#FDCB26" fill-opacity="0.05"/>
<g filter="url(#filter2_f_5631_31394)">
<circle cx="93.5" cy="67.5" r="7.5" fill="#FDCB26"/>
</g>
<path d="M74.5895 64.0002C74.4895 63.9801 74.4719 63.8578 74.4654 63.7776C74.361 62.5965 74.4983 61.2191 74.4676 60.0073C74.461 59.7711 74.4665 59.4115 74.4401 59.1911C74.4159 58.9959 74.2072 58.9822 74.0578 58.8989C70.9092 57.1314 68.3561 53.8367 66.7939 50.7213C66.5906 50.3163 66.3412 49.828 66.183 49.4104C65.7711 48.3178 66.0073 46.9584 67.3783 46.7496C68.913 46.5165 69.2492 47.6281 69.9358 48.6268C72.6109 52.5152 75.6991 55.3649 80.957 55.0158C85.303 54.7268 87.5584 52.1071 89.8051 48.8852C90.5598 47.8032 91.1179 46.3689 92.8295 46.834C94.6784 47.337 93.9127 49.0909 93.3832 50.291C91.9341 53.5762 89.4513 56.8202 86.3049 58.726C86.1313 58.8314 85.8106 58.9538 85.6666 59.0624C85.6018 59.1109 85.5777 59.1636 85.581 59.2427C85.5853 60.7192 85.581 62.1957 85.581 63.6722C85.581 63.7892 85.6513 63.8979 85.5414 64.0002H81.0394L80.9976 63.9348L81.024 63.8799C81.2503 63.7007 81.4876 63.5235 81.7018 63.3326C82.2588 62.8369 83.2827 61.9109 83.3585 61.1674C83.5288 59.48 81.5052 58.4697 80.2022 59.6129C80.1341 59.672 80.0847 59.8048 79.9693 59.828C79.9133 59.8249 79.6826 59.5496 79.6057 59.4937C78.2951 58.5593 76.478 59.5127 76.6076 61.0873C76.6823 61.99 77.6425 62.8791 78.3082 63.4591C78.4302 63.5657 78.7345 63.7576 78.818 63.8652C78.8542 63.9116 78.8674 63.9379 78.8575 63.9991H74.5895V64.0002Z" fill="white"/>
<path d="M79.966 53.5615C82.4288 53.5615 84.4252 51.6449 84.4252 49.2807C84.4252 46.9166 82.4288 45 79.966 45C77.5033 45 75.5068 46.9166 75.5068 49.2807C75.5068 51.6449 77.5033 53.5615 79.966 53.5615Z" fill="white"/>
</g>
<rect x="58.7765" y="34.2474" width="40.8457" height="40.8457" rx="11.3488" transform="rotate(-2.06395 58.7765 34.2474)" stroke="#FDCB26" stroke-width="1.5"/>
<path d="M234.098 26.6445V26.6445C240.776 26.4039 246.384 31.6221 246.625 38.2997V38.2997" stroke="#FDCB26" stroke-width="2.26852" stroke-linecap="round"/>
<defs>
<filter id="filter0_dddddd_5631_31394" x="0" y="0" width="305.815" height="165.168" filterUnits="userSpaceOnUse" color-interpolation-filters="sRGB">
<feFlood flood-opacity="0" result="BackgroundImageFix"/>
<feColorMatrix in="SourceAlpha" type="matrix" values="0 0 0 0 0 0 0 0 0 0 0 0 0 0 0 0 0 0 127 0" result="hardAlpha"/>
<feMorphology radius="4" operator="erode" in="SourceAlpha" result="effect1_dropShadow_5631_31394"/>
<feOffset dy="5"/>
<feGaussianBlur stdDeviation="0.75"/>
<feComposite in2="hardAlpha" operator="out"/>
<feColorMatrix type="matrix" values="0 0 0 0 0.0313726 0 0 0 0 0.0313726 0 0 0 0 0.0313726 0 0 0 0.05 0"/>
<feBlend mode="normal" in2="BackgroundImageFix" result="effect1_dropShadow_5631_31394"/>
<feColorMatrix in="SourceAlpha" type="matrix" values="0 0 0 0 0 0 0 0 0 0 0 0 0 0 0 0 0 0 127 0" result="hardAlpha"/>
<feMorphology radius="4" operator="erode" in="SourceAlpha" result="effect2_dropShadow_5631_31394"/>
<feOffset dy="6"/>
<feGaussianBlur stdDeviation="2"/>
<feComposite in2="hardAlpha" operator="out"/>
<feColorMatrix type="matrix" values="0 0 0 0 0.0313726 0 0 0 0 0.0313726 0 0 0 0 0.0313726 0 0 0 0.05 0"/>
<feBlend mode="normal" in2="effect1_dropShadow_5631_31394" result="effect2_dropShadow_5631_31394"/>
<feColorMatrix in="SourceAlpha" type="matrix" values="0 0 0 0 0 0 0 0 0 0 0 0 0 0 0 0 0 0 127 0" result="hardAlpha"/>
<feOffset dy="6"/>
<feGaussianBlur stdDeviation="6.5"/>
<feComposite in2="hardAlpha" operator="out"/>
<feColorMatrix type="matrix" values="0 0 0 0 0.0313726 0 0 0 0 0.0313726 0 0 0 0 0.0313726 0 0 0 0.03 0"/>
<feBlend mode="normal" in2="effect2_dropShadow_5631_31394" result="effect3_dropShadow_5631_31394"/>
<feColorMatrix in="SourceAlpha" type="matrix" values="0 0 0 0 0 0 0 0 0 0 0 0 0 0 0 0 0 0 127 0" result="hardAlpha"/>
<feMorphology radius="16" operator="erode" in="SourceAlpha" result="effect4_dropShadow_5631_31394"/>
<feOffset dy="24"/>
<feGaussianBlur stdDeviation="12"/>
<feComposite in2="hardAlpha" operator="out"/>
<feColorMatrix type="matrix" values="0 0 0 0 0.0313726 0 0 0 0 0.0313726 0 0 0 0 0.0313726 0 0 0 0.04 0"/>
<feBlend mode="normal" in2="effect3_dropShadow_5631_31394" result="effect4_dropShadow_5631_31394"/>
<feColorMatrix in="SourceAlpha" type="matrix" values="0 0 0 0 0 0 0 0 0 0 0 0 0 0 0 0 0 0 127 0" result="hardAlpha"/>
<feMorphology radius="2" operator="erode" in="SourceAlpha" result="effect5_dropShadow_5631_31394"/>
<feOffset dy="2.15"/>
<feGaussianBlur stdDeviation="0.25"/>
<feComposite in2="hardAlpha" operator="out"/>
<feColorMatrix type="matrix" values="0 0 0 0 0 0 0 0 0 0 0 0 0 0 0 0 0 0 0.25 0"/>
<feBlend mode="normal" in2="effect4_dropShadow_5631_31394" result="effect5_dropShadow_5631_31394"/>
<feColorMatrix in="SourceAlpha" type="matrix" values="0 0 0 0 0 0 0 0 0 0 0 0 0 0 0 0 0 0 127 0" result="hardAlpha"/>
<feMorphology radius="12" operator="erode" in="SourceAlpha" result="effect6_dropShadow_5631_31394"/>
<feOffset dy="32"/>
<feGaussianBlur stdDeviation="32"/>
<feComposite in2="hardAlpha" operator="out"/>
<feColorMatrix type="matrix" values="0 0 0 0 0 0 0 0 0 0 0 0 0 0 0 0 0 0 0.075 0"/>
<feBlend mode="multiply" in2="effect5_dropShadow_5631_31394" result="effect6_dropShadow_5631_31394"/>
<feBlend mode="normal" in="SourceGraphic" in2="effect6_dropShadow_5631_31394" result="shape"/>
</filter>
<filter id="filter2_f_5631_31394" x="56" y="30" width="75" height="75" filterUnits="userSpaceOnUse" color-interpolation-filters="sRGB">
<feFlood flood-opacity="0" result="BackgroundImageFix"/>
<feBlend mode="normal" in="SourceGraphic" in2="BackgroundImageFix" result="shape"/>
<feGaussianBlur stdDeviation="15" result="effect1_foregroundBlur_5631_31394"/>
</filter>
<linearGradient id="paint0_linear_5631_31394" x1="152" y1="27.2031" x2="152" y2="81.2031" gradientUnits="userSpaceOnUse">
<stop stop-color="#F6F6F6"/>
<stop offset="1" stop-color="#E6E6E6"/>
</linearGradient>
<clipPath id="clip0_5631_31394">
<rect x="58" y="33.5249" width="42.3457" height="42.3457" rx="12.0988" transform="rotate(-2.06395 58 33.5249)" fill="white"/>
</clipPath>
</defs>
</svg>
