<svg width="201" height="54" viewBox="0 0 201 54" fill="none" xmlns="http://www.w3.org/2000/svg">
<rect x="0.364746" width="200" height="54" rx="18.1482" fill="#F1F1F1" fill-opacity="0.1"/>
<rect x="1.49901" y="1.13426" width="197.731" height="51.7315" rx="17.0139" stroke="url(#paint0_linear_6163_244)" stroke-opacity="0.1" stroke-width="2.26852"/>
<path d="M65.3003 32.6851V21.4851H67.3803V25.8371H72.4683V21.4851H74.5483V32.6851H72.4683V27.7411H67.3803V32.6851H65.3003ZM80.5224 32.9251C79.6531 32.9251 78.8904 32.7491 78.2344 32.3971C77.5784 32.0397 77.0664 31.5437 76.6984 30.9091C76.3357 30.2744 76.1544 29.5357 76.1544 28.6931C76.1544 28.0744 76.2584 27.5064 76.4664 26.9891C76.6797 26.4717 76.9784 26.0237 77.3624 25.6451C77.7517 25.2611 78.2051 24.9651 78.7224 24.7571C79.2451 24.5491 79.8157 24.4451 80.4344 24.4451C81.1064 24.4451 81.7064 24.5651 82.2344 24.8051C82.7624 25.0397 83.1997 25.3731 83.5464 25.8051C83.8984 26.2317 84.1437 26.7331 84.2824 27.3091C84.4264 27.8797 84.4451 28.5037 84.3384 29.1811H78.0824C78.0771 29.6024 78.1757 29.9704 78.3784 30.2851C78.5864 30.5997 78.8797 30.8477 79.2584 31.0291C79.6424 31.2051 80.0931 31.2931 80.6104 31.2931C81.0691 31.2931 81.5091 31.2264 81.9304 31.0931C82.3517 30.9597 82.7437 30.7624 83.1064 30.5011L83.8264 31.9331C83.5757 32.1357 83.2637 32.3117 82.8904 32.4611C82.5171 32.6104 82.1224 32.7251 81.7064 32.8051C81.2957 32.8851 80.9011 32.9251 80.5224 32.9251ZM78.2024 27.7251H82.3544C82.3384 27.1864 82.1597 26.7651 81.8184 26.4611C81.4771 26.1517 80.9997 25.9971 80.3864 25.9971C79.7784 25.9971 79.2771 26.1517 78.8824 26.4611C78.4877 26.7651 78.2611 27.1864 78.2024 27.7251ZM87.996 32.9251C87.452 32.9251 86.9694 32.8211 86.548 32.6131C86.1267 32.4051 85.796 32.1117 85.556 31.7331C85.316 31.3491 85.196 30.8957 85.196 30.3731C85.196 29.9251 85.308 29.5251 85.532 29.1731C85.756 28.8211 86.1 28.5304 86.564 28.3011C87.028 28.0664 87.62 27.9091 88.34 27.8291C89.0654 27.7491 89.924 27.7597 90.916 27.8611L90.948 29.2131C90.2974 29.1117 89.7294 29.0664 89.244 29.0771C88.7587 29.0877 88.356 29.1437 88.036 29.2451C87.7214 29.3464 87.484 29.4851 87.324 29.6611C87.1694 29.8371 87.092 30.0424 87.092 30.2771C87.092 30.6291 87.22 30.9011 87.476 31.0931C87.732 31.2797 88.0814 31.3731 88.524 31.3731C88.9027 31.3731 89.2414 31.3037 89.54 31.1651C89.844 31.0264 90.084 30.8317 90.26 30.5811C90.436 30.3251 90.524 30.0237 90.524 29.6771V27.6531C90.524 27.3171 90.452 27.0264 90.308 26.7811C90.1694 26.5304 89.956 26.3384 89.668 26.2051C89.38 26.0664 89.0094 25.9971 88.556 25.9971C88.14 25.9971 87.7267 26.0611 87.316 26.1891C86.9107 26.3117 86.5294 26.5037 86.172 26.7651L85.62 25.3011C86.1267 24.9651 86.66 24.7251 87.22 24.5811C87.78 24.4371 88.3214 24.3651 88.844 24.3651C89.5907 24.3651 90.236 24.4824 90.78 24.7171C91.3294 24.9517 91.7507 25.3117 92.044 25.7971C92.3427 26.2771 92.492 26.8877 92.492 27.6291V32.6851H90.684V31.7731C90.4174 32.1411 90.0494 32.4264 89.58 32.6291C89.1107 32.8264 88.5827 32.9251 87.996 32.9251ZM94.4364 32.6851V21.1651H96.4844V32.6851H94.4364ZM101.939 32.9251C101.117 32.9251 100.467 32.6904 99.9867 32.2211C99.5067 31.7517 99.2667 31.0424 99.2667 30.0931V22.3651H101.315V24.6851H103.419V26.3491H101.315V29.6851C101.315 30.1971 101.416 30.5597 101.619 30.7731C101.821 30.9811 102.101 31.0851 102.459 31.0851C102.64 31.0851 102.811 31.0637 102.971 31.0211C103.136 30.9784 103.288 30.9224 103.427 30.8531L103.747 32.4851C103.512 32.6077 103.237 32.7117 102.923 32.7971C102.608 32.8824 102.28 32.9251 101.939 32.9251ZM97.5787 26.3491V24.6851H99.4987V26.3491H97.5787ZM105.171 32.6851V21.1651H107.219V26.3731L106.795 25.8931C107.147 25.4184 107.569 25.0584 108.059 24.8131C108.55 24.5677 109.078 24.4451 109.643 24.4451C110.379 24.4451 110.99 24.5917 111.475 24.8851C111.966 25.1784 112.334 25.5597 112.579 26.0291C112.825 26.4984 112.947 26.9944 112.947 27.5171V32.6851H110.899V28.1011C110.899 27.5731 110.737 27.1437 110.411 26.8131C110.091 26.4824 109.651 26.3171 109.091 26.3171C108.718 26.3117 108.39 26.3891 108.107 26.5491C107.825 26.7091 107.606 26.9384 107.451 27.2371C107.297 27.5304 107.219 27.8744 107.219 28.2691V32.6851H105.171ZM123.798 32.9251C122.635 32.9251 121.616 32.6851 120.742 32.2051C119.867 31.7251 119.187 31.0504 118.702 30.1811C118.216 29.3064 117.974 28.2797 117.974 27.1011C117.974 26.2424 118.115 25.4584 118.398 24.7491C118.686 24.0344 119.091 23.4157 119.614 22.8931C120.142 22.3651 120.76 21.9597 121.47 21.6771C122.184 21.3891 122.968 21.2451 123.822 21.2451C124.702 21.2451 125.454 21.3571 126.078 21.5811C126.702 21.7997 127.256 22.1117 127.742 22.5171L126.678 24.2211C126.336 23.8957 125.936 23.6557 125.478 23.5011C125.024 23.3411 124.52 23.2611 123.966 23.2611C123.374 23.2611 122.843 23.3491 122.374 23.5251C121.904 23.7011 121.504 23.9571 121.174 24.2931C120.843 24.6237 120.59 25.0237 120.414 25.4931C120.238 25.9624 120.15 26.4904 120.15 27.0771C120.15 27.8824 120.307 28.5704 120.622 29.1411C120.936 29.7064 121.384 30.1411 121.966 30.4451C122.547 30.7491 123.238 30.9011 124.038 30.9011C124.576 30.9011 125.102 30.8184 125.614 30.6531C126.131 30.4877 126.619 30.2237 127.078 29.8611L128.038 31.6131C127.504 32.0291 126.886 32.3517 126.182 32.5811C125.483 32.8104 124.688 32.9251 123.798 32.9251ZM132.994 32.9251C132.14 32.9251 131.383 32.7331 130.722 32.3491C130.066 31.9597 129.551 31.4451 129.178 30.8051C128.804 30.1597 128.618 29.4531 128.618 28.6851C128.618 28.1197 128.724 27.5811 128.938 27.0691C129.151 26.5571 129.452 26.1064 129.842 25.7171C130.236 25.3224 130.7 25.0131 131.234 24.7891C131.767 24.5597 132.354 24.4451 132.994 24.4451C133.842 24.4451 134.594 24.6371 135.25 25.0211C135.911 25.4051 136.428 25.9197 136.802 26.5651C137.18 27.2104 137.37 27.9171 137.37 28.6851C137.37 29.2504 137.26 29.7891 137.042 30.3011C136.828 30.8077 136.527 31.2584 136.138 31.6531C135.748 32.0477 135.287 32.3597 134.754 32.5891C134.22 32.8131 133.634 32.9251 132.994 32.9251ZM132.986 31.1331C133.439 31.1331 133.842 31.0344 134.194 30.8371C134.551 30.6344 134.831 30.3517 135.034 29.9891C135.236 29.6211 135.338 29.1864 135.338 28.6851C135.338 28.1837 135.236 27.7491 135.034 27.3811C134.831 27.0131 134.554 26.7304 134.202 26.5331C133.85 26.3357 133.447 26.2371 132.994 26.2371C132.54 26.2371 132.135 26.3357 131.778 26.5331C131.426 26.7304 131.148 27.0131 130.946 27.3811C130.748 27.7491 130.65 28.1837 130.65 28.6851C130.65 29.1864 130.751 29.6211 130.954 29.9891C131.156 30.3517 131.434 30.6344 131.786 30.8371C132.138 31.0344 132.538 31.1331 132.986 31.1331ZM140.959 32.9251C140.415 32.9251 139.932 32.8211 139.511 32.6131C139.09 32.4051 138.759 32.1117 138.519 31.7331C138.279 31.3491 138.159 30.8957 138.159 30.3731C138.159 29.9251 138.271 29.5251 138.495 29.1731C138.719 28.8211 139.063 28.5304 139.527 28.3011C139.991 28.0664 140.583 27.9091 141.303 27.8291C142.028 27.7491 142.887 27.7597 143.879 27.8611L143.911 29.2131C143.26 29.1117 142.692 29.0664 142.207 29.0771C141.722 29.0877 141.319 29.1437 140.999 29.2451C140.684 29.3464 140.447 29.4851 140.287 29.6611C140.132 29.8371 140.055 30.0424 140.055 30.2771C140.055 30.6291 140.183 30.9011 140.439 31.0931C140.695 31.2797 141.044 31.3731 141.487 31.3731C141.866 31.3731 142.204 31.3037 142.503 31.1651C142.807 31.0264 143.047 30.8317 143.223 30.5811C143.399 30.3251 143.487 30.0237 143.487 29.6771V27.6531C143.487 27.3171 143.415 27.0264 143.271 26.7811C143.132 26.5304 142.919 26.3384 142.631 26.2051C142.343 26.0664 141.972 25.9971 141.519 25.9971C141.103 25.9971 140.69 26.0611 140.279 26.1891C139.874 26.3117 139.492 26.5037 139.135 26.7651L138.583 25.3011C139.09 24.9651 139.623 24.7251 140.183 24.5811C140.743 24.4371 141.284 24.3651 141.807 24.3651C142.554 24.3651 143.199 24.4824 143.743 24.7171C144.292 24.9517 144.714 25.3117 145.007 25.7971C145.306 26.2771 145.455 26.8877 145.455 27.6291V32.6851H143.647V31.7731C143.38 32.1411 143.012 32.4264 142.543 32.6291C142.074 32.8264 141.546 32.9251 140.959 32.9251ZM151.112 32.9251C150.264 32.9251 149.509 32.7411 148.848 32.3731C148.192 31.9997 147.674 31.4957 147.296 30.8611C146.917 30.2211 146.728 29.4957 146.728 28.6851C146.728 28.0717 146.84 27.5091 147.064 26.9971C147.288 26.4797 147.602 26.0317 148.008 25.6531C148.413 25.2691 148.888 24.9731 149.432 24.7651C149.981 24.5517 150.578 24.4451 151.224 24.4451C151.784 24.4451 152.304 24.5197 152.784 24.6691C153.264 24.8184 153.704 25.0477 154.104 25.3571L153.152 26.9011C152.901 26.6771 152.616 26.5117 152.296 26.4051C151.981 26.2931 151.65 26.2371 151.304 26.2371C150.781 26.2371 150.33 26.3331 149.952 26.5251C149.578 26.7171 149.29 26.9944 149.088 27.3571C148.885 27.7197 148.784 28.1597 148.784 28.6771C148.784 29.4451 149.008 30.0477 149.456 30.4851C149.909 30.9171 150.525 31.1331 151.304 31.1331C151.693 31.1331 152.061 31.0611 152.408 30.9171C152.754 30.7731 153.056 30.5757 153.312 30.3251L154.224 31.8771C153.786 32.2024 153.298 32.4584 152.76 32.6451C152.221 32.8317 151.672 32.9251 151.112 32.9251ZM155.439 32.6851V21.1651H157.487V26.3731L157.063 25.8931C157.415 25.4184 157.836 25.0584 158.327 24.8131C158.818 24.5677 159.346 24.4451 159.911 24.4451C160.647 24.4451 161.258 24.5917 161.743 24.8851C162.234 25.1784 162.602 25.5597 162.847 26.0291C163.092 26.4984 163.215 26.9944 163.215 27.5171V32.6851H161.167V28.1011C161.167 27.5731 161.004 27.1437 160.679 26.8131C160.359 26.4824 159.919 26.3171 159.359 26.3171C158.986 26.3117 158.658 26.3891 158.375 26.5491C158.092 26.7091 157.874 26.9384 157.719 27.2371C157.564 27.5304 157.487 27.8744 157.487 28.2691V32.6851H155.439ZM168.877 32.9251C168.008 32.9251 167.245 32.7491 166.589 32.3971C165.933 32.0397 165.421 31.5437 165.053 30.9091C164.691 30.2744 164.509 29.5357 164.509 28.6931C164.509 28.0744 164.613 27.5064 164.821 26.9891C165.035 26.4717 165.333 26.0237 165.717 25.6451C166.107 25.2611 166.56 24.9651 167.077 24.7571C167.6 24.5491 168.171 24.4451 168.789 24.4451C169.461 24.4451 170.061 24.5651 170.589 24.8051C171.117 25.0397 171.555 25.3731 171.901 25.8051C172.253 26.2317 172.499 26.7331 172.637 27.3091C172.781 27.8797 172.8 28.5037 172.693 29.1811H166.437C166.432 29.6024 166.531 29.9704 166.733 30.2851C166.941 30.5997 167.235 30.8477 167.613 31.0291C167.997 31.2051 168.448 31.2931 168.965 31.2931C169.424 31.2931 169.864 31.2264 170.285 31.0931C170.707 30.9597 171.099 30.7624 171.461 30.5011L172.181 31.9331C171.931 32.1357 171.619 32.3117 171.245 32.4611C170.872 32.6104 170.477 32.7251 170.061 32.8051C169.651 32.8851 169.256 32.9251 168.877 32.9251ZM166.557 27.7251H170.709C170.693 27.1864 170.515 26.7651 170.173 26.4611C169.832 26.1517 169.355 25.9971 168.741 25.9971C168.133 25.9971 167.632 26.1517 167.237 26.4611C166.843 26.7651 166.616 27.1864 166.557 27.7251ZM176.927 32.9171C176.239 32.9171 175.599 32.8237 175.007 32.6371C174.42 32.4504 173.922 32.1944 173.511 31.8691L174.223 30.4131C174.618 30.6957 175.052 30.9197 175.527 31.0851C176.002 31.2504 176.466 31.3331 176.919 31.3331C177.399 31.3331 177.772 31.2531 178.039 31.0931C178.306 30.9331 178.439 30.7091 178.439 30.4211C178.439 30.1491 178.322 29.9491 178.087 29.8211C177.852 29.6931 177.41 29.5597 176.759 29.4211C175.724 29.2184 174.972 28.9197 174.503 28.5251C174.034 28.1251 173.799 27.5757 173.799 26.8771C173.799 26.3811 173.935 25.9437 174.207 25.5651C174.484 25.1864 174.863 24.8931 175.343 24.6851C175.828 24.4717 176.386 24.3651 177.015 24.3651C177.628 24.3651 178.207 24.4504 178.751 24.6211C179.3 24.7917 179.772 25.0317 180.167 25.3411L179.487 26.8051C179.279 26.6291 179.042 26.4771 178.775 26.3491C178.508 26.2211 178.226 26.1224 177.927 26.0531C177.634 25.9837 177.343 25.9491 177.055 25.9491C176.634 25.9491 176.292 26.0237 176.031 26.1731C175.775 26.3224 175.647 26.5331 175.647 26.8051C175.647 27.0771 175.767 27.2797 176.007 27.4131C176.247 27.5411 176.682 27.6771 177.311 27.8211C178.378 28.0504 179.14 28.3544 179.599 28.7331C180.058 29.1117 180.287 29.6424 180.287 30.3251C180.287 30.8477 180.146 31.3037 179.863 31.6931C179.58 32.0771 179.186 32.3784 178.679 32.5971C178.178 32.8104 177.594 32.9171 176.927 32.9171Z" fill="white"/>
<g clip-path="url(#clip0_6163_244)">
<rect x="6.1333" y="6.53418" width="42.3457" height="42.3457" rx="12.0988" fill="#FDCB26" fill-opacity="0.05"/>
<g filter="url(#filter1_f_6163_244)">
<circle cx="40.3866" cy="41.7657" r="7.5" transform="rotate(2.06395 40.3866 41.7657)" fill="#FDCB26"/>
</g>
<path d="M21.6143 37.5874C21.5152 37.5637 21.502 37.4409 21.4983 37.3605C21.4365 36.1763 21.6234 34.8048 21.6363 33.5927C21.6382 33.3564 21.6566 32.9972 21.6382 32.776C21.6211 32.5801 21.413 32.5589 21.2667 32.4703C18.1838 30.5905 15.751 27.206 14.302 24.0364C14.1135 23.6243 13.8818 23.1274 13.7388 22.7043C13.3664 21.5976 13.6514 20.2476 15.0291 20.0883C16.5713 19.9106 16.8672 21.0336 17.5174 22.0564C20.0507 26.0386 23.0342 28.9976 28.3013 28.8381C32.6549 28.7059 35.0032 26.1691 37.3644 23.0302C38.1576 21.976 38.767 20.5628 40.4608 21.0892C42.2904 21.6585 41.462 23.3837 40.8896 24.564C39.3232 27.7948 36.7251 30.9474 33.5121 32.7385C33.3349 32.8377 33.0099 32.9484 32.8621 33.0517C32.7956 33.0979 32.7696 33.1497 32.77 33.2289C32.7212 34.7046 32.6637 36.1799 32.6105 37.6554C32.6063 37.7724 32.6726 37.8835 32.5592 37.9818L28.06 37.8197L28.0207 37.7528L28.049 37.699C28.2816 37.5279 28.5251 37.3594 28.7461 37.1764C29.3206 36.7011 30.3771 35.8126 30.4797 35.0723C30.7106 33.3921 28.7247 32.3095 27.3814 33.4051C27.3112 33.4617 27.2571 33.5927 27.1409 33.6117C27.0851 33.6065 26.8644 33.3231 26.7896 33.2645C25.5135 32.2835 23.6632 33.1708 23.7361 34.7491C23.7782 35.6539 24.7057 36.577 25.3502 37.1806C25.4682 37.2915 25.7654 37.4942 25.845 37.6048C25.8795 37.6524 25.8917 37.6793 25.8797 37.74L21.6144 37.5863L21.6143 37.5874Z" fill="white"/>
<path d="M27.3633 27.3489C29.8245 27.4376 31.8886 25.5941 31.9738 23.2315C32.0589 20.8688 30.1328 18.8816 27.6716 18.7929C25.2105 18.7042 23.1463 20.5476 23.0612 22.9103C22.976 25.2729 24.9021 27.2602 27.3633 27.3489Z" fill="white"/>
</g>
<rect x="6.8833" y="7.28418" width="40.8457" height="40.8457" rx="11.3488" stroke="#FDCB26" stroke-width="1.5"/>
<path d="M182.365 6V6C189.047 6 194.464 11.4168 194.464 18.0988V18.0988" stroke="#FDCB26" stroke-width="2.26852" stroke-linecap="round"/>
<defs>
<filter id="filter1_f_6163_244" x="2.88672" y="4.26562" width="75" height="75" filterUnits="userSpaceOnUse" color-interpolation-filters="sRGB">
<feFlood flood-opacity="0" result="BackgroundImageFix"/>
<feBlend mode="normal" in="SourceGraphic" in2="BackgroundImageFix" result="shape"/>
<feGaussianBlur stdDeviation="15" result="effect1_foregroundBlur_6163_244"/>
</filter>
<linearGradient id="paint0_linear_6163_244" x1="100.365" y1="0" x2="100.365" y2="54" gradientUnits="userSpaceOnUse">
<stop stop-color="#F6F6F6"/>
<stop offset="1" stop-color="#E6E6E6"/>
</linearGradient>
<clipPath id="clip0_6163_244">
<rect x="6.1333" y="6.53418" width="42.3457" height="42.3457" rx="12.0988" fill="white"/>
</clipPath>
</defs>
</svg>
