<svg width="237" height="50" viewBox="0 0 237 50" fill="none" xmlns="http://www.w3.org/2000/svg">
<rect y="18.7014" width="237" height="14.3154" rx="7.15772" fill="#1B1A1F" fill-opacity="0.1"/>
<path d="M3.18115 25.8591C3.18115 23.6629 4.9615 21.8826 7.15766 21.8826H47.3999V29.8356H7.15767C4.9615 29.8356 3.18115 28.0552 3.18115 25.8591Z" fill="#39973D"/>
<rect x="49.7856" y="21.8826" width="44.2188" height="7.95302" fill="#1DD673"/>
<rect x="96.3906" y="21.8826" width="44.2188" height="7.95302" fill="#FDCB26"/>
<rect x="142.995" y="21.8826" width="44.2188" height="7.95302" fill="#FF733D"/>
<path d="M189.6 21.8826H229.842C232.039 21.8826 233.819 23.6629 233.819 25.8591C233.819 28.0552 232.039 29.8356 229.842 29.8356H189.6V21.8826Z" fill="#EE1B1B"/>
<path d="M3.395 47.15C2.94833 47.15 2.54667 47.055 2.19 46.865C1.83667 46.675 1.535 46.4117 1.285 46.075C1.03833 45.7383 0.85 45.35 0.72 44.91C0.59 44.47 0.525 44 0.525 43.5C0.525 42.9967 0.59 42.525 0.72 42.085C0.85 41.645 1.03833 41.2583 1.285 40.925C1.535 40.5883 1.83667 40.325 2.19 40.135C2.54667 39.945 2.94833 39.85 3.395 39.85C3.84167 39.85 4.24167 39.945 4.595 40.135C4.95167 40.325 5.25333 40.5883 5.5 40.925C5.75 41.2583 5.94 41.645 6.07 42.085C6.20333 42.525 6.27 42.9967 6.27 43.5C6.27 44 6.20333 44.47 6.07 44.91C5.94 45.35 5.75 45.7383 5.5 46.075C5.25333 46.4117 4.95167 46.675 4.595 46.865C4.24167 47.055 3.84167 47.15 3.395 47.15ZM3.395 46.16C3.66167 46.16 3.90333 46.1 4.12 45.98C4.33667 45.8567 4.52333 45.68 4.68 45.45C4.84 45.22 4.96167 44.9417 5.045 44.615C5.12833 44.285 5.17 43.9133 5.17 43.5C5.17 42.9467 5.095 42.4717 4.945 42.075C4.79833 41.675 4.59167 41.37 4.325 41.16C4.06167 40.9467 3.75167 40.84 3.395 40.84C3.13167 40.84 2.89 40.9017 2.67 41.025C2.45333 41.145 2.26667 41.32 2.11 41.55C1.95333 41.78 1.83167 42.0583 1.745 42.385C1.66167 42.7117 1.62 43.0833 1.62 43.5C1.62 44.0533 1.69333 44.5283 1.84 44.925C1.99 45.3217 2.19833 45.6267 2.465 45.84C2.73167 46.0533 3.04167 46.16 3.395 46.16Z" fill="#7D7C81"/>
<path d="M34.7924 47V41.18L32.9774 41.845L32.6874 40.975L35.7524 39.85H35.8324V47H34.7924ZM37.5384 47V46.2L39.0534 44.815C39.5334 44.375 39.92 43.9967 40.2134 43.68C40.5067 43.36 40.72 43.0717 40.8534 42.815C40.9867 42.5583 41.0534 42.2983 41.0534 42.035C41.0534 41.6517 40.9217 41.3533 40.6584 41.14C40.3984 40.9233 40.035 40.815 39.5684 40.815C39.2584 40.815 38.9617 40.8683 38.6784 40.975C38.395 41.0817 38.1534 41.2367 37.9534 41.44L37.5434 40.625C37.8267 40.3717 38.1534 40.18 38.5234 40.05C38.8934 39.9167 39.2817 39.85 39.6884 39.85C40.1717 39.85 40.5934 39.9367 40.9534 40.11C41.3167 40.28 41.5984 40.5217 41.7984 40.835C42.0017 41.145 42.1034 41.5083 42.1034 41.925C42.1034 42.215 42.045 42.505 41.9284 42.795C41.815 43.0817 41.61 43.405 41.3134 43.765C41.02 44.125 40.6034 44.5567 40.0634 45.06L38.9884 46.05H42.2784V47H37.5384ZM46.2466 47.15C45.7999 47.15 45.3982 47.055 45.0416 46.865C44.6882 46.675 44.3866 46.4117 44.1366 46.075C43.8899 45.7383 43.7016 45.35 43.5716 44.91C43.4416 44.47 43.3766 44 43.3766 43.5C43.3766 42.9967 43.4416 42.525 43.5716 42.085C43.7016 41.645 43.8899 41.2583 44.1366 40.925C44.3866 40.5883 44.6882 40.325 45.0416 40.135C45.3982 39.945 45.7999 39.85 46.2466 39.85C46.6932 39.85 47.0932 39.945 47.4466 40.135C47.8032 40.325 48.1049 40.5883 48.3516 40.925C48.6016 41.2583 48.7916 41.645 48.9216 42.085C49.0549 42.525 49.1216 42.9967 49.1216 43.5C49.1216 44 49.0549 44.47 48.9216 44.91C48.7916 45.35 48.6016 45.7383 48.3516 46.075C48.1049 46.4117 47.8032 46.675 47.4466 46.865C47.0932 47.055 46.6932 47.15 46.2466 47.15ZM46.2466 46.16C46.5132 46.16 46.7549 46.1 46.9716 45.98C47.1882 45.8567 47.3749 45.68 47.5316 45.45C47.6916 45.22 47.8132 44.9417 47.8966 44.615C47.9799 44.285 48.0216 43.9133 48.0216 43.5C48.0216 42.9467 47.9466 42.4717 47.7966 42.075C47.6499 41.675 47.4432 41.37 47.1766 41.16C46.9132 40.9467 46.6032 40.84 46.2466 40.84C45.9832 40.84 45.7416 40.9017 45.5216 41.025C45.3049 41.145 45.1182 41.32 44.9616 41.55C44.8049 41.78 44.6832 42.0583 44.5966 42.385C44.5132 42.7117 44.4716 43.0833 44.4716 43.5C44.4716 44.0533 44.5449 44.5283 44.6916 44.925C44.8416 45.3217 45.0499 45.6267 45.3166 45.84C45.5832 46.0533 45.8932 46.16 46.2466 46.16Z" fill="#7D7C81"/>
<path d="M75.3528 47V46.2L76.8678 44.815C77.3478 44.375 77.7345 43.9967 78.0278 43.68C78.3211 43.36 78.5345 43.0717 78.6678 42.815C78.8011 42.5583 78.8678 42.2983 78.8678 42.035C78.8678 41.6517 78.7361 41.3533 78.4728 41.14C78.2128 40.9233 77.8495 40.815 77.3828 40.815C77.0728 40.815 76.7761 40.8683 76.4928 40.975C76.2095 41.0817 75.9678 41.2367 75.7678 41.44L75.3578 40.625C75.6411 40.3717 75.9678 40.18 76.3378 40.05C76.7078 39.9167 77.0961 39.85 77.5028 39.85C77.9861 39.85 78.4078 39.9367 78.7678 40.11C79.1311 40.28 79.4128 40.5217 79.6128 40.835C79.8161 41.145 79.9178 41.5083 79.9178 41.925C79.9178 42.215 79.8595 42.505 79.7428 42.795C79.6295 43.0817 79.4245 43.405 79.1278 43.765C78.8345 44.125 78.4178 44.5567 77.8778 45.06L76.8028 46.05H80.0928V47H75.3528ZM84.326 47V45.565H80.841V44.72L83.351 40H84.491L82.016 44.63H84.326V43.075H85.291V44.63H86.371V45.565H85.291V47H84.326ZM90.0669 47.15C89.6202 47.15 89.2185 47.055 88.8619 46.865C88.5085 46.675 88.2069 46.4117 87.9569 46.075C87.7102 45.7383 87.5219 45.35 87.3919 44.91C87.2619 44.47 87.1969 44 87.1969 43.5C87.1969 42.9967 87.2619 42.525 87.3919 42.085C87.5219 41.645 87.7102 41.2583 87.9569 40.925C88.2069 40.5883 88.5085 40.325 88.8619 40.135C89.2185 39.945 89.6202 39.85 90.0669 39.85C90.5135 39.85 90.9135 39.945 91.2669 40.135C91.6235 40.325 91.9252 40.5883 92.1719 40.925C92.4219 41.2583 92.6119 41.645 92.7419 42.085C92.8752 42.525 92.9419 42.9967 92.9419 43.5C92.9419 44 92.8752 44.47 92.7419 44.91C92.6119 45.35 92.4219 45.7383 92.1719 46.075C91.9252 46.4117 91.6235 46.675 91.2669 46.865C90.9135 47.055 90.5135 47.15 90.0669 47.15ZM90.0669 46.16C90.3335 46.16 90.5752 46.1 90.7919 45.98C91.0085 45.8567 91.1952 45.68 91.3519 45.45C91.5119 45.22 91.6335 44.9417 91.7169 44.615C91.8002 44.285 91.8419 43.9133 91.8419 43.5C91.8419 42.9467 91.7669 42.4717 91.6169 42.075C91.4702 41.675 91.2635 41.37 90.9969 41.16C90.7335 40.9467 90.4235 40.84 90.0669 40.84C89.8035 40.84 89.5619 40.9017 89.3419 41.025C89.1252 41.145 88.9385 41.32 88.7819 41.55C88.6252 41.78 88.5035 42.0583 88.4169 42.385C88.3335 42.7117 88.2919 43.0833 88.2919 43.5C88.2919 44.0533 88.3652 44.5283 88.5119 44.925C88.6619 45.3217 88.8702 45.6267 89.1369 45.84C89.4035 46.0533 89.7135 46.16 90.0669 46.16Z" fill="#7D7C81"/>
<path d="M117.66 47V45.565H114.175V44.72L116.685 40H117.825L115.35 44.63H117.66V43.075H118.625V44.63H119.705V45.565H118.625V47H117.66ZM123.401 47.15C122.954 47.15 122.553 47.055 122.196 46.865C121.843 46.675 121.541 46.4117 121.291 46.075C121.044 45.7383 120.856 45.35 120.726 44.91C120.596 44.47 120.531 44 120.531 43.5C120.531 42.9967 120.596 42.525 120.726 42.085C120.856 41.645 121.044 41.2583 121.291 40.925C121.541 40.5883 121.843 40.325 122.196 40.135C122.553 39.945 122.954 39.85 123.401 39.85C123.848 39.85 124.248 39.945 124.601 40.135C124.958 40.325 125.259 40.5883 125.506 40.925C125.756 41.2583 125.946 41.645 126.076 42.085C126.209 42.525 126.276 42.9967 126.276 43.5C126.276 44 126.209 44.47 126.076 44.91C125.946 45.35 125.756 45.7383 125.506 46.075C125.259 46.4117 124.958 46.675 124.601 46.865C124.248 47.055 123.848 47.15 123.401 47.15ZM123.401 46.16C123.668 46.16 123.909 46.1 124.126 45.98C124.343 45.8567 124.529 45.68 124.686 45.45C124.846 45.22 124.968 44.9417 125.051 44.615C125.134 44.285 125.176 43.9133 125.176 43.5C125.176 42.9467 125.101 42.4717 124.951 42.075C124.804 41.675 124.598 41.37 124.331 41.16C124.068 40.9467 123.758 40.84 123.401 40.84C123.138 40.84 122.896 40.9017 122.676 41.025C122.459 41.145 122.273 41.32 122.116 41.55C121.959 41.78 121.838 42.0583 121.751 42.385C121.668 42.7117 121.626 43.0833 121.626 43.5C121.626 44.0533 121.699 44.5283 121.846 44.925C121.996 45.3217 122.204 45.6267 122.471 45.84C122.738 46.0533 123.048 46.16 123.401 46.16ZM130.198 47.15C129.751 47.15 129.349 47.055 128.993 46.865C128.639 46.675 128.338 46.4117 128.088 46.075C127.841 45.7383 127.653 45.35 127.523 44.91C127.393 44.47 127.328 44 127.328 43.5C127.328 42.9967 127.393 42.525 127.523 42.085C127.653 41.645 127.841 41.2583 128.088 40.925C128.338 40.5883 128.639 40.325 128.993 40.135C129.349 39.945 129.751 39.85 130.198 39.85C130.644 39.85 131.044 39.945 131.398 40.135C131.754 40.325 132.056 40.5883 132.303 40.925C132.553 41.2583 132.743 41.645 132.873 42.085C133.006 42.525 133.073 42.9967 133.073 43.5C133.073 44 133.006 44.47 132.873 44.91C132.743 45.35 132.553 45.7383 132.303 46.075C132.056 46.4117 131.754 46.675 131.398 46.865C131.044 47.055 130.644 47.15 130.198 47.15ZM130.198 46.16C130.464 46.16 130.706 46.1 130.923 45.98C131.139 45.8567 131.326 45.68 131.483 45.45C131.643 45.22 131.764 44.9417 131.848 44.615C131.931 44.285 131.973 43.9133 131.973 43.5C131.973 42.9467 131.898 42.4717 131.748 42.075C131.601 41.675 131.394 41.37 131.128 41.16C130.864 40.9467 130.554 40.84 130.198 40.84C129.934 40.84 129.693 40.9017 129.473 41.025C129.256 41.145 129.069 41.32 128.913 41.55C128.756 41.78 128.634 42.0583 128.548 42.385C128.464 42.7117 128.423 43.0833 128.423 43.5C128.423 44.0533 128.496 44.5283 128.643 44.925C128.793 45.3217 129.001 45.6267 129.268 45.84C129.534 46.0533 129.844 46.16 130.198 46.16Z" fill="#7D7C81"/>
<path d="M159.3 47.15C158.773 47.15 158.307 47.0367 157.9 46.81C157.493 46.5833 157.173 46.2567 156.94 45.83C156.707 45.4 156.59 44.8817 156.59 44.275C156.59 43.685 156.7 43.1417 156.92 42.645C157.14 42.145 157.448 41.7033 157.845 41.32C158.242 40.9333 158.705 40.615 159.235 40.365C159.768 40.115 160.347 39.9433 160.97 39.85L161.36 40.71C160.85 40.7633 160.397 40.87 160 41.03C159.603 41.1867 159.262 41.3817 158.975 41.615C158.692 41.8483 158.46 42.1083 158.28 42.395C158.1 42.6783 157.967 42.975 157.88 43.285C158.067 43.045 158.303 42.855 158.59 42.715C158.877 42.5717 159.188 42.5 159.525 42.5C159.975 42.5 160.38 42.595 160.74 42.785C161.103 42.975 161.388 43.2383 161.595 43.575C161.805 43.9117 161.91 44.3 161.91 44.74C161.91 45.0767 161.847 45.3917 161.72 45.685C161.593 45.9783 161.413 46.235 161.18 46.455C160.947 46.6717 160.67 46.8417 160.35 46.965C160.033 47.0883 159.683 47.15 159.3 47.15ZM159.3 46.2C159.597 46.2 159.86 46.14 160.09 46.02C160.32 45.9 160.5 45.7367 160.63 45.53C160.763 45.32 160.83 45.08 160.83 44.81C160.83 44.5433 160.762 44.305 160.625 44.095C160.492 43.885 160.308 43.7183 160.075 43.595C159.845 43.4717 159.587 43.41 159.3 43.41C159.01 43.41 158.748 43.4717 158.515 43.595C158.285 43.7183 158.102 43.885 157.965 44.095C157.832 44.305 157.765 44.5433 157.765 44.81C157.765 45.08 157.83 45.32 157.96 45.53C158.093 45.7367 158.275 45.9 158.505 46.02C158.735 46.14 159 46.2 159.3 46.2ZM165.801 47.15C165.355 47.15 164.953 47.055 164.596 46.865C164.243 46.675 163.941 46.4117 163.691 46.075C163.445 45.7383 163.256 45.35 163.126 44.91C162.996 44.47 162.931 44 162.931 43.5C162.931 42.9967 162.996 42.525 163.126 42.085C163.256 41.645 163.445 41.2583 163.691 40.925C163.941 40.5883 164.243 40.325 164.596 40.135C164.953 39.945 165.355 39.85 165.801 39.85C166.248 39.85 166.648 39.945 167.001 40.135C167.358 40.325 167.66 40.5883 167.906 40.925C168.156 41.2583 168.346 41.645 168.476 42.085C168.61 42.525 168.676 42.9967 168.676 43.5C168.676 44 168.61 44.47 168.476 44.91C168.346 45.35 168.156 45.7383 167.906 46.075C167.66 46.4117 167.358 46.675 167.001 46.865C166.648 47.055 166.248 47.15 165.801 47.15ZM165.801 46.16C166.068 46.16 166.31 46.1 166.526 45.98C166.743 45.8567 166.93 45.68 167.086 45.45C167.246 45.22 167.368 44.9417 167.451 44.615C167.535 44.285 167.576 43.9133 167.576 43.5C167.576 42.9467 167.501 42.4717 167.351 42.075C167.205 41.675 166.998 41.37 166.731 41.16C166.468 40.9467 166.158 40.84 165.801 40.84C165.538 40.84 165.296 40.9017 165.076 41.025C164.86 41.145 164.673 41.32 164.516 41.55C164.36 41.78 164.238 42.0583 164.151 42.385C164.068 42.7117 164.026 43.0833 164.026 43.5C164.026 44.0533 164.1 44.5283 164.246 44.925C164.396 45.3217 164.605 45.6267 164.871 45.84C165.138 46.0533 165.448 46.16 165.801 46.16ZM172.598 47.15C172.151 47.15 171.75 47.055 171.393 46.865C171.04 46.675 170.738 46.4117 170.488 46.075C170.241 45.7383 170.053 45.35 169.923 44.91C169.793 44.47 169.728 44 169.728 43.5C169.728 42.9967 169.793 42.525 169.923 42.085C170.053 41.645 170.241 41.2583 170.488 40.925C170.738 40.5883 171.04 40.325 171.393 40.135C171.75 39.945 172.151 39.85 172.598 39.85C173.045 39.85 173.445 39.945 173.798 40.135C174.155 40.325 174.456 40.5883 174.703 40.925C174.953 41.2583 175.143 41.645 175.273 42.085C175.406 42.525 175.473 42.9967 175.473 43.5C175.473 44 175.406 44.47 175.273 44.91C175.143 45.35 174.953 45.7383 174.703 46.075C174.456 46.4117 174.155 46.675 173.798 46.865C173.445 47.055 173.045 47.15 172.598 47.15ZM172.598 46.16C172.865 46.16 173.106 46.1 173.323 45.98C173.54 45.8567 173.726 45.68 173.883 45.45C174.043 45.22 174.165 44.9417 174.248 44.615C174.331 44.285 174.373 43.9133 174.373 43.5C174.373 42.9467 174.298 42.4717 174.148 42.075C174.001 41.675 173.795 41.37 173.528 41.16C173.265 40.9467 172.955 40.84 172.598 40.84C172.335 40.84 172.093 40.9017 171.873 41.025C171.656 41.145 171.47 41.32 171.313 41.55C171.156 41.78 171.035 42.0583 170.948 42.385C170.865 42.7117 170.823 43.0833 170.823 43.5C170.823 44.0533 170.896 44.5283 171.043 44.925C171.193 45.3217 171.401 45.6267 171.668 45.84C171.935 46.0533 172.245 46.16 172.598 46.16Z" fill="#7D7C81"/>
<path d="M208.96 46.09L208.64 45.29L212.52 43.745L208.64 42.185L208.955 41.39L213.79 43.35V44.14L208.96 46.09ZM215.079 47V46.2L216.594 44.815C217.074 44.375 217.461 43.9967 217.754 43.68C218.048 43.36 218.261 43.0717 218.394 42.815C218.528 42.5583 218.594 42.2983 218.594 42.035C218.594 41.6517 218.463 41.3533 218.199 41.14C217.939 40.9233 217.576 40.815 217.109 40.815C216.799 40.815 216.503 40.8683 216.219 40.975C215.936 41.0817 215.694 41.2367 215.494 41.44L215.084 40.625C215.368 40.3717 215.694 40.18 216.064 40.05C216.434 39.9167 216.823 39.85 217.229 39.85C217.713 39.85 218.134 39.9367 218.494 40.11C218.858 40.28 219.139 40.5217 219.339 40.835C219.543 41.145 219.644 41.5083 219.644 41.925C219.644 42.215 219.586 42.505 219.469 42.795C219.356 43.0817 219.151 43.405 218.854 43.765C218.561 44.125 218.144 44.5567 217.604 45.06L216.529 46.05H219.819V47H215.079ZM221.738 47.15C221.524 47.15 221.339 47.0817 221.183 46.945C221.029 46.8083 220.953 46.63 220.953 46.41C220.953 46.26 220.988 46.13 221.058 46.02C221.128 45.9067 221.223 45.82 221.343 45.76C221.463 45.6967 221.594 45.665 221.738 45.665C221.954 45.665 222.138 45.7333 222.288 45.87C222.441 46.0033 222.518 46.1833 222.518 46.41C222.518 46.5567 222.483 46.6867 222.413 46.8C222.343 46.91 222.248 46.995 222.128 47.055C222.011 47.1183 221.881 47.15 221.738 47.15ZM226.375 47.15C225.929 47.15 225.527 47.055 225.17 46.865C224.817 46.675 224.515 46.4117 224.265 46.075C224.019 45.7383 223.83 45.35 223.7 44.91C223.57 44.47 223.505 44 223.505 43.5C223.505 42.9967 223.57 42.525 223.7 42.085C223.83 41.645 224.019 41.2583 224.265 40.925C224.515 40.5883 224.817 40.325 225.17 40.135C225.527 39.945 225.929 39.85 226.375 39.85C226.822 39.85 227.222 39.945 227.575 40.135C227.932 40.325 228.234 40.5883 228.48 40.925C228.73 41.2583 228.92 41.645 229.05 42.085C229.184 42.525 229.25 42.9967 229.25 43.5C229.25 44 229.184 44.47 229.05 44.91C228.92 45.35 228.73 45.7383 228.48 46.075C228.234 46.4117 227.932 46.675 227.575 46.865C227.222 47.055 226.822 47.15 226.375 47.15ZM226.375 46.16C226.642 46.16 226.884 46.1 227.1 45.98C227.317 45.8567 227.504 45.68 227.66 45.45C227.82 45.22 227.942 44.9417 228.025 44.615C228.109 44.285 228.15 43.9133 228.15 43.5C228.15 42.9467 228.075 42.4717 227.925 42.075C227.779 41.675 227.572 41.37 227.305 41.16C227.042 40.9467 226.732 40.84 226.375 40.84C226.112 40.84 225.87 40.9017 225.65 41.025C225.434 41.145 225.247 41.32 225.09 41.55C224.934 41.78 224.812 42.0583 224.725 42.385C224.642 42.7117 224.6 43.0833 224.6 43.5C224.6 44.0533 224.674 44.5283 224.82 44.925C224.97 45.3217 225.179 45.6267 225.445 45.84C225.712 46.0533 226.022 46.16 226.375 46.16ZM230.687 47V40H231.807V43.585L234.702 40H236.082L233.522 43.17L236.467 47H235.022L232.787 44.025L231.807 45.185V47H230.687Z" fill="#7D7C81"/>
<path d="M165.5 26L170 17H161L165.5 26Z" fill="#1B1A1F"/>
<path d="M159.784 10V8.51636H156.181V7.64272L158.776 2.76275H159.955L157.396 7.54967H159.784V5.94197H160.782V7.54967H161.898V8.51636H160.782V10H159.784ZM164.929 10.1551C164.629 10.1551 164.332 10.1241 164.039 10.062C163.75 10 163.483 9.91557 163.238 9.80873C162.997 9.69845 162.799 9.57266 162.644 9.43136L163.031 8.48018C163.248 8.68351 163.524 8.84549 163.858 8.96611C164.193 9.08673 164.525 9.14704 164.856 9.14704C165.184 9.14704 165.468 9.0919 165.709 8.98162C165.95 8.87133 166.136 8.71625 166.267 8.51636C166.402 8.31648 166.469 8.08041 166.469 7.80815C166.469 7.39459 166.317 7.07236 166.014 6.84146C165.714 6.61056 165.315 6.4951 164.815 6.4951C164.68 6.4951 164.541 6.50544 164.396 6.52612C164.251 6.54335 164.105 6.5692 163.957 6.60366L163.621 5.84375L165.885 3.73461H162.701V2.76275H167.26V3.65707L165.104 5.7507C165.535 5.74381 165.94 5.8179 166.319 5.97299C166.698 6.12807 167.003 6.36414 167.234 6.6812C167.468 6.99482 167.586 7.39114 167.586 7.87018C167.586 8.32509 167.472 8.72487 167.244 9.0695C167.017 9.41068 166.703 9.67777 166.304 9.87076C165.904 10.0603 165.445 10.1551 164.929 10.1551ZM168.93 10L171.98 3.80698H168.532V2.76275H173.272V3.62605L170.17 10H168.93Z" fill="#1B1A1F"/>
</svg>
