<svg width="46" height="46" viewBox="0 0 46 46" fill="none" xmlns="http://www.w3.org/2000/svg">
<path d="M28.0364 27.8439C29.201 27.8063 30.0546 28.3893 31.1462 28.4534C32.7558 28.5497 33.8094 27.6012 35.5036 27.9123C39.1241 28.5762 39.4962 32.9892 38.5681 35.7508C37.7947 38.0563 35.3694 41.1904 32.5354 40.9909C31.5708 40.9226 31.3009 40.9351 30.3465 40.9909C27.3389 41.1681 24.7428 37.5835 24.1358 35.0841C23.4412 32.2193 24.2306 27.9653 28.0364 27.8439Z" fill="#1DD673"/>
<path d="M9.20537 39.32C8.61728 39.2321 8.01167 38.617 8 38.034L8.00438 9.60324C8.03064 9.12484 8.448 8.61156 8.91059 8.44838C9.56727 8.21685 11.3593 8.27961 12.1254 8.3089C12.4406 8.32145 13.0739 8.30193 13.2388 8.56972C13.3687 8.78033 13.3629 10.7093 13.3293 11.0691C13.2082 12.3453 11.7416 11.0622 11.5008 12.1794L11.5344 35.7006L11.7387 35.9238L22.4645 35.9851C22.6075 36.0312 22.8074 36.8429 22.892 37.0396C23.0861 37.4873 23.3619 38.0173 23.6173 38.4357C23.7997 38.7342 24.0989 38.9978 24.1864 39.32H9.20537Z" fill="#1DD673"/>
<path d="M27.1592 8.46929C27.2482 8.55298 27.3138 8.90725 27.3255 9.04254C27.4072 9.97284 27.4175 11.8181 27.3211 12.7373C27.2774 13.1571 27.111 13.4835 26.7082 13.6843L15.6206 13.7513C15.0266 13.6648 14.8282 13.1878 14.7815 12.6717C14.6968 11.74 14.7041 10.0509 14.7815 9.11228C14.888 7.79981 16.1649 8.52508 17.0448 8.281C17.8781 3.90424 24.2216 3.90843 25.0622 8.281L25.2548 8.36329L26.7579 8.33121C26.8396 8.34376 27.1139 8.42466 27.1606 8.46929H27.1592ZM23.0206 8.31308C22.8192 6.38134 19.9897 6.03125 19.1769 7.80957C19.1126 7.94905 18.958 8.22939 19.1214 8.31308H23.0221H23.0206Z" fill="#1DD673"/>
<path d="M34.0975 20.0863C33.1898 20.1741 32.3449 20.6484 31.7699 21.3109C31.4372 21.6944 31.2066 22.5215 30.6112 22.0654L30.5966 12.1152C30.4697 11.2895 29.0352 12.0441 28.8105 11.383C28.7258 11.1333 28.7346 9.17784 28.7769 8.83473C28.8148 8.5251 29.0162 8.35912 29.3416 8.32844C30.1209 8.25451 32.3025 8.22383 33.0234 8.40236C33.559 8.53486 33.8567 8.89052 34.0668 9.35637L34.0975 20.0863Z" fill="#1DD673"/>
<path d="M31.1138 23.9916C31.2189 24.0139 31.232 23.9818 31.2919 23.9191C31.4466 23.7587 31.6188 23.3793 31.8128 23.1631C32.5833 22.3012 33.9667 21.7963 35.1546 21.9762C35.7865 22.0724 35.5588 23.2761 35.4538 23.7168C35.0773 25.3055 33.5859 26.2748 31.9442 26.4282L31.8727 26.5329C31.8668 26.7016 32.0434 27.3683 31.9194 27.445L31 27.4116C30.8672 26.2665 30.7446 25.0879 30.1055 24.0837L30.7271 23.5132C30.8818 23.4909 31.1197 23.8452 31.1153 23.9916H31.1138Z" fill="#1DD673"/>
<path d="M20.3783 17.6677C22.4695 17.8281 25.1064 17.3929 27.1348 17.6565C28.2088 17.7974 28.0936 19.0248 27.0706 19.1155C25.0393 18.9076 22.398 19.3888 20.4396 19.1085C19.4619 18.969 19.4429 17.8169 20.3798 17.6663L20.3783 17.6677Z" fill="#1DD673"/>
<path d="M20.2286 23.3793L27.2799 23.3682C28.1496 23.6206 28.0811 24.6555 27.1384 24.7573C25.0136 24.59 22.5109 24.9819 20.4315 24.7573C19.5661 24.6639 19.4362 23.6764 20.2286 23.3779V23.3793Z" fill="#1DD673"/>
<path d="M14.7584 24.8522C14.6592 24.749 14.4972 24.703 14.3863 24.5454C13.9412 23.9107 14.4958 23.1715 15.2254 23.3961C15.5027 23.4812 15.6588 23.9233 15.9755 23.8577C16.3505 23.5063 17.0889 22.5188 17.5982 22.4616C18.2286 22.3905 18.6372 22.9972 18.3468 23.5314C17.8769 23.8912 16.4527 25.5886 15.9711 25.6514C15.4895 25.7142 15.0488 25.1549 14.7584 24.8536V24.8522Z" fill="#1DD673"/>
<path d="M17.2137 30.2861C16.7876 30.6808 16.3498 31.4465 15.6362 31.2917C15.3954 31.2387 14.2922 30.1564 14.2309 29.9137C14.1171 29.4646 14.4936 29.0378 14.9781 29.0294C15.4625 29.0211 15.518 29.4395 15.9033 29.5566C16.4257 29.1842 17.7288 27.3334 18.3461 28.4938C18.7387 29.2317 17.6909 29.8454 17.2152 30.2861H17.2137Z" fill="#1DD673"/>
<path d="M14.4427 17.8825C15.1037 17.2521 15.6977 18.2368 15.902 18.2033C16.3149 17.9411 17.0767 16.8964 17.5203 16.8183C18.3317 16.6747 18.6834 17.4153 18.2091 18.0345C17.942 18.3832 16.8301 19.4251 16.4609 19.7083C16.1457 19.9482 15.883 20.0681 15.4846 19.8728C15.4014 19.8324 14.3989 18.8895 14.3434 18.8031C14.1567 18.5116 14.1888 18.1266 14.4427 17.8839V17.8825Z" fill="#1DD673"/>
<path d="M23.1662 29.0071C23.2581 29.0922 22.8612 29.5371 22.7897 29.6571C22.651 29.8914 22.5124 30.1299 22.4205 30.3865C22.3475 30.4619 20.4942 30.4284 20.2841 30.4033C19.7281 30.3391 19.4931 29.6459 19.8842 29.2484C19.9324 29.1996 20.2593 29.0057 20.287 29.0057H23.1662V29.0071Z" fill="#1DD673"/>
<path d="M23.0208 8.31304H19.1201C18.9567 8.22936 19.1128 7.94762 19.1756 7.80954C19.9899 6.03261 22.818 6.3813 23.0193 8.31304H23.0208Z" fill="white"/>
</svg>
