<svg width="47" height="47" viewBox="0 0 47 47" fill="none" xmlns="http://www.w3.org/2000/svg">
<rect width="47" height="47" rx="8" fill="#1DD673"/>
<path d="M19.3721 12V15.1367C19.3721 16.8539 19.4836 18.271 19.623 18.2725C20.0975 18.2725 22.6935 16.2004 23.5586 15.1367C24.0609 14.5367 24.7024 13.5815 24.9814 13.0088L25.5117 12H30.2559C32.8758 12 34.9947 12.1088 35 12.2178C35 12.845 33.9951 15.6004 33.2695 17.0459C31.9859 19.5002 30.8972 20.9457 28.7764 22.9365L26.8789 24.7637L28.5811 26.3457C31.1485 28.7184 33.2419 32.073 34.2744 35.373L34.4697 36H24.5352L23.7539 34.7725C21.5493 31.3907 16.6373 29.2362 12.5908 29.918L11 30.1904V12H19.3721ZM13.7344 20.8359L13.8174 26.9453L15.8828 27.2451C19.5665 27.7633 22.9434 29.5368 25.1201 32.0459L26.209 33.2998L28.3857 33.2178L30.5342 33.1367L29.3066 31.3359C27.7997 29.1269 25.2036 26.8095 22.999 25.6641C22.0781 25.1732 21.3252 24.7362 21.3252 24.6816C21.3278 24.6258 22.2194 24.108 23.334 23.5361C25.8176 22.2544 28.6364 19.5821 30.1992 17.0186C30.8411 15.9549 31.3711 15.0271 31.3711 14.918C31.3695 14.809 30.4216 14.7275 29.2783 14.7275H27.2129L26.376 15.873C24.6179 18.3547 21.9668 20.3452 19.1484 21.2998C17.8862 21.7192 17.2174 21.977 16.8818 21.7549C16.4757 21.4857 16.5571 20.5128 16.6641 18.2725L16.832 14.7275H13.6504L13.7344 20.8359Z" fill="white"/>
</svg>
