<svg width="66" height="66" viewBox="0 0 66 66" fill="none" xmlns="http://www.w3.org/2000/svg">
<path d="M26 12V17.4883C26 20.4951 26.2002 22.9775 26.4502 22.9775C27.3007 22.977 31.9501 19.3495 33.5 17.4883C34.4 16.4383 35.5498 14.7678 36.0498 13.7656L37 12H45.5C50.2 12 54 12.1909 54 12.3818C54 13.4795 52.2004 18.2994 50.9004 20.8291C48.6004 25.1246 46.6496 27.6546 42.8496 31.1387L39.4502 34.3359L42.5 37.1045C47.1 41.2568 50.8502 47.1273 52.7002 52.9023L53.0498 54H35.25L33.8496 51.8525C29.8996 45.9344 21.0996 42.1633 13.8496 43.3564L11 43.834V12H26ZM15.9004 27.4639L16.0498 38.1543L19.75 38.6797C26.35 39.5865 32.3998 42.6892 36.2998 47.0801L38.25 49.2754L42.1504 49.1318L46 48.9883L43.7998 45.8389C41.0998 41.973 36.45 37.9157 32.5 35.9111C30.8505 35.0523 29.5008 34.2892 29.5 34.1934C29.5 34.0979 31.0997 33.1907 33.0996 32.1885C37.5496 29.9453 42.6004 25.2686 45.4004 20.7822C46.5504 18.9209 47.5 17.2974 47.5 17.1064C47.4972 16.9158 45.7983 16.7725 43.75 16.7725H40.0498L38.5498 18.7773C35.3998 23.1205 30.6496 26.6049 25.5996 28.2754C23.3381 29.0094 22.1401 29.4603 21.5391 29.0713C20.8114 28.6003 20.9587 26.898 21.1504 22.9775L21.4502 16.7725H15.75L15.9004 27.4639Z" fill="#1DD673"/>
</svg>
