<svg width="239" height="54" viewBox="0 0 239 54" fill="none" xmlns="http://www.w3.org/2000/svg">
<rect x="0.364746" width="238.163" height="54" rx="18.1482" fill="#F1F1F1" fill-opacity="0.1"/>
<rect x="1.49901" y="1.13426" width="235.895" height="51.7315" rx="17.0139" stroke="url(#paint0_linear_6163_255)" stroke-opacity="0.06" stroke-width="2.26852"/>
<path d="M65.3003 32.6851V21.4851H67.3083L71.7723 28.7971L70.9563 28.8051L75.2363 21.4851H77.2203V32.6851H75.1963L75.2283 24.2051L75.6123 24.3411L71.9963 30.3731H70.5323L66.8283 24.3411L67.1723 24.2051L67.2043 32.6851H65.3003ZM83.2023 32.9251C82.3489 32.9251 81.5916 32.7331 80.9303 32.3491C80.2743 31.9597 79.7596 31.4451 79.3863 30.8051C79.0129 30.1597 78.8263 29.4531 78.8263 28.6851C78.8263 28.1197 78.9329 27.5811 79.1463 27.0691C79.3596 26.5571 79.6609 26.1064 80.0503 25.7171C80.4449 25.3224 80.9089 25.0131 81.4423 24.7891C81.9756 24.5597 82.5623 24.4451 83.2023 24.4451C84.0503 24.4451 84.8023 24.6371 85.4583 25.0211C86.1196 25.4051 86.6369 25.9197 87.0103 26.5651C87.3889 27.2104 87.5783 27.9171 87.5783 28.6851C87.5783 29.2504 87.4689 29.7891 87.2503 30.3011C87.0369 30.8077 86.7356 31.2584 86.3463 31.6531C85.9569 32.0477 85.4956 32.3597 84.9623 32.5891C84.4289 32.8131 83.8423 32.9251 83.2023 32.9251ZM83.1943 31.1331C83.6476 31.1331 84.0503 31.0344 84.4023 30.8371C84.7596 30.6344 85.0396 30.3517 85.2423 29.9891C85.4449 29.6211 85.5463 29.1864 85.5463 28.6851C85.5463 28.1837 85.4449 27.7491 85.2423 27.3811C85.0396 27.0131 84.7623 26.7304 84.4103 26.5331C84.0583 26.3357 83.6556 26.2371 83.2023 26.2371C82.7489 26.2371 82.3436 26.3357 81.9863 26.5331C81.6343 26.7304 81.3569 27.0131 81.1543 27.3811C80.9569 27.7491 80.8583 28.1837 80.8583 28.6851C80.8583 29.1864 80.9596 29.6211 81.1623 29.9891C81.3649 30.3517 81.6423 30.6344 81.9943 30.8371C82.3463 31.0344 82.7463 31.1331 83.1943 31.1331ZM92.35 32.9251C91.5714 32.9251 90.8807 32.7437 90.278 32.3811C89.6754 32.0184 89.2034 31.5171 88.862 30.8771C88.5207 30.2371 88.35 29.5064 88.35 28.6851C88.35 28.0931 88.446 27.5411 88.638 27.0291C88.8354 26.5117 89.1127 26.0611 89.47 25.6771C89.8327 25.2877 90.2594 24.9864 90.75 24.7731C91.2407 24.5544 91.7847 24.4451 92.382 24.4451C93.07 24.4451 93.6727 24.5837 94.19 24.8611C94.7074 25.1331 95.1474 25.5197 95.51 26.0211L95.062 26.4851V21.1651H97.11V32.6851H95.302V30.7091L95.59 31.1731C95.318 31.6797 94.9127 32.0984 94.374 32.4291C93.8354 32.7597 93.1607 32.9251 92.35 32.9251ZM92.726 31.1331C93.174 31.1331 93.574 31.0344 93.926 30.8371C94.2834 30.6344 94.5634 30.3517 94.766 29.9891C94.9687 29.6211 95.07 29.1864 95.07 28.6851C95.07 28.1837 94.9687 27.7491 94.766 27.3811C94.5634 27.0131 94.286 26.7304 93.934 26.5331C93.582 26.3357 93.1794 26.2371 92.726 26.2371C92.2727 26.2371 91.8674 26.3357 91.51 26.5331C91.158 26.7304 90.8807 27.0131 90.678 27.3811C90.4807 27.7491 90.382 28.1837 90.382 28.6851C90.382 29.1864 90.4834 29.6211 90.686 29.9891C90.8887 30.3517 91.166 30.6344 91.518 30.8371C91.87 31.0344 92.2727 31.1331 92.726 31.1331ZM102.851 32.9251C101.982 32.9251 101.219 32.7491 100.563 32.3971C99.9072 32.0397 99.3952 31.5437 99.0272 30.9091C98.6645 30.2744 98.4832 29.5357 98.4832 28.6931C98.4832 28.0744 98.5872 27.5064 98.7952 26.9891C99.0085 26.4717 99.3072 26.0237 99.6912 25.6451C100.08 25.2611 100.534 24.9651 101.051 24.7571C101.574 24.5491 102.144 24.4451 102.763 24.4451C103.435 24.4451 104.035 24.5651 104.563 24.8051C105.091 25.0397 105.528 25.3731 105.875 25.8051C106.227 26.2317 106.472 26.7331 106.611 27.3091C106.755 27.8797 106.774 28.5037 106.667 29.1811H100.411C100.406 29.6024 100.504 29.9704 100.707 30.2851C100.915 30.5997 101.208 30.8477 101.587 31.0291C101.971 31.2051 102.422 31.2931 102.939 31.2931C103.398 31.2931 103.838 31.2264 104.259 31.0931C104.68 30.9597 105.072 30.7624 105.435 30.5011L106.155 31.9331C105.904 32.1357 105.592 32.3117 105.219 32.4611C104.846 32.6104 104.451 32.7251 104.035 32.8051C103.624 32.8851 103.23 32.9251 102.851 32.9251ZM100.531 27.7251H104.683C104.667 27.1864 104.488 26.7651 104.147 26.4611C103.806 26.1517 103.328 25.9971 102.715 25.9971C102.107 25.9971 101.606 26.1517 101.211 26.4611C100.816 26.7651 100.59 27.1864 100.531 27.7251ZM108.101 32.6851V24.6851H110.149V25.7331C110.426 25.2637 110.773 24.9304 111.189 24.7331C111.61 24.5357 112.063 24.4371 112.549 24.4371C112.719 24.4371 112.877 24.4451 113.021 24.4611C113.165 24.4771 113.303 24.5011 113.437 24.5331L113.181 26.6451C113.015 26.5864 112.842 26.5437 112.661 26.5171C112.485 26.4851 112.309 26.4691 112.133 26.4691C111.557 26.4691 111.082 26.6424 110.709 26.9891C110.335 27.3304 110.149 27.8104 110.149 28.4291V32.6851H108.101ZM114.531 32.6851V24.6851H116.579V25.6451C116.899 25.2237 117.272 24.9197 117.699 24.7331C118.131 24.5411 118.581 24.4451 119.051 24.4451C119.787 24.4451 120.395 24.5917 120.875 24.8851C121.36 25.1784 121.72 25.5544 121.955 26.0131C122.189 26.4717 122.307 26.9517 122.307 27.4531V32.6851H120.259V28.0931C120.259 27.5491 120.101 27.1171 119.787 26.7971C119.472 26.4771 119.032 26.3171 118.467 26.3171C118.099 26.3171 117.771 26.3997 117.483 26.5651C117.2 26.7251 116.979 26.9517 116.819 27.2451C116.659 27.5384 116.579 27.8771 116.579 28.2611V32.6851H114.531ZM128.029 32.6851V21.4851H132.229C133.034 21.4851 133.749 21.6264 134.373 21.9091C134.997 22.1864 135.485 22.5891 135.837 23.1171C136.194 23.6451 136.373 24.2797 136.373 25.0211C136.373 25.7731 136.208 26.4104 135.877 26.9331C135.552 27.4557 135.077 27.8557 134.453 28.1331C133.829 28.4051 133.072 28.5411 132.181 28.5411H130.109V32.6851H128.029ZM130.109 26.7731H132.173C132.84 26.7731 133.36 26.6344 133.733 26.3571C134.106 26.0797 134.293 25.6477 134.293 25.0611C134.293 24.4744 134.101 24.0344 133.717 23.7411C133.338 23.4424 132.829 23.2931 132.189 23.2931H130.109V26.7731ZM139.967 32.9251C139.423 32.9251 138.94 32.8211 138.519 32.6131C138.097 32.4051 137.767 32.1117 137.527 31.7331C137.287 31.3491 137.167 30.8957 137.167 30.3731C137.167 29.9251 137.279 29.5251 137.503 29.1731C137.727 28.8211 138.071 28.5304 138.535 28.3011C138.999 28.0664 139.591 27.9091 140.311 27.8291C141.036 27.7491 141.895 27.7597 142.887 27.8611L142.919 29.2131C142.268 29.1117 141.7 29.0664 141.215 29.0771C140.729 29.0877 140.327 29.1437 140.007 29.2451C139.692 29.3464 139.455 29.4851 139.295 29.6611C139.14 29.8371 139.063 30.0424 139.063 30.2771C139.063 30.6291 139.191 30.9011 139.447 31.0931C139.703 31.2797 140.052 31.3731 140.495 31.3731C140.873 31.3731 141.212 31.3037 141.511 31.1651C141.815 31.0264 142.055 30.8317 142.231 30.5811C142.407 30.3251 142.495 30.0237 142.495 29.6771V27.6531C142.495 27.3171 142.423 27.0264 142.279 26.7811C142.14 26.5304 141.927 26.3384 141.639 26.2051C141.351 26.0664 140.98 25.9971 140.527 25.9971C140.111 25.9971 139.697 26.0611 139.287 26.1891C138.881 26.3117 138.5 26.5037 138.143 26.7651L137.591 25.3011C138.097 24.9651 138.631 24.7251 139.191 24.5811C139.751 24.4371 140.292 24.3651 140.815 24.3651C141.561 24.3651 142.207 24.4824 142.751 24.7171C143.3 24.9517 143.721 25.3117 144.015 25.7971C144.313 26.2771 144.463 26.8877 144.463 27.6291V32.6851H142.655V31.7731C142.388 32.1411 142.02 32.4264 141.551 32.6291C141.081 32.8264 140.553 32.9251 139.967 32.9251ZM146.407 32.6851V21.1651H148.455V32.6851H146.407ZM154.189 32.9251C153.32 32.9251 152.557 32.7491 151.901 32.3971C151.245 32.0397 150.733 31.5437 150.365 30.9091C150.003 30.2744 149.821 29.5357 149.821 28.6931C149.821 28.0744 149.925 27.5064 150.133 26.9891C150.347 26.4717 150.645 26.0237 151.029 25.6451C151.419 25.2611 151.872 24.9651 152.389 24.7571C152.912 24.5491 153.483 24.4451 154.101 24.4451C154.773 24.4451 155.373 24.5651 155.901 24.8051C156.429 25.0397 156.867 25.3731 157.213 25.8051C157.565 26.2317 157.811 26.7331 157.949 27.3091C158.093 27.8797 158.112 28.5037 158.005 29.1811H151.749C151.744 29.6024 151.843 29.9704 152.045 30.2851C152.253 30.5997 152.547 30.8477 152.925 31.0291C153.309 31.2051 153.76 31.2931 154.277 31.2931C154.736 31.2931 155.176 31.2264 155.597 31.0931C156.019 30.9597 156.411 30.7624 156.773 30.5011L157.493 31.9331C157.243 32.1357 156.931 32.3117 156.557 32.4611C156.184 32.6104 155.789 32.7251 155.373 32.8051C154.963 32.8851 154.568 32.9251 154.189 32.9251ZM151.869 27.7251H156.021C156.005 27.1864 155.827 26.7651 155.485 26.4611C155.144 26.1517 154.667 25.9971 154.053 25.9971C153.445 25.9971 152.944 26.1517 152.549 26.4611C152.155 26.7651 151.928 27.1864 151.869 27.7251ZM163.221 32.9251C162.368 32.9251 161.61 32.7331 160.949 32.3491C160.293 31.9597 159.778 31.4451 159.405 30.8051C159.032 30.1597 158.845 29.4531 158.845 28.6851C158.845 28.1197 158.952 27.5811 159.165 27.0691C159.378 26.5571 159.68 26.1064 160.069 25.7171C160.464 25.3224 160.928 25.0131 161.461 24.7891C161.994 24.5597 162.581 24.4451 163.221 24.4451C164.069 24.4451 164.821 24.6371 165.477 25.0211C166.138 25.4051 166.656 25.9197 167.029 26.5651C167.408 27.2104 167.597 27.9171 167.597 28.6851C167.597 29.2504 167.488 29.7891 167.269 30.3011C167.056 30.8077 166.754 31.2584 166.365 31.6531C165.976 32.0477 165.514 32.3597 164.981 32.5891C164.448 32.8131 163.861 32.9251 163.221 32.9251ZM163.213 31.1331C163.666 31.1331 164.069 31.0344 164.421 30.8371C164.778 30.6344 165.058 30.3517 165.261 29.9891C165.464 29.6211 165.565 29.1864 165.565 28.6851C165.565 28.1837 165.464 27.7491 165.261 27.3811C165.058 27.0131 164.781 26.7304 164.429 26.5331C164.077 26.3357 163.674 26.2371 163.221 26.2371C162.768 26.2371 162.362 26.3357 162.005 26.5331C161.653 26.7304 161.376 27.0131 161.173 27.3811C160.976 27.7491 160.877 28.1837 160.877 28.6851C160.877 29.1864 160.978 29.6211 161.181 29.9891C161.384 30.3517 161.661 30.6344 162.013 30.8371C162.365 31.0344 162.765 31.1331 163.213 31.1331ZM172.718 32.6851V21.4851H176.726C177.82 21.4851 178.7 21.7251 179.366 22.2051C180.038 22.6797 180.374 23.3837 180.374 24.3171C180.374 24.6637 180.294 24.9917 180.134 25.3011C179.974 25.6104 179.766 25.8824 179.51 26.1171C179.254 26.3464 178.982 26.5224 178.694 26.6451C179.302 26.8371 179.804 27.1811 180.198 27.6771C180.593 28.1731 180.79 28.7784 180.79 29.4931C180.79 30.1224 180.63 30.6771 180.31 31.1571C179.996 31.6371 179.545 32.0131 178.958 32.2851C178.372 32.5517 177.678 32.6851 176.878 32.6851H172.718ZM174.798 31.0931H176.55C177.249 31.0931 177.772 30.9544 178.118 30.6771C178.465 30.3944 178.638 29.9731 178.638 29.4131C178.638 28.8637 178.465 28.4424 178.118 28.1491C177.777 27.8557 177.257 27.7091 176.558 27.7091H174.798V31.0931ZM174.798 26.2051H176.422C176.812 26.2051 177.15 26.1411 177.438 26.0131C177.726 25.8851 177.95 25.7011 178.11 25.4611C178.27 25.2157 178.35 24.9251 178.35 24.5891C178.35 24.0984 178.18 23.7251 177.838 23.4691C177.502 23.2077 177.02 23.0771 176.39 23.0771H174.798V26.2051ZM182.432 32.6851V24.6851H184.48V25.7331C184.757 25.2637 185.104 24.9304 185.52 24.7331C185.941 24.5357 186.395 24.4371 186.88 24.4371C187.051 24.4371 187.208 24.4451 187.352 24.4611C187.496 24.4771 187.635 24.5011 187.768 24.5331L187.512 26.6451C187.347 26.5864 187.173 26.5437 186.992 26.5171C186.816 26.4851 186.64 26.4691 186.464 26.4691C185.888 26.4691 185.413 26.6424 185.04 26.9891C184.667 27.3304 184.48 27.8104 184.48 28.4291V32.6851H182.432ZM191.086 32.9251C190.542 32.9251 190.059 32.8211 189.638 32.6131C189.217 32.4051 188.886 32.1117 188.646 31.7331C188.406 31.3491 188.286 30.8957 188.286 30.3731C188.286 29.9251 188.398 29.5251 188.622 29.1731C188.846 28.8211 189.19 28.5304 189.654 28.3011C190.118 28.0664 190.71 27.9091 191.43 27.8291C192.155 27.7491 193.014 27.7597 194.006 27.8611L194.038 29.2131C193.387 29.1117 192.819 29.0664 192.334 29.0771C191.849 29.0877 191.446 29.1437 191.126 29.2451C190.811 29.3464 190.574 29.4851 190.414 29.6611C190.259 29.8371 190.182 30.0424 190.182 30.2771C190.182 30.6291 190.31 30.9011 190.566 31.0931C190.822 31.2797 191.171 31.3731 191.614 31.3731C191.993 31.3731 192.331 31.3037 192.63 31.1651C192.934 31.0264 193.174 30.8317 193.35 30.5811C193.526 30.3251 193.614 30.0237 193.614 29.6771V27.6531C193.614 27.3171 193.542 27.0264 193.398 26.7811C193.259 26.5304 193.046 26.3384 192.758 26.2051C192.47 26.0664 192.099 25.9971 191.646 25.9971C191.23 25.9971 190.817 26.0611 190.406 26.1891C190.001 26.3117 189.619 26.5037 189.262 26.7651L188.71 25.3011C189.217 24.9651 189.75 24.7251 190.31 24.5811C190.87 24.4371 191.411 24.3651 191.934 24.3651C192.681 24.3651 193.326 24.4824 193.87 24.7171C194.419 24.9517 194.841 25.3117 195.134 25.7971C195.433 26.2771 195.582 26.8877 195.582 27.6291V32.6851H193.774V31.7731C193.507 32.1411 193.139 32.4264 192.67 32.6291C192.201 32.8264 191.673 32.9251 191.086 32.9251ZM197.526 32.6851V24.6851H199.574V25.6451C199.894 25.2237 200.268 24.9197 200.694 24.7331C201.126 24.5411 201.577 24.4451 202.046 24.4451C202.782 24.4451 203.39 24.5917 203.87 24.8851C204.356 25.1784 204.716 25.5544 204.95 26.0131C205.185 26.4717 205.302 26.9517 205.302 27.4531V32.6851H203.254V28.0931C203.254 27.5491 203.097 27.1171 202.782 26.7971C202.468 26.4771 202.028 26.3171 201.462 26.3171C201.094 26.3171 200.766 26.3997 200.478 26.5651C200.196 26.7251 199.974 26.9517 199.814 27.2451C199.654 27.5384 199.574 27.8771 199.574 28.2611V32.6851H197.526ZM210.597 32.9251C209.818 32.9251 209.128 32.7437 208.525 32.3811C207.922 32.0184 207.45 31.5171 207.109 30.8771C206.768 30.2371 206.597 29.5064 206.597 28.6851C206.597 28.0931 206.693 27.5411 206.885 27.0291C207.082 26.5117 207.36 26.0611 207.717 25.6771C208.08 25.2877 208.506 24.9864 208.997 24.7731C209.488 24.5544 210.032 24.4451 210.629 24.4451C211.317 24.4451 211.92 24.5837 212.437 24.8611C212.954 25.1331 213.394 25.5197 213.757 26.0211L213.309 26.4851V21.1651H215.357V32.6851H213.549V30.7091L213.837 31.1731C213.565 31.6797 213.16 32.0984 212.621 32.4291C212.082 32.7597 211.408 32.9251 210.597 32.9251ZM210.973 31.1331C211.421 31.1331 211.821 31.0344 212.173 30.8371C212.53 30.6344 212.81 30.3517 213.013 29.9891C213.216 29.6211 213.317 29.1864 213.317 28.6851C213.317 28.1837 213.216 27.7491 213.013 27.3811C212.81 27.0131 212.533 26.7304 212.181 26.5331C211.829 26.3357 211.426 26.2371 210.973 26.2371C210.52 26.2371 210.114 26.3357 209.757 26.5331C209.405 26.7304 209.128 27.0131 208.925 27.3811C208.728 27.7491 208.629 28.1837 208.629 28.6851C208.629 29.1864 208.73 29.6211 208.933 29.9891C209.136 30.3517 209.413 30.6344 209.765 30.8371C210.117 31.0344 210.52 31.1331 210.973 31.1331ZM220.202 32.9171C219.514 32.9171 218.874 32.8237 218.282 32.6371C217.695 32.4504 217.197 32.1944 216.786 31.8691L217.498 30.4131C217.893 30.6957 218.327 30.9197 218.802 31.0851C219.277 31.2504 219.741 31.3331 220.194 31.3331C220.674 31.3331 221.047 31.2531 221.314 31.0931C221.581 30.9331 221.714 30.7091 221.714 30.4211C221.714 30.1491 221.597 29.9491 221.362 29.8211C221.127 29.6931 220.685 29.5597 220.034 29.4211C218.999 29.2184 218.247 28.9197 217.778 28.5251C217.309 28.1251 217.074 27.5757 217.074 26.8771C217.074 26.3811 217.21 25.9437 217.482 25.5651C217.759 25.1864 218.138 24.8931 218.618 24.6851C219.103 24.4717 219.661 24.3651 220.29 24.3651C220.903 24.3651 221.482 24.4504 222.026 24.6211C222.575 24.7917 223.047 25.0317 223.442 25.3411L222.762 26.8051C222.554 26.6291 222.317 26.4771 222.05 26.3491C221.783 26.2211 221.501 26.1224 221.202 26.0531C220.909 25.9837 220.618 25.9491 220.33 25.9491C219.909 25.9491 219.567 26.0237 219.306 26.1731C219.05 26.3224 218.922 26.5331 218.922 26.8051C218.922 27.0771 219.042 27.2797 219.282 27.4131C219.522 27.5411 219.957 27.6771 220.586 27.8211C221.653 28.0504 222.415 28.3544 222.874 28.7331C223.333 29.1117 223.562 29.6424 223.562 30.3251C223.562 30.8477 223.421 31.3037 223.138 31.6931C222.855 32.0771 222.461 32.3784 221.954 32.5971C221.453 32.8104 220.869 32.9171 220.202 32.9171Z" fill="white"/>
<g clip-path="url(#clip0_6163_255)">
<rect x="6.41602" y="6.04883" width="42.3457" height="42.3457" rx="12.0988" fill="#1DD673" fill-opacity="0.05"/>
<g filter="url(#filter1_f_6163_255)">
<circle cx="39.4064" cy="36.1641" r="7.5" transform="rotate(-32.5961 39.4064 36.1641)" fill="#1DD573"/>
</g>
<path d="M19.284 30.8477C19.5146 31.1255 19.9539 31.2172 20.3026 31.1284C20.7033 31.0264 21.4338 30.0295 21.6983 30.0172C21.8287 30.0106 22.4221 30.4255 22.6291 30.4992C22.9966 30.6306 23.3925 30.5881 23.6779 30.3037C23.883 30.0996 23.8849 29.8501 24.0625 29.647C24.9819 29.7094 26.13 29.8332 26.8397 29.1227C27.9017 30.4267 27.9262 32.447 27.5954 34.0316C27.1426 36.2011 25.7941 37.9803 23.4422 38.1389C22.7279 38.1871 22.0532 37.9971 21.3634 38.0434C19.7901 38.1472 18.6997 38.2294 17.4203 37.1228C15.6231 35.5683 15.0592 31.8094 16.1224 29.7344C16.1743 29.6324 16.3634 29.2648 16.4522 29.2629C16.5268 29.261 16.7725 29.4415 16.8906 29.4878C17.5303 29.7411 18.2258 29.6495 18.8891 29.6609C19.0081 30.0596 19.0081 30.5151 19.284 30.8486L19.284 30.8477Z" fill="white"/>
<path d="M35.0545 22.8439C34.3023 22.9128 33.4509 23.2624 32.8367 23.6933L32.7658 23.5751C32.7583 22.6586 32.5146 21.8591 33.0768 21.0541C34.4754 19.0509 38.9061 19.5548 38.9986 22.1581C39.0307 23.0633 38.8445 24.425 38.7594 25.3689C38.5788 27.3939 38.3443 29.4415 38.0447 31.4513C37.8225 32.9377 37.262 36.7372 36.3501 37.8285C35.5109 38.8339 34.9129 37.1349 34.6984 36.5093C34.6332 36.3175 34.3489 35.4302 34.3876 35.3036C34.4434 35.1212 34.8951 34.9861 35.0718 34.9219L34.9064 34.3171L34.1807 34.5505C34.1628 34.1366 33.9058 33.5413 33.9134 33.1491C33.921 32.7976 34.4208 32.5539 34.71 32.4603C34.8338 32.4207 35.2524 32.3611 35.3015 32.3205C35.3885 32.2487 35.3356 31.712 35.1976 31.6902C34.8234 31.6316 34.1005 32.0322 33.7566 32.19C33.7415 31.8461 33.493 31.0693 33.5932 30.7764C33.6253 30.681 33.8587 30.44 33.9476 30.3758C34.163 30.2208 34.5117 30.1727 34.6714 30.0612C34.781 29.9846 34.6856 29.5736 34.6298 29.4989C34.4503 29.258 33.4987 29.9496 33.425 29.8778C33.4166 29.5102 33.2314 29.0368 33.3986 28.6948C33.8069 27.8557 35.3878 27.6602 36.2136 27.6857L36.3006 27.1235C36.2618 27.0035 35.7128 27.0365 35.5711 27.0441C34.8756 27.08 34.1225 27.2812 33.5319 27.6487C33.4081 27.7253 33.3458 27.8727 33.1889 27.849L33.0671 26.4779C33.2278 26.0877 33.7862 26.0528 34.0357 25.8874C34.2086 25.7722 34.0461 25.2609 33.9214 25.2505C33.6738 25.2316 33.2514 25.5208 33.0237 25.6285C32.9613 25.6247 32.9198 25.3006 32.9122 25.2221C32.8518 24.6278 32.8697 24.4426 33.3819 24.0987C34.1945 23.5525 35.216 23.4883 36.1666 23.4846C36.2101 23.3977 36.3159 22.844 36.1874 22.844C35.8293 22.8439 35.4013 22.8127 35.0545 22.8439Z" fill="white"/>
<path d="M31.4235 36.5128C30.3197 37.8914 28.2503 38.5574 26.5807 37.8761C26.5674 37.8146 27.005 37.448 27.091 37.3507C28.8883 35.3155 29.3232 31.2741 27.9229 28.9362C27.7406 28.6329 27.5261 28.4449 27.3381 28.1888C26.946 27.6558 27.1246 27.6719 26.4716 27.2722C25.7715 26.8441 24.9985 26.5332 24.3201 26.0692L24.7002 22.6136L26.5484 22.6175C27.2883 23.2412 28.1585 23.382 29.0213 22.8992C29.1422 22.8312 29.3511 22.6261 29.4389 22.6091C29.6752 22.5638 30.8781 22.5724 31.1398 22.6064C31.2211 22.6168 31.2825 22.6244 31.3269 22.7028L32.3903 33.4863C32.4639 34.5588 32.0925 35.6794 31.4244 36.5138L31.4235 36.5128Z" fill="white"/>
<path d="M24.1534 21.6848C24.0249 21.543 23.9427 21.3739 23.9437 21.1735C23.9456 20.6973 24.3 19.6428 24.5268 19.2072C25.0343 18.233 25.7704 17.6377 26.9251 17.8051C27.2341 17.8495 27.5582 18.0952 27.8331 18.1245C28.127 18.1557 28.3642 18.0508 28.6363 18.031C29.6975 17.9526 30.9003 18.6094 31.4634 19.4977C31.8159 20.0533 32.4838 21.7022 31.4917 21.9242C30.8661 22.064 29.942 21.8504 29.2994 21.9506C29.0235 21.994 28.8166 22.2935 28.5756 22.4069C28.192 22.5874 27.8017 22.5845 27.4143 22.4135C27.197 22.318 27.0014 22.0525 26.8313 22.0052C26.1784 21.8257 25.2542 22.0382 24.5805 21.9437C24.3821 21.9153 24.28 21.8246 24.1544 21.6857L24.1534 21.6848Z" fill="white"/>
<path d="M20.2281 30.416C20.212 30.4273 20.2111 30.4793 20.1742 30.4878C20.0939 30.5057 19.9012 30.501 19.8293 30.466C19.6196 30.364 19.51 29.1034 19.4033 28.8379C18.7182 28.9985 17.7997 29.1421 17.127 28.8728C16.2491 28.5221 17.4133 27.9401 17.7856 27.7124C18.8147 27.0832 19.9675 26.5191 21.211 26.7242C21.3357 26.745 21.485 26.8471 21.6003 26.848C21.7817 26.848 22.1881 26.6194 22.4999 26.6166C23.3966 26.6081 25.293 27.6713 26.0933 28.1683C26.8937 28.6654 26.0092 28.9441 25.5131 29.0197C24.8687 29.1179 24.315 29.0168 23.6856 28.8892C23.4163 29.098 23.3936 29.8983 23.0128 29.921C22.7435 29.937 21.9309 29.2963 21.6087 29.2236C21.3583 29.2604 20.5135 30.2204 20.2281 30.415L20.2281 30.416Z" fill="white"/>
<path d="M35.5027 16.6839C35.5481 16.5233 36.1141 16.5119 36.1566 16.6433L36.1423 19.118C36.0808 19.2059 35.495 19.1492 35.3372 19.1634C35.0925 19.1851 34.7731 19.324 34.5397 19.3022C34.3554 19.2852 33.2234 18.7796 33.0051 18.6615C32.3135 18.2854 31.6408 17.4254 32.0367 16.6185C32.1473 16.3927 32.496 16.0809 32.7511 16.0582C33.834 15.96 34.861 17.9756 35.4081 18.7145L35.5016 18.7627C35.598 18.7032 35.5016 18.6531 35.5016 18.621L35.5017 16.6858L35.5027 16.6839ZM34.5586 18.5954C34.2506 18.0681 33.9123 17.4917 33.4503 17.0844C33.2207 16.8813 32.7114 16.4314 32.5857 16.9776C32.3815 17.8696 33.9076 18.4007 34.5577 18.5964L34.5586 18.5954Z" fill="white"/>
<path d="M27.7437 15.4859C27.8722 15.4925 28.2747 15.4179 28.3201 15.5568C28.2804 16.0821 28.3966 16.7445 28.3285 17.252C28.2841 17.5846 27.7058 17.4872 27.6718 17.3852L27.686 15.5246L27.7427 15.4868L27.7437 15.4859Z" fill="white"/>
<path d="M21.5091 24.543L22.0411 24.8529C21.8842 25.161 22.0335 25.7705 21.9475 26.0218C21.8842 26.2051 21.3427 26.292 21.3154 25.984C21.3919 25.5049 21.2436 24.9738 21.5091 24.543Z" fill="white"/>
</g>
<rect x="7.16602" y="6.79883" width="40.8457" height="40.8457" rx="11.3488" stroke="#1DD673" stroke-width="1.5"/>
<path d="M219.212 7.70947V7.70947C225.894 7.70947 231.311 13.1263 231.311 19.8082V19.8082" stroke="#1DD673" stroke-width="2.26852" stroke-linecap="round"/>
<defs>
<filter id="filter1_f_6163_255" x="1.90527" y="-1.33691" width="75.002" height="75.002" filterUnits="userSpaceOnUse" color-interpolation-filters="sRGB">
<feFlood flood-opacity="0" result="BackgroundImageFix"/>
<feBlend mode="normal" in="SourceGraphic" in2="BackgroundImageFix" result="shape"/>
<feGaussianBlur stdDeviation="15" result="effect1_foregroundBlur_6163_255"/>
</filter>
<linearGradient id="paint0_linear_6163_255" x1="119.446" y1="0" x2="119.446" y2="54" gradientUnits="userSpaceOnUse">
<stop stop-color="#F6F6F6"/>
<stop offset="1" stop-color="#E6E6E6"/>
</linearGradient>
<clipPath id="clip0_6163_255">
<rect x="6.41602" y="6.04883" width="42.3457" height="42.3457" rx="12.0988" fill="white"/>
</clipPath>
</defs>
</svg>
