<svg width="311" height="263" viewBox="0 0 311 263" fill="none" xmlns="http://www.w3.org/2000/svg">
<g filter="url(#filter0_dddddd_5427_41503)">
<rect x="75.0903" y="14" width="238.163" height="54" rx="18.1482" transform="rotate(32.5961 75.0903 14)" fill="#F1F1F1" fill-opacity="0.1" shape-rendering="crispEdges"/>
<rect x="75.4349" y="15.5666" width="235.895" height="51.7315" rx="17.0139" transform="rotate(32.5961 75.4349 15.5666)" stroke="url(#paint0_linear_5427_41503)" stroke-opacity="0.06" stroke-width="2.26852" shape-rendering="crispEdges"/>
</g>
<path d="M112.19 76.5185L118.224 67.0826L119.915 68.1643L119.737 76.7294L119.045 76.2966L126.595 72.4353L128.266 73.5041L122.232 82.9399L120.527 81.8496L125.122 74.7225L125.373 75.044L119.077 78.1779L117.843 77.3892L117.972 70.3119L118.335 70.3826L113.794 77.5442L112.19 76.5185ZM127.143 86.3647C126.424 85.905 125.889 85.3353 125.539 84.6555C125.196 83.9741 125.04 83.2632 125.07 82.5229C125.103 81.7781 125.327 81.0822 125.74 80.4352C126.045 79.9589 126.425 79.5625 126.88 79.2461C127.336 78.9297 127.833 78.7123 128.37 78.594C128.916 78.4741 129.473 78.4635 130.043 78.5621C130.616 78.6562 131.172 78.8756 131.711 79.2204C132.426 79.6772 132.956 80.2441 133.302 80.921C133.652 81.6008 133.81 82.3131 133.777 83.0579C133.749 83.8056 133.528 84.5029 133.114 85.15C132.809 85.6263 132.427 86.0212 131.967 86.3347C131.514 86.6467 131.018 86.864 130.477 86.9868C129.936 87.1096 129.38 87.1239 128.807 87.0298C128.237 86.9312 127.682 86.7095 127.143 86.3647ZM128.102 84.8507C128.483 85.0949 128.876 85.2287 129.279 85.2521C129.689 85.2738 130.077 85.1865 130.443 84.9901C130.812 84.7893 131.132 84.4777 131.402 84.0553C131.672 83.6329 131.821 83.2122 131.848 82.7929C131.876 82.3737 131.794 81.9862 131.604 81.6303C131.414 81.2744 131.128 80.9744 130.746 80.7302C130.364 80.4859 129.969 80.3507 129.562 80.3245C129.159 80.3011 128.773 80.3898 128.404 80.5907C128.04 80.7944 127.722 81.1075 127.452 81.5298C127.182 81.9522 127.033 82.373 127.006 82.7922C126.981 83.2069 127.063 83.5945 127.25 83.9548C127.44 84.3107 127.724 84.6093 128.102 84.8507ZM134.85 91.2927C134.194 90.8733 133.71 90.3484 133.397 89.7182C133.085 89.088 132.957 88.4114 133.014 87.6883C133.072 86.9652 133.322 86.2577 133.764 85.5657C134.083 85.067 134.461 84.6536 134.899 84.3257C135.344 83.9962 135.82 83.7659 136.328 83.6349C136.843 83.5022 137.365 83.4782 137.893 83.5628C138.425 83.6429 138.942 83.8439 139.445 84.1657C140.025 84.5363 140.458 84.9778 140.744 85.4901C141.033 85.998 141.196 86.5608 141.231 87.1785L140.604 87.3281L143.47 82.8461L145.195 83.9493L138.989 93.6548L137.466 92.6808L138.531 91.0161L138.523 91.5621C138.021 91.8425 137.454 91.9768 136.822 91.9652C136.19 91.9536 135.533 91.7295 134.85 91.2927ZM136.132 89.9856C136.509 90.2269 136.9 90.3593 137.302 90.3826C137.713 90.4044 138.101 90.3171 138.467 90.1207C138.836 89.9199 139.155 89.6083 139.426 89.1859C139.696 88.7635 139.844 88.3427 139.872 87.9235C139.899 87.5043 139.818 87.1167 139.628 86.7609C139.438 86.405 139.151 86.1049 138.769 85.8607C138.388 85.6165 137.993 85.4813 137.586 85.455C137.183 85.4316 136.797 85.5204 136.428 85.7212C136.063 85.925 135.746 86.238 135.476 86.6604C135.206 87.0828 135.057 87.5036 135.03 87.9228C135.005 88.3375 135.086 88.725 135.274 89.0854C135.464 89.4413 135.75 89.7413 136.132 89.9856ZM143.697 96.9498C142.964 96.4815 142.417 95.9224 142.054 95.2724C141.694 94.618 141.529 93.9243 141.561 93.1913C141.598 92.4613 141.843 91.7413 142.297 91.0313C142.63 90.5101 143.024 90.0876 143.478 89.7638C143.936 89.4429 144.429 89.2263 144.956 89.1142C145.491 89.0004 146.033 88.9952 146.581 89.0987C147.133 89.205 147.67 89.4248 148.191 89.7581C148.757 90.1201 149.198 90.5445 149.514 91.0311C149.832 91.5132 150.021 92.0297 150.08 92.5804C150.147 93.1295 150.084 93.684 149.89 94.244C149.704 94.8023 149.384 95.3381 148.929 95.8513L143.658 92.4811C143.427 92.8332 143.312 93.1964 143.313 93.5707C143.319 93.9478 143.432 94.3148 143.653 94.6715C143.882 95.0267 144.214 95.3436 144.65 95.6223C145.037 95.8694 145.443 96.0503 145.87 96.1649C146.297 96.2795 146.733 96.3245 147.18 96.2997L147.015 97.894C146.695 97.9297 146.337 97.9099 145.942 97.8346C145.547 97.7593 145.153 97.6433 144.759 97.4866C144.37 97.3327 144.016 97.1538 143.697 96.9498ZM144.544 91.3191L148.042 93.5558C148.318 93.0934 148.395 92.6422 148.271 92.2022C148.15 91.7577 147.831 91.3702 147.315 91.0398C146.802 90.7123 146.297 90.5725 145.797 90.6205C145.301 90.664 144.883 90.8969 144.544 91.3191ZM148.249 99.5757L152.559 92.8358L154.284 93.939L153.719 94.822C154.206 94.576 154.678 94.4819 155.134 94.5397C155.596 94.6005 156.031 94.7616 156.44 95.023C156.583 95.115 156.712 95.2065 156.824 95.2975C156.937 95.3886 157.041 95.4835 157.136 95.5823L155.783 97.2237C155.675 97.0852 155.552 96.9559 155.413 96.8357C155.282 96.714 155.143 96.6057 154.994 96.5109C154.509 96.2006 154.016 96.0909 153.515 96.1818C153.016 96.2683 152.6 96.5721 152.267 97.0933L149.974 100.679L148.249 99.5757ZM153.666 103.04L157.976 96.2997L159.701 97.403L159.184 98.2118C159.681 98.0292 160.159 97.9742 160.619 98.0468C161.086 98.1177 161.518 98.2796 161.913 98.5325C162.533 98.929 162.966 99.3801 163.213 99.8858C163.464 100.394 163.564 100.905 163.515 101.418C163.466 101.931 163.306 102.398 163.036 102.821L160.217 107.229L158.492 106.125L160.966 102.257C161.259 101.798 161.359 101.35 161.266 100.911C161.173 100.471 160.889 100.1 160.413 99.795C160.103 99.5968 159.782 99.4897 159.45 99.4738C159.126 99.4564 158.817 99.5281 158.524 99.689C158.232 99.85 157.982 100.092 157.775 100.416L155.392 104.143L153.666 103.04ZM165.038 110.311L171.072 100.875L174.61 103.138C175.289 103.572 175.815 104.076 176.188 104.65C176.565 105.22 176.759 105.822 176.771 106.457C176.787 107.094 176.596 107.725 176.197 108.349C175.792 108.983 175.309 109.431 174.749 109.693C174.193 109.958 173.578 110.039 172.903 109.937C172.23 109.83 171.519 109.537 170.769 109.057L169.023 107.941L166.791 111.432L165.038 110.311ZM169.976 106.451L171.714 107.563C172.276 107.922 172.789 108.085 173.253 108.053C173.717 108.02 174.107 107.757 174.423 107.263C174.739 106.768 174.814 106.294 174.649 105.84C174.49 105.385 174.142 104.984 173.603 104.64L171.85 103.519L169.976 106.451ZM174.966 116.944C174.508 116.651 174.157 116.304 173.914 115.902C173.672 115.499 173.551 115.074 173.553 114.626C173.557 114.173 173.701 113.726 173.982 113.286C174.223 112.909 174.533 112.632 174.912 112.456C175.29 112.28 175.736 112.221 176.251 112.277C176.768 112.33 177.352 112.516 178.001 112.836C178.656 113.16 179.373 113.631 180.154 114.251L179.453 115.407C178.959 114.972 178.505 114.627 178.091 114.375C177.676 114.122 177.307 113.953 176.982 113.866C176.663 113.781 176.388 113.77 176.159 113.833C175.933 113.897 175.758 114.029 175.631 114.227C175.442 114.523 175.403 114.821 175.515 115.121C175.63 115.416 175.874 115.683 176.247 115.921C176.566 116.125 176.889 116.249 177.215 116.293C177.546 116.34 177.853 116.306 178.136 116.189C178.423 116.068 178.659 115.862 178.846 115.57L179.936 113.865C180.117 113.582 180.213 113.298 180.224 113.014C180.242 112.728 180.166 112.451 179.995 112.184C179.827 111.912 179.552 111.654 179.17 111.409C178.82 111.185 178.437 111.017 178.022 110.903C177.615 110.788 177.19 110.744 176.748 110.772L177.072 109.241C177.68 109.231 178.258 109.316 178.808 109.497C179.357 109.677 179.852 109.908 180.292 110.19C180.921 110.592 181.402 111.038 181.734 111.529C182.07 112.023 182.231 112.553 182.217 113.12C182.21 113.685 182.007 114.28 181.607 114.905L178.883 119.164L177.36 118.19L177.852 117.422C177.429 117.588 176.965 117.63 176.46 117.548C175.959 117.462 175.461 117.26 174.966 116.944ZM180.522 120.212L186.728 110.506L188.453 111.61L182.247 121.315L180.522 120.212ZM186.949 124.606C186.216 124.138 185.669 123.579 185.306 122.929C184.945 122.275 184.781 121.581 184.813 120.848C184.849 120.118 185.095 119.398 185.549 118.688C185.882 118.167 186.275 117.744 186.729 117.42C187.188 117.099 187.681 116.883 188.208 116.771C188.743 116.657 189.285 116.652 189.832 116.755C190.385 116.862 190.922 117.081 191.443 117.415C192.009 117.777 192.45 118.201 192.765 118.688C193.084 119.17 193.273 119.686 193.332 120.237C193.399 120.786 193.335 121.341 193.142 121.901C192.956 122.459 192.635 122.995 192.181 123.508L186.91 120.138C186.679 120.49 186.563 120.853 186.565 121.227C186.57 121.604 186.684 121.971 186.905 122.328C187.134 122.683 187.466 123 187.902 123.279C188.288 123.526 188.695 123.707 189.122 123.821C189.549 123.936 189.985 123.981 190.432 123.956L190.267 125.551C189.946 125.586 189.589 125.566 189.194 125.491C188.799 125.416 188.404 125.3 188.011 125.143C187.622 124.989 187.268 124.81 186.949 124.606ZM187.795 118.976L191.293 121.212C191.57 120.75 191.647 120.299 191.523 119.859C191.402 119.414 191.083 119.027 190.566 118.696C190.054 118.369 189.548 118.229 189.049 118.277C188.553 118.321 188.135 118.553 187.795 118.976ZM194.558 129.472C193.839 129.012 193.304 128.442 192.954 127.763C192.611 127.081 192.455 126.37 192.485 125.63C192.518 124.885 192.742 124.189 193.155 123.542C193.46 123.066 193.84 122.67 194.295 122.353C194.751 122.037 195.248 121.819 195.785 121.701C196.33 121.581 196.888 121.571 197.458 121.669C198.031 121.763 198.587 121.983 199.126 122.328C199.841 122.784 200.371 123.351 200.717 124.028C201.067 124.708 201.225 125.42 201.192 126.165C201.164 126.913 200.942 127.61 200.529 128.257C200.224 128.733 199.842 129.128 199.382 129.442C198.929 129.754 198.433 129.971 197.892 130.094C197.351 130.217 196.795 130.231 196.222 130.137C195.652 130.038 195.097 129.817 194.558 129.472ZM195.516 127.958C195.898 128.202 196.291 128.336 196.694 128.359C197.104 128.381 197.492 128.294 197.858 128.097C198.227 127.896 198.547 127.585 198.817 127.162C199.087 126.74 199.236 126.319 199.263 125.9C199.291 125.481 199.209 125.093 199.019 124.737C198.829 124.382 198.543 124.082 198.161 123.837C197.779 123.593 197.384 123.458 196.977 123.432C196.574 123.408 196.188 123.497 195.819 123.698C195.455 123.902 195.137 124.215 194.867 124.637C194.597 125.059 194.448 125.48 194.421 125.899C194.396 126.314 194.478 126.702 194.665 127.062C194.855 127.418 195.139 127.716 195.516 127.958ZM202.689 134.386L208.722 124.95L212.099 127.109C213.02 127.698 213.632 128.375 213.935 129.138C214.246 129.9 214.149 130.674 213.647 131.46C213.46 131.753 213.216 131.986 212.914 132.16C212.613 132.335 212.291 132.452 211.949 132.512C211.61 132.567 211.286 132.569 210.977 132.517C211.386 133.006 211.623 133.566 211.688 134.196C211.754 134.827 211.594 135.443 211.209 136.045C210.87 136.576 210.436 136.957 209.908 137.189C209.384 137.424 208.802 137.498 208.161 137.411C207.523 137.319 206.867 137.058 206.193 136.627L202.689 134.386ZM205.299 134.165L206.775 135.109C207.363 135.486 207.878 135.65 208.32 135.603C208.764 135.552 209.137 135.29 209.439 134.819C209.735 134.356 209.816 133.907 209.682 133.474C209.552 133.043 209.193 132.639 208.604 132.262L207.122 131.314L205.299 134.165ZM207.932 130.047L209.3 130.922C209.628 131.132 209.948 131.26 210.259 131.308C210.571 131.355 210.859 131.321 211.123 131.205C211.39 131.084 211.614 130.882 211.795 130.599C212.059 130.186 212.117 129.779 211.967 129.38C211.825 128.979 211.488 128.609 210.958 128.27L209.617 127.412L207.932 130.047ZM210.872 139.619L215.182 132.879L216.907 133.982L216.343 134.865C216.829 134.619 217.301 134.525 217.758 134.583C218.219 134.644 218.654 134.805 219.063 135.066C219.207 135.158 219.335 135.25 219.448 135.341C219.56 135.432 219.664 135.527 219.759 135.626L218.406 137.267C218.298 137.128 218.175 136.999 218.037 136.879C217.906 136.757 217.766 136.649 217.618 136.554C217.132 136.244 216.639 136.134 216.138 136.225C215.64 136.311 215.224 136.615 214.89 137.137L212.598 140.722L210.872 139.619ZM218.034 144.483C217.576 144.19 217.225 143.842 216.982 143.44C216.739 143.038 216.618 142.613 216.62 142.164C216.625 141.712 216.768 141.265 217.05 140.825C217.291 140.447 217.601 140.171 217.979 139.995C218.358 139.819 218.804 139.759 219.318 139.816C219.836 139.868 220.419 140.055 221.069 140.375C221.723 140.698 222.441 141.17 223.222 141.79L222.521 142.946C222.027 142.51 221.573 142.166 221.158 141.914C220.744 141.661 220.374 141.491 220.05 141.404C219.73 141.32 219.456 141.309 219.226 141.371C219.001 141.436 218.825 141.568 218.699 141.765C218.509 142.062 218.47 142.36 218.583 142.66C218.698 142.955 218.942 143.222 219.315 143.46C219.634 143.664 219.956 143.788 220.283 143.832C220.614 143.879 220.921 143.844 221.204 143.728C221.49 143.607 221.727 143.401 221.913 143.109L223.004 141.403C223.185 141.12 223.281 140.837 223.292 140.552C223.31 140.266 223.233 139.99 223.063 139.722C222.895 139.45 222.62 139.192 222.238 138.948C221.887 138.724 221.505 138.555 221.09 138.442C220.682 138.327 220.257 138.283 219.816 138.311L220.139 136.78C220.747 136.77 221.326 136.855 221.875 137.035C222.424 137.216 222.919 137.447 223.36 137.728C223.989 138.13 224.469 138.577 224.801 139.068C225.137 139.561 225.298 140.092 225.284 140.659C225.277 141.224 225.074 141.819 224.675 142.443L221.951 146.703L220.428 145.729L220.919 144.961C220.496 145.127 220.032 145.169 219.528 145.087C219.026 145 218.528 144.799 218.034 144.483ZM223.589 147.75L227.899 141.011L229.624 142.114L229.107 142.923C229.604 142.74 230.082 142.685 230.542 142.758C231.009 142.829 231.441 142.99 231.836 143.243C232.456 143.64 232.889 144.091 233.136 144.597C233.387 145.105 233.487 145.616 233.438 146.129C233.389 146.642 233.229 147.109 232.959 147.532L230.14 151.939L228.415 150.836L230.889 146.967C231.182 146.509 231.282 146.06 231.189 145.621C231.096 145.182 230.812 144.81 230.336 144.506C230.026 144.308 229.705 144.201 229.373 144.185C229.049 144.167 228.74 144.239 228.447 144.4C228.154 144.561 227.905 144.803 227.698 145.127L225.314 148.854L223.589 147.75ZM234.472 154.994C233.816 154.574 233.331 154.05 233.019 153.419C232.707 152.789 232.579 152.113 232.636 151.389C232.693 150.666 232.943 149.959 233.386 149.267C233.705 148.768 234.083 148.355 234.52 148.027C234.965 147.697 235.442 147.467 235.95 147.336C236.465 147.203 236.987 147.179 237.515 147.264C238.046 147.344 238.564 147.545 239.067 147.867C239.646 148.237 240.079 148.679 240.366 149.191C240.655 149.699 240.818 150.262 240.853 150.88L240.226 151.029L243.092 146.547L244.817 147.65L238.611 157.356L237.088 156.382L238.152 154.717L238.145 155.263C237.643 155.544 237.076 155.678 236.444 155.666C235.812 155.655 235.154 155.431 234.472 154.994ZM235.754 153.687C236.131 153.928 236.521 154.06 236.924 154.084C237.334 154.106 237.723 154.018 238.089 153.822C238.458 153.621 238.777 153.309 239.047 152.887C239.317 152.465 239.466 152.044 239.494 151.625C239.521 151.205 239.44 150.818 239.249 150.462C239.059 150.106 238.773 149.806 238.391 149.562C238.009 149.318 237.615 149.182 237.207 149.156C236.804 149.133 236.418 149.222 236.05 149.422C235.685 149.626 235.368 149.939 235.098 150.362C234.828 150.784 234.679 151.205 234.651 151.624C234.627 152.039 234.708 152.426 234.895 152.787C235.086 153.142 235.372 153.442 235.754 153.687ZM242.568 160.162C241.988 159.791 241.5 159.368 241.101 158.891C240.708 158.418 240.425 157.934 240.255 157.438L241.639 156.595C241.819 157.046 242.065 157.469 242.375 157.864C242.686 158.259 243.033 158.579 243.415 158.823C243.819 159.081 244.177 159.215 244.488 159.224C244.798 159.233 245.031 159.116 245.187 158.873C245.333 158.644 245.342 158.412 245.213 158.178C245.084 157.944 244.783 157.593 244.31 157.126C243.547 156.398 243.075 155.741 242.892 155.156C242.712 154.566 242.81 153.976 243.187 153.388C243.454 152.97 243.804 152.675 244.237 152.502C244.675 152.333 245.152 152.29 245.668 152.373C246.192 152.455 246.719 152.665 247.249 153.004C247.766 153.334 248.208 153.718 248.574 154.155C248.945 154.595 249.213 155.051 249.379 155.524L248.017 156.391C247.937 156.131 247.819 155.875 247.663 155.624C247.508 155.372 247.323 155.137 247.108 154.917C246.898 154.701 246.672 154.515 246.43 154.36C246.075 154.133 245.747 154.012 245.446 153.997C245.15 153.985 244.929 154.094 244.782 154.323C244.636 154.552 244.628 154.787 244.758 155.029C244.891 155.266 245.184 155.615 245.637 156.075C246.412 156.843 246.891 157.51 247.073 158.076C247.256 158.642 247.163 159.213 246.795 159.788C246.514 160.228 246.149 160.536 245.701 160.712C245.256 160.883 244.761 160.925 244.216 160.836C243.679 160.745 243.13 160.521 242.568 160.162Z" fill="white"/>
<g clip-path="url(#clip0_5427_41503)">
<rect x="76.9297" y="22.356" width="42.3457" height="42.3457" rx="12.0988" transform="rotate(32.5961 76.9297 22.356)" fill="#1DD673" fill-opacity="0.05"/>
<g filter="url(#filter2_f_5427_41503)">
<circle cx="88.5" cy="65.5" r="7.5" fill="#1DD573"/>
</g>
<path d="M74.4117 50.1804C74.4563 50.5386 74.7771 50.8526 75.1187 50.9656C75.5112 51.0955 76.6636 50.6491 76.8931 50.7813C77.0065 50.846 77.283 51.5152 77.4176 51.6888C77.6565 51.9975 78.013 52.1749 78.4066 52.0891C78.6893 52.0276 78.8253 51.8185 79.0844 51.743C79.8254 52.2909 80.7259 53.0137 81.7066 52.7974C81.8988 54.4682 80.8311 56.1834 79.6987 57.3402C78.1486 58.9241 76.054 59.6966 73.9871 58.5632C73.3593 58.219 72.8932 57.6955 72.2872 57.3628C70.9057 56.6028 69.9428 56.0846 69.4611 54.4631C68.7844 52.1853 70.3343 48.7146 72.3478 47.5392C72.4466 47.4812 72.8038 47.2734 72.8797 47.3196C72.9436 47.3583 73.0533 47.6427 73.1279 47.7453C73.5304 48.3033 74.1656 48.6008 74.7184 48.9677C74.6038 49.3678 74.3585 49.7515 74.4112 50.1812L74.4117 50.1804Z" fill="white"/>
<path d="M92.0097 51.933C91.3389 51.5858 90.4333 51.4217 89.6837 51.4538L89.6876 51.3161C90.1751 50.5399 90.4004 49.7351 91.3078 49.3597C93.5652 48.4255 97.0266 51.2369 95.7021 53.4799C95.2414 54.2599 94.351 55.3067 93.7708 56.0562C92.5278 57.6649 91.2272 59.2637 89.892 60.7955C88.9041 61.9281 86.385 64.8271 85.0288 65.2553C83.7803 65.6503 84.1917 63.8967 84.348 63.2541C84.3964 63.0574 84.6349 62.1567 84.7357 62.0709C84.8809 61.9473 85.3342 62.0768 85.5177 62.1178L85.7042 61.5193L84.9671 61.3249C85.175 60.9666 85.2792 60.3266 85.4968 60.0003C85.6925 59.7082 86.245 59.7722 86.539 59.8491C86.6647 59.8824 87.0494 60.0578 87.1127 60.05C87.2246 60.0363 87.4692 59.5557 87.3647 59.463C87.081 59.2121 86.2562 59.1602 85.8814 59.1078C86.0539 58.8099 86.263 58.0216 86.5052 57.8288C86.5837 57.7657 86.9102 57.6885 87.0196 57.6822C87.2846 57.6677 87.6043 57.815 87.7989 57.8071C87.9325 57.8016 88.0736 57.4039 88.0668 57.311C88.0454 57.0113 86.8711 57.0814 86.8477 56.9812C87.0386 56.6669 87.1376 56.1683 87.4628 55.9702C88.2587 55.4833 89.6959 56.1702 90.3779 56.6366L90.7541 56.2098C90.7861 56.0878 90.3058 55.8199 90.1823 55.7499C89.577 55.4055 88.8341 55.1693 88.1386 55.1608C87.9931 55.1586 87.8611 55.2492 87.7417 55.1448L88.3777 53.924C88.7233 53.6818 89.2126 53.9532 89.5118 53.9483C89.7196 53.9443 89.8581 53.4261 89.7586 53.3501C89.5602 53.2008 89.0486 53.2169 88.7987 53.1849C88.7482 53.1481 88.8878 52.8527 88.9237 52.7825C89.193 52.2492 89.3079 52.1029 89.9246 52.0891C90.9035 52.0667 91.7986 52.5629 92.6015 53.0719C92.685 53.0221 93.0725 52.6126 92.9642 52.5434C92.6625 52.3504 92.3187 52.0935 92.0097 51.933Z" fill="white"/>
<path d="M81.5866 61.4931C79.9141 62.0599 77.8118 61.5062 76.7722 60.0327C76.7942 59.9738 77.3603 59.9007 77.4852 59.865C80.0958 59.1186 82.6394 55.948 82.7191 53.2241C82.7289 52.8703 82.6495 52.5964 82.629 52.2793C82.5858 51.6191 82.7276 51.7288 82.3928 51.0403C82.0336 50.3025 81.5499 49.6241 81.2283 48.8677L83.41 46.1612L84.9651 47.1602C85.2524 48.0842 85.9097 48.6716 86.8967 48.7297C87.0352 48.7375 87.3216 48.6773 87.4048 48.7103C87.6283 48.7993 88.6371 49.4546 88.8392 49.6242C88.9021 49.6768 88.9498 49.7162 88.9449 49.8062L84.0316 59.4641C83.5159 60.4073 82.5993 61.1514 81.5869 61.4944L81.5866 61.4931Z" fill="white"/>
<path d="M83.4497 45.084C83.4178 44.8953 83.4397 44.7085 83.5484 44.5403C83.8066 44.1401 84.6733 43.4426 85.099 43.1978C86.0514 42.6504 86.9922 42.5455 87.8749 43.3085C88.1113 43.5124 88.2519 43.894 88.4678 44.0668C88.6986 44.2514 88.9549 44.2908 89.1949 44.4207C90.1311 44.9263 90.7907 46.1277 90.7866 47.1794C90.7842 47.8373 90.4586 49.5864 89.5031 49.2389C88.9008 49.0197 88.2373 48.3419 87.642 48.0801C87.3862 47.9681 87.0504 48.109 86.7863 48.0747C86.3659 48.02 86.0387 47.8074 85.8044 47.4546C85.6728 47.2571 85.651 46.928 85.5332 46.7966C85.0798 46.2936 84.1867 45.9748 83.6701 45.5322C83.5182 45.4014 83.4811 45.27 83.45 45.0853L83.4497 45.084Z" fill="white"/>
<path d="M75.4396 50.3257C75.4199 50.3266 75.3911 50.3699 75.3555 50.3572C75.2782 50.329 75.1183 50.2212 75.0766 50.1531C74.9549 49.9541 75.5417 48.8331 75.5948 48.5518C74.9311 48.3181 74.0799 47.9443 73.6582 47.3549C73.1076 46.5866 74.4019 46.7235 74.8382 46.7322C76.0442 46.7564 77.3193 46.9022 78.2565 47.7449C78.3503 47.8297 78.4211 47.9961 78.5177 48.059C78.6706 48.1567 79.1361 48.183 79.4003 48.3486C80.1604 48.8245 81.1853 50.7418 81.5918 51.5918C81.9983 52.4417 81.103 52.2 80.6443 51.9964C80.0485 51.732 79.6365 51.3485 79.175 50.902C78.8356 50.9328 78.3853 51.5949 78.0523 51.4088C77.8168 51.2773 77.4773 50.2997 77.2451 50.0648C77.0143 49.961 75.7854 50.3147 75.4401 50.3249L75.4396 50.3257Z" fill="white"/>
<path d="M95.7057 46.9846C95.8304 46.8737 96.3134 47.1691 96.2785 47.3027L94.9332 49.3799C94.8341 49.4209 94.3711 49.0575 94.2305 48.9844C94.0127 48.8709 93.6688 48.8158 93.4838 48.6718C93.3378 48.5581 92.6564 47.5224 92.5362 47.3053C92.1561 46.6158 92.0526 45.5289 92.8209 45.0624C93.0357 44.9317 93.4974 44.8568 93.7246 44.9752C94.6898 45.4758 94.4693 47.7272 94.5321 48.6445L94.5849 48.7354C94.6982 48.7372 94.644 48.6431 94.6613 48.616L95.7039 46.9857L95.7057 46.9846ZM93.8806 48.0865C93.9051 47.4763 93.9307 46.8085 93.7608 46.2164C93.6768 45.9216 93.4901 45.2682 93.0899 45.6607C92.4374 46.3022 93.4369 47.5717 93.8792 48.0868L93.8806 48.0865Z" fill="white"/>
<path d="M89.8141 41.7958C89.9188 41.8706 90.2981 42.0245 90.2615 42.166C89.945 42.5872 89.6861 43.2079 89.3554 43.5987C89.1388 43.855 88.704 43.4614 88.7303 43.3571L89.7447 41.7973L89.8128 41.796L89.8141 41.7958Z" fill="white"/>
<path d="M79.6827 46.0673L79.9639 46.615C79.6658 46.79 79.4632 47.3839 79.2554 47.5493C79.1033 47.6696 78.6003 47.4512 78.7432 47.1769C79.0658 46.8145 79.2269 46.2872 79.6827 46.0673Z" fill="white"/>
</g>
<rect x="77.1575" y="23.3919" width="40.8457" height="40.8457" rx="11.3488" transform="rotate(32.5961 77.1575 23.3919)" stroke="#1DD673" stroke-width="1.5"/>
<path d="M255.314 138.391V138.391C260.943 141.991 262.589 149.472 258.989 155.102V155.102" stroke="#1DD673" stroke-width="2.26852" stroke-linecap="round"/>
<defs>
<filter id="filter0_dddddd_5427_41503" x="-6" y="-6" width="333.74" height="277.796" filterUnits="userSpaceOnUse" color-interpolation-filters="sRGB">
<feFlood flood-opacity="0" result="BackgroundImageFix"/>
<feColorMatrix in="SourceAlpha" type="matrix" values="0 0 0 0 0 0 0 0 0 0 0 0 0 0 0 0 0 0 127 0" result="hardAlpha"/>
<feMorphology radius="4" operator="erode" in="SourceAlpha" result="effect1_dropShadow_5427_41503"/>
<feOffset dy="5"/>
<feGaussianBlur stdDeviation="0.75"/>
<feComposite in2="hardAlpha" operator="out"/>
<feColorMatrix type="matrix" values="0 0 0 0 0.0313726 0 0 0 0 0.0313726 0 0 0 0 0.0313726 0 0 0 0.05 0"/>
<feBlend mode="normal" in2="BackgroundImageFix" result="effect1_dropShadow_5427_41503"/>
<feColorMatrix in="SourceAlpha" type="matrix" values="0 0 0 0 0 0 0 0 0 0 0 0 0 0 0 0 0 0 127 0" result="hardAlpha"/>
<feMorphology radius="4" operator="erode" in="SourceAlpha" result="effect2_dropShadow_5427_41503"/>
<feOffset dy="6"/>
<feGaussianBlur stdDeviation="2"/>
<feComposite in2="hardAlpha" operator="out"/>
<feColorMatrix type="matrix" values="0 0 0 0 0.0313726 0 0 0 0 0.0313726 0 0 0 0 0.0313726 0 0 0 0.05 0"/>
<feBlend mode="normal" in2="effect1_dropShadow_5427_41503" result="effect2_dropShadow_5427_41503"/>
<feColorMatrix in="SourceAlpha" type="matrix" values="0 0 0 0 0 0 0 0 0 0 0 0 0 0 0 0 0 0 127 0" result="hardAlpha"/>
<feOffset dy="6"/>
<feGaussianBlur stdDeviation="6.5"/>
<feComposite in2="hardAlpha" operator="out"/>
<feColorMatrix type="matrix" values="0 0 0 0 0.0313726 0 0 0 0 0.0313726 0 0 0 0 0.0313726 0 0 0 0.03 0"/>
<feBlend mode="normal" in2="effect2_dropShadow_5427_41503" result="effect3_dropShadow_5427_41503"/>
<feColorMatrix in="SourceAlpha" type="matrix" values="0 0 0 0 0 0 0 0 0 0 0 0 0 0 0 0 0 0 127 0" result="hardAlpha"/>
<feMorphology radius="16" operator="erode" in="SourceAlpha" result="effect4_dropShadow_5427_41503"/>
<feOffset dy="24"/>
<feGaussianBlur stdDeviation="12"/>
<feComposite in2="hardAlpha" operator="out"/>
<feColorMatrix type="matrix" values="0 0 0 0 0.0313726 0 0 0 0 0.0313726 0 0 0 0 0.0313726 0 0 0 0.04 0"/>
<feBlend mode="normal" in2="effect3_dropShadow_5427_41503" result="effect4_dropShadow_5427_41503"/>
<feColorMatrix in="SourceAlpha" type="matrix" values="0 0 0 0 0 0 0 0 0 0 0 0 0 0 0 0 0 0 127 0" result="hardAlpha"/>
<feMorphology radius="2" operator="erode" in="SourceAlpha" result="effect5_dropShadow_5427_41503"/>
<feOffset dy="2.15"/>
<feGaussianBlur stdDeviation="0.25"/>
<feComposite in2="hardAlpha" operator="out"/>
<feColorMatrix type="matrix" values="0 0 0 0 0 0 0 0 0 0 0 0 0 0 0 0 0 0 0.25 0"/>
<feBlend mode="normal" in2="effect4_dropShadow_5427_41503" result="effect5_dropShadow_5427_41503"/>
<feColorMatrix in="SourceAlpha" type="matrix" values="0 0 0 0 0 0 0 0 0 0 0 0 0 0 0 0 0 0 127 0" result="hardAlpha"/>
<feMorphology radius="12" operator="erode" in="SourceAlpha" result="effect6_dropShadow_5427_41503"/>
<feOffset dy="32"/>
<feGaussianBlur stdDeviation="32"/>
<feComposite in2="hardAlpha" operator="out"/>
<feColorMatrix type="matrix" values="0 0 0 0 0 0 0 0 0 0 0 0 0 0 0 0 0 0 0.075 0"/>
<feBlend mode="multiply" in2="effect5_dropShadow_5427_41503" result="effect6_dropShadow_5427_41503"/>
<feBlend mode="normal" in="SourceGraphic" in2="effect6_dropShadow_5427_41503" result="shape"/>
</filter>
<filter id="filter2_f_5427_41503" x="51" y="28" width="75" height="75" filterUnits="userSpaceOnUse" color-interpolation-filters="sRGB">
<feFlood flood-opacity="0" result="BackgroundImageFix"/>
<feBlend mode="normal" in="SourceGraphic" in2="BackgroundImageFix" result="shape"/>
<feGaussianBlur stdDeviation="15" result="effect1_foregroundBlur_5427_41503"/>
</filter>
<linearGradient id="paint0_linear_5427_41503" x1="194.172" y1="14" x2="194.172" y2="68" gradientUnits="userSpaceOnUse">
<stop stop-color="#F6F6F6"/>
<stop offset="1" stop-color="#E6E6E6"/>
</linearGradient>
<clipPath id="clip0_5427_41503">
<rect x="76.9297" y="22.356" width="42.3457" height="42.3457" rx="12.0988" transform="rotate(32.5961 76.9297 22.356)" fill="white"/>
</clipPath>
</defs>
</svg>
