<svg width="43" height="43" viewBox="0 0 43 43" fill="none" xmlns="http://www.w3.org/2000/svg">
<g filter="url(#filter0_f_5418_37900)">
<circle cx="25.7603" cy="31.8087" r="6.04938" fill="#1DD673" fill-opacity="0.3"/>
</g>
<rect x="0.0507812" y="0.0494385" width="42.3457" height="42.3457" rx="12.0988" fill="#1DD673" fill-opacity="0.05"/>
<rect x="0.800781" y="0.799438" width="40.8457" height="40.8457" rx="11.3488" stroke="#1DD673" stroke-opacity="0.2" stroke-width="1.5"/>
<path d="M26.5912 7.93793C26.145 8.05187 25.6702 8.29875 25.2904 8.6121C24.958 8.88746 24.1699 9.96044 24.1699 10.1503C24.1699 10.1978 24.3503 10.1314 24.5782 9.99842C24.7966 9.86549 25.2999 9.65659 25.6892 9.52365C26.8951 9.12485 27.9681 9.18182 26.9616 9.59962C26.4013 9.82751 25.2429 10.5966 24.8916 10.9669L24.6257 11.2518L25.091 11.4892C25.3473 11.6221 25.8221 11.7741 26.1355 11.831C27.2749 12.0399 28.177 11.6411 28.9556 10.5871C29.2879 10.1409 30.1045 9.72306 30.5698 9.76104C31.3579 9.837 31.0635 9.37173 29.8956 8.67857C28.7657 8.02339 27.4173 7.71954 26.5912 7.93793Z" fill="#17B661"/>
<path d="M20.0586 8.49783C19.7453 8.83967 19.8497 9.13402 20.5809 9.86516C20.9512 10.245 21.4829 10.9002 21.7583 11.318L22.2521 12.0776L22.9832 12.296C23.3915 12.4194 23.7333 12.5049 23.7523 12.4859C23.7618 12.4669 23.6669 12.201 23.5339 11.8877C23.1446 10.9951 22.309 9.7987 21.5494 9.02957C20.9607 8.43137 20.8088 8.32692 20.5334 8.32692C20.3435 8.32692 20.1441 8.39338 20.0586 8.49783Z" fill="#17B661"/>
<path d="M25.6609 13.0846C25.3001 13.132 24.7208 13.265 24.3695 13.3884L23.7238 13.5973L23.1636 13.3694C22.3945 13.0561 21.0177 12.9801 20.2201 13.2175C18.9572 13.5783 17.8462 14.4139 17.3145 15.4109L17.0581 15.8857L17.5898 16.237C17.8842 16.4364 18.1311 16.5788 18.1311 16.5693C18.7578 14.8412 20.8467 13.8727 22.5844 14.4994C22.9072 14.6133 23.2586 14.7747 23.363 14.8412C23.6194 15.0216 23.7998 15.0121 24.3315 14.7462C24.9962 14.4234 25.6989 14.281 26.6769 14.2905C28.3101 14.3 29.4875 14.8887 30.0192 15.9901C30.2471 16.4459 30.2946 16.6833 30.3231 17.4619C30.3516 17.9747 30.3801 18.3925 30.3991 18.3925C30.4275 18.3925 30.6934 18.326 31.0068 18.231C31.3771 18.1361 31.5955 18.0221 31.624 17.9082C31.6619 17.8132 31.6334 17.3859 31.5765 16.9492C31.453 15.9521 31.0068 15.0026 30.3706 14.3759C29.3546 13.3504 27.4745 12.8377 25.6609 13.0846Z" fill="#17B661"/>
<path d="M26.4117 15.5057C26.0888 15.8285 26.2882 16.2179 26.8769 16.3983C27.6366 16.6451 28.0829 17.1769 28.2158 18.003C28.3202 18.6771 28.7475 18.943 29.1178 18.5727C29.2888 18.4018 29.3077 18.3068 29.2603 17.889C29.1178 16.8256 28.3392 15.8096 27.4277 15.5057C26.8674 15.3158 26.6016 15.3158 26.4117 15.5057Z" fill="#17B661"/>
<path d="M15.4159 16.968C15.302 17.0344 15.245 17.2528 15.1975 17.8036C15.0551 19.5982 14.7607 20.6901 14.0011 22.1904C13.5074 23.1684 13.0516 24.4503 12.8617 25.3998C12.7857 25.7512 12.6718 26.036 12.5863 26.074C12.5103 26.1215 11.9121 26.2924 11.257 26.4633C10.6018 26.6437 10.0416 26.8052 10.0036 26.8431C9.92761 26.9001 11.086 32.8822 11.2 32.9866C11.3614 33.1481 19.5369 31.8092 22.9837 31.0496C24.9397 30.6223 25.1296 30.5273 28.0257 28.6283L29.7349 27.5078L30.9598 25.5803L32.1847 23.6622L32.4885 22.1904C32.8778 20.3578 32.8968 20.016 32.574 19.6931C32.1467 19.2753 31.1687 19.2753 30.7794 19.7121C30.6939 19.8071 30.3331 20.5382 29.9818 21.3358L29.3361 22.7791L27.399 23.7666C26.3356 24.3079 25.2246 24.8206 24.9397 24.9061C23.6484 25.2859 21.4075 25.2289 20.1066 24.7921C17.7233 23.9945 16.8782 22.4468 17.5144 20.035C17.8562 18.7056 17.7233 17.8795 17.0586 17.3193C16.5933 16.93 15.7862 16.7591 15.4159 16.968Z" fill="#17B661"/>
<defs>
<filter id="filter0_f_5418_37900" x="16.6862" y="22.7346" width="18.148" height="18.1481" filterUnits="userSpaceOnUse" color-interpolation-filters="sRGB">
<feFlood flood-opacity="0" result="BackgroundImageFix"/>
<feBlend mode="normal" in="SourceGraphic" in2="BackgroundImageFix" result="shape"/>
<feGaussianBlur stdDeviation="1.51235" result="effect1_foregroundBlur_5418_37900"/>
</filter>
</defs>
</svg>
