<svg width="286" height="158" viewBox="0 0 286 158" fill="none" xmlns="http://www.w3.org/2000/svg">
<g filter="url(#filter0_dddddd_6146_128)">
<rect x="52" y="20" width="182" height="54" rx="18.1482" fill="#F1F1F1"/>
<rect x="53.1343" y="21.1343" width="179.731" height="51.7315" rx="17.0139" stroke="url(#paint0_linear_6146_128)" stroke-width="2.26852"/>
</g>
<path d="M116.936 52.6852V41.4852H118.952L124.256 49.1972V41.4852H126.28V52.6852H124.264L118.96 44.8772V52.6852H116.936ZM131.659 52.9252C130.939 52.9252 130.342 52.7812 129.867 52.4932C129.398 52.2052 129.049 51.8212 128.819 51.3412C128.59 50.8558 128.475 50.3145 128.475 49.7172V44.6852H130.523V49.3652C130.523 49.8772 130.67 50.2878 130.963 50.5972C131.257 50.9012 131.67 51.0532 132.203 51.0532C132.545 51.0532 132.851 50.9758 133.123 50.8212C133.395 50.6612 133.609 50.4425 133.763 50.1652C133.918 49.8878 133.995 49.5652 133.995 49.1972V44.6852H136.043V52.6852H134.235V51.7732C133.942 52.1198 133.585 52.3998 133.163 52.6132C132.747 52.8212 132.246 52.9252 131.659 52.9252ZM141.495 52.9252C140.674 52.9252 140.023 52.6905 139.543 52.2212C139.063 51.7518 138.823 51.0425 138.823 50.0932V42.3652H140.871V44.6852H142.975V46.3492H140.871V49.6852C140.871 50.1972 140.972 50.5598 141.175 50.7732C141.378 50.9812 141.658 51.0852 142.015 51.0852C142.196 51.0852 142.367 51.0638 142.527 51.0212C142.692 50.9785 142.844 50.9225 142.983 50.8532L143.303 52.4852C143.068 52.6078 142.794 52.7118 142.479 52.7972C142.164 52.8825 141.836 52.9252 141.495 52.9252ZM137.135 46.3492V44.6852H139.055V46.3492H137.135ZM144.728 52.6852V44.6852H146.776V45.7332C147.053 45.2638 147.4 44.9305 147.816 44.7332C148.237 44.5358 148.691 44.4372 149.176 44.4372C149.347 44.4372 149.504 44.4452 149.648 44.4612C149.792 44.4772 149.931 44.5012 150.064 44.5332L149.808 46.6452C149.643 46.5865 149.469 46.5438 149.288 46.5172C149.112 46.4852 148.936 46.4692 148.76 46.4692C148.184 46.4692 147.709 46.6425 147.336 46.9892C146.963 47.3305 146.776 47.8105 146.776 48.4292V52.6852H144.728ZM151.158 52.6852V44.6852H153.206V52.6852H151.158ZM152.182 43.3412C151.83 43.3412 151.526 43.2292 151.27 43.0052C151.014 42.7812 150.886 42.4852 150.886 42.1172C150.886 41.7492 151.014 41.4532 151.27 41.2292C151.526 41.0052 151.83 40.8932 152.182 40.8932C152.534 40.8932 152.838 41.0052 153.094 41.2292C153.35 41.4532 153.478 41.7492 153.478 42.1172C153.478 42.4852 153.35 42.7812 153.094 43.0052C152.838 43.2292 152.534 43.3412 152.182 43.3412ZM158.66 52.9252C157.839 52.9252 157.188 52.6905 156.708 52.2212C156.228 51.7518 155.988 51.0425 155.988 50.0932V42.3652H158.036V44.6852H160.14V46.3492H158.036V49.6852C158.036 50.1972 158.137 50.5598 158.34 50.7732C158.543 50.9812 158.823 51.0852 159.18 51.0852C159.361 51.0852 159.532 51.0638 159.692 51.0212C159.857 50.9785 160.009 50.9225 160.148 50.8532L160.468 52.4852C160.233 52.6078 159.959 52.7118 159.644 52.7972C159.329 52.8825 159.001 52.9252 158.66 52.9252ZM154.3 46.3492V44.6852H156.22V46.3492H154.3ZM161.893 52.6852V44.6852H163.941V52.6852H161.893ZM162.917 43.3412C162.565 43.3412 162.261 43.2292 162.005 43.0052C161.749 42.7812 161.621 42.4852 161.621 42.1172C161.621 41.7492 161.749 41.4532 162.005 41.2292C162.261 41.0052 162.565 40.8932 162.917 40.8932C163.269 40.8932 163.573 41.0052 163.829 41.2292C164.085 41.4532 164.213 41.7492 164.213 42.1172C164.213 42.4852 164.085 42.7812 163.829 43.0052C163.573 43.2292 163.269 43.3412 162.917 43.3412ZM169.683 52.9252C168.83 52.9252 168.072 52.7332 167.411 52.3492C166.755 51.9598 166.24 51.4452 165.867 50.8052C165.494 50.1598 165.307 49.4532 165.307 48.6852C165.307 48.1198 165.414 47.5812 165.627 47.0692C165.84 46.5572 166.142 46.1065 166.531 45.7172C166.926 45.3225 167.39 45.0132 167.923 44.7892C168.456 44.5598 169.043 44.4452 169.683 44.4452C170.531 44.4452 171.283 44.6372 171.939 45.0212C172.6 45.4052 173.118 45.9198 173.491 46.5652C173.87 47.2105 174.059 47.9172 174.059 48.6852C174.059 49.2505 173.95 49.7892 173.731 50.3012C173.518 50.8078 173.216 51.2585 172.827 51.6532C172.438 52.0478 171.976 52.3598 171.443 52.5892C170.91 52.8132 170.323 52.9252 169.683 52.9252ZM169.675 51.1332C170.128 51.1332 170.531 51.0345 170.883 50.8372C171.24 50.6345 171.52 50.3518 171.723 49.9892C171.926 49.6212 172.027 49.1865 172.027 48.6852C172.027 48.1838 171.926 47.7492 171.723 47.3812C171.52 47.0132 171.243 46.7305 170.891 46.5332C170.539 46.3358 170.136 46.2372 169.683 46.2372C169.23 46.2372 168.824 46.3358 168.467 46.5332C168.115 46.7305 167.838 47.0132 167.635 47.3812C167.438 47.7492 167.339 48.1838 167.339 48.6852C167.339 49.1865 167.44 49.6212 167.643 49.9892C167.846 50.3518 168.123 50.6345 168.475 50.8372C168.827 51.0345 169.227 51.1332 169.675 51.1332ZM175.425 52.6852V44.6852H177.473V45.6452C177.793 45.2238 178.166 44.9198 178.593 44.7332C179.025 44.5412 179.475 44.4452 179.945 44.4452C180.681 44.4452 181.289 44.5918 181.769 44.8852C182.254 45.1785 182.614 45.5545 182.849 46.0132C183.083 46.4718 183.201 46.9518 183.201 47.4532V52.6852H181.153V48.0932C181.153 47.5492 180.995 47.1172 180.681 46.7972C180.366 46.4772 179.926 46.3172 179.361 46.3172C178.993 46.3172 178.665 46.3998 178.377 46.5652C178.094 46.7252 177.873 46.9518 177.713 47.2452C177.553 47.5385 177.473 47.8772 177.473 48.2612V52.6852H175.425ZM187.967 52.9172C187.279 52.9172 186.639 52.8238 186.047 52.6372C185.461 52.4505 184.962 52.1945 184.551 51.8692L185.263 50.4132C185.658 50.6958 186.093 50.9198 186.567 51.0852C187.042 51.2505 187.506 51.3332 187.959 51.3332C188.439 51.3332 188.813 51.2532 189.079 51.0932C189.346 50.9332 189.479 50.7092 189.479 50.4212C189.479 50.1492 189.362 49.9492 189.127 49.8212C188.893 49.6932 188.45 49.5598 187.799 49.4212C186.765 49.2185 186.013 48.9198 185.543 48.5252C185.074 48.1252 184.839 47.5758 184.839 46.8772C184.839 46.3812 184.975 45.9438 185.247 45.5652C185.525 45.1865 185.903 44.8932 186.383 44.6852C186.869 44.4718 187.426 44.3652 188.055 44.3652C188.669 44.3652 189.247 44.4505 189.791 44.6212C190.341 44.7918 190.813 45.0318 191.207 45.3412L190.527 46.8052C190.319 46.6292 190.082 46.4772 189.815 46.3492C189.549 46.2212 189.266 46.1225 188.967 46.0532C188.674 45.9838 188.383 45.9492 188.095 45.9492C187.674 45.9492 187.333 46.0238 187.071 46.1732C186.815 46.3225 186.687 46.5332 186.687 46.8052C186.687 47.0772 186.807 47.2798 187.047 47.4132C187.287 47.5412 187.722 47.6772 188.351 47.8212C189.418 48.0505 190.181 48.3545 190.639 48.7332C191.098 49.1118 191.327 49.6425 191.327 50.3252C191.327 50.8478 191.186 51.3038 190.903 51.6932C190.621 52.0772 190.226 52.3785 189.719 52.5972C189.218 52.8105 188.634 52.9172 187.967 52.9172Z" fill="#1B1A1F"/>
<g filter="url(#filter1_f_6146_128)">
<circle cx="83.7603" cy="57.8087" r="6.04938" fill="#1DD673" fill-opacity="0.3"/>
</g>
<rect x="58" y="26" width="42.3457" height="42.3457" rx="12.0988" fill="#1DD673" fill-opacity="0.05"/>
<rect x="58.75" y="26.75" width="40.8457" height="40.8457" rx="11.3488" stroke="#1DD673" stroke-opacity="0.2" stroke-width="1.5"/>
<path d="M84.5912 33.9379C84.145 34.0519 83.6702 34.2988 83.2904 34.6121C82.958 34.8875 82.1699 35.9604 82.1699 36.1503C82.1699 36.1978 82.3503 36.1314 82.5782 35.9984C82.7966 35.8655 83.2999 35.6566 83.6892 35.5237C84.8951 35.1248 85.9681 35.1818 84.9616 35.5996C84.4013 35.8275 83.2429 36.5966 82.8916 36.9669L82.6257 37.2518L83.091 37.4892C83.3473 37.6221 83.8221 37.7741 84.1355 37.831C85.2749 38.0399 86.177 37.6411 86.9556 36.5871C87.2879 36.1409 88.1045 35.7231 88.5698 35.761C89.3579 35.837 89.0635 35.3717 87.8956 34.6786C86.7657 34.0234 85.4173 33.7195 84.5912 33.9379Z" fill="#17B661"/>
<path d="M78.0582 34.4978C77.7448 34.8397 77.8493 35.134 78.5804 35.8652C78.9507 36.245 79.4825 36.9002 79.7578 37.318L80.2516 38.0776L80.9827 38.296C81.391 38.4194 81.7328 38.5049 81.7518 38.4859C81.7613 38.4669 81.6664 38.201 81.5334 37.8877C81.1441 36.9951 80.3085 35.7987 79.5489 35.0296C78.9602 34.4314 78.8083 34.3269 78.5329 34.3269C78.343 34.3269 78.1436 34.3934 78.0582 34.4978Z" fill="#17B661"/>
<path d="M83.6614 39.0846C83.3005 39.132 82.7213 39.265 82.37 39.3884L81.7243 39.5973L81.1641 39.3694C80.395 39.0561 79.0181 38.9801 78.2205 39.2175C76.9577 39.5783 75.8467 40.4139 75.315 41.4109L75.0586 41.8857L75.5903 42.237C75.8847 42.4364 76.1316 42.5788 76.1316 42.5693C76.7583 40.8412 78.8472 39.8727 80.5849 40.4994C80.9077 40.6133 81.259 40.7747 81.3635 40.8412C81.6199 41.0216 81.8003 41.0121 82.332 40.7462C82.9967 40.4234 83.6994 40.281 84.6774 40.2905C86.3106 40.3 87.488 40.8887 88.0197 41.9901C88.2476 42.4459 88.2951 42.6833 88.3236 43.4619C88.3521 43.9747 88.3806 44.3925 88.3995 44.3925C88.428 44.3925 88.6939 44.326 89.0072 44.231C89.3776 44.1361 89.596 44.0221 89.6244 43.9082C89.6624 43.8132 89.6339 43.3859 89.577 42.9492C89.4535 41.9521 89.0072 41.0026 88.3711 40.3759C87.3551 39.3504 85.475 38.8377 83.6614 39.0846Z" fill="#17B661"/>
<path d="M84.4117 41.5057C84.0888 41.8285 84.2882 42.2179 84.8769 42.3983C85.6366 42.6451 86.0829 43.1769 86.2158 44.003C86.3202 44.6771 86.7475 44.943 87.1178 44.5727C87.2888 44.4018 87.3077 44.3068 87.2603 43.889C87.1178 42.8256 86.3392 41.8096 85.4277 41.5057C84.8674 41.3158 84.6016 41.3158 84.4117 41.5057Z" fill="#17B661"/>
<path d="M73.4159 42.968C73.302 43.0344 73.245 43.2528 73.1975 43.8036C73.0551 45.5982 72.7607 46.6901 72.0011 48.1904C71.5074 49.1684 71.0516 50.4503 70.8617 51.3998C70.7857 51.7512 70.6718 52.036 70.5863 52.074C70.5103 52.1215 69.9121 52.2924 69.257 52.4633C68.6018 52.6437 68.0416 52.8052 68.0036 52.8431C67.9276 52.9001 69.086 58.8822 69.2 58.9866C69.3614 59.1481 77.5369 57.8092 80.9837 57.0496C82.9397 56.6223 83.1296 56.5273 86.0257 54.6283L87.7349 53.5078L88.9598 51.5803L90.1847 49.6622L90.4885 48.1904C90.8778 46.3578 90.8968 46.016 90.574 45.6931C90.1467 45.2753 89.1687 45.2753 88.7794 45.7121C88.6939 45.8071 88.3331 46.5382 87.9818 47.3358L87.3361 48.7791L85.399 49.7666C84.3356 50.3079 83.2246 50.8206 82.9397 50.9061C81.6484 51.2859 79.4075 51.2289 78.1066 50.7921C75.7233 49.9945 74.8782 48.4468 75.5144 46.035C75.8562 44.7056 75.7233 43.8795 75.0586 43.3193C74.5933 42.93 73.7862 42.7591 73.4159 42.968Z" fill="#17B661"/>
<path d="M216 26V26C222.682 26 228.099 31.4168 228.099 38.0988V38.0988" stroke="#1DD673" stroke-width="2.26852" stroke-linecap="round"/>
<defs>
<filter id="filter0_dddddd_6146_128" x="0" y="0" width="286" height="158" filterUnits="userSpaceOnUse" color-interpolation-filters="sRGB">
<feFlood flood-opacity="0" result="BackgroundImageFix"/>
<feColorMatrix in="SourceAlpha" type="matrix" values="0 0 0 0 0 0 0 0 0 0 0 0 0 0 0 0 0 0 127 0" result="hardAlpha"/>
<feMorphology radius="4" operator="erode" in="SourceAlpha" result="effect1_dropShadow_6146_128"/>
<feOffset dy="5"/>
<feGaussianBlur stdDeviation="0.75"/>
<feComposite in2="hardAlpha" operator="out"/>
<feColorMatrix type="matrix" values="0 0 0 0 0.0313726 0 0 0 0 0.0313726 0 0 0 0 0.0313726 0 0 0 0.05 0"/>
<feBlend mode="normal" in2="BackgroundImageFix" result="effect1_dropShadow_6146_128"/>
<feColorMatrix in="SourceAlpha" type="matrix" values="0 0 0 0 0 0 0 0 0 0 0 0 0 0 0 0 0 0 127 0" result="hardAlpha"/>
<feMorphology radius="4" operator="erode" in="SourceAlpha" result="effect2_dropShadow_6146_128"/>
<feOffset dy="6"/>
<feGaussianBlur stdDeviation="2"/>
<feComposite in2="hardAlpha" operator="out"/>
<feColorMatrix type="matrix" values="0 0 0 0 0.0313726 0 0 0 0 0.0313726 0 0 0 0 0.0313726 0 0 0 0.05 0"/>
<feBlend mode="normal" in2="effect1_dropShadow_6146_128" result="effect2_dropShadow_6146_128"/>
<feColorMatrix in="SourceAlpha" type="matrix" values="0 0 0 0 0 0 0 0 0 0 0 0 0 0 0 0 0 0 127 0" result="hardAlpha"/>
<feOffset dy="6"/>
<feGaussianBlur stdDeviation="6.5"/>
<feComposite in2="hardAlpha" operator="out"/>
<feColorMatrix type="matrix" values="0 0 0 0 0.0313726 0 0 0 0 0.0313726 0 0 0 0 0.0313726 0 0 0 0.03 0"/>
<feBlend mode="normal" in2="effect2_dropShadow_6146_128" result="effect3_dropShadow_6146_128"/>
<feColorMatrix in="SourceAlpha" type="matrix" values="0 0 0 0 0 0 0 0 0 0 0 0 0 0 0 0 0 0 127 0" result="hardAlpha"/>
<feMorphology radius="16" operator="erode" in="SourceAlpha" result="effect4_dropShadow_6146_128"/>
<feOffset dy="24"/>
<feGaussianBlur stdDeviation="12"/>
<feComposite in2="hardAlpha" operator="out"/>
<feColorMatrix type="matrix" values="0 0 0 0 0.0313726 0 0 0 0 0.0313726 0 0 0 0 0.0313726 0 0 0 0.04 0"/>
<feBlend mode="normal" in2="effect3_dropShadow_6146_128" result="effect4_dropShadow_6146_128"/>
<feColorMatrix in="SourceAlpha" type="matrix" values="0 0 0 0 0 0 0 0 0 0 0 0 0 0 0 0 0 0 127 0" result="hardAlpha"/>
<feMorphology radius="2" operator="erode" in="SourceAlpha" result="effect5_dropShadow_6146_128"/>
<feOffset dy="2.15"/>
<feGaussianBlur stdDeviation="0.25"/>
<feComposite in2="hardAlpha" operator="out"/>
<feColorMatrix type="matrix" values="0 0 0 0 0 0 0 0 0 0 0 0 0 0 0 0 0 0 0.25 0"/>
<feBlend mode="normal" in2="effect4_dropShadow_6146_128" result="effect5_dropShadow_6146_128"/>
<feColorMatrix in="SourceAlpha" type="matrix" values="0 0 0 0 0 0 0 0 0 0 0 0 0 0 0 0 0 0 127 0" result="hardAlpha"/>
<feMorphology radius="12" operator="erode" in="SourceAlpha" result="effect6_dropShadow_6146_128"/>
<feOffset dy="32"/>
<feGaussianBlur stdDeviation="32"/>
<feComposite in2="hardAlpha" operator="out"/>
<feColorMatrix type="matrix" values="0 0 0 0 0 0 0 0 0 0 0 0 0 0 0 0 0 0 0.075 0"/>
<feBlend mode="multiply" in2="effect5_dropShadow_6146_128" result="effect6_dropShadow_6146_128"/>
<feBlend mode="normal" in="SourceGraphic" in2="effect6_dropShadow_6146_128" result="shape"/>
</filter>
<filter id="filter1_f_6146_128" x="74.6862" y="48.7346" width="18.148" height="18.1481" filterUnits="userSpaceOnUse" color-interpolation-filters="sRGB">
<feFlood flood-opacity="0" result="BackgroundImageFix"/>
<feBlend mode="normal" in="SourceGraphic" in2="BackgroundImageFix" result="shape"/>
<feGaussianBlur stdDeviation="1.51235" result="effect1_foregroundBlur_6146_128"/>
</filter>
<linearGradient id="paint0_linear_6146_128" x1="143" y1="20" x2="143" y2="74" gradientUnits="userSpaceOnUse">
<stop stop-color="#F6F6F6"/>
<stop offset="1" stop-color="#E6E6E6"/>
</linearGradient>
</defs>
</svg>
