<svg width="144" height="144" viewBox="0 0 144 144" fill="none" xmlns="http://www.w3.org/2000/svg">
<g filter="url(#filter0_dddddd_6137_730)">
<rect x="52" y="20" width="40" height="40" rx="9.41015" fill="#F1F1F1"/>
<rect x="52.5881" y="20.5881" width="38.8237" height="38.8237" rx="8.82202" stroke="url(#paint0_linear_6137_730)" stroke-width="1.17627"/>
</g>
<g filter="url(#filter1_f_6137_730)">
<circle cx="75.3928" cy="46.25" r="3.85714" fill="#17B661" fill-opacity="0.3"/>
</g>
<rect x="58" y="26" width="28" height="28" rx="8" fill="#17B661" fill-opacity="0.05"/>
<rect x="58.4782" y="26.4782" width="27.0436" height="27.0436" rx="7.52179" stroke="#17B661" stroke-opacity="0.3" stroke-width="0.956414"/>
<path d="M75.7275 31.292C75.43 31.3679 75.1135 31.5325 74.8602 31.7414C74.6387 31.925 74.1133 32.6403 74.1133 32.7669C74.1133 32.7985 74.2336 32.7542 74.3855 32.6656C74.5311 32.577 74.8666 32.4377 75.1261 32.3491C75.9301 32.0832 76.6454 32.1212 75.9744 32.3997C75.6009 32.5517 74.8286 33.0644 74.5944 33.3113L74.4171 33.5012L74.7273 33.6595C74.8982 33.7481 75.2147 33.8494 75.4236 33.8874C76.1833 34.0266 76.7846 33.7607 77.3037 33.0581C77.5253 32.7606 78.0697 32.482 78.3799 32.5074C78.9053 32.558 78.709 32.2478 77.9304 31.7857C77.1771 31.3489 76.2782 31.1464 75.7275 31.292Z" fill="#17B661"/>
<path d="M71.3723 31.6652C71.1634 31.8931 71.233 32.0893 71.7204 32.5768C71.9673 32.83 72.3218 33.2668 72.5054 33.5453L72.8345 34.0517L73.322 34.1973C73.5942 34.2796 73.8221 34.3366 73.8347 34.3239C73.8411 34.3113 73.7777 34.134 73.6891 33.9251C73.4296 33.3301 72.8725 32.5325 72.3661 32.0197C71.9736 31.6209 71.8724 31.5513 71.6888 31.5513C71.5622 31.5513 71.4292 31.5956 71.3723 31.6652Z" fill="#17B661"/>
<path d="M75.1073 34.7231C74.8667 34.7547 74.4806 34.8433 74.2463 34.9256L73.8159 35.0649L73.4424 34.913C72.9297 34.7041 72.0118 34.6534 71.48 34.8117C70.6381 35.0522 69.8975 35.6093 69.543 36.274L69.3721 36.5905L69.7266 36.8247C69.9228 36.9576 70.0874 37.0526 70.0874 37.0463C70.5052 35.8941 71.8978 35.2485 73.0563 35.6663C73.2715 35.7422 73.5057 35.8498 73.5753 35.8941C73.7463 36.0144 73.8665 36.0081 74.221 35.8308C74.6641 35.6156 75.1326 35.5207 75.7846 35.527C76.8734 35.5333 77.6583 35.9258 78.0128 36.6601C78.1648 36.964 78.1964 37.1222 78.2154 37.6413C78.2344 37.9831 78.2534 38.2617 78.266 38.2617C78.285 38.2617 78.4623 38.2173 78.6712 38.154C78.918 38.0907 79.0636 38.0148 79.0826 37.9388C79.108 37.8755 79.089 37.5907 79.051 37.2995C78.9687 36.6348 78.6712 36.0018 78.247 35.584C77.5697 34.9003 76.3163 34.5585 75.1073 34.7231Z" fill="#17B661"/>
<path d="M75.6079 36.3371C75.3927 36.5524 75.5257 36.8119 75.9181 36.9322C76.4245 37.0968 76.7221 37.4513 76.8107 38.002C76.8803 38.4514 77.1652 38.6287 77.4121 38.3818C77.526 38.2679 77.5387 38.2046 77.507 37.926C77.4121 37.217 76.893 36.5397 76.2853 36.3371C75.9118 36.2105 75.7345 36.2105 75.6079 36.3371Z" fill="#17B661"/>
<path d="M68.2771 37.312C68.2012 37.3563 68.1632 37.5019 68.1315 37.869C68.0366 39.0655 67.8403 39.7934 67.3339 40.7936C67.0047 41.4456 66.7009 42.3002 66.5743 42.9332C66.5236 43.1674 66.4477 43.3574 66.3907 43.3827C66.3401 43.4143 65.9413 43.5283 65.5045 43.6422C65.0677 43.7625 64.6942 43.8701 64.6689 43.8954C64.6182 43.9334 65.3905 47.9215 65.4665 47.9911C65.5741 48.0987 71.0244 47.2061 73.3223 46.6997C74.6263 46.4149 74.7529 46.3516 76.6837 45.0855L77.8231 44.3385L78.6397 43.0535L79.4563 41.7748L79.6589 40.7936C79.9184 39.5719 79.9311 39.344 79.7158 39.1288C79.431 38.8502 78.779 38.8502 78.5194 39.1414C78.4624 39.2047 78.2219 39.6921 77.9877 40.2239L77.5572 41.1861L76.2659 41.8444C75.5569 42.2052 74.8162 42.5471 74.6263 42.6041C73.7654 42.8573 72.2715 42.8193 71.4042 42.5281C69.8154 41.9964 69.252 40.9645 69.6761 39.3566C69.904 38.4704 69.8154 37.9197 69.3722 37.5462C69.0621 37.2867 68.524 37.1727 68.2771 37.312Z" fill="#17B661"/>
<defs>
<filter id="filter0_dddddd_6137_730" x="0" y="0" width="144" height="144" filterUnits="userSpaceOnUse" color-interpolation-filters="sRGB">
<feFlood flood-opacity="0" result="BackgroundImageFix"/>
<feColorMatrix in="SourceAlpha" type="matrix" values="0 0 0 0 0 0 0 0 0 0 0 0 0 0 0 0 0 0 127 0" result="hardAlpha"/>
<feMorphology radius="4" operator="erode" in="SourceAlpha" result="effect1_dropShadow_6137_730"/>
<feOffset dy="5"/>
<feGaussianBlur stdDeviation="0.75"/>
<feComposite in2="hardAlpha" operator="out"/>
<feColorMatrix type="matrix" values="0 0 0 0 0.0313726 0 0 0 0 0.0313726 0 0 0 0 0.0313726 0 0 0 0.05 0"/>
<feBlend mode="normal" in2="BackgroundImageFix" result="effect1_dropShadow_6137_730"/>
<feColorMatrix in="SourceAlpha" type="matrix" values="0 0 0 0 0 0 0 0 0 0 0 0 0 0 0 0 0 0 127 0" result="hardAlpha"/>
<feMorphology radius="4" operator="erode" in="SourceAlpha" result="effect2_dropShadow_6137_730"/>
<feOffset dy="6"/>
<feGaussianBlur stdDeviation="2"/>
<feComposite in2="hardAlpha" operator="out"/>
<feColorMatrix type="matrix" values="0 0 0 0 0.0313726 0 0 0 0 0.0313726 0 0 0 0 0.0313726 0 0 0 0.05 0"/>
<feBlend mode="normal" in2="effect1_dropShadow_6137_730" result="effect2_dropShadow_6137_730"/>
<feColorMatrix in="SourceAlpha" type="matrix" values="0 0 0 0 0 0 0 0 0 0 0 0 0 0 0 0 0 0 127 0" result="hardAlpha"/>
<feOffset dy="6"/>
<feGaussianBlur stdDeviation="6.5"/>
<feComposite in2="hardAlpha" operator="out"/>
<feColorMatrix type="matrix" values="0 0 0 0 0.0313726 0 0 0 0 0.0313726 0 0 0 0 0.0313726 0 0 0 0.03 0"/>
<feBlend mode="normal" in2="effect2_dropShadow_6137_730" result="effect3_dropShadow_6137_730"/>
<feColorMatrix in="SourceAlpha" type="matrix" values="0 0 0 0 0 0 0 0 0 0 0 0 0 0 0 0 0 0 127 0" result="hardAlpha"/>
<feMorphology radius="16" operator="erode" in="SourceAlpha" result="effect4_dropShadow_6137_730"/>
<feOffset dy="24"/>
<feGaussianBlur stdDeviation="12"/>
<feComposite in2="hardAlpha" operator="out"/>
<feColorMatrix type="matrix" values="0 0 0 0 0.0313726 0 0 0 0 0.0313726 0 0 0 0 0.0313726 0 0 0 0.04 0"/>
<feBlend mode="normal" in2="effect3_dropShadow_6137_730" result="effect4_dropShadow_6137_730"/>
<feColorMatrix in="SourceAlpha" type="matrix" values="0 0 0 0 0 0 0 0 0 0 0 0 0 0 0 0 0 0 127 0" result="hardAlpha"/>
<feMorphology radius="2" operator="erode" in="SourceAlpha" result="effect5_dropShadow_6137_730"/>
<feOffset dy="2.15"/>
<feGaussianBlur stdDeviation="0.25"/>
<feComposite in2="hardAlpha" operator="out"/>
<feColorMatrix type="matrix" values="0 0 0 0 0 0 0 0 0 0 0 0 0 0 0 0 0 0 0.25 0"/>
<feBlend mode="normal" in2="effect4_dropShadow_6137_730" result="effect5_dropShadow_6137_730"/>
<feColorMatrix in="SourceAlpha" type="matrix" values="0 0 0 0 0 0 0 0 0 0 0 0 0 0 0 0 0 0 127 0" result="hardAlpha"/>
<feMorphology radius="12" operator="erode" in="SourceAlpha" result="effect6_dropShadow_6137_730"/>
<feOffset dy="32"/>
<feGaussianBlur stdDeviation="32"/>
<feComposite in2="hardAlpha" operator="out"/>
<feColorMatrix type="matrix" values="0 0 0 0 0 0 0 0 0 0 0 0 0 0 0 0 0 0 0.075 0"/>
<feBlend mode="multiply" in2="effect5_dropShadow_6137_730" result="effect6_dropShadow_6137_730"/>
<feBlend mode="normal" in="SourceGraphic" in2="effect6_dropShadow_6137_730" result="shape"/>
</filter>
<filter id="filter1_f_6137_730" x="69.6071" y="40.4643" width="11.5715" height="11.5714" filterUnits="userSpaceOnUse" color-interpolation-filters="sRGB">
<feFlood flood-opacity="0" result="BackgroundImageFix"/>
<feBlend mode="normal" in="SourceGraphic" in2="BackgroundImageFix" result="shape"/>
<feGaussianBlur stdDeviation="0.964286" result="effect1_foregroundBlur_6137_730"/>
</filter>
<linearGradient id="paint0_linear_6137_730" x1="72" y1="20" x2="72" y2="60" gradientUnits="userSpaceOnUse">
<stop stop-color="#F6F6F6"/>
<stop offset="1" stop-color="#E6E6E6"/>
</linearGradient>
</defs>
</svg>
