<svg width="47" height="47" viewBox="0 0 47 47" fill="none" xmlns="http://www.w3.org/2000/svg">
<rect x="0.5" y="0.5" width="46" height="46" rx="7.5" fill="#FF733D" stroke="#FFEAEA"/>
<path d="M7.96289 29.1992C8.40949 29.1994 8.77539 29.5658 8.77539 30.0117V35.2246C8.77555 37.4328 10.5702 39.2264 12.7754 39.2266H17.9834C18.4301 39.2266 18.7958 39.5921 18.7959 40.0381C18.7959 40.4841 18.4301 40.8496 17.9834 40.8496H12.7754C9.67225 40.8494 7.15055 38.3251 7.15039 35.2246V30.0117C7.15039 29.5657 7.51617 29.1992 7.96289 29.1992ZM40.0371 29.1992C40.4838 29.1992 40.8496 29.5657 40.8496 30.0117V35.2246C40.8495 38.3251 38.3278 40.8494 35.2246 40.8496H30.0166C29.5699 40.8496 29.2041 40.4841 29.2041 40.0381C29.2042 39.5921 29.5699 39.2266 30.0166 39.2266H35.2246C37.4298 39.2264 39.2245 37.4328 39.2246 35.2246V30.0117C39.2246 29.5658 39.5905 29.1994 40.0371 29.1992ZM12.7754 7.15039H17.9834C18.4301 7.15039 18.7959 7.51588 18.7959 7.96191C18.7958 8.4079 18.4301 8.77344 17.9834 8.77344H12.7754C10.5704 8.77364 8.77558 10.567 8.77539 12.7705V17.9883C8.77539 18.4342 8.40949 18.8006 7.96289 18.8008C7.51617 18.8008 7.15039 18.4343 7.15039 17.9883V12.7705C7.15058 9.67017 9.67211 7.15059 12.7754 7.15039ZM30.0166 7.15039H35.2246C38.3279 7.15059 40.8494 9.67017 40.8496 12.7705V17.9883C40.8496 18.4343 40.4838 18.8008 40.0371 18.8008C39.5905 18.8006 39.2246 18.4342 39.2246 17.9883V12.7705C39.2244 10.567 37.4296 8.77364 35.2246 8.77344H30.0166C29.5699 8.77344 29.2042 8.4079 29.2041 7.96191C29.2041 7.51588 29.5699 7.15039 30.0166 7.15039Z" fill="white" stroke="#FF733D" stroke-width="0.3"/>
<rect x="8" y="8" width="32" height="32" rx="4" fill="url(#paint0_linear_5585_31151)" fill-opacity="0.2"/>
<g clip-path="url(#clip0_5585_31151)">
<path d="M19.1025 18.2851C18.9893 18.6167 18.9042 19.0266 18.9042 19.5993C18.9042 19.6294 18.9044 19.6591 18.9049 19.6883H17.6368V20.859H19.0843C19.1641 21.1059 19.2603 21.3094 19.3512 21.5016C19.538 21.8966 19.6857 22.2087 19.6857 22.9037C19.6857 23.5983 19.538 23.9105 19.3512 24.3058C19.3204 24.3705 19.2891 24.4369 19.2582 24.5056H20.5485C20.7122 24.1243 20.858 23.6538 20.858 22.9038C20.858 21.9461 20.6204 21.4443 20.411 21.0014C20.2242 20.6061 20.0765 20.2944 20.0765 19.5994C20.0765 18.9048 20.2242 18.5926 20.411 18.1973C20.4506 18.1136 20.4909 18.0284 20.5304 17.9383L21.9607 17.5909C21.9443 17.6259 21.9277 17.6612 21.9107 17.697C21.7012 18.1399 21.4636 18.6421 21.4636 19.5993C21.4636 20.5565 21.7012 21.0588 21.9107 21.5016C22.0975 21.8966 22.2452 22.2087 22.2452 22.9037C22.2452 23.5983 22.0975 23.9105 21.9107 24.3058C21.8798 24.3705 21.8486 24.4369 21.8177 24.5056H23.1079C23.2716 24.1243 23.4174 23.6538 23.4174 22.9038C23.4174 21.9461 23.1798 21.4443 22.9704 21.0014C22.7836 20.6061 22.6359 20.2944 22.6359 19.5994C22.6359 18.9048 22.7836 18.5926 22.9704 18.1973C23.0934 17.9375 23.2287 17.6514 23.3177 17.2612L24.7534 16.9125C24.6945 17.2226 24.5904 17.4427 24.4701 17.697C24.2606 18.1399 24.023 18.6421 24.023 19.5993C24.023 20.5565 24.2606 21.0588 24.4701 21.5016C24.6569 21.8966 24.8046 22.2087 24.8046 22.9037C24.8046 23.5983 24.6569 23.9105 24.4701 24.3058C24.4383 24.372 24.4073 24.4386 24.3771 24.5056H25.6673C25.8311 24.1243 25.9768 23.6538 25.9768 22.9038C25.9768 21.9461 25.7393 21.4443 25.5298 21.0014C25.5073 20.9541 25.4851 20.9066 25.463 20.8591H32.3631V19.6884H25.1962C25.1956 19.6587 25.1954 19.6291 25.1954 19.5994C25.1954 18.9048 25.343 18.5926 25.5298 18.1973C25.7144 17.807 25.9208 17.371 25.9673 16.6176L32.0604 15.1375L31.7834 14L17.5692 17.4528L17.8463 18.5902L19.1025 18.2851ZM15 25.6761V26.8467H16.2008C16.304 27.8842 16.6817 28.8649 17.3086 29.7116C18.0371 30.6957 19.0357 31.4139 20.1962 31.7885C20.9159 32.0208 21.3995 32.6743 21.3995 33.4147V34H28.6005V33.4147C28.6005 32.6743 29.0841 32.0208 29.8038 31.7885C30.9643 31.4139 31.9628 30.6957 32.6914 29.7116C33.3183 28.8649 33.696 27.8842 33.7992 26.8467H35V25.6761H15Z" fill="white"/>
<path d="M31.8102 24.5054C31.5924 23.4303 30.6389 22.6184 29.499 22.6184C29.2782 22.6184 29.063 22.648 28.8553 22.7069C28.3604 22.2664 27.735 22.0001 27.0745 21.9485C27.1208 22.2256 27.1494 22.5409 27.1494 22.9036C27.1494 23.5841 27.0488 24.0977 26.9189 24.5054L31.8102 24.5054Z" fill="white"/>
</g>
<defs>
<linearGradient id="paint0_linear_5585_31151" x1="24" y1="8" x2="23.9998" y2="41.3518" gradientUnits="userSpaceOnUse">
<stop stop-color="white"/>
<stop offset="1" stop-color="white" stop-opacity="0"/>
</linearGradient>
<clipPath id="clip0_5585_31151">
<rect width="20" height="20" fill="white" transform="translate(15 14)"/>
</clipPath>
</defs>
</svg>
