<svg width="247" height="54" viewBox="0 0 247 54" fill="none" xmlns="http://www.w3.org/2000/svg">
<rect x="0.240234" width="246.15" height="54" rx="18.1482" fill="#F1F1F1" fill-opacity="0.1"/>
<rect x="1.37449" y="1.13426" width="243.882" height="51.7315" rx="17.0139" stroke="url(#paint0_linear_6163_129)" stroke-opacity="0.1" stroke-width="2.26852"/>
<path d="M70.3998 32.9251C69.5518 32.9251 68.7651 32.7784 68.0398 32.4851C67.3198 32.1864 66.6931 31.7731 66.1598 31.2451C65.6264 30.7171 65.2131 30.0984 64.9198 29.3891C64.6264 28.6797 64.4798 27.9117 64.4798 27.0851C64.4798 26.2531 64.6264 25.4824 64.9198 24.7731C65.2131 24.0637 65.6264 23.4451 66.1598 22.9171C66.6931 22.3891 67.3198 21.9784 68.0398 21.6851C68.7651 21.3917 69.5518 21.2451 70.3998 21.2451C71.2424 21.2451 72.0238 21.3944 72.7438 21.6931C73.4638 21.9917 74.0904 22.4077 74.6238 22.9411C75.1571 23.4744 75.5731 24.0957 75.8718 24.8051C76.1704 25.5091 76.3198 26.2691 76.3198 27.0851C76.3198 27.9117 76.1704 28.6797 75.8718 29.3891C75.5731 30.0984 75.1571 30.7171 74.6238 31.2451C74.0904 31.7731 73.4638 32.1864 72.7438 32.4851C72.0238 32.7784 71.2424 32.9251 70.3998 32.9251ZM70.3998 30.9651C70.9278 30.9651 71.4184 30.8744 71.8718 30.6931C72.3304 30.5064 72.7278 30.2451 73.0638 29.9091C73.4051 29.5677 73.6691 29.1597 73.8558 28.6851C74.0478 28.2051 74.1438 27.6717 74.1438 27.0851C74.1438 26.3011 73.9784 25.6184 73.6478 25.0371C73.3171 24.4557 72.8691 24.0051 72.3038 23.6851C71.7384 23.3651 71.1038 23.2051 70.3998 23.2051C69.8664 23.2051 69.3731 23.2957 68.9198 23.4771C68.4664 23.6584 68.0691 23.9197 67.7278 24.2611C67.3918 24.6024 67.1278 25.0104 66.9358 25.4851C66.7491 25.9597 66.6558 26.4931 66.6558 27.0851C66.6558 27.8691 66.8184 28.5517 67.1438 29.1331C67.4744 29.7144 67.9224 30.1651 68.4878 30.4851C69.0531 30.8051 69.6904 30.9651 70.3998 30.9651ZM77.8894 32.6851V24.6851H79.9374V25.7331C80.2147 25.2637 80.5614 24.9304 80.9774 24.7331C81.3987 24.5357 81.8521 24.4371 82.3374 24.4371C82.5081 24.4371 82.6654 24.4451 82.8094 24.4611C82.9534 24.4771 83.0921 24.5011 83.2254 24.5331L82.9694 26.6451C82.8041 26.5864 82.6307 26.5437 82.4494 26.5171C82.2734 26.4851 82.0974 26.4691 81.9214 26.4691C81.3454 26.4691 80.8707 26.6424 80.4974 26.9891C80.1241 27.3304 79.9374 27.8104 79.9374 28.4291V32.6851H77.8894ZM87.4554 36.2851C86.8581 36.2851 86.3194 36.2317 85.8394 36.1251C85.3594 36.0237 84.9487 35.8744 84.6074 35.6771C84.2714 35.4797 84.0127 35.2424 83.8314 34.9651C83.6554 34.6931 83.5674 34.3864 83.5674 34.0451C83.5674 33.7731 83.6394 33.5171 83.7834 33.2771C83.9327 33.0424 84.1487 32.8397 84.4314 32.6691C84.7194 32.4931 85.0714 32.3624 85.4874 32.2771C85.1727 32.1117 84.9407 31.9251 84.7914 31.7171C84.6421 31.5091 84.5674 31.2717 84.5674 31.0051C84.5674 30.7704 84.6341 30.5491 84.7674 30.3411C84.9061 30.1331 85.1007 29.9464 85.3514 29.7811C85.6021 29.6157 85.8981 29.4824 86.2394 29.3811C86.5807 29.2797 86.9541 29.2237 87.3594 29.2131L87.7754 30.0531C87.4554 30.0477 87.1834 30.0717 86.9594 30.1251C86.7407 30.1731 86.5754 30.2424 86.4634 30.3331C86.3514 30.4237 86.2954 30.5331 86.2954 30.6611C86.2954 30.8211 86.3887 30.9411 86.5754 31.0211C86.7674 31.1011 87.0527 31.1571 87.4314 31.1891L88.7994 31.3011C89.4661 31.3544 90.0394 31.4637 90.5194 31.6291C91.0047 31.7944 91.3754 32.0291 91.6314 32.3331C91.8927 32.6371 92.0234 33.0237 92.0234 33.4931C92.0234 33.8877 91.9141 34.2557 91.6954 34.5971C91.4767 34.9384 91.1647 35.2344 90.7594 35.4851C90.3594 35.7357 89.8794 35.9304 89.3194 36.0691C88.7594 36.2131 88.1381 36.2851 87.4554 36.2851ZM87.7034 34.9251C88.4447 34.9251 89.0287 34.8157 89.4554 34.5971C89.8821 34.3837 90.0954 34.1091 90.0954 33.7731C90.0954 33.5064 89.9567 33.3011 89.6794 33.1571C89.4021 33.0184 88.9781 32.9277 88.4074 32.8851L86.9194 32.7731C86.5994 32.7997 86.3274 32.8584 86.1034 32.9491C85.8794 33.0397 85.7087 33.1571 85.5914 33.3011C85.4741 33.4504 85.4154 33.6157 85.4154 33.7971C85.4154 34.0211 85.5061 34.2157 85.6874 34.3811C85.8741 34.5517 86.1381 34.6851 86.4794 34.7811C86.8207 34.8771 87.2287 34.9251 87.7034 34.9251ZM87.6234 30.1651C86.9407 30.1651 86.3327 30.0397 85.7994 29.7891C85.2661 29.5331 84.8447 29.1891 84.5354 28.7571C84.2314 28.3251 84.0794 27.8397 84.0794 27.3011C84.0794 26.7677 84.2341 26.2851 84.5434 25.8531C84.8527 25.4211 85.2741 25.0797 85.8074 24.8291C86.3407 24.5731 86.9461 24.4451 87.6234 24.4451C88.2954 24.4451 88.8981 24.5731 89.4314 24.8291C89.9647 25.0797 90.3861 25.4211 90.6954 25.8531C91.0047 26.2797 91.1594 26.7624 91.1594 27.3011C91.1594 27.8291 91.0047 28.3117 90.6954 28.7491C90.3914 29.1811 89.9727 29.5251 89.4394 29.7811C88.9061 30.0371 88.3007 30.1651 87.6234 30.1651ZM87.6234 28.6931C87.9594 28.6931 88.2581 28.6344 88.5194 28.5171C88.7807 28.3997 88.9861 28.2371 89.1354 28.0291C89.2847 27.8157 89.3594 27.5731 89.3594 27.3011C89.3594 26.8851 89.1967 26.5491 88.8714 26.2931C88.5461 26.0371 88.1301 25.9091 87.6234 25.9091C87.2821 25.9091 86.9807 25.9677 86.7194 26.0851C86.4581 26.2024 86.2527 26.3651 86.1034 26.5731C85.9594 26.7811 85.8874 27.0237 85.8874 27.3011C85.8874 27.7117 86.0501 28.0477 86.3754 28.3091C86.7007 28.5651 87.1167 28.6931 87.6234 28.6931ZM88.8554 26.2691L88.0874 24.8851L92.5274 24.6851L92.5194 26.3491L88.8554 26.2691ZM95.864 32.9251C95.32 32.9251 94.8373 32.8211 94.416 32.6131C93.9947 32.4051 93.664 32.1117 93.424 31.7331C93.184 31.3491 93.064 30.8957 93.064 30.3731C93.064 29.9251 93.176 29.5251 93.4 29.1731C93.624 28.8211 93.968 28.5304 94.432 28.3011C94.896 28.0664 95.488 27.9091 96.208 27.8291C96.9333 27.7491 97.792 27.7597 98.784 27.8611L98.816 29.2131C98.1653 29.1117 97.5973 29.0664 97.112 29.0771C96.6267 29.0877 96.224 29.1437 95.904 29.2451C95.5893 29.3464 95.352 29.4851 95.192 29.6611C95.0373 29.8371 94.96 30.0424 94.96 30.2771C94.96 30.6291 95.088 30.9011 95.344 31.0931C95.6 31.2797 95.9493 31.3731 96.392 31.3731C96.7707 31.3731 97.1093 31.3037 97.408 31.1651C97.712 31.0264 97.952 30.8317 98.128 30.5811C98.304 30.3251 98.392 30.0237 98.392 29.6771V27.6531C98.392 27.3171 98.32 27.0264 98.176 26.7811C98.0373 26.5304 97.824 26.3384 97.536 26.2051C97.248 26.0664 96.8773 25.9971 96.424 25.9971C96.008 25.9971 95.5947 26.0611 95.184 26.1891C94.7787 26.3117 94.3973 26.5037 94.04 26.7651L93.488 25.3011C93.9947 24.9651 94.528 24.7251 95.088 24.5811C95.648 24.4371 96.1893 24.3651 96.712 24.3651C97.4587 24.3651 98.104 24.4824 98.648 24.7171C99.1973 24.9517 99.6187 25.3117 99.912 25.7971C100.211 26.2771 100.36 26.8877 100.36 27.6291V32.6851H98.552V31.7731C98.2853 32.1411 97.9173 32.4264 97.448 32.6291C96.9787 32.8264 96.4507 32.9251 95.864 32.9251ZM102.304 32.6851V24.6851H104.352V25.6451C104.672 25.2237 105.046 24.9197 105.472 24.7331C105.904 24.5411 106.355 24.4451 106.824 24.4451C107.56 24.4451 108.168 24.5917 108.648 24.8851C109.134 25.1784 109.494 25.5544 109.728 26.0131C109.963 26.4717 110.08 26.9517 110.08 27.4531V32.6851H108.032V28.0931C108.032 27.5491 107.875 27.1171 107.56 26.7971C107.246 26.4771 106.806 26.3171 106.24 26.3171C105.872 26.3171 105.544 26.3997 105.256 26.5651C104.974 26.7251 104.752 26.9517 104.592 27.2451C104.432 27.5384 104.352 27.8771 104.352 28.2611V32.6851H102.304ZM112.047 32.6851V24.6851H114.095V32.6851H112.047ZM113.071 23.3411C112.719 23.3411 112.415 23.2291 112.159 23.0051C111.903 22.7811 111.775 22.4851 111.775 22.1171C111.775 21.7491 111.903 21.4531 112.159 21.2291C112.415 21.0051 112.719 20.8931 113.071 20.8931C113.423 20.8931 113.727 21.0051 113.983 21.2291C114.239 21.4531 114.367 21.7491 114.367 22.1171C114.367 22.4851 114.239 22.7811 113.983 23.0051C113.727 23.2291 113.423 23.3411 113.071 23.3411ZM119.845 32.9251C118.997 32.9251 118.242 32.7411 117.581 32.3731C116.925 31.9997 116.408 31.4957 116.029 30.8611C115.65 30.2211 115.461 29.4957 115.461 28.6851C115.461 28.0717 115.573 27.5091 115.797 26.9971C116.021 26.4797 116.336 26.0317 116.741 25.6531C117.146 25.2691 117.621 24.9731 118.165 24.7651C118.714 24.5517 119.312 24.4451 119.957 24.4451C120.517 24.4451 121.037 24.5197 121.517 24.6691C121.997 24.8184 122.437 25.0477 122.837 25.3571L121.885 26.9011C121.634 26.6771 121.349 26.5117 121.029 26.4051C120.714 26.2931 120.384 26.2371 120.037 26.2371C119.514 26.2371 119.064 26.3331 118.685 26.5251C118.312 26.7171 118.024 26.9944 117.821 27.3571C117.618 27.7197 117.517 28.1597 117.517 28.6771C117.517 29.4451 117.741 30.0477 118.189 30.4851C118.642 30.9171 119.258 31.1331 120.037 31.1331C120.426 31.1331 120.794 31.0611 121.141 30.9171C121.488 30.7731 121.789 30.5757 122.045 30.3251L122.957 31.8771C122.52 32.2024 122.032 32.4584 121.493 32.6451C120.954 32.8317 120.405 32.9251 119.845 32.9251ZM127.928 32.6851V21.4851H135V23.3891H130.008V26.3091H134.512V28.1491H130.008V32.6851H127.928ZM140.049 32.9251C139.196 32.9251 138.438 32.7331 137.777 32.3491C137.121 31.9597 136.606 31.4451 136.233 30.8051C135.86 30.1597 135.673 29.4531 135.673 28.6851C135.673 28.1197 135.78 27.5811 135.993 27.0691C136.206 26.5571 136.508 26.1064 136.897 25.7171C137.292 25.3224 137.756 25.0131 138.289 24.7891C138.822 24.5597 139.409 24.4451 140.049 24.4451C140.897 24.4451 141.649 24.6371 142.305 25.0211C142.966 25.4051 143.484 25.9197 143.857 26.5651C144.236 27.2104 144.425 27.9171 144.425 28.6851C144.425 29.2504 144.316 29.7891 144.097 30.3011C143.884 30.8077 143.582 31.2584 143.193 31.6531C142.804 32.0477 142.342 32.3597 141.809 32.5891C141.276 32.8131 140.689 32.9251 140.049 32.9251ZM140.041 31.1331C140.494 31.1331 140.897 31.0344 141.249 30.8371C141.606 30.6344 141.886 30.3517 142.089 29.9891C142.292 29.6211 142.393 29.1864 142.393 28.6851C142.393 28.1837 142.292 27.7491 142.089 27.3811C141.886 27.0131 141.609 26.7304 141.257 26.5331C140.905 26.3357 140.502 26.2371 140.049 26.2371C139.596 26.2371 139.19 26.3357 138.833 26.5331C138.481 26.7304 138.204 27.0131 138.001 27.3811C137.804 27.7491 137.705 28.1837 137.705 28.6851C137.705 29.1864 137.806 29.6211 138.009 29.9891C138.212 30.3517 138.489 30.6344 138.841 30.8371C139.193 31.0344 139.593 31.1331 140.041 31.1331ZM149.573 32.9251C148.719 32.9251 147.962 32.7331 147.301 32.3491C146.645 31.9597 146.13 31.4451 145.757 30.8051C145.383 30.1597 145.197 29.4531 145.197 28.6851C145.197 28.1197 145.303 27.5811 145.517 27.0691C145.73 26.5571 146.031 26.1064 146.421 25.7171C146.815 25.3224 147.279 25.0131 147.813 24.7891C148.346 24.5597 148.933 24.4451 149.573 24.4451C150.421 24.4451 151.173 24.6371 151.829 25.0211C152.49 25.4051 153.007 25.9197 153.381 26.5651C153.759 27.2104 153.949 27.9171 153.949 28.6851C153.949 29.2504 153.839 29.7891 153.621 30.3011C153.407 30.8077 153.106 31.2584 152.717 31.6531C152.327 32.0477 151.866 32.3597 151.333 32.5891C150.799 32.8131 150.213 32.9251 149.573 32.9251ZM149.565 31.1331C150.018 31.1331 150.421 31.0344 150.773 30.8371C151.13 30.6344 151.41 30.3517 151.613 29.9891C151.815 29.6211 151.917 29.1864 151.917 28.6851C151.917 28.1837 151.815 27.7491 151.613 27.3811C151.41 27.0131 151.133 26.7304 150.781 26.5331C150.429 26.3357 150.026 26.2371 149.573 26.2371C149.119 26.2371 148.714 26.3357 148.357 26.5331C148.005 26.7304 147.727 27.0131 147.525 27.3811C147.327 27.7491 147.229 28.1837 147.229 28.6851C147.229 29.1864 147.33 29.6211 147.533 29.9891C147.735 30.3517 148.013 30.6344 148.365 30.8371C148.717 31.0344 149.117 31.1331 149.565 31.1331ZM158.721 32.9251C157.942 32.9251 157.251 32.7437 156.649 32.3811C156.046 32.0184 155.574 31.5171 155.233 30.8771C154.891 30.2371 154.721 29.5064 154.721 28.6851C154.721 28.0931 154.817 27.5411 155.009 27.0291C155.206 26.5117 155.483 26.0611 155.841 25.6771C156.203 25.2877 156.63 24.9864 157.121 24.7731C157.611 24.5544 158.155 24.4451 158.753 24.4451C159.441 24.4451 160.043 24.5837 160.561 24.8611C161.078 25.1331 161.518 25.5197 161.881 26.0211L161.433 26.4851V21.1651H163.481V32.6851H161.673V30.7091L161.961 31.1731C161.689 31.6797 161.283 32.0984 160.745 32.4291C160.206 32.7597 159.531 32.9251 158.721 32.9251ZM159.097 31.1331C159.545 31.1331 159.945 31.0344 160.297 30.8371C160.654 30.6344 160.934 30.3517 161.137 29.9891C161.339 29.6211 161.441 29.1864 161.441 28.6851C161.441 28.1837 161.339 27.7491 161.137 27.3811C160.934 27.0131 160.657 26.7304 160.305 26.5331C159.953 26.3357 159.55 26.2371 159.097 26.2371C158.643 26.2371 158.238 26.3357 157.881 26.5331C157.529 26.7304 157.251 27.0131 157.049 27.3811C156.851 27.7491 156.753 28.1837 156.753 28.6851C156.753 29.1864 156.854 29.6211 157.057 29.9891C157.259 30.3517 157.537 30.6344 157.889 30.8371C158.241 31.0344 158.643 31.1331 159.097 31.1331ZM169.281 32.6851V21.4851H173.289C174.383 21.4851 175.263 21.7251 175.929 22.2051C176.601 22.6797 176.937 23.3837 176.937 24.3171C176.937 24.6637 176.857 24.9917 176.697 25.3011C176.537 25.6104 176.329 25.8824 176.073 26.1171C175.817 26.3464 175.545 26.5224 175.257 26.6451C175.865 26.8371 176.367 27.1811 176.761 27.6771C177.156 28.1731 177.353 28.7784 177.353 29.4931C177.353 30.1224 177.193 30.6771 176.873 31.1571C176.559 31.6371 176.108 32.0131 175.521 32.2851C174.935 32.5517 174.241 32.6851 173.441 32.6851H169.281ZM171.361 31.0931H173.113C173.812 31.0931 174.335 30.9544 174.681 30.6771C175.028 30.3944 175.201 29.9731 175.201 29.4131C175.201 28.8637 175.028 28.4424 174.681 28.1491C174.34 27.8557 173.82 27.7091 173.121 27.7091H171.361V31.0931ZM171.361 26.2051H172.985C173.375 26.2051 173.713 26.1411 174.001 26.0131C174.289 25.8851 174.513 25.7011 174.673 25.4611C174.833 25.2157 174.913 24.9251 174.913 24.5891C174.913 24.0984 174.743 23.7251 174.401 23.4691C174.065 23.2077 173.583 23.0771 172.953 23.0771H171.361V26.2051ZM178.995 32.6851V24.6851H181.043V25.7331C181.32 25.2637 181.667 24.9304 182.083 24.7331C182.504 24.5357 182.958 24.4371 183.443 24.4371C183.614 24.4371 183.771 24.4451 183.915 24.4611C184.059 24.4771 184.198 24.5011 184.331 24.5331L184.075 26.6451C183.91 26.5864 183.736 26.5437 183.555 26.5171C183.379 26.4851 183.203 26.4691 183.027 26.4691C182.451 26.4691 181.976 26.6424 181.603 26.9891C181.23 27.3304 181.043 27.8104 181.043 28.4291V32.6851H178.995ZM187.649 32.9251C187.105 32.9251 186.622 32.8211 186.201 32.6131C185.78 32.4051 185.449 32.1117 185.209 31.7331C184.969 31.3491 184.849 30.8957 184.849 30.3731C184.849 29.9251 184.961 29.5251 185.185 29.1731C185.409 28.8211 185.753 28.5304 186.217 28.3011C186.681 28.0664 187.273 27.9091 187.993 27.8291C188.718 27.7491 189.577 27.7597 190.569 27.8611L190.601 29.2131C189.95 29.1117 189.382 29.0664 188.897 29.0771C188.412 29.0877 188.009 29.1437 187.689 29.2451C187.374 29.3464 187.137 29.4851 186.977 29.6611C186.822 29.8371 186.745 30.0424 186.745 30.2771C186.745 30.6291 186.873 30.9011 187.129 31.0931C187.385 31.2797 187.734 31.3731 188.177 31.3731C188.556 31.3731 188.894 31.3037 189.193 31.1651C189.497 31.0264 189.737 30.8317 189.913 30.5811C190.089 30.3251 190.177 30.0237 190.177 29.6771V27.6531C190.177 27.3171 190.105 27.0264 189.961 26.7811C189.822 26.5304 189.609 26.3384 189.321 26.2051C189.033 26.0664 188.662 25.9971 188.209 25.9971C187.793 25.9971 187.38 26.0611 186.969 26.1891C186.564 26.3117 186.182 26.5037 185.825 26.7651L185.273 25.3011C185.78 24.9651 186.313 24.7251 186.873 24.5811C187.433 24.4371 187.974 24.3651 188.497 24.3651C189.244 24.3651 189.889 24.4824 190.433 24.7171C190.982 24.9517 191.404 25.3117 191.697 25.7971C191.996 26.2771 192.145 26.8877 192.145 27.6291V32.6851H190.337V31.7731C190.07 32.1411 189.702 32.4264 189.233 32.6291C188.764 32.8264 188.236 32.9251 187.649 32.9251ZM194.089 32.6851V24.6851H196.137V25.6451C196.457 25.2237 196.831 24.9197 197.257 24.7331C197.689 24.5411 198.14 24.4451 198.609 24.4451C199.345 24.4451 199.953 24.5917 200.433 24.8851C200.919 25.1784 201.279 25.5544 201.513 26.0131C201.748 26.4717 201.865 26.9517 201.865 27.4531V32.6851H199.817V28.0931C199.817 27.5491 199.66 27.1171 199.345 26.7971C199.031 26.4771 198.591 26.3171 198.025 26.3171C197.657 26.3171 197.329 26.3997 197.041 26.5651C196.759 26.7251 196.537 26.9517 196.377 27.2451C196.217 27.5384 196.137 27.8771 196.137 28.2611V32.6851H194.089ZM207.16 32.9251C206.381 32.9251 205.691 32.7437 205.088 32.3811C204.485 32.0184 204.013 31.5171 203.672 30.8771C203.331 30.2371 203.16 29.5064 203.16 28.6851C203.16 28.0931 203.256 27.5411 203.448 27.0291C203.645 26.5117 203.923 26.0611 204.28 25.6771C204.643 25.2877 205.069 24.9864 205.56 24.7731C206.051 24.5544 206.595 24.4451 207.192 24.4451C207.88 24.4451 208.483 24.5837 209 24.8611C209.517 25.1331 209.957 25.5197 210.32 26.0211L209.872 26.4851V21.1651H211.92V32.6851H210.112V30.7091L210.4 31.1731C210.128 31.6797 209.723 32.0984 209.184 32.4291C208.645 32.7597 207.971 32.9251 207.16 32.9251ZM207.536 31.1331C207.984 31.1331 208.384 31.0344 208.736 30.8371C209.093 30.6344 209.373 30.3517 209.576 29.9891C209.779 29.6211 209.88 29.1864 209.88 28.6851C209.88 28.1837 209.779 27.7491 209.576 27.3811C209.373 27.0131 209.096 26.7304 208.744 26.5331C208.392 26.3357 207.989 26.2371 207.536 26.2371C207.083 26.2371 206.677 26.3357 206.32 26.5331C205.968 26.7304 205.691 27.0131 205.488 27.3811C205.291 27.7491 205.192 28.1837 205.192 28.6851C205.192 29.1864 205.293 29.6211 205.496 29.9891C205.699 30.3517 205.976 30.6344 206.328 30.8371C206.68 31.0344 207.083 31.1331 207.536 31.1331ZM216.765 32.9171C216.077 32.9171 215.437 32.8237 214.845 32.6371C214.258 32.4504 213.76 32.1944 213.349 31.8691L214.061 30.4131C214.456 30.6957 214.89 30.9197 215.365 31.0851C215.84 31.2504 216.304 31.3331 216.757 31.3331C217.237 31.3331 217.61 31.2531 217.877 31.0931C218.144 30.9331 218.277 30.7091 218.277 30.4211C218.277 30.1491 218.16 29.9491 217.925 29.8211C217.69 29.6931 217.248 29.5597 216.597 29.4211C215.562 29.2184 214.81 28.9197 214.341 28.5251C213.872 28.1251 213.637 27.5757 213.637 26.8771C213.637 26.3811 213.773 25.9437 214.045 25.5651C214.322 25.1864 214.701 24.8931 215.181 24.6851C215.666 24.4717 216.224 24.3651 216.853 24.3651C217.466 24.3651 218.045 24.4504 218.589 24.6211C219.138 24.7917 219.61 25.0317 220.005 25.3411L219.325 26.8051C219.117 26.6291 218.88 26.4771 218.613 26.3491C218.346 26.2211 218.064 26.1224 217.765 26.0531C217.472 25.9837 217.181 25.9491 216.893 25.9491C216.472 25.9491 216.13 26.0237 215.869 26.1731C215.613 26.3224 215.485 26.5331 215.485 26.8051C215.485 27.0771 215.605 27.2797 215.845 27.4131C216.085 27.5411 216.52 27.6771 217.149 27.8211C218.216 28.0504 218.978 28.3544 219.437 28.7331C219.896 29.1117 220.125 29.6424 220.125 30.3251C220.125 30.8477 219.984 31.3037 219.701 31.6931C219.418 32.0771 219.024 32.3784 218.517 32.5971C218.016 32.8104 217.432 32.9171 216.765 32.9171Z" fill="white"/>
<g clip-path="url(#clip0_6163_129)">
<rect x="5.81934" y="6.05908" width="42.3457" height="42.3457" rx="12.0988" fill="#FF733D" fill-opacity="0.05"/>
<path d="M31.8386 30.6886C31.203 31.4778 29.3975 32.3177 28.4206 32.5778C28.2848 32.6146 28.0463 32.7097 27.9194 32.6475C27.8256 32.6019 27.8674 32.4585 27.8497 32.3697C27.5908 31.0857 27.8789 29.3183 28.7124 28.2742C29.3227 27.5104 31.1611 26.5284 32.0822 26.1287C32.2066 26.0742 32.6367 25.8484 32.6735 26.0247C32.7039 26.1744 32.7306 26.4371 32.7395 26.5931C32.808 27.8352 32.6455 29.6901 31.8399 30.6886L31.8386 30.6886Z" fill="white"/>
<path d="M31.2603 37.2091C30.4395 37.8396 29.1441 38.4715 28.1202 38.6783C28.0504 38.6922 27.9793 38.6922 27.9096 38.6808C27.8246 38.6529 27.8702 38.5197 27.855 38.4499C27.5734 37.1799 27.8893 35.3795 28.6861 34.3315C29.3014 33.5234 30.6146 32.8928 31.4926 32.4487C31.6803 32.3536 32.4644 31.9171 32.6217 31.9692C32.6649 31.9806 32.6649 32.0098 32.6725 32.0466C32.8488 32.9093 32.7321 34.4382 32.4999 35.2958C32.2703 36.1446 31.9556 36.6737 31.2591 37.2091L31.2603 37.2091Z" fill="white"/>
<path d="M32.6404 19.9234C32.6519 19.9944 32.6937 20.0591 32.7026 20.1314C32.865 21.4497 32.7026 23.4353 31.9198 24.5416C31.4275 25.2381 30.1854 25.9068 29.3937 26.2303C29.1919 26.3128 28.0158 26.7441 27.8915 26.6388C27.7075 25.8712 27.724 25.0605 27.861 24.2853C28.262 22.0257 29.7553 21.2479 31.6584 20.3179C31.9743 20.1632 32.2953 20.0046 32.6404 19.9246L32.6404 19.9234Z" fill="white"/>
<path d="M25.0157 21.7818C26.3123 22.8717 26.7196 24.8941 26.396 26.5282C26.3884 26.5663 26.3859 26.6246 26.3465 26.6437C26.1588 26.6881 25.5028 26.4787 25.2897 26.4051C24.3419 26.0791 22.7941 25.2734 22.2231 24.4322C21.5469 23.4362 21.3909 21.2667 21.5533 20.1007C21.5596 20.0525 21.5837 19.9408 21.6332 19.9256C21.6598 19.918 22.0265 20.0462 22.0849 20.069C22.9045 20.4014 24.347 21.2223 25.0131 21.7818L25.0157 21.7818Z" fill="white"/>
<path d="M24.8666 33.6577C26.2508 34.6841 26.6086 36.605 26.4309 38.2569C26.4043 38.5005 26.4576 38.7301 26.1379 38.6768C25.1419 38.5144 23.2413 37.573 22.5486 36.8473C21.8559 36.1216 21.5602 34.7818 21.5184 33.7566C21.5095 33.5396 21.5044 32.0362 21.5869 31.9677C21.6503 31.9537 21.7138 31.9613 21.7747 31.9791C22.1807 32.0958 22.6121 32.3876 22.98 32.5792C23.6118 32.9091 24.2931 33.2301 24.8666 33.6551L24.8666 33.6577Z" fill="white"/>
<path d="M22.7131 30.9626C21.5472 29.8994 21.4317 27.9328 21.5205 26.4357C21.5244 26.3672 21.5497 26.0728 21.5612 26.0284C21.5929 25.9092 21.7464 25.965 21.8365 25.9916C22.5089 26.1972 23.9515 27.0333 24.5719 27.4393C26.3342 28.5901 26.6425 30.6048 26.3938 32.5777C26.3519 32.7224 26.0677 32.6412 25.9548 32.6171C24.9537 32.4026 23.463 31.6464 22.7131 30.9626Z" fill="white"/>
<path d="M27.2043 14.9653C27.8957 15.5946 28.6696 16.5995 28.9259 17.5371C29.3598 19.1205 28.4844 20.7064 27.43 21.8242C27.3869 21.8698 27.2296 22.0449 27.1814 22.0411C27.0646 21.9726 26.9517 21.8889 26.8464 21.8051C25.343 20.6074 24.465 18.8527 25.258 16.9268C25.5079 16.3216 26.3034 15.2343 26.8465 14.8701C27.0698 14.7204 27.0507 14.8245 27.2043 14.9653Z" fill="white"/>
<path d="M37.2911 34.4913C36.8839 35.1498 35.9704 35.5101 35.2484 35.6966C35.0962 35.7359 34.1814 35.9199 34.1294 35.8463C34.0672 35.5913 34.1028 35.3223 34.1421 35.066C34.3058 33.9914 34.7752 33.0906 35.7851 32.6211C36.1721 32.441 37.3533 31.9677 37.7339 31.9373C37.8735 31.9259 37.9395 31.9551 37.9369 32.1073C37.9268 32.7341 37.6185 33.9622 37.2911 34.4926L37.2911 34.4913Z" fill="white"/>
<path d="M18.8065 29.2599C19.1744 29.6544 19.4218 30.148 19.5461 30.6923C19.6286 31.0539 19.6743 31.4738 19.6667 31.8405C19.602 31.9509 19.078 31.8532 18.9473 31.8303C18.1175 31.687 17.0328 31.3127 16.5506 30.6149C16.1852 30.0858 15.8807 28.9782 15.849 28.3375C15.8452 28.2588 15.8199 27.9568 15.9277 27.9492C16.0216 28.0215 16.1282 27.9911 16.2309 28.019C17.0239 28.2258 18.2546 28.6673 18.8077 29.2611L18.8065 29.2599Z" fill="white"/>
<path d="M19.0696 32.863C19.5035 33.1675 19.9133 33.8248 20.0783 34.3424C20.162 34.605 20.3701 35.5896 20.2673 35.8015C20.2089 35.922 19.7128 35.8167 19.5784 35.7926C18.7182 35.6403 17.5991 35.2521 17.1132 34.487C16.7782 33.9592 16.4065 32.6575 16.4788 32.0447C16.4839 32.0003 16.4788 31.9559 16.5321 31.9381C16.6425 31.9013 17.4101 32.1627 17.5738 32.2198C17.9798 32.3593 18.7321 32.627 19.0696 32.8643L19.0696 32.863Z" fill="white"/>
<path d="M37.3115 31.1216C36.8688 31.4261 36.0174 31.7445 35.4757 31.8358C35.383 31.8511 34.8007 31.9056 34.7664 31.8891C34.722 31.8663 34.6992 31.8105 34.6992 31.761C34.7512 30.9832 34.906 30.0989 35.3856 29.4646C35.9324 28.7401 37.2164 28.2732 38.0868 28.0461C38.2149 28.0131 38.5093 27.8977 38.5384 28.0867C38.4547 29.1347 38.2352 30.4885 37.3128 31.1228L37.3115 31.1216Z" fill="white"/>
<path d="M18.782 24.5299C19.9607 25.2518 20.2956 26.244 19.7818 27.5508C19.7539 27.6206 19.5712 28.0202 19.5344 28.0329C19.4912 28.0481 19.438 28.0329 19.3936 28.0227C19.1436 27.9618 18.5638 27.5622 18.3646 27.3719C17.6414 26.6791 17.6427 25.6578 18.0728 24.7963C18.1058 24.7303 18.2695 24.4309 18.3025 24.3929C18.3887 24.2914 18.6818 24.4702 18.782 24.5311L18.782 24.5299Z" fill="white"/>
<path d="M35.7918 27.5406C35.6421 27.6573 35.4695 27.7906 35.2945 27.8832C34.9227 28.0786 34.8644 28.1255 34.6791 27.7258C34.414 27.1562 34.2478 26.4241 34.466 25.8176C34.6563 25.2898 35.1498 24.8014 35.637 24.5159C36.0545 24.2723 36.0722 24.3307 36.293 24.7481C36.8309 25.7644 36.7104 26.8225 35.7918 27.5393L35.7918 27.5406Z" fill="white"/>
<g filter="url(#filter1_f_6163_129)">
<circle cx="38.5983" cy="39.1646" r="7.55354" transform="rotate(8.20567 38.5983 39.1646)" fill="#FF733D"/>
</g>
</g>
<rect x="6.56934" y="6.80908" width="40.8457" height="40.8457" rx="11.3488" stroke="#FF733D" stroke-width="1.5"/>
<path d="M226.388 7.98242V7.98242C233.07 7.98242 238.486 13.3992 238.486 20.0812V20.0812" stroke="#FF733D" stroke-width="2.26852" stroke-linecap="round"/>
<defs>
<filter id="filter1_f_6163_129" x="1.04395" y="1.61035" width="75.1084" height="75.1089" filterUnits="userSpaceOnUse" color-interpolation-filters="sRGB">
<feFlood flood-opacity="0" result="BackgroundImageFix"/>
<feBlend mode="normal" in="SourceGraphic" in2="BackgroundImageFix" result="shape"/>
<feGaussianBlur stdDeviation="15" result="effect1_foregroundBlur_6163_129"/>
</filter>
<linearGradient id="paint0_linear_6163_129" x1="123.315" y1="0" x2="123.315" y2="54" gradientUnits="userSpaceOnUse">
<stop stop-color="#F6F6F6"/>
<stop offset="1" stop-color="#E6E6E6"/>
</linearGradient>
<clipPath id="clip0_6163_129">
<rect x="5.81934" y="6.05908" width="42.3457" height="42.3457" rx="12.0988" fill="white"/>
</clipPath>
</defs>
</svg>
