<svg width="348" height="158" viewBox="0 0 348 158" fill="none" xmlns="http://www.w3.org/2000/svg">
<g filter="url(#filter0_dddddd_5427_41468)">
<rect x="48" y="82.019" width="246.15" height="54" rx="18.1482" transform="rotate(-15.5604 48 82.019)" fill="#F1F1F1" fill-opacity="0.1" shape-rendering="crispEdges"/>
<rect x="49.397" y="82.8075" width="243.882" height="51.7315" rx="17.0139" transform="rotate(-15.5604 49.397 82.8075)" stroke="url(#paint0_linear_5427_41468)" stroke-opacity="0.1" stroke-width="2.26852" shape-rendering="crispEdges"/>
</g>
<path d="M124.421 94.9169C123.604 95.1444 122.807 95.2142 122.029 95.1261C121.255 95.0316 120.541 94.8015 119.885 94.4359C119.23 94.0703 118.666 93.5852 118.193 92.9806C117.72 92.3759 117.373 91.6754 117.151 90.8791C116.928 90.0775 116.862 89.2958 116.955 88.5338C117.047 87.7717 117.279 87.0649 117.651 86.4132C118.023 85.7614 118.517 85.1977 119.132 84.722C119.752 84.2448 120.47 83.8925 121.287 83.665C122.099 83.439 122.892 83.3733 123.666 83.4678C124.439 83.5624 125.155 83.7951 125.812 84.1658C126.468 84.5365 127.036 85.0235 127.514 85.6267C127.99 86.2247 128.338 86.9168 128.557 87.7029C128.779 88.4993 128.841 89.2792 128.743 90.0427C128.646 90.8061 128.411 91.5137 128.039 92.1654C127.667 92.8171 127.174 93.3834 126.561 93.8643C125.946 94.34 125.232 94.6909 124.421 94.9169ZM123.895 93.0288C124.403 92.8871 124.852 92.6682 125.24 92.3719C125.632 92.069 125.944 91.7107 126.178 91.2969C126.415 90.8765 126.56 90.4126 126.613 89.9053C126.669 89.3913 126.618 88.8518 126.461 88.2866C126.25 87.5314 125.908 86.9181 125.434 86.4468C124.959 85.9754 124.407 85.6615 123.776 85.5049C123.146 85.3482 122.491 85.3643 121.813 85.5532C121.299 85.6963 120.848 85.9159 120.46 86.2122C120.072 86.5085 119.76 86.8669 119.522 87.2873C119.29 87.7062 119.145 88.1701 119.088 88.6789C119.035 89.1862 119.088 89.725 119.247 90.2953C119.458 91.0506 119.797 91.6646 120.267 92.1374C120.741 92.6087 121.294 92.9227 121.924 93.0793C122.555 93.2359 123.211 93.2191 123.895 93.0288ZM131.571 92.6766L129.425 84.9698L131.398 84.4204L131.679 85.43C131.821 84.9035 132.065 84.4894 132.413 84.1877C132.766 83.8846 133.176 83.6679 133.644 83.5377C133.808 83.4919 133.962 83.4574 134.105 83.4342C134.248 83.411 134.388 83.3969 134.525 83.392L134.845 85.4953C134.67 85.4831 134.491 85.4885 134.31 85.5114C134.131 85.5278 133.958 85.5596 133.788 85.6068C133.233 85.7614 132.822 86.0557 132.556 86.4898C132.288 86.9187 132.237 87.4312 132.403 88.0272L133.544 92.1272L131.571 92.6766ZM141.752 93.5786C141.177 93.7388 140.644 93.8319 140.153 93.8579C139.663 93.8891 139.227 93.8554 138.846 93.7568C138.469 93.6569 138.156 93.4976 137.907 93.2791C137.665 93.0643 137.498 92.7924 137.406 92.4636C137.333 92.2016 137.334 91.9357 137.408 91.6658C137.489 91.3997 137.643 91.1465 137.869 90.9063C138.099 90.6595 138.404 90.4392 138.781 90.2454C138.434 90.1705 138.16 90.0529 137.961 89.8926C137.761 89.7323 137.625 89.5237 137.554 89.2668C137.491 89.0407 137.496 88.8096 137.568 88.5735C137.646 88.3359 137.784 88.1039 137.981 87.8773C138.178 87.6508 138.427 87.443 138.729 87.2538C139.031 87.0646 139.375 86.9105 139.763 86.7915L140.389 87.4891C140.079 87.5698 139.824 87.6659 139.622 87.7774C139.424 87.8823 139.284 87.9934 139.2 88.1108C139.117 88.2282 139.092 88.3485 139.126 88.4719C139.169 88.626 139.291 88.7166 139.493 88.7435C139.699 88.7691 139.989 88.7465 140.362 88.6758L141.71 88.4167C142.367 88.2892 142.948 88.2408 143.455 88.2713C143.967 88.3004 144.387 88.427 144.715 88.6512C145.049 88.8739 145.278 89.2114 145.404 89.6635C145.51 90.0437 145.503 90.4275 145.384 90.815C145.265 91.2025 145.044 91.5713 144.721 91.9216C144.403 92.2703 143.992 92.5866 143.49 92.8704C142.989 93.1594 142.41 93.3954 141.752 93.5786ZM141.627 92.2019C142.341 92.003 142.874 91.741 143.226 91.4159C143.58 91.0959 143.712 90.7741 143.622 90.4504C143.55 90.1935 143.362 90.0329 143.056 89.9686C142.751 89.9094 142.319 89.9358 141.757 90.0478L140.294 90.3391C139.993 90.4506 139.747 90.5801 139.555 90.7275C139.364 90.8749 139.231 91.0337 139.156 91.2039C139.083 91.3793 139.071 91.5543 139.12 91.729C139.18 91.9448 139.319 92.108 139.538 92.2186C139.764 92.3329 140.054 92.3906 140.409 92.3915C140.763 92.3924 141.169 92.3292 141.627 92.2019ZM140.273 87.6378C139.615 87.8209 138.996 87.8633 138.415 87.7649C137.832 87.6613 137.334 87.443 136.92 87.1098C136.511 86.7752 136.235 86.3484 136.09 85.8295C135.947 85.3157 135.967 84.8092 136.149 84.3101C136.331 83.8109 136.645 83.3691 137.092 82.9845C137.537 82.5948 138.086 82.3091 138.738 82.1274C139.386 81.9472 140 81.9088 140.583 82.0124C141.164 82.1108 141.661 82.3266 142.075 82.6598C142.488 82.9878 142.766 83.4113 142.911 83.9302C143.052 84.4389 143.033 84.9453 142.852 85.4496C142.675 85.9473 142.364 86.391 141.919 86.7807C141.474 87.1704 140.925 87.4561 140.273 87.6378ZM139.878 86.2197C140.201 86.1296 140.473 85.993 140.694 85.8098C140.914 85.6267 141.068 85.4149 141.156 85.1745C141.243 84.9289 141.25 84.6751 141.177 84.4131C141.065 84.0123 140.818 83.7323 140.436 83.5729C140.054 83.4136 139.619 83.4019 139.131 83.5378C138.802 83.6293 138.527 83.7667 138.307 83.9498C138.087 84.133 137.933 84.3448 137.845 84.5852C137.762 84.8242 137.758 85.0773 137.832 85.3445C137.942 85.7401 138.189 86.0201 138.572 86.1846C138.955 86.3439 139.39 86.3557 139.878 86.2197ZM140.414 83.5541L139.303 82.4268L143.527 81.0431L143.965 82.6483L140.414 83.5541ZM148.952 88.0861C148.427 88.232 147.935 88.2613 147.473 88.1739C147.011 88.0866 146.614 87.8927 146.281 87.5923C145.947 87.2867 145.71 86.8822 145.57 86.3787C145.449 85.9471 145.45 85.5317 145.571 85.1325C145.693 84.7334 145.946 84.3611 146.332 84.0157C146.716 83.6651 147.244 83.3548 147.916 83.0846C148.593 82.8129 149.423 82.5928 150.406 82.4244L150.8 83.7182C150.146 83.7951 149.586 83.9038 149.122 84.0443C148.657 84.1848 148.284 84.3467 148.003 84.5302C147.727 84.7122 147.536 84.9095 147.429 85.122C147.327 85.333 147.307 85.5515 147.37 85.7776C147.465 86.1167 147.661 86.3444 147.959 86.4607C148.256 86.5718 148.617 86.568 149.044 86.4493C149.409 86.3477 149.716 86.1901 149.967 85.9764C150.222 85.7612 150.401 85.5093 150.504 85.2206C150.605 84.9268 150.609 84.6129 150.516 84.279L149.973 82.3291C149.883 82.0054 149.735 81.7448 149.531 81.547C149.33 81.3428 149.073 81.215 148.76 81.1638C148.445 81.1075 148.069 81.1401 147.633 81.2618C147.232 81.3733 146.851 81.5459 146.489 81.7794C146.132 82.0063 145.816 82.2935 145.542 82.6411L144.617 81.3789C145.015 80.9193 145.465 80.545 145.966 80.256C146.467 79.9671 146.969 79.7525 147.472 79.6123C148.192 79.412 148.845 79.3519 149.432 79.4321C150.024 79.5108 150.526 79.7446 150.939 80.1334C151.356 80.5157 151.663 81.0639 151.862 81.7781L153.218 86.6488L151.477 87.1338L151.232 86.2552C151.074 86.6813 150.796 87.0548 150.398 87.376C149.999 87.692 149.517 87.9287 148.952 88.0861ZM155.091 86.1272L152.945 78.4204L154.918 77.871L155.176 78.7958C155.371 78.3041 155.649 77.9111 156.01 77.6168C156.375 77.316 156.783 77.1026 157.235 76.9767C157.944 76.7793 158.569 76.7575 159.111 76.9113C159.657 77.0637 160.104 77.3293 160.454 77.7082C160.803 78.0871 161.044 78.5181 161.179 79.001L162.582 84.0412L160.61 84.5906L159.378 80.1669C159.232 79.6429 158.964 79.2689 158.575 79.0451C158.186 78.8212 157.72 78.7851 157.175 78.9367C156.82 79.0355 156.527 79.2031 156.294 79.4396C156.064 79.6696 155.912 79.9473 155.836 80.2728C155.761 80.5983 155.775 80.946 155.878 81.316L157.064 85.5778L155.091 86.1272ZM164.477 83.5137L162.331 75.8069L164.304 75.2576L166.45 82.9643L164.477 83.5137ZM162.957 74.2375C162.618 74.3319 162.295 74.3056 161.988 74.1585C161.681 74.0114 161.479 73.7605 161.38 73.406C161.281 73.0515 161.325 72.732 161.512 72.4476C161.698 72.1631 161.961 71.9737 162.3 71.8792C162.639 71.7848 162.962 71.8112 163.269 71.9583C163.576 72.1054 163.778 72.3562 163.877 72.7107C163.976 73.0652 163.932 73.3847 163.745 73.6692C163.559 73.9536 163.296 74.1431 162.957 74.2375ZM172.054 81.653C171.237 81.8805 170.46 81.9057 169.725 81.7286C168.993 81.5449 168.359 81.1981 167.824 80.6883C167.287 80.1734 166.91 79.5254 166.693 78.7444C166.528 78.1536 166.485 77.5815 166.564 77.0282C166.641 76.4697 166.824 75.9537 167.113 75.4802C167.4 75.0016 167.778 74.5891 168.246 74.2428C168.718 73.8899 169.265 73.6269 169.887 73.4538C170.426 73.3036 170.947 73.236 171.45 73.2511C171.952 73.2662 172.438 73.3691 172.906 73.5598L172.403 75.3026C172.101 75.154 171.782 75.0713 171.445 75.0544C171.112 75.0309 170.779 75.0656 170.445 75.1586C169.941 75.2988 169.533 75.5122 169.219 75.7988C168.911 76.0839 168.708 76.4283 168.61 76.832C168.512 77.2358 168.533 77.6868 168.671 78.1852C168.878 78.9251 169.255 79.4455 169.804 79.7467C170.356 80.0412 171.008 80.0841 171.758 79.8752C172.133 79.7708 172.468 79.6027 172.764 79.371C173.059 79.1392 173.296 78.8683 173.476 78.5582L174.771 79.8086C174.436 80.2393 174.035 80.6169 173.566 80.9412C173.097 81.2655 172.593 81.5028 172.054 81.653ZM179.776 79.2535L176.772 68.464L183.585 66.5669L184.095 68.4011L179.286 69.7402L180.07 72.5532L184.408 71.345L184.902 73.1175L180.563 74.3258L181.78 78.6955L179.776 79.2535ZM191.517 76.2332C190.695 76.4622 189.914 76.4803 189.174 76.2878C188.437 76.0887 187.804 75.731 187.272 75.2146C186.739 74.6931 186.37 74.0624 186.164 73.3225C186.012 72.7779 185.971 72.2304 186.039 71.6799C186.107 71.1295 186.276 70.6145 186.547 70.135C186.821 69.6489 187.185 69.2264 187.639 68.8676C188.091 68.5036 188.626 68.2357 189.242 68.0641C190.059 67.8366 190.835 67.8198 191.57 68.0138C192.31 68.2063 192.947 68.5633 193.479 69.0848C194.017 69.6049 194.389 70.2349 194.595 70.9748C194.747 71.5194 194.786 72.0676 194.713 72.6195C194.643 73.1648 194.474 73.6798 194.205 74.1645C193.935 74.6491 193.575 75.0734 193.122 75.4374C192.669 75.7963 192.134 76.0616 191.517 76.2332ZM191.029 74.5091C191.465 74.3875 191.827 74.1844 192.113 73.8999C192.403 73.6088 192.597 73.2614 192.695 72.8576C192.791 72.4487 192.772 72.0028 192.638 71.5199C192.503 71.0369 192.289 70.6453 191.995 70.3452C191.701 70.0451 191.358 69.8471 190.966 69.7515C190.574 69.6558 190.16 69.6688 189.723 69.7904C189.286 69.912 188.922 70.1158 188.631 70.4017C188.345 70.6862 188.153 71.0329 188.057 71.4418C187.966 71.8493 187.987 72.2945 188.122 72.7774C188.256 73.2604 188.47 73.6519 188.764 73.9521C189.057 74.2471 189.4 74.445 189.793 74.5458C190.185 74.6415 190.597 74.6292 191.029 74.5091ZM200.692 73.6785C199.87 73.9074 199.089 73.9256 198.349 73.733C197.612 73.534 196.978 73.1762 196.447 72.6598C195.914 72.1383 195.545 71.5076 195.339 70.7677C195.187 70.2231 195.145 69.6756 195.214 69.1251C195.282 68.5747 195.451 68.0597 195.722 67.5802C195.996 67.0941 196.36 66.6716 196.814 66.3128C197.266 65.9488 197.8 65.6809 198.417 65.5093C199.234 65.2818 200.01 65.265 200.745 65.459C201.485 65.6515 202.121 66.0085 202.654 66.5301C203.192 67.0502 203.564 67.6801 203.77 68.42C203.922 68.9646 203.961 69.5128 203.887 70.0647C203.818 70.6101 203.649 71.125 203.379 71.6097C203.11 72.0943 202.749 72.5186 202.297 72.8826C201.843 73.2415 201.308 73.5068 200.692 73.6785ZM200.203 71.9543C200.64 71.8327 201.002 71.6296 201.288 71.3451C201.578 71.054 201.771 70.7066 201.869 70.3028C201.966 69.894 201.947 69.448 201.812 68.9651C201.678 68.4821 201.464 68.0906 201.17 67.7904C200.876 67.4903 200.533 67.2924 200.141 67.1967C199.749 67.101 199.334 67.114 198.898 67.2356C198.461 67.3572 198.097 67.561 197.806 67.8469C197.519 68.1315 197.328 68.4782 197.232 68.887C197.14 69.2945 197.162 69.7397 197.296 70.2226C197.431 70.7056 197.645 71.0972 197.939 71.3973C198.231 71.6923 198.574 71.8902 198.968 71.991C199.36 72.0867 199.772 72.0745 200.203 71.9543ZM209.504 71.2245C208.754 71.4334 208.04 71.444 207.362 71.2563C206.684 71.0686 206.095 70.7122 205.595 70.1873C205.094 69.6623 204.734 69.0042 204.513 68.213C204.355 67.6427 204.299 67.0851 204.347 66.5404C204.398 65.9891 204.544 65.4805 204.785 65.0148C205.03 64.5424 205.361 64.1377 205.776 63.8005C206.19 63.4583 206.685 63.207 207.26 63.0468C207.923 62.8622 208.541 62.8341 209.114 62.9625C209.685 63.0858 210.213 63.3402 210.696 63.7259L210.389 64.2931L208.962 59.1681L210.935 58.6187L214.025 69.7164L212.284 70.2014L211.754 68.2979L212.155 68.6676C212.029 69.2287 211.751 69.7407 211.321 70.2038C210.891 70.6668 210.285 71.0071 209.504 71.2245ZM209.386 69.3974C209.817 69.2772 210.176 69.0748 210.462 68.7903C210.752 68.4992 210.946 68.1518 211.044 67.748C211.141 67.3392 211.122 66.8932 210.987 66.4103C210.853 65.9273 210.638 65.5358 210.344 65.2356C210.051 64.9355 209.708 64.7376 209.315 64.6419C208.923 64.5462 208.509 64.5592 208.072 64.6808C207.636 64.8024 207.272 65.0062 206.98 65.2921C206.694 65.5767 206.503 65.9234 206.406 66.3323C206.315 66.7397 206.336 67.1849 206.471 67.6679C206.605 68.1508 206.82 68.5424 207.114 68.8425C207.406 69.1375 207.749 69.3354 208.143 69.4363C208.535 69.5319 208.949 69.519 209.386 69.3974ZM219.614 68.1603L216.609 57.3708L220.47 56.2957C221.524 56.0024 222.436 55.9975 223.207 56.2811C223.981 56.5581 224.494 57.1462 224.744 58.0453C224.837 58.3792 224.848 58.7167 224.777 59.0576C224.706 59.3985 224.578 59.7163 224.395 60.0111C224.21 60.3007 223.995 60.5432 223.75 60.7386C224.388 60.7605 224.963 60.9574 225.476 61.3293C225.989 61.7013 226.342 62.2315 226.534 62.92C226.702 63.5262 226.697 64.1035 226.517 64.6518C226.343 65.1986 226.01 65.6817 225.518 66.1011C225.024 66.5154 224.392 66.8298 223.621 67.0444L219.614 68.1603ZM221.19 66.0687L222.878 65.5987C223.551 65.4113 224.018 65.1375 224.277 64.7774C224.535 64.4121 224.589 63.9597 224.439 63.4202C224.292 62.891 224.012 62.5316 223.599 62.342C223.191 62.151 222.651 62.1492 221.978 62.3366L220.283 62.8087L221.19 66.0687ZM219.879 61.3599L221.444 60.9242C221.819 60.8198 222.128 60.6673 222.371 60.4667C222.614 60.2662 222.78 60.0288 222.87 59.7547C222.958 59.4754 222.958 59.1739 222.867 58.8503C222.736 58.3776 222.471 58.0637 222.074 57.9087C221.68 57.747 221.18 57.7506 220.574 57.9195L219.04 58.3465L219.879 61.3599ZM228.971 65.5546L226.825 57.8478L228.798 57.2984L229.079 58.308C229.221 57.7815 229.465 57.3674 229.813 57.0657C230.166 56.7626 230.576 56.5459 231.044 56.4157C231.208 56.3699 231.362 56.3354 231.505 56.3122C231.648 56.289 231.788 56.2749 231.925 56.27L232.245 58.3733C232.07 58.3611 231.891 58.3665 231.71 58.3894C231.531 58.4058 231.358 58.4376 231.188 58.4848C230.633 58.6394 230.222 58.9337 229.956 59.3678C229.688 59.7967 229.637 60.3092 229.802 60.9052L230.944 65.0052L228.971 65.5546ZM237.372 63.4643C236.848 63.6103 236.356 63.6396 235.894 63.5522C235.432 63.4649 235.035 63.271 234.702 62.9706C234.368 62.665 234.131 62.2605 233.99 61.757C233.87 61.3254 233.871 60.91 233.992 60.5108C234.114 60.1117 234.367 59.7394 234.753 59.394C235.137 59.0434 235.665 58.7331 236.337 58.4628C237.014 58.1912 237.844 57.9711 238.827 57.8027L239.22 59.0965C238.566 59.1734 238.007 59.2821 237.542 59.4226C237.078 59.5631 236.705 59.725 236.424 59.9085C236.148 60.0905 235.956 60.2878 235.849 60.5002C235.748 60.7113 235.728 60.9298 235.791 61.1559C235.886 61.495 236.082 61.7227 236.38 61.839C236.677 61.9501 237.038 61.9463 237.465 61.8276C237.83 61.726 238.137 61.5684 238.388 61.3547C238.643 61.1395 238.822 60.8876 238.925 60.5989C239.026 60.3051 239.029 59.9912 238.936 59.6572L238.394 57.7074C238.303 57.3837 238.156 57.123 237.952 56.9253C237.751 56.7211 237.494 56.5933 237.18 56.5421C236.866 56.4858 236.49 56.5184 236.053 56.64C235.653 56.7516 235.272 56.9242 234.91 57.1576C234.553 57.3846 234.237 57.6718 233.963 58.0194L233.038 56.7572C233.436 56.2976 233.886 55.9233 234.387 55.6343C234.887 55.3454 235.39 55.1308 235.893 54.9906C236.612 54.7903 237.266 54.7302 237.853 54.8104C238.445 54.8891 238.947 55.1229 239.36 55.5117C239.776 55.894 240.084 56.4422 240.283 57.1564L241.639 62.0271L239.898 62.5121L239.653 61.6335C239.495 62.0596 239.217 62.4331 238.819 62.7543C238.42 63.0703 237.938 63.307 237.372 63.4643ZM243.512 61.5055L241.366 53.7987L243.339 53.2493L243.597 54.1741C243.792 53.6824 244.07 53.2894 244.431 52.9951C244.796 52.6943 245.204 52.4809 245.656 52.355C246.365 52.1576 246.99 52.1357 247.531 52.2896C248.078 52.442 248.525 52.7076 248.874 53.0865C249.224 53.4654 249.465 53.8963 249.6 54.3793L251.003 59.4195L249.03 59.9689L247.799 55.5452C247.653 55.0212 247.385 54.6472 246.996 54.4233C246.607 54.1995 246.141 54.1634 245.596 54.315C245.241 54.4138 244.948 54.5814 244.714 54.8179C244.485 55.0479 244.333 55.3256 244.257 55.6511C244.182 55.9766 244.196 56.3243 244.299 56.6942L245.485 60.9561L243.512 61.5055ZM256.168 58.2305C255.418 58.4394 254.704 58.4499 254.026 58.2622C253.348 58.0745 252.759 57.7182 252.259 57.1932C251.758 56.6682 251.398 56.0101 251.177 55.2189C251.019 54.6486 250.963 54.0911 251.011 53.5463C251.062 52.995 251.208 52.4865 251.449 52.0207C251.694 51.5483 252.025 51.1436 252.44 50.8065C252.854 50.4642 253.349 50.2129 253.924 50.0527C254.587 49.8681 255.205 49.8401 255.778 49.9684C256.349 50.0917 256.877 50.3462 257.36 50.7318L257.053 51.299L255.626 46.174L257.599 45.6246L260.689 56.7224L258.948 57.2074L258.418 55.3038L258.819 55.6735C258.693 56.2346 258.415 56.7467 257.985 57.2097C257.555 57.6728 256.949 58.013 256.168 58.2305ZM256.05 56.4033C256.481 56.2831 256.84 56.0808 257.126 55.7962C257.416 55.5051 257.61 55.1577 257.708 54.754C257.805 54.3451 257.786 53.8992 257.651 53.4162C257.517 52.9333 257.302 52.5417 257.008 52.2416C256.715 51.9414 256.372 51.7435 255.979 51.6478C255.587 51.5522 255.173 51.5651 254.736 51.6867C254.3 51.8083 253.936 52.0121 253.644 52.2981C253.358 52.5826 253.167 52.9293 253.07 53.3382C252.979 53.7456 253 54.1908 253.135 54.6738C253.269 55.1568 253.484 55.5483 253.778 55.8485C254.07 56.1435 254.413 56.3414 254.807 56.4422C255.199 56.5379 255.613 56.5249 256.05 56.4033ZM265.419 55.6462C264.756 55.8307 264.115 55.9125 263.494 55.8915C262.879 55.869 262.33 55.7562 261.847 55.5529L262.143 53.9593C262.599 54.1257 263.077 54.2249 263.579 54.2569C264.081 54.2888 264.55 54.244 264.987 54.1224C265.449 53.9936 265.787 53.8164 266.001 53.5907C266.215 53.365 266.283 53.1135 266.206 52.836C266.133 52.574 265.967 52.4128 265.706 52.3525C265.446 52.2921 264.984 52.2824 264.319 52.3234C263.268 52.4057 262.464 52.3197 261.906 52.0654C261.346 51.8059 260.973 51.3397 260.786 50.6666C260.652 50.1888 260.666 49.731 260.827 49.2933C260.992 48.8541 261.278 48.4699 261.685 48.1408C262.095 47.8051 262.604 47.5528 263.21 47.384C263.801 47.2195 264.381 47.1464 264.951 47.1649C265.526 47.182 266.045 47.2866 266.508 47.4787L266.246 49.0714C265.998 48.9577 265.729 48.8749 265.438 48.8231C265.146 48.7714 264.848 48.7521 264.541 48.7655C264.24 48.7774 263.951 48.8219 263.673 48.8992C263.267 49.0122 262.959 49.1757 262.747 49.3897C262.54 49.6022 262.474 49.8395 262.546 50.1015C262.619 50.3636 262.789 50.5266 263.056 50.5907C263.322 50.6496 263.777 50.664 264.422 50.6339C265.511 50.5687 266.327 50.657 266.871 50.8987C267.414 51.1405 267.778 51.5902 267.961 52.2478C268.101 52.7513 268.087 53.2285 267.919 53.6794C267.75 54.1252 267.451 54.5213 267.021 54.8679C266.595 55.2079 266.061 55.4673 265.419 55.6462Z" fill="white"/>
<g clip-path="url(#clip0_5427_41468)">
<rect x="55" y="86.3594" width="42.3457" height="42.3457" rx="12.0988" transform="rotate(-15.5604 55 86.3594)" fill="#FF733D" fill-opacity="0.05"/>
<path d="M86.6723 103.107C86.2716 104.038 84.7577 105.331 83.8863 105.844C83.7654 105.916 83.5611 106.071 83.4222 106.046C83.3195 106.027 83.3214 105.877 83.2805 105.797C82.6867 104.629 82.4901 102.849 83.013 101.62C83.396 100.72 84.9036 99.2811 85.6838 98.649C85.7889 98.5631 86.1427 98.2301 86.2254 98.3902C86.2949 98.5262 86.391 98.7721 86.4415 98.92C86.8407 100.098 87.1818 101.929 86.6735 103.107L86.6723 103.107Z" fill="white"/>
<path d="M87.8638 109.544C87.2422 110.371 86.1637 111.327 85.2329 111.801C85.1694 111.833 85.1009 111.852 85.0306 111.86C84.9413 111.856 84.9495 111.716 84.9161 111.652C84.3041 110.504 84.1255 108.685 84.612 107.462C84.988 106.518 86.0839 105.559 86.8105 104.895C86.9659 104.753 87.6042 104.123 87.7697 104.13C87.8143 104.13 87.8221 104.158 87.8393 104.191C88.2407 104.975 88.5383 106.479 88.5447 107.368C88.5512 108.247 88.39 108.841 87.8626 109.544L87.8638 109.544Z" fill="white"/>
<path d="M84.5566 92.5213C84.5867 92.5867 84.6444 92.6378 84.6723 92.705C85.1824 93.9314 85.5586 95.8878 85.1012 97.1636C84.8138 97.9666 83.7966 98.9439 83.1207 99.468C82.9485 99.6015 81.9312 100.333 81.7832 100.265C81.4 99.5744 81.1984 98.789 81.1225 98.0054C80.9026 95.721 82.1326 94.5712 83.7165 93.1648C83.9793 92.931 84.246 92.6921 84.557 92.5225L84.5566 92.5213Z" fill="white"/>
<path d="M77.7098 96.357C79.2513 97.0591 80.1861 98.8981 80.3128 100.559C80.3157 100.598 80.3289 100.655 80.2961 100.684C80.1271 100.777 79.4391 100.751 79.214 100.737C78.2135 100.677 76.5063 100.317 75.7306 99.6594C74.812 98.8813 74.0797 96.8331 73.9233 95.6663C73.9165 95.6182 73.9098 95.5041 73.9534 95.4762C73.977 95.4617 74.3646 95.4868 74.427 95.4932C75.3057 95.5935 76.9156 95.9974 77.7074 96.3577L77.7098 96.357Z" fill="white"/>
<path d="M80.7522 107.837C82.361 108.455 83.221 110.209 83.493 111.848C83.5327 112.09 83.6456 112.297 83.3233 112.331C82.3203 112.442 80.2368 112.045 79.3748 111.532C78.5128 111.018 77.8686 109.807 77.5533 108.831C77.4865 108.624 77.0783 107.177 77.1394 107.089C77.1968 107.058 77.2599 107.049 77.3233 107.05C77.7458 107.053 78.2396 107.218 78.6455 107.304C79.3426 107.453 80.0851 107.579 80.7515 107.835L80.7522 107.837Z" fill="white"/>
<path d="M77.9542 105.819C76.5458 105.108 75.907 103.244 75.591 101.778C75.5763 101.711 75.5218 101.421 75.5209 101.375C75.5194 101.251 75.6823 101.264 75.7762 101.265C76.4791 101.283 78.0931 101.702 78.7997 101.926C80.8061 102.562 81.6436 104.42 81.9332 106.388C81.9317 106.538 81.6361 106.536 81.5209 106.543C80.499 106.605 78.86 106.277 77.9542 105.819Z" fill="white"/>
<path d="M77.9894 89.2028C78.8244 89.6235 79.8395 90.384 80.3379 91.2184C81.1807 92.6274 80.7627 94.3901 80.0469 95.7497C80.0176 95.8053 79.913 96.0161 79.8655 96.0254C79.7347 95.9907 79.6034 95.9403 79.4795 95.8879C77.7099 95.1374 76.3934 93.6825 76.6407 91.6145C76.7191 90.9644 77.1938 89.7035 77.6192 89.2071C77.7942 89.003 77.8038 89.1083 77.9894 89.2028Z" fill="white"/>
<path d="M92.9442 105.308C92.7285 106.051 91.9451 106.643 91.2997 107.017C91.1636 107.095 90.3317 107.518 90.2618 107.461C90.1335 107.232 90.0956 106.963 90.0648 106.706C89.9342 105.627 90.1448 104.633 90.9917 103.91C91.3162 103.633 92.3272 102.86 92.6857 102.728C92.8171 102.68 92.8884 102.69 92.9268 102.838C93.0852 103.444 93.1176 104.71 92.9445 105.309L92.9442 105.308Z" fill="white"/>
<path d="M73.734 105.227C74.1943 105.508 74.5651 105.917 74.8309 106.408C75.0073 106.734 75.1639 107.127 75.255 107.482C75.2222 107.606 74.6913 107.652 74.5592 107.665C73.7214 107.75 72.576 107.68 71.9244 107.137C71.4304 106.725 70.84 105.74 70.6376 105.131C70.6128 105.057 70.5073 104.773 70.6092 104.736C70.719 104.781 70.8135 104.723 70.92 104.722C71.7394 104.709 73.0434 104.804 73.7356 105.228L73.734 105.227Z" fill="white"/>
<path d="M74.9543 108.627C75.454 108.804 76.0251 109.327 76.3229 109.782C76.474 110.012 76.9385 110.905 76.8964 111.137C76.8725 111.268 76.3663 111.3 76.2303 111.313C75.3608 111.397 74.1786 111.323 73.5053 110.716C73.041 110.298 72.3337 109.144 72.239 108.534C72.232 108.49 72.2152 108.448 72.2617 108.417C72.3582 108.352 73.1678 108.398 73.3408 108.409C73.7693 108.434 74.5659 108.49 74.9547 108.628L74.9543 108.627Z" fill="white"/>
<path d="M92.0602 102.056C91.7154 102.468 90.9806 103.003 90.4833 103.236C90.3981 103.276 89.8517 103.485 89.8143 103.478C89.7654 103.468 89.7284 103.42 89.7152 103.372C89.5566 102.609 89.4685 101.716 89.7604 100.976C90.0928 100.131 91.2045 99.3373 91.982 98.885C92.0966 98.8188 92.3492 98.6287 92.4281 98.803C92.6285 99.835 92.7802 101.198 92.0618 102.057L92.0602 102.056Z" fill="white"/>
<path d="M72.4421 100.677C73.7712 101.056 74.36 101.922 74.2156 103.319C74.2074 103.393 74.1386 103.827 74.1066 103.849C74.0691 103.876 74.0137 103.875 73.9682 103.877C73.7111 103.886 73.0453 103.656 72.8023 103.526C71.9198 103.053 71.6471 102.069 71.8303 101.124C71.8444 101.051 71.9218 100.719 71.9433 100.673C71.9992 100.552 72.3295 100.646 72.4424 100.678L72.4421 100.677Z" fill="white"/>
<path d="M89.6354 99.014C89.5225 99.1666 89.392 99.3412 89.2482 99.4774C88.9425 99.7653 88.8988 99.8262 88.6132 99.4909C88.2049 99.0132 87.8484 98.3526 87.896 97.7098C87.9377 97.1503 88.2821 96.5473 88.6749 96.1416C89.0117 95.795 89.0445 95.8465 89.3691 96.1894C90.1599 97.0241 90.3277 98.0758 89.6351 99.0127L89.6354 99.014Z" fill="white"/>
<g filter="url(#filter2_f_5427_41468)">
<circle cx="95.4583" cy="109.459" r="7.55354" transform="rotate(-7.35473 95.4583 109.459)" fill="#FF733D"/>
</g>
</g>
<rect x="55.9237" y="86.8807" width="40.8457" height="40.8457" rx="11.3488" transform="rotate(-15.5604 55.9237 86.8807)" stroke="#FF733D" stroke-width="1.5"/>
<path d="M268 29.0439V29.0439C274.437 27.2515 281.108 31.0167 282.901 37.4537V37.4537" stroke="#FF733D" stroke-width="2.26852" stroke-linecap="round"/>
<defs>
<filter id="filter0_dddddd_5427_41468" x="-4" y="-4.01172" width="355.614" height="222.052" filterUnits="userSpaceOnUse" color-interpolation-filters="sRGB">
<feFlood flood-opacity="0" result="BackgroundImageFix"/>
<feColorMatrix in="SourceAlpha" type="matrix" values="0 0 0 0 0 0 0 0 0 0 0 0 0 0 0 0 0 0 127 0" result="hardAlpha"/>
<feMorphology radius="4" operator="erode" in="SourceAlpha" result="effect1_dropShadow_5427_41468"/>
<feOffset dy="5"/>
<feGaussianBlur stdDeviation="0.75"/>
<feComposite in2="hardAlpha" operator="out"/>
<feColorMatrix type="matrix" values="0 0 0 0 0.0313726 0 0 0 0 0.0313726 0 0 0 0 0.0313726 0 0 0 0.05 0"/>
<feBlend mode="normal" in2="BackgroundImageFix" result="effect1_dropShadow_5427_41468"/>
<feColorMatrix in="SourceAlpha" type="matrix" values="0 0 0 0 0 0 0 0 0 0 0 0 0 0 0 0 0 0 127 0" result="hardAlpha"/>
<feMorphology radius="4" operator="erode" in="SourceAlpha" result="effect2_dropShadow_5427_41468"/>
<feOffset dy="6"/>
<feGaussianBlur stdDeviation="2"/>
<feComposite in2="hardAlpha" operator="out"/>
<feColorMatrix type="matrix" values="0 0 0 0 0.0313726 0 0 0 0 0.0313726 0 0 0 0 0.0313726 0 0 0 0.05 0"/>
<feBlend mode="normal" in2="effect1_dropShadow_5427_41468" result="effect2_dropShadow_5427_41468"/>
<feColorMatrix in="SourceAlpha" type="matrix" values="0 0 0 0 0 0 0 0 0 0 0 0 0 0 0 0 0 0 127 0" result="hardAlpha"/>
<feOffset dy="6"/>
<feGaussianBlur stdDeviation="6.5"/>
<feComposite in2="hardAlpha" operator="out"/>
<feColorMatrix type="matrix" values="0 0 0 0 0.0313726 0 0 0 0 0.0313726 0 0 0 0 0.0313726 0 0 0 0.03 0"/>
<feBlend mode="normal" in2="effect2_dropShadow_5427_41468" result="effect3_dropShadow_5427_41468"/>
<feColorMatrix in="SourceAlpha" type="matrix" values="0 0 0 0 0 0 0 0 0 0 0 0 0 0 0 0 0 0 127 0" result="hardAlpha"/>
<feMorphology radius="16" operator="erode" in="SourceAlpha" result="effect4_dropShadow_5427_41468"/>
<feOffset dy="24"/>
<feGaussianBlur stdDeviation="12"/>
<feComposite in2="hardAlpha" operator="out"/>
<feColorMatrix type="matrix" values="0 0 0 0 0.0313726 0 0 0 0 0.0313726 0 0 0 0 0.0313726 0 0 0 0.04 0"/>
<feBlend mode="normal" in2="effect3_dropShadow_5427_41468" result="effect4_dropShadow_5427_41468"/>
<feColorMatrix in="SourceAlpha" type="matrix" values="0 0 0 0 0 0 0 0 0 0 0 0 0 0 0 0 0 0 127 0" result="hardAlpha"/>
<feMorphology radius="2" operator="erode" in="SourceAlpha" result="effect5_dropShadow_5427_41468"/>
<feOffset dy="2.15"/>
<feGaussianBlur stdDeviation="0.25"/>
<feComposite in2="hardAlpha" operator="out"/>
<feColorMatrix type="matrix" values="0 0 0 0 0 0 0 0 0 0 0 0 0 0 0 0 0 0 0.25 0"/>
<feBlend mode="normal" in2="effect4_dropShadow_5427_41468" result="effect5_dropShadow_5427_41468"/>
<feColorMatrix in="SourceAlpha" type="matrix" values="0 0 0 0 0 0 0 0 0 0 0 0 0 0 0 0 0 0 127 0" result="hardAlpha"/>
<feMorphology radius="12" operator="erode" in="SourceAlpha" result="effect6_dropShadow_5427_41468"/>
<feOffset dy="32"/>
<feGaussianBlur stdDeviation="32"/>
<feComposite in2="hardAlpha" operator="out"/>
<feColorMatrix type="matrix" values="0 0 0 0 0 0 0 0 0 0 0 0 0 0 0 0 0 0 0.075 0"/>
<feBlend mode="multiply" in2="effect5_dropShadow_5427_41468" result="effect6_dropShadow_5427_41468"/>
<feBlend mode="normal" in="SourceGraphic" in2="effect6_dropShadow_5427_41468" result="shape"/>
</filter>
<filter id="filter2_f_5427_41468" x="57.9038" y="71.9043" width="75.1089" height="75.1084" filterUnits="userSpaceOnUse" color-interpolation-filters="sRGB">
<feFlood flood-opacity="0" result="BackgroundImageFix"/>
<feBlend mode="normal" in="SourceGraphic" in2="BackgroundImageFix" result="shape"/>
<feGaussianBlur stdDeviation="15" result="effect1_foregroundBlur_5427_41468"/>
</filter>
<linearGradient id="paint0_linear_5427_41468" x1="171.075" y1="82.019" x2="171.075" y2="136.019" gradientUnits="userSpaceOnUse">
<stop stop-color="#F6F6F6"/>
<stop offset="1" stop-color="#E6E6E6"/>
</linearGradient>
<clipPath id="clip0_5427_41468">
<rect x="55" y="86.3594" width="42.3457" height="42.3457" rx="12.0988" transform="rotate(-15.5604 55 86.3594)" fill="white"/>
</clipPath>
</defs>
</svg>
