<svg width="182" height="54" viewBox="0 0 182 54" fill="none" xmlns="http://www.w3.org/2000/svg">
<rect width="182" height="54" rx="18.1482" fill="#F1F1F1" fill-opacity="0.1"/>
<rect x="1.13426" y="1.13426" width="179.731" height="51.7315" rx="17.0139" stroke="url(#paint0_linear_6163_151)" stroke-opacity="0.1" stroke-width="2.26852"/>
<path d="M68.672 32.9251C67.872 32.9251 67.0907 32.8104 66.328 32.5811C65.5707 32.3464 64.9307 32.0131 64.408 31.5811L65.416 30.0051C65.672 30.2397 65.9787 30.4424 66.336 30.6131C66.6934 30.7837 67.072 30.9171 67.472 31.0131C67.8774 31.1037 68.28 31.1491 68.68 31.1491C69.3467 31.1491 69.888 31.0264 70.304 30.7811C70.72 30.5304 70.928 30.1704 70.928 29.7011C70.928 29.3331 70.784 29.0264 70.496 28.7811C70.208 28.5304 69.6774 28.2957 68.904 28.0771L67.816 27.7651C66.7227 27.4557 65.9307 27.0424 65.44 26.5251C64.9547 26.0024 64.712 25.3624 64.712 24.6051C64.712 24.1091 64.8134 23.6557 65.016 23.2451C65.2187 22.8344 65.504 22.4797 65.872 22.1811C66.2454 21.8824 66.6854 21.6531 67.192 21.4931C67.6987 21.3331 68.2507 21.2531 68.848 21.2531C69.632 21.2531 70.36 21.3677 71.032 21.5971C71.704 21.8211 72.2534 22.1277 72.68 22.5171L71.648 24.0451C71.424 23.8371 71.16 23.6557 70.856 23.5011C70.552 23.3464 70.224 23.2291 69.872 23.1491C69.52 23.0637 69.1654 23.0211 68.808 23.0211C68.3867 23.0211 68.0187 23.0797 67.704 23.1971C67.3894 23.3144 67.144 23.4824 66.968 23.7011C66.792 23.9197 66.704 24.1864 66.704 24.5011C66.704 24.7304 66.7627 24.9304 66.88 25.1011C67.0027 25.2717 67.2107 25.4291 67.504 25.5731C67.7974 25.7117 68.2027 25.8584 68.72 26.0131L69.856 26.3491C70.928 26.6637 71.7094 27.0691 72.2 27.5651C72.6907 28.0557 72.936 28.6957 72.936 29.4851C72.936 30.1624 72.7654 30.7597 72.424 31.2771C72.0827 31.7944 71.592 32.1997 70.952 32.4931C70.3174 32.7811 69.5574 32.9251 68.672 32.9251ZM74.4934 36.0451V24.6851H76.3014V25.7411C76.6107 25.3517 77.0081 25.0397 77.4934 24.8051C77.9787 24.5651 78.5654 24.4451 79.2534 24.4451C80.0267 24.4451 80.7147 24.6264 81.3174 24.9891C81.9201 25.3517 82.3921 25.8531 82.7334 26.4931C83.0801 27.1277 83.2534 27.8584 83.2534 28.6851C83.2534 29.2771 83.1547 29.8291 82.9574 30.3411C82.7601 30.8531 82.4827 31.3037 82.1254 31.6931C81.7681 32.0771 81.3414 32.3784 80.8454 32.5971C80.3547 32.8157 79.8134 32.9251 79.2214 32.9251C78.6454 32.9251 78.1334 32.8264 77.6854 32.6291C77.2427 32.4264 76.8587 32.1517 76.5334 31.8051V36.0451H74.4934ZM78.8774 31.1331C79.3307 31.1331 79.7334 31.0344 80.0854 30.8371C80.4374 30.6344 80.7147 30.3517 80.9174 29.9891C81.1201 29.6211 81.2214 29.1864 81.2214 28.6851C81.2214 28.1837 81.1201 27.7491 80.9174 27.3811C80.7147 27.0131 80.4347 26.7304 80.0774 26.5331C79.7254 26.3357 79.3254 26.2371 78.8774 26.2371C78.4241 26.2371 78.0214 26.3357 77.6694 26.5331C77.3174 26.7304 77.0401 27.0131 76.8374 27.3811C76.6347 27.7491 76.5334 28.1837 76.5334 28.6851C76.5334 29.1864 76.6321 29.6211 76.8294 29.9891C77.0321 30.3517 77.3094 30.6344 77.6614 30.8371C78.0187 31.0344 78.4241 31.1331 78.8774 31.1331ZM88.4086 32.9251C87.5553 32.9251 86.798 32.7331 86.1366 32.3491C85.4806 31.9597 84.966 31.4451 84.5926 30.8051C84.2193 30.1597 84.0326 29.4531 84.0326 28.6851C84.0326 28.1197 84.1393 27.5811 84.3526 27.0691C84.566 26.5571 84.8673 26.1064 85.2566 25.7171C85.6513 25.3224 86.1153 25.0131 86.6486 24.7891C87.182 24.5597 87.7686 24.4451 88.4086 24.4451C89.2566 24.4451 90.0086 24.6371 90.6646 25.0211C91.326 25.4051 91.8433 25.9197 92.2166 26.5651C92.5953 27.2104 92.7846 27.9171 92.7846 28.6851C92.7846 29.2504 92.6753 29.7891 92.4566 30.3011C92.2433 30.8077 91.942 31.2584 91.5526 31.6531C91.1633 32.0477 90.702 32.3597 90.1686 32.5891C89.6353 32.8131 89.0486 32.9251 88.4086 32.9251ZM88.4006 31.1331C88.854 31.1331 89.2566 31.0344 89.6086 30.8371C89.966 30.6344 90.246 30.3517 90.4486 29.9891C90.6513 29.6211 90.7526 29.1864 90.7526 28.6851C90.7526 28.1837 90.6513 27.7491 90.4486 27.3811C90.246 27.0131 89.9686 26.7304 89.6166 26.5331C89.2646 26.3357 88.862 26.2371 88.4086 26.2371C87.9553 26.2371 87.55 26.3357 87.1926 26.5331C86.8406 26.7304 86.5633 27.0131 86.3606 27.3811C86.1633 27.7491 86.0646 28.1837 86.0646 28.6851C86.0646 29.1864 86.166 29.6211 86.3686 29.9891C86.5713 30.3517 86.8486 30.6344 87.2006 30.8371C87.5526 31.0344 87.9526 31.1331 88.4006 31.1331ZM94.1503 32.6851V24.6851H96.1983V25.7331C96.4756 25.2637 96.8223 24.9304 97.2383 24.7331C97.6596 24.5357 98.1129 24.4371 98.5983 24.4371C98.7689 24.4371 98.9263 24.4451 99.0703 24.4611C99.2143 24.4771 99.3529 24.5011 99.4863 24.5331L99.2303 26.6451C99.0649 26.5864 98.8916 26.5437 98.7103 26.5171C98.5343 26.4851 98.3583 26.4691 98.1823 26.4691C97.6063 26.4691 97.1316 26.6424 96.7583 26.9891C96.3849 27.3304 96.1983 27.8104 96.1983 28.4291V32.6851H94.1503ZM104.074 32.9251C103.253 32.9251 102.602 32.6904 102.122 32.2211C101.642 31.7517 101.402 31.0424 101.402 30.0931V22.3651H103.45V24.6851H105.554V26.3491H103.45V29.6851C103.45 30.1971 103.552 30.5597 103.754 30.7731C103.957 30.9811 104.237 31.0851 104.594 31.0851C104.776 31.0851 104.946 31.0637 105.106 31.0211C105.272 30.9784 105.424 30.9224 105.562 30.8531L105.882 32.4851C105.648 32.6077 105.373 32.7117 105.058 32.7971C104.744 32.8824 104.416 32.9251 104.074 32.9251ZM99.7144 26.3491V24.6851H101.634V26.3491H99.7144ZM110.107 32.9171C109.419 32.9171 108.779 32.8237 108.187 32.6371C107.6 32.4504 107.102 32.1944 106.691 31.8691L107.403 30.4131C107.798 30.6957 108.232 30.9197 108.707 31.0851C109.182 31.2504 109.646 31.3331 110.099 31.3331C110.579 31.3331 110.952 31.2531 111.219 31.0931C111.486 30.9331 111.619 30.7091 111.619 30.4211C111.619 30.1491 111.502 29.9491 111.267 29.8211C111.032 29.6931 110.59 29.5597 109.939 29.4211C108.904 29.2184 108.152 28.9197 107.683 28.5251C107.214 28.1251 106.979 27.5757 106.979 26.8771C106.979 26.3811 107.115 25.9437 107.387 25.5651C107.664 25.1864 108.043 24.8931 108.523 24.6851C109.008 24.4717 109.566 24.3651 110.195 24.3651C110.808 24.3651 111.387 24.4504 111.931 24.6211C112.48 24.7917 112.952 25.0317 113.347 25.3411L112.667 26.8051C112.459 26.6291 112.222 26.4771 111.955 26.3491C111.688 26.2211 111.406 26.1224 111.107 26.0531C110.814 25.9837 110.523 25.9491 110.235 25.9491C109.814 25.9491 109.472 26.0237 109.211 26.1731C108.955 26.3224 108.827 26.5331 108.827 26.8051C108.827 27.0771 108.947 27.2797 109.187 27.4131C109.427 27.5411 109.862 27.6771 110.491 27.8211C111.558 28.0504 112.32 28.3544 112.779 28.7331C113.238 29.1117 113.467 29.6424 113.467 30.3251C113.467 30.8477 113.326 31.3037 113.043 31.6931C112.76 32.0771 112.366 32.3784 111.859 32.5971C111.358 32.8104 110.774 32.9171 110.107 32.9171ZM123.933 32.9251C122.771 32.9251 121.752 32.6851 120.877 32.2051C120.003 31.7251 119.323 31.0504 118.837 30.1811C118.352 29.3064 118.109 28.2797 118.109 27.1011C118.109 26.2424 118.251 25.4584 118.533 24.7491C118.821 24.0344 119.227 23.4157 119.749 22.8931C120.277 22.3651 120.896 21.9597 121.605 21.6771C122.32 21.3891 123.104 21.2451 123.957 21.2451C124.837 21.2451 125.589 21.3571 126.213 21.5811C126.837 21.7997 127.392 22.1117 127.877 22.5171L126.813 24.2211C126.472 23.8957 126.072 23.6557 125.613 23.5011C125.16 23.3411 124.656 23.2611 124.101 23.2611C123.509 23.2611 122.979 23.3491 122.509 23.5251C122.04 23.7011 121.64 23.9571 121.309 24.2931C120.979 24.6237 120.725 25.0237 120.549 25.4931C120.373 25.9624 120.285 26.4904 120.285 27.0771C120.285 27.8824 120.443 28.5704 120.757 29.1411C121.072 29.7064 121.52 30.1411 122.101 30.4451C122.683 30.7491 123.373 30.9011 124.173 30.9011C124.712 30.9011 125.237 30.8184 125.749 30.6531C126.267 30.4877 126.755 30.2237 127.213 29.8611L128.173 31.6131C127.64 32.0291 127.021 32.3517 126.317 32.5811C125.619 32.8104 124.824 32.9251 123.933 32.9251ZM129.425 32.6851V21.1651H131.473V32.6851H129.425ZM136.616 32.9251C135.896 32.9251 135.298 32.7811 134.824 32.4931C134.354 32.2051 134.005 31.8211 133.776 31.3411C133.546 30.8557 133.432 30.3144 133.432 29.7171V24.6851H135.48V29.3651C135.48 29.8771 135.626 30.2877 135.92 30.5971C136.213 30.9011 136.626 31.0531 137.16 31.0531C137.501 31.0531 137.808 30.9757 138.08 30.8211C138.352 30.6611 138.565 30.4424 138.72 30.1651C138.874 29.8877 138.952 29.5651 138.952 29.1971V24.6851H141V32.6851H139.192V31.7731C138.898 32.1197 138.541 32.3997 138.12 32.6131C137.704 32.8211 137.202 32.9251 136.616 32.9251ZM147.795 32.9251C147.273 32.9251 146.801 32.8477 146.379 32.6931C145.958 32.5384 145.593 32.3251 145.283 32.0531C144.974 31.7811 144.731 31.4664 144.555 31.1091L144.843 30.6531V32.6851H143.035V21.1651H145.075V26.5171L144.635 26.0531C144.993 25.5517 145.43 25.1597 145.947 24.8771C146.47 24.5891 147.075 24.4451 147.763 24.4451C148.553 24.4451 149.251 24.6344 149.859 25.0131C150.467 25.3864 150.942 25.8957 151.283 26.5411C151.625 27.1811 151.795 27.8957 151.795 28.6851C151.795 29.2984 151.697 29.8664 151.499 30.3891C151.302 30.9064 151.025 31.3544 150.667 31.7331C150.31 32.1117 149.886 32.4051 149.395 32.6131C148.91 32.8211 148.377 32.9251 147.795 32.9251ZM147.419 31.1331C147.867 31.1331 148.267 31.0344 148.619 30.8371C148.977 30.6344 149.257 30.3517 149.459 29.9891C149.662 29.6211 149.763 29.1864 149.763 28.6851C149.763 28.1837 149.662 27.7491 149.459 27.3811C149.257 27.0131 148.979 26.7304 148.627 26.5331C148.275 26.3357 147.873 26.2371 147.419 26.2371C146.966 26.2371 146.561 26.3357 146.203 26.5331C145.851 26.7304 145.574 27.0131 145.371 27.3811C145.174 27.7491 145.075 28.1837 145.075 28.6851C145.075 29.1864 145.177 29.6211 145.379 29.9891C145.582 30.3517 145.859 30.6344 146.211 30.8371C146.563 31.0344 146.966 31.1331 147.419 31.1331ZM155.968 32.9171C155.28 32.9171 154.64 32.8237 154.048 32.6371C153.462 32.4504 152.963 32.1944 152.552 31.8691L153.264 30.4131C153.659 30.6957 154.094 30.9197 154.568 31.0851C155.043 31.2504 155.507 31.3331 155.96 31.3331C156.44 31.3331 156.814 31.2531 157.08 31.0931C157.347 30.9331 157.48 30.7091 157.48 30.4211C157.48 30.1491 157.363 29.9491 157.128 29.8211C156.894 29.6931 156.451 29.5597 155.8 29.4211C154.766 29.2184 154.014 28.9197 153.544 28.5251C153.075 28.1251 152.84 27.5757 152.84 26.8771C152.84 26.3811 152.976 25.9437 153.248 25.5651C153.526 25.1864 153.904 24.8931 154.384 24.6851C154.87 24.4717 155.427 24.3651 156.056 24.3651C156.67 24.3651 157.248 24.4504 157.792 24.6211C158.342 24.7917 158.814 25.0317 159.208 25.3411L158.528 26.8051C158.32 26.6291 158.083 26.4771 157.816 26.3491C157.55 26.2211 157.267 26.1224 156.968 26.0531C156.675 25.9837 156.384 25.9491 156.096 25.9491C155.675 25.9491 155.334 26.0237 155.072 26.1731C154.816 26.3224 154.688 26.5331 154.688 26.8051C154.688 27.0771 154.808 27.2797 155.048 27.4131C155.288 27.5411 155.723 27.6771 156.352 27.8211C157.419 28.0504 158.182 28.3544 158.64 28.7331C159.099 29.1117 159.328 29.6424 159.328 30.3251C159.328 30.8477 159.187 31.3037 158.904 31.6931C158.622 32.0771 158.227 32.3784 157.72 32.5971C157.219 32.8104 156.635 32.9171 155.968 32.9171Z" fill="white"/>
<g clip-path="url(#clip0_6163_151)">
<rect x="5.78027" y="5.12402" width="42.3457" height="42.3457" rx="12.0988" fill="#FDCB26" fill-opacity="0.05"/>
<path d="M29.3478 14.3243C29.0679 14.4023 28.6947 14.8344 28.6373 15.1531C28.5655 15.5144 28.7163 15.9111 29.0106 16.1448C29.4628 16.5132 30.037 16.4848 30.4604 16.0598C30.6758 15.8543 30.7188 15.7552 30.7404 15.4364C30.7834 14.9405 30.6111 14.6218 30.1876 14.4022C29.8503 14.2322 29.7067 14.2251 29.3478 14.3243Z" fill="white"/>
<path d="M33.7421 15.8684C32.6081 16.1588 31.6176 17.2639 31.3018 18.5886C31.0076 19.8069 31.2301 20.7207 32.2279 22.4278C32.4576 22.8103 32.6873 23.2353 32.7447 23.3699C32.8524 23.6249 32.874 24.0924 32.8022 24.5387C32.7591 24.7796 32.7304 24.8079 32.3859 24.9071C31.3021 25.2259 30.3259 25.1905 29.4861 24.7939C28.8832 24.5034 27.9501 23.6322 27.5768 22.9947C27.2969 22.5272 26.9236 22.1447 26.6437 22.0455C26.3925 21.9464 25.7824 21.8968 24.0167 21.826C21.8993 21.7411 20.191 21.5712 19.868 21.4224C19.265 21.1391 18.5114 20.2324 17.9227 19.0778C17.8007 18.837 17.6572 18.6387 17.6069 18.6387C17.4705 18.6387 16.3221 18.8441 16.2862 18.8725C16.2288 18.9362 16.5806 19.8712 16.9036 20.5017C17.5496 21.7554 18.4827 22.9455 19.0139 23.1934C19.4446 23.3988 20.514 23.6679 21.5405 23.8308L22.5453 23.9937L22.8109 24.4187C23.6149 25.6937 23.9307 27.5354 23.5863 28.8813C23.3997 29.6038 23.0265 30.3547 22.6532 30.7372C22.3159 31.0843 21.7274 31.389 21.3828 31.389C20.8948 31.389 20.299 30.6169 19.8826 29.4552C19.7319 29.0302 19.6673 28.9098 19.5812 28.9452C19.5166 28.9665 19.1792 29.0727 18.8275 29.1719L18.1887 29.3632L18.239 29.6465C18.3323 30.2345 18.6481 31.1978 18.9353 31.7787C19.5023 32.9262 20.2488 33.5141 21.3542 33.6699C22.2945 33.8044 23.1989 33.5494 24.1032 32.8906C24.7922 32.3876 25.7684 31.2471 26.1631 30.4821C26.2492 30.3192 26.3569 30.1846 26.4071 30.1846C26.5292 30.1846 27.0531 30.985 27.1967 31.3888C27.369 31.8704 27.3977 32.175 27.3188 32.6C27.0748 33.8964 25.79 35.1714 23.6081 36.2837C23.2205 36.482 22.8903 36.6591 22.876 36.6662C22.8401 36.7016 23.9024 38.26 23.967 38.26C24.0603 38.26 25.4671 37.5445 25.948 37.2469C27.8357 36.0922 29.0774 34.7746 29.4793 33.5138C29.7089 32.7912 29.7376 31.6862 29.5581 30.6307C29.4074 29.7878 29.0484 28.5694 28.7326 27.8327C28.6034 27.5423 28.5747 27.3581 28.5962 27.0252L28.6249 26.5931L29.034 26.7206C30.2255 27.0818 31.0868 27.0322 32.2927 26.5363C32.4075 26.4867 32.4219 26.508 32.3788 26.7346C32.3286 26.9684 32.3429 27.0038 32.5224 27.0676C32.91 27.2163 33.2473 27.2305 33.3693 27.11C33.4339 27.0463 33.4698 26.9542 33.4483 26.9046C33.4052 26.7842 33.8358 24.1137 33.9291 23.9224C33.9721 23.8374 34.5176 23.2778 35.142 22.6756C36.6852 21.1809 37.0297 20.5363 37.0368 19.0984C37.0368 18.05 36.5845 16.9662 35.9098 16.3996C35.3643 15.9462 34.3738 15.6983 33.7421 15.8684ZM34.9911 17.2071C35.917 17.7596 36.1468 19.4667 35.4506 20.6072C35.02 21.3085 34.5606 21.6202 33.9577 21.6273C33.0605 21.6344 32.4145 20.7703 32.4001 19.5661C32.4 18.9356 32.5005 18.5106 32.7445 18.0856C33.3689 17.0301 34.1728 16.7113 34.9911 17.2071Z" fill="white"/>
<path d="M23.1221 17.5693C22.5838 17.7039 22.0742 18.1148 21.823 18.6106C21.6221 19.0144 21.6365 19.914 21.8446 20.3036C22.4907 21.4936 24.1702 21.699 25.0459 20.6931C26.0866 19.4888 25.3113 17.6542 23.7107 17.5409C23.5025 17.5268 23.2442 17.5339 23.1221 17.5693Z" fill="white"/>
<g filter="url(#filter1_f_6163_151)">
<circle cx="41.8103" cy="39.3794" r="7.5" transform="rotate(2.51783 41.8103 39.3794)" fill="#FDCB26"/>
</g>
</g>
<rect x="6.53027" y="5.87402" width="40.8457" height="40.8457" rx="11.3488" stroke="#FDCB26" stroke-width="1.5"/>
<path d="M163.999 6V6C170.681 6 176.098 11.4168 176.098 18.0988V18.0988" stroke="#FDCB26" stroke-width="2.26852" stroke-linecap="round"/>
<defs>
<filter id="filter1_f_6163_151" x="4.31006" y="1.87939" width="75.0005" height="75" filterUnits="userSpaceOnUse" color-interpolation-filters="sRGB">
<feFlood flood-opacity="0" result="BackgroundImageFix"/>
<feBlend mode="normal" in="SourceGraphic" in2="BackgroundImageFix" result="shape"/>
<feGaussianBlur stdDeviation="15" result="effect1_foregroundBlur_6163_151"/>
</filter>
<linearGradient id="paint0_linear_6163_151" x1="91" y1="0" x2="91" y2="54" gradientUnits="userSpaceOnUse">
<stop stop-color="#F6F6F6"/>
<stop offset="1" stop-color="#E6E6E6"/>
</linearGradient>
<clipPath id="clip0_6163_151">
<rect x="5.78027" y="5.12402" width="42.3457" height="42.3457" rx="12.0988" fill="white"/>
</clipPath>
</defs>
</svg>
