<svg width="43" height="43" viewBox="0 0 43 43" fill="none" xmlns="http://www.w3.org/2000/svg">
<g filter="url(#filter0_f_5418_37924)">
<circle cx="25.7603" cy="31.8087" r="6.04938" fill="#FDCB26" fill-opacity="0.3"/>
</g>
<rect x="0.0507812" y="0.0494385" width="42.3457" height="42.3457" rx="12.0988" fill="#FDCB26" fill-opacity="0.05"/>
<rect x="0.800781" y="0.799438" width="40.8457" height="40.8457" rx="11.3488" stroke="#FDCB26" stroke-opacity="0.2" stroke-width="1.5"/>
<path d="M20.615 9.08178C20.0246 9.24351 19.5237 9.62088 19.1838 10.151C18.9066 10.5823 18.8887 10.6721 18.8887 11.3819C18.8887 12.2714 19.0318 12.6398 19.5595 13.152C20.5971 14.1313 22.2071 14.0505 23.0837 12.9723C23.6382 12.2894 23.7903 11.5437 23.5398 10.6991C23.191 9.50407 21.8135 8.74035 20.615 9.08178Z" fill="#F5AF0E"/>
<path d="M17.8174 14.2217C17.6386 14.2666 16.4669 14.7877 13.9805 15.9378C13.2918 16.2523 12.6568 16.5757 12.5584 16.6656C12.1917 16.998 12.1559 17.2047 12.0575 19.9002C11.9681 22.5058 11.9681 22.6406 12.1649 23.0449C12.3974 23.5301 13.2292 23.6649 13.7569 23.3055C14.2846 22.9461 14.3204 22.7753 14.374 20.574C14.4008 19.4779 14.4545 18.5524 14.4903 18.5165C14.5976 18.4086 16.2701 17.6629 16.3149 17.7078C16.3417 17.7258 16.3506 21.3917 16.3417 25.8482L16.3327 33.9436L16.5295 34.2851C17.093 35.2914 18.5598 35.2195 19.0338 34.1683C19.1859 33.8268 19.2038 33.4944 19.2038 29.4152V25.0396H21.0283H22.8618L22.8887 27.4116C22.9155 29.6578 22.9244 29.8016 23.1033 30.0442C23.4253 30.4755 23.8367 30.7001 24.3197 30.7001C24.8653 30.7001 25.2141 30.5204 25.5093 30.0981L25.7329 29.7567V27.178C25.7329 24.0782 25.6971 23.8895 24.8385 23.0449C24.1498 22.371 23.5326 22.1644 22.1463 22.1644H21.1714V19.1634C21.1714 15.9378 21.1535 15.7671 20.6795 15.0483C20.3486 14.5541 19.6152 14.2306 18.7118 14.2037C18.3183 14.1857 17.9158 14.1947 17.8174 14.2217Z" fill="#F5AF0E"/>
<path d="M25.4102 16.5758C23.6123 17.2047 23.0667 19.5857 24.4084 20.9335C24.9898 21.5175 25.5175 21.7421 26.3136 21.7511C27.8073 21.7511 28.9791 20.5831 28.9701 19.0916C28.9612 17.2227 27.1812 15.9648 25.4102 16.5758ZM27.208 17.7708C28.0757 18.3638 28.0846 19.7654 27.2259 20.4034C26.8413 20.6819 25.8038 20.6729 25.3923 20.3854C24.8199 19.9721 24.5873 19.1185 24.8735 18.4536C25.2492 17.5641 26.403 17.2227 27.208 17.7708Z" fill="#F5AF0E"/>
<path d="M29.0283 21.2835C28.7868 21.4722 28.7689 21.7417 28.9568 22.0742C29.3145 22.6941 29.4755 23.1344 29.565 23.7274C29.717 24.6978 29.5829 25.3087 28.9299 26.5217C28.8494 26.6745 28.8047 26.8811 28.8315 26.9889C28.8941 27.2315 29.243 27.4112 29.5292 27.3393C30.0033 27.2225 30.7457 25.3896 30.7457 24.3384C30.7457 23.359 30.2448 21.8405 29.7618 21.3554C29.556 21.1487 29.234 21.1218 29.0283 21.2835Z" fill="#F5AF0E"/>
<path d="M27.4954 22.4157C27.2897 22.6403 27.3076 22.811 27.5669 23.3321C27.7279 23.6466 27.7906 23.9162 27.7906 24.2756C27.7906 24.635 27.7279 24.9045 27.5669 25.219C27.2986 25.7491 27.2897 25.9468 27.5043 26.1444C28.1126 26.7015 28.8818 25.6503 28.8818 24.2756C28.8907 23.5837 28.6403 22.793 28.3272 22.4516C28.1036 22.209 27.6922 22.1911 27.4954 22.4157Z" fill="#F5AF0E"/>
<defs>
<filter id="filter0_f_5418_37924" x="16.6862" y="22.7346" width="18.148" height="18.1481" filterUnits="userSpaceOnUse" color-interpolation-filters="sRGB">
<feFlood flood-opacity="0" result="BackgroundImageFix"/>
<feBlend mode="normal" in="SourceGraphic" in2="BackgroundImageFix" result="shape"/>
<feGaussianBlur stdDeviation="1.51235" result="effect1_foregroundBlur_5418_37924"/>
</filter>
</defs>
</svg>
