<svg width="315" height="158" viewBox="0 0 315 158" fill="none" xmlns="http://www.w3.org/2000/svg">
<g filter="url(#filter0_dddddd_6146_168)">
<rect x="52" y="20" width="211" height="54" rx="18.1482" fill="#F1F1F1"/>
<rect x="53.1343" y="21.1343" width="208.731" height="51.7315" rx="17.0139" stroke="url(#paint0_linear_6146_168)" stroke-width="2.26852"/>
</g>
<path d="M120.672 52.9252C119.872 52.9252 119.09 52.8105 118.328 52.5812C117.57 52.3465 116.93 52.0132 116.408 51.5812L117.416 50.0052C117.672 50.2398 117.978 50.4425 118.336 50.6132C118.693 50.7838 119.072 50.9172 119.472 51.0132C119.877 51.1038 120.28 51.1492 120.68 51.1492C121.346 51.1492 121.888 51.0265 122.304 50.7812C122.72 50.5305 122.928 50.1705 122.928 49.7012C122.928 49.3332 122.784 49.0265 122.496 48.7812C122.208 48.5305 121.677 48.2958 120.904 48.0772L119.816 47.7652C118.722 47.4558 117.93 47.0425 117.44 46.5252C116.954 46.0025 116.712 45.3625 116.712 44.6052C116.712 44.1092 116.813 43.6558 117.016 43.2452C117.218 42.8345 117.504 42.4798 117.872 42.1812C118.245 41.8825 118.685 41.6532 119.192 41.4932C119.698 41.3332 120.25 41.2532 120.848 41.2532C121.632 41.2532 122.36 41.3678 123.032 41.5972C123.704 41.8212 124.253 42.1278 124.68 42.5172L123.648 44.0452C123.424 43.8372 123.16 43.6558 122.856 43.5012C122.552 43.3465 122.224 43.2292 121.872 43.1492C121.52 43.0638 121.165 43.0212 120.808 43.0212C120.386 43.0212 120.018 43.0798 119.704 43.1972C119.389 43.3145 119.144 43.4825 118.968 43.7012C118.792 43.9198 118.704 44.1865 118.704 44.5012C118.704 44.7305 118.762 44.9305 118.88 45.1012C119.002 45.2718 119.21 45.4292 119.504 45.5732C119.797 45.7118 120.202 45.8585 120.72 46.0132L121.856 46.3492C122.928 46.6638 123.709 47.0692 124.2 47.5652C124.69 48.0558 124.936 48.6958 124.936 49.4852C124.936 50.1625 124.765 50.7598 124.424 51.2772C124.082 51.7945 123.592 52.1998 122.952 52.4932C122.317 52.7812 121.557 52.9252 120.672 52.9252ZM126.493 56.0452V44.6852H128.301V45.7412C128.61 45.3518 129.008 45.0398 129.493 44.8052C129.978 44.5652 130.565 44.4452 131.253 44.4452C132.026 44.4452 132.714 44.6265 133.317 44.9892C133.92 45.3518 134.392 45.8532 134.733 46.4932C135.08 47.1278 135.253 47.8585 135.253 48.6852C135.253 49.2772 135.154 49.8292 134.957 50.3412C134.76 50.8532 134.482 51.3038 134.125 51.6932C133.768 52.0772 133.341 52.3785 132.845 52.5972C132.354 52.8158 131.813 52.9252 131.221 52.9252C130.645 52.9252 130.133 52.8265 129.685 52.6292C129.242 52.4265 128.858 52.1518 128.533 51.8052V56.0452H126.493ZM130.877 51.1332C131.33 51.1332 131.733 51.0345 132.085 50.8372C132.437 50.6345 132.714 50.3518 132.917 49.9892C133.12 49.6212 133.221 49.1865 133.221 48.6852C133.221 48.1838 133.12 47.7492 132.917 47.3812C132.714 47.0132 132.434 46.7305 132.077 46.5332C131.725 46.3358 131.325 46.2372 130.877 46.2372C130.424 46.2372 130.021 46.3358 129.669 46.5332C129.317 46.7305 129.04 47.0132 128.837 47.3812C128.634 47.7492 128.533 48.1838 128.533 48.6852C128.533 49.1865 128.632 49.6212 128.829 49.9892C129.032 50.3518 129.309 50.6345 129.661 50.8372C130.018 51.0345 130.424 51.1332 130.877 51.1332ZM140.408 52.9252C139.555 52.9252 138.797 52.7332 138.136 52.3492C137.48 51.9598 136.965 51.4452 136.592 50.8052C136.219 50.1598 136.032 49.4532 136.032 48.6852C136.032 48.1198 136.139 47.5812 136.352 47.0692C136.565 46.5572 136.867 46.1065 137.256 45.7172C137.651 45.3225 138.115 45.0132 138.648 44.7892C139.181 44.5598 139.768 44.4452 140.408 44.4452C141.256 44.4452 142.008 44.6372 142.664 45.0212C143.325 45.4052 143.843 45.9198 144.216 46.5652C144.595 47.2105 144.784 47.9172 144.784 48.6852C144.784 49.2505 144.675 49.7892 144.456 50.3012C144.243 50.8078 143.941 51.2585 143.552 51.6532C143.163 52.0478 142.701 52.3598 142.168 52.5892C141.635 52.8132 141.048 52.9252 140.408 52.9252ZM140.4 51.1332C140.853 51.1332 141.256 51.0345 141.608 50.8372C141.965 50.6345 142.245 50.3518 142.448 49.9892C142.651 49.6212 142.752 49.1865 142.752 48.6852C142.752 48.1838 142.651 47.7492 142.448 47.3812C142.245 47.0132 141.968 46.7305 141.616 46.5332C141.264 46.3358 140.861 46.2372 140.408 46.2372C139.955 46.2372 139.549 46.3358 139.192 46.5332C138.84 46.7305 138.563 47.0132 138.36 47.3812C138.163 47.7492 138.064 48.1838 138.064 48.6852C138.064 49.1865 138.165 49.6212 138.368 49.9892C138.571 50.3518 138.848 50.6345 139.2 50.8372C139.552 51.0345 139.952 51.1332 140.4 51.1332ZM146.15 52.6852V44.6852H148.198V45.7332C148.475 45.2638 148.822 44.9305 149.238 44.7332C149.659 44.5358 150.112 44.4372 150.598 44.4372C150.768 44.4372 150.926 44.4452 151.07 44.4612C151.214 44.4772 151.352 44.5012 151.486 44.5332L151.23 46.6452C151.064 46.5865 150.891 46.5438 150.71 46.5172C150.534 46.4852 150.358 46.4692 150.182 46.4692C149.606 46.4692 149.131 46.6425 148.758 46.9892C148.384 47.3305 148.198 47.8105 148.198 48.4292V52.6852H146.15ZM156.074 52.9252C155.253 52.9252 154.602 52.6905 154.122 52.2212C153.642 51.7518 153.402 51.0425 153.402 50.0932V42.3652H155.45V44.6852H157.554V46.3492H155.45V49.6852C155.45 50.1972 155.551 50.5598 155.754 50.7732C155.957 50.9812 156.237 51.0852 156.594 51.0852C156.775 51.0852 156.946 51.0638 157.106 51.0212C157.271 50.9785 157.423 50.9225 157.562 50.8532L157.882 52.4852C157.647 52.6078 157.373 52.7118 157.058 52.7972C156.743 52.8825 156.415 52.9252 156.074 52.9252ZM151.714 46.3492V44.6852H153.634V46.3492H151.714ZM162.107 52.9172C161.419 52.9172 160.779 52.8238 160.187 52.6372C159.6 52.4505 159.101 52.1945 158.691 51.8692L159.403 50.4132C159.797 50.6958 160.232 50.9198 160.707 51.0852C161.181 51.2505 161.645 51.3332 162.099 51.3332C162.579 51.3332 162.952 51.2532 163.219 51.0932C163.485 50.9332 163.619 50.7092 163.619 50.4212C163.619 50.1492 163.501 49.9492 163.267 49.8212C163.032 49.6932 162.589 49.5598 161.939 49.4212C160.904 49.2185 160.152 48.9198 159.683 48.5252C159.213 48.1252 158.979 47.5758 158.979 46.8772C158.979 46.3812 159.115 45.9438 159.387 45.5652C159.664 45.1865 160.043 44.8932 160.523 44.6852C161.008 44.4718 161.565 44.3652 162.195 44.3652C162.808 44.3652 163.387 44.4505 163.931 44.6212C164.48 44.7918 164.952 45.0318 165.347 45.3412L164.667 46.8052C164.459 46.6292 164.221 46.4772 163.955 46.3492C163.688 46.2212 163.405 46.1225 163.107 46.0532C162.813 45.9838 162.523 45.9492 162.235 45.9492C161.813 45.9492 161.472 46.0238 161.211 46.1732C160.955 46.3225 160.827 46.5332 160.827 46.8052C160.827 47.0772 160.947 47.2798 161.187 47.4132C161.427 47.5412 161.861 47.6772 162.491 47.8212C163.557 48.0505 164.32 48.3545 164.779 48.7332C165.237 49.1118 165.467 49.6425 165.467 50.3252C165.467 50.8478 165.325 51.3038 165.043 51.6932C164.76 52.0772 164.365 52.3785 163.859 52.5972C163.357 52.8105 162.773 52.9172 162.107 52.9172ZM175.933 52.9252C174.77 52.9252 173.752 52.6852 172.877 52.2052C172.002 51.7252 171.322 51.0505 170.837 50.1812C170.352 49.3065 170.109 48.2798 170.109 47.1012C170.109 46.2425 170.25 45.4585 170.533 44.7492C170.821 44.0345 171.226 43.4158 171.749 42.8932C172.277 42.3652 172.896 41.9598 173.605 41.6772C174.32 41.3892 175.104 41.2452 175.957 41.2452C176.837 41.2452 177.589 41.3572 178.213 41.5812C178.837 41.7998 179.392 42.1118 179.877 42.5172L178.813 44.2212C178.472 43.8958 178.072 43.6558 177.613 43.5012C177.16 43.3412 176.656 43.2612 176.101 43.2612C175.509 43.2612 174.978 43.3492 174.509 43.5252C174.04 43.7012 173.64 43.9572 173.309 44.2932C172.978 44.6238 172.725 45.0238 172.549 45.4932C172.373 45.9625 172.285 46.4905 172.285 47.0772C172.285 47.8825 172.442 48.5705 172.757 49.1412C173.072 49.7065 173.52 50.1412 174.101 50.4452C174.682 50.7492 175.373 50.9012 176.173 50.9012C176.712 50.9012 177.237 50.8185 177.749 50.6532C178.266 50.4878 178.754 50.2238 179.213 49.8612L180.173 51.6132C179.64 52.0292 179.021 52.3518 178.317 52.5812C177.618 52.8105 176.824 52.9252 175.933 52.9252ZM185.129 52.9252C184.275 52.9252 183.518 52.7332 182.857 52.3492C182.201 51.9598 181.686 51.4452 181.313 50.8052C180.939 50.1598 180.753 49.4532 180.753 48.6852C180.753 48.1198 180.859 47.5812 181.073 47.0692C181.286 46.5572 181.587 46.1065 181.977 45.7172C182.371 45.3225 182.835 45.0132 183.369 44.7892C183.902 44.5598 184.489 44.4452 185.129 44.4452C185.977 44.4452 186.729 44.6372 187.385 45.0212C188.046 45.4052 188.563 45.9198 188.937 46.5652C189.315 47.2105 189.505 47.9172 189.505 48.6852C189.505 49.2505 189.395 49.7892 189.177 50.3012C188.963 50.8078 188.662 51.2585 188.273 51.6532C187.883 52.0478 187.422 52.3598 186.889 52.5892C186.355 52.8132 185.769 52.9252 185.129 52.9252ZM185.121 51.1332C185.574 51.1332 185.977 51.0345 186.329 50.8372C186.686 50.6345 186.966 50.3518 187.169 49.9892C187.371 49.6212 187.473 49.1865 187.473 48.6852C187.473 48.1838 187.371 47.7492 187.169 47.3812C186.966 47.0132 186.689 46.7305 186.337 46.5332C185.985 46.3358 185.582 46.2372 185.129 46.2372C184.675 46.2372 184.27 46.3358 183.913 46.5332C183.561 46.7305 183.283 47.0132 183.081 47.3812C182.883 47.7492 182.785 48.1838 182.785 48.6852C182.785 49.1865 182.886 49.6212 183.089 49.9892C183.291 50.3518 183.569 50.6345 183.921 50.8372C184.273 51.0345 184.673 51.1332 185.121 51.1332ZM193.094 52.9252C192.55 52.9252 192.068 52.8212 191.646 52.6132C191.225 52.4052 190.894 52.1118 190.654 51.7332C190.414 51.3492 190.294 50.8958 190.294 50.3732C190.294 49.9252 190.406 49.5252 190.63 49.1732C190.854 48.8212 191.198 48.5305 191.662 48.3012C192.126 48.0665 192.718 47.9092 193.438 47.8292C194.164 47.7492 195.022 47.7598 196.014 47.8612L196.046 49.2132C195.396 49.1118 194.828 49.0665 194.342 49.0772C193.857 49.0878 193.454 49.1438 193.134 49.2452C192.82 49.3465 192.582 49.4852 192.422 49.6612C192.268 49.8372 192.19 50.0425 192.19 50.2772C192.19 50.6292 192.318 50.9012 192.574 51.0932C192.83 51.2798 193.18 51.3732 193.622 51.3732C194.001 51.3732 194.34 51.3038 194.638 51.1652C194.942 51.0265 195.182 50.8318 195.358 50.5812C195.534 50.3252 195.622 50.0238 195.622 49.6772V47.6532C195.622 47.3172 195.55 47.0265 195.406 46.7812C195.268 46.5305 195.054 46.3385 194.766 46.2052C194.478 46.0665 194.108 45.9972 193.654 45.9972C193.238 45.9972 192.825 46.0612 192.414 46.1892C192.009 46.3118 191.628 46.5038 191.27 46.7652L190.718 45.3012C191.225 44.9652 191.758 44.7252 192.318 44.5812C192.878 44.4372 193.42 44.3652 193.942 44.3652C194.689 44.3652 195.334 44.4825 195.878 44.7172C196.428 44.9518 196.849 45.3118 197.142 45.7972C197.441 46.2772 197.59 46.8878 197.59 47.6292V52.6852H195.782V51.7732C195.516 52.1412 195.148 52.4265 194.678 52.6292C194.209 52.8265 193.681 52.9252 193.094 52.9252ZM203.247 52.9252C202.399 52.9252 201.644 52.7412 200.983 52.3732C200.327 51.9998 199.809 51.4958 199.431 50.8612C199.052 50.2212 198.863 49.4958 198.863 48.6852C198.863 48.0718 198.975 47.5092 199.199 46.9972C199.423 46.4798 199.737 46.0318 200.143 45.6532C200.548 45.2692 201.023 44.9732 201.567 44.7652C202.116 44.5518 202.713 44.4452 203.359 44.4452C203.919 44.4452 204.439 44.5198 204.919 44.6692C205.399 44.8185 205.839 45.0478 206.239 45.3572L205.287 46.9012C205.036 46.6772 204.751 46.5118 204.431 46.4052C204.116 46.2932 203.785 46.2372 203.439 46.2372C202.916 46.2372 202.465 46.3332 202.087 46.5252C201.713 46.7172 201.425 46.9945 201.223 47.3572C201.02 47.7198 200.919 48.1598 200.919 48.6772C200.919 49.4452 201.143 50.0478 201.591 50.4852C202.044 50.9172 202.66 51.1332 203.439 51.1332C203.828 51.1332 204.196 51.0612 204.543 50.9172C204.889 50.7732 205.191 50.5758 205.447 50.3252L206.359 51.8772C205.921 52.2025 205.433 52.4585 204.895 52.6452C204.356 52.8318 203.807 52.9252 203.247 52.9252ZM207.574 52.6852V41.1652H209.622V46.3732L209.198 45.8932C209.55 45.4185 209.971 45.0585 210.462 44.8132C210.953 44.5678 211.481 44.4452 212.046 44.4452C212.782 44.4452 213.393 44.5918 213.878 44.8852C214.369 45.1785 214.737 45.5598 214.982 46.0292C215.227 46.4985 215.35 46.9945 215.35 47.5172V52.6852H213.302V48.1012C213.302 47.5732 213.139 47.1438 212.814 46.8132C212.494 46.4825 212.054 46.3172 211.494 46.3172C211.121 46.3118 210.793 46.3892 210.51 46.5492C210.227 46.7092 210.009 46.9385 209.854 47.2372C209.699 47.5305 209.622 47.8745 209.622 48.2692V52.6852H207.574ZM221.013 52.9252C220.143 52.9252 219.381 52.7492 218.725 52.3972C218.069 52.0398 217.557 51.5438 217.189 50.9092C216.826 50.2745 216.645 49.5358 216.645 48.6932C216.645 48.0745 216.749 47.5065 216.957 46.9892C217.17 46.4718 217.469 46.0238 217.853 45.6452C218.242 45.2612 218.695 44.9652 219.213 44.7572C219.735 44.5492 220.306 44.4452 220.925 44.4452C221.597 44.4452 222.197 44.5652 222.725 44.8052C223.253 45.0398 223.69 45.3732 224.037 45.8052C224.389 46.2318 224.634 46.7332 224.773 47.3092C224.917 47.8798 224.935 48.5038 224.829 49.1812H218.573C218.567 49.6025 218.666 49.9705 218.869 50.2852C219.077 50.5998 219.37 50.8478 219.749 51.0292C220.133 51.2052 220.583 51.2932 221.101 51.2932C221.559 51.2932 221.999 51.2265 222.421 51.0932C222.842 50.9598 223.234 50.7625 223.597 50.5012L224.317 51.9332C224.066 52.1358 223.754 52.3118 223.381 52.4612C223.007 52.6105 222.613 52.7252 222.197 52.8052C221.786 52.8852 221.391 52.9252 221.013 52.9252ZM218.693 47.7252H222.845C222.829 47.1865 222.65 46.7652 222.309 46.4612C221.967 46.1518 221.49 45.9972 220.877 45.9972C220.269 45.9972 219.767 46.1518 219.373 46.4612C218.978 46.7652 218.751 47.1865 218.693 47.7252ZM229.062 52.9172C228.374 52.9172 227.734 52.8238 227.142 52.6372C226.556 52.4505 226.057 52.1945 225.646 51.8692L226.358 50.4132C226.753 50.6958 227.188 50.9198 227.662 51.0852C228.137 51.2505 228.601 51.3332 229.054 51.3332C229.534 51.3332 229.908 51.2532 230.174 51.0932C230.441 50.9332 230.574 50.7092 230.574 50.4212C230.574 50.1492 230.457 49.9492 230.222 49.8212C229.988 49.6932 229.545 49.5598 228.894 49.4212C227.86 49.2185 227.108 48.9198 226.638 48.5252C226.169 48.1252 225.934 47.5758 225.934 46.8772C225.934 46.3812 226.07 45.9438 226.342 45.5652C226.62 45.1865 226.998 44.8932 227.478 44.6852C227.964 44.4718 228.521 44.3652 229.15 44.3652C229.764 44.3652 230.342 44.4505 230.886 44.6212C231.436 44.7918 231.908 45.0318 232.302 45.3412L231.622 46.8052C231.414 46.6292 231.177 46.4772 230.91 46.3492C230.644 46.2212 230.361 46.1225 230.062 46.0532C229.769 45.9838 229.478 45.9492 229.19 45.9492C228.769 45.9492 228.428 46.0238 228.166 46.1732C227.91 46.3225 227.782 46.5332 227.782 46.8052C227.782 47.0772 227.902 47.2798 228.142 47.4132C228.382 47.5412 228.817 47.6772 229.446 47.8212C230.513 48.0505 231.276 48.3545 231.734 48.7332C232.193 49.1118 232.422 49.6425 232.422 50.3252C232.422 50.8478 232.281 51.3038 231.998 51.6932C231.716 52.0772 231.321 52.3785 230.814 52.5972C230.313 52.8105 229.729 52.9172 229.062 52.9172Z" fill="#1B1A1F"/>
<g filter="url(#filter1_f_6146_168)">
<circle cx="83.7603" cy="57.8087" r="6.04938" fill="#FDCB26" fill-opacity="0.3"/>
</g>
<rect x="58.0508" y="26.0494" width="42.3457" height="42.3457" rx="12.0988" fill="#FDCB26" fill-opacity="0.05"/>
<rect x="58.8008" y="26.7994" width="40.8457" height="40.8457" rx="11.3488" stroke="#FDCB26" stroke-opacity="0.2" stroke-width="1.5"/>
<path d="M78.615 35.0818C78.0246 35.2435 77.5237 35.6209 77.1838 36.151C76.9066 36.5823 76.8887 36.6721 76.8887 37.3819C76.8887 38.2714 77.0318 38.6398 77.5595 39.152C78.5971 40.1313 80.2071 40.0505 81.0837 38.9723C81.6382 38.2894 81.7903 37.5437 81.5398 36.6991C81.191 35.5041 79.8135 34.7404 78.615 35.0818Z" fill="#F5AF0E"/>
<path d="M75.8174 40.2217C75.6386 40.2666 74.4669 40.7877 71.9805 41.9378C71.2918 42.2523 70.6568 42.5757 70.5584 42.6656C70.1917 42.998 70.1559 43.2047 70.0575 45.9002C69.9681 48.5058 69.9681 48.6406 70.1649 49.0449C70.3974 49.5301 71.2292 49.6649 71.7569 49.3055C72.2846 48.9461 72.3204 48.7753 72.374 46.574C72.4008 45.4779 72.4545 44.5524 72.4903 44.5165C72.5976 44.4086 74.2701 43.6629 74.3149 43.7078C74.3417 43.7258 74.3506 47.3917 74.3417 51.8482L74.3327 59.9436L74.5295 60.2851C75.093 61.2914 76.5598 61.2195 77.0338 60.1683C77.1859 59.8268 77.2038 59.4944 77.2038 55.4152V51.0396H79.0283H80.8618L80.8887 53.4116C80.9155 55.6578 80.9244 55.8016 81.1033 56.0442C81.4253 56.4755 81.8367 56.7001 82.3197 56.7001C82.8653 56.7001 83.2141 56.5204 83.5093 56.0981L83.7329 55.7567V53.178C83.7329 50.0782 83.6971 49.8895 82.8385 49.0449C82.1498 48.371 81.5326 48.1644 80.1463 48.1644H79.1714V45.1634C79.1714 41.9378 79.1535 41.7671 78.6795 41.0483C78.3486 40.5541 77.6152 40.2306 76.7118 40.2037C76.3183 40.1857 75.9158 40.1947 75.8174 40.2217Z" fill="#F5AF0E"/>
<path d="M83.4107 42.5758C81.6128 43.2047 81.0672 45.5857 82.4089 46.9335C82.9903 47.5175 83.518 47.7421 84.3141 47.7511C85.8078 47.7511 86.9796 46.5831 86.9706 45.0916C86.9617 43.2227 85.1817 41.9648 83.4107 42.5758ZM85.2085 43.7708C86.0762 44.3638 86.0851 45.7654 85.2264 46.4034C84.8418 46.6819 83.8042 46.6729 83.3928 46.3854C82.8203 45.9721 82.5878 45.1185 82.874 44.4536C83.2497 43.5641 84.4035 43.2227 85.2085 43.7708Z" fill="#F5AF0E"/>
<path d="M87.0278 47.2835C86.7863 47.4722 86.7684 47.7417 86.9563 48.0742C87.314 48.6941 87.475 49.1344 87.5645 49.7274C87.7166 50.6978 87.5824 51.3087 86.9294 52.5217C86.8489 52.6745 86.8042 52.8811 86.831 52.9889C86.8937 53.2315 87.2425 53.4112 87.5287 53.3393C88.0028 53.2225 88.7452 51.3896 88.7452 50.3384C88.7452 49.359 88.2443 47.8405 87.7613 47.3554C87.5556 47.1487 87.2335 47.1218 87.0278 47.2835Z" fill="#F5AF0E"/>
<path d="M85.4954 48.4157C85.2897 48.6403 85.3076 48.811 85.5669 49.3321C85.7279 49.6466 85.7906 49.9162 85.7906 50.2756C85.7906 50.635 85.7279 50.9045 85.5669 51.219C85.2986 51.7491 85.2897 51.9468 85.5043 52.1444C86.1126 52.7015 86.8818 51.6503 86.8818 50.2756C86.8907 49.5837 86.6403 48.793 86.3272 48.4516C86.1036 48.209 85.6922 48.1911 85.4954 48.4157Z" fill="#F5AF0E"/>
<path d="M245 26V26C251.682 26 257.099 31.4168 257.099 38.0988V38.0988" stroke="#FDCB26" stroke-width="2.26852" stroke-linecap="round"/>
<defs>
<filter id="filter0_dddddd_6146_168" x="0" y="0" width="315" height="158" filterUnits="userSpaceOnUse" color-interpolation-filters="sRGB">
<feFlood flood-opacity="0" result="BackgroundImageFix"/>
<feColorMatrix in="SourceAlpha" type="matrix" values="0 0 0 0 0 0 0 0 0 0 0 0 0 0 0 0 0 0 127 0" result="hardAlpha"/>
<feMorphology radius="4" operator="erode" in="SourceAlpha" result="effect1_dropShadow_6146_168"/>
<feOffset dy="5"/>
<feGaussianBlur stdDeviation="0.75"/>
<feComposite in2="hardAlpha" operator="out"/>
<feColorMatrix type="matrix" values="0 0 0 0 0.0313726 0 0 0 0 0.0313726 0 0 0 0 0.0313726 0 0 0 0.05 0"/>
<feBlend mode="normal" in2="BackgroundImageFix" result="effect1_dropShadow_6146_168"/>
<feColorMatrix in="SourceAlpha" type="matrix" values="0 0 0 0 0 0 0 0 0 0 0 0 0 0 0 0 0 0 127 0" result="hardAlpha"/>
<feMorphology radius="4" operator="erode" in="SourceAlpha" result="effect2_dropShadow_6146_168"/>
<feOffset dy="6"/>
<feGaussianBlur stdDeviation="2"/>
<feComposite in2="hardAlpha" operator="out"/>
<feColorMatrix type="matrix" values="0 0 0 0 0.0313726 0 0 0 0 0.0313726 0 0 0 0 0.0313726 0 0 0 0.05 0"/>
<feBlend mode="normal" in2="effect1_dropShadow_6146_168" result="effect2_dropShadow_6146_168"/>
<feColorMatrix in="SourceAlpha" type="matrix" values="0 0 0 0 0 0 0 0 0 0 0 0 0 0 0 0 0 0 127 0" result="hardAlpha"/>
<feOffset dy="6"/>
<feGaussianBlur stdDeviation="6.5"/>
<feComposite in2="hardAlpha" operator="out"/>
<feColorMatrix type="matrix" values="0 0 0 0 0.0313726 0 0 0 0 0.0313726 0 0 0 0 0.0313726 0 0 0 0.03 0"/>
<feBlend mode="normal" in2="effect2_dropShadow_6146_168" result="effect3_dropShadow_6146_168"/>
<feColorMatrix in="SourceAlpha" type="matrix" values="0 0 0 0 0 0 0 0 0 0 0 0 0 0 0 0 0 0 127 0" result="hardAlpha"/>
<feMorphology radius="16" operator="erode" in="SourceAlpha" result="effect4_dropShadow_6146_168"/>
<feOffset dy="24"/>
<feGaussianBlur stdDeviation="12"/>
<feComposite in2="hardAlpha" operator="out"/>
<feColorMatrix type="matrix" values="0 0 0 0 0.0313726 0 0 0 0 0.0313726 0 0 0 0 0.0313726 0 0 0 0.04 0"/>
<feBlend mode="normal" in2="effect3_dropShadow_6146_168" result="effect4_dropShadow_6146_168"/>
<feColorMatrix in="SourceAlpha" type="matrix" values="0 0 0 0 0 0 0 0 0 0 0 0 0 0 0 0 0 0 127 0" result="hardAlpha"/>
<feMorphology radius="2" operator="erode" in="SourceAlpha" result="effect5_dropShadow_6146_168"/>
<feOffset dy="2.15"/>
<feGaussianBlur stdDeviation="0.25"/>
<feComposite in2="hardAlpha" operator="out"/>
<feColorMatrix type="matrix" values="0 0 0 0 0 0 0 0 0 0 0 0 0 0 0 0 0 0 0.25 0"/>
<feBlend mode="normal" in2="effect4_dropShadow_6146_168" result="effect5_dropShadow_6146_168"/>
<feColorMatrix in="SourceAlpha" type="matrix" values="0 0 0 0 0 0 0 0 0 0 0 0 0 0 0 0 0 0 127 0" result="hardAlpha"/>
<feMorphology radius="12" operator="erode" in="SourceAlpha" result="effect6_dropShadow_6146_168"/>
<feOffset dy="32"/>
<feGaussianBlur stdDeviation="32"/>
<feComposite in2="hardAlpha" operator="out"/>
<feColorMatrix type="matrix" values="0 0 0 0 0 0 0 0 0 0 0 0 0 0 0 0 0 0 0.075 0"/>
<feBlend mode="multiply" in2="effect5_dropShadow_6146_168" result="effect6_dropShadow_6146_168"/>
<feBlend mode="normal" in="SourceGraphic" in2="effect6_dropShadow_6146_168" result="shape"/>
</filter>
<filter id="filter1_f_6146_168" x="74.6862" y="48.7346" width="18.148" height="18.1481" filterUnits="userSpaceOnUse" color-interpolation-filters="sRGB">
<feFlood flood-opacity="0" result="BackgroundImageFix"/>
<feBlend mode="normal" in="SourceGraphic" in2="BackgroundImageFix" result="shape"/>
<feGaussianBlur stdDeviation="1.51235" result="effect1_foregroundBlur_6146_168"/>
</filter>
<linearGradient id="paint0_linear_6146_168" x1="157.5" y1="20" x2="157.5" y2="74" gradientUnits="userSpaceOnUse">
<stop stop-color="#F6F6F6"/>
<stop offset="1" stop-color="#E6E6E6"/>
</linearGradient>
</defs>
</svg>
