<svg width="288" height="96" viewBox="0 0 288 96" fill="none" xmlns="http://www.w3.org/2000/svg">
<g filter="url(#filter0_dddddd_5427_41475)">
<rect x="52" y="27.9951" width="182" height="54" rx="18.1482" transform="rotate(-2.51783 52 27.9951)" fill="#F1F1F1" fill-opacity="0.1" shape-rendering="crispEdges"/>
<rect x="53.183" y="29.0785" width="179.731" height="51.7315" rx="17.0139" transform="rotate(-2.51783 53.183 29.0785)" stroke="url(#paint0_linear_5427_41475)" stroke-opacity="0.1" stroke-width="2.26852" shape-rendering="crispEdges"/>
</g>
<path d="M122.052 57.872C121.253 57.9071 120.467 57.8269 119.695 57.6313C118.928 57.4301 118.274 57.1252 117.733 56.7166L118.671 55.0978C118.937 55.321 119.252 55.51 119.617 55.6648C119.981 55.8196 120.365 55.9362 120.769 56.0145C121.178 56.0873 121.582 56.1149 121.982 56.0973C122.648 56.068 123.183 55.9217 123.588 55.6583C123.993 55.3896 124.185 55.0208 124.164 54.552C124.148 54.1843 123.991 53.8843 123.692 53.6518C123.393 53.4141 122.853 53.2029 122.071 53.0184L120.97 52.7545C119.864 52.4935 119.055 52.1154 118.542 51.6201C118.034 51.1193 117.764 50.4906 117.73 49.734C117.708 49.2384 117.79 48.7811 117.974 48.3619C118.159 47.9427 118.428 47.5759 118.783 47.2613C119.143 46.9466 119.572 46.6981 120.071 46.516C120.57 46.3339 121.118 46.2297 121.715 46.2035C122.498 46.1691 123.231 46.2516 123.912 46.4512C124.593 46.6455 125.155 46.9277 125.599 47.2979L124.635 48.8698C124.402 48.6718 124.13 48.5023 123.82 48.3611C123.509 48.22 123.176 48.1171 122.821 48.0527C122.466 47.9829 122.11 47.9558 121.753 47.9715C121.332 47.9901 120.967 48.0648 120.658 48.1959C120.348 48.3269 120.111 48.5055 119.944 48.7317C119.778 48.9579 119.702 49.2282 119.716 49.5425C119.726 49.7717 119.793 49.9689 119.918 50.1342C120.048 50.2993 120.263 50.4474 120.562 50.5784C120.861 50.704 121.273 50.8327 121.796 50.9645L122.946 51.2503C124.031 51.5176 124.829 51.8882 125.341 52.3621C125.853 52.8308 126.126 53.4594 126.161 54.248C126.19 54.9246 126.046 55.5289 125.728 56.0607C125.41 56.5926 124.937 57.0191 124.311 57.3402C123.689 57.6558 122.936 57.8331 122.052 57.872ZM128.005 60.7332L127.506 49.3842L129.312 49.3048L129.358 50.3597C129.65 49.9572 130.034 49.628 130.508 49.3723C130.982 49.1112 131.563 48.9655 132.251 48.9353C133.023 48.9013 133.718 49.0523 134.336 49.3881C134.954 49.7239 135.448 50.2041 135.817 50.8284C136.191 51.4473 136.397 52.1696 136.433 52.9955C136.459 53.5869 136.385 54.1427 136.21 54.6629C136.035 55.1831 135.778 55.6455 135.438 56.0501C135.098 56.4495 134.685 56.7693 134.199 57.0095C133.719 57.2495 133.183 57.3825 132.591 57.4085C132.016 57.4338 131.5 57.3577 131.044 57.1803C130.592 56.9973 130.197 56.7397 129.857 56.4077L130.043 60.6436L128.005 60.7332ZM132.169 55.6334C132.622 55.6134 133.02 55.4972 133.363 55.2846C133.705 55.0666 133.97 54.7721 134.157 54.4009C134.343 54.0243 134.425 53.5856 134.403 53.0848C134.381 52.5839 134.261 52.1541 134.042 51.7954C133.823 51.4366 133.531 51.1665 133.165 50.9851C132.805 50.8034 132.401 50.7224 131.954 50.7421C131.501 50.762 131.103 50.8783 130.76 51.0909C130.417 51.3035 130.152 51.5981 129.966 51.9746C129.78 52.3512 129.697 52.7899 129.719 53.2907C129.741 53.7915 129.859 54.2215 130.072 54.5804C130.291 54.9339 130.58 55.2041 130.941 55.3911C131.307 55.5725 131.716 55.6533 132.169 55.6334ZM141.77 57.0049C140.917 57.0424 140.152 56.8839 139.474 56.5293C138.802 56.1692 138.265 55.6776 137.864 55.0546C137.463 54.4263 137.245 53.7285 137.211 52.9613C137.187 52.3965 137.27 51.8536 137.46 51.3328C137.651 50.8119 137.932 50.3484 138.304 49.9424C138.681 49.5307 139.131 49.2013 139.654 48.9541C140.177 48.7016 140.758 48.5612 141.397 48.5331C142.244 48.4959 143.004 48.6546 143.676 49.0094C144.354 49.364 144.893 49.8555 145.294 50.4838C145.701 51.1119 145.921 51.8095 145.955 52.5768C145.98 53.1416 145.894 53.6845 145.698 54.2056C145.507 54.7212 145.226 55.1846 144.855 55.596C144.483 56.0074 144.036 56.3394 143.513 56.5919C142.99 56.8391 142.409 56.9768 141.77 57.0049ZM141.683 55.215C142.136 55.1951 142.534 55.0788 142.877 54.8662C143.225 54.6481 143.492 54.3534 143.679 53.9821C143.865 53.6056 143.947 53.1669 143.925 52.666C143.903 52.1652 143.783 51.7354 143.564 51.3767C143.345 51.0179 143.056 50.7477 142.696 50.566C142.335 50.3843 141.929 50.3035 141.476 50.3234C141.023 50.3433 140.622 50.4597 140.274 50.6725C139.931 50.8851 139.666 51.1797 139.48 51.5562C139.299 51.9326 139.219 52.3711 139.242 52.872C139.264 53.3728 139.384 53.8026 139.602 54.1614C139.821 54.5148 140.11 54.785 140.471 54.972C140.831 55.1537 141.235 55.2347 141.683 55.215ZM147.495 56.5129L147.144 48.5206L149.19 48.4307L149.236 49.4777C149.492 48.9966 149.824 48.6484 150.231 48.4329C150.643 48.2173 151.092 48.0988 151.576 48.0775C151.747 48.07 151.904 48.0711 152.049 48.0807C152.194 48.0904 152.333 48.1083 152.468 48.1344L152.305 50.2556C152.137 50.2042 151.962 50.1692 151.78 50.1506C151.602 50.1263 151.426 50.1181 151.25 50.1258C150.675 50.1511 150.208 50.3451 149.85 50.7079C149.492 51.0653 149.327 51.553 149.354 52.1711L149.541 56.423L147.495 56.5129ZM157.42 56.3167C156.6 56.3528 155.939 56.1469 155.439 55.6992C154.939 55.2514 154.668 54.5533 154.626 53.6048L154.287 45.8843L156.333 45.7943L156.435 48.1121L158.537 48.0197L158.61 49.6821L156.508 49.7745L156.654 53.1073C156.677 53.6188 156.794 53.9766 157.006 54.1809C157.218 54.3798 157.502 54.4714 157.859 54.4557C158.04 54.4477 158.21 54.4189 158.367 54.3692C158.531 54.3193 158.68 54.2567 158.816 54.1814L159.207 55.7977C158.978 55.9306 158.708 56.0465 158.398 56.1456C158.087 56.2447 157.761 56.3017 157.42 56.3167ZM152.775 49.9386L152.702 48.2762L154.621 48.1919L154.694 49.8543L152.775 49.9386ZM163.447 56.0437C162.759 56.0739 162.116 56.0088 161.516 55.8483C160.922 55.6876 160.413 55.4538 159.988 55.1468L160.635 53.6609C161.042 53.926 161.486 54.1307 161.968 54.275C162.449 54.4193 162.916 54.4815 163.369 54.4616C163.849 54.4405 164.218 54.3442 164.478 54.1726C164.737 54.0011 164.86 53.7714 164.848 53.4837C164.836 53.212 164.71 53.0173 164.47 52.8997C164.23 52.7822 163.781 52.6684 163.125 52.5585C162.083 52.4014 161.318 52.1361 160.832 51.7624C160.346 51.3834 160.087 50.8449 160.056 50.147C160.035 49.6514 160.151 49.2085 160.406 48.8183C160.667 48.4278 161.032 48.1181 161.503 47.8892C161.978 47.6548 162.53 47.5237 163.159 47.4961C163.772 47.4692 164.354 47.529 164.905 47.6756C165.461 47.822 165.943 48.041 166.351 48.3327L165.736 49.8251C165.52 49.6585 165.276 49.517 165.004 49.4009C164.732 49.2847 164.446 49.1986 164.144 49.1424C163.848 49.086 163.556 49.0642 163.268 49.0768C162.848 49.0953 162.51 49.1849 162.255 49.3456C162.006 49.506 161.887 49.7221 161.899 49.9938C161.911 50.2656 162.04 50.4628 162.286 50.5854C162.531 50.7028 162.971 50.8195 163.606 50.9358C164.682 51.118 165.457 51.3882 165.932 51.7464C166.407 52.1045 166.66 52.6246 166.69 53.3066C166.713 53.8288 166.591 54.2905 166.326 54.6919C166.061 55.088 165.68 55.4063 165.183 55.6471C164.691 55.8822 164.113 56.0144 163.447 56.0437ZM177.26 55.4443C176.098 55.4954 175.07 55.3004 174.175 54.8593C173.28 54.4181 172.571 53.774 172.048 52.9268C171.525 52.0743 171.238 51.0593 171.186 49.8818C171.148 49.0239 171.255 48.2345 171.506 47.5134C171.762 46.7868 172.14 46.1509 172.639 45.6058C173.144 45.0551 173.744 44.623 174.44 44.3094C175.141 43.9903 175.918 43.812 176.771 43.7745C177.65 43.7359 178.406 43.8147 179.039 44.0111C179.672 44.2021 180.24 44.4895 180.743 44.8731L179.755 46.6222C179.4 46.3122 178.989 46.09 178.524 45.9556C178.064 45.8157 177.557 45.7579 177.003 45.7823C176.412 45.8083 175.886 45.9195 175.424 46.1159C174.963 46.3124 174.575 46.5857 174.259 46.9359C173.943 47.2808 173.708 47.6915 173.553 48.1681C173.398 48.6448 173.333 49.1761 173.359 49.7622C173.394 50.5668 173.581 51.2472 173.921 51.8035C174.26 52.3544 174.727 52.769 175.321 53.0472C175.915 53.3254 176.612 53.4469 177.411 53.4117C177.949 53.3881 178.47 53.2824 178.974 53.0947C179.484 52.9068 179.96 52.6216 180.402 52.2392L181.438 53.9473C180.924 54.3863 180.32 54.7359 179.627 54.9959C178.939 55.2557 178.15 55.4052 177.26 55.4443ZM182.736 54.9633L182.23 43.4544L184.276 43.3644L184.782 54.8733L182.736 54.9633ZM189.93 54.8872C189.211 54.9188 188.607 54.8012 188.121 54.5343C187.639 54.2672 187.273 53.8989 187.023 53.4295C186.773 52.9547 186.634 52.4189 186.608 51.8222L186.387 46.795L188.433 46.705L188.639 51.3805C188.661 51.892 188.826 52.2959 189.132 52.592C189.439 52.8828 189.858 53.0165 190.391 52.9931C190.732 52.9781 191.035 52.8874 191.3 52.7209C191.565 52.5491 191.768 52.3213 191.911 52.0374C192.053 51.7536 192.116 51.4278 192.1 51.0602L191.902 46.5525L193.948 46.4625L194.299 54.4548L192.493 54.5342L192.453 53.6231C192.175 53.9823 191.83 54.2778 191.419 54.5094C191.012 54.7355 190.516 54.8614 189.93 54.8872ZM201.099 54.396C200.577 54.419 200.102 54.3625 199.674 54.2265C199.246 54.0905 198.872 53.8934 198.551 53.6352C198.23 53.3771 197.974 53.0734 197.782 52.7241L198.05 52.2559L198.139 54.286L196.333 54.3654L195.827 42.8565L197.865 42.7669L198.1 48.1137L197.64 47.6695C197.975 47.153 198.395 46.7421 198.899 46.437C199.409 46.1263 200.007 45.9559 200.694 45.9256C201.483 45.891 202.189 46.0494 202.813 46.401C203.437 46.7473 203.934 47.2353 204.303 47.865C204.672 48.4894 204.874 49.1958 204.909 49.9844C204.936 50.5972 204.862 51.1689 204.688 51.6998C204.513 52.2253 204.256 52.685 203.916 53.079C203.575 53.473 203.165 53.7847 202.684 54.0141C202.208 54.2432 201.68 54.3705 201.099 54.396ZM200.644 52.6223C201.092 52.6026 201.487 52.4865 201.83 52.2739C202.178 52.0557 202.446 51.761 202.632 51.3898C202.819 51.0132 202.901 50.5745 202.879 50.0737C202.857 49.5728 202.736 49.143 202.518 48.7843C202.299 48.4256 202.01 48.1553 201.649 47.9737C201.289 47.792 200.882 47.7111 200.429 47.731C199.976 47.7509 199.576 47.8673 199.228 48.0802C198.885 48.2928 198.62 48.5873 198.434 48.9639C198.253 49.3402 198.173 49.7788 198.195 50.2796C198.217 50.7805 198.338 51.2103 198.556 51.569C198.775 51.9224 199.064 52.1926 199.425 52.3797C199.785 52.5613 200.192 52.6422 200.644 52.6223ZM209.264 54.029C208.576 54.0592 207.933 53.9941 207.333 53.8336C206.739 53.6729 206.23 53.4391 205.805 53.1321L206.452 51.6462C206.859 51.9113 207.303 52.116 207.785 52.2603C208.266 52.4046 208.733 52.4668 209.186 52.4469C209.666 52.4258 210.035 52.3295 210.294 52.1579C210.554 51.9864 210.677 51.7567 210.665 51.469C210.653 51.1973 210.527 51.0026 210.287 50.885C210.046 50.7675 209.598 50.6537 208.942 50.5438C207.9 50.3867 207.135 50.1214 206.649 49.7477C206.163 49.3687 205.904 48.8302 205.873 48.1323C205.852 47.6367 205.968 47.1938 206.223 46.8036C206.484 46.4131 206.849 46.1034 207.32 45.8745C207.795 45.6401 208.347 45.509 208.976 45.4814C209.589 45.4545 210.171 45.5143 210.721 45.6609C211.278 45.8073 211.76 46.0263 212.168 46.318L211.553 47.8104C211.337 47.6438 211.093 47.5023 210.821 47.3862C210.549 47.27 210.263 47.1839 209.961 47.1277C209.665 47.0713 209.373 47.0495 209.085 47.0621C208.665 47.0806 208.327 47.1702 208.072 47.3309C207.823 47.4913 207.704 47.7074 207.716 47.9791C207.728 48.2509 207.857 48.4481 208.103 48.5707C208.348 48.6881 208.788 48.8048 209.423 48.9211C210.499 49.1033 211.274 49.3735 211.749 49.7317C212.224 50.0898 212.477 50.6099 212.507 51.2919C212.53 51.8141 212.408 52.2758 212.143 52.6772C211.878 53.0733 211.497 53.3916 211 53.6324C210.508 53.8675 209.93 53.9997 209.264 54.029Z" fill="white"/>
<g clip-path="url(#clip0_5427_41475)">
<rect x="58" y="32.8604" width="42.3457" height="42.3457" rx="12.0988" transform="rotate(-2.51783 58 32.8604)" fill="#FDCB26" fill-opacity="0.05"/>
<path d="M81.9493 41.016C81.673 41.1062 81.3192 41.5543 81.2758 41.8752C81.22 42.2393 81.388 42.629 81.6923 42.8496C82.1602 43.1977 82.7326 43.1441 83.137 42.7009C83.3431 42.4862 83.3818 42.3852 83.3893 42.0658C83.4105 41.5686 83.2244 41.2577 82.7917 41.0569C82.4472 40.9019 82.3034 40.9012 81.9493 41.016Z" fill="#FDCB26"/>
<path d="M86.4071 42.3656C85.2869 42.7056 84.346 43.8531 84.0887 45.1903C83.8483 46.4205 84.1107 47.3236 85.1825 48.9852C85.4288 49.3573 85.6769 49.7718 85.7402 49.9037C85.859 50.1537 85.9011 50.6199 85.849 51.0688C85.8165 51.3114 85.7891 51.3409 85.4493 51.4551C84.3805 51.8212 83.4037 51.8288 82.5473 51.4694C81.9322 51.2058 80.9617 50.3764 80.5608 49.7559C80.2606 49.3011 79.8709 48.9354 79.5869 48.8486C79.3316 48.7606 78.7199 48.7379 76.9528 48.7447C74.8337 48.7529 73.1196 48.6582 72.7903 48.5238C72.1755 48.2672 71.3828 47.3945 70.744 46.2669C70.6115 46.0316 70.4594 45.8398 70.4092 45.842C70.2729 45.848 69.1347 46.1037 69.1 46.1336C69.0455 46.1998 69.438 47.1185 69.7884 47.7341C70.4888 48.9583 71.4734 50.1062 72.0149 50.3305C72.4542 50.5168 73.5344 50.7387 74.567 50.8563L75.5781 50.9749L75.8621 51.3878C76.7213 52.6263 77.1177 54.4524 76.8327 55.8121C76.6781 56.5421 76.3382 57.3087 75.9821 57.7072C75.6604 58.0688 75.0858 58.399 74.7416 58.4142C74.254 58.4356 73.6249 57.6904 73.1579 56.5482C72.9886 56.1302 72.9188 56.0127 72.8343 56.0519C72.7707 56.076 72.4383 56.1969 72.0913 56.3115L71.4615 56.5306L71.5242 56.8115C71.6433 57.3948 72.0011 58.3433 72.3135 58.911C72.9304 60.0325 73.702 60.587 74.8132 60.6941C75.7585 60.7872 76.6508 60.4927 77.5253 59.7948C78.1916 59.2621 79.1166 58.0798 79.4774 57.2981C79.5563 57.1316 79.6579 56.9924 79.7081 56.9902C79.83 56.9848 80.3887 57.7615 80.5498 58.1585C80.7431 58.6322 80.7852 58.9352 80.725 59.3633C80.5382 60.6691 79.3107 61.9994 77.1797 63.2063C76.8012 63.4215 76.4791 63.613 76.4651 63.6207C76.4308 63.6576 77.5606 65.1678 77.6251 65.165C77.7184 65.1609 79.0924 64.3843 79.5597 64.0659C81.3948 62.8294 82.5774 61.4585 82.9236 60.1812C83.1212 59.4493 83.1013 58.344 82.8757 57.2975C82.688 56.462 82.2759 55.2606 81.928 54.5385C81.7862 54.254 81.7494 54.0713 81.7563 53.7377L81.766 53.3048L82.1803 53.4142C83.3865 53.7227 84.2448 53.6353 85.4277 53.0869C85.5402 53.0323 85.5555 53.0529 85.5225 53.2813C85.4825 53.517 85.4984 53.5518 85.6805 53.6076C86.0743 53.7391 86.4119 53.7384 86.5285 53.6128C86.5903 53.5462 86.6221 53.4527 86.5984 53.4041C86.55 53.2857 86.8629 50.5988 86.9477 50.4036C86.987 50.3168 87.5073 49.7338 88.1047 49.1048C89.5807 47.5437 89.8965 46.8846 89.8405 45.4477C89.7944 44.4004 89.295 43.3375 88.596 42.801C88.0311 42.3721 87.0307 42.168 86.4071 42.3656ZM87.7137 43.6482C88.663 44.1594 88.9675 45.8548 88.3221 47.0248C87.9227 47.7443 87.4775 48.0759 86.8755 48.1095C85.9794 48.156 85.2961 47.3211 85.2288 46.1186C85.2011 45.4888 85.2828 45.0598 85.5079 44.6245C86.0853 43.5426 86.8744 43.1888 87.7137 43.6482Z" fill="#FDCB26"/>
<path d="M75.8722 44.5315C75.3403 44.6897 74.8493 45.1225 74.6201 45.6289C74.4371 46.0412 74.491 46.9393 74.7161 47.3193C75.4137 48.4798 77.1007 48.6112 77.9313 47.5678C78.9181 46.319 78.063 44.5202 76.459 44.4774C76.2504 44.4724 75.9926 44.4908 75.8722 44.5315Z" fill="#FDCB26"/>
<g filter="url(#filter2_f_5427_41475)">
<circle cx="95.5" cy="66.5" r="6.5" fill="#FDCB26"/>
</g>
</g>
<rect x="58.7822" y="33.5767" width="40.8457" height="40.8457" rx="11.3488" transform="rotate(-2.51783 58.7822 33.5767)" stroke="#FDCB26" stroke-width="1.5"/>
<path d="M216.104 26.7847V26.7847C222.78 26.4911 228.43 31.6647 228.723 38.3403V38.3403" stroke="#FDCB26" stroke-width="2.26852" stroke-linecap="round"/>
<defs>
<filter id="filter0_dddddd_5427_41475" x="0" y="0" width="288.196" height="165.943" filterUnits="userSpaceOnUse" color-interpolation-filters="sRGB">
<feFlood flood-opacity="0" result="BackgroundImageFix"/>
<feColorMatrix in="SourceAlpha" type="matrix" values="0 0 0 0 0 0 0 0 0 0 0 0 0 0 0 0 0 0 127 0" result="hardAlpha"/>
<feMorphology radius="4" operator="erode" in="SourceAlpha" result="effect1_dropShadow_5427_41475"/>
<feOffset dy="5"/>
<feGaussianBlur stdDeviation="0.75"/>
<feComposite in2="hardAlpha" operator="out"/>
<feColorMatrix type="matrix" values="0 0 0 0 0.0313726 0 0 0 0 0.0313726 0 0 0 0 0.0313726 0 0 0 0.05 0"/>
<feBlend mode="normal" in2="BackgroundImageFix" result="effect1_dropShadow_5427_41475"/>
<feColorMatrix in="SourceAlpha" type="matrix" values="0 0 0 0 0 0 0 0 0 0 0 0 0 0 0 0 0 0 127 0" result="hardAlpha"/>
<feMorphology radius="4" operator="erode" in="SourceAlpha" result="effect2_dropShadow_5427_41475"/>
<feOffset dy="6"/>
<feGaussianBlur stdDeviation="2"/>
<feComposite in2="hardAlpha" operator="out"/>
<feColorMatrix type="matrix" values="0 0 0 0 0.0313726 0 0 0 0 0.0313726 0 0 0 0 0.0313726 0 0 0 0.05 0"/>
<feBlend mode="normal" in2="effect1_dropShadow_5427_41475" result="effect2_dropShadow_5427_41475"/>
<feColorMatrix in="SourceAlpha" type="matrix" values="0 0 0 0 0 0 0 0 0 0 0 0 0 0 0 0 0 0 127 0" result="hardAlpha"/>
<feOffset dy="6"/>
<feGaussianBlur stdDeviation="6.5"/>
<feComposite in2="hardAlpha" operator="out"/>
<feColorMatrix type="matrix" values="0 0 0 0 0.0313726 0 0 0 0 0.0313726 0 0 0 0 0.0313726 0 0 0 0.03 0"/>
<feBlend mode="normal" in2="effect2_dropShadow_5427_41475" result="effect3_dropShadow_5427_41475"/>
<feColorMatrix in="SourceAlpha" type="matrix" values="0 0 0 0 0 0 0 0 0 0 0 0 0 0 0 0 0 0 127 0" result="hardAlpha"/>
<feMorphology radius="16" operator="erode" in="SourceAlpha" result="effect4_dropShadow_5427_41475"/>
<feOffset dy="24"/>
<feGaussianBlur stdDeviation="12"/>
<feComposite in2="hardAlpha" operator="out"/>
<feColorMatrix type="matrix" values="0 0 0 0 0.0313726 0 0 0 0 0.0313726 0 0 0 0 0.0313726 0 0 0 0.04 0"/>
<feBlend mode="normal" in2="effect3_dropShadow_5427_41475" result="effect4_dropShadow_5427_41475"/>
<feColorMatrix in="SourceAlpha" type="matrix" values="0 0 0 0 0 0 0 0 0 0 0 0 0 0 0 0 0 0 127 0" result="hardAlpha"/>
<feMorphology radius="2" operator="erode" in="SourceAlpha" result="effect5_dropShadow_5427_41475"/>
<feOffset dy="2.15"/>
<feGaussianBlur stdDeviation="0.25"/>
<feComposite in2="hardAlpha" operator="out"/>
<feColorMatrix type="matrix" values="0 0 0 0 0 0 0 0 0 0 0 0 0 0 0 0 0 0 0.25 0"/>
<feBlend mode="normal" in2="effect4_dropShadow_5427_41475" result="effect5_dropShadow_5427_41475"/>
<feColorMatrix in="SourceAlpha" type="matrix" values="0 0 0 0 0 0 0 0 0 0 0 0 0 0 0 0 0 0 127 0" result="hardAlpha"/>
<feMorphology radius="12" operator="erode" in="SourceAlpha" result="effect6_dropShadow_5427_41475"/>
<feOffset dy="32"/>
<feGaussianBlur stdDeviation="32"/>
<feComposite in2="hardAlpha" operator="out"/>
<feColorMatrix type="matrix" values="0 0 0 0 0 0 0 0 0 0 0 0 0 0 0 0 0 0 0.075 0"/>
<feBlend mode="multiply" in2="effect5_dropShadow_5427_41475" result="effect6_dropShadow_5427_41475"/>
<feBlend mode="normal" in="SourceGraphic" in2="effect6_dropShadow_5427_41475" result="shape"/>
</filter>
<filter id="filter2_f_5427_41475" x="59" y="30" width="73" height="73" filterUnits="userSpaceOnUse" color-interpolation-filters="sRGB">
<feFlood flood-opacity="0" result="BackgroundImageFix"/>
<feBlend mode="normal" in="SourceGraphic" in2="BackgroundImageFix" result="shape"/>
<feGaussianBlur stdDeviation="15" result="effect1_foregroundBlur_5427_41475"/>
</filter>
<linearGradient id="paint0_linear_5427_41475" x1="143" y1="27.9951" x2="143" y2="81.9951" gradientUnits="userSpaceOnUse">
<stop stop-color="#F6F6F6"/>
<stop offset="1" stop-color="#E6E6E6"/>
</linearGradient>
<clipPath id="clip0_5427_41475">
<rect x="58" y="32.8604" width="42.3457" height="42.3457" rx="12.0988" transform="rotate(-2.51783 58 32.8604)" fill="white"/>
</clipPath>
</defs>
</svg>
