<svg width="194" height="54" viewBox="0 0 194 54" fill="none" xmlns="http://www.w3.org/2000/svg">
<rect x="0.415527" width="192.949" height="54" rx="18.1482" fill="#F1F1F1" fill-opacity="0.1"/>
<rect x="1.54979" y="1.13426" width="190.681" height="51.7315" rx="17.0139" stroke="url(#paint0_linear_6163_272)" stroke-opacity="0.1" stroke-width="2.26852"/>
<path d="M67.4235 32.6851V23.3891H64.3275V21.4851H72.6075V23.3891H69.5115V32.6851H67.4235ZM76.683 32.9251C75.8137 32.9251 75.051 32.7491 74.395 32.3971C73.739 32.0397 73.227 31.5437 72.859 30.9091C72.4964 30.2744 72.315 29.5357 72.315 28.6931C72.315 28.0744 72.419 27.5064 72.627 26.9891C72.8404 26.4717 73.139 26.0237 73.523 25.6451C73.9124 25.2611 74.3657 24.9651 74.883 24.7571C75.4057 24.5491 75.9764 24.4451 76.595 24.4451C77.267 24.4451 77.867 24.5651 78.395 24.8051C78.923 25.0397 79.3604 25.3731 79.707 25.8051C80.059 26.2317 80.3044 26.7331 80.443 27.3091C80.587 27.8797 80.6057 28.5037 80.499 29.1811H74.243C74.2377 29.6024 74.3364 29.9704 74.539 30.2851C74.747 30.5997 75.0404 30.8477 75.419 31.0291C75.803 31.2051 76.2537 31.2931 76.771 31.2931C77.2297 31.2931 77.6697 31.2264 78.091 31.0931C78.5124 30.9597 78.9044 30.7624 79.267 30.5011L79.987 31.9331C79.7364 32.1357 79.4244 32.3117 79.051 32.4611C78.6777 32.6104 78.283 32.7251 77.867 32.8051C77.4564 32.8851 77.0617 32.9251 76.683 32.9251ZM74.363 27.7251H78.515C78.499 27.1864 78.3204 26.7651 77.979 26.4611C77.6377 26.1517 77.1604 25.9971 76.547 25.9971C75.939 25.9971 75.4377 26.1517 75.043 26.4611C74.6484 26.7651 74.4217 27.1864 74.363 27.7251ZM81.9327 32.6851V21.1651H83.9807V32.6851H81.9327ZM89.7149 32.9251C88.8456 32.9251 88.0829 32.7491 87.4269 32.3971C86.7709 32.0397 86.2589 31.5437 85.8909 30.9091C85.5283 30.2744 85.3469 29.5357 85.3469 28.6931C85.3469 28.0744 85.4509 27.5064 85.6589 26.9891C85.8723 26.4717 86.1709 26.0237 86.5549 25.6451C86.9443 25.2611 87.3976 24.9651 87.9149 24.7571C88.4376 24.5491 89.0083 24.4451 89.6269 24.4451C90.2989 24.4451 90.8989 24.5651 91.4269 24.8051C91.9549 25.0397 92.3923 25.3731 92.7389 25.8051C93.0909 26.2317 93.3363 26.7331 93.4749 27.3091C93.6189 27.8797 93.6376 28.5037 93.5309 29.1811H87.2749C87.2696 29.6024 87.3683 29.9704 87.5709 30.2851C87.7789 30.5997 88.0723 30.8477 88.4509 31.0291C88.8349 31.2051 89.2856 31.2931 89.8029 31.2931C90.2616 31.2931 90.7016 31.2264 91.1229 31.0931C91.5443 30.9597 91.9363 30.7624 92.2989 30.5011L93.0189 31.9331C92.7683 32.1357 92.4563 32.3117 92.0829 32.4611C91.7096 32.6104 91.3149 32.7251 90.8989 32.8051C90.4883 32.8851 90.0936 32.9251 89.7149 32.9251ZM87.3949 27.7251H91.5469C91.5309 27.1864 91.3523 26.7651 91.0109 26.4611C90.6696 26.1517 90.1923 25.9971 89.5789 25.9971C88.9709 25.9971 88.4696 26.1517 88.0749 26.4611C87.6803 26.7651 87.4536 27.1864 87.3949 27.7251ZM95.1965 32.6851V21.4851H97.2125L102.517 29.1971V21.4851H104.541V32.6851H102.525L97.2205 24.8771V32.6851H95.1965ZM109.92 32.9251C109.2 32.9251 108.603 32.7811 108.128 32.4931C107.659 32.2051 107.31 31.8211 107.08 31.3411C106.851 30.8557 106.736 30.3144 106.736 29.7171V24.6851H108.784V29.3651C108.784 29.8771 108.931 30.2877 109.224 30.5971C109.518 30.9011 109.931 31.0531 110.464 31.0531C110.806 31.0531 111.112 30.9757 111.384 30.8211C111.656 30.6611 111.87 30.4424 112.024 30.1651C112.179 29.8877 112.256 29.5651 112.256 29.1971V24.6851H114.304V32.6851H112.496V31.7731C112.203 32.1197 111.846 32.3997 111.424 32.6131C111.008 32.8211 110.507 32.9251 109.92 32.9251ZM119.756 32.9251C118.935 32.9251 118.284 32.6904 117.804 32.2211C117.324 31.7517 117.084 31.0424 117.084 30.0931V22.3651H119.132V24.6851H121.236V26.3491H119.132V29.6851C119.132 30.1971 119.234 30.5597 119.436 30.7731C119.639 30.9811 119.919 31.0851 120.276 31.0851C120.458 31.0851 120.628 31.0637 120.788 31.0211C120.954 30.9784 121.106 30.9224 121.244 30.8531L121.564 32.4851C121.33 32.6077 121.055 32.7117 120.74 32.7971C120.426 32.8824 120.098 32.9251 119.756 32.9251ZM115.396 26.3491V24.6851H117.316V26.3491H115.396ZM122.989 32.6851V24.6851H125.037V25.7331C125.314 25.2637 125.661 24.9304 126.077 24.7331C126.498 24.5357 126.952 24.4371 127.437 24.4371C127.608 24.4371 127.765 24.4451 127.909 24.4611C128.053 24.4771 128.192 24.5011 128.325 24.5331L128.069 26.6451C127.904 26.5864 127.73 26.5437 127.549 26.5171C127.373 26.4851 127.197 26.4691 127.021 26.4691C126.445 26.4691 125.97 26.6424 125.597 26.9891C125.224 27.3304 125.037 27.8104 125.037 28.4291V32.6851H122.989ZM129.419 32.6851V24.6851H131.467V32.6851H129.419ZM130.443 23.3411C130.091 23.3411 129.787 23.2291 129.531 23.0051C129.275 22.7811 129.147 22.4851 129.147 22.1171C129.147 21.7491 129.275 21.4531 129.531 21.2291C129.787 21.0051 130.091 20.8931 130.443 20.8931C130.795 20.8931 131.099 21.0051 131.355 21.2291C131.611 21.4531 131.739 21.7491 131.739 22.1171C131.739 22.4851 131.611 22.7811 131.355 23.0051C131.099 23.2291 130.795 23.3411 130.443 23.3411ZM136.921 32.9251C136.1 32.9251 135.449 32.6904 134.969 32.2211C134.489 31.7517 134.249 31.0424 134.249 30.0931V22.3651H136.297V24.6851H138.401V26.3491H136.297V29.6851C136.297 30.1971 136.399 30.5597 136.601 30.7731C136.804 30.9811 137.084 31.0851 137.441 31.0851C137.623 31.0851 137.793 31.0637 137.953 31.0211C138.119 30.9784 138.271 30.9224 138.409 30.8531L138.729 32.4851C138.495 32.6077 138.22 32.7117 137.905 32.7971C137.591 32.8824 137.263 32.9251 136.921 32.9251ZM132.561 26.3491V24.6851H134.481V26.3491H132.561ZM140.154 32.6851V24.6851H142.202V32.6851H140.154ZM141.178 23.3411C140.826 23.3411 140.522 23.2291 140.266 23.0051C140.01 22.7811 139.882 22.4851 139.882 22.1171C139.882 21.7491 140.01 21.4531 140.266 21.2291C140.522 21.0051 140.826 20.8931 141.178 20.8931C141.53 20.8931 141.834 21.0051 142.09 21.2291C142.346 21.4531 142.474 21.7491 142.474 22.1171C142.474 22.4851 142.346 22.7811 142.09 23.0051C141.834 23.2291 141.53 23.3411 141.178 23.3411ZM147.944 32.9251C147.091 32.9251 146.334 32.7331 145.672 32.3491C145.016 31.9597 144.502 31.4451 144.128 30.8051C143.755 30.1597 143.568 29.4531 143.568 28.6851C143.568 28.1197 143.675 27.5811 143.888 27.0691C144.102 26.5571 144.403 26.1064 144.792 25.7171C145.187 25.3224 145.651 25.0131 146.184 24.7891C146.718 24.5597 147.304 24.4451 147.944 24.4451C148.792 24.4451 149.544 24.6371 150.2 25.0211C150.862 25.4051 151.379 25.9197 151.752 26.5651C152.131 27.2104 152.32 27.9171 152.32 28.6851C152.32 29.2504 152.211 29.7891 151.992 30.3011C151.779 30.8077 151.478 31.2584 151.088 31.6531C150.699 32.0477 150.238 32.3597 149.704 32.5891C149.171 32.8131 148.584 32.9251 147.944 32.9251ZM147.936 31.1331C148.39 31.1331 148.792 31.0344 149.144 30.8371C149.502 30.6344 149.782 30.3517 149.984 29.9891C150.187 29.6211 150.288 29.1864 150.288 28.6851C150.288 28.1837 150.187 27.7491 149.984 27.3811C149.782 27.0131 149.504 26.7304 149.152 26.5331C148.8 26.3357 148.398 26.2371 147.944 26.2371C147.491 26.2371 147.086 26.3357 146.728 26.5331C146.376 26.7304 146.099 27.0131 145.896 27.3811C145.699 27.7491 145.6 28.1837 145.6 28.6851C145.6 29.1864 145.702 29.6211 145.904 29.9891C146.107 30.3517 146.384 30.6344 146.736 30.8371C147.088 31.0344 147.488 31.1331 147.936 31.1331ZM153.686 32.6851V24.6851H155.734V25.6451C156.054 25.2237 156.427 24.9197 156.854 24.7331C157.286 24.5411 157.736 24.4451 158.206 24.4451C158.942 24.4451 159.55 24.5917 160.03 24.8851C160.515 25.1784 160.875 25.5544 161.11 26.0131C161.344 26.4717 161.462 26.9517 161.462 27.4531V32.6851H159.414V28.0931C159.414 27.5491 159.256 27.1171 158.942 26.7971C158.627 26.4771 158.187 26.3171 157.622 26.3171C157.254 26.3171 156.926 26.3997 156.638 26.5651C156.355 26.7251 156.134 26.9517 155.974 27.2451C155.814 27.5384 155.734 27.8771 155.734 28.2611V32.6851H153.686Z" fill="white"/>
<g clip-path="url(#clip0_6163_272)">
<rect x="6.46729" y="6.04932" width="42.3457" height="42.3457" rx="12.0988" fill="#FF733D" fill-opacity="0.05"/>
<g filter="url(#filter1_f_6163_272)">
<circle cx="39.2907" cy="39.5904" r="7.55354" transform="rotate(-27.2544 39.2907 39.5904)" fill="#FF733D"/>
</g>
<path d="M32.5133 31.2396C32.6247 31.2738 32.4503 31.5624 32.4282 31.634C32.0773 32.8046 32.5732 34.0244 33.6892 34.5022C33.7858 34.5439 34.2051 34.6337 34.2209 34.6562C34.3154 34.7973 33.8457 34.9074 33.769 34.9213C33.3256 35.0004 32.8548 34.9982 32.4072 35.0314C29.9315 35.2174 27.4779 35.2152 25.0032 35.0046C24.5304 34.964 23.9377 34.9971 23.5237 34.747C23.0614 34.468 22.7966 33.9666 22.7577 33.416L22.762 16.9113C22.9291 15.9396 23.4146 15.5633 24.3477 15.4532C25.9964 15.2576 27.7838 15.2298 29.4399 15.2672C30.6535 15.295 32.1057 15.294 33.2931 15.4864C33.993 15.6008 34.4648 16.2155 34.5467 16.9093C34.5383 18.8774 34.5604 20.8454 34.5467 22.8124C34.5467 22.9119 34.6034 23.0081 34.5057 23.0893L33.4318 23.5736C33.4097 23.5757 33.3666 23.5458 33.3666 23.533L33.3667 18.3781C33.3667 18.3781 33.3257 18.3311 33.3141 18.3247L24.0587 18.3096L23.9399 18.3492L23.9294 31.185C23.9357 31.1978 23.9766 31.2384 23.9819 31.2384L32.5144 31.2385L32.5133 31.2396ZM27.9666 16.5041C27.7218 16.7051 27.7544 17.1765 28.058 17.2887C28.1967 17.3401 28.9376 17.3475 29.0983 17.3219C29.5743 17.246 29.5775 16.5212 29.1456 16.4228C29.0048 16.3908 28.368 16.3972 28.2073 16.4153C28.1411 16.4228 28.016 16.4624 27.9656 16.5041L27.9666 16.5041ZM26.9693 33.5529C26.9966 33.5743 27.0817 33.6234 27.1133 33.6341C27.2614 33.6854 27.8825 33.6929 28.0516 33.6705C28.1031 33.6641 28.1588 33.6395 28.1809 33.5882C28.205 33.5315 28.2093 32.7928 28.1956 32.6923C28.184 32.6047 28.1641 32.5833 28.0779 32.5726C27.894 32.548 27.4275 32.5555 27.2352 32.5726C26.7497 32.6164 26.5942 33.2525 26.9693 33.5529ZM29.0867 32.6015L29.0867 33.6031C29.0867 33.6031 29.1276 33.6502 29.1392 33.6566C29.1981 33.6844 29.9935 33.6812 30.0849 33.6577C30.149 33.6406 30.3771 33.4984 30.417 33.4471C30.6345 33.1638 30.4622 32.6624 30.1123 32.5865C29.9378 32.5491 29.4229 32.5576 29.2296 32.5737C29.1791 32.578 29.135 32.5897 29.0867 32.6015Z" fill="white"/>
<path d="M21.115 18.4634C21.1423 18.4869 21.1843 18.4891 21.2095 18.5136C21.3283 18.6291 21.6666 19.0546 21.6845 19.2064L21.6823 33.4169C21.8262 35.1092 22.8171 35.9302 24.427 36.0735C25.4368 36.1633 26.4613 36.1579 27.4711 36.2349L29.3752 36.2606C29.2806 36.4209 29.0494 36.4402 28.8971 36.5086C27.9114 36.9522 26.8848 37.4258 25.8823 37.8224C22.0574 39.3361 17.8511 36.6785 17.0945 32.6878C16.3506 28.7613 18.8599 25.4537 19.0049 21.6384C19.0438 20.6089 18.8936 19.7216 18.8463 18.7253C18.8316 18.4131 18.82 18.0593 19.15 17.9396C19.8414 17.6883 20.5885 18.0101 21.1129 18.4623L21.115 18.4634Z" fill="white"/>
<path d="M28.3181 23.1291C28.358 23.1559 28.4967 23.282 28.5346 23.3237C28.585 23.3782 28.5566 23.4627 28.7058 23.4413C28.772 23.4317 29.0011 23.173 29.082 23.1206C30.1885 22.4011 31.625 23.3943 31.3654 24.7017C31.2288 25.3934 30.1927 26.3234 29.6663 26.7916C29.4204 27.0108 29.0358 27.3668 28.772 27.5378C28.7436 27.556 28.7184 27.5774 28.6816 27.5774L28.0417 27.1358C27.2147 26.3266 25.8834 25.4853 26.02 24.1511C26.1314 23.0693 27.4438 22.5433 28.3191 23.1281L28.3181 23.1291Z" fill="white"/>
<path d="M35.6188 27.213C36.3912 27.1072 37.0847 27.6449 37.1225 28.4467C37.1877 29.8353 35.7796 29.9486 34.837 30.4511C33.285 30.8402 32.5295 28.715 33.9218 27.9442C34.1961 27.7924 35.3635 27.2483 35.6188 27.213Z" fill="white"/>
<path d="M36.2365 26.3317C36.2123 26.3531 36.2207 26.4023 36.1965 26.4247C36.1104 26.5049 35.0585 26.9945 34.9019 27.0447C33.4476 27.513 32.5828 25.5513 33.7114 24.6854C33.9205 24.525 34.9513 24.0408 35.1993 24.0087C36.3289 23.8623 37.075 25.0724 36.5034 26.057C36.4246 26.1927 36.3321 26.2473 36.2365 26.3328L36.2365 26.3317Z" fill="white"/>
<path d="M36.5284 32.7454C36.3298 32.925 35.093 33.4927 34.8177 33.5557C33.5052 33.8561 32.8621 32.0741 33.894 31.361C34.1189 31.206 35.2538 30.6908 35.5133 30.6309C36.7133 30.353 37.451 31.9127 36.5294 32.7454L36.5284 32.7454Z" fill="white"/>
<path d="M37.6354 21.5856C37.2529 22.0923 36.2914 22.3264 35.7618 22.6856L35.6357 22.6674L35.6221 19.5523L35.6841 19.3887C36.2336 19.2081 36.6224 18.9098 37.1909 19.2423C38 19.7148 38.2018 20.8341 37.6343 21.5867L37.6354 21.5856Z" fill="white"/>
</g>
<rect x="7.21729" y="6.79932" width="40.8457" height="40.8457" rx="11.3488" stroke="#FF733D" stroke-width="1.5"/>
<path d="M173.113 7.95557V7.95557C179.795 7.95557 185.212 13.3724 185.212 20.0543V20.0543" stroke="#FF733D" stroke-width="2.26852" stroke-linecap="round"/>
<defs>
<filter id="filter1_f_6163_272" x="1.73584" y="2.03516" width="75.1099" height="75.1104" filterUnits="userSpaceOnUse" color-interpolation-filters="sRGB">
<feFlood flood-opacity="0" result="BackgroundImageFix"/>
<feBlend mode="normal" in="SourceGraphic" in2="BackgroundImageFix" result="shape"/>
<feGaussianBlur stdDeviation="15" result="effect1_foregroundBlur_6163_272"/>
</filter>
<linearGradient id="paint0_linear_6163_272" x1="96.8902" y1="0" x2="96.8902" y2="54" gradientUnits="userSpaceOnUse">
<stop stop-color="#F6F6F6"/>
<stop offset="1" stop-color="#E6E6E6"/>
</linearGradient>
<clipPath id="clip0_6163_272">
<rect x="6.46729" y="6.04932" width="42.3457" height="42.3457" rx="12.0988" fill="white"/>
</clipPath>
</defs>
</svg>
