<svg width="294" height="211" viewBox="0 0 294 211" fill="none" xmlns="http://www.w3.org/2000/svg">
<g filter="url(#filter0_dddddd_5436_31413)">
<rect x="65.3799" y="15" width="192.949" height="54" rx="18.1482" transform="rotate(19.8996 65.3799 15)" fill="#F1F1F1" fill-opacity="0.1" shape-rendering="crispEdges"/>
<rect x="66.0603" y="16.4526" width="190.681" height="51.7315" rx="17.0139" transform="rotate(19.8996 66.0603 16.4526)" stroke="url(#paint0_linear_5436_31413)" stroke-opacity="0.1" stroke-width="2.26852" shape-rendering="crispEdges"/>
</g>
<path d="M117.262 68.5412L120.426 59.8002L117.515 58.7464L118.163 56.9561L125.948 59.7744L125.3 61.5647L122.389 60.5109L119.225 69.2519L117.262 68.5412ZM125.887 71.9185C125.069 71.6226 124.412 71.1975 123.915 70.6433C123.42 70.084 123.107 69.4433 122.977 68.7213C122.852 68.0011 122.933 67.2448 123.22 66.4525C123.43 65.8707 123.722 65.372 124.093 64.9564C124.47 64.5426 124.903 64.223 125.393 63.9976C125.89 63.7691 126.417 63.645 126.974 63.6256C127.537 63.6079 128.109 63.7043 128.69 63.9149C129.322 64.1436 129.845 64.4607 130.26 64.8661C130.677 65.2665 130.975 65.7287 131.154 66.2529C131.339 66.7739 131.399 67.3288 131.334 67.9177C131.275 68.5033 131.08 69.0964 130.749 69.6969L124.867 67.5676C124.718 67.9619 124.686 68.3415 124.769 68.7064C124.858 69.0731 125.049 69.4061 125.343 69.7055C125.645 70.0017 126.038 70.2378 126.525 70.4139C126.956 70.57 127.393 70.6571 127.834 70.6752C128.276 70.6932 128.711 70.6411 129.141 70.5188L129.331 72.1103C129.026 72.2156 128.673 72.2749 128.271 72.2882C127.869 72.3016 127.459 72.2751 127.041 72.2087C126.627 72.1441 126.243 72.0474 125.887 71.9185ZM125.475 66.2393L129.379 67.6526C129.547 67.1406 129.523 66.6836 129.305 66.2816C129.09 65.8746 128.694 65.5667 128.117 65.3579C127.545 65.1509 127.021 65.1257 126.545 65.2823C126.07 65.4338 125.714 65.7528 125.475 66.2393ZM130.904 73.4797L134.826 62.6475L136.751 63.3446L132.83 74.1768L130.904 73.4797ZM138.14 76.3542C137.323 76.0583 136.666 75.6332 136.169 75.079C135.674 74.5197 135.361 73.879 135.231 73.157C135.106 72.4368 135.187 71.6805 135.474 70.8882C135.684 70.3064 135.975 69.8078 136.347 69.3921C136.724 68.9783 137.157 68.6587 137.647 68.4333C138.144 68.2048 138.671 68.0808 139.228 68.0613C139.79 68.0436 140.362 68.14 140.944 68.3506C141.576 68.5793 142.099 68.8964 142.514 69.3018C142.931 69.7022 143.228 70.1644 143.407 70.6886C143.593 71.2096 143.653 71.7646 143.587 72.3534C143.529 72.939 143.334 73.5321 143.003 74.1326L137.12 72.0033C136.972 72.3976 136.94 72.7772 137.023 73.1421C137.111 73.5088 137.303 73.8418 137.597 74.1412C137.898 74.4374 138.292 74.6735 138.779 74.8496C139.21 75.0057 139.646 75.0928 140.088 75.1109C140.529 75.1289 140.965 75.0768 141.395 74.9545L141.585 76.5461C141.28 76.6513 140.927 76.7106 140.525 76.7239C140.123 76.7373 139.713 76.7108 139.295 76.6444C138.881 76.5798 138.496 76.4831 138.14 76.3542ZM137.729 70.675L141.633 72.0883C141.801 71.5763 141.777 71.1193 141.559 70.7173C141.343 70.3103 140.947 70.0024 140.371 69.7936C139.799 69.5867 139.275 69.5614 138.798 69.718C138.324 69.8695 137.967 70.1885 137.729 70.675ZM143.376 77.9944L147.189 67.4631L149.084 68.1493L151.447 77.2062L154.071 69.9546L155.975 70.6436L152.162 81.1748L150.267 80.4886L147.937 71.3415L145.28 78.6833L143.376 77.9944ZM157.139 83.2316C156.462 82.9866 155.95 82.6479 155.601 82.2155C155.258 81.7849 155.06 81.305 155.008 80.7756C154.958 80.2411 155.034 79.6931 155.237 79.1314L156.95 74.3999L158.876 75.097L157.283 79.4975C157.109 79.979 157.107 80.415 157.277 80.8057C157.45 81.1914 157.787 81.4751 158.288 81.6566C158.609 81.7728 158.924 81.8044 159.232 81.7516C159.542 81.6937 159.817 81.5607 160.057 81.3526C160.297 81.1445 160.48 80.8674 160.605 80.5214L162.141 76.2788L164.066 76.9758L161.343 84.4982L159.643 83.8828L159.954 83.0252C159.56 83.2514 159.129 83.393 158.66 83.4502C158.198 83.5042 157.691 83.4313 157.139 83.2316ZM166.388 86.5795C165.616 86.2999 165.084 85.8578 164.792 85.2531C164.5 84.6484 164.516 83.8997 164.839 83.0071L167.47 75.7405L169.395 76.4376L168.606 78.6191L170.584 79.3352L170.018 80.8999L168.039 80.1837L166.904 83.3205C166.73 83.802 166.702 84.1775 166.819 84.447C166.939 84.7116 167.167 84.9047 167.503 85.0263C167.674 85.0881 167.841 85.1261 168.006 85.1404C168.176 85.1566 168.338 85.1557 168.492 85.1377L168.238 86.7811C167.975 86.8166 167.682 86.8209 167.357 86.794C167.032 86.7672 166.709 86.6957 166.388 86.5795ZM164.526 78.9121L165.093 77.3475L166.898 78.001L166.332 79.5656L164.526 78.9121ZM169.509 87.4541L172.232 79.9318L174.158 80.6289L173.801 81.6143C174.222 81.2674 174.661 81.072 175.12 81.028C175.583 80.9859 176.043 81.0474 176.499 81.2126C176.66 81.2707 176.805 81.3318 176.935 81.3958C177.065 81.4599 177.187 81.5297 177.301 81.6051L176.342 83.5039C176.206 83.3925 176.058 83.2933 175.896 83.2065C175.742 83.1165 175.582 83.0416 175.416 82.9817C174.875 82.7856 174.369 82.7871 173.9 82.9859C173.433 83.1798 173.094 83.5676 172.884 84.1494L171.435 88.1512L169.509 87.4541ZM175.555 89.6427L178.278 82.1204L180.204 82.8175L177.481 90.3398L175.555 89.6427ZM179.699 81.2052C179.368 81.0854 179.12 80.8766 178.955 80.5789C178.791 80.2811 178.771 79.9592 178.897 79.6132C179.022 79.2672 179.243 79.0324 179.56 78.9089C179.877 78.7854 180.201 78.7836 180.532 78.9034C180.863 79.0232 181.111 79.232 181.275 79.5297C181.44 79.8275 181.459 80.1494 181.334 80.4954C181.209 80.8415 180.988 81.0762 180.671 81.1997C180.354 81.3232 180.03 81.325 179.699 81.2052ZM182.528 92.422C181.756 92.1424 181.224 91.7003 180.932 91.0956C180.641 90.4909 180.656 89.7423 180.979 88.8496L183.61 81.583L185.536 82.2801L184.746 84.4616L186.724 85.1777L186.158 86.7424L184.18 86.0262L183.044 89.1631C182.87 89.6445 182.842 90.02 182.96 90.2896C183.079 90.5541 183.307 90.7472 183.643 90.8688C183.814 90.9306 183.981 90.9686 184.146 90.9829C184.316 90.9991 184.478 90.9982 184.632 90.9802L184.378 92.6237C184.115 92.6591 183.822 92.6634 183.497 92.6366C183.172 92.6097 182.849 92.5382 182.528 92.422ZM180.667 84.7546L181.233 83.19L183.038 83.8435L182.472 85.4081L180.667 84.7546ZM185.649 93.2967L188.372 85.7743L190.298 86.4714L187.575 93.9937L185.649 93.2967ZM189.793 84.8591C189.462 84.7393 189.214 84.5305 189.049 84.2328C188.885 83.935 188.865 83.6131 188.991 83.2671C189.116 82.9211 189.337 82.6863 189.654 82.5628C189.971 82.4393 190.295 82.4375 190.626 82.5573C190.957 82.6771 191.205 82.8859 191.369 83.1837C191.534 83.4814 191.553 83.8033 191.428 84.1493C191.303 84.4954 191.082 84.7301 190.765 84.8536C190.448 84.9771 190.124 84.9789 189.793 84.8591ZM192.893 96.1739C192.09 95.8835 191.444 95.4452 190.952 94.859C190.468 94.2696 190.159 93.6105 190.026 92.8816C189.895 92.1478 189.96 91.4198 190.221 90.6976C190.414 90.166 190.697 89.6958 191.072 89.287C191.447 88.8782 191.884 88.557 192.382 88.3235C192.888 88.0867 193.429 87.9538 194.007 87.9247C194.587 87.8906 195.177 87.9824 195.779 88.2003C196.577 88.4889 197.218 88.9254 197.704 89.5098C198.196 90.0959 198.507 90.7559 198.638 91.4898C198.775 92.2255 198.712 92.9544 198.451 93.6766C198.258 94.2081 197.972 94.6774 197.592 95.0844C197.219 95.4882 196.782 95.8094 196.282 96.048C195.782 96.2866 195.242 96.4229 194.662 96.457C194.084 96.4861 193.495 96.3918 192.893 96.1739ZM193.495 94.4862C193.921 94.6405 194.334 94.6848 194.732 94.619C195.137 94.5501 195.496 94.3796 195.81 94.1076C196.126 93.8306 196.369 93.4563 196.54 92.9849C196.711 92.5135 196.763 92.0703 196.698 91.6553C196.633 91.2403 196.468 90.8801 196.204 90.5748C195.94 90.2694 195.595 90.0396 195.169 89.8853C194.743 89.731 194.328 89.6858 193.925 89.7497C193.527 89.8154 193.17 89.9868 192.854 90.2639C192.543 90.5427 192.303 90.9179 192.132 91.3893C191.961 91.8607 191.909 92.3039 191.974 92.7189C192.041 93.1289 192.206 93.4891 192.468 93.7994C192.731 94.1048 193.074 94.3337 193.495 94.4862ZM198.373 97.9026L201.096 90.3802L203.022 91.0773L202.695 91.98C203.14 91.6927 203.594 91.534 204.059 91.5037C204.53 91.4702 204.987 91.5333 205.428 91.693C206.12 91.9436 206.642 92.2884 206.993 92.7276C207.35 93.1686 207.56 93.6447 207.625 94.1559C207.689 94.667 207.636 95.1583 207.466 95.6297L205.685 100.549L203.759 99.8522L205.322 95.5344C205.507 95.0229 205.506 94.5631 205.32 94.1551C205.133 93.7471 204.773 93.4469 204.242 93.2545C203.896 93.1292 203.559 93.0953 203.232 93.1528C202.912 93.207 202.627 93.3448 202.376 93.5661C202.126 93.7875 201.935 94.0787 201.805 94.4398L200.299 98.5996L198.373 97.9026Z" fill="white"/>
<g clip-path="url(#clip0_5436_31413)">
<rect x="69.0112" y="22.748" width="42.3457" height="42.3457" rx="12.0988" transform="rotate(19.8996 69.0112 22.748)" fill="#FF733D" fill-opacity="0.05"/>
<g filter="url(#filter2_f_5436_31413)">
<circle cx="88.4583" cy="65.4585" r="7.55354" transform="rotate(-7.35473 88.4583 65.4585)" fill="#FF733D"/>
</g>
<path d="M84.9284 55.2994C85.0215 55.3694 84.7592 55.5815 84.7141 55.6413C83.9856 56.6225 84.0368 57.9383 84.9235 58.7674C85.0002 58.8396 85.3639 59.0667 85.371 59.0932C85.4119 59.2581 84.9328 59.2017 84.8559 59.1887C84.412 59.1121 83.9701 58.9499 83.5379 58.8287C81.1468 58.1609 78.8404 57.3237 76.5852 56.2834C76.1544 56.0842 75.5858 55.9137 75.2817 55.5375C74.9419 55.1178 74.8636 54.5562 75.0144 54.0253L80.6362 38.5076C81.1241 37.6507 81.7087 37.4622 82.6235 37.6762C84.2404 38.0535 85.9305 38.6357 87.475 39.2346C88.6067 39.6739 89.9726 40.1672 91.0236 40.7523C91.6427 41.098 91.8771 41.8366 91.718 42.5169C91.0402 44.3646 90.3911 46.2226 89.7087 48.0675C89.6749 48.161 89.6955 48.2708 89.5759 48.3139L88.4013 48.4037C88.3798 48.3982 88.3495 48.3554 88.3539 48.3434L90.1085 43.4963C90.1085 43.4963 90.0859 43.4382 90.0772 43.4282L81.3796 40.2638L81.2544 40.2605L76.8755 52.3263C76.8771 52.3405 76.9018 52.3926 76.9067 52.3944L84.9297 55.2987L84.9284 55.2994ZM85.6687 39.8962C85.3701 40.0018 85.2402 40.4562 85.4876 40.6651C85.6005 40.7606 86.2946 41.0197 86.4545 41.0503C86.9279 41.141 87.1776 40.4606 86.805 40.2211C86.6835 40.143 86.0825 39.9323 85.9252 39.8946C85.8604 39.8791 85.7293 39.8738 85.6677 39.8958L85.6687 39.8962ZM78.928 55.5875C78.9464 55.6169 79.0097 55.6921 79.0357 55.7129C79.1575 55.8116 79.7389 56.03 79.9057 56.0665C79.9562 56.078 80.017 56.0738 80.0552 56.0331C80.0972 55.9881 80.3526 55.2949 80.374 55.1958C80.3929 55.1094 80.3814 55.0825 80.3041 55.0431C80.1395 54.9574 79.6983 54.8056 79.5116 54.7563C79.0402 54.6322 78.6775 55.1774 78.928 55.5875ZM81.2428 55.4136L80.9018 56.3555C80.9018 56.3555 80.9243 56.4137 80.933 56.4236C80.9789 56.4698 81.7279 56.7375 81.8219 56.7465C81.888 56.7523 82.1508 56.6962 82.2058 56.6615C82.5068 56.4692 82.5154 55.9391 82.2122 55.7486C82.0609 55.6541 81.5739 55.4869 81.3866 55.4361C81.3377 55.423 81.2922 55.419 81.2428 55.4136Z" fill="white"/>
<path d="M78.5583 39.4061C78.576 39.4375 78.6148 39.4538 78.6302 39.4855C78.7025 39.6345 78.8758 40.1497 78.841 40.2985L74.002 53.6598C73.5614 55.3001 74.2136 56.4093 75.6786 57.092C76.5975 57.5201 77.5627 57.8638 78.486 58.2799L80.2677 58.9522C80.1241 59.0708 79.9002 59.0102 79.7337 59.0226C78.6559 59.1043 77.5293 59.2001 76.4517 59.2319C72.34 59.3533 69.2894 55.4226 69.9363 51.4127C70.5733 47.4674 74.0586 45.2115 75.4936 41.6733C75.8806 40.7185 76.0413 39.8331 76.336 38.8801C76.4284 38.5816 76.538 38.245 76.889 38.2447C77.6246 38.2438 78.2176 38.8007 78.5567 39.4044L78.5583 39.4061Z" fill="white"/>
<path d="M83.7436 46.2454C83.772 46.2842 83.8595 46.45 83.8809 46.5021C83.9097 46.5705 83.8543 46.6402 84.0019 46.6709C84.0674 46.6844 84.3709 46.5191 84.4648 46.4974C85.7501 46.1975 86.7627 47.6203 86.0737 48.7613C85.7098 49.3652 84.419 49.887 83.7646 50.1481C83.4588 50.2705 82.976 50.4743 82.6698 50.5454C82.6369 50.5528 82.6059 50.5643 82.5713 50.5518L82.1199 49.9188C81.6178 48.8764 80.6523 47.6321 81.2348 46.4242C81.7078 45.4448 83.1209 45.397 83.7449 46.2448L83.7436 46.2454Z" fill="white"/>
<path d="M89.2183 52.5702C89.9806 52.7336 90.4497 53.4752 90.2123 54.242C89.8009 55.5699 88.4383 55.1972 87.381 55.3488C85.7892 55.1864 85.8022 52.9309 87.3737 52.6801C87.6833 52.6307 88.9662 52.5164 89.2183 52.5702Z" fill="white"/>
<path d="M90.0989 51.9519C90.0689 51.9637 90.06 52.0128 90.0297 52.0257C89.9213 52.0718 88.7657 52.1741 88.6013 52.1681C87.0745 52.1133 86.929 49.9745 88.2849 49.5444C88.5361 49.4648 89.6703 49.3603 89.9144 49.4146C91.0264 49.6613 91.316 51.0532 90.4433 51.7844C90.323 51.8852 90.2175 51.905 90.0985 51.9529L90.0989 51.9519Z" fill="white"/>
<path d="M88.1907 58.0819C87.9429 58.1832 86.5867 58.296 86.3064 58.2616C84.97 58.0973 84.9719 56.2028 86.1849 55.8835C86.4491 55.8143 87.6916 55.7161 87.956 55.7481C89.179 55.8953 89.3417 57.6129 88.1917 58.0823L88.1907 58.0819Z" fill="white"/>
<path d="M93.0298 47.9653C92.4977 48.3115 91.5139 48.2044 90.8937 48.3619L90.7813 48.3019L91.8288 45.3681L91.9427 45.2354C92.521 45.2526 92.9881 45.1045 93.4095 45.6106C94.0094 46.3303 93.8182 47.4514 93.0284 47.9659L93.0298 47.9653Z" fill="white"/>
</g>
<rect x="69.4612" y="23.7085" width="40.8457" height="40.8457" rx="11.3488" transform="rotate(19.8996 69.4612 23.7085)" stroke="#FF733D" stroke-width="1.5"/>
<path d="M225.058 81.2622V81.2622C231.341 83.5366 234.591 90.4737 232.316 96.7567V96.7567" stroke="#FF733D" stroke-width="2.26852" stroke-linecap="round"/>
<defs>
<filter id="filter0_dddddd_5436_31413" x="-5.00049" y="-5" width="303.809" height="220.451" filterUnits="userSpaceOnUse" color-interpolation-filters="sRGB">
<feFlood flood-opacity="0" result="BackgroundImageFix"/>
<feColorMatrix in="SourceAlpha" type="matrix" values="0 0 0 0 0 0 0 0 0 0 0 0 0 0 0 0 0 0 127 0" result="hardAlpha"/>
<feMorphology radius="4" operator="erode" in="SourceAlpha" result="effect1_dropShadow_5436_31413"/>
<feOffset dy="5"/>
<feGaussianBlur stdDeviation="0.75"/>
<feComposite in2="hardAlpha" operator="out"/>
<feColorMatrix type="matrix" values="0 0 0 0 0.0313726 0 0 0 0 0.0313726 0 0 0 0 0.0313726 0 0 0 0.05 0"/>
<feBlend mode="normal" in2="BackgroundImageFix" result="effect1_dropShadow_5436_31413"/>
<feColorMatrix in="SourceAlpha" type="matrix" values="0 0 0 0 0 0 0 0 0 0 0 0 0 0 0 0 0 0 127 0" result="hardAlpha"/>
<feMorphology radius="4" operator="erode" in="SourceAlpha" result="effect2_dropShadow_5436_31413"/>
<feOffset dy="6"/>
<feGaussianBlur stdDeviation="2"/>
<feComposite in2="hardAlpha" operator="out"/>
<feColorMatrix type="matrix" values="0 0 0 0 0.0313726 0 0 0 0 0.0313726 0 0 0 0 0.0313726 0 0 0 0.05 0"/>
<feBlend mode="normal" in2="effect1_dropShadow_5436_31413" result="effect2_dropShadow_5436_31413"/>
<feColorMatrix in="SourceAlpha" type="matrix" values="0 0 0 0 0 0 0 0 0 0 0 0 0 0 0 0 0 0 127 0" result="hardAlpha"/>
<feOffset dy="6"/>
<feGaussianBlur stdDeviation="6.5"/>
<feComposite in2="hardAlpha" operator="out"/>
<feColorMatrix type="matrix" values="0 0 0 0 0.0313726 0 0 0 0 0.0313726 0 0 0 0 0.0313726 0 0 0 0.03 0"/>
<feBlend mode="normal" in2="effect2_dropShadow_5436_31413" result="effect3_dropShadow_5436_31413"/>
<feColorMatrix in="SourceAlpha" type="matrix" values="0 0 0 0 0 0 0 0 0 0 0 0 0 0 0 0 0 0 127 0" result="hardAlpha"/>
<feMorphology radius="16" operator="erode" in="SourceAlpha" result="effect4_dropShadow_5436_31413"/>
<feOffset dy="24"/>
<feGaussianBlur stdDeviation="12"/>
<feComposite in2="hardAlpha" operator="out"/>
<feColorMatrix type="matrix" values="0 0 0 0 0.0313726 0 0 0 0 0.0313726 0 0 0 0 0.0313726 0 0 0 0.04 0"/>
<feBlend mode="normal" in2="effect3_dropShadow_5436_31413" result="effect4_dropShadow_5436_31413"/>
<feColorMatrix in="SourceAlpha" type="matrix" values="0 0 0 0 0 0 0 0 0 0 0 0 0 0 0 0 0 0 127 0" result="hardAlpha"/>
<feMorphology radius="2" operator="erode" in="SourceAlpha" result="effect5_dropShadow_5436_31413"/>
<feOffset dy="2.15"/>
<feGaussianBlur stdDeviation="0.25"/>
<feComposite in2="hardAlpha" operator="out"/>
<feColorMatrix type="matrix" values="0 0 0 0 0 0 0 0 0 0 0 0 0 0 0 0 0 0 0.25 0"/>
<feBlend mode="normal" in2="effect4_dropShadow_5436_31413" result="effect5_dropShadow_5436_31413"/>
<feColorMatrix in="SourceAlpha" type="matrix" values="0 0 0 0 0 0 0 0 0 0 0 0 0 0 0 0 0 0 127 0" result="hardAlpha"/>
<feMorphology radius="12" operator="erode" in="SourceAlpha" result="effect6_dropShadow_5436_31413"/>
<feOffset dy="32"/>
<feGaussianBlur stdDeviation="32"/>
<feComposite in2="hardAlpha" operator="out"/>
<feColorMatrix type="matrix" values="0 0 0 0 0 0 0 0 0 0 0 0 0 0 0 0 0 0 0.075 0"/>
<feBlend mode="multiply" in2="effect5_dropShadow_5436_31413" result="effect6_dropShadow_5436_31413"/>
<feBlend mode="normal" in="SourceGraphic" in2="effect6_dropShadow_5436_31413" result="shape"/>
</filter>
<filter id="filter2_f_5436_31413" x="50.9038" y="27.9043" width="75.1089" height="75.1084" filterUnits="userSpaceOnUse" color-interpolation-filters="sRGB">
<feFlood flood-opacity="0" result="BackgroundImageFix"/>
<feBlend mode="normal" in="SourceGraphic" in2="BackgroundImageFix" result="shape"/>
<feGaussianBlur stdDeviation="15" result="effect1_foregroundBlur_5436_31413"/>
</filter>
<linearGradient id="paint0_linear_5436_31413" x1="161.855" y1="15" x2="161.855" y2="69" gradientUnits="userSpaceOnUse">
<stop stop-color="#F6F6F6"/>
<stop offset="1" stop-color="#E6E6E6"/>
</linearGradient>
<clipPath id="clip0_5436_31413">
<rect x="69.0112" y="22.748" width="42.3457" height="42.3457" rx="12.0988" transform="rotate(19.8996 69.0112 22.748)" fill="white"/>
</clipPath>
</defs>
</svg>
