<svg width="33" height="33" viewBox="0 0 33 33" fill="none" xmlns="http://www.w3.org/2000/svg">
<path d="M30.793 16.283C30.793 24.0144 24.5243 30.283 16.793 30.283C9.06164 30.283 2.79297 24.0155 2.79297 16.283C2.79297 8.55056 9.06164 2.28302 16.793 2.28302C24.5243 2.28302 30.793 8.55056 30.793 16.283ZM23.8124 8.06155C23.864 7.99516 24.0209 8.00464 23.9272 7.83075C23.8925 7.76751 23.2154 7.27323 23.0943 7.18892C17.8502 3.51292 10.5643 5.1412 7.2915 10.574C5.00643 14.367 5.22862 19.5659 8.02967 23.0427C8.16446 23.2092 8.32979 23.5391 8.55408 23.3673C9.37965 22.5716 10.1536 21.7127 10.9655 20.9086C11.2361 20.6398 12.0786 19.743 12.3197 19.6049C12.5482 19.4742 12.6862 19.5174 12.8915 19.6566C13.2222 19.881 13.7739 20.448 13.4233 20.8506C12.3092 22.0036 11.1045 23.0754 10.003 24.2368C9.92618 24.3179 9.59131 24.6352 9.65449 24.7342C13.7602 28.2469 19.9889 28.2195 24.0589 24.6552C28.3563 20.8917 29.3008 13.7494 25.4236 9.34942C25.3025 9.21241 25.2024 9.0617 25.0234 9.22295C23.9883 10.2231 23.0174 11.3086 21.9739 12.3056C21.5737 12.6882 21.3062 13.1677 20.7439 12.7514C20.1816 12.3351 19.931 11.9863 20.4417 11.4319C21.4684 10.3201 22.8953 9.24087 23.8124 8.06261V8.06155Z" fill="#FF733D"/>
<path d="M14.224 19.2218L14.1113 18.9878C14.4188 17.6283 14.6136 16.1602 14.9674 14.8133C14.9853 14.7448 15.0233 14.5825 15.1254 14.6068C16.0078 15.3613 16.9703 16.0264 17.8643 16.7651C18.0117 16.8874 18.3645 17.1319 18.3635 17.309L17.3905 21.6605L14.2229 19.2218H14.224Z" fill="#FF733D"/>
<path d="M18.5249 21.9229L19.4463 17.4481L23.5278 16.4205L22.5812 20.8448L18.5249 21.9229Z" fill="#FF733D"/>
<path d="M10.4859 17.5366C10.1194 16.6323 9.73821 15.726 9.39176 14.8133C9.32226 14.631 8.83576 13.3969 8.89052 13.341L13.0479 13.7383C13.1111 13.7815 13.1953 13.9934 13.2332 14.0787C13.3785 14.3981 13.9082 15.6786 13.9408 15.9526C13.964 16.1486 13.6481 17.7716 13.5523 17.8707C13.3006 17.9666 12.932 17.8401 12.6551 17.8169C12.1612 17.7758 11.6147 17.7716 11.1293 17.7115C10.9502 17.6894 10.6006 17.662 10.4869 17.5376L10.4859 17.5366Z" fill="#FF733D"/>
<path d="M15.9976 9.49851C16.0123 9.58072 15.9891 9.62077 15.9481 9.68505C15.7564 9.9812 15.1815 10.4713 14.9182 10.7611C14.3601 11.3766 13.8462 12.0395 13.2239 12.5938L9.10128 12.2355C9.07812 12.1449 9.13919 12.1301 9.18026 12.0774C9.43509 11.7465 9.94371 11.2733 10.2575 10.9455C10.8061 10.3722 11.3769 9.80941 11.9413 9.25928L15.9986 9.49957L15.9976 9.49851Z" fill="#FF733D"/>
<path d="M17.7568 15.3202C17.1134 14.8196 16.4869 14.2885 15.8403 13.7889L19.7618 12.8625L20.0177 12.9268L23.1568 15.315L19.1837 16.3446C19.1058 16.3488 19.0457 16.3141 18.9794 16.2814C18.7151 16.1486 18.0475 15.5458 17.7568 15.3192V15.3202Z" fill="#FF733D"/>
<path d="M17.84 12.5517L14.9958 13.2093C14.861 13.2736 14.6925 13.4369 14.6062 13.5571C14.5198 13.6772 14.4345 13.9586 14.4166 13.9734C14.3229 14.0514 14.3292 13.9491 14.3071 13.8996C14.2165 13.6951 14.0186 13.321 14.2071 13.1576L16.926 10.2426C17.026 10.2331 17.0429 10.3248 17.0766 10.3933C17.2714 10.7916 17.6905 11.8761 17.8031 12.2987C17.8253 12.383 17.8516 12.4631 17.84 12.5517Z" fill="#FF733D"/>
</svg>
