<svg width="278" height="55" viewBox="0 0 278 55" fill="none" xmlns="http://www.w3.org/2000/svg">
<rect x="0.251953" y="0.421387" width="276.794" height="54" rx="18.1482" fill="#F1F1F1" fill-opacity="0.1"/>
<rect x="1.38621" y="1.55565" width="274.525" height="51.7315" rx="17.0139" stroke="url(#paint0_linear_6163_176)" stroke-opacity="0.1" stroke-width="2.26852"/>
<path d="M68.3075 32.6851L64.0595 21.4851H66.4035L69.4755 29.9651L72.4515 21.4851H74.7475L70.5875 32.6851H68.3075ZM78.7827 32.9251C77.9133 32.9251 77.1507 32.7491 76.4947 32.3971C75.8387 32.0397 75.3267 31.5437 74.9587 30.9091C74.596 30.2744 74.4147 29.5357 74.4147 28.6931C74.4147 28.0744 74.5187 27.5064 74.7267 26.9891C74.94 26.4717 75.2387 26.0237 75.6227 25.6451C76.012 25.2611 76.4653 24.9651 76.9827 24.7571C77.5053 24.5491 78.076 24.4451 78.6947 24.4451C79.3667 24.4451 79.9667 24.5651 80.4947 24.8051C81.0227 25.0397 81.46 25.3731 81.8067 25.8051C82.1587 26.2317 82.404 26.7331 82.5427 27.3091C82.6867 27.8797 82.7053 28.5037 82.5987 29.1811H76.3427C76.3373 29.6024 76.436 29.9704 76.6387 30.2851C76.8467 30.5997 77.14 30.8477 77.5187 31.0291C77.9027 31.2051 78.3533 31.2931 78.8707 31.2931C79.3293 31.2931 79.7693 31.2264 80.1907 31.0931C80.612 30.9597 81.004 30.7624 81.3667 30.5011L82.0867 31.9331C81.836 32.1357 81.524 32.3117 81.1507 32.4611C80.7773 32.6104 80.3827 32.7251 79.9667 32.8051C79.556 32.8851 79.1613 32.9251 78.7827 32.9251ZM76.4627 27.7251H80.6147C80.5987 27.1864 80.42 26.7651 80.0787 26.4611C79.7373 26.1517 79.26 25.9971 78.6467 25.9971C78.0387 25.9971 77.5373 26.1517 77.1427 26.4611C76.748 26.7651 76.5213 27.1864 76.4627 27.7251ZM87.1683 36.2851C86.5709 36.2851 86.0323 36.2317 85.5523 36.1251C85.0723 36.0237 84.6616 35.8744 84.3203 35.6771C83.9843 35.4797 83.7256 35.2424 83.5443 34.9651C83.3683 34.6931 83.2803 34.3864 83.2803 34.0451C83.2803 33.7731 83.3523 33.5171 83.4963 33.2771C83.6456 33.0424 83.8616 32.8397 84.1443 32.6691C84.4323 32.4931 84.7843 32.3624 85.2003 32.2771C84.8856 32.1117 84.6536 31.9251 84.5043 31.7171C84.3549 31.5091 84.2803 31.2717 84.2803 31.0051C84.2803 30.7704 84.3469 30.5491 84.4803 30.3411C84.6189 30.1331 84.8136 29.9464 85.0643 29.7811C85.3149 29.6157 85.6109 29.4824 85.9523 29.3811C86.2936 29.2797 86.6669 29.2237 87.0723 29.2131L87.4883 30.0531C87.1683 30.0477 86.8963 30.0717 86.6723 30.1251C86.4536 30.1731 86.2883 30.2424 86.1763 30.3331C86.0643 30.4237 86.0083 30.5331 86.0083 30.6611C86.0083 30.8211 86.1016 30.9411 86.2883 31.0211C86.4803 31.1011 86.7656 31.1571 87.1443 31.1891L88.5123 31.3011C89.1789 31.3544 89.7523 31.4637 90.2323 31.6291C90.7176 31.7944 91.0883 32.0291 91.3443 32.3331C91.6056 32.6371 91.7363 33.0237 91.7363 33.4931C91.7363 33.8877 91.6269 34.2557 91.4083 34.5971C91.1896 34.9384 90.8776 35.2344 90.4723 35.4851C90.0723 35.7357 89.5923 35.9304 89.0323 36.0691C88.4723 36.2131 87.8509 36.2851 87.1683 36.2851ZM87.4163 34.9251C88.1576 34.9251 88.7416 34.8157 89.1683 34.5971C89.5949 34.3837 89.8083 34.1091 89.8083 33.7731C89.8083 33.5064 89.6696 33.3011 89.3923 33.1571C89.1149 33.0184 88.6909 32.9277 88.1203 32.8851L86.6323 32.7731C86.3123 32.7997 86.0403 32.8584 85.8163 32.9491C85.5923 33.0397 85.4216 33.1571 85.3043 33.3011C85.1869 33.4504 85.1283 33.6157 85.1283 33.7971C85.1283 34.0211 85.2189 34.2157 85.4003 34.3811C85.5869 34.5517 85.8509 34.6851 86.1923 34.7811C86.5336 34.8771 86.9416 34.9251 87.4163 34.9251ZM87.3363 30.1651C86.6536 30.1651 86.0456 30.0397 85.5123 29.7891C84.9789 29.5331 84.5576 29.1891 84.2483 28.7571C83.9443 28.3251 83.7923 27.8397 83.7923 27.3011C83.7923 26.7677 83.9469 26.2851 84.2563 25.8531C84.5656 25.4211 84.9869 25.0797 85.5203 24.8291C86.0536 24.5731 86.6589 24.4451 87.3363 24.4451C88.0083 24.4451 88.6109 24.5731 89.1443 24.8291C89.6776 25.0797 90.0989 25.4211 90.4083 25.8531C90.7176 26.2797 90.8723 26.7624 90.8723 27.3011C90.8723 27.8291 90.7176 28.3117 90.4083 28.7491C90.1043 29.1811 89.6856 29.5251 89.1523 29.7811C88.6189 30.0371 88.0136 30.1651 87.3363 30.1651ZM87.3363 28.6931C87.6723 28.6931 87.9709 28.6344 88.2323 28.5171C88.4936 28.3997 88.6989 28.2371 88.8483 28.0291C88.9976 27.8157 89.0723 27.5731 89.0723 27.3011C89.0723 26.8851 88.9096 26.5491 88.5843 26.2931C88.2589 26.0371 87.8429 25.9091 87.3363 25.9091C86.9949 25.9091 86.6936 25.9677 86.4323 26.0851C86.1709 26.2024 85.9656 26.3651 85.8163 26.5731C85.6723 26.7811 85.6003 27.0237 85.6003 27.3011C85.6003 27.7117 85.7629 28.0477 86.0883 28.3091C86.4136 28.5651 86.8296 28.6931 87.3363 28.6931ZM88.5683 26.2691L87.8003 24.8851L92.2403 24.6851L92.2323 26.3491L88.5683 26.2691ZM95.5769 32.9251C95.0329 32.9251 94.5502 32.8211 94.1289 32.6131C93.7076 32.4051 93.3769 32.1117 93.1369 31.7331C92.8969 31.3491 92.7769 30.8957 92.7769 30.3731C92.7769 29.9251 92.8889 29.5251 93.1129 29.1731C93.3369 28.8211 93.6809 28.5304 94.1449 28.3011C94.6089 28.0664 95.2009 27.9091 95.9209 27.8291C96.6462 27.7491 97.5049 27.7597 98.4969 27.8611L98.5289 29.2131C97.8782 29.1117 97.3102 29.0664 96.8249 29.0771C96.3396 29.0877 95.9369 29.1437 95.6169 29.2451C95.3022 29.3464 95.0649 29.4851 94.9049 29.6611C94.7502 29.8371 94.6729 30.0424 94.6729 30.2771C94.6729 30.6291 94.8009 30.9011 95.0569 31.0931C95.3129 31.2797 95.6622 31.3731 96.1049 31.3731C96.4836 31.3731 96.8222 31.3037 97.1209 31.1651C97.4249 31.0264 97.6649 30.8317 97.8409 30.5811C98.0169 30.3251 98.1049 30.0237 98.1049 29.6771V27.6531C98.1049 27.3171 98.0329 27.0264 97.8889 26.7811C97.7502 26.5304 97.5369 26.3384 97.2489 26.2051C96.9609 26.0664 96.5902 25.9971 96.1369 25.9971C95.7209 25.9971 95.3076 26.0611 94.8969 26.1891C94.4916 26.3117 94.1102 26.5037 93.7529 26.7651L93.2009 25.3011C93.7076 24.9651 94.2409 24.7251 94.8009 24.5811C95.3609 24.4371 95.9022 24.3651 96.4249 24.3651C97.1716 24.3651 97.8169 24.4824 98.3609 24.7171C98.9102 24.9517 99.3316 25.3117 99.6249 25.7971C99.9236 26.2771 100.073 26.8877 100.073 27.6291V32.6851H98.2649V31.7731C97.9982 32.1411 97.6302 32.4264 97.1609 32.6291C96.6916 32.8264 96.1636 32.9251 95.5769 32.9251ZM102.017 32.6851V24.6851H104.065V25.6451C104.385 25.2237 104.759 24.9197 105.185 24.7331C105.617 24.5411 106.068 24.4451 106.537 24.4451C107.273 24.4451 107.881 24.5917 108.361 24.8851C108.847 25.1784 109.207 25.5544 109.441 26.0131C109.676 26.4717 109.793 26.9517 109.793 27.4531V32.6851H107.745V28.0931C107.745 27.5491 107.588 27.1171 107.273 26.7971C106.959 26.4771 106.519 26.3171 105.953 26.3171C105.585 26.3171 105.257 26.3997 104.969 26.5651C104.687 26.7251 104.465 26.9517 104.305 27.2451C104.145 27.5384 104.065 27.8771 104.065 28.2611V32.6851H102.017ZM118.588 32.9251C117.878 32.9251 117.249 32.7837 116.7 32.5011C116.15 32.2184 115.718 31.8344 115.404 31.3491C115.089 30.8584 114.932 30.2984 114.932 29.6691C114.932 29.2157 115.033 28.7891 115.236 28.3891C115.438 27.9891 115.726 27.6291 116.1 27.3091C116.478 26.9837 116.932 26.7144 117.46 26.5011C117.15 26.1811 116.905 25.8904 116.724 25.6291C116.542 25.3624 116.412 25.1011 116.332 24.8451C116.252 24.5837 116.212 24.3064 116.212 24.0131C116.212 23.5011 116.35 23.0371 116.628 22.6211C116.91 22.1997 117.286 21.8664 117.756 21.6211C118.23 21.3704 118.756 21.2451 119.332 21.2451C119.924 21.2451 120.452 21.3597 120.916 21.5891C121.385 21.8131 121.756 22.1251 122.028 22.5251C122.3 22.9251 122.436 23.3891 122.436 23.9171C122.436 24.4984 122.236 25.0264 121.836 25.5011C121.441 25.9704 120.852 26.3997 120.068 26.7891L122.228 29.0131C122.532 28.6344 122.806 28.2077 123.052 27.7331C123.302 27.2531 123.537 26.6851 123.756 26.0291L125.388 26.6771C125.249 27.0824 125.07 27.4984 124.852 27.9251C124.633 28.3517 124.393 28.7651 124.132 29.1651C123.87 29.5597 123.601 29.9144 123.324 30.2291L125.612 32.6851H123.26L122.116 31.4851C121.62 31.9384 121.06 32.2931 120.436 32.5491C119.817 32.7997 119.201 32.9251 118.588 32.9251ZM118.732 31.2291C119.148 31.2291 119.548 31.1464 119.932 30.9811C120.321 30.8157 120.678 30.5731 121.004 30.2531L118.516 27.6611C117.982 27.8531 117.569 28.1197 117.276 28.4611C116.982 28.8024 116.836 29.1837 116.836 29.6051C116.836 30.0957 117.006 30.4904 117.348 30.7891C117.694 31.0824 118.156 31.2291 118.732 31.2291ZM119.044 25.7731C119.593 25.5704 120.004 25.3224 120.276 25.0291C120.553 24.7357 120.692 24.4104 120.692 24.0531C120.692 23.6797 120.566 23.3757 120.316 23.1411C120.07 22.9064 119.748 22.7891 119.348 22.7891C118.958 22.7891 118.633 22.9037 118.372 23.1331C118.116 23.3624 117.988 23.6584 117.988 24.0211C117.988 24.3037 118.068 24.5784 118.228 24.8451C118.393 25.1117 118.665 25.4211 119.044 25.7731ZM130.797 32.6851V21.4851H132.877V26.9011L137.229 21.4851H139.805L135.693 26.5811L140.397 32.6851H137.717L134.325 28.1651L132.877 29.8611V32.6851H130.797ZM144.77 32.9251C143.9 32.9251 143.138 32.7491 142.482 32.3971C141.826 32.0397 141.314 31.5437 140.946 30.9091C140.583 30.2744 140.402 29.5357 140.402 28.6931C140.402 28.0744 140.506 27.5064 140.714 26.9891C140.927 26.4717 141.226 26.0237 141.61 25.6451C141.999 25.2611 142.452 24.9651 142.97 24.7571C143.492 24.5491 144.063 24.4451 144.682 24.4451C145.354 24.4451 145.954 24.5651 146.482 24.8051C147.01 25.0397 147.447 25.3731 147.794 25.8051C148.146 26.2317 148.391 26.7331 148.53 27.3091C148.674 27.8797 148.692 28.5037 148.586 29.1811H142.33C142.324 29.6024 142.423 29.9704 142.626 30.2851C142.834 30.5997 143.127 30.8477 143.506 31.0291C143.89 31.2051 144.34 31.2931 144.858 31.2931C145.316 31.2931 145.756 31.2264 146.178 31.0931C146.599 30.9597 146.991 30.7624 147.354 30.5011L148.074 31.9331C147.823 32.1357 147.511 32.3117 147.138 32.4611C146.764 32.6104 146.37 32.7251 145.954 32.8051C145.543 32.8851 145.148 32.9251 144.77 32.9251ZM142.45 27.7251H146.602C146.586 27.1864 146.407 26.7651 146.066 26.4611C145.724 26.1517 145.247 25.9971 144.634 25.9971C144.026 25.9971 143.524 26.1517 143.13 26.4611C142.735 26.7651 142.508 27.1864 142.45 27.7251ZM153.357 32.9251C152.536 32.9251 151.885 32.6904 151.405 32.2211C150.925 31.7517 150.685 31.0424 150.685 30.0931V22.3651H152.733V24.6851H154.837V26.3491H152.733V29.6851C152.733 30.1971 152.834 30.5597 153.037 30.7731C153.24 30.9811 153.52 31.0851 153.877 31.0851C154.058 31.0851 154.229 31.0637 154.389 31.0211C154.554 30.9784 154.706 30.9224 154.845 30.8531L155.165 32.4851C154.93 32.6077 154.656 32.7117 154.341 32.7971C154.026 32.8824 153.698 32.9251 153.357 32.9251ZM148.997 26.3491V24.6851H150.917V26.3491H148.997ZM160.263 32.9251C159.409 32.9251 158.652 32.7331 157.991 32.3491C157.335 31.9597 156.82 31.4451 156.447 30.8051C156.073 30.1597 155.887 29.4531 155.887 28.6851C155.887 28.1197 155.993 27.5811 156.207 27.0691C156.42 26.5571 156.721 26.1064 157.111 25.7171C157.505 25.3224 157.969 25.0131 158.503 24.7891C159.036 24.5597 159.623 24.4451 160.263 24.4451C161.111 24.4451 161.863 24.6371 162.519 25.0211C163.18 25.4051 163.697 25.9197 164.071 26.5651C164.449 27.2104 164.639 27.9171 164.639 28.6851C164.639 29.2504 164.529 29.7891 164.311 30.3011C164.097 30.8077 163.796 31.2584 163.407 31.6531C163.017 32.0477 162.556 32.3597 162.023 32.5891C161.489 32.8131 160.903 32.9251 160.263 32.9251ZM160.255 31.1331C160.708 31.1331 161.111 31.0344 161.463 30.8371C161.82 30.6344 162.1 30.3517 162.303 29.9891C162.505 29.6211 162.607 29.1864 162.607 28.6851C162.607 28.1837 162.505 27.7491 162.303 27.3811C162.1 27.0131 161.823 26.7304 161.471 26.5331C161.119 26.3357 160.716 26.2371 160.263 26.2371C159.809 26.2371 159.404 26.3357 159.047 26.5331C158.695 26.7304 158.417 27.0131 158.215 27.3811C158.017 27.7491 157.919 28.1837 157.919 28.6851C157.919 29.1864 158.02 29.6211 158.223 29.9891C158.425 30.3517 158.703 30.6344 159.055 30.8371C159.407 31.0344 159.807 31.1331 160.255 31.1331ZM169.76 32.6851V21.4851H176.832V23.3891H171.84V26.3091H176.344V28.1491H171.84V32.6851H169.76ZM181.881 32.9251C181.027 32.9251 180.27 32.7331 179.609 32.3491C178.953 31.9597 178.438 31.4451 178.065 30.8051C177.691 30.1597 177.505 29.4531 177.505 28.6851C177.505 28.1197 177.611 27.5811 177.825 27.0691C178.038 26.5571 178.339 26.1064 178.729 25.7171C179.123 25.3224 179.587 25.0131 180.121 24.7891C180.654 24.5597 181.241 24.4451 181.881 24.4451C182.729 24.4451 183.481 24.6371 184.137 25.0211C184.798 25.4051 185.315 25.9197 185.689 26.5651C186.067 27.2104 186.257 27.9171 186.257 28.6851C186.257 29.2504 186.147 29.7891 185.929 30.3011C185.715 30.8077 185.414 31.2584 185.025 31.6531C184.635 32.0477 184.174 32.3597 183.641 32.5891C183.107 32.8131 182.521 32.9251 181.881 32.9251ZM181.873 31.1331C182.326 31.1331 182.729 31.0344 183.081 30.8371C183.438 30.6344 183.718 30.3517 183.921 29.9891C184.123 29.6211 184.225 29.1864 184.225 28.6851C184.225 28.1837 184.123 27.7491 183.921 27.3811C183.718 27.0131 183.441 26.7304 183.089 26.5331C182.737 26.3357 182.334 26.2371 181.881 26.2371C181.427 26.2371 181.022 26.3357 180.665 26.5331C180.313 26.7304 180.035 27.0131 179.833 27.3811C179.635 27.7491 179.537 28.1837 179.537 28.6851C179.537 29.1864 179.638 29.6211 179.841 29.9891C180.043 30.3517 180.321 30.6344 180.673 30.8371C181.025 31.0344 181.425 31.1331 181.873 31.1331ZM191.404 32.9251C190.551 32.9251 189.794 32.7331 189.132 32.3491C188.476 31.9597 187.962 31.4451 187.588 30.8051C187.215 30.1597 187.028 29.4531 187.028 28.6851C187.028 28.1197 187.135 27.5811 187.348 27.0691C187.562 26.5571 187.863 26.1064 188.252 25.7171C188.647 25.3224 189.111 25.0131 189.644 24.7891C190.178 24.5597 190.764 24.4451 191.404 24.4451C192.252 24.4451 193.004 24.6371 193.66 25.0211C194.322 25.4051 194.839 25.9197 195.212 26.5651C195.591 27.2104 195.78 27.9171 195.78 28.6851C195.78 29.2504 195.671 29.7891 195.452 30.3011C195.239 30.8077 194.938 31.2584 194.548 31.6531C194.159 32.0477 193.698 32.3597 193.164 32.5891C192.631 32.8131 192.044 32.9251 191.404 32.9251ZM191.396 31.1331C191.85 31.1331 192.252 31.0344 192.604 30.8371C192.962 30.6344 193.242 30.3517 193.444 29.9891C193.647 29.6211 193.748 29.1864 193.748 28.6851C193.748 28.1837 193.647 27.7491 193.444 27.3811C193.242 27.0131 192.964 26.7304 192.612 26.5331C192.26 26.3357 191.858 26.2371 191.404 26.2371C190.951 26.2371 190.546 26.3357 190.188 26.5331C189.836 26.7304 189.559 27.0131 189.356 27.3811C189.159 27.7491 189.06 28.1837 189.06 28.6851C189.06 29.1864 189.162 29.6211 189.364 29.9891C189.567 30.3517 189.844 30.6344 190.196 30.8371C190.548 31.0344 190.948 31.1331 191.396 31.1331ZM200.552 32.9251C199.773 32.9251 199.083 32.7437 198.48 32.3811C197.877 32.0184 197.405 31.5171 197.064 30.8771C196.723 30.2371 196.552 29.5064 196.552 28.6851C196.552 28.0931 196.648 27.5411 196.84 27.0291C197.037 26.5117 197.315 26.0611 197.672 25.6771C198.035 25.2877 198.461 24.9864 198.952 24.7731C199.443 24.5544 199.987 24.4451 200.584 24.4451C201.272 24.4451 201.875 24.5837 202.392 24.8611C202.909 25.1331 203.349 25.5197 203.712 26.0211L203.264 26.4851V21.1651H205.312V32.6851H203.504V30.7091L203.792 31.1731C203.52 31.6797 203.115 32.0984 202.576 32.4291C202.037 32.7597 201.363 32.9251 200.552 32.9251ZM200.928 31.1331C201.376 31.1331 201.776 31.0344 202.128 30.8371C202.485 30.6344 202.765 30.3517 202.968 29.9891C203.171 29.6211 203.272 29.1864 203.272 28.6851C203.272 28.1837 203.171 27.7491 202.968 27.3811C202.765 27.0131 202.488 26.7304 202.136 26.5331C201.784 26.3357 201.381 26.2371 200.928 26.2371C200.475 26.2371 200.069 26.3357 199.712 26.5331C199.36 26.7304 199.083 27.0131 198.88 27.3811C198.683 27.7491 198.584 28.1837 198.584 28.6851C198.584 29.1864 198.685 29.6211 198.888 29.9891C199.091 30.3517 199.368 30.6344 199.72 30.8371C200.072 31.0344 200.475 31.1331 200.928 31.1331ZM214.849 32.9251C214.049 32.9251 213.268 32.8104 212.505 32.5811C211.748 32.3464 211.108 32.0131 210.585 31.5811L211.593 30.0051C211.849 30.2397 212.156 30.4424 212.513 30.6131C212.87 30.7837 213.249 30.9171 213.649 31.0131C214.054 31.1037 214.457 31.1491 214.857 31.1491C215.524 31.1491 216.065 31.0264 216.481 30.7811C216.897 30.5304 217.105 30.1704 217.105 29.7011C217.105 29.3331 216.961 29.0264 216.673 28.7811C216.385 28.5304 215.854 28.2957 215.081 28.0771L213.993 27.7651C212.9 27.4557 212.108 27.0424 211.617 26.5251C211.132 26.0024 210.889 25.3624 210.889 24.6051C210.889 24.1091 210.99 23.6557 211.193 23.2451C211.396 22.8344 211.681 22.4797 212.049 22.1811C212.422 21.8824 212.862 21.6531 213.369 21.4931C213.876 21.3331 214.428 21.2531 215.025 21.2531C215.809 21.2531 216.537 21.3677 217.209 21.5971C217.881 21.8211 218.43 22.1277 218.857 22.5171L217.825 24.0451C217.601 23.8371 217.337 23.6557 217.033 23.5011C216.729 23.3464 216.401 23.2291 216.049 23.1491C215.697 23.0637 215.342 23.0211 214.985 23.0211C214.564 23.0211 214.196 23.0797 213.881 23.1971C213.566 23.3144 213.321 23.4824 213.145 23.7011C212.969 23.9197 212.881 24.1864 212.881 24.5011C212.881 24.7304 212.94 24.9304 213.057 25.1011C213.18 25.2717 213.388 25.4291 213.681 25.5731C213.974 25.7117 214.38 25.8584 214.897 26.0131L216.033 26.3491C217.105 26.6637 217.886 27.0691 218.377 27.5651C218.868 28.0557 219.113 28.6957 219.113 29.4851C219.113 30.1624 218.942 30.7597 218.601 31.2771C218.26 31.7944 217.769 32.1997 217.129 32.4931C216.494 32.7811 215.734 32.9251 214.849 32.9251ZM224.086 32.9251C223.265 32.9251 222.614 32.6904 222.134 32.2211C221.654 31.7517 221.414 31.0424 221.414 30.0931V22.3651H223.462V24.6851H225.566V26.3491H223.462V29.6851C223.462 30.1971 223.564 30.5597 223.766 30.7731C223.969 30.9811 224.249 31.0851 224.606 31.0851C224.788 31.0851 224.958 31.0637 225.118 31.0211C225.284 30.9784 225.436 30.9224 225.574 30.8531L225.894 32.4851C225.66 32.6077 225.385 32.7117 225.07 32.7971C224.756 32.8824 224.428 32.9251 224.086 32.9251ZM219.726 26.3491V24.6851H221.646V26.3491H219.726ZM230.992 32.9251C230.139 32.9251 229.381 32.7331 228.72 32.3491C228.064 31.9597 227.549 31.4451 227.176 30.8051C226.803 30.1597 226.616 29.4531 226.616 28.6851C226.616 28.1197 226.723 27.5811 226.936 27.0691C227.149 26.5571 227.451 26.1064 227.84 25.7171C228.235 25.3224 228.699 25.0131 229.232 24.7891C229.765 24.5597 230.352 24.4451 230.992 24.4451C231.84 24.4451 232.592 24.6371 233.248 25.0211C233.909 25.4051 234.427 25.9197 234.8 26.5651C235.179 27.2104 235.368 27.9171 235.368 28.6851C235.368 29.2504 235.259 29.7891 235.04 30.3011C234.827 30.8077 234.525 31.2584 234.136 31.6531C233.747 32.0477 233.285 32.3597 232.752 32.5891C232.219 32.8131 231.632 32.9251 230.992 32.9251ZM230.984 31.1331C231.437 31.1331 231.84 31.0344 232.192 30.8371C232.549 30.6344 232.829 30.3517 233.032 29.9891C233.235 29.6211 233.336 29.1864 233.336 28.6851C233.336 28.1837 233.235 27.7491 233.032 27.3811C232.829 27.0131 232.552 26.7304 232.2 26.5331C231.848 26.3357 231.445 26.2371 230.992 26.2371C230.539 26.2371 230.133 26.3357 229.776 26.5331C229.424 26.7304 229.147 27.0131 228.944 27.3811C228.747 27.7491 228.648 28.1837 228.648 28.6851C228.648 29.1864 228.749 29.6211 228.952 29.9891C229.155 30.3517 229.432 30.6344 229.784 30.8371C230.136 31.0344 230.536 31.1331 230.984 31.1331ZM236.734 32.6851V24.6851H238.782V25.7331C239.059 25.2637 239.406 24.9304 239.822 24.7331C240.243 24.5357 240.696 24.4371 241.182 24.4371C241.352 24.4371 241.51 24.4451 241.654 24.4611C241.798 24.4771 241.936 24.5011 242.07 24.5331L241.814 26.6451C241.648 26.5864 241.475 26.5437 241.294 26.5171C241.118 26.4851 240.942 26.4691 240.766 26.4691C240.19 26.4691 239.715 26.6424 239.342 26.9891C238.968 27.3304 238.782 27.8104 238.782 28.4291V32.6851H236.734ZM246.703 32.9251C245.834 32.9251 245.071 32.7491 244.415 32.3971C243.759 32.0397 243.247 31.5437 242.879 30.9091C242.517 30.2744 242.335 29.5357 242.335 28.6931C242.335 28.0744 242.439 27.5064 242.647 26.9891C242.861 26.4717 243.159 26.0237 243.543 25.6451C243.933 25.2611 244.386 24.9651 244.903 24.7571C245.426 24.5491 245.997 24.4451 246.615 24.4451C247.287 24.4451 247.887 24.5651 248.415 24.8051C248.943 25.0397 249.381 25.3731 249.727 25.8051C250.079 26.2317 250.325 26.7331 250.463 27.3091C250.607 27.8797 250.626 28.5037 250.519 29.1811H244.263C244.258 29.6024 244.357 29.9704 244.559 30.2851C244.767 30.5997 245.061 30.8477 245.439 31.0291C245.823 31.2051 246.274 31.2931 246.791 31.2931C247.25 31.2931 247.69 31.2264 248.111 31.0931C248.533 30.9597 248.925 30.7624 249.287 30.5011L250.007 31.9331C249.757 32.1357 249.445 32.3117 249.071 32.4611C248.698 32.6104 248.303 32.7251 247.887 32.8051C247.477 32.8851 247.082 32.9251 246.703 32.9251ZM244.383 27.7251H248.535C248.519 27.1864 248.341 26.7651 247.999 26.4611C247.658 26.1517 247.181 25.9971 246.567 25.9971C245.959 25.9971 245.458 26.1517 245.063 26.4611C244.669 26.7651 244.442 27.1864 244.383 27.7251ZM254.753 32.9171C254.065 32.9171 253.425 32.8237 252.833 32.6371C252.246 32.4504 251.748 32.1944 251.337 31.8691L252.049 30.4131C252.444 30.6957 252.878 30.9197 253.353 31.0851C253.828 31.2504 254.292 31.3331 254.745 31.3331C255.225 31.3331 255.598 31.2531 255.865 31.0931C256.132 30.9331 256.265 30.7091 256.265 30.4211C256.265 30.1491 256.148 29.9491 255.913 29.8211C255.678 29.6931 255.236 29.5597 254.585 29.4211C253.55 29.2184 252.798 28.9197 252.329 28.5251C251.86 28.1251 251.625 27.5757 251.625 26.8771C251.625 26.3811 251.761 25.9437 252.033 25.5651C252.31 25.1864 252.689 24.8931 253.169 24.6851C253.654 24.4717 254.212 24.3651 254.841 24.3651C255.454 24.3651 256.033 24.4504 256.577 24.6211C257.126 24.7917 257.598 25.0317 257.993 25.3411L257.313 26.8051C257.105 26.6291 256.868 26.4771 256.601 26.3491C256.334 26.2211 256.052 26.1224 255.753 26.0531C255.46 25.9837 255.169 25.9491 254.881 25.9491C254.46 25.9491 254.118 26.0237 253.857 26.1731C253.601 26.3224 253.473 26.5331 253.473 26.8051C253.473 27.0771 253.593 27.2797 253.833 27.4131C254.073 27.5411 254.508 27.6771 255.137 27.8211C256.204 28.0504 256.966 28.3544 257.425 28.7331C257.884 29.1117 258.113 29.6424 258.113 30.3251C258.113 30.8477 257.972 31.3037 257.689 31.6931C257.406 32.0771 257.012 32.3784 256.505 32.5971C256.004 32.8104 255.42 32.9171 254.753 32.9171Z" fill="white"/>
<g clip-path="url(#clip0_6163_176)">
<rect x="9.50195" y="6.70557" width="42.3457" height="42.3457" rx="12.0988" fill="#1DD673" fill-opacity="0.05"/>
<path d="M39.7635 25.1749C39.8225 25.3322 39.671 25.445 39.6098 25.5681C38.6088 27.5447 38.1855 29.8239 36.7665 31.5748C34.9996 33.7571 31.647 35.2249 28.8033 34.942C28.6781 34.9295 28.5378 34.9094 28.4304 34.8438L28.4313 34.8015C28.6697 33.8723 29.0227 32.9951 29.4981 32.1622C30.7722 29.9275 32.8237 28.0893 35.1586 27.0104C35.4087 26.8956 35.6269 26.8428 35.8755 26.7003C35.9299 26.6696 36.0326 26.6883 36.0305 26.5968C36.0056 26.5651 35.422 26.6982 35.3274 26.7209C32.9475 27.3154 30.5648 28.773 29.0067 30.6525C28.2731 31.5363 27.6725 32.58 27.3653 33.6847C27.2968 33.7542 27.2538 33.5397 27.2477 33.5013C26.849 31.2074 27.8429 28.8565 29.5778 27.3613C31.8856 25.3719 35.0866 24.8493 38.0857 24.9813L39.7643 25.1776L39.7635 25.1749Z" fill="white"/>
<path d="M39.1498 19.7854C42.4116 23.5697 42.9165 28.8929 40.3103 33.2127C37.9829 37.0707 33.4683 39.236 28.9474 38.6598C28.7691 38.7369 28.8737 38.797 28.8878 38.9143C28.9108 39.0979 28.9171 39.2836 28.9377 39.4668C28.961 39.6792 29.1528 40.3169 28.6854 40.1515C28.5664 40.1101 28.5712 40.0298 28.5294 39.994C27.7198 39.3051 26.9638 38.5304 26.1632 37.8105C26.0698 37.6699 26.101 37.5604 26.2015 37.4364C26.5697 37.2867 26.9455 37.1371 27.3095 36.9755C27.9601 36.6853 28.6143 36.3358 29.2785 36.0842C29.4765 36.0092 29.67 36.1169 29.626 36.339C29.5775 36.5879 29.0645 37.2858 29.0915 37.4613C29.104 37.5433 29.4935 37.5882 29.5842 37.5961C33.3282 37.9294 37.208 35.9695 39.1931 32.8509C42.2916 27.9844 40.8544 21.8118 36.1285 18.6102C35.8707 18.4354 35.2865 18.194 35.1871 17.9101C35.0418 17.4961 35.36 17.0771 35.7976 17.1351C35.979 17.1584 36.6451 17.5859 36.838 17.7122C37.7227 18.2929 38.4668 18.9894 39.1524 19.7846L39.1498 19.7854Z" fill="white"/>
<path d="M32.9861 17.7021C32.4692 17.9326 31.9409 18.1861 31.4162 18.4178C31.2274 18.4682 31.0241 18.3812 31.0689 18.1617C31.0823 18.0979 31.2811 17.7135 31.3284 17.6205C31.4099 17.4596 31.5227 17.2778 31.6195 17.1233C31.6619 17.007 31.5954 16.9532 31.4841 16.9331C30.8807 16.827 29.8515 16.882 29.2299 16.9425C25.5546 17.3035 22.2434 19.7241 20.7731 23.0699C18.7129 27.7606 20.3988 33.047 24.6085 35.8878C24.8177 36.0293 25.0694 36.1432 25.2684 36.278C25.57 36.4839 25.6987 36.8252 25.4626 37.1396C25.3537 37.2833 25.2133 37.3681 25.0262 37.3563C24.7094 37.3363 24.2129 36.9937 23.9372 36.8134C19.3612 33.8132 17.5388 27.927 19.6101 22.8738C21.2229 18.9407 25.0339 16.1307 29.3178 15.7931C30.1394 15.7278 30.9603 15.7785 31.783 15.8183L31.8519 15.7613L31.681 14.5543C31.7991 14.0515 32.2109 14.4995 32.4131 14.6823C33.0607 15.2639 33.7884 15.9302 34.3961 16.5462C34.5897 16.7425 34.7372 16.906 34.4169 17.0925C34.0223 17.3226 33.4167 17.5118 32.9859 17.7033L32.9861 17.7021Z" fill="white"/>
<path d="M25.3738 24.6304C25.3556 24.6859 25.3633 24.7147 25.3971 24.7604C25.4909 24.8836 25.7408 25.0383 25.8609 25.1548C26.6574 25.9214 27.3666 26.8454 27.886 27.8183C27.9328 27.9809 27.785 28.0495 27.7064 28.1634C27.0176 29.1622 26.5023 30.3638 26.3678 31.5802C26.342 31.8141 26.3696 32.0971 26.3374 32.3238C26.3284 32.3846 26.3254 32.454 26.26 32.4828C25.3582 31.8693 24.6163 31.0634 23.991 30.1798C23.5383 29.4453 23.1414 28.6867 22.936 27.8244C22.5961 26.4028 22.7324 24.9085 22.6262 23.4766C22.5983 23.0912 22.5257 22.7095 22.4939 22.3248C22.5056 22.3005 22.5364 22.2746 22.5628 22.2678C22.6754 22.2358 23.1546 22.4057 23.305 22.4399C25.4577 22.94 28.2998 24.1535 29.6673 25.9529C29.7219 26.0246 29.7958 26.087 29.7236 26.1783C29.3592 26.4609 28.9971 26.7452 28.6623 27.0615C28.5496 27.1684 28.5097 27.3738 28.3243 27.1888C28.155 27.0203 27.9628 26.7119 27.7878 26.525C27.266 25.9672 26.4468 25.2604 25.8047 24.847C25.7433 24.8079 25.4096 24.6053 25.3726 24.6302L25.3738 24.6304Z" fill="white"/>
<g filter="url(#filter1_f_6163_176)">
<circle cx="46.0494" cy="41.0494" r="6.04938" fill="#1DD673"/>
</g>
</g>
<rect x="10.252" y="7.45557" width="40.8457" height="40.8457" rx="11.3488" stroke="#1DD673" stroke-width="1.5"/>
<path d="M256.515 7.82959V7.82959C263.197 7.82959 268.613 13.2464 268.613 19.9284V19.9284" stroke="#1DD673" stroke-width="2.26852" stroke-linecap="round"/>
<defs>
<filter id="filter1_f_6163_176" x="10" y="5" width="72.0986" height="72.0986" filterUnits="userSpaceOnUse" color-interpolation-filters="sRGB">
<feFlood flood-opacity="0" result="BackgroundImageFix"/>
<feBlend mode="normal" in="SourceGraphic" in2="BackgroundImageFix" result="shape"/>
<feGaussianBlur stdDeviation="15" result="effect1_foregroundBlur_6163_176"/>
</filter>
<linearGradient id="paint0_linear_6163_176" x1="138.649" y1="0.421387" x2="138.649" y2="54.4214" gradientUnits="userSpaceOnUse">
<stop stop-color="#F6F6F6"/>
<stop offset="1" stop-color="#E6E6E6"/>
</linearGradient>
<clipPath id="clip0_6163_176">
<rect x="9.50195" y="6.70557" width="42.3457" height="42.3457" rx="12.0988" fill="white"/>
</clipPath>
</defs>
</svg>
