<svg width="331" height="243" viewBox="0 0 331 243" fill="none" xmlns="http://www.w3.org/2000/svg">
<g filter="url(#filter0_dddddd_5427_41573)">
<rect x="10.9551" y="132.273" width="276.794" height="54" rx="18.1482" transform="rotate(-25.1901 10.9551 132.273)" fill="#F1F1F1" fill-opacity="0.1" shape-rendering="crispEdges"/>
<rect x="12.4642" y="132.817" width="274.525" height="51.7315" rx="17.0139" transform="rotate(-25.1901 12.4642 132.817)" stroke="url(#paint0_linear_5427_41573)" stroke-opacity="0.1" stroke-width="2.26852" shape-rendering="crispEdges"/>
</g>
<path d="M86.271 132.503L77.6601 124.176L79.7811 123.178L86.1703 129.544L85.254 120.604L87.3316 119.627L88.3342 131.532L86.271 132.503ZM95.8521 128.262C95.0655 128.632 94.3004 128.797 93.557 128.758C92.8113 128.713 92.1369 128.483 91.5338 128.065C90.9354 127.645 90.457 127.054 90.0983 126.291C89.835 125.731 89.6873 125.173 89.6554 124.616C89.6282 124.057 89.7078 123.525 89.8941 123.019C90.083 122.506 90.3672 122.045 90.7468 121.636C91.1313 121.226 91.6034 120.889 92.1632 120.625C92.7713 120.339 93.3653 120.193 93.9453 120.185C94.5229 120.173 95.0606 120.288 95.5581 120.532C96.0583 120.768 96.4936 121.117 96.8643 121.579C97.2375 122.034 97.52 122.591 97.7117 123.249L92.0507 125.912C92.2252 126.296 92.4711 126.587 92.7884 126.785C93.1105 126.981 93.4815 127.081 93.9014 127.084C94.3238 127.08 94.769 126.968 95.2372 126.747C95.6522 126.552 96.022 126.305 96.3465 126.005C96.671 125.705 96.9418 125.359 97.1587 124.968L98.4197 125.958C98.2792 126.248 98.0717 126.54 97.7975 126.834C97.5232 127.128 97.2149 127.4 96.8725 127.649C96.5349 127.896 96.1948 128.1 95.8521 128.262ZM91.5395 124.544L95.2967 122.776C95.0529 122.296 94.7119 121.991 94.2737 121.861C93.8331 121.726 93.3354 121.789 92.7804 122.05C92.2302 122.309 91.8424 122.662 91.6169 123.11C91.3891 123.553 91.3634 124.031 91.5395 124.544ZM104.87 127.733C104.33 127.987 103.82 128.168 103.34 128.276C102.862 128.389 102.427 128.428 102.034 128.395C101.646 128.359 101.311 128.255 101.029 128.081C100.754 127.91 100.544 127.67 100.399 127.361C100.283 127.115 100.239 126.852 100.267 126.574C100.303 126.298 100.412 126.023 100.595 125.748C100.781 125.466 101.044 125.198 101.384 124.944C101.029 124.928 100.739 124.858 100.515 124.733C100.292 124.609 100.123 124.426 100.01 124.184C99.9099 123.972 99.876 123.743 99.9081 123.498C99.9451 123.251 100.042 122.999 100.198 122.743C100.355 122.487 100.566 122.24 100.832 122.003C101.097 121.766 101.411 121.557 101.774 121.374L102.507 121.957C102.216 122.089 101.98 122.226 101.8 122.37C101.622 122.506 101.502 122.639 101.439 122.769C101.377 122.899 101.373 123.022 101.427 123.138C101.495 123.282 101.631 123.351 101.834 123.344C102.041 123.335 102.323 123.264 102.68 123.132L103.965 122.651C104.591 122.415 105.157 122.27 105.661 122.216C106.171 122.159 106.606 122.213 106.967 122.379C107.333 122.543 107.616 122.838 107.816 123.262C107.984 123.619 108.041 123.999 107.989 124.401C107.936 124.803 107.78 125.203 107.52 125.603C107.264 126 106.913 126.38 106.465 126.744C106.02 127.113 105.488 127.442 104.87 127.733ZM104.516 126.397C105.187 126.081 105.669 125.734 105.962 125.354C106.257 124.98 106.333 124.64 106.19 124.336C106.077 124.095 105.864 123.968 105.552 123.956C105.242 123.948 104.819 124.047 104.285 124.251L102.891 124.783C102.612 124.943 102.391 125.112 102.227 125.29C102.063 125.467 101.958 125.646 101.914 125.826C101.871 126.011 101.888 126.186 101.965 126.35C102.061 126.553 102.226 126.69 102.46 126.763C102.702 126.838 102.997 126.846 103.347 126.787C103.697 126.729 104.086 126.599 104.516 126.397ZM102.418 122.123C101.8 122.414 101.196 122.559 100.607 122.56C100.015 122.555 99.4878 122.423 99.024 122.164C98.565 121.902 98.2209 121.528 97.9917 121.04C97.7647 120.558 97.6992 120.055 97.7952 119.532C97.8913 119.01 98.1273 118.522 98.5032 118.068C98.8768 117.609 99.3701 117.236 99.983 116.947C100.591 116.661 101.191 116.521 101.783 116.525C102.372 116.525 102.898 116.655 103.362 116.914C103.824 117.168 104.169 117.539 104.398 118.027C104.623 118.505 104.689 119.007 104.595 119.535C104.504 120.055 104.271 120.544 103.897 121.003C103.524 121.462 103.031 121.835 102.418 122.123ZM101.791 120.791C102.095 120.648 102.34 120.468 102.527 120.251C102.714 120.033 102.83 119.799 102.877 119.547C102.921 119.29 102.885 119.039 102.77 118.793C102.592 118.416 102.302 118.182 101.899 118.088C101.496 117.995 101.065 118.057 100.606 118.272C100.297 118.417 100.05 118.599 99.863 118.816C99.6765 119.034 99.5599 119.268 99.5133 119.52C99.4715 119.769 99.5097 120.02 99.6277 120.271C99.8025 120.642 100.093 120.877 100.498 120.975C100.902 121.068 101.333 121.007 101.791 120.791ZM101.874 118.074L100.59 117.148L104.523 115.077L105.224 116.586L101.874 118.074ZM111.049 121.114C110.557 121.345 110.076 121.456 109.606 121.448C109.136 121.439 108.712 121.314 108.334 121.073C107.953 120.828 107.652 120.469 107.429 119.996C107.239 119.591 107.17 119.181 107.223 118.767C107.276 118.353 107.463 117.944 107.785 117.539C108.105 117.129 108.574 116.735 109.192 116.356C109.814 115.975 110.595 115.619 111.536 115.288L112.141 116.498C111.509 116.683 110.975 116.884 110.541 117.1C110.106 117.317 109.766 117.539 109.519 117.767C109.278 117.992 109.122 118.219 109.052 118.446C108.987 118.671 109.004 118.89 109.104 119.102C109.254 119.421 109.486 119.612 109.799 119.677C110.11 119.737 110.466 119.673 110.866 119.484C111.209 119.323 111.486 119.116 111.697 118.864C111.913 118.609 112.048 118.331 112.1 118.029C112.151 117.722 112.102 117.412 111.954 117.098L111.093 115.267C110.95 114.963 110.761 114.731 110.526 114.57C110.294 114.402 110.019 114.319 109.702 114.321C109.382 114.318 109.018 114.413 108.607 114.606C108.231 114.783 107.884 115.017 107.567 115.308C107.252 115.591 106.989 115.927 106.777 116.316L105.654 115.226C105.97 114.706 106.35 114.262 106.796 113.893C107.241 113.525 107.7 113.229 108.173 113.007C108.849 112.689 109.483 112.52 110.075 112.501C110.672 112.48 111.206 112.626 111.678 112.941C112.153 113.248 112.548 113.737 112.864 114.408L115.016 118.983L113.38 119.752L112.991 118.927C112.907 119.374 112.695 119.788 112.357 120.172C112.016 120.55 111.58 120.864 111.049 121.114ZM116.775 118.155L113.37 110.916L115.223 110.044L115.632 110.913C115.742 110.396 115.951 109.962 116.257 109.611C116.566 109.253 116.933 108.975 117.358 108.775C118.024 108.462 118.637 108.336 119.196 108.397C119.76 108.456 120.246 108.643 120.653 108.958C121.061 109.273 121.371 109.657 121.585 110.111L123.812 114.846L121.958 115.717L120.004 111.562C119.772 111.07 119.446 110.746 119.025 110.59C118.604 110.434 118.138 110.477 117.626 110.718C117.293 110.874 117.032 111.089 116.841 111.361C116.654 111.626 116.55 111.925 116.53 112.259C116.51 112.592 116.582 112.933 116.745 113.28L118.628 117.284L116.775 118.155ZM131.872 111.32C131.23 111.622 130.6 111.762 129.983 111.74C129.365 111.718 128.811 111.554 128.32 111.249C127.826 110.939 127.445 110.499 127.177 109.929C126.985 109.519 126.895 109.09 126.908 108.642C126.921 108.194 127.028 107.745 127.23 107.297C127.434 106.841 127.73 106.405 128.117 105.987C127.701 105.829 127.355 105.67 127.08 105.511C126.802 105.347 126.572 105.166 126.391 104.968C126.208 104.766 126.053 104.532 125.928 104.267C125.71 103.803 125.638 103.324 125.712 102.83C125.789 102.328 125.987 101.867 126.307 101.445C126.63 101.016 127.052 100.679 127.574 100.434C128.109 100.182 128.636 100.061 129.153 100.071C129.673 100.074 130.142 100.198 130.558 100.445C130.974 100.691 131.295 101.053 131.52 101.531C131.767 102.057 131.811 102.62 131.651 103.219C131.494 103.812 131.143 104.451 130.599 105.137L133.5 106.23C133.614 105.758 133.681 105.255 133.701 104.722C133.724 104.18 133.694 103.567 133.613 102.88L135.366 102.772C135.413 103.197 135.428 103.65 135.412 104.129C135.396 104.608 135.354 105.084 135.288 105.558C135.22 106.026 135.127 106.462 135.01 106.864L138.125 108.113L135.997 109.114L134.451 108.515C134.195 109.136 133.84 109.696 133.384 110.193C132.931 110.683 132.427 111.059 131.872 111.32ZM131.28 109.724C131.656 109.547 131.983 109.302 132.26 108.989C132.542 108.673 132.762 108.302 132.921 107.874L129.566 106.587C129.165 106.988 128.905 107.405 128.784 107.839C128.664 108.272 128.694 108.68 128.873 109.061C129.082 109.505 129.404 109.79 129.84 109.915C130.279 110.033 130.759 109.969 131.28 109.724ZM129.24 104.654C129.651 104.237 129.917 103.837 130.038 103.456C130.164 103.073 130.151 102.719 129.999 102.396C129.84 102.058 129.598 101.836 129.271 101.731C128.949 101.623 128.607 101.654 128.245 101.824C127.893 101.99 127.647 102.232 127.508 102.551C127.374 102.867 127.385 103.19 127.539 103.518C127.659 103.774 127.849 103.988 128.107 104.161C128.37 104.332 128.748 104.496 129.24 104.654ZM142.818 105.906L138.051 95.7709L139.933 94.8856L142.239 99.7865L143.872 93.0333L146.203 91.9369L144.651 98.2984L151.505 101.82L149.08 102.96L144.087 100.314L143.498 102.465L144.7 105.02L142.818 105.906ZM155.564 100.176C154.777 100.546 154.012 100.711 153.269 100.672C152.523 100.628 151.848 100.397 151.245 99.9794C150.647 99.5594 150.169 98.9682 149.81 98.2057C149.547 97.6458 149.399 97.0876 149.367 96.5309C149.34 95.972 149.419 95.4395 149.606 94.9334C149.795 94.4202 150.079 93.9594 150.458 93.551C150.843 93.1403 151.315 92.8033 151.875 92.54C152.483 92.254 153.077 92.1072 153.657 92.0996C154.235 92.0872 154.772 92.2027 155.27 92.4461C155.77 92.6824 156.205 93.0316 156.576 93.4938C156.949 93.9489 157.232 94.5056 157.423 95.164L151.762 97.8267C151.937 98.2102 152.183 98.5012 152.5 98.6997C152.822 98.8959 153.193 98.9955 153.613 98.9984C154.035 98.9942 154.481 98.882 154.949 98.6618C155.364 98.4666 155.734 98.219 156.058 97.919C156.383 97.619 156.653 97.2736 156.87 96.8828L158.131 97.8722C157.991 98.1622 157.783 98.4543 157.509 98.7483C157.235 99.0424 156.926 99.3141 156.584 99.5636C156.246 99.8107 155.906 100.015 155.564 100.176ZM151.251 96.458L155.008 94.6909C154.765 94.2102 154.424 93.905 153.985 93.7752C153.545 93.6406 153.047 93.7038 152.492 93.9648C151.942 94.2236 151.554 94.5769 151.328 95.0248C151.101 95.4679 151.075 95.9456 151.251 96.458ZM163.335 96.521C162.591 96.8706 161.903 96.9352 161.269 96.7148C160.634 96.4944 160.115 95.9547 159.711 95.0956L156.422 88.1026L158.275 87.2309L159.263 89.3303L161.167 88.4347L161.875 89.9405L159.971 90.836L161.391 93.8548C161.609 94.3181 161.855 94.6031 162.129 94.7099C162.401 94.8119 162.699 94.7868 163.022 94.6347C163.186 94.5575 163.331 94.4656 163.458 94.3589C163.589 94.2499 163.703 94.1345 163.799 94.0128L164.783 95.3534C164.623 95.5642 164.419 95.7753 164.171 95.9864C163.922 96.1976 163.643 96.3758 163.335 96.521ZM156.59 92.4261L155.882 90.9204L157.619 90.1032L158.328 91.6089L156.59 92.4261ZM169.583 93.5819C168.811 93.9451 168.044 94.0937 167.282 94.0277C166.523 93.9546 165.838 93.7079 165.228 93.2877C164.615 92.8626 164.146 92.3026 163.819 91.6077C163.578 91.0961 163.446 90.5632 163.421 90.0091C163.396 89.455 163.477 88.919 163.663 88.4009C163.852 87.8758 164.141 87.3984 164.528 86.9687C164.913 86.5342 165.395 86.1808 165.974 85.9084C166.741 85.5474 167.504 85.4011 168.261 85.4694C169.023 85.5354 169.71 85.7809 170.322 86.206C170.94 86.6288 171.412 87.1876 171.739 87.8826C171.979 88.3942 172.11 88.9282 172.13 89.4845C172.152 90.0338 172.071 90.5699 171.887 91.0927C171.703 91.6156 171.418 92.0942 171.033 92.5288C170.646 92.9585 170.162 93.3095 169.583 93.5819ZM168.813 91.9637C169.224 91.7708 169.546 91.5101 169.781 91.1817C170.018 90.8463 170.151 90.4713 170.18 90.0569C170.206 89.6376 170.113 89.2011 169.9 88.7475C169.686 88.2938 169.41 87.9436 169.07 87.6969C168.73 87.4501 168.358 87.3124 167.956 87.2836C167.553 87.2549 167.147 87.337 166.737 87.5299C166.327 87.7229 166.002 87.9847 165.762 88.3153C165.528 88.6437 165.397 89.0176 165.37 89.4368C165.349 89.8538 165.444 90.2891 165.658 90.7428C165.871 91.1964 166.148 91.5466 166.488 91.7934C166.825 92.0353 167.197 92.1731 167.602 92.2066C168.004 92.2354 168.408 92.1544 168.813 91.9637ZM178.075 89.3224L173.308 79.1876L179.708 76.1775L180.518 77.9005L176.001 80.0252L177.244 82.6675L181.319 80.7505L182.103 82.4155L178.027 84.3325L179.958 88.4371L178.075 89.3224ZM189.146 84.3808C188.373 84.744 187.606 84.8925 186.845 84.8265C186.085 84.7534 185.4 84.5068 184.79 84.0865C184.178 83.6615 183.708 83.1015 183.381 82.4065C183.14 81.8949 183.008 81.3621 182.983 80.808C182.958 80.2539 183.039 79.7178 183.225 79.1998C183.415 78.6747 183.703 78.1973 184.09 77.7676C184.475 77.3331 184.957 76.9796 185.536 76.7072C186.304 76.3463 187.066 76.1999 187.823 76.2682C188.585 76.3342 189.272 76.5797 189.885 77.0048C190.502 77.4276 190.974 77.9865 191.301 78.6814C191.541 79.193 191.672 79.727 191.692 80.2834C191.714 80.8327 191.634 81.3687 191.449 81.8916C191.265 82.4144 190.98 82.8931 190.595 83.3276C190.208 83.7573 189.725 84.1084 189.146 84.3808ZM188.376 82.7626C188.786 82.5696 189.108 82.309 189.343 81.9806C189.58 81.6451 189.713 81.2701 189.742 80.8557C189.769 80.4364 189.675 80 189.462 79.5463C189.249 79.0927 188.972 78.7425 188.632 78.4957C188.292 78.249 187.921 78.1112 187.518 78.0825C187.116 78.0537 186.709 78.1358 186.299 78.3288C185.889 78.5217 185.564 78.7835 185.325 79.1142C185.09 79.4426 184.959 79.8164 184.933 80.2357C184.911 80.6527 185.006 81.088 185.22 81.5416C185.433 81.9953 185.71 82.3455 186.05 82.5922C186.388 82.8342 186.759 82.9719 187.164 83.0055C187.566 83.0342 187.97 82.9533 188.376 82.7626ZM197.764 80.3272C196.991 80.6904 196.224 80.839 195.463 80.773C194.703 80.6999 194.018 80.4533 193.408 80.033C192.796 79.608 192.326 79.0479 191.999 78.353C191.759 77.8414 191.626 77.3086 191.601 76.7545C191.576 76.2003 191.657 75.6643 191.844 75.1463C192.033 74.6212 192.321 74.1437 192.708 73.7141C193.093 73.2795 193.575 72.9261 194.154 72.6537C194.922 72.2927 195.684 72.1464 196.441 72.2147C197.203 72.2807 197.89 72.5262 198.503 72.9513C199.12 73.3741 199.592 73.933 199.919 74.6279C200.159 75.1395 200.29 75.6735 200.31 76.2298C200.332 76.7791 200.252 77.3152 200.067 77.838C199.883 78.3609 199.598 78.8396 199.213 79.2741C198.826 79.7038 198.343 80.0548 197.764 80.3272ZM196.994 78.7091C197.404 78.5161 197.726 78.2554 197.961 77.9271C198.198 77.5916 198.331 77.2166 198.36 76.8022C198.387 76.3829 198.293 75.9464 198.08 75.4928C197.867 75.0391 197.59 74.6889 197.25 74.4422C196.91 74.1954 196.539 74.0577 196.136 74.029C195.734 74.0002 195.327 74.0823 194.917 74.2753C194.507 74.4682 194.182 74.73 193.943 75.0607C193.708 75.389 193.578 75.7629 193.551 76.1821C193.529 76.5991 193.625 77.0345 193.838 77.4881C194.051 77.9418 194.328 78.292 194.668 78.5387C195.006 78.7806 195.377 78.9184 195.782 78.9519C196.184 78.9807 196.588 78.8997 196.994 78.7091ZM206.041 76.4337C205.337 76.7652 204.635 76.895 203.935 76.8234C203.235 76.7517 202.595 76.4989 202.013 76.0651C201.432 75.6312 200.967 75.0427 200.617 74.2994C200.365 73.7637 200.217 73.2234 200.173 72.6784C200.131 72.1262 200.191 71.6004 200.35 71.1008C200.513 70.5941 200.771 70.1399 201.124 69.738C201.475 69.3313 201.921 69.0008 202.461 68.7466C203.084 68.4537 203.688 68.3227 204.274 68.3535C204.858 68.3794 205.421 68.542 205.962 68.8413L205.755 69.4519L203.49 64.6378L205.343 63.7661L210.247 74.1906L208.611 74.9601L207.77 73.172L208.228 73.4693C208.197 74.0436 208.009 74.595 207.662 75.1234C207.315 75.6519 206.775 76.0887 206.041 76.4337ZM205.619 74.6521C206.024 74.4614 206.344 74.2019 206.579 73.8735C206.816 73.538 206.949 73.1631 206.978 72.7486C207.005 72.3294 206.912 71.8929 206.698 71.4393C206.485 70.9856 206.208 70.6354 205.868 70.3887C205.528 70.1419 205.157 70.0042 204.754 69.9754C204.352 69.9467 203.945 70.0288 203.535 70.2217C203.125 70.4147 202.8 70.6765 202.561 71.0071C202.326 71.3355 202.196 71.7093 202.169 72.1286C202.147 72.5456 202.243 72.9809 202.456 73.4346C202.669 73.8882 202.946 74.2384 203.286 74.4852C203.624 74.7271 203.995 74.8648 204.4 74.8984C204.802 74.9272 205.209 74.8451 205.619 74.6521ZM218.979 70.3487C218.255 70.6892 217.499 70.918 216.711 71.035C215.926 71.145 215.205 71.1158 214.548 70.9473L214.79 69.0922C215.121 69.1956 215.485 69.2484 215.881 69.2508C216.277 69.2531 216.676 69.2126 217.079 69.1292C217.484 69.0388 217.868 68.9084 218.23 68.7382C218.833 68.4544 219.271 68.113 219.543 67.7139C219.813 67.3101 219.848 66.8958 219.648 66.4711C219.491 66.1381 219.231 65.9218 218.865 65.8224C218.498 65.7182 217.918 65.7317 217.125 65.863L216.008 66.0437C214.887 66.2291 213.994 66.1922 213.33 65.9329C212.668 65.6665 212.176 65.1907 211.854 64.5054C211.643 64.0565 211.542 63.6032 211.55 63.1453C211.559 62.6874 211.666 62.245 211.872 61.8182C212.083 61.389 212.383 60.9942 212.774 60.6338C213.164 60.2733 213.63 59.966 214.17 59.7118C214.88 59.3781 215.587 59.172 216.293 59.0935C216.996 59.0102 217.624 59.0539 218.176 59.2246L217.892 61.0465C217.601 60.9536 217.285 60.9019 216.944 60.8913C216.603 60.8808 216.256 60.9142 215.904 60.9916C215.549 61.0642 215.21 61.1766 214.886 61.3286C214.505 61.508 214.197 61.7177 213.962 61.9578C213.728 62.1979 213.577 62.4543 213.511 62.7271C213.445 62.9999 213.479 63.2787 213.612 63.5634C213.71 63.7709 213.848 63.9269 214.027 64.0314C214.211 64.1337 214.466 64.1875 214.793 64.193C215.117 64.1936 215.546 64.1538 216.08 64.0736L217.251 63.8941C218.355 63.7226 219.235 63.7568 219.89 63.9968C220.543 64.232 221.037 64.7067 221.373 65.421C221.661 66.0339 221.761 66.647 221.672 67.2605C221.584 67.8739 221.312 68.4495 220.858 68.9873C220.406 69.5181 219.78 69.9718 218.979 70.3487ZM227.338 66.417C226.594 66.7666 225.906 66.8312 225.272 66.6108C224.638 66.3904 224.118 65.8507 223.714 64.9916L220.425 57.9985L222.278 57.1269L223.266 59.2262L225.17 58.3307L225.878 59.8365L223.974 60.732L225.394 63.7507C225.612 64.2141 225.858 64.4991 226.132 64.6059C226.404 64.7078 226.702 64.6828 227.025 64.5307C227.189 64.4535 227.334 64.3616 227.461 64.2549C227.593 64.1459 227.706 64.0305 227.802 63.9088L228.786 65.2494C228.626 65.4602 228.422 65.6712 228.174 65.8824C227.925 66.0935 227.646 66.2718 227.338 66.417ZM220.593 62.3221L219.885 60.8164L221.623 59.9992L222.331 61.5049L220.593 62.3221ZM233.586 63.4779C232.814 63.8411 232.047 63.9897 231.285 63.9237C230.526 63.8506 229.841 63.6039 229.231 63.1837C228.619 62.7586 228.149 62.1986 227.822 61.5036C227.581 60.9921 227.449 60.4592 227.424 59.9051C227.399 59.351 227.48 58.8149 227.666 58.2969C227.855 57.7718 228.144 57.2944 228.531 56.8647C228.916 56.4302 229.398 56.0767 229.977 55.8043C230.744 55.4434 231.507 55.2971 232.264 55.3654C233.026 55.4314 233.713 55.6769 234.325 56.102C234.943 56.5247 235.415 57.0836 235.742 57.7786C235.982 58.2902 236.113 58.8241 236.133 59.3805C236.155 59.9298 236.074 60.4659 235.89 60.9887C235.706 61.5115 235.421 61.9902 235.036 62.4247C234.649 62.8544 234.166 63.2055 233.586 63.4779ZM232.816 61.8597C233.227 61.6668 233.549 61.4061 233.784 61.0777C234.021 60.7422 234.154 60.3673 234.183 59.9528C234.21 59.5336 234.116 59.0971 233.903 58.6435C233.689 58.1898 233.413 57.8396 233.073 57.5929C232.733 57.3461 232.361 57.2084 231.959 57.1796C231.556 57.1509 231.15 57.233 230.74 57.4259C230.33 57.6189 230.005 57.8807 229.765 58.2113C229.531 58.5397 229.4 58.9135 229.374 59.3328C229.352 59.7498 229.447 60.1851 229.661 60.6388C229.874 61.0924 230.151 61.4426 230.491 61.6894C230.829 61.9313 231.2 62.069 231.605 62.1026C232.007 62.1314 232.411 62.0504 232.816 61.8597ZM238.68 60.817L235.275 53.5777L237.128 52.7061L237.574 53.6544C237.625 53.1117 237.797 52.6625 238.09 52.3069C238.387 51.949 238.755 51.6667 239.194 51.4602C239.349 51.3875 239.495 51.3278 239.632 51.281C239.769 51.2342 239.904 51.1969 240.039 51.1691L240.706 53.1892C240.531 53.2065 240.356 53.2416 240.181 53.2947C240.008 53.3406 239.842 53.4011 239.683 53.476C239.162 53.7211 238.806 54.08 238.616 54.5526C238.423 55.0204 238.458 55.5342 238.722 56.094L240.533 59.9453L238.68 60.817ZM247.804 56.7908C247.017 57.1608 246.252 57.3261 245.509 57.2868C244.763 57.2427 244.088 57.0118 243.485 56.5941C242.887 56.1741 242.408 55.5829 242.05 54.8204C241.786 54.2605 241.639 53.7023 241.607 53.1456C241.58 52.5867 241.659 52.0542 241.846 51.5481C242.035 51.0349 242.319 50.5741 242.698 50.1657C243.083 49.755 243.555 49.418 244.115 49.1547C244.723 48.8687 245.317 48.7219 245.897 48.7143C246.474 48.7019 247.012 48.8174 247.51 49.0608C248.01 49.2971 248.445 49.6463 248.816 50.1085C249.189 50.5636 249.471 51.1203 249.663 51.7787L244.002 54.4413C244.177 54.8249 244.423 55.1159 244.74 55.3144C245.062 55.5106 245.433 55.6102 245.853 55.6131C246.275 55.6089 246.721 55.4967 247.189 55.2765C247.604 55.0813 247.974 54.8337 248.298 54.5337C248.623 54.2337 248.893 53.8883 249.11 53.4975L250.371 54.4869C250.231 54.7769 250.023 55.069 249.749 55.363C249.475 55.6571 249.166 55.9288 248.824 56.1783C248.486 56.4254 248.146 56.6296 247.804 56.7908ZM243.491 53.0727L247.248 51.3056C247.004 50.8249 246.663 50.5197 246.225 50.3899C245.785 50.2553 245.287 50.3185 244.732 50.5795C244.182 50.8383 243.794 51.1916 243.568 51.6395C243.341 52.0826 243.315 52.5603 243.491 53.0727ZM255.084 53.3574C254.462 53.6503 253.843 53.8382 253.228 53.9213C252.617 54.002 252.057 53.9826 251.547 53.863L251.572 52.2424C252.049 52.3303 252.538 52.3479 253.038 52.2955C253.538 52.2431 253.993 52.1204 254.403 51.9275C254.837 51.7232 255.141 51.4919 255.314 51.2336C255.487 50.9753 255.513 50.7159 255.39 50.4553C255.274 50.2091 255.083 50.0781 254.816 50.0621C254.549 50.0462 254.092 50.114 253.444 50.2654C252.422 50.5224 251.614 50.5722 251.022 50.4148C250.427 50.2526 249.98 49.8554 249.683 49.2232C249.472 48.7744 249.409 48.3207 249.494 47.8623C249.584 47.4016 249.801 46.975 250.147 46.5825C250.496 46.1829 250.955 45.8491 251.524 45.5813C252.079 45.3202 252.639 45.1511 253.204 45.074C253.774 44.9947 254.303 45.011 254.792 45.1229L254.799 46.7371C254.536 46.6664 254.257 46.6298 253.961 46.6275C253.665 46.6252 253.368 46.6562 253.068 46.7206C252.773 46.7827 252.495 46.875 252.234 46.9976C251.853 47.1769 251.576 47.3898 251.403 47.6361C251.235 47.8802 251.209 48.1253 251.325 48.3715C251.44 48.6176 251.635 48.7499 251.909 48.7684C252.181 48.7821 252.632 48.7202 253.263 48.5826C254.326 48.3362 255.145 48.2866 255.721 48.4341C256.298 48.5815 256.731 48.9641 257.022 49.5818C257.244 50.0548 257.31 50.5276 257.22 51.0002C257.128 51.468 256.899 51.9087 256.534 52.3222C256.171 52.7286 255.688 53.0737 255.084 53.3574Z" fill="white"/>
<g filter="url(#filter1_f_5427_41573)">
<circle cx="58.7827" cy="151.82" r="6.04938" transform="rotate(-25.1901 58.7827 151.82)" fill="#1DD673" fill-opacity="0.3"/>
</g>
<g clip-path="url(#clip0_5427_41573)">
<rect x="22" y="134.023" width="42.3457" height="42.3457" rx="12.0988" transform="rotate(-25.1901 22 134.023)" fill="#1DD673" fill-opacity="0.05"/>
<path d="M57.2441 137.857C57.3645 137.974 57.2754 138.14 57.2724 138.278C57.2079 140.492 57.795 142.735 57.2561 144.923C56.586 147.65 54.177 150.405 51.4833 151.36C51.3647 151.402 51.2292 151.443 51.1041 151.43L51.0869 151.391C50.9071 150.449 50.8532 149.505 50.9289 148.549C51.1308 145.984 52.2048 143.447 53.8584 141.477C54.0359 141.267 54.2109 141.126 54.3751 140.892C54.4113 140.841 54.5122 140.814 54.4713 140.732C54.4353 140.714 53.9639 141.083 53.8879 141.144C51.9874 142.694 50.4516 145.028 49.8417 147.392C49.5541 148.504 49.4548 149.704 49.647 150.834C49.6145 150.926 49.4843 150.75 49.4625 150.718C48.1254 148.812 48.0242 146.262 48.9577 144.17C50.1993 141.388 52.8734 139.553 55.6435 138.395L57.246 137.859L57.2441 137.857Z" fill="#1DD673"/>
<path d="M54.3946 133.241C58.957 135.277 61.6794 139.879 61.1597 144.897C60.6957 149.379 57.532 153.26 53.1958 154.662C53.0674 154.808 53.1875 154.818 53.2502 154.918C53.3492 155.074 53.434 155.24 53.5306 155.397C53.642 155.579 54.087 156.075 53.5937 156.124C53.4684 156.137 53.4385 156.062 53.3854 156.048C52.3596 155.769 51.3458 155.39 50.3149 155.079C50.1706 154.991 50.1522 154.879 50.1903 154.724C50.4599 154.432 50.7363 154.137 50.9969 153.835C51.462 153.296 51.9053 152.701 52.3992 152.191C52.5465 152.039 52.7674 152.054 52.8222 152.274C52.8842 152.519 52.717 153.369 52.8161 153.517C52.8624 153.585 53.2339 153.46 53.3193 153.429C56.8491 152.137 59.5258 148.712 59.9948 145.045C60.7273 139.323 56.7996 134.349 51.1604 133.463C50.8528 133.415 50.2214 133.445 50.0106 133.23C49.7029 132.917 49.8125 132.403 50.2333 132.269C50.4073 132.213 51.192 132.316 51.4203 132.349C52.468 132.497 53.4378 132.811 54.3967 133.239L54.3946 133.241Z" fill="#1DD673"/>
<path d="M47.9308 133.979C47.5612 134.407 47.1911 134.862 46.8149 135.295C46.6655 135.421 46.4445 135.429 46.3916 135.211C46.3766 135.147 46.3929 134.715 46.3961 134.611C46.4014 134.43 46.4261 134.218 46.4479 134.037C46.4368 133.913 46.3537 133.893 46.2444 133.922C45.6532 134.083 44.7454 134.571 44.2086 134.89C41.0365 136.781 39.0704 140.381 39.164 144.034C39.2961 149.156 43.0717 153.222 48.0903 154.001C48.3398 154.04 48.616 154.036 48.8535 154.073C49.2141 154.131 49.4757 154.385 49.3959 154.77C49.3586 154.946 49.2675 155.083 49.0932 155.152C48.798 155.269 48.2029 155.17 47.8767 155.124C42.4589 154.357 38.3045 149.806 38.0281 144.352C37.8135 140.106 40.066 135.942 43.7989 133.813C44.5146 133.404 45.279 133.1 46.0403 132.786L46.0785 132.705L45.4101 131.686C45.303 131.181 45.8663 131.411 46.1271 131.49C46.9606 131.741 47.9027 132.034 48.7148 132.333C48.9736 132.428 49.1766 132.513 48.9661 132.818C48.7071 133.194 48.2395 133.623 47.9312 133.98L47.9308 133.979Z" fill="#1DD673"/>
<path d="M43.9916 143.488C43.9987 143.546 44.0179 143.569 44.068 143.596C44.2053 143.667 44.4972 143.701 44.6555 143.755C45.7025 144.11 46.7375 144.644 47.6216 145.304C47.7332 145.431 47.6287 145.556 47.606 145.692C47.4078 146.889 47.453 148.196 47.849 149.354C47.9252 149.577 48.0706 149.821 48.138 150.04C48.1557 150.099 48.1826 150.163 48.1357 150.217C47.0585 150.045 46.0441 149.632 45.1022 149.098C44.3799 148.626 43.6979 148.109 43.145 147.416C42.2324 146.274 41.7197 144.864 41.0141 143.614C40.8249 143.277 40.5967 142.962 40.4042 142.628C40.4044 142.601 40.4213 142.564 40.4423 142.547C40.5305 142.47 41.0364 142.42 41.1872 142.387C43.348 141.923 46.4363 141.811 48.4396 142.858C48.5195 142.899 48.613 142.924 48.5865 143.038C48.377 143.448 48.1704 143.86 48.002 144.288C47.9456 144.433 47.9969 144.636 47.7504 144.547C47.5254 144.467 47.2202 144.27 46.9823 144.175C46.2728 143.893 45.2307 143.602 44.4737 143.501C44.4014 143.492 44.0132 143.45 43.9904 143.488L43.9916 143.488Z" fill="#1DD673"/>
</g>
<rect x="22.9979" y="134.383" width="40.8457" height="40.8457" rx="11.3488" transform="rotate(-25.1901 22.9979 134.383)" stroke="#1DD673" stroke-opacity="0.2" stroke-width="1.5"/>
<path d="M246 29.9062V29.9062C252.047 27.0623 259.254 29.6584 262.098 35.7049V35.7049" stroke="#1DD673" stroke-width="2.26852" stroke-linecap="round"/>
<defs>
<filter id="filter0_dddddd_5427_41573" x="-41.0449" y="-5.53613" width="377.455" height="270.674" filterUnits="userSpaceOnUse" color-interpolation-filters="sRGB">
<feFlood flood-opacity="0" result="BackgroundImageFix"/>
<feColorMatrix in="SourceAlpha" type="matrix" values="0 0 0 0 0 0 0 0 0 0 0 0 0 0 0 0 0 0 127 0" result="hardAlpha"/>
<feMorphology radius="4" operator="erode" in="SourceAlpha" result="effect1_dropShadow_5427_41573"/>
<feOffset dy="5"/>
<feGaussianBlur stdDeviation="0.75"/>
<feComposite in2="hardAlpha" operator="out"/>
<feColorMatrix type="matrix" values="0 0 0 0 0.0313726 0 0 0 0 0.0313726 0 0 0 0 0.0313726 0 0 0 0.05 0"/>
<feBlend mode="normal" in2="BackgroundImageFix" result="effect1_dropShadow_5427_41573"/>
<feColorMatrix in="SourceAlpha" type="matrix" values="0 0 0 0 0 0 0 0 0 0 0 0 0 0 0 0 0 0 127 0" result="hardAlpha"/>
<feMorphology radius="4" operator="erode" in="SourceAlpha" result="effect2_dropShadow_5427_41573"/>
<feOffset dy="6"/>
<feGaussianBlur stdDeviation="2"/>
<feComposite in2="hardAlpha" operator="out"/>
<feColorMatrix type="matrix" values="0 0 0 0 0.0313726 0 0 0 0 0.0313726 0 0 0 0 0.0313726 0 0 0 0.05 0"/>
<feBlend mode="normal" in2="effect1_dropShadow_5427_41573" result="effect2_dropShadow_5427_41573"/>
<feColorMatrix in="SourceAlpha" type="matrix" values="0 0 0 0 0 0 0 0 0 0 0 0 0 0 0 0 0 0 127 0" result="hardAlpha"/>
<feOffset dy="6"/>
<feGaussianBlur stdDeviation="6.5"/>
<feComposite in2="hardAlpha" operator="out"/>
<feColorMatrix type="matrix" values="0 0 0 0 0.0313726 0 0 0 0 0.0313726 0 0 0 0 0.0313726 0 0 0 0.03 0"/>
<feBlend mode="normal" in2="effect2_dropShadow_5427_41573" result="effect3_dropShadow_5427_41573"/>
<feColorMatrix in="SourceAlpha" type="matrix" values="0 0 0 0 0 0 0 0 0 0 0 0 0 0 0 0 0 0 127 0" result="hardAlpha"/>
<feMorphology radius="16" operator="erode" in="SourceAlpha" result="effect4_dropShadow_5427_41573"/>
<feOffset dy="24"/>
<feGaussianBlur stdDeviation="12"/>
<feComposite in2="hardAlpha" operator="out"/>
<feColorMatrix type="matrix" values="0 0 0 0 0.0313726 0 0 0 0 0.0313726 0 0 0 0 0.0313726 0 0 0 0.04 0"/>
<feBlend mode="normal" in2="effect3_dropShadow_5427_41573" result="effect4_dropShadow_5427_41573"/>
<feColorMatrix in="SourceAlpha" type="matrix" values="0 0 0 0 0 0 0 0 0 0 0 0 0 0 0 0 0 0 127 0" result="hardAlpha"/>
<feMorphology radius="2" operator="erode" in="SourceAlpha" result="effect5_dropShadow_5427_41573"/>
<feOffset dy="2.15"/>
<feGaussianBlur stdDeviation="0.25"/>
<feComposite in2="hardAlpha" operator="out"/>
<feColorMatrix type="matrix" values="0 0 0 0 0 0 0 0 0 0 0 0 0 0 0 0 0 0 0.25 0"/>
<feBlend mode="normal" in2="effect4_dropShadow_5427_41573" result="effect5_dropShadow_5427_41573"/>
<feColorMatrix in="SourceAlpha" type="matrix" values="0 0 0 0 0 0 0 0 0 0 0 0 0 0 0 0 0 0 127 0" result="hardAlpha"/>
<feMorphology radius="12" operator="erode" in="SourceAlpha" result="effect6_dropShadow_5427_41573"/>
<feOffset dy="32"/>
<feGaussianBlur stdDeviation="32"/>
<feComposite in2="hardAlpha" operator="out"/>
<feColorMatrix type="matrix" values="0 0 0 0 0 0 0 0 0 0 0 0 0 0 0 0 0 0 0.075 0"/>
<feBlend mode="multiply" in2="effect5_dropShadow_5427_41573" result="effect6_dropShadow_5427_41573"/>
<feBlend mode="normal" in="SourceGraphic" in2="effect6_dropShadow_5427_41573" result="shape"/>
</filter>
<filter id="filter1_f_5427_41573" x="49.7072" y="142.744" width="18.1509" height="18.1509" filterUnits="userSpaceOnUse" color-interpolation-filters="sRGB">
<feFlood flood-opacity="0" result="BackgroundImageFix"/>
<feBlend mode="normal" in="SourceGraphic" in2="BackgroundImageFix" result="shape"/>
<feGaussianBlur stdDeviation="1.51235" result="effect1_foregroundBlur_5427_41573"/>
</filter>
<linearGradient id="paint0_linear_5427_41573" x1="149.352" y1="132.273" x2="149.352" y2="186.273" gradientUnits="userSpaceOnUse">
<stop stop-color="#F6F6F6"/>
<stop offset="1" stop-color="#E6E6E6"/>
</linearGradient>
<clipPath id="clip0_5427_41573">
<rect x="22" y="134.023" width="42.3457" height="42.3457" rx="12.0988" transform="rotate(-25.1901 22 134.023)" fill="white"/>
</clipPath>
</defs>
</svg>
