<svg width="324" height="158" viewBox="0 0 324 158" fill="none" xmlns="http://www.w3.org/2000/svg">
<g filter="url(#filter0_dddddd_6146_182)">
<rect x="52" y="20" width="220" height="54" rx="18.1482" fill="#F1F1F1"/>
<rect x="53.1343" y="21.1343" width="217.731" height="51.7315" rx="17.0139" stroke="url(#paint0_linear_6146_182)" stroke-width="2.26852"/>
</g>
<path d="M119.232 52.6852L115.848 41.4852H118.016L120.288 49.7092L122.688 41.4852H124.816L127.208 49.7012L129.48 41.4852H131.592L128.216 52.6852H126.08L123.728 44.5892L121.352 52.6852H119.232ZM135.908 52.9252C135.038 52.9252 134.276 52.7492 133.62 52.3972C132.964 52.0398 132.452 51.5438 132.084 50.9092C131.721 50.2745 131.54 49.5358 131.54 48.6932C131.54 48.0745 131.644 47.5065 131.852 46.9892C132.065 46.4718 132.364 46.0238 132.748 45.6452C133.137 45.2612 133.59 44.9652 134.108 44.7572C134.63 44.5492 135.201 44.4452 135.82 44.4452C136.492 44.4452 137.092 44.5652 137.62 44.8052C138.148 45.0398 138.585 45.3732 138.932 45.8052C139.284 46.2318 139.529 46.7332 139.668 47.3092C139.812 47.8798 139.83 48.5038 139.724 49.1812H133.468C133.462 49.6025 133.561 49.9705 133.764 50.2852C133.972 50.5998 134.265 50.8478 134.644 51.0292C135.028 51.2052 135.478 51.2932 135.996 51.2932C136.454 51.2932 136.894 51.2265 137.316 51.0932C137.737 50.9598 138.129 50.7625 138.492 50.5012L139.212 51.9332C138.961 52.1358 138.649 52.3118 138.276 52.4612C137.902 52.6105 137.508 52.7252 137.092 52.8052C136.681 52.8852 136.286 52.9252 135.908 52.9252ZM133.588 47.7252H137.74C137.724 47.1865 137.545 46.7652 137.204 46.4612C136.862 46.1518 136.385 45.9972 135.772 45.9972C135.164 45.9972 134.662 46.1518 134.268 46.4612C133.873 46.7652 133.646 47.1865 133.588 47.7252ZM141.157 52.6852V41.1652H143.205V52.6852H141.157ZM145.244 52.6852V41.1652H147.292V52.6852H145.244ZM149.33 52.6852V44.6852H151.378V45.6452C151.698 45.2238 152.071 44.9198 152.498 44.7332C152.93 44.5412 153.38 44.4452 153.85 44.4452C154.586 44.4452 155.194 44.5918 155.674 44.8852C156.159 45.1785 156.519 45.5545 156.754 46.0132C156.988 46.4718 157.106 46.9518 157.106 47.4532V52.6852H155.058V48.0932C155.058 47.5492 154.9 47.1172 154.586 46.7972C154.271 46.4772 153.831 46.3172 153.266 46.3172C152.898 46.3172 152.57 46.3998 152.282 46.5652C151.999 46.7252 151.778 46.9518 151.618 47.2452C151.458 47.5385 151.378 47.8772 151.378 48.2612V52.6852H149.33ZM162.768 52.9252C161.899 52.9252 161.136 52.7492 160.48 52.3972C159.824 52.0398 159.312 51.5438 158.944 50.9092C158.582 50.2745 158.4 49.5358 158.4 48.6932C158.4 48.0745 158.504 47.5065 158.712 46.9892C158.926 46.4718 159.224 46.0238 159.608 45.6452C159.998 45.2612 160.451 44.9652 160.968 44.7572C161.491 44.5492 162.062 44.4452 162.68 44.4452C163.352 44.4452 163.952 44.5652 164.48 44.8052C165.008 45.0398 165.446 45.3732 165.792 45.8052C166.144 46.2318 166.39 46.7332 166.528 47.3092C166.672 47.8798 166.691 48.5038 166.584 49.1812H160.328C160.323 49.6025 160.422 49.9705 160.624 50.2852C160.832 50.5998 161.126 50.8478 161.504 51.0292C161.888 51.2052 162.339 51.2932 162.856 51.2932C163.315 51.2932 163.755 51.2265 164.176 51.0932C164.598 50.9598 164.99 50.7625 165.352 50.5012L166.072 51.9332C165.822 52.1358 165.51 52.3118 165.136 52.4612C164.763 52.6105 164.368 52.7252 163.952 52.8052C163.542 52.8852 163.147 52.9252 162.768 52.9252ZM160.448 47.7252H164.6C164.584 47.1865 164.406 46.7652 164.064 46.4612C163.723 46.1518 163.246 45.9972 162.632 45.9972C162.024 45.9972 161.523 46.1518 161.128 46.4612C160.734 46.7652 160.507 47.1865 160.448 47.7252ZM170.818 52.9172C170.13 52.9172 169.49 52.8238 168.898 52.6372C168.311 52.4505 167.813 52.1945 167.402 51.8692L168.114 50.4132C168.509 50.6958 168.943 50.9198 169.418 51.0852C169.893 51.2505 170.357 51.3332 170.81 51.3332C171.29 51.3332 171.663 51.2532 171.93 51.0932C172.197 50.9332 172.33 50.7092 172.33 50.4212C172.33 50.1492 172.213 49.9492 171.978 49.8212C171.743 49.6932 171.301 49.5598 170.65 49.4212C169.615 49.2185 168.863 48.9198 168.394 48.5252C167.925 48.1252 167.69 47.5758 167.69 46.8772C167.69 46.3812 167.826 45.9438 168.098 45.5652C168.375 45.1865 168.754 44.8932 169.234 44.6852C169.719 44.4718 170.277 44.3652 170.906 44.3652C171.519 44.3652 172.098 44.4505 172.642 44.6212C173.191 44.7918 173.663 45.0318 174.058 45.3412L173.378 46.8052C173.17 46.6292 172.933 46.4772 172.666 46.3492C172.399 46.2212 172.117 46.1225 171.818 46.0532C171.525 45.9838 171.234 45.9492 170.946 45.9492C170.525 45.9492 170.183 46.0238 169.922 46.1732C169.666 46.3225 169.538 46.5332 169.538 46.8052C169.538 47.0772 169.658 47.2798 169.898 47.4132C170.138 47.5412 170.573 47.6772 171.202 47.8212C172.269 48.0505 173.031 48.3545 173.49 48.7332C173.949 49.1118 174.178 49.6425 174.178 50.3252C174.178 50.8478 174.037 51.3038 173.754 51.6932C173.471 52.0772 173.077 52.3785 172.57 52.5972C172.069 52.8105 171.485 52.9172 170.818 52.9172ZM178.404 52.9172C177.716 52.9172 177.076 52.8238 176.484 52.6372C175.897 52.4505 175.399 52.1945 174.988 51.8692L175.7 50.4132C176.095 50.6958 176.529 50.9198 177.004 51.0852C177.479 51.2505 177.943 51.3332 178.396 51.3332C178.876 51.3332 179.249 51.2532 179.516 51.0932C179.783 50.9332 179.916 50.7092 179.916 50.4212C179.916 50.1492 179.799 49.9492 179.564 49.8212C179.329 49.6932 178.887 49.5598 178.236 49.4212C177.201 49.2185 176.449 48.9198 175.98 48.5252C175.511 48.1252 175.276 47.5758 175.276 46.8772C175.276 46.3812 175.412 45.9438 175.684 45.5652C175.961 45.1865 176.34 44.8932 176.82 44.6852C177.305 44.4718 177.863 44.3652 178.492 44.3652C179.105 44.3652 179.684 44.4505 180.228 44.6212C180.777 44.7918 181.249 45.0318 181.644 45.3412L180.964 46.8052C180.756 46.6292 180.519 46.4772 180.252 46.3492C179.985 46.2212 179.703 46.1225 179.404 46.0532C179.111 45.9838 178.82 45.9492 178.532 45.9492C178.111 45.9492 177.769 46.0238 177.508 46.1732C177.252 46.3225 177.124 46.5332 177.124 46.8052C177.124 47.0772 177.244 47.2798 177.484 47.4132C177.724 47.5412 178.159 47.6772 178.788 47.8212C179.855 48.0505 180.617 48.3545 181.076 48.7332C181.535 49.1118 181.764 49.6425 181.764 50.3252C181.764 50.8478 181.623 51.3038 181.34 51.6932C181.057 52.0772 180.663 52.3785 180.156 52.5972C179.655 52.8105 179.071 52.9172 178.404 52.9172ZM190.174 52.9252C189.465 52.9252 188.836 52.7838 188.286 52.5012C187.737 52.2185 187.305 51.8345 186.99 51.3492C186.676 50.8585 186.518 50.2985 186.518 49.6692C186.518 49.2158 186.62 48.7892 186.822 48.3892C187.025 47.9892 187.313 47.6292 187.686 47.3092C188.065 46.9838 188.518 46.7145 189.046 46.5012C188.737 46.1812 188.492 45.8905 188.31 45.6292C188.129 45.3625 187.998 45.1012 187.918 44.8452C187.838 44.5838 187.798 44.3065 187.798 44.0132C187.798 43.5012 187.937 43.0372 188.214 42.6212C188.497 42.1998 188.873 41.8665 189.342 41.6212C189.817 41.3705 190.342 41.2452 190.918 41.2452C191.51 41.2452 192.038 41.3598 192.502 41.5892C192.972 41.8132 193.342 42.1252 193.614 42.5252C193.886 42.9252 194.022 43.3892 194.022 43.9172C194.022 44.4985 193.822 45.0265 193.422 45.5012C193.028 45.9705 192.438 46.3998 191.654 46.7892L193.814 49.0132C194.118 48.6345 194.393 48.2078 194.638 47.7332C194.889 47.2532 195.124 46.6852 195.342 46.0292L196.974 46.6772C196.836 47.0825 196.657 47.4985 196.438 47.9252C196.22 48.3518 195.98 48.7652 195.718 49.1652C195.457 49.5598 195.188 49.9145 194.91 50.2292L197.198 52.6852H194.846L193.702 51.4852C193.206 51.9385 192.646 52.2932 192.022 52.5492C191.404 52.7998 190.788 52.9252 190.174 52.9252ZM190.318 51.2292C190.734 51.2292 191.134 51.1465 191.518 50.9812C191.908 50.8158 192.265 50.5732 192.59 50.2532L190.102 47.6612C189.569 47.8532 189.156 48.1198 188.862 48.4612C188.569 48.8025 188.422 49.1838 188.422 49.6052C188.422 50.0958 188.593 50.4905 188.934 50.7892C189.281 51.0825 189.742 51.2292 190.318 51.2292ZM190.63 45.7732C191.18 45.5705 191.59 45.3225 191.862 45.0292C192.14 44.7358 192.278 44.4105 192.278 44.0532C192.278 43.6798 192.153 43.3758 191.902 43.1412C191.657 42.9065 191.334 42.7892 190.934 42.7892C190.545 42.7892 190.22 42.9038 189.958 43.1332C189.702 43.3625 189.574 43.6585 189.574 44.0212C189.574 44.3038 189.654 44.5785 189.814 44.8452C189.98 45.1118 190.252 45.4212 190.63 45.7732ZM202.384 52.6852V41.4852H209.456V43.3892H204.464V46.3092H208.968V48.1492H204.464V52.6852H202.384ZM211.207 52.6852V44.6852H213.255V52.6852H211.207ZM212.231 43.3412C211.879 43.3412 211.575 43.2292 211.319 43.0052C211.063 42.7812 210.935 42.4852 210.935 42.1172C210.935 41.7492 211.063 41.4532 211.319 41.2292C211.575 41.0052 211.879 40.8932 212.231 40.8932C212.583 40.8932 212.887 41.0052 213.143 41.2292C213.399 41.4532 213.527 41.7492 213.527 42.1172C213.527 42.4852 213.399 42.7812 213.143 43.0052C212.887 43.2292 212.583 43.3412 212.231 43.3412ZM218.71 52.9252C217.888 52.9252 217.238 52.6905 216.758 52.2212C216.278 51.7518 216.038 51.0425 216.038 50.0932V42.3652H218.086V44.6852H220.19V46.3492H218.086V49.6852C218.086 50.1972 218.187 50.5598 218.39 50.7732C218.592 50.9812 218.872 51.0852 219.23 51.0852C219.411 51.0852 219.582 51.0638 219.742 51.0212C219.907 50.9785 220.059 50.9225 220.198 50.8532L220.518 52.4852C220.283 52.6078 220.008 52.7118 219.694 52.7972C219.379 52.8825 219.051 52.9252 218.71 52.9252ZM214.35 46.3492V44.6852H216.27V46.3492H214.35ZM221.942 52.6852V44.6852H223.99V45.6452C224.31 45.2238 224.684 44.9198 225.11 44.7332C225.542 44.5412 225.993 44.4452 226.462 44.4452C227.198 44.4452 227.806 44.5918 228.286 44.8852C228.772 45.1785 229.132 45.5545 229.366 46.0132C229.601 46.4718 229.718 46.9518 229.718 47.4532V52.6852H227.67V48.0932C227.67 47.5492 227.513 47.1172 227.198 46.7972C226.884 46.4772 226.444 46.3172 225.878 46.3172C225.51 46.3172 225.182 46.3998 224.894 46.5652C224.612 46.7252 224.39 46.9518 224.23 47.2452C224.07 47.5385 223.99 47.8772 223.99 48.2612V52.6852H221.942ZM235.381 52.9252C234.511 52.9252 233.749 52.7492 233.093 52.3972C232.437 52.0398 231.925 51.5438 231.557 50.9092C231.194 50.2745 231.013 49.5358 231.013 48.6932C231.013 48.0745 231.117 47.5065 231.325 46.9892C231.538 46.4718 231.837 46.0238 232.221 45.6452C232.61 45.2612 233.063 44.9652 233.581 44.7572C234.103 44.5492 234.674 44.4452 235.293 44.4452C235.965 44.4452 236.565 44.5652 237.093 44.8052C237.621 45.0398 238.058 45.3732 238.405 45.8052C238.757 46.2318 239.002 46.7332 239.141 47.3092C239.285 47.8798 239.303 48.5038 239.197 49.1812H232.941C232.935 49.6025 233.034 49.9705 233.237 50.2852C233.445 50.5998 233.738 50.8478 234.117 51.0292C234.501 51.2052 234.951 51.2932 235.469 51.2932C235.927 51.2932 236.367 51.2265 236.789 51.0932C237.21 50.9598 237.602 50.7625 237.965 50.5012L238.685 51.9332C238.434 52.1358 238.122 52.3118 237.749 52.4612C237.375 52.6105 236.981 52.7252 236.565 52.8052C236.154 52.8852 235.759 52.9252 235.381 52.9252ZM233.061 47.7252H237.213C237.197 47.1865 237.018 46.7652 236.677 46.4612C236.335 46.1518 235.858 45.9972 235.245 45.9972C234.637 45.9972 234.135 46.1518 233.741 46.4612C233.346 46.7652 233.119 47.1865 233.061 47.7252ZM243.43 52.9172C242.742 52.9172 242.102 52.8238 241.51 52.6372C240.924 52.4505 240.425 52.1945 240.014 51.8692L240.726 50.4132C241.121 50.6958 241.556 50.9198 242.03 51.0852C242.505 51.2505 242.969 51.3332 243.422 51.3332C243.902 51.3332 244.276 51.2532 244.542 51.0932C244.809 50.9332 244.942 50.7092 244.942 50.4212C244.942 50.1492 244.825 49.9492 244.59 49.8212C244.356 49.6932 243.913 49.5598 243.262 49.4212C242.228 49.2185 241.476 48.9198 241.006 48.5252C240.537 48.1252 240.302 47.5758 240.302 46.8772C240.302 46.3812 240.438 45.9438 240.71 45.5652C240.988 45.1865 241.366 44.8932 241.846 44.6852C242.332 44.4718 242.889 44.3652 243.518 44.3652C244.132 44.3652 244.71 44.4505 245.254 44.6212C245.804 44.7918 246.276 45.0318 246.67 45.3412L245.99 46.8052C245.782 46.6292 245.545 46.4772 245.278 46.3492C245.012 46.2212 244.729 46.1225 244.43 46.0532C244.137 45.9838 243.846 45.9492 243.558 45.9492C243.137 45.9492 242.796 46.0238 242.534 46.1732C242.278 46.3225 242.15 46.5332 242.15 46.8052C242.15 47.0772 242.27 47.2798 242.51 47.4132C242.75 47.5412 243.185 47.6772 243.814 47.8212C244.881 48.0505 245.644 48.3545 246.102 48.7332C246.561 49.1118 246.79 49.6425 246.79 50.3252C246.79 50.8478 246.649 51.3038 246.366 51.6932C246.084 52.0772 245.689 52.3785 245.182 52.5972C244.681 52.8105 244.097 52.9172 243.43 52.9172ZM251.017 52.9172C250.329 52.9172 249.689 52.8238 249.097 52.6372C248.51 52.4505 248.011 52.1945 247.601 51.8692L248.313 50.4132C248.707 50.6958 249.142 50.9198 249.617 51.0852C250.091 51.2505 250.555 51.3332 251.009 51.3332C251.489 51.3332 251.862 51.2532 252.129 51.0932C252.395 50.9332 252.529 50.7092 252.529 50.4212C252.529 50.1492 252.411 49.9492 252.177 49.8212C251.942 49.6932 251.499 49.5598 250.849 49.4212C249.814 49.2185 249.062 48.9198 248.593 48.5252C248.123 48.1252 247.889 47.5758 247.889 46.8772C247.889 46.3812 248.025 45.9438 248.297 45.5652C248.574 45.1865 248.953 44.8932 249.433 44.6852C249.918 44.4718 250.475 44.3652 251.105 44.3652C251.718 44.3652 252.297 44.4505 252.841 44.6212C253.39 44.7918 253.862 45.0318 254.257 45.3412L253.577 46.8052C253.369 46.6292 253.131 46.4772 252.865 46.3492C252.598 46.2212 252.315 46.1225 252.017 46.0532C251.723 45.9838 251.433 45.9492 251.145 45.9492C250.723 45.9492 250.382 46.0238 250.121 46.1732C249.865 46.3225 249.737 46.5332 249.737 46.8052C249.737 47.0772 249.857 47.2798 250.097 47.4132C250.337 47.5412 250.771 47.6772 251.401 47.8212C252.467 48.0505 253.23 48.3545 253.689 48.7332C254.147 49.1118 254.377 49.6425 254.377 50.3252C254.377 50.8478 254.235 51.3038 253.953 51.6932C253.67 52.0772 253.275 52.3785 252.769 52.5972C252.267 52.8105 251.683 52.9172 251.017 52.9172Z" fill="#1B1A1F"/>
<g filter="url(#filter1_f_6146_182)">
<circle cx="83.7603" cy="57.8087" r="6.04938" fill="#8059F0" fill-opacity="0.3"/>
</g>
<rect x="58.0508" y="26.0494" width="42.3457" height="42.3457" rx="12.0988" fill="#8059F0" fill-opacity="0.05"/>
<rect x="58.8008" y="26.7994" width="40.8457" height="40.8457" rx="11.3488" stroke="#8059F0" stroke-opacity="0.2" stroke-width="1.5"/>
<path d="M72.2366 37.0681C67.9036 37.6488 65.1412 41.9849 66.2425 46.4708C66.9196 49.2523 69.9437 52.989 74.8636 57.1284C75.9378 58.0368 76.0461 58.1024 76.0913 57.9151C76.1183 57.8027 76.1996 56.6508 76.2628 55.3584L76.3801 52.9984L76.0461 52.6893C74.7191 51.4437 73.1935 48.9432 72.4804 46.8548C72.1464 45.8808 71.7492 44.2887 71.7492 43.9422C71.7492 43.3241 72.2457 42.9027 72.9498 42.9214C73.5004 42.9401 73.7261 43.193 74.1414 44.2325C75.1253 46.6956 76.4975 48.5873 78.1404 49.7018C78.9529 50.2543 79.8105 50.5634 81.2729 50.8256C84.4505 51.3969 85.5157 52.0712 85.94 53.7757C85.9941 54.0379 86.0663 54.2627 86.0754 54.2908C86.0934 54.3095 86.6983 53.7195 87.4204 52.9796C91.1848 49.0931 92.25 47.2294 92.25 44.5041C92.25 41.4323 90.4084 38.6321 87.6461 37.5364C86.6351 37.1337 85.9941 37.0213 84.8838 37.0307C82.8165 37.0494 80.8486 37.9672 79.5487 39.5312L79.1244 40.0463L78.4383 39.3251C76.7683 37.5551 74.5657 36.7497 72.2366 37.0681ZM76.1815 41.6196C76.4523 41.7882 76.6871 42.219 76.9398 43.0244C77.0843 43.4833 77.0843 43.5208 76.9127 43.9235C76.6871 44.4573 76.2989 44.6914 75.7753 44.6165C75.2788 44.5416 74.9267 44.1295 74.6469 43.2679C74.4483 42.6779 74.4393 42.5561 74.5295 42.2284C74.7281 41.5541 75.5677 41.245 76.1815 41.6196ZM81.7062 43.9422C82.9249 44.27 83.7012 45.1971 83.8186 46.4521C84.0533 49.1212 81.0201 50.7039 79.1695 48.8777C78.4744 48.194 78.2939 47.7632 78.2939 46.7518C78.2939 46.0587 78.33 45.8433 78.5015 45.5155C78.9348 44.6633 79.5487 44.1389 80.3611 43.9328C80.975 43.7736 81.1014 43.783 81.7062 43.9422ZM70.6117 44.1295C70.9548 44.3636 71.4242 45.5998 71.361 46.1243C71.2617 47.0889 70.1513 47.4822 69.5104 46.7705C69.2847 46.527 68.8604 45.3751 68.8604 45.0286C68.8604 44.8974 68.9417 44.6446 69.041 44.476C69.366 43.9235 70.0701 43.7643 70.6117 44.1295Z" fill="#4E2EAB"/>
<path d="M253 26V26C259.682 26 265.099 31.4168 265.099 38.0988V38.0988" stroke="#8059F0" stroke-width="2.26852" stroke-linecap="round"/>
<defs>
<filter id="filter0_dddddd_6146_182" x="0" y="0" width="324" height="158" filterUnits="userSpaceOnUse" color-interpolation-filters="sRGB">
<feFlood flood-opacity="0" result="BackgroundImageFix"/>
<feColorMatrix in="SourceAlpha" type="matrix" values="0 0 0 0 0 0 0 0 0 0 0 0 0 0 0 0 0 0 127 0" result="hardAlpha"/>
<feMorphology radius="4" operator="erode" in="SourceAlpha" result="effect1_dropShadow_6146_182"/>
<feOffset dy="5"/>
<feGaussianBlur stdDeviation="0.75"/>
<feComposite in2="hardAlpha" operator="out"/>
<feColorMatrix type="matrix" values="0 0 0 0 0.0313726 0 0 0 0 0.0313726 0 0 0 0 0.0313726 0 0 0 0.05 0"/>
<feBlend mode="normal" in2="BackgroundImageFix" result="effect1_dropShadow_6146_182"/>
<feColorMatrix in="SourceAlpha" type="matrix" values="0 0 0 0 0 0 0 0 0 0 0 0 0 0 0 0 0 0 127 0" result="hardAlpha"/>
<feMorphology radius="4" operator="erode" in="SourceAlpha" result="effect2_dropShadow_6146_182"/>
<feOffset dy="6"/>
<feGaussianBlur stdDeviation="2"/>
<feComposite in2="hardAlpha" operator="out"/>
<feColorMatrix type="matrix" values="0 0 0 0 0.0313726 0 0 0 0 0.0313726 0 0 0 0 0.0313726 0 0 0 0.05 0"/>
<feBlend mode="normal" in2="effect1_dropShadow_6146_182" result="effect2_dropShadow_6146_182"/>
<feColorMatrix in="SourceAlpha" type="matrix" values="0 0 0 0 0 0 0 0 0 0 0 0 0 0 0 0 0 0 127 0" result="hardAlpha"/>
<feOffset dy="6"/>
<feGaussianBlur stdDeviation="6.5"/>
<feComposite in2="hardAlpha" operator="out"/>
<feColorMatrix type="matrix" values="0 0 0 0 0.0313726 0 0 0 0 0.0313726 0 0 0 0 0.0313726 0 0 0 0.03 0"/>
<feBlend mode="normal" in2="effect2_dropShadow_6146_182" result="effect3_dropShadow_6146_182"/>
<feColorMatrix in="SourceAlpha" type="matrix" values="0 0 0 0 0 0 0 0 0 0 0 0 0 0 0 0 0 0 127 0" result="hardAlpha"/>
<feMorphology radius="16" operator="erode" in="SourceAlpha" result="effect4_dropShadow_6146_182"/>
<feOffset dy="24"/>
<feGaussianBlur stdDeviation="12"/>
<feComposite in2="hardAlpha" operator="out"/>
<feColorMatrix type="matrix" values="0 0 0 0 0.0313726 0 0 0 0 0.0313726 0 0 0 0 0.0313726 0 0 0 0.04 0"/>
<feBlend mode="normal" in2="effect3_dropShadow_6146_182" result="effect4_dropShadow_6146_182"/>
<feColorMatrix in="SourceAlpha" type="matrix" values="0 0 0 0 0 0 0 0 0 0 0 0 0 0 0 0 0 0 127 0" result="hardAlpha"/>
<feMorphology radius="2" operator="erode" in="SourceAlpha" result="effect5_dropShadow_6146_182"/>
<feOffset dy="2.15"/>
<feGaussianBlur stdDeviation="0.25"/>
<feComposite in2="hardAlpha" operator="out"/>
<feColorMatrix type="matrix" values="0 0 0 0 0 0 0 0 0 0 0 0 0 0 0 0 0 0 0.25 0"/>
<feBlend mode="normal" in2="effect4_dropShadow_6146_182" result="effect5_dropShadow_6146_182"/>
<feColorMatrix in="SourceAlpha" type="matrix" values="0 0 0 0 0 0 0 0 0 0 0 0 0 0 0 0 0 0 127 0" result="hardAlpha"/>
<feMorphology radius="12" operator="erode" in="SourceAlpha" result="effect6_dropShadow_6146_182"/>
<feOffset dy="32"/>
<feGaussianBlur stdDeviation="32"/>
<feComposite in2="hardAlpha" operator="out"/>
<feColorMatrix type="matrix" values="0 0 0 0 0 0 0 0 0 0 0 0 0 0 0 0 0 0 0.075 0"/>
<feBlend mode="multiply" in2="effect5_dropShadow_6146_182" result="effect6_dropShadow_6146_182"/>
<feBlend mode="normal" in="SourceGraphic" in2="effect6_dropShadow_6146_182" result="shape"/>
</filter>
<filter id="filter1_f_6146_182" x="74.6862" y="48.7346" width="18.148" height="18.1481" filterUnits="userSpaceOnUse" color-interpolation-filters="sRGB">
<feFlood flood-opacity="0" result="BackgroundImageFix"/>
<feBlend mode="normal" in="SourceGraphic" in2="BackgroundImageFix" result="shape"/>
<feGaussianBlur stdDeviation="1.51235" result="effect1_foregroundBlur_6146_182"/>
</filter>
<linearGradient id="paint0_linear_6146_182" x1="162" y1="20" x2="162" y2="74" gradientUnits="userSpaceOnUse">
<stop stop-color="#F6F6F6"/>
<stop offset="1" stop-color="#E6E6E6"/>
</linearGradient>
</defs>
</svg>
