<svg width="43" height="43" viewBox="0 0 43 43" fill="none" xmlns="http://www.w3.org/2000/svg">
<g filter="url(#filter0_f_5418_37931)">
<circle cx="25.7603" cy="31.8087" r="6.04938" fill="#8059F0" fill-opacity="0.3"/>
</g>
<rect x="0.0507812" y="0.0494385" width="42.3457" height="42.3457" rx="12.0988" fill="#8059F0" fill-opacity="0.05"/>
<rect x="0.800781" y="0.799438" width="40.8457" height="40.8457" rx="11.3488" stroke="#8059F0" stroke-opacity="0.2" stroke-width="1.5"/>
<path d="M14.2366 11.0681C9.90356 11.6488 7.14122 15.9849 8.24255 20.4708C8.91959 23.2523 11.9437 26.989 16.8636 31.1284C17.9378 32.0368 18.0461 32.1024 18.0913 31.9151C18.1183 31.8027 18.1996 30.6508 18.2628 29.3584L18.3801 26.9984L18.0461 26.6893C16.7191 25.4437 15.1935 22.9432 14.4804 20.8548C14.1464 19.8808 13.7492 18.2887 13.7492 17.9422C13.7492 17.3241 14.2457 16.9027 14.9498 16.9214C15.5004 16.9401 15.7261 17.193 16.1414 18.2325C17.1253 20.6956 18.4975 22.5873 20.1404 23.7018C20.9529 24.2543 21.8105 24.5634 23.2729 24.8256C26.4505 25.3969 27.5157 26.0712 27.94 27.7757C27.9941 28.0379 28.0663 28.2627 28.0754 28.2908C28.0934 28.3095 28.6983 27.7195 29.4204 26.9796C33.1848 23.0931 34.25 21.2294 34.25 18.5041C34.25 15.4323 32.4084 12.6321 29.6461 11.5364C28.6351 11.1337 27.9941 11.0213 26.8838 11.0307C24.8165 11.0494 22.8486 11.9672 21.5487 13.5312L21.1244 14.0463L20.4383 13.3251C18.7683 11.5551 16.5657 10.7497 14.2366 11.0681ZM18.1815 15.6196C18.4523 15.7882 18.6871 16.219 18.9398 17.0244C19.0843 17.4833 19.0843 17.5208 18.9127 17.9235C18.6871 18.4573 18.2989 18.6914 17.7753 18.6165C17.2788 18.5416 16.9267 18.1295 16.6469 17.2679C16.4483 16.6779 16.4393 16.5561 16.5295 16.2284C16.7281 15.5541 17.5677 15.245 18.1815 15.6196ZM23.7062 17.9422C24.9249 18.27 25.7012 19.1971 25.8186 20.4521C26.0533 23.1212 23.0201 24.7039 21.1695 22.8777C20.4744 22.194 20.2939 21.7632 20.2939 20.7518C20.2939 20.0587 20.33 19.8433 20.5015 19.5155C20.9348 18.6633 21.5487 18.1389 22.3611 17.9328C22.975 17.7736 23.1014 17.783 23.7062 17.9422ZM12.6117 18.1295C12.9548 18.3636 13.4242 19.5998 13.361 20.1243C13.2617 21.0889 12.1513 21.4822 11.5104 20.7705C11.2847 20.527 10.8604 19.3751 10.8604 19.0286C10.8604 18.8974 10.9417 18.6446 11.041 18.476C11.366 17.9235 12.0701 17.7643 12.6117 18.1295Z" fill="#4E2EAB"/>
<defs>
<filter id="filter0_f_5418_37931" x="16.6862" y="22.7346" width="18.148" height="18.1481" filterUnits="userSpaceOnUse" color-interpolation-filters="sRGB">
<feFlood flood-opacity="0" result="BackgroundImageFix"/>
<feBlend mode="normal" in="SourceGraphic" in2="BackgroundImageFix" result="shape"/>
<feGaussianBlur stdDeviation="1.51235" result="effect1_foregroundBlur_5418_37931"/>
</filter>
</defs>
</svg>
