<svg width="304" height="158" viewBox="0 0 304 158" fill="none" xmlns="http://www.w3.org/2000/svg">
<g filter="url(#filter0_dddddd_6146_155)">
<rect x="52" y="20" width="200" height="54" rx="18.1482" fill="#F1F1F1"/>
<rect x="53.1343" y="21.1343" width="197.731" height="51.7315" rx="17.0139" stroke="url(#paint0_linear_6146_155)" stroke-width="2.26852"/>
</g>
<path d="M120.992 53V48.216L117.048 41.8H119.408L122.08 46.216L124.728 41.8H127.024L123.08 48.232V53H120.992ZM130.584 53.24C129.73 53.24 128.973 53.048 128.312 52.664C127.656 52.2747 127.141 51.76 126.768 51.12C126.394 50.4747 126.208 49.768 126.208 49C126.208 48.4347 126.314 47.896 126.528 47.384C126.741 46.872 127.042 46.4213 127.432 46.032C127.826 45.6373 128.29 45.328 128.824 45.104C129.357 44.8747 129.944 44.76 130.584 44.76C131.432 44.76 132.184 44.952 132.84 45.336C133.501 45.72 134.018 46.2347 134.392 46.88C134.77 47.5253 134.96 48.232 134.96 49C134.96 49.5653 134.85 50.104 134.632 50.616C134.418 51.1227 134.117 51.5733 133.728 51.968C133.338 52.3627 132.877 52.6747 132.344 52.904C131.81 53.128 131.224 53.24 130.584 53.24ZM130.576 51.448C131.029 51.448 131.432 51.3493 131.784 51.152C132.141 50.9493 132.421 50.6667 132.624 50.304C132.826 49.936 132.928 49.5013 132.928 49C132.928 48.4987 132.826 48.064 132.624 47.696C132.421 47.328 132.144 47.0453 131.792 46.848C131.44 46.6507 131.037 46.552 130.584 46.552C130.13 46.552 129.725 46.6507 129.368 46.848C129.016 47.0453 128.738 47.328 128.536 47.696C128.338 48.064 128.24 48.4987 128.24 49C128.24 49.5013 128.341 49.936 128.544 50.304C128.746 50.6667 129.024 50.9493 129.376 51.152C129.728 51.3493 130.128 51.448 130.576 51.448ZM139.461 56.6C138.864 56.6 138.325 56.5467 137.845 56.44C137.365 56.3387 136.955 56.1893 136.613 55.992C136.277 55.7947 136.019 55.5573 135.837 55.28C135.661 55.008 135.573 54.7013 135.573 54.36C135.573 54.088 135.645 53.832 135.789 53.592C135.939 53.3573 136.155 53.1547 136.437 52.984C136.725 52.808 137.077 52.6773 137.493 52.592C137.179 52.4267 136.947 52.24 136.797 52.032C136.648 51.824 136.573 51.5867 136.573 51.32C136.573 51.0853 136.64 50.864 136.773 50.656C136.912 50.448 137.107 50.2613 137.357 50.096C137.608 49.9307 137.904 49.7973 138.245 49.696C138.587 49.5947 138.96 49.5387 139.365 49.528L139.781 50.368C139.461 50.3627 139.189 50.3867 138.965 50.44C138.747 50.488 138.581 50.5573 138.469 50.648C138.357 50.7387 138.301 50.848 138.301 50.976C138.301 51.136 138.395 51.256 138.581 51.336C138.773 51.416 139.059 51.472 139.437 51.504L140.805 51.616C141.472 51.6693 142.045 51.7787 142.525 51.944C143.011 52.1093 143.381 52.344 143.637 52.648C143.899 52.952 144.029 53.3387 144.029 53.808C144.029 54.2027 143.92 54.5707 143.701 54.912C143.483 55.2533 143.171 55.5493 142.765 55.8C142.365 56.0507 141.885 56.2453 141.325 56.384C140.765 56.528 140.144 56.6 139.461 56.6ZM139.709 55.24C140.451 55.24 141.035 55.1307 141.461 54.912C141.888 54.6987 142.101 54.424 142.101 54.088C142.101 53.8213 141.963 53.616 141.685 53.472C141.408 53.3333 140.984 53.2427 140.413 53.2L138.925 53.088C138.605 53.1147 138.333 53.1733 138.109 53.264C137.885 53.3547 137.715 53.472 137.597 53.616C137.48 53.7653 137.421 53.9307 137.421 54.112C137.421 54.336 137.512 54.5307 137.693 54.696C137.88 54.8667 138.144 55 138.485 55.096C138.827 55.192 139.235 55.24 139.709 55.24ZM139.629 50.48C138.947 50.48 138.339 50.3547 137.805 50.104C137.272 49.848 136.851 49.504 136.541 49.072C136.237 48.64 136.085 48.1547 136.085 47.616C136.085 47.0827 136.24 46.6 136.549 46.168C136.859 45.736 137.28 45.3947 137.813 45.144C138.347 44.888 138.952 44.76 139.629 44.76C140.301 44.76 140.904 44.888 141.437 45.144C141.971 45.3947 142.392 45.736 142.701 46.168C143.011 46.5947 143.165 47.0773 143.165 47.616C143.165 48.144 143.011 48.6267 142.701 49.064C142.397 49.496 141.979 49.84 141.445 50.096C140.912 50.352 140.307 50.48 139.629 50.48ZM139.629 49.008C139.965 49.008 140.264 48.9493 140.525 48.832C140.787 48.7147 140.992 48.552 141.141 48.344C141.291 48.1307 141.365 47.888 141.365 47.616C141.365 47.2 141.203 46.864 140.877 46.608C140.552 46.352 140.136 46.224 139.629 46.224C139.288 46.224 138.987 46.2827 138.725 46.4C138.464 46.5173 138.259 46.68 138.109 46.888C137.965 47.096 137.893 47.3387 137.893 47.616C137.893 48.0267 138.056 48.3627 138.381 48.624C138.707 48.88 139.123 49.008 139.629 49.008ZM140.861 46.584L140.093 45.2L144.533 45L144.525 46.664L140.861 46.584ZM147.87 53.24C147.326 53.24 146.843 53.136 146.422 52.928C146.001 52.72 145.67 52.4267 145.43 52.048C145.19 51.664 145.07 51.2107 145.07 50.688C145.07 50.24 145.182 49.84 145.406 49.488C145.63 49.136 145.974 48.8453 146.438 48.616C146.902 48.3813 147.494 48.224 148.214 48.144C148.939 48.064 149.798 48.0747 150.79 48.176L150.822 49.528C150.171 49.4267 149.603 49.3813 149.118 49.392C148.633 49.4027 148.23 49.4587 147.91 49.56C147.595 49.6613 147.358 49.8 147.198 49.976C147.043 50.152 146.966 50.3573 146.966 50.592C146.966 50.944 147.094 51.216 147.35 51.408C147.606 51.5947 147.955 51.688 148.398 51.688C148.777 51.688 149.115 51.6187 149.414 51.48C149.718 51.3413 149.958 51.1467 150.134 50.896C150.31 50.64 150.398 50.3387 150.398 49.992V47.968C150.398 47.632 150.326 47.3413 150.182 47.096C150.043 46.8453 149.83 46.6533 149.542 46.52C149.254 46.3813 148.883 46.312 148.43 46.312C148.014 46.312 147.601 46.376 147.19 46.504C146.785 46.6267 146.403 46.8187 146.046 47.08L145.494 45.616C146.001 45.28 146.534 45.04 147.094 44.896C147.654 44.752 148.195 44.68 148.718 44.68C149.465 44.68 150.11 44.7973 150.654 45.032C151.203 45.2667 151.625 45.6267 151.918 46.112C152.217 46.592 152.366 47.2027 152.366 47.944V53H150.558V52.088C150.291 52.456 149.923 52.7413 149.454 52.944C148.985 53.1413 148.457 53.24 147.87 53.24ZM158.066 53V41.8H160.146V53H158.066ZM162.42 53V45H164.468V45.96C164.788 45.5387 165.162 45.2347 165.588 45.048C166.02 44.856 166.471 44.76 166.94 44.76C167.676 44.76 168.284 44.9067 168.764 45.2C169.25 45.4933 169.61 45.8693 169.844 46.328C170.079 46.7867 170.196 47.2667 170.196 47.768V53H168.148V48.408C168.148 47.864 167.991 47.432 167.676 47.112C167.362 46.792 166.922 46.632 166.356 46.632C165.988 46.632 165.66 46.7147 165.372 46.88C165.09 47.04 164.868 47.2667 164.708 47.56C164.548 47.8533 164.468 48.192 164.468 48.576V53H162.42ZM174.963 53.232C174.275 53.232 173.635 53.1387 173.043 52.952C172.456 52.7653 171.957 52.5093 171.547 52.184L172.259 50.728C172.653 51.0107 173.088 51.2347 173.563 51.4C174.037 51.5653 174.501 51.648 174.955 51.648C175.435 51.648 175.808 51.568 176.075 51.408C176.341 51.248 176.475 51.024 176.475 50.736C176.475 50.464 176.357 50.264 176.123 50.136C175.888 50.008 175.445 49.8747 174.795 49.736C173.76 49.5333 173.008 49.2347 172.539 48.84C172.069 48.44 171.835 47.8907 171.835 47.192C171.835 46.696 171.971 46.2587 172.243 45.88C172.52 45.5013 172.899 45.208 173.379 45C173.864 44.7867 174.421 44.68 175.051 44.68C175.664 44.68 176.243 44.7653 176.787 44.936C177.336 45.1067 177.808 45.3467 178.203 45.656L177.523 47.12C177.315 46.944 177.077 46.792 176.811 46.664C176.544 46.536 176.261 46.4373 175.963 46.368C175.669 46.2987 175.379 46.264 175.091 46.264C174.669 46.264 174.328 46.3387 174.067 46.488C173.811 46.6373 173.683 46.848 173.683 47.12C173.683 47.392 173.803 47.5947 174.043 47.728C174.283 47.856 174.717 47.992 175.347 48.136C176.413 48.3653 177.176 48.6693 177.635 49.048C178.093 49.4267 178.323 49.9573 178.323 50.64C178.323 51.1627 178.181 51.6187 177.899 52.008C177.616 52.392 177.221 52.6933 176.715 52.912C176.213 53.1253 175.629 53.232 174.963 53.232ZM183.321 53.24C182.5 53.24 181.849 53.0053 181.369 52.536C180.889 52.0667 180.649 51.3573 180.649 50.408V42.68H182.697V45H184.801V46.664H182.697V50C182.697 50.512 182.799 50.8747 183.001 51.088C183.204 51.296 183.484 51.4 183.841 51.4C184.023 51.4 184.193 51.3787 184.353 51.336C184.519 51.2933 184.671 51.2373 184.809 51.168L185.129 52.8C184.895 52.9227 184.62 53.0267 184.305 53.112C183.991 53.1973 183.663 53.24 183.321 53.24ZM178.961 46.664V45H180.881V46.664H178.961ZM186.554 53V45H188.602V46.048C188.879 45.5787 189.226 45.2453 189.642 45.048C190.063 44.8507 190.517 44.752 191.002 44.752C191.173 44.752 191.33 44.76 191.474 44.776C191.618 44.792 191.757 44.816 191.89 44.848L191.634 46.96C191.469 46.9013 191.295 46.8587 191.114 46.832C190.938 46.8 190.762 46.784 190.586 46.784C190.01 46.784 189.535 46.9573 189.162 47.304C188.789 47.6453 188.602 48.1253 188.602 48.744V53H186.554ZM196.088 53.24C195.368 53.24 194.771 53.096 194.296 52.808C193.827 52.52 193.477 52.136 193.248 51.656C193.019 51.1707 192.904 50.6293 192.904 50.032V45H194.952V49.68C194.952 50.192 195.099 50.6027 195.392 50.912C195.685 51.216 196.099 51.368 196.632 51.368C196.973 51.368 197.28 51.2907 197.552 51.136C197.824 50.976 198.037 50.7573 198.192 50.48C198.347 50.2027 198.424 49.88 198.424 49.512V45H200.472V53H198.664V52.088C198.371 52.4347 198.013 52.7147 197.592 52.928C197.176 53.136 196.675 53.24 196.088 53.24ZM206.22 53.24C205.372 53.24 204.617 53.056 203.956 52.688C203.3 52.3147 202.782 51.8107 202.404 51.176C202.025 50.536 201.836 49.8107 201.836 49C201.836 48.3867 201.948 47.824 202.172 47.312C202.396 46.7947 202.71 46.3467 203.116 45.968C203.521 45.584 203.996 45.288 204.54 45.08C205.089 44.8667 205.686 44.76 206.332 44.76C206.892 44.76 207.412 44.8347 207.892 44.984C208.372 45.1333 208.812 45.3627 209.212 45.672L208.26 47.216C208.009 46.992 207.724 46.8267 207.404 46.72C207.089 46.608 206.758 46.552 206.412 46.552C205.889 46.552 205.438 46.648 205.06 46.84C204.686 47.032 204.398 47.3093 204.196 47.672C203.993 48.0347 203.892 48.4747 203.892 48.992C203.892 49.76 204.116 50.3627 204.564 50.8C205.017 51.232 205.633 51.448 206.412 51.448C206.801 51.448 207.169 51.376 207.516 51.232C207.862 51.088 208.164 50.8907 208.42 50.64L209.332 52.192C208.894 52.5173 208.406 52.7733 207.868 52.96C207.329 53.1467 206.78 53.24 206.22 53.24ZM213.963 53.24C213.142 53.24 212.491 53.0053 212.011 52.536C211.531 52.0667 211.291 51.3573 211.291 50.408V42.68H213.339V45H215.443V46.664H213.339V50C213.339 50.512 213.44 50.8747 213.643 51.088C213.846 51.296 214.126 51.4 214.483 51.4C214.664 51.4 214.835 51.3787 214.995 51.336C215.16 51.2933 215.312 51.2373 215.451 51.168L215.771 52.8C215.536 52.9227 215.262 53.0267 214.947 53.112C214.632 53.1973 214.304 53.24 213.963 53.24ZM209.603 46.664V45H211.523V46.664H209.603ZM220.869 53.24C220.015 53.24 219.258 53.048 218.597 52.664C217.941 52.2747 217.426 51.76 217.053 51.12C216.679 50.4747 216.493 49.768 216.493 49C216.493 48.4347 216.599 47.896 216.813 47.384C217.026 46.872 217.327 46.4213 217.717 46.032C218.111 45.6373 218.575 45.328 219.109 45.104C219.642 44.8747 220.229 44.76 220.869 44.76C221.717 44.76 222.469 44.952 223.125 45.336C223.786 45.72 224.303 46.2347 224.677 46.88C225.055 47.5253 225.245 48.232 225.245 49C225.245 49.5653 225.135 50.104 224.917 50.616C224.703 51.1227 224.402 51.5733 224.013 51.968C223.623 52.3627 223.162 52.6747 222.629 52.904C222.095 53.128 221.509 53.24 220.869 53.24ZM220.861 51.448C221.314 51.448 221.717 51.3493 222.069 51.152C222.426 50.9493 222.706 50.6667 222.909 50.304C223.111 49.936 223.213 49.5013 223.213 49C223.213 48.4987 223.111 48.064 222.909 47.696C222.706 47.328 222.429 47.0453 222.077 46.848C221.725 46.6507 221.322 46.552 220.869 46.552C220.415 46.552 220.01 46.6507 219.653 46.848C219.301 47.0453 219.023 47.328 218.821 47.696C218.623 48.064 218.525 48.4987 218.525 49C218.525 49.5013 218.626 49.936 218.829 50.304C219.031 50.6667 219.309 50.9493 219.661 51.152C220.013 51.3493 220.413 51.448 220.861 51.448ZM226.61 53V45H228.658V46.048C228.936 45.5787 229.282 45.2453 229.698 45.048C230.12 44.8507 230.573 44.752 231.058 44.752C231.229 44.752 231.386 44.76 231.53 44.776C231.674 44.792 231.813 44.816 231.946 44.848L231.69 46.96C231.525 46.9013 231.352 46.8587 231.17 46.832C230.994 46.8 230.818 46.784 230.642 46.784C230.066 46.784 229.592 46.9573 229.218 47.304C228.845 47.6453 228.658 48.1253 228.658 48.744V53H226.61ZM235.84 53.232C235.152 53.232 234.512 53.1387 233.92 52.952C233.334 52.7653 232.835 52.5093 232.424 52.184L233.136 50.728C233.531 51.0107 233.966 51.2347 234.44 51.4C234.915 51.5653 235.379 51.648 235.832 51.648C236.312 51.648 236.686 51.568 236.952 51.408C237.219 51.248 237.352 51.024 237.352 50.736C237.352 50.464 237.235 50.264 237 50.136C236.766 50.008 236.323 49.8747 235.672 49.736C234.638 49.5333 233.886 49.2347 233.416 48.84C232.947 48.44 232.712 47.8907 232.712 47.192C232.712 46.696 232.848 46.2587 233.12 45.88C233.398 45.5013 233.776 45.208 234.256 45C234.742 44.7867 235.299 44.68 235.928 44.68C236.542 44.68 237.12 44.7653 237.664 44.936C238.214 45.1067 238.686 45.3467 239.08 45.656L238.4 47.12C238.192 46.944 237.955 46.792 237.688 46.664C237.422 46.536 237.139 46.4373 236.84 46.368C236.547 46.2987 236.256 46.264 235.968 46.264C235.547 46.264 235.206 46.3387 234.944 46.488C234.688 46.6373 234.56 46.848 234.56 47.12C234.56 47.392 234.68 47.5947 234.92 47.728C235.16 47.856 235.595 47.992 236.224 48.136C237.291 48.3653 238.054 48.6693 238.512 49.048C238.971 49.4267 239.2 49.9573 239.2 50.64C239.2 51.1627 239.059 51.6187 238.776 52.008C238.494 52.392 238.099 52.6933 237.592 52.912C237.091 53.1253 236.507 53.232 235.84 53.232Z" fill="#1B1A1F"/>
<g filter="url(#filter1_f_6146_155)">
<circle cx="83.7603" cy="57.8087" r="6.04938" fill="#3DBBFF" fill-opacity="0.3"/>
</g>
<rect x="58" y="26" width="42.3457" height="42.3457" rx="12.0988" fill="#3DBBFF" fill-opacity="0.05"/>
<rect x="58.75" y="26.75" width="40.8457" height="40.8457" rx="11.3488" stroke="#3DBBFF" stroke-opacity="0.2" stroke-width="1.5"/>
<path d="M78.3458 34.9932C77.5294 35.1765 76.7511 35.6269 76.301 36.1767C75.1413 37.6121 75.2481 39.6202 76.5451 40.8953C77.2852 41.6206 78.1703 41.9413 79.2232 41.865C81.0391 41.7428 82.4277 40.2616 82.4277 38.4444C82.4277 36.8104 81.3977 35.4666 79.8107 35.0467C79.4292 34.9474 78.6739 34.9169 78.3458 34.9932Z" fill="#2398D6"/>
<path d="M77.5428 42.6202C76.4212 42.7576 75.4064 43.1318 74.8876 43.5975C74.4069 44.0327 74.0788 44.5748 73.003 46.7356L72.0035 48.7132L70.6759 49.0873C67.1815 50.0417 67.3188 49.9959 67.0899 50.4387C66.8229 50.9579 66.945 51.668 67.3798 52.1032L67.6469 52.3705L68.3412 52.317C68.7227 52.2941 70.0732 52.1185 71.3397 51.9429C73.6516 51.6069 73.8957 51.5459 74.1704 51.2099C74.3153 51.0267 74.9028 49.8585 75.1775 49.1866C75.3988 48.6674 75.4369 48.6063 75.5132 48.7284C75.6353 48.9422 75.6048 51.0343 75.4598 51.7749C75.3988 52.1109 75.353 52.3934 75.3606 52.401C75.3606 52.4086 76.116 52.6377 77.0316 52.9126L78.6949 53.4165L80.3124 52.9278C81.2051 52.6682 82.052 52.4163 82.1969 52.3781C82.4411 52.3094 82.464 52.2788 82.4487 52.0422C82.319 50.0646 82.3419 48.4917 82.5021 48.6521C82.5326 48.6903 82.6547 48.9422 82.7692 49.2171C83.1278 50.0722 83.6542 51.0801 83.8526 51.2939C84.1196 51.5764 84.2875 51.6146 85.9737 51.8513C86.7748 51.9582 87.904 52.1185 88.4915 52.2025C89.079 52.2865 89.6818 52.3552 89.8344 52.3628C90.4676 52.3705 90.872 51.9124 90.9407 51.1106C90.9865 50.5838 90.8491 50.2631 90.4982 50.0264C90.3532 49.9272 88.2321 49.3164 86.401 48.8506C86.1339 48.7743 85.8821 48.6674 85.8516 48.6063C85.8135 48.5452 85.4015 47.7206 84.936 46.7738C83.906 44.697 83.555 44.0786 83.143 43.6815C82.3572 42.9104 81.4187 42.6508 79.2976 42.6126C78.4812 42.5973 77.6877 42.6049 77.5428 42.6202Z" fill="#2398D6"/>
<path d="M71.6277 53.0953C70.5748 53.2633 70.468 53.2938 70.2391 53.5076C70.1017 53.6374 69.9415 53.8589 69.8728 53.9963C69.7202 54.3246 69.7279 54.9889 69.9034 55.363C70.1551 55.9204 70.9639 56.4625 71.7116 56.5847C72.0092 56.6305 72.0321 56.6228 72.0855 56.4167C72.1847 56.0044 72.5051 55.5692 72.9705 55.2256C73.3139 54.966 73.8022 54.798 75.3587 54.401C76.8388 54.0268 76.8083 54.0345 76.7626 53.9887C76.7397 53.9658 76.0225 53.7596 75.1679 53.5382C72.5356 52.8357 72.9248 52.8892 71.6277 53.0953Z" fill="#2398D6"/>
<path d="M81.7762 53.6527C79.1897 54.3475 76.8244 54.9813 75.0619 55.447C74.6881 55.5463 74.2456 55.6684 74.093 55.7066C73.124 55.9739 72.7349 57.1879 73.3147 58.1194C73.597 58.5775 74.0167 58.8371 74.4897 58.8371C74.6805 58.8371 75.68 58.6615 76.7176 58.4477L78.6098 58.0507L80.8606 58.524C82.9512 58.9669 83.1419 58.9974 83.5158 58.9134C84.088 58.7913 84.4848 58.4935 84.7365 58.0048C84.851 57.7758 84.9425 57.5085 84.9425 57.4093C84.9425 57.1955 84.9273 57.1955 83.6226 57.3558C82.7299 57.4627 82.6231 57.4627 82.5163 57.3558C82.4476 57.2871 82.4171 57.2184 82.44 57.1955C82.4629 57.1726 83.3555 56.9817 84.4161 56.7832C86.7737 56.3327 86.8729 56.3022 87.3307 56.012C88.2157 55.447 88.4751 54.2483 87.8571 53.5687C87.6588 53.355 87.5748 53.332 86.2167 53.1106C85.4309 52.9885 84.7442 52.8816 84.6908 52.8892C84.645 52.8968 83.3327 53.2404 81.7762 53.6527Z" fill="#2398D6"/>
<path d="M234 26V26C240.682 26 246.099 31.4168 246.099 38.0988V38.0988" stroke="#3DBBFF" stroke-width="2.26852" stroke-linecap="round"/>
<defs>
<filter id="filter0_dddddd_6146_155" x="0" y="0" width="304" height="158" filterUnits="userSpaceOnUse" color-interpolation-filters="sRGB">
<feFlood flood-opacity="0" result="BackgroundImageFix"/>
<feColorMatrix in="SourceAlpha" type="matrix" values="0 0 0 0 0 0 0 0 0 0 0 0 0 0 0 0 0 0 127 0" result="hardAlpha"/>
<feMorphology radius="4" operator="erode" in="SourceAlpha" result="effect1_dropShadow_6146_155"/>
<feOffset dy="5"/>
<feGaussianBlur stdDeviation="0.75"/>
<feComposite in2="hardAlpha" operator="out"/>
<feColorMatrix type="matrix" values="0 0 0 0 0.0313726 0 0 0 0 0.0313726 0 0 0 0 0.0313726 0 0 0 0.05 0"/>
<feBlend mode="normal" in2="BackgroundImageFix" result="effect1_dropShadow_6146_155"/>
<feColorMatrix in="SourceAlpha" type="matrix" values="0 0 0 0 0 0 0 0 0 0 0 0 0 0 0 0 0 0 127 0" result="hardAlpha"/>
<feMorphology radius="4" operator="erode" in="SourceAlpha" result="effect2_dropShadow_6146_155"/>
<feOffset dy="6"/>
<feGaussianBlur stdDeviation="2"/>
<feComposite in2="hardAlpha" operator="out"/>
<feColorMatrix type="matrix" values="0 0 0 0 0.0313726 0 0 0 0 0.0313726 0 0 0 0 0.0313726 0 0 0 0.05 0"/>
<feBlend mode="normal" in2="effect1_dropShadow_6146_155" result="effect2_dropShadow_6146_155"/>
<feColorMatrix in="SourceAlpha" type="matrix" values="0 0 0 0 0 0 0 0 0 0 0 0 0 0 0 0 0 0 127 0" result="hardAlpha"/>
<feOffset dy="6"/>
<feGaussianBlur stdDeviation="6.5"/>
<feComposite in2="hardAlpha" operator="out"/>
<feColorMatrix type="matrix" values="0 0 0 0 0.0313726 0 0 0 0 0.0313726 0 0 0 0 0.0313726 0 0 0 0.03 0"/>
<feBlend mode="normal" in2="effect2_dropShadow_6146_155" result="effect3_dropShadow_6146_155"/>
<feColorMatrix in="SourceAlpha" type="matrix" values="0 0 0 0 0 0 0 0 0 0 0 0 0 0 0 0 0 0 127 0" result="hardAlpha"/>
<feMorphology radius="16" operator="erode" in="SourceAlpha" result="effect4_dropShadow_6146_155"/>
<feOffset dy="24"/>
<feGaussianBlur stdDeviation="12"/>
<feComposite in2="hardAlpha" operator="out"/>
<feColorMatrix type="matrix" values="0 0 0 0 0.0313726 0 0 0 0 0.0313726 0 0 0 0 0.0313726 0 0 0 0.04 0"/>
<feBlend mode="normal" in2="effect3_dropShadow_6146_155" result="effect4_dropShadow_6146_155"/>
<feColorMatrix in="SourceAlpha" type="matrix" values="0 0 0 0 0 0 0 0 0 0 0 0 0 0 0 0 0 0 127 0" result="hardAlpha"/>
<feMorphology radius="2" operator="erode" in="SourceAlpha" result="effect5_dropShadow_6146_155"/>
<feOffset dy="2.15"/>
<feGaussianBlur stdDeviation="0.25"/>
<feComposite in2="hardAlpha" operator="out"/>
<feColorMatrix type="matrix" values="0 0 0 0 0 0 0 0 0 0 0 0 0 0 0 0 0 0 0.25 0"/>
<feBlend mode="normal" in2="effect4_dropShadow_6146_155" result="effect5_dropShadow_6146_155"/>
<feColorMatrix in="SourceAlpha" type="matrix" values="0 0 0 0 0 0 0 0 0 0 0 0 0 0 0 0 0 0 127 0" result="hardAlpha"/>
<feMorphology radius="12" operator="erode" in="SourceAlpha" result="effect6_dropShadow_6146_155"/>
<feOffset dy="32"/>
<feGaussianBlur stdDeviation="32"/>
<feComposite in2="hardAlpha" operator="out"/>
<feColorMatrix type="matrix" values="0 0 0 0 0 0 0 0 0 0 0 0 0 0 0 0 0 0 0.075 0"/>
<feBlend mode="multiply" in2="effect5_dropShadow_6146_155" result="effect6_dropShadow_6146_155"/>
<feBlend mode="normal" in="SourceGraphic" in2="effect6_dropShadow_6146_155" result="shape"/>
</filter>
<filter id="filter1_f_6146_155" x="74.6862" y="48.7346" width="18.148" height="18.1481" filterUnits="userSpaceOnUse" color-interpolation-filters="sRGB">
<feFlood flood-opacity="0" result="BackgroundImageFix"/>
<feBlend mode="normal" in="SourceGraphic" in2="BackgroundImageFix" result="shape"/>
<feGaussianBlur stdDeviation="1.51235" result="effect1_foregroundBlur_6146_155"/>
</filter>
<linearGradient id="paint0_linear_6146_155" x1="152" y1="20" x2="152" y2="74" gradientUnits="userSpaceOnUse">
<stop stop-color="#F6F6F6"/>
<stop offset="1" stop-color="#E6E6E6"/>
</linearGradient>
</defs>
</svg>
