<svg width="43" height="43" viewBox="0 0 43 43" fill="none" xmlns="http://www.w3.org/2000/svg">
<g filter="url(#filter0_f_5418_37917)">
<circle cx="25.7603" cy="31.8087" r="6.04938" fill="#3DBBFF" fill-opacity="0.3"/>
</g>
<rect x="0.0507812" y="0.0494385" width="42.3457" height="42.3457" rx="12.0988" fill="#3DBBFF" fill-opacity="0.05"/>
<rect x="0.800781" y="0.799438" width="40.8457" height="40.8457" rx="11.3488" stroke="#3DBBFF" stroke-opacity="0.2" stroke-width="1.5"/>
<path d="M20.397 9.04265C19.5807 9.2259 18.8024 9.67638 18.3523 10.2261C17.1925 11.6616 17.2993 13.6696 18.5964 14.9447C19.3365 15.6701 20.2216 15.9908 21.2745 15.9144C23.0904 15.7922 24.479 14.311 24.479 12.4938C24.479 10.8599 23.449 9.51604 21.862 9.0961C21.4805 8.99684 20.7251 8.9663 20.397 9.04265Z" fill="#2398D6"/>
<path d="M19.5935 16.6697C18.472 16.8071 17.4572 17.1812 16.9384 17.647C16.4577 18.0822 16.1296 18.6243 15.0538 20.7851L14.0543 22.7626L12.7267 23.1367C9.23226 24.0911 9.36959 24.0453 9.1407 24.4882C8.87365 25.0074 8.99573 25.7175 9.43063 26.1527L9.69767 26.4199L10.392 26.3665C10.7735 26.3436 12.124 26.1679 13.3905 25.9923C15.7023 25.6564 15.9465 25.5953 16.2212 25.2593C16.3661 25.0761 16.9536 23.9079 17.2283 23.236C17.4496 22.7168 17.4877 22.6557 17.564 22.7779C17.6861 22.9917 17.6556 25.0837 17.5106 25.8244C17.4496 26.1603 17.4038 26.4428 17.4114 26.4504C17.4114 26.4581 18.1668 26.6871 19.0823 26.962L20.7456 27.4659L22.3632 26.9773C23.2558 26.7177 24.1027 26.4657 24.2477 26.4275C24.4919 26.3588 24.5148 26.3283 24.4995 26.0916C24.3698 24.1141 24.3927 22.5412 24.5529 22.7015C24.5834 22.7397 24.7055 22.9917 24.82 23.2665C25.1786 24.1217 25.705 25.1295 25.9034 25.3433C26.1704 25.6258 26.3383 25.664 28.0245 25.9007C28.8256 26.0076 29.9548 26.1679 30.5423 26.2519C31.1298 26.3359 31.7326 26.4046 31.8852 26.4123C32.5184 26.4199 32.9228 25.9618 32.9915 25.1601C33.0373 24.6333 32.8999 24.3126 32.5489 24.0759C32.404 23.9766 30.2829 23.3658 28.4517 22.9C28.1847 22.8237 27.9329 22.7168 27.9024 22.6557C27.8642 22.5946 27.4522 21.77 26.9868 20.8232C25.9568 18.7464 25.6058 18.128 25.1938 17.731C24.4079 16.9598 23.4695 16.7002 21.3484 16.662C20.532 16.6467 19.7385 16.6544 19.5935 16.6697Z" fill="#2398D6"/>
<path d="M13.6785 27.1448C12.6256 27.3127 12.5187 27.3433 12.2898 27.5571C12.1525 27.6869 11.9923 27.9083 11.9236 28.0457C11.771 28.3741 11.7787 29.0383 11.9541 29.4125C12.2059 29.9698 13.0147 30.5119 13.7624 30.6341C14.06 30.6799 14.0829 30.6723 14.1363 30.4661C14.2354 30.0538 14.5559 29.6186 15.0213 29.275C15.3647 29.0154 15.853 28.8474 17.4094 28.4504C18.8896 28.0763 18.8591 28.0839 18.8133 28.0381C18.7904 28.0152 18.0732 27.809 17.2187 27.5876C14.5864 26.8852 14.9755 26.9386 13.6785 27.1448Z" fill="#2398D6"/>
<path d="M23.827 27.7022C21.2405 28.397 18.8752 29.0307 17.1127 29.4965C16.7389 29.5957 16.2963 29.7179 16.1437 29.7561C15.1748 30.0233 14.7856 31.2373 15.3655 32.1688C15.6478 32.6269 16.0674 32.8865 16.5405 32.8865C16.7312 32.8865 17.7307 32.7109 18.7684 32.4971L20.6606 32.1001L22.9114 32.5735C25.0019 33.0163 25.1927 33.0469 25.5666 32.9629C26.1388 32.8407 26.5355 32.5429 26.7873 32.0543C26.9018 31.8252 26.9933 31.558 26.9933 31.4587C26.9933 31.2449 26.9781 31.2449 25.6734 31.4053C24.7807 31.5122 24.6739 31.5122 24.567 31.4053C24.4984 31.3366 24.4679 31.2678 24.4907 31.2449C24.5136 31.222 25.4063 31.0312 26.4669 30.8326C28.8245 30.3822 28.9237 30.3516 29.3815 30.0615C30.2665 29.4965 30.5259 28.2977 29.9079 27.6182C29.7095 27.4044 29.6256 27.3815 28.2675 27.1601C27.4816 27.0379 26.7949 26.931 26.7415 26.9386C26.6958 26.9463 25.3834 27.2899 23.827 27.7022Z" fill="#2398D6"/>
<defs>
<filter id="filter0_f_5418_37917" x="16.6862" y="22.7346" width="18.148" height="18.1481" filterUnits="userSpaceOnUse" color-interpolation-filters="sRGB">
<feFlood flood-opacity="0" result="BackgroundImageFix"/>
<feBlend mode="normal" in="SourceGraphic" in2="BackgroundImageFix" result="shape"/>
<feGaussianBlur stdDeviation="1.51235" result="effect1_foregroundBlur_5418_37917"/>
</filter>
</defs>
</svg>
