<svg width="304" height="180" viewBox="0 0 304 180" fill="none" xmlns="http://www.w3.org/2000/svg">
<g filter="url(#filter0_dddddd_5427_41482)">
<rect x="49.8081" y="43.8599" width="198.652" height="54" rx="18.1482" transform="rotate(-7.35473 49.8081 43.8599)" fill="#F1F1F1" fill-opacity="0.1" shape-rendering="crispEdges"/>
<rect x="51.0782" y="44.8396" width="196.383" height="51.7315" rx="17.0139" transform="rotate(-7.35473 51.0782 44.8396)" stroke="url(#paint0_linear_5427_41482)" stroke-opacity="0.1" stroke-width="2.26852" shape-rendering="crispEdges"/>
</g>
<path d="M121.141 67.1841L120.528 62.4395L115.795 56.5811L118.136 56.279L121.351 60.3167L123.412 55.598L125.689 55.3041L122.601 62.1881L123.212 66.9168L121.141 67.1841ZM130.684 66.1943C129.838 66.3035 129.062 66.2101 128.357 65.9139C127.657 65.6117 127.08 65.1672 126.628 64.5802C126.175 63.988 125.9 63.311 125.801 62.5494C125.729 61.9887 125.766 61.4408 125.912 60.9057C126.058 60.3706 126.299 59.8851 126.635 59.4491C126.976 59.0072 127.397 58.641 127.897 58.3505C128.397 58.0548 128.964 57.866 129.599 57.7841C130.44 57.6755 131.21 57.7697 131.91 58.0665C132.615 58.3627 133.194 58.8069 133.647 59.3992C134.105 59.9907 134.383 60.6673 134.481 61.429C134.554 61.9897 134.514 62.5379 134.363 63.0737C134.216 63.6035 133.975 64.089 133.639 64.5303C133.304 64.9716 132.886 65.34 132.387 65.6358C131.886 65.9262 131.319 66.1124 130.684 66.1943ZM130.447 64.4181C130.896 64.36 131.283 64.2106 131.607 63.9699C131.935 63.7231 132.177 63.4069 132.332 63.0213C132.485 62.6304 132.53 62.1863 132.466 61.6891C132.402 61.1919 132.246 60.7738 131.998 60.4348C131.75 60.0957 131.438 59.8509 131.064 59.7003C130.69 59.5496 130.278 59.5033 129.828 59.5613C129.378 59.6194 128.989 59.7691 128.66 60.0106C128.336 60.2513 128.097 60.5672 127.943 60.9581C127.795 61.3483 127.752 61.792 127.817 62.2892C127.881 62.7865 128.037 63.2046 128.285 63.5436C128.533 63.8773 128.844 64.1222 129.219 64.2781C129.593 64.4288 130.003 64.4754 130.447 64.4181ZM139.919 68.3902C139.326 68.4667 138.785 68.4827 138.296 68.4384C137.807 68.3993 137.38 68.3038 137.016 68.1518C136.658 67.9991 136.371 67.7968 136.156 67.545C135.946 67.2978 135.82 67.0049 135.776 66.6664C135.741 66.3966 135.78 66.1335 135.892 65.877C136.01 65.6252 136.198 65.3965 136.457 65.1911C136.72 64.9797 137.052 64.805 137.454 64.6671C137.121 64.5434 136.867 64.388 136.692 64.2008C136.517 64.0136 136.413 63.7878 136.379 63.5234C136.349 63.2906 136.386 63.0626 136.492 62.8392C136.603 62.6152 136.772 62.4051 137 62.2091C137.227 62.013 137.504 61.8429 137.829 61.6987C138.155 61.5545 138.518 61.4512 138.918 61.3887L139.438 62.1685C139.12 62.2042 138.854 62.2628 138.638 62.3444C138.428 62.42 138.273 62.5099 138.173 62.6142C138.074 62.7184 138.032 62.834 138.048 62.961C138.069 63.1197 138.177 63.2267 138.372 63.2822C138.573 63.3369 138.863 63.356 139.243 63.3392L140.614 63.2752C141.282 63.2427 141.864 63.2778 142.362 63.3803C142.864 63.4821 143.262 63.6674 143.555 63.9362C143.853 64.2042 144.032 64.571 144.092 65.0364C144.142 65.4278 144.081 65.8068 143.908 66.1733C143.735 66.5398 143.463 66.8734 143.093 67.1738C142.729 67.4737 142.278 67.7282 141.74 67.9374C141.203 68.1519 140.596 68.3028 139.919 68.3902ZM139.991 67.0097C140.726 66.9148 141.291 66.7316 141.686 66.4601C142.082 66.1939 142.259 65.8942 142.216 65.5609C142.181 65.2965 142.018 65.1106 141.724 65.0033C141.431 64.9012 140.999 64.8656 140.428 64.8963L138.938 64.9757C138.624 65.0431 138.361 65.1361 138.151 65.2547C137.94 65.3733 137.786 65.5115 137.688 65.6694C137.591 65.8325 137.554 66.004 137.577 66.1838C137.606 66.406 137.721 66.5874 137.922 66.7282C138.129 66.8736 138.408 66.972 138.758 67.0235C139.109 67.075 139.52 67.0704 139.991 67.0097ZM139.302 62.2991C138.625 62.3864 138.006 62.34 137.445 62.1596C136.883 61.974 136.421 61.6868 136.059 61.2979C135.702 60.9084 135.49 60.4465 135.421 59.9123C135.352 59.3834 135.444 58.8849 135.695 58.4168C135.947 57.9488 136.321 57.5563 136.818 57.2394C137.314 56.9173 137.898 56.7128 138.57 56.6261C139.236 56.5401 139.85 56.5899 140.412 56.7755C140.973 56.9558 141.435 57.2404 141.797 57.6293C142.158 58.0128 142.373 58.4717 142.442 59.006C142.51 59.5296 142.418 60.0281 142.168 60.5015C141.921 60.9688 141.55 61.3636 141.054 61.6857C140.558 62.0079 139.974 62.2124 139.302 62.2991ZM139.114 60.8392C139.447 60.7962 139.736 60.6997 139.98 60.5499C140.224 60.4001 140.407 60.2125 140.528 59.9871C140.649 59.7564 140.692 59.5062 140.657 59.2364C140.604 58.8238 140.4 58.5114 140.044 58.2992C139.689 58.0869 139.26 58.0132 138.757 58.0781C138.419 58.1218 138.127 58.2185 137.883 58.3684C137.639 58.5182 137.456 58.7058 137.335 58.9312C137.219 59.1559 137.178 59.4058 137.214 59.6809C137.266 60.0881 137.471 60.4006 137.827 60.6181C138.182 60.8303 138.611 60.904 139.114 60.8392ZM140.025 58.2774L139.086 57.0031L143.464 56.2364L143.669 57.8877L140.025 58.2774ZM147.828 63.9815C147.289 64.0511 146.797 64.0097 146.352 63.8574C145.908 63.705 145.542 63.4564 145.256 63.1116C144.968 62.7615 144.791 62.3272 144.725 61.8089C144.667 61.3646 144.727 60.9535 144.904 60.5757C145.081 60.198 145.385 59.8657 145.816 59.5788C146.246 59.2867 146.813 59.0549 147.517 58.8833C148.226 58.7112 149.079 58.6118 150.076 58.5853L150.281 59.9221C149.622 59.9049 149.053 59.9326 148.573 60.0054C148.093 60.0781 147.701 60.1851 147.397 60.3266C147.098 60.4674 146.88 60.6353 146.744 60.8303C146.613 61.0247 146.563 61.2382 146.593 61.471C146.638 61.8201 146.799 62.0734 147.078 62.2311C147.356 62.3835 147.714 62.4313 148.153 62.3746C148.529 62.3262 148.856 62.214 149.134 62.0383C149.418 61.8618 149.631 61.6381 149.774 61.3669C149.915 61.0905 149.964 60.7804 149.92 60.4366L149.661 58.4292C149.617 58.096 149.509 57.8169 149.335 57.592C149.165 57.3612 148.929 57.1981 148.626 57.1027C148.323 57.002 147.946 56.9807 147.497 57.0388C147.084 57.092 146.682 57.2084 146.291 57.3879C145.905 57.5615 145.552 57.8007 145.231 58.1056L144.496 56.7243C144.955 56.3262 145.453 56.0199 145.99 55.8054C146.527 55.5909 147.055 55.4502 147.573 55.3833C148.314 55.2877 148.969 55.3215 149.539 55.4846C150.113 55.647 150.577 55.9501 150.93 56.3939C151.288 56.8317 151.514 57.4182 151.609 58.1535L152.256 63.1679L150.463 63.3993L150.347 62.4948C150.129 62.8939 149.801 63.224 149.361 63.4851C148.921 63.7409 148.41 63.9064 147.828 63.9815ZM157.91 62.4382L156.476 51.3303L158.539 51.0641L159.973 62.1719L157.91 62.4382ZM162.228 61.8808L161.204 53.9466L163.235 53.6845L163.358 54.6366C163.622 54.1777 163.953 53.8284 164.352 53.5887C164.756 53.343 165.191 53.1901 165.656 53.13C166.386 53.0358 167.008 53.1034 167.521 53.3329C168.04 53.5617 168.446 53.8885 168.737 54.3133C169.028 54.7382 169.206 55.1992 169.27 55.6964L169.94 60.8854L167.909 61.1476L167.321 56.5933C167.252 56.0538 167.04 55.6455 166.687 55.3684C166.334 55.0913 165.877 54.989 165.317 55.0613C164.952 55.1084 164.637 55.2324 164.372 55.4333C164.113 55.6281 163.922 55.8813 163.801 56.1927C163.68 56.5041 163.644 56.8502 163.693 57.231L164.259 61.6186L162.228 61.8808ZM174.697 60.5053C174.015 60.5934 173.368 60.5827 172.757 60.4734C172.151 60.3634 171.624 60.1733 171.175 59.9032L171.695 58.3681C172.122 58.5979 172.582 58.7644 173.074 58.8676C173.566 58.9708 174.037 58.9934 174.486 58.9354C174.962 58.8739 175.323 58.7468 175.566 58.554C175.81 58.3611 175.914 58.1219 175.877 57.8363C175.842 57.5665 175.7 57.3832 175.451 57.2863C175.202 57.1894 174.746 57.1138 174.083 57.0596C173.031 56.991 172.247 56.7911 171.731 56.4597C171.214 56.1231 170.911 55.6083 170.822 54.9154C170.758 54.4235 170.837 53.9724 171.058 53.562C171.285 53.1509 171.623 52.8115 172.072 52.5438C172.526 52.2701 173.065 52.093 173.69 52.0124C174.298 51.9339 174.883 51.9444 175.444 52.0441C176.011 52.143 176.51 52.3206 176.941 52.5769L176.454 54.1159C176.225 53.968 175.97 53.8476 175.689 53.7548C175.408 53.662 175.115 53.6003 174.81 53.5698C174.51 53.5386 174.218 53.5414 173.932 53.5782C173.514 53.6322 173.185 53.7499 172.945 53.9315C172.71 54.1124 172.61 54.3377 172.645 54.6074C172.68 54.8772 172.825 55.0628 173.08 55.1644C173.335 55.2606 173.783 55.3398 174.426 55.4021C175.513 55.493 176.308 55.6968 176.812 56.0137C177.315 56.3305 177.61 56.8275 177.698 57.5045C177.765 58.0229 177.683 58.4932 177.452 58.9155C177.221 59.3326 176.868 59.6819 176.394 59.9637C175.924 60.2394 175.358 60.42 174.697 60.5053ZM182.988 59.4433C182.173 59.5484 181.498 59.3989 180.962 58.9949C180.426 58.5909 180.097 57.9181 179.975 56.9766L178.986 49.3122L181.017 49.05L181.314 51.3509L183.401 51.0816L183.614 52.7319L181.527 53.0012L181.954 56.3098C182.02 56.8176 182.167 57.1643 182.395 57.3499C182.623 57.5303 182.914 57.5976 183.268 57.5518C183.448 57.5286 183.614 57.4856 183.768 57.4228C183.926 57.3593 184.07 57.2843 184.198 57.1978L184.725 58.7754C184.508 58.9271 184.249 59.0654 183.947 59.1903C183.646 59.3153 183.326 59.3996 182.988 59.4433ZM177.822 53.4795L177.609 51.8292L179.513 51.5834L179.726 53.2337L177.822 53.4795ZM186.163 58.7914L185.139 50.8572L187.17 50.595L187.305 51.6344C187.52 51.1334 187.821 50.7585 188.208 50.5095C188.601 50.2599 189.038 50.104 189.519 50.0419C189.688 50.02 189.845 50.0078 189.99 50.0052C190.135 50.0027 190.276 50.0087 190.412 50.0234L190.428 52.1508C190.257 52.1138 190.079 52.0936 189.896 52.0904C189.718 52.0812 189.541 52.0879 189.366 52.1104C188.795 52.1841 188.347 52.4168 188.021 52.8084C187.694 53.1947 187.57 53.6947 187.65 54.3082L188.194 58.5292L186.163 58.7914ZM195.65 57.809C194.936 57.9011 194.325 57.8348 193.817 57.6099C193.315 57.3844 192.919 57.0482 192.63 56.6015C192.341 56.1496 192.158 55.6274 192.081 55.0349L191.437 50.0443L193.468 49.7822L194.067 54.4237C194.133 54.9315 194.331 55.32 194.661 55.5892C194.991 55.8532 195.421 55.951 195.949 55.8827C196.288 55.839 196.582 55.7231 196.832 55.5349C197.082 55.3414 197.265 55.0972 197.383 54.8023C197.501 54.5075 197.536 54.1776 197.489 53.8126L196.912 49.3377L198.943 49.0755L199.967 57.0097L198.174 57.2412L198.057 56.3367C197.81 56.718 197.492 57.0415 197.101 57.307C196.715 57.5665 196.231 57.7339 195.65 57.809ZM205.698 56.512C204.857 56.6205 204.085 56.5346 203.382 56.2543C202.684 55.968 202.106 55.5344 201.649 54.9534C201.192 54.3672 200.911 53.6721 200.807 52.8681C200.729 52.2598 200.768 51.6874 200.924 51.1509C201.08 50.6092 201.335 50.1246 201.689 49.6971C202.041 49.2644 202.474 48.9101 202.987 48.6342C203.505 48.3523 204.084 48.17 204.724 48.0874C205.279 48.0157 205.804 48.0232 206.299 48.1099C206.795 48.1965 207.26 48.3676 207.697 48.6232L206.95 50.2764C206.673 50.0863 206.369 49.9589 206.038 49.894C205.711 49.8232 205.376 49.81 205.032 49.8544C204.514 49.9213 204.079 50.0742 203.728 50.3131C203.383 50.5513 203.132 50.8632 202.978 51.2489C202.823 51.6345 202.779 52.0839 202.845 52.5969C202.944 53.3586 203.243 53.9276 203.743 54.304C204.248 54.6744 204.887 54.8098 205.659 54.7101C206.045 54.6603 206.401 54.5418 206.726 54.3546C207.052 54.1674 207.325 53.9331 207.547 53.6517L208.65 55.0742C208.258 55.4529 207.807 55.7692 207.297 56.0233C206.786 56.2774 206.253 56.4403 205.698 56.512ZM213.378 55.5207C212.563 55.6259 211.888 55.4764 211.352 55.0724C210.815 54.6684 210.487 53.9956 210.365 53.0541L209.376 45.3897L211.407 45.1275L211.704 47.4284L213.791 47.1591L214.004 48.8094L211.917 49.0787L212.344 52.3873C212.41 52.895 212.557 53.2418 212.785 53.4274C213.012 53.6077 213.303 53.675 213.658 53.6293C213.838 53.6061 214.004 53.5631 214.157 53.5003C214.316 53.4368 214.46 53.3618 214.588 53.2753L215.114 54.8529C214.897 55.0046 214.638 55.1429 214.337 55.2678C214.036 55.3927 213.716 55.477 213.378 55.5207ZM208.212 49.557L207.999 47.9066L209.903 47.6609L210.116 49.3112L208.212 49.557ZM220.226 54.6367C219.38 54.746 218.604 54.6525 217.899 54.3563C217.199 54.0542 216.623 53.6096 216.17 53.0227C215.717 52.4304 215.442 51.7535 215.344 50.9918C215.271 50.4311 215.308 49.8832 215.454 49.3481C215.6 48.813 215.841 48.3275 216.178 47.8915C216.518 47.4496 216.939 47.0834 217.439 46.793C217.939 46.4973 218.506 46.3084 219.141 46.2265C219.982 46.118 220.752 46.2121 221.452 46.509C222.157 46.8052 222.736 47.2494 223.189 47.8416C223.647 48.4331 223.925 49.1098 224.024 49.8714C224.096 50.4321 224.056 50.9804 223.905 51.5161C223.758 52.0459 223.517 52.5315 223.182 52.9727C222.846 53.414 222.428 53.7825 221.929 54.0782C221.429 54.3686 220.861 54.5548 220.226 54.6367ZM219.989 52.8605C220.439 52.8025 220.825 52.6531 221.149 52.4123C221.478 52.1656 221.719 51.8494 221.874 51.4637C222.028 51.0728 222.072 50.6288 222.008 50.1316C221.944 49.6344 221.788 49.2162 221.54 48.8772C221.292 48.5382 220.981 48.2933 220.606 48.1427C220.232 47.992 219.82 47.9457 219.37 48.0038C218.921 48.0618 218.531 48.2115 218.202 48.453C217.878 48.6938 217.639 49.0096 217.485 49.4005C217.337 49.7908 217.295 50.2345 217.359 50.7317C217.423 51.2289 217.579 51.647 217.827 51.986C218.075 52.3198 218.386 52.5646 218.761 52.7206C219.135 52.8712 219.545 52.9179 219.989 52.8605ZM225.89 53.6637L224.866 45.7295L226.897 45.4674L227.031 46.5067C227.246 46.0058 227.547 45.6308 227.935 45.3818C228.327 45.1322 228.764 44.9763 229.246 44.9142C229.415 44.8923 229.572 44.8801 229.717 44.8776C229.862 44.875 230.002 44.881 230.139 44.8957L230.155 47.0231C229.984 46.9861 229.806 46.966 229.623 46.9627C229.444 46.9535 229.268 46.9602 229.093 46.9827C228.522 47.0564 228.073 47.2891 227.747 47.6807C227.421 48.067 227.297 48.567 227.376 49.1806L227.921 53.4015L225.89 53.6637ZM235.074 52.7123C234.391 52.8003 233.745 52.7897 233.134 52.6803C232.528 52.5703 232.001 52.3803 231.552 52.1102L232.071 50.575C232.499 50.8048 232.959 50.9713 233.451 51.0745C233.943 51.1778 234.413 51.2003 234.863 51.1423C235.339 51.0809 235.699 50.9537 235.943 50.7609C236.187 50.5681 236.291 50.3289 236.254 50.0432C236.219 49.7735 236.077 49.5901 235.828 49.4932C235.579 49.3963 235.123 49.3208 234.46 49.2665C233.408 49.198 232.623 48.998 232.107 48.6667C231.591 48.3301 231.288 47.8153 231.198 47.1224C231.135 46.6305 231.214 46.1793 231.435 45.7689C231.662 45.3579 232 45.0185 232.449 44.7508C232.903 44.477 233.442 44.2999 234.066 44.2193C234.675 44.1408 235.259 44.1514 235.821 44.251C236.387 44.35 236.886 44.5276 237.317 44.7838L236.83 46.3228C236.601 46.1749 236.347 46.0545 236.066 45.9617C235.785 45.8689 235.492 45.8072 235.187 45.7767C234.887 45.7455 234.594 45.7483 234.309 45.7852C233.891 45.8391 233.562 45.9569 233.322 46.1384C233.087 46.3193 232.987 46.5446 233.022 46.8144C233.057 47.0842 233.202 47.2698 233.457 47.3713C233.711 47.4675 234.16 47.5468 234.802 47.609C235.89 47.6999 236.685 47.9038 237.188 48.2206C237.692 48.5375 237.987 49.0344 238.074 49.7115C238.141 50.2298 238.059 50.7002 237.829 51.1225C237.598 51.5395 237.245 51.8889 236.77 52.1706C236.3 52.4464 235.735 52.6269 235.074 52.7123Z" fill="white"/>
<g filter="url(#filter1_f_5427_41482)">
<circle cx="86.5645" cy="77.6276" r="6.04938" transform="rotate(-7.35473 86.5645 77.6276)" fill="#8059F0"/>
</g>
<g clip-path="url(#clip0_5427_41482)">
<rect x="57" y="49.4209" width="42.3457" height="42.3457" rx="12.0988" transform="rotate(-7.35473 57 49.4209)" fill="#8059F0" fill-opacity="0.05"/>
<path d="M80.4369 55.7205C79.7908 56.012 79.2535 56.5978 79.0477 57.2565C78.8746 57.8031 78.9764 58.6534 79.2806 59.123C79.5673 59.5794 80.0753 59.9842 80.5704 60.167C80.933 60.2976 81.0915 60.308 81.648 60.2362C82.4055 60.1385 82.8467 59.9042 83.2653 59.3722C83.6907 58.8317 83.804 58.3699 83.7022 57.5813C83.623 56.967 83.5861 56.8639 83.3295 56.5192C82.979 56.0556 82.5059 55.7388 81.9394 55.6115C81.4947 55.5146 80.7942 55.5665 80.4369 55.7205Z" fill="white"/>
<path d="M73.1495 60.521C72.7681 60.7321 72.5208 61.4347 72.6973 61.8282C72.8379 62.1262 73.1389 62.4497 73.3613 62.5289C73.4841 62.5671 74.76 62.7725 76.209 62.9788C77.915 63.229 78.8323 63.396 78.8402 63.4566C78.8744 63.722 78.6146 64.4494 78.3351 64.9018C78.1587 65.1789 77.7506 65.671 77.4293 65.9823C76.5021 66.896 76.1684 67.3553 76.034 67.8969C75.9332 68.3339 75.9334 68.4572 76.108 69.5063C76.502 71.83 77.648 77.364 77.7895 77.6079C78.1916 78.2884 79.6545 78.1768 79.9452 77.4455C79.9799 77.3485 79.9888 76.8693 79.9648 76.379C79.9043 75.3615 79.7494 72.6986 79.6264 70.6483L79.5401 69.2486L80.1037 68.7442C80.758 68.151 81.8673 66.8207 82.3222 66.0835C82.7059 65.4636 83.1393 64.4979 83.2679 63.9725C83.3188 63.7578 83.3958 63.5628 83.4402 63.5417C83.4847 63.5205 84.7995 63.2353 86.3519 62.904C87.9121 62.5717 89.309 62.2527 89.4587 62.1949C89.816 62.0409 90.14 61.629 90.1588 61.2874C90.1853 60.8831 89.8878 60.4049 89.5107 60.2223L89.2089 60.0762L85.9249 60.5075C81.1191 61.1428 79.7913 61.1445 75.375 60.5346C73.9919 60.3506 73.4642 60.3416 73.1495 60.521Z" fill="white"/>
<path d="M71.8432 63.7661C71.7216 63.8589 71.5653 64.0487 71.496 64.181C71.0826 64.9359 70.0383 68.9021 70.1097 69.4557C70.2134 70.2596 70.874 70.6292 72.3033 70.6838C73.0533 70.7104 74.6514 70.5505 75.0957 70.4007L75.3362 70.3157L75.197 69.663C75.0753 69.085 75.0508 68.2247 75.1382 67.8666C75.1651 67.7706 74.9931 67.7773 74.0086 67.9429C73.1091 68.0974 72.8444 68.1162 72.8356 68.0479C72.8287 67.9948 73.0093 67.2623 73.2467 66.4222C73.4753 65.5755 73.676 64.7555 73.6787 64.5933C73.6993 64.2051 73.3912 63.7052 73.0538 63.5869C72.7076 63.4619 72.1144 63.5538 71.8432 63.7661Z" fill="white"/>
<path d="M73.0684 77.3622C72.7723 77.7473 71.2114 80.1458 71.1392 80.317C71.0304 80.5701 71.0586 80.6666 71.3014 80.8435L71.5114 81.0091L81.3668 79.7379C87.6278 78.9303 91.2878 78.4273 91.4133 78.3649C91.649 78.242 91.7403 77.9141 91.5959 77.7092C91.4807 77.5467 88.9568 75.2819 88.8146 75.2154C88.7643 75.1911 86.9439 75.3951 84.7719 75.6752L80.822 76.1847L80.8129 76.5405C80.8121 77.2653 80.354 77.2473 84.6594 76.692L88.4779 76.1994L89.1989 76.8542C89.5996 77.2189 89.9315 77.5384 89.9354 77.5687C89.9403 77.6066 86.063 78.1299 81.3246 78.7411C75.3573 79.5108 72.7031 79.8301 72.6962 79.777C72.6904 79.7315 72.9304 79.3382 73.2196 78.9L73.7605 78.0978L75.3123 77.8822L76.863 77.6591L76.7783 77.246C76.7335 77.0205 76.6829 76.8111 76.6548 76.7762C76.6354 76.7479 75.8518 76.8258 74.9165 76.9465C73.2469 77.1618 73.216 77.1658 73.0684 77.3622Z" fill="white"/>
</g>
<rect x="57.8398" y="50.0687" width="40.8457" height="40.8457" rx="11.3488" transform="rotate(-7.35473 57.8398 50.0687)" stroke="#8059F0" stroke-width="1.5"/>
<path d="M228.688 27.4668V27.4668C235.315 26.6114 241.381 31.2902 242.236 37.9172V37.9172" stroke="#8059F0" stroke-width="2.26852" stroke-linecap="round"/>
<defs>
<filter id="filter0_dddddd_5427_41482" x="-2.19189" y="-1.56982" width="307.93" height="182.985" filterUnits="userSpaceOnUse" color-interpolation-filters="sRGB">
<feFlood flood-opacity="0" result="BackgroundImageFix"/>
<feColorMatrix in="SourceAlpha" type="matrix" values="0 0 0 0 0 0 0 0 0 0 0 0 0 0 0 0 0 0 127 0" result="hardAlpha"/>
<feMorphology radius="4" operator="erode" in="SourceAlpha" result="effect1_dropShadow_5427_41482"/>
<feOffset dy="5"/>
<feGaussianBlur stdDeviation="0.75"/>
<feComposite in2="hardAlpha" operator="out"/>
<feColorMatrix type="matrix" values="0 0 0 0 0.0313726 0 0 0 0 0.0313726 0 0 0 0 0.0313726 0 0 0 0.05 0"/>
<feBlend mode="normal" in2="BackgroundImageFix" result="effect1_dropShadow_5427_41482"/>
<feColorMatrix in="SourceAlpha" type="matrix" values="0 0 0 0 0 0 0 0 0 0 0 0 0 0 0 0 0 0 127 0" result="hardAlpha"/>
<feMorphology radius="4" operator="erode" in="SourceAlpha" result="effect2_dropShadow_5427_41482"/>
<feOffset dy="6"/>
<feGaussianBlur stdDeviation="2"/>
<feComposite in2="hardAlpha" operator="out"/>
<feColorMatrix type="matrix" values="0 0 0 0 0.0313726 0 0 0 0 0.0313726 0 0 0 0 0.0313726 0 0 0 0.05 0"/>
<feBlend mode="normal" in2="effect1_dropShadow_5427_41482" result="effect2_dropShadow_5427_41482"/>
<feColorMatrix in="SourceAlpha" type="matrix" values="0 0 0 0 0 0 0 0 0 0 0 0 0 0 0 0 0 0 127 0" result="hardAlpha"/>
<feOffset dy="6"/>
<feGaussianBlur stdDeviation="6.5"/>
<feComposite in2="hardAlpha" operator="out"/>
<feColorMatrix type="matrix" values="0 0 0 0 0.0313726 0 0 0 0 0.0313726 0 0 0 0 0.0313726 0 0 0 0.03 0"/>
<feBlend mode="normal" in2="effect2_dropShadow_5427_41482" result="effect3_dropShadow_5427_41482"/>
<feColorMatrix in="SourceAlpha" type="matrix" values="0 0 0 0 0 0 0 0 0 0 0 0 0 0 0 0 0 0 127 0" result="hardAlpha"/>
<feMorphology radius="16" operator="erode" in="SourceAlpha" result="effect4_dropShadow_5427_41482"/>
<feOffset dy="24"/>
<feGaussianBlur stdDeviation="12"/>
<feComposite in2="hardAlpha" operator="out"/>
<feColorMatrix type="matrix" values="0 0 0 0 0.0313726 0 0 0 0 0.0313726 0 0 0 0 0.0313726 0 0 0 0.04 0"/>
<feBlend mode="normal" in2="effect3_dropShadow_5427_41482" result="effect4_dropShadow_5427_41482"/>
<feColorMatrix in="SourceAlpha" type="matrix" values="0 0 0 0 0 0 0 0 0 0 0 0 0 0 0 0 0 0 127 0" result="hardAlpha"/>
<feMorphology radius="2" operator="erode" in="SourceAlpha" result="effect5_dropShadow_5427_41482"/>
<feOffset dy="2.15"/>
<feGaussianBlur stdDeviation="0.25"/>
<feComposite in2="hardAlpha" operator="out"/>
<feColorMatrix type="matrix" values="0 0 0 0 0 0 0 0 0 0 0 0 0 0 0 0 0 0 0.25 0"/>
<feBlend mode="normal" in2="effect4_dropShadow_5427_41482" result="effect5_dropShadow_5427_41482"/>
<feColorMatrix in="SourceAlpha" type="matrix" values="0 0 0 0 0 0 0 0 0 0 0 0 0 0 0 0 0 0 127 0" result="hardAlpha"/>
<feMorphology radius="12" operator="erode" in="SourceAlpha" result="effect6_dropShadow_5427_41482"/>
<feOffset dy="32"/>
<feGaussianBlur stdDeviation="32"/>
<feComposite in2="hardAlpha" operator="out"/>
<feColorMatrix type="matrix" values="0 0 0 0 0 0 0 0 0 0 0 0 0 0 0 0 0 0 0.075 0"/>
<feBlend mode="multiply" in2="effect5_dropShadow_5427_41482" result="effect6_dropShadow_5427_41482"/>
<feBlend mode="normal" in="SourceGraphic" in2="effect6_dropShadow_5427_41482" result="shape"/>
</filter>
<filter id="filter1_f_5427_41482" x="77.49" y="68.5529" width="18.1495" height="18.1495" filterUnits="userSpaceOnUse" color-interpolation-filters="sRGB">
<feFlood flood-opacity="0" result="BackgroundImageFix"/>
<feBlend mode="normal" in="SourceGraphic" in2="BackgroundImageFix" result="shape"/>
<feGaussianBlur stdDeviation="1.51235" result="effect1_foregroundBlur_5427_41482"/>
</filter>
<linearGradient id="paint0_linear_5427_41482" x1="149.134" y1="43.8599" x2="149.134" y2="97.8599" gradientUnits="userSpaceOnUse">
<stop stop-color="#F6F6F6"/>
<stop offset="1" stop-color="#E6E6E6"/>
</linearGradient>
<clipPath id="clip0_5427_41482">
<rect x="57" y="49.4209" width="42.3457" height="42.3457" rx="12.0988" transform="rotate(-7.35473 57 49.4209)" fill="white"/>
</clipPath>
</defs>
</svg>
