<svg width="200" height="55" viewBox="0 0 200 55" fill="none" xmlns="http://www.w3.org/2000/svg">
<rect x="0.75293" y="0.421387" width="198.652" height="54" rx="18.1482" fill="#F1F1F1" fill-opacity="0.1"/>
<rect x="1.88719" y="1.55565" width="196.383" height="51.7315" rx="17.0139" stroke="url(#paint0_linear_6163_163)" stroke-opacity="0.1" stroke-width="2.26852"/>
<path d="M68.512 32.6851V27.9011L64.568 21.4851H66.928L69.6 25.9011L72.248 21.4851H74.544L70.6 27.9171V32.6851H68.512ZM78.1036 32.9251C77.2503 32.9251 76.493 32.7331 75.8316 32.3491C75.1756 31.9597 74.661 31.4451 74.2876 30.8051C73.9143 30.1597 73.7276 29.4531 73.7276 28.6851C73.7276 28.1197 73.8343 27.5811 74.0476 27.0691C74.261 26.5571 74.5623 26.1064 74.9516 25.7171C75.3463 25.3224 75.8103 25.0131 76.3436 24.7891C76.877 24.5597 77.4636 24.4451 78.1036 24.4451C78.9516 24.4451 79.7036 24.6371 80.3596 25.0211C81.021 25.4051 81.5383 25.9197 81.9116 26.5651C82.2903 27.2104 82.4796 27.9171 82.4796 28.6851C82.4796 29.2504 82.3703 29.7891 82.1516 30.3011C81.9383 30.8077 81.637 31.2584 81.2476 31.6531C80.8583 32.0477 80.397 32.3597 79.8636 32.5891C79.3303 32.8131 78.7436 32.9251 78.1036 32.9251ZM78.0956 31.1331C78.549 31.1331 78.9516 31.0344 79.3036 30.8371C79.661 30.6344 79.941 30.3517 80.1436 29.9891C80.3463 29.6211 80.4476 29.1864 80.4476 28.6851C80.4476 28.1837 80.3463 27.7491 80.1436 27.3811C79.941 27.0131 79.6636 26.7304 79.3116 26.5331C78.9596 26.3357 78.557 26.2371 78.1036 26.2371C77.6503 26.2371 77.245 26.3357 76.8876 26.5331C76.5356 26.7304 76.2583 27.0131 76.0556 27.3811C75.8583 27.7491 75.7596 28.1837 75.7596 28.6851C75.7596 29.1864 75.861 29.6211 76.0636 29.9891C76.2663 30.3517 76.5436 30.6344 76.8956 30.8371C77.2476 31.0344 77.6476 31.1331 78.0956 31.1331ZM86.9813 36.2851C86.3839 36.2851 85.8453 36.2317 85.3653 36.1251C84.8853 36.0237 84.4746 35.8744 84.1333 35.6771C83.7973 35.4797 83.5386 35.2424 83.3573 34.9651C83.1813 34.6931 83.0933 34.3864 83.0933 34.0451C83.0933 33.7731 83.1653 33.5171 83.3093 33.2771C83.4586 33.0424 83.6746 32.8397 83.9573 32.6691C84.2453 32.4931 84.5973 32.3624 85.0133 32.2771C84.6986 32.1117 84.4666 31.9251 84.3173 31.7171C84.1679 31.5091 84.0933 31.2717 84.0933 31.0051C84.0933 30.7704 84.1599 30.5491 84.2933 30.3411C84.4319 30.1331 84.6266 29.9464 84.8773 29.7811C85.1279 29.6157 85.4239 29.4824 85.7653 29.3811C86.1066 29.2797 86.4799 29.2237 86.8853 29.2131L87.3013 30.0531C86.9813 30.0477 86.7093 30.0717 86.4853 30.1251C86.2666 30.1731 86.1013 30.2424 85.9893 30.3331C85.8773 30.4237 85.8213 30.5331 85.8213 30.6611C85.8213 30.8211 85.9146 30.9411 86.1013 31.0211C86.2933 31.1011 86.5786 31.1571 86.9573 31.1891L88.3253 31.3011C88.9919 31.3544 89.5653 31.4637 90.0453 31.6291C90.5306 31.7944 90.9013 32.0291 91.1573 32.3331C91.4186 32.6371 91.5493 33.0237 91.5493 33.4931C91.5493 33.8877 91.4399 34.2557 91.2213 34.5971C91.0026 34.9384 90.6906 35.2344 90.2853 35.4851C89.8853 35.7357 89.4053 35.9304 88.8453 36.0691C88.2853 36.2131 87.6639 36.2851 86.9813 36.2851ZM87.2293 34.9251C87.9706 34.9251 88.5546 34.8157 88.9813 34.5971C89.4079 34.3837 89.6213 34.1091 89.6213 33.7731C89.6213 33.5064 89.4826 33.3011 89.2053 33.1571C88.9279 33.0184 88.5039 32.9277 87.9333 32.8851L86.4453 32.7731C86.1253 32.7997 85.8533 32.8584 85.6293 32.9491C85.4053 33.0397 85.2346 33.1571 85.1173 33.3011C84.9999 33.4504 84.9413 33.6157 84.9413 33.7971C84.9413 34.0211 85.0319 34.2157 85.2133 34.3811C85.3999 34.5517 85.6639 34.6851 86.0053 34.7811C86.3466 34.8771 86.7546 34.9251 87.2293 34.9251ZM87.1493 30.1651C86.4666 30.1651 85.8586 30.0397 85.3253 29.7891C84.7919 29.5331 84.3706 29.1891 84.0613 28.7571C83.7573 28.3251 83.6053 27.8397 83.6053 27.3011C83.6053 26.7677 83.7599 26.2851 84.0693 25.8531C84.3786 25.4211 84.7999 25.0797 85.3333 24.8291C85.8666 24.5731 86.4719 24.4451 87.1493 24.4451C87.8213 24.4451 88.4239 24.5731 88.9573 24.8291C89.4906 25.0797 89.9119 25.4211 90.2213 25.8531C90.5306 26.2797 90.6853 26.7624 90.6853 27.3011C90.6853 27.8291 90.5306 28.3117 90.2213 28.7491C89.9173 29.1811 89.4986 29.5251 88.9653 29.7811C88.4319 30.0371 87.8266 30.1651 87.1493 30.1651ZM87.1493 28.6931C87.4853 28.6931 87.7839 28.6344 88.0453 28.5171C88.3066 28.3997 88.5119 28.2371 88.6613 28.0291C88.8106 27.8157 88.8853 27.5731 88.8853 27.3011C88.8853 26.8851 88.7226 26.5491 88.3973 26.2931C88.0719 26.0371 87.6559 25.9091 87.1493 25.9091C86.8079 25.9091 86.5066 25.9677 86.2453 26.0851C85.9839 26.2024 85.7786 26.3651 85.6293 26.5731C85.4853 26.7811 85.4133 27.0237 85.4133 27.3011C85.4133 27.7117 85.5759 28.0477 85.9013 28.3091C86.2266 28.5651 86.6426 28.6931 87.1493 28.6931ZM88.3813 26.2691L87.6133 24.8851L92.0533 24.6851L92.0453 26.3491L88.3813 26.2691ZM95.3899 32.9251C94.8459 32.9251 94.3632 32.8211 93.9419 32.6131C93.5206 32.4051 93.1899 32.1117 92.9499 31.7331C92.7099 31.3491 92.5899 30.8957 92.5899 30.3731C92.5899 29.9251 92.7019 29.5251 92.9259 29.1731C93.1499 28.8211 93.4939 28.5304 93.9579 28.3011C94.4219 28.0664 95.0139 27.9091 95.7339 27.8291C96.4592 27.7491 97.3179 27.7597 98.3099 27.8611L98.3419 29.2131C97.6912 29.1117 97.1232 29.0664 96.6379 29.0771C96.1526 29.0877 95.7499 29.1437 95.4299 29.2451C95.1152 29.3464 94.8779 29.4851 94.7179 29.6611C94.5632 29.8371 94.4859 30.0424 94.4859 30.2771C94.4859 30.6291 94.6139 30.9011 94.8699 31.0931C95.1259 31.2797 95.4752 31.3731 95.9179 31.3731C96.2966 31.3731 96.6352 31.3037 96.9339 31.1651C97.2379 31.0264 97.4779 30.8317 97.6539 30.5811C97.8299 30.3251 97.9179 30.0237 97.9179 29.6771V27.6531C97.9179 27.3171 97.8459 27.0264 97.7019 26.7811C97.5632 26.5304 97.3499 26.3384 97.0619 26.2051C96.7739 26.0664 96.4032 25.9971 95.9499 25.9971C95.5339 25.9971 95.1206 26.0611 94.7099 26.1891C94.3046 26.3117 93.9232 26.5037 93.5659 26.7651L93.0139 25.3011C93.5206 24.9651 94.0539 24.7251 94.6139 24.5811C95.1739 24.4371 95.7152 24.3651 96.2379 24.3651C96.9846 24.3651 97.6299 24.4824 98.1739 24.7171C98.7232 24.9517 99.1446 25.3117 99.4379 25.7971C99.7366 26.2771 99.8859 26.8877 99.8859 27.6291V32.6851H98.0779V31.7731C97.8112 32.1411 97.4432 32.4264 96.9739 32.6291C96.5046 32.8264 95.9766 32.9251 95.3899 32.9251ZM105.586 32.6851V21.4851H107.666V32.6851H105.586ZM109.94 32.6851V24.6851H111.988V25.6451C112.308 25.2237 112.682 24.9197 113.108 24.7331C113.54 24.5411 113.991 24.4451 114.46 24.4451C115.196 24.4451 115.804 24.5917 116.284 24.8851C116.77 25.1784 117.13 25.5544 117.364 26.0131C117.599 26.4717 117.716 26.9517 117.716 27.4531V32.6851H115.668V28.0931C115.668 27.5491 115.511 27.1171 115.196 26.7971C114.882 26.4771 114.442 26.3171 113.876 26.3171C113.508 26.3171 113.18 26.3997 112.892 26.5651C112.61 26.7251 112.388 26.9517 112.228 27.2451C112.068 27.5384 111.988 27.8771 111.988 28.2611V32.6851H109.94ZM122.483 32.9171C121.795 32.9171 121.155 32.8237 120.563 32.6371C119.976 32.4504 119.477 32.1944 119.067 31.8691L119.779 30.4131C120.173 30.6957 120.608 30.9197 121.083 31.0851C121.557 31.2504 122.021 31.3331 122.475 31.3331C122.955 31.3331 123.328 31.2531 123.595 31.0931C123.861 30.9331 123.995 30.7091 123.995 30.4211C123.995 30.1491 123.877 29.9491 123.643 29.8211C123.408 29.6931 122.965 29.5597 122.315 29.4211C121.28 29.2184 120.528 28.9197 120.059 28.5251C119.589 28.1251 119.355 27.5757 119.355 26.8771C119.355 26.3811 119.491 25.9437 119.763 25.5651C120.04 25.1864 120.419 24.8931 120.899 24.6851C121.384 24.4717 121.941 24.3651 122.571 24.3651C123.184 24.3651 123.763 24.4504 124.307 24.6211C124.856 24.7917 125.328 25.0317 125.723 25.3411L125.043 26.8051C124.835 26.6291 124.597 26.4771 124.331 26.3491C124.064 26.2211 123.781 26.1224 123.483 26.0531C123.189 25.9837 122.899 25.9491 122.611 25.9491C122.189 25.9491 121.848 26.0237 121.587 26.1731C121.331 26.3224 121.203 26.5331 121.203 26.8051C121.203 27.0771 121.323 27.2797 121.563 27.4131C121.803 27.5411 122.237 27.6771 122.867 27.8211C123.933 28.0504 124.696 28.3544 125.155 28.7331C125.613 29.1117 125.843 29.6424 125.843 30.3251C125.843 30.8477 125.701 31.3037 125.419 31.6931C125.136 32.0771 124.741 32.3784 124.235 32.5971C123.733 32.8104 123.149 32.9171 122.483 32.9171ZM130.841 32.9251C130.02 32.9251 129.369 32.6904 128.889 32.2211C128.409 31.7517 128.169 31.0424 128.169 30.0931V22.3651H130.217V24.6851H132.321V26.3491H130.217V29.6851C130.217 30.1971 130.319 30.5597 130.521 30.7731C130.724 30.9811 131.004 31.0851 131.361 31.0851C131.543 31.0851 131.713 31.0637 131.873 31.0211C132.039 30.9784 132.191 30.9224 132.329 30.8531L132.649 32.4851C132.415 32.6077 132.14 32.7117 131.825 32.7971C131.511 32.8824 131.183 32.9251 130.841 32.9251ZM126.481 26.3491V24.6851H128.401V26.3491H126.481ZM134.074 32.6851V24.6851H136.122V25.7331C136.399 25.2637 136.746 24.9304 137.162 24.7331C137.583 24.5357 138.037 24.4371 138.522 24.4371C138.693 24.4371 138.85 24.4451 138.994 24.4611C139.138 24.4771 139.277 24.5011 139.41 24.5331L139.154 26.6451C138.989 26.5864 138.815 26.5437 138.634 26.5171C138.458 26.4851 138.282 26.4691 138.106 26.4691C137.53 26.4691 137.055 26.6424 136.682 26.9891C136.309 27.3304 136.122 27.8104 136.122 28.4291V32.6851H134.074ZM143.608 32.9251C142.888 32.9251 142.291 32.7811 141.816 32.4931C141.347 32.2051 140.997 31.8211 140.768 31.3411C140.539 30.8557 140.424 30.3144 140.424 29.7171V24.6851H142.472V29.3651C142.472 29.8771 142.619 30.2877 142.912 30.5971C143.205 30.9011 143.619 31.0531 144.152 31.0531C144.493 31.0531 144.8 30.9757 145.072 30.8211C145.344 30.6611 145.557 30.4424 145.712 30.1651C145.867 29.8877 145.944 29.5651 145.944 29.1971V24.6851H147.992V32.6851H146.184V31.7731C145.891 32.1197 145.533 32.3997 145.112 32.6131C144.696 32.8211 144.195 32.9251 143.608 32.9251ZM153.74 32.9251C152.892 32.9251 152.137 32.7411 151.476 32.3731C150.82 31.9997 150.302 31.4957 149.924 30.8611C149.545 30.2211 149.356 29.4957 149.356 28.6851C149.356 28.0717 149.468 27.5091 149.692 26.9971C149.916 26.4797 150.23 26.0317 150.636 25.6531C151.041 25.2691 151.516 24.9731 152.06 24.7651C152.609 24.5517 153.206 24.4451 153.852 24.4451C154.412 24.4451 154.932 24.5197 155.412 24.6691C155.892 24.8184 156.332 25.0477 156.732 25.3571L155.78 26.9011C155.529 26.6771 155.244 26.5117 154.924 26.4051C154.609 26.2931 154.278 26.2371 153.932 26.2371C153.409 26.2371 152.958 26.3331 152.58 26.5251C152.206 26.7171 151.918 26.9944 151.716 27.3571C151.513 27.7197 151.412 28.1597 151.412 28.6771C151.412 29.4451 151.636 30.0477 152.084 30.4851C152.537 30.9171 153.153 31.1331 153.932 31.1331C154.321 31.1331 154.689 31.0611 155.036 30.9171C155.382 30.7731 155.684 30.5757 155.94 30.3251L156.852 31.8771C156.414 32.2024 155.926 32.4584 155.388 32.6451C154.849 32.8317 154.3 32.9251 153.74 32.9251ZM161.483 32.9251C160.662 32.9251 160.011 32.6904 159.531 32.2211C159.051 31.7517 158.811 31.0424 158.811 30.0931V22.3651H160.859V24.6851H162.963V26.3491H160.859V29.6851C160.859 30.1971 160.96 30.5597 161.163 30.7731C161.366 30.9811 161.646 31.0851 162.003 31.0851C162.184 31.0851 162.355 31.0637 162.515 31.0211C162.68 30.9784 162.832 30.9224 162.971 30.8531L163.291 32.4851C163.056 32.6077 162.782 32.7117 162.467 32.7971C162.152 32.8824 161.824 32.9251 161.483 32.9251ZM157.123 26.3491V24.6851H159.043V26.3491H157.123ZM168.389 32.9251C167.535 32.9251 166.778 32.7331 166.117 32.3491C165.461 31.9597 164.946 31.4451 164.573 30.8051C164.199 30.1597 164.013 29.4531 164.013 28.6851C164.013 28.1197 164.119 27.5811 164.333 27.0691C164.546 26.5571 164.847 26.1064 165.237 25.7171C165.631 25.3224 166.095 25.0131 166.629 24.7891C167.162 24.5597 167.749 24.4451 168.389 24.4451C169.237 24.4451 169.989 24.6371 170.645 25.0211C171.306 25.4051 171.823 25.9197 172.197 26.5651C172.575 27.2104 172.765 27.9171 172.765 28.6851C172.765 29.2504 172.655 29.7891 172.437 30.3011C172.223 30.8077 171.922 31.2584 171.533 31.6531C171.143 32.0477 170.682 32.3597 170.149 32.5891C169.615 32.8131 169.029 32.9251 168.389 32.9251ZM168.381 31.1331C168.834 31.1331 169.237 31.0344 169.589 30.8371C169.946 30.6344 170.226 30.3517 170.429 29.9891C170.631 29.6211 170.733 29.1864 170.733 28.6851C170.733 28.1837 170.631 27.7491 170.429 27.3811C170.226 27.0131 169.949 26.7304 169.597 26.5331C169.245 26.3357 168.842 26.2371 168.389 26.2371C167.935 26.2371 167.53 26.3357 167.173 26.5331C166.821 26.7304 166.543 27.0131 166.341 27.3811C166.143 27.7491 166.045 28.1837 166.045 28.6851C166.045 29.1864 166.146 29.6211 166.349 29.9891C166.551 30.3517 166.829 30.6344 167.181 30.8371C167.533 31.0344 167.933 31.1331 168.381 31.1331ZM174.13 32.6851V24.6851H176.178V25.7331C176.456 25.2637 176.802 24.9304 177.218 24.7331C177.64 24.5357 178.093 24.4371 178.578 24.4371C178.749 24.4371 178.906 24.4451 179.05 24.4611C179.194 24.4771 179.333 24.5011 179.466 24.5331L179.21 26.6451C179.045 26.5864 178.872 26.5437 178.69 26.5171C178.514 26.4851 178.338 26.4691 178.162 26.4691C177.586 26.4691 177.112 26.6424 176.738 26.9891C176.365 27.3304 176.178 27.8104 176.178 28.4291V32.6851H174.13ZM183.36 32.9171C182.672 32.9171 182.032 32.8237 181.44 32.6371C180.854 32.4504 180.355 32.1944 179.944 31.8691L180.656 30.4131C181.051 30.6957 181.486 30.9197 181.96 31.0851C182.435 31.2504 182.899 31.3331 183.352 31.3331C183.832 31.3331 184.206 31.2531 184.472 31.0931C184.739 30.9331 184.872 30.7091 184.872 30.4211C184.872 30.1491 184.755 29.9491 184.52 29.8211C184.286 29.6931 183.843 29.5597 183.192 29.4211C182.158 29.2184 181.406 28.9197 180.936 28.5251C180.467 28.1251 180.232 27.5757 180.232 26.8771C180.232 26.3811 180.368 25.9437 180.64 25.5651C180.918 25.1864 181.296 24.8931 181.776 24.6851C182.262 24.4717 182.819 24.3651 183.448 24.3651C184.062 24.3651 184.64 24.4504 185.184 24.6211C185.734 24.7917 186.206 25.0317 186.6 25.3411L185.92 26.8051C185.712 26.6291 185.475 26.4771 185.208 26.3491C184.942 26.2211 184.659 26.1224 184.36 26.0531C184.067 25.9837 183.776 25.9491 183.488 25.9491C183.067 25.9491 182.726 26.0237 182.464 26.1731C182.208 26.3224 182.08 26.5331 182.08 26.8051C182.08 27.0771 182.2 27.2797 182.44 27.4131C182.68 27.5411 183.115 27.6771 183.744 27.8211C184.811 28.0504 185.574 28.3544 186.032 28.7331C186.491 29.1117 186.72 29.6424 186.72 30.3251C186.72 30.8477 186.579 31.3037 186.296 31.6931C186.014 32.0771 185.619 32.3784 185.112 32.5971C184.611 32.8104 184.027 32.9171 183.36 32.9171Z" fill="white"/>
<g clip-path="url(#clip0_6163_163)">
<rect x="7.17285" y="6.85742" width="42.3457" height="42.3457" rx="12.0988" fill="#8059F0" fill-opacity="0.05"/>
<path d="M29.6109 16.1049C28.9328 16.3113 28.3249 16.8235 28.0365 17.4505C27.7948 17.9704 27.787 18.8268 28.0285 19.3314C28.2545 19.8208 28.7065 20.2872 29.1741 20.5319C29.517 20.7078 29.6728 20.7384 30.234 20.7385C30.9977 20.7385 31.4654 20.5627 31.9486 20.0887C32.4396 19.607 32.6111 19.1636 32.6112 18.3684C32.6112 17.7491 32.5879 17.642 32.3775 17.2673C32.0892 16.7627 31.6605 16.388 31.115 16.1891C30.6864 16.0362 29.985 15.9979 29.6109 16.1049Z" fill="white"/>
<path d="M21.7686 19.9332C21.3633 20.0937 21.0282 20.7589 21.1528 21.1718C21.2541 21.4853 21.5113 21.8447 21.7217 21.9518C21.8386 22.0053 23.0777 22.3724 24.4883 22.7625C26.1483 23.229 27.0367 23.512 27.0367 23.5732C27.0367 23.8408 26.6859 24.5289 26.3508 24.9418C26.1403 25.1941 25.6727 25.6299 25.3142 25.8974C24.2776 26.6849 23.8878 27.0978 23.6852 27.6177C23.5293 28.0382 23.5137 28.1605 23.5526 29.2233C23.6459 31.5783 24.0741 37.2135 24.1831 37.4735C24.4948 38.1999 25.96 38.2765 26.3419 37.5884C26.3887 37.4966 26.4589 37.0226 26.4979 36.5332C26.5681 35.5163 26.7554 32.8555 26.8958 30.8064L26.9895 29.4071L27.613 28.979C28.3378 28.4744 29.6082 27.297 30.1538 26.6242C30.6137 26.0585 31.1671 25.1563 31.362 24.6516C31.44 24.4452 31.5413 24.2617 31.588 24.2464C31.6348 24.2311 32.9753 24.1165 34.5574 23.9867C36.1473 23.8568 37.5735 23.7193 37.7294 23.6811C38.1035 23.5741 38.4776 23.2071 38.5399 22.8707C38.6179 22.4731 38.3842 21.9608 38.0335 21.7314L37.7529 21.5479L34.4407 21.5552C29.5931 21.5701 28.276 21.4018 23.9741 20.2316C22.6259 19.8721 22.1037 19.7956 21.7686 19.9332Z" fill="white"/>
<path d="M20.0581 22.9844C19.9256 23.0609 19.7463 23.2291 19.6606 23.3514C19.154 24.0471 17.6105 27.8471 17.6105 28.4053C17.6104 29.2158 18.2183 29.6669 19.6289 29.9041C20.3692 30.0265 21.9747 30.0725 22.4345 29.9808L22.6839 29.9273L22.6294 29.2621C22.5827 28.6733 22.6685 27.8169 22.801 27.4729C22.84 27.3811 22.6685 27.3658 21.671 27.404C20.7591 27.4421 20.4942 27.4268 20.4942 27.358C20.4942 27.3045 20.767 26.6011 21.11 25.7983C21.4452 24.9878 21.7492 24.2003 21.7726 24.0397C21.8427 23.6574 21.6012 23.1222 21.2817 22.9616C20.9544 22.7933 20.3543 22.8086 20.0581 22.9844Z" fill="white"/>
<path d="M19.5324 36.6254C19.1894 36.9694 17.3343 39.1484 17.2408 39.309C17.1005 39.546 17.116 39.6454 17.3343 39.8518L17.5213 40.043L27.4583 40.0438C33.7712 40.0443 37.4655 40.0141 37.598 39.9682C37.8474 39.8765 37.9799 39.563 37.863 39.3412C37.7695 39.1654 35.5563 36.5961 35.4238 36.512C35.3771 36.4814 33.5455 36.4507 31.3555 36.4505L27.3729 36.4502L27.3183 36.8019C27.2247 37.5206 26.7727 37.4441 31.1138 37.4445L34.9639 37.4448L35.5951 38.1865C35.9458 38.5994 36.2342 38.9588 36.2342 38.9894C36.2342 39.0276 32.3217 39.0502 27.5441 39.0498C21.5274 39.0493 18.8541 39.0262 18.8541 38.9727C18.8541 38.9268 19.1425 38.5674 19.4855 38.1699L20.1246 37.4435L21.6912 37.4284L23.2577 37.4056L23.2266 36.985C23.211 36.7557 23.1876 36.5416 23.1643 36.5033C23.1487 36.4727 22.3615 36.4497 21.4185 36.4497C19.735 36.4495 19.7038 36.4495 19.5324 36.6254Z" fill="white"/>
<g filter="url(#filter1_f_6163_163)">
<circle cx="43.5814" cy="40.8353" r="7.55354" fill="#8059F0"/>
</g>
</g>
<rect x="7.92285" y="7.60742" width="40.8457" height="40.8457" rx="11.3488" stroke="#8059F0" stroke-width="1.5"/>
<path d="M180.259 7.06201V7.06201C186.941 7.06201 192.358 12.4788 192.358 19.1608V19.1608" stroke="#8059F0" stroke-width="2.26852" stroke-linecap="round"/>
<defs>
<filter id="filter1_f_6163_163" x="6.02783" y="3.28174" width="75.1069" height="75.1069" filterUnits="userSpaceOnUse" color-interpolation-filters="sRGB">
<feFlood flood-opacity="0" result="BackgroundImageFix"/>
<feBlend mode="normal" in="SourceGraphic" in2="BackgroundImageFix" result="shape"/>
<feGaussianBlur stdDeviation="15" result="effect1_foregroundBlur_6163_163"/>
</filter>
<linearGradient id="paint0_linear_6163_163" x1="100.079" y1="0.421387" x2="100.079" y2="54.4214" gradientUnits="userSpaceOnUse">
<stop stop-color="#F6F6F6"/>
<stop offset="1" stop-color="#E6E6E6"/>
</linearGradient>
<clipPath id="clip0_6163_163">
<rect x="7.17285" y="6.85742" width="42.3457" height="42.3457" rx="12.0988" fill="white"/>
</clipPath>
</defs>
</svg>
