<svg width="144" height="144" viewBox="0 0 144 144" fill="none" xmlns="http://www.w3.org/2000/svg">
<g filter="url(#filter0_dddddd_6137_696)">
<rect x="52" y="20" width="40" height="40" rx="9.41015" fill="#F1F1F1"/>
<rect x="52.5881" y="20.5881" width="38.8237" height="38.8237" rx="8.82202" stroke="url(#paint0_linear_6137_696)" stroke-width="1.17627"/>
</g>
<g filter="url(#filter1_f_6137_696)">
<circle cx="75.3928" cy="46.25" r="3.85714" fill="#2398D6" fill-opacity="0.3"/>
</g>
<rect x="59" y="25.9999" width="27" height="27" rx="8" fill="#2398D6" fill-opacity="0.05"/>
<rect x="59.4782" y="26.4781" width="26.0436" height="26.0436" rx="7.52179" stroke="#2398D6" stroke-opacity="0.3" stroke-width="0.956414"/>
<path d="M72.0813 31.1963C71.5144 31.3235 70.9739 31.6363 70.6613 32.0181C69.8559 33.0149 69.9301 34.4094 70.8309 35.2949C71.3448 35.7986 71.9594 36.0213 72.6906 35.9683C73.9517 35.8835 74.916 34.8548 74.916 33.5929C74.916 32.4582 74.2007 31.525 73.0986 31.2334C72.8337 31.1644 72.3091 31.1432 72.0813 31.1963Z" fill="#2398D6"/>
<path d="M71.5236 36.4927C70.7447 36.5882 70.04 36.848 69.6797 37.1714C69.3459 37.4737 69.1181 37.8501 68.371 39.3507L67.6769 40.724L66.755 40.9838C64.3283 41.6466 64.4237 41.6148 64.2647 41.9223C64.0793 42.2828 64.164 42.776 64.466 43.0782L64.6515 43.2638L65.1336 43.2266C65.3986 43.2107 66.3364 43.0888 67.216 42.9668C68.8214 42.7335 68.9909 42.6911 69.1817 42.4578C69.2824 42.3306 69.6903 41.5193 69.8811 41.0527C70.0347 40.6922 70.0612 40.6497 70.1142 40.7346C70.199 40.883 70.1778 42.3359 70.0771 42.8502C70.0347 43.0835 70.0029 43.2797 70.0082 43.285C70.0082 43.2903 70.5328 43.4493 71.1686 43.6402L72.3237 43.9902L73.447 43.6508C74.0669 43.4705 74.655 43.2956 74.7557 43.2691C74.9252 43.2213 74.9411 43.2001 74.9305 43.0358C74.8405 41.6625 74.8564 40.5702 74.9676 40.6816C74.9888 40.7081 75.0736 40.883 75.1531 41.0739C75.4021 41.6678 75.7677 42.3677 75.9055 42.5161C76.0909 42.7123 76.2075 42.7388 77.3784 42.9032C77.9348 42.9774 78.7189 43.0888 79.1269 43.1471C79.5349 43.2054 79.9535 43.2532 80.0595 43.2585C80.4992 43.2638 80.7801 42.9456 80.8277 42.3889C80.8595 42.023 80.7642 41.8003 80.5204 41.636C80.4198 41.567 78.9468 41.1428 77.6751 40.8194C77.4897 40.7664 77.3148 40.6922 77.2937 40.6497C77.2672 40.6073 76.981 40.0347 76.6578 39.3772C75.9425 37.935 75.6988 37.5055 75.4127 37.2298C74.867 36.6942 74.2152 36.514 72.7423 36.4874C72.1753 36.4768 71.6243 36.4821 71.5236 36.4927Z" fill="#2398D6"/>
<path d="M67.4158 43.7671C66.6847 43.8838 66.6105 43.905 66.4515 44.0535C66.3562 44.1436 66.2449 44.2974 66.1972 44.3928C66.0912 44.6208 66.0965 45.0821 66.2184 45.3419C66.3932 45.729 66.9549 46.1054 67.4741 46.1903C67.6808 46.2221 67.6967 46.2168 67.7338 46.0736C67.8026 45.7873 68.0252 45.4851 68.3484 45.2465C68.5868 45.0662 68.9259 44.9495 70.0068 44.6738C71.0347 44.414 71.0135 44.4193 70.9817 44.3875C70.9658 44.3716 70.4678 44.2284 69.8743 44.0747C68.0464 43.5869 68.3166 43.624 67.4158 43.7671Z" fill="#2398D6"/>
<path d="M74.4632 44.1542C72.667 44.6367 71.0245 45.0768 69.8005 45.4002C69.5409 45.4692 69.2336 45.554 69.1276 45.5805C68.4547 45.7661 68.1845 46.6092 68.5872 47.256C68.7832 47.5742 69.0746 47.7544 69.4031 47.7544C69.5356 47.7544 70.2297 47.6325 70.9503 47.484L72.2643 47.2083L73.8273 47.5371C75.2791 47.8446 75.4116 47.8658 75.6712 47.8075C76.0686 47.7226 76.3441 47.5158 76.519 47.1765C76.5984 47.0174 76.662 46.8319 76.662 46.7629C76.662 46.6145 76.6514 46.6145 75.7454 46.7258C75.1255 46.8 75.0513 46.8 74.9771 46.7258C74.9294 46.6781 74.9082 46.6304 74.9241 46.6145C74.94 46.5986 75.5599 46.466 76.2964 46.3281C77.9337 46.0153 78.0025 45.9941 78.3205 45.7926C78.9351 45.4002 79.1152 44.5678 78.686 44.0959C78.5483 43.9474 78.49 43.9315 77.5469 43.7777C77.0011 43.6929 76.5243 43.6187 76.4872 43.624C76.4554 43.6293 75.5441 43.8679 74.4632 44.1542Z" fill="#2398D6"/>
<defs>
<filter id="filter0_dddddd_6137_696" x="0" y="0" width="144" height="144" filterUnits="userSpaceOnUse" color-interpolation-filters="sRGB">
<feFlood flood-opacity="0" result="BackgroundImageFix"/>
<feColorMatrix in="SourceAlpha" type="matrix" values="0 0 0 0 0 0 0 0 0 0 0 0 0 0 0 0 0 0 127 0" result="hardAlpha"/>
<feMorphology radius="4" operator="erode" in="SourceAlpha" result="effect1_dropShadow_6137_696"/>
<feOffset dy="5"/>
<feGaussianBlur stdDeviation="0.75"/>
<feComposite in2="hardAlpha" operator="out"/>
<feColorMatrix type="matrix" values="0 0 0 0 0.0313726 0 0 0 0 0.0313726 0 0 0 0 0.0313726 0 0 0 0.05 0"/>
<feBlend mode="normal" in2="BackgroundImageFix" result="effect1_dropShadow_6137_696"/>
<feColorMatrix in="SourceAlpha" type="matrix" values="0 0 0 0 0 0 0 0 0 0 0 0 0 0 0 0 0 0 127 0" result="hardAlpha"/>
<feMorphology radius="4" operator="erode" in="SourceAlpha" result="effect2_dropShadow_6137_696"/>
<feOffset dy="6"/>
<feGaussianBlur stdDeviation="2"/>
<feComposite in2="hardAlpha" operator="out"/>
<feColorMatrix type="matrix" values="0 0 0 0 0.0313726 0 0 0 0 0.0313726 0 0 0 0 0.0313726 0 0 0 0.05 0"/>
<feBlend mode="normal" in2="effect1_dropShadow_6137_696" result="effect2_dropShadow_6137_696"/>
<feColorMatrix in="SourceAlpha" type="matrix" values="0 0 0 0 0 0 0 0 0 0 0 0 0 0 0 0 0 0 127 0" result="hardAlpha"/>
<feOffset dy="6"/>
<feGaussianBlur stdDeviation="6.5"/>
<feComposite in2="hardAlpha" operator="out"/>
<feColorMatrix type="matrix" values="0 0 0 0 0.0313726 0 0 0 0 0.0313726 0 0 0 0 0.0313726 0 0 0 0.03 0"/>
<feBlend mode="normal" in2="effect2_dropShadow_6137_696" result="effect3_dropShadow_6137_696"/>
<feColorMatrix in="SourceAlpha" type="matrix" values="0 0 0 0 0 0 0 0 0 0 0 0 0 0 0 0 0 0 127 0" result="hardAlpha"/>
<feMorphology radius="16" operator="erode" in="SourceAlpha" result="effect4_dropShadow_6137_696"/>
<feOffset dy="24"/>
<feGaussianBlur stdDeviation="12"/>
<feComposite in2="hardAlpha" operator="out"/>
<feColorMatrix type="matrix" values="0 0 0 0 0.0313726 0 0 0 0 0.0313726 0 0 0 0 0.0313726 0 0 0 0.04 0"/>
<feBlend mode="normal" in2="effect3_dropShadow_6137_696" result="effect4_dropShadow_6137_696"/>
<feColorMatrix in="SourceAlpha" type="matrix" values="0 0 0 0 0 0 0 0 0 0 0 0 0 0 0 0 0 0 127 0" result="hardAlpha"/>
<feMorphology radius="2" operator="erode" in="SourceAlpha" result="effect5_dropShadow_6137_696"/>
<feOffset dy="2.15"/>
<feGaussianBlur stdDeviation="0.25"/>
<feComposite in2="hardAlpha" operator="out"/>
<feColorMatrix type="matrix" values="0 0 0 0 0 0 0 0 0 0 0 0 0 0 0 0 0 0 0.25 0"/>
<feBlend mode="normal" in2="effect4_dropShadow_6137_696" result="effect5_dropShadow_6137_696"/>
<feColorMatrix in="SourceAlpha" type="matrix" values="0 0 0 0 0 0 0 0 0 0 0 0 0 0 0 0 0 0 127 0" result="hardAlpha"/>
<feMorphology radius="12" operator="erode" in="SourceAlpha" result="effect6_dropShadow_6137_696"/>
<feOffset dy="32"/>
<feGaussianBlur stdDeviation="32"/>
<feComposite in2="hardAlpha" operator="out"/>
<feColorMatrix type="matrix" values="0 0 0 0 0 0 0 0 0 0 0 0 0 0 0 0 0 0 0.075 0"/>
<feBlend mode="multiply" in2="effect5_dropShadow_6137_696" result="effect6_dropShadow_6137_696"/>
<feBlend mode="normal" in="SourceGraphic" in2="effect6_dropShadow_6137_696" result="shape"/>
</filter>
<filter id="filter1_f_6137_696" x="69.6071" y="40.4643" width="11.5715" height="11.5714" filterUnits="userSpaceOnUse" color-interpolation-filters="sRGB">
<feFlood flood-opacity="0" result="BackgroundImageFix"/>
<feBlend mode="normal" in="SourceGraphic" in2="BackgroundImageFix" result="shape"/>
<feGaussianBlur stdDeviation="0.964286" result="effect1_foregroundBlur_6137_696"/>
</filter>
<linearGradient id="paint0_linear_6137_696" x1="72" y1="20" x2="72" y2="60" gradientUnits="userSpaceOnUse">
<stop stop-color="#F6F6F6"/>
<stop offset="1" stop-color="#E6E6E6"/>
</linearGradient>
</defs>
</svg>
