<svg width="48" height="48" viewBox="0 0 48 48" fill="none" xmlns="http://www.w3.org/2000/svg">
<circle cx="24" cy="24" r="24" fill="url(#paint0_linear_5375_37949)"/>
<path d="M29.9411 12.1196H18.0611C14.7805 12.1196 12.1211 14.7791 12.1211 18.0596V29.9396C12.1211 33.2202 14.7805 35.8796 18.0611 35.8796H29.9411C33.2217 35.8796 35.8811 33.2202 35.8811 29.9396V18.0596C35.8811 14.7791 33.2217 12.1196 29.9411 12.1196Z" stroke="white" stroke-width="2" stroke-linecap="round" stroke-linejoin="round"/>
<path d="M29.2236 23.2252C29.3865 24.3238 29.1988 25.4458 28.6873 26.4315C28.1759 27.4173 27.3665 28.2167 26.3745 28.716C25.3825 29.2153 24.2583 29.3891 23.1619 29.2127C22.0654 29.0362 21.0525 28.5185 20.2672 27.7332C19.4819 26.948 18.9642 25.935 18.7878 24.8386C18.6113 23.7421 18.7851 22.6179 19.2844 21.6259C19.7837 20.6339 20.5831 19.8246 21.5689 19.3131C22.5547 18.8016 23.6766 18.6139 24.7752 18.7768C25.8958 18.943 26.9332 19.4652 27.7342 20.2662C28.5353 21.0672 29.0574 22.1047 29.2236 23.2252Z" stroke="white" stroke-width="2" stroke-linecap="round" stroke-linejoin="round"/>
<path d="M30.0371 16.7529C30.0634 16.7569 30.0888 16.7646 30.1123 16.7764L30.1768 16.8232C30.1958 16.8423 30.2117 16.864 30.2236 16.8877L30.2471 16.9629C30.2548 17.0149 30.2459 17.0686 30.2217 17.1152C30.1975 17.1618 30.1592 17.2 30.1123 17.2236C30.0888 17.2354 30.0637 17.2431 30.0381 17.2471H29.96C29.934 17.2429 29.9089 17.2345 29.8857 17.2227L29.8232 17.1768C29.8047 17.1583 29.7891 17.1372 29.7773 17.1143L29.7529 17.04C29.7488 17.0141 29.749 16.9875 29.7529 16.9619L29.7764 16.8877C29.7882 16.8642 29.804 16.8427 29.8223 16.8242L29.8848 16.7783C29.9081 16.7662 29.9333 16.7582 29.959 16.7539L30.0371 16.7529Z" fill="white" stroke="white" stroke-width="1.5" stroke-linecap="round" stroke-linejoin="round"/>
<defs>
<linearGradient id="paint0_linear_5375_37949" x1="51.6" y1="4.8" x2="3" y2="48" gradientUnits="userSpaceOnUse">
<stop stop-color="#F00F7C"/>
<stop offset="0.658307" stop-color="#EB24E8"/>
<stop offset="1" stop-color="#FDCB26"/>
</linearGradient>
</defs>
</svg>
