<svg width="49" height="48" viewBox="0 0 49 48" fill="none" xmlns="http://www.w3.org/2000/svg">
<circle cx="24.8008" cy="24" r="24" fill="#3C6FEF"/>
<path d="M19.8056 18.7085H15.543V32.3017H19.8056V18.7085Z" stroke="white" stroke-width="1.2"/>
<path d="M31.3402 18.4138C31.183 18.3941 31.016 18.3843 30.8491 18.3745C28.4624 18.2763 27.1169 19.6906 26.6454 20.2995C26.5177 20.4665 26.4588 20.5647 26.4588 20.5647V18.7477H22.3828V32.3409H26.4588H26.6454C26.6454 30.956 26.6454 29.581 26.6454 28.1962C26.6454 27.4497 26.6454 26.7033 26.6454 25.9568C26.6454 25.0336 26.5767 24.0514 27.0383 23.2068C27.4311 22.4996 28.1383 22.146 28.9339 22.146C31.2911 22.146 31.3402 24.2773 31.3402 24.4737C31.3402 24.4836 31.3402 24.4934 31.3402 24.4934V32.3998H35.6028V23.5309C35.6028 20.496 34.0608 18.7084 31.3402 18.4138Z" stroke="white" stroke-width="1.2"/>
<path d="M17.6762 16.9501C19.0432 16.9501 20.1513 15.842 20.1513 14.4751C20.1513 13.1081 19.0432 12 17.6762 12C16.3093 12 15.2012 13.1081 15.2012 14.4751C15.2012 15.842 16.3093 16.9501 17.6762 16.9501Z" stroke="white" stroke-width="1.2"/>
</svg>
